<?xml version="1.0" encoding="UTF-8" standalone="no"?>
<svg width="55px" height="55px" version="1.1" xmlns="http://www.w3.org/2000/svg" xmlns:xlink="http://www.w3.org/1999/xlink" xmlns:sketch="http://www.bohemiancoding.com/sketch/ns">
    <title>account-online</title>
    <description>Created with Sketch (http://www.bohemiancoding.com/sketch)</description>
    <defs></defs>
    <g id="Page 1" fill="rgb(215,215,215)" fill-rule="evenodd">
        <g id="g430" fill="rgb(113,175,250)">
            <path d="M5.25636752,11.5187741 C3.20816486,14.5775092 2,18.3321999 2,22.3856982 C2,31.7567891 8.30999994,39.4618424 16.6929998,40.778919 L16.6929998,49.303531 C16.6929998,50.1410367 17.2039998,50.8957889 17.9839998,51.2088565 C18.2339998,51.3085596 18.4939998,51.356417 18.7519999,51.356417 C19.3029999,51.356417 19.8429998,51.1360733 20.2399999,50.7242996 L21.9542104,48.9393602 L29.5949994,40.98331 L34.5949994,40.98331 C44.0989991,40.98331 51.8309995,32.6411552 51.8309995,22.385698 C51.8319998,12.131227 44.0989981,3.78908268 34.5950003,3.78908268 L19.2360001,3.78908268 C13.488848,3.78908268 8.3896678,6.83958098 5.25636752,11.5187741 Z M5.25636752,11.5187741" id="path432"></path>
        </g>
    </g>
</svg>