<?xml version="1.0" encoding="UTF-8" standalone="no"?>
<svg width="50px" height="50px" viewBox="0 0 50 50" version="1.1" xmlns="http://www.w3.org/2000/svg" xmlns:xlink="http://www.w3.org/1999/xlink" xmlns:sketch="http://www.bohemiancoding.com/sketch/ns">
    <title>account-none</title>
    <description>Created with Sketch (http://www.bohemiancoding.com/sketch)</description>
    <defs></defs>
    <g id="Page-1" stroke="none" stroke-width="1" fill="none" fill-rule="evenodd" sketch:type="MSPage">
        <g id="account-none" sketch:type="MSLayerGroup" transform="translate(0.000000, 1.000000)" fill="#000000">
            <g id="Page-1" sketch:type="MSShapeGroup">
                <g id="g430">
                    <path d="M3.25636752,7.5187741 C1.20816486,10.5775092 0,14.3321999 0,18.3856982 C0,27.7567891 6.30999994,35.4618424 14.6929998,36.778919 L14.6929998,45.303531 C14.6929998,46.1410367 15.2039998,46.8957889 15.9839998,47.2088565 C16.2339998,47.3085596 16.4939998,47.356417 16.7519999,47.356417 C17.3029999,47.356417 17.8429998,47.1360733 18.2399999,46.7242996 L19.9542104,44.9393602 L27.5949994,36.98331 L32.5949994,36.98331 C42.0989991,36.98331 49.8309995,28.6411552 49.8309995,18.385698 C49.8319998,8.131227 42.0989981,-0.21091732 32.5950003,-0.21091732 L17.2360001,-0.21091732 C11.488848,-0.21091732 6.3896678,2.83958098 3.25636752,7.5187741 L3.25636752,7.5187741 Z" id="path432"></path>
                </g>
            </g>
        </g>
    </g>
</svg>