<?xml version="1.0" encoding="UTF-8" standalone="no"?>
<svg width="62px" height="62px" viewBox="0 0 62 62" version="1.1" xmlns="http://www.w3.org/2000/svg" xmlns:xlink="http://www.w3.org/1999/xlink" xmlns:sketch="http://www.bohemiancoding.com/sketch/ns">
    <title>Slice 1</title>
    <description>Created with Sketch (http://www.bohemiancoding.com/sketch)</description>
    <defs></defs>
    <g id="Page-1" stroke="none" stroke-width="1" fill="none" fill-rule="evenodd" sketch:type="MSPage">
        <g id="account-settings" sketch:type="MSLayerGroup" transform="translate(1.000000, 1.000000)" fill="#000000">
            <g id="Page-1" sketch:type="MSShapeGroup">
                <g id="account-settings">
                    <g id="Page-1">
                        <path d="M51.0600062,15.0759327 L40.5857196,25.552555 L37.0910209,22.5074737 L47.7906208,11.8039501 L49.2134624,8.24707031 L53.5493811,5.02172353 L57.8461191,9.31341677 L54.625705,13.6433753 L51.0600062,15.0759327 L51.0600062,15.0759327 Z M57.345307,44.205397 C61.0555096,47.9156369 61.0542764,53.9534837 57.3428584,57.6662143 C55.5440824,59.4649897 53.152654,60.4543774 50.6106132,60.4543774 C48.0685724,60.4543774 45.6795929,59.4649898 43.8428582,57.6258061 L21.5938785,32.0829482 C19.524491,32.5115197 17.4085725,32.7368258 15.4457154,32.7368258 L15.4444909,32.7368258 C10.7657158,32.7368258 7.02612397,31.4694787 4.62734847,29.0719277 C0.596328,25.0384588 -1.14979445,19.289479 -0.0404066755,13.6886628 C0.0195933184,13.3825403 0.242450461,13.1388669 0.536328,13.0507036 C0.831430004,12.9613158 1.15102184,13.0409077 1.37143002,13.2600913 L8.67183806,20.5580505 L15.732246,22.0188669 L21.6955112,16.0580505 L20.2334702,8.99641758 L12.9330623,1.69478515 C12.7151031,1.47805047 12.6355113,1.15600963 12.7248991,0.862132078 C12.8155113,0.565805547 13.0591848,0.345397384 13.3628582,0.284172894 C14.4538787,0.068662702 15.5730623,-0.0427658706 16.6885727,-0.0427658706 C21.2436744,-0.0427658706 25.5269396,1.7315197 28.7448988,4.9531524 C33.6391845,9.844989 32.4281641,18.6380505 31.7571437,21.9172342 L37.2820418,26.7294791 L37.9702051,27.3294791 L57.345307,44.205397 L57.345307,44.205397 Z M52.2930535,52.6138991 C51.3648901,53.5432869 49.8624411,53.5432869 48.9342779,52.6151236 L48.9330534,52.6138991 C48.0061146,51.6857358 48.0061146,50.1808379 48.9330534,49.2538991 C49.8612167,48.3281848 51.3648901,48.3281848 52.2930534,49.2563481 L52.2942779,49.2563481 C53.2199968,50.1831553 53.2199968,51.6856664 52.2930535,52.6138991 L52.2930535,52.6138991 L52.2930535,52.6138991 Z M20.401219,36.7042013 L25.5342795,42.6809353 C26.3816264,43.5295067 26.3816264,44.9046087 25.5342795,45.7519556 L11.7244837,59.5605276 C10.8746879,60.40665 9.50081035,60.40665 8.65346344,59.5605276 L3.1016268,54.0062422 C2.2542799,53.1564463 2.2542799,51.7825687 3.1016268,50.9364463 L17.3314231,36.7042013 C18.1799945,35.8568543 19.553872,35.8568543 20.401219,36.7042013 L20.401219,36.7042013 L20.401219,36.7042013 Z" id="Shape"></path>
                    </g>
                </g>
            </g>
        </g>
    </g>
</svg>