<?xml version="1.0" encoding="UTF-8" standalone="no"?>
<svg width="51px" height="51px" version="1.1" xmlns="http://www.w3.org/2000/svg" xmlns:xlink="http://www.w3.org/1999/xlink" xmlns:sketch="http://www.bohemiancoding.com/sketch/ns">
    <title>account-settings</title>
    <description>Created with Sketch (http://www.bohemiancoding.com/sketch)</description>
    <defs>
        <linearGradient x1="50%" y1="0%" x2="50%" y2="173.920641%" id="linearGradient-1">
            <stop stop-color="rgb(123,125,121)" offset="0%"></stop>
            <stop stop-color="rgb(0,0,0)" offset="100%"></stop>
        </linearGradient>
    </defs>
    <g id="Page 1" fill="rgb(215,215,215)" fill-rule="evenodd">
        <path d="M42.6990051,13.3120117 L34.1450043,21.8679199 L31.2910004,19.3811035 L40.029007,10.6398926 L41.1909943,7.73510742 L44.7319946,5.10107422 L48.2409973,8.60595703 L45.6109924,12.1420898 Z M47.8320007,37.1010742 C50.8619995,40.1311035 50.8609924,45.0620117 47.830001,48.094075 C46.3610006,49.5630749 44.4080008,50.3710749 42.3320008,50.3710749 C40.2560008,50.3710749 38.3050009,49.563075 36.8050009,48.061075 L18.6350008,27.2010744 C16.945001,27.5510744 15.2170009,27.7350744 13.6140009,27.7350744 L13.6130009,27.7350744 C9.79200126,27.7350744 6.73800124,26.7000743 4.77900125,24.7420743 C1.4870012,21.4480747 0.0610011965,16.7530745 0.967001215,12.1790746 C1.01600121,11.9290746 1.19800121,11.7300746 1.4380012,11.6580746 C1.67900117,11.5850746 1.94000117,11.6500746 2.12000118,11.8290746 L8.08200108,17.7890746 L13.8480009,18.9820746 L18.7180008,14.1140746 L17.5240007,8.34707436 L11.5620009,2.38407454 C11.3840009,2.20707455 11.3190009,1.94407453 11.3920009,1.70407453 C11.4660009,1.46207453 11.6650009,1.28207453 11.9130009,1.23207453 C12.8040009,1.05607454 13.7180009,0.965074539 14.629001,0.965074539 C18.3490008,0.965074539 21.8470007,2.41407442 24.4750007,5.04507446 C28.4720007,9.04007435 27.4830007,16.2210746 26.9350007,18.8990746 L31.4470008,22.8290746 L32.0090008,23.3190746 Z M43.7059937,43.9680176 C42.9479936,44.7270176 41.7209936,44.7270176 40.9629936,43.9690176 L40.9619936,43.9680176 C40.2049936,43.2100176 40.2049936,41.9810176 40.9619936,41.2240176 C41.7199936,40.4680176 42.9479936,40.4680176 43.7059936,41.2260176 L43.7069936,41.2260176 C44.4629974,41.9829102 44.4629974,43.2099609 43.7059937,43.9680176 Z M17.6609955,30.9750977 L21.8529949,35.8560972 C22.5449949,36.5490971 22.5449949,37.6720971 21.8529949,38.3640971 L10.574995,49.6410975 C9.88099515,50.3320975 8.75899512,50.3320975 8.06699514,49.6410975 L3.53299522,45.1050978 C2.84099525,44.4110978 2.84099525,43.2890978 3.53299522,42.5980978 L15.1539955,30.9750977 C15.8469955,30.2830977 16.9689955,30.2830977 17.6609955,30.9750977 Z M17.6609955,30.9750977" id="Shape" fill="url(#linearGradient-1)"></path>
    </g>
</svg>