<?xml version="1.0" encoding="UTF-8" standalone="no"?>
<svg width="55px" height="55px" version="1.1" xmlns="http://www.w3.org/2000/svg" xmlns:xlink="http://www.w3.org/1999/xlink" xmlns:sketch="http://www.bohemiancoding.com/sketch/ns">
    <title>add-contact</title>
    <description>Created with Sketch (http://www.bohemiancoding.com/sketch)</description>
    <defs>
        <linearGradient x1="50%" y1="0%" x2="50%" y2="100%" id="linearGradient-1">
            <stop stop-color="rgb(95,88,88)" offset="0%"></stop>
            <stop stop-color="rgb(34,31,31)" offset="100%"></stop>
        </linearGradient>
        <linearGradient x1="50%" y1="0%" x2="50%" y2="173.920641%" id="linearGradient-2">
            <stop stop-color="rgb(123,125,121)" offset="0%"></stop>
            <stop stop-color="rgb(0,0,0)" offset="100%"></stop>
        </linearGradient>
    </defs>
    <g id="Page 1" fill="rgb(215,215,215)" fill-rule="evenodd">
        <g id="Group" stroke="rgb(150,150,150)" stroke-width="1" fill="url(#linearGradient-1)">
            <path d="M37.7720032,29.5539551 C31.769989,30.1109619 27.052002,35.1710205 27.0530045,41.3179558 C27.0530045,43.0919557 27.4560045,44.7689556 28.1580045,46.2799557 L20.0980041,46.2799557 C20.0580041,46.2919557 20.0180041,46.2979557 19.9740041,46.2979557 L5.86000377,46.2979557 C5.73200378,46.2979557 5.60800378,46.2459557 5.51900378,46.1529557 C5.42900378,46.0609557 5.37900378,45.9379557 5.38200378,45.8099557 C5.5860033,36.1639548 9.65200329,28.344955 16.2560034,24.897955 C16.4300034,24.808955 16.6390034,24.832955 16.7870034,24.958955 C18.2620035,26.2229551 20.0390035,27.1019551 21.9240035,27.4979551 C21.9260033,27.4979551 22.8810034,27.680955 24.2380034,27.680955 C25.0350033,27.680955 25.8120033,27.618955 26.5480033,27.496955 C28.4120032,27.1009549 30.1890031,26.221955 31.6620032,24.9589549 C31.8100032,24.8329549 32.0190032,24.8079549 32.1930032,24.8979549 C34.3370032,26.0169551 36.2090032,27.6009551 37.7720032,29.5539551 Z M24.2260132,24.9150391 C18.1520081,24.9150391 13.2109985,19.8580322 13.211013,13.643039 C13.211013,11.2640388 13.9400131,9.05803886 15.1740131,7.23803881 C15.2140131,7.11403881 15.2780131,6.99503881 15.3690131,6.89103881 C15.4080131,6.8460388 15.4590131,6.8220388 15.5040131,6.7870388 C17.5200133,4.10803878 20.6740131,2.37203884 24.2260132,2.37203884 C30.3000126,2.37203884 35.2390127,7.42903852 35.2390127,13.6430387 C35.2390127,19.8580389 30.2990131,24.9150391 24.2260132,24.9150391 Z M40.8389893,32.3830566 C46.303009,32.3830566 50.7520142,36.8299561 50.7519894,42.2940569 C50.7519894,47.7610569 46.3029895,52.207057 40.8389893,52.207057 C35.3719893,52.207057 30.9259892,47.7610569 30.9259892,42.2940569 C30.9259892,36.8300567 35.3719893,32.3830566 40.8389893,32.3830566 Z M40.8389893,50.6779785 C36.2149892,50.6779785 32.453989,46.9169786 32.453989,42.2939787 C32.453989,37.6719785 36.2149889,33.9119787 40.8389893,33.9119787 C45.4609895,33.9119787 49.2209892,37.6719787 49.2209892,42.2939787 C49.2210083,46.9169922 45.4609985,50.6779785 40.8389893,50.6779785 Z M42.1209874,41.1409912 L42.1209874,37.3059912 C42.1209874,36.9709912 41.8499874,36.6989912 41.5169874,36.6989912 L40.3059875,36.6989912 C39.9749875,36.6989912 39.7019875,36.9709912 39.7019875,37.3059912 L39.7019875,41.1409912 L36.0379875,41.1409912 C35.7019875,41.1409912 35.4319875,41.4119912 35.4319875,41.7469912 L35.4319875,42.8789912 C35.4319875,43.2139912 35.7029875,43.4849912 36.0379875,43.4849912 L39.7019875,43.4849912 L39.7019875,47.3579911 C39.7019875,47.6919911 39.9749875,47.9629911 40.3059875,47.9629911 L41.5169874,47.9629911 C41.8509874,47.9629911 42.1209874,47.6919911 42.1209874,47.3579911 L42.1209874,43.4849912 L45.7869873,43.4849912 C46.1209873,43.4849912 46.3919873,43.2139912 46.3919873,42.8789912 L46.3919873,41.7469912 C46.3930054,41.4110107 46.1210022,41.1409912 45.7869873,41.1409912 Z M42.1209874,41.1409912" id="Shape" fill="url(#linearGradient-2)"></path>
        </g>
    </g>
</svg>