<?xml version="1.0" encoding="UTF-8" standalone="no"?>
<svg width="46px" height="51px" version="1.1" xmlns="http://www.w3.org/2000/svg" xmlns:xlink="http://www.w3.org/1999/xlink" xmlns:sketch="http://www.bohemiancoding.com/sketch/ns">
    <title>add-contact</title>
    <description>Created with Sketch (http://www.bohemiancoding.com/sketch)</description>
    <defs></defs>
    <g id="Page 1" fill="rgb(223,223,223)" fill-rule="evenodd">
        <g id="Group" fill="rgb(0,0,0)">
            <path d="M19.2260132,22.9150391 C25.2990131,22.9150391 30.2390127,17.8580389 30.2390127,11.6430387 C30.2390127,5.42903852 25.3000126,0.372038841 19.2260132,0.372038841 C15.6740131,0.372038841 12.5200133,2.10803878 10.5040131,4.7870388 C10.4590131,4.8220388 10.4080131,4.8460388 10.3690131,4.89103881 C10.2780131,4.99503881 10.2140131,5.11403881 10.1740131,5.23803881 C8.9400131,7.05803886 8.211013,9.26403883 8.211013,11.643039 C8.21099854,17.8580322 13.1520081,22.9150391 19.2260132,22.9150391 C19.2260132,22.9150391 13.1520081,22.9150391 19.2260132,22.9150391 L19.2260132,22.9150391 M19.2260132,2.84802246 C20.9050132,2.84802246 22.4680133,3.35702246 23.7900133,4.22302246 C22.5300133,4.37802246 21.0560133,4.99802244 18.8450131,6.18102241 C16.692013,7.3340224 14.3840132,6.4280224 13.0070133,5.6350224 C14.5660095,3.9239502 16.7730103,2.84802246 19.2260132,2.84802246 C19.2260132,2.84802246 16.7730103,2.84802246 19.2260132,2.84802246 L19.2260132,2.84802246 M11.8380127,7.25305176 C12.9690127,7.93405175 14.6900127,8.72205174 16.6150126,8.72205174 C17.6330127,8.72205174 18.7070127,8.50105174 19.7780128,7.92805171 C23.6890128,5.8360517 24.5100126,5.8920517 26.0400128,6.59305167 C26.1040128,6.62205167 26.1720128,6.62505167 26.2380128,6.64005167 C27.1970128,8.06205172 27.7620129,9.78505165 27.7620129,11.6430515 C27.7620129,16.4940513 23.932013,20.4400514 19.2250132,20.4400514 C14.517013,20.4400514 10.6870131,16.4940513 10.6870131,11.6430515 C10.6879883,10.0429688 11.1099854,8.54699707 11.8380127,7.25305176 C11.8380127,7.25305176 11.1099854,8.54699707 11.8380127,7.25305176 L11.8380127,7.25305176" id="Shape"></path>
            <path d="M32.7720032,27.5539551 C31.2090032,25.6009551 29.3370032,24.0169551 27.1930032,22.8979549 C27.0190032,22.8079549 26.8100032,22.8329549 26.6620032,22.9589549 C25.1890031,24.221955 23.4120032,25.1009549 21.5480033,25.496955 C20.8120033,25.618955 20.0350033,25.680955 19.2380034,25.680955 C17.8810034,25.680955 16.9260033,25.4979551 16.9240035,25.4979551 C15.0390035,25.1019551 13.2620035,24.2229551 11.7870034,22.958955 C11.6390034,22.832955 11.4300034,22.808955 11.2560034,22.897955 C4.65200329,26.344955 0.586003304,34.1639548 0.382003784,43.8099557 C0.379003784,43.9379557 0.429003783,44.0609557 0.519003779,44.1529557 C0.60800378,44.2459557 0.732003778,44.2979557 0.860003769,44.2979557 L14.9740041,44.2979557 C15.0180041,44.2979557 15.0580041,44.2919557 15.0980041,44.2799557 L23.1580045,44.2799557 C22.4560045,42.7689556 22.0530045,41.0919557 22.0530045,39.3179558 C22.052002,33.1710205 26.769989,28.1109619 32.7720032,27.5539551 C32.7720032,27.5539551 26.769989,28.1109619 32.7720032,27.5539551 L32.7720032,27.5539551" id="Shape"></path>
            <path d="M35.8389893,30.3830566 C30.3719893,30.3830566 25.9259892,34.8300567 25.9259892,40.2940569 C25.9259892,45.7610569 30.3719893,50.207057 35.8389893,50.207057 C41.3029895,50.207057 45.7519894,45.7610569 45.7519894,40.2940569 C45.7520142,34.8299561 41.303009,30.3830566 35.8389893,30.3830566 L35.8389893,30.3830566 L35.8389893,30.3830566 M35.8389893,48.6779785 C31.2149892,48.6779785 27.453989,44.9169786 27.453989,40.2939787 C27.453989,35.6719785 31.2149889,31.9119787 35.8389893,31.9119787 C40.4609895,31.9119787 44.2209892,35.6719787 44.2209892,40.2939787 C44.2210083,44.9169922 40.4609985,48.6779785 35.8389893,48.6779785 L35.8389893,48.6779785 L35.8389893,48.6779785" id="Shape"></path>
            <path d="M37.1209874,39.1409912 L37.1209874,35.3059912 C37.1209874,34.9709912 36.8499874,34.6989912 36.5169874,34.6989912 L35.3059875,34.6989912 C34.9749875,34.6989912 34.7019875,34.9709912 34.7019875,35.3059912 L34.7019875,39.1409912 L31.0379875,39.1409912 C30.7019875,39.1409912 30.4319875,39.4119912 30.4319875,39.7469912 L30.4319875,40.8789912 C30.4319875,41.2139912 30.7029875,41.4849912 31.0379875,41.4849912 L34.7019875,41.4849912 L34.7019875,45.3579911 C34.7019875,45.6919911 34.9749875,45.9629911 35.3059875,45.9629911 L36.5169874,45.9629911 C36.8509874,45.9629911 37.1209874,45.6919911 37.1209874,45.3579911 L37.1209874,41.4849912 L40.7869873,41.4849912 C41.1209873,41.4849912 41.3919873,41.2139912 41.3919873,40.8789912 L41.3919873,39.7469912 C41.3930054,39.4110107 41.1210022,39.1409912 40.7869873,39.1409912 L37.1209874,39.1409912 Z M37.1209874,39.1409912" id="Shape"></path>
        </g>
    </g>
</svg>