<?xml version="1.0" encoding="UTF-8" standalone="no"?>
<svg width="60px" height="60px" viewBox="0 0 60 60" version="1.1" xmlns="http://www.w3.org/2000/svg" xmlns:xlink="http://www.w3.org/1999/xlink" xmlns:sketch="http://www.bohemiancoding.com/sketch/ns">
    <title>add-contact</title>
    <description>Created with Sketch (http://www.bohemiancoding.com/sketch)</description>
    <defs>
        <linearGradient x1="50%" y1="0%" x2="50%" y2="100%" id="linearGradient-1">
            <stop stop-color="rgb(95,88,88)" offset="0%"></stop>
            <stop stop-color="rgb(34,31,31)" offset="100%"></stop>
        </linearGradient>
        <linearGradient x1="50%" y1="0%" x2="50%" y2="173.920641%" id="linearGradient-2">
            <stop stop-color="rgb(123,125,121)" offset="0%"></stop>
            <stop stop-color="rgb(0,0,0)" offset="100%"></stop>
        </linearGradient>
    </defs>
    <g id="Page 1" fill="rgb(215,215,215)" fill-rule="evenodd">
        <g id="Group" stroke="rgb(150,150,150)" stroke-width="1" fill="url(#linearGradient-1)">
            <path d="M41.7720032,33.5539551 C35.769989,34.1109619 31.052002,39.1710205 31.0530045,45.3179558 C31.0530045,47.0919557 31.4560045,48.7689556 32.1580045,50.2799557 L24.0980041,50.2799557 C24.0580041,50.2919557 24.0180041,50.2979557 23.9740041,50.2979557 L9.86000377,50.2979557 C9.73200378,50.2979557 9.60800378,50.2459557 9.51900378,50.1529557 C9.42900378,50.0609557 9.37900378,49.9379557 9.38200378,49.8099557 C9.5860033,40.1639548 13.6520033,32.344955 20.2560034,28.897955 C20.4300034,28.808955 20.6390034,28.832955 20.7870034,28.958955 C22.2620035,30.2229551 24.0390035,31.1019551 25.9240035,31.4979551 C25.9260033,31.4979551 26.8810034,31.680955 28.2380034,31.680955 C29.0350033,31.680955 29.8120033,31.618955 30.5480033,31.496955 C32.4120032,31.1009549 34.1890031,30.221955 35.6620032,28.9589549 C35.8100032,28.8329549 36.0190032,28.8079549 36.1930032,28.8979549 C38.3370032,30.0169551 40.2090032,31.6009551 41.7720032,33.5539551 Z M28.2260132,28.9150391 C22.1520081,28.9150391 17.2109985,23.8580322 17.211013,17.643039 C17.211013,15.2640388 17.9400131,13.0580389 19.1740131,11.2380388 C19.2140131,11.1140388 19.2780131,10.9950388 19.3690131,10.8910388 C19.4080131,10.8460388 19.4590131,10.8220388 19.5040131,10.7870388 C21.5200133,8.10803878 24.6740131,6.37203884 28.2260132,6.37203884 C34.3000126,6.37203884 39.2390127,11.4290385 39.2390127,17.6430387 C39.2390127,23.8580389 34.2990131,28.9150391 28.2260132,28.9150391 Z M44.8389893,36.3830566 C50.303009,36.3830566 54.7520142,40.8299561 54.7519894,46.2940569 C54.7519894,51.7610569 50.3029895,56.207057 44.8389893,56.207057 C39.3719893,56.207057 34.9259892,51.7610569 34.9259892,46.2940569 C34.9259892,40.8300567 39.3719893,36.3830566 44.8389893,36.3830566 Z M44.8389893,54.6779785 C40.2149892,54.6779785 36.453989,50.9169786 36.453989,46.2939787 C36.453989,41.6719785 40.2149889,37.9119787 44.8389893,37.9119787 C49.4609895,37.9119787 53.2209892,41.6719787 53.2209892,46.2939787 C53.2210083,50.9169922 49.4609985,54.6779785 44.8389893,54.6779785 Z M46.1209874,45.1409912 L46.1209874,41.3059912 C46.1209874,40.9709912 45.8499874,40.6989912 45.5169874,40.6989912 L44.3059875,40.6989912 C43.9749875,40.6989912 43.7019875,40.9709912 43.7019875,41.3059912 L43.7019875,45.1409912 L40.0379875,45.1409912 C39.7019875,45.1409912 39.4319875,45.4119912 39.4319875,45.7469912 L39.4319875,46.8789912 C39.4319875,47.2139912 39.7029875,47.4849912 40.0379875,47.4849912 L43.7019875,47.4849912 L43.7019875,51.3579911 C43.7019875,51.6919911 43.9749875,51.9629911 44.3059875,51.9629911 L45.5169874,51.9629911 C45.8509874,51.9629911 46.1209874,51.6919911 46.1209874,51.3579911 L46.1209874,47.4849912 L49.7869873,47.4849912 C50.1209873,47.4849912 50.3919873,47.2139912 50.3919873,46.8789912 L50.3919873,45.7469912 C50.3930054,45.4110107 50.1210022,45.1409912 49.7869873,45.1409912 Z M46.1209874,45.1409912" id="Shape" fill="url(#linearGradient-2)"></path>
        </g>
    </g>
</svg>