<?xml version="1.0" encoding="UTF-8" standalone="no"?>
<svg width="46px" height="51px" viewBox="0 0 46 51" version="1.1" xmlns="http://www.w3.org/2000/svg" xmlns:xlink="http://www.w3.org/1999/xlink" xmlns:sketch="http://www.bohemiancoding.com/sketch/ns">
    <title>add-contact</title>
    <description>Created with Sketch (http://www.bohemiancoding.com/sketch)</description>
    <defs>
        <linearGradient x1="50%" y1="0%" x2="50%" y2="100%" id="linearGradient-1">
            <stop stop-color="rgb(95,88,88)" offset="0%"></stop>
            <stop stop-color="rgb(34,31,31)" offset="100%"></stop>
        </linearGradient>
        <linearGradient x1="50%" y1="0%" x2="50%" y2="173.920641%" id="linearGradient-2">
            <stop stop-color="rgb(123,125,121)" offset="0%"></stop>
            <stop stop-color="rgb(0,0,0)" offset="100%"></stop>
        </linearGradient>
    </defs>
    <g id="Page 1" fill="rgb(215,215,215)" fill-rule="evenodd">
        <g id="Group" stroke="rgb(150,150,150)" stroke-width="1" fill="url(#linearGradient-1)">
            <path d="M32.7720032,27.5539551 C26.769989,28.1109619 22.052002,33.1710205 22.0530045,39.3179558 C22.0530045,41.0919557 22.4560045,42.7689556 23.1580045,44.2799557 L15.0980041,44.2799557 C15.0580041,44.2919557 15.0180041,44.2979557 14.9740041,44.2979557 L0.860003769,44.2979557 C0.732003778,44.2979557 0.60800378,44.2459557 0.519003779,44.1529557 C0.429003783,44.0609557 0.379003784,43.9379557 0.382003784,43.8099557 C0.586003304,34.1639548 4.65200329,26.344955 11.2560034,22.897955 C11.4300034,22.808955 11.6390034,22.832955 11.7870034,22.958955 C13.2620035,24.2229551 15.0390035,25.1019551 16.9240035,25.4979551 C16.9260033,25.4979551 17.8810034,25.680955 19.2380034,25.680955 C20.0350033,25.680955 20.8120033,25.618955 21.5480033,25.496955 C23.4120032,25.1009549 25.1890031,24.221955 26.6620032,22.9589549 C26.8100032,22.8329549 27.0190032,22.8079549 27.1930032,22.8979549 C29.3370032,24.0169551 31.2090032,25.6009551 32.7720032,27.5539551 Z M19.2260132,22.9150391 C13.1520081,22.9150391 8.21099854,17.8580322 8.211013,11.643039 C8.211013,9.26403883 8.9400131,7.05803886 10.1740131,5.23803881 C10.2140131,5.11403881 10.2780131,4.99503881 10.3690131,4.89103881 C10.4080131,4.8460388 10.4590131,4.8220388 10.5040131,4.7870388 C12.5200133,2.10803878 15.6740131,0.372038841 19.2260132,0.372038841 C25.3000126,0.372038841 30.2390127,5.42903852 30.2390127,11.6430387 C30.2390127,17.8580389 25.2990131,22.9150391 19.2260132,22.9150391 Z M35.8389893,30.3830566 C41.303009,30.3830566 45.7520142,34.8299561 45.7519894,40.2940569 C45.7519894,45.7610569 41.3029895,50.207057 35.8389893,50.207057 C30.3719893,50.207057 25.9259892,45.7610569 25.9259892,40.2940569 C25.9259892,34.8300567 30.3719893,30.3830566 35.8389893,30.3830566 Z M35.8389893,48.6779785 C31.2149892,48.6779785 27.453989,44.9169786 27.453989,40.2939787 C27.453989,35.6719785 31.2149889,31.9119787 35.8389893,31.9119787 C40.4609895,31.9119787 44.2209892,35.6719787 44.2209892,40.2939787 C44.2210083,44.9169922 40.4609985,48.6779785 35.8389893,48.6779785 Z M37.1209874,39.1409912 L37.1209874,35.3059912 C37.1209874,34.9709912 36.8499874,34.6989912 36.5169874,34.6989912 L35.3059875,34.6989912 C34.9749875,34.6989912 34.7019875,34.9709912 34.7019875,35.3059912 L34.7019875,39.1409912 L31.0379875,39.1409912 C30.7019875,39.1409912 30.4319875,39.4119912 30.4319875,39.7469912 L30.4319875,40.8789912 C30.4319875,41.2139912 30.7029875,41.4849912 31.0379875,41.4849912 L34.7019875,41.4849912 L34.7019875,45.3579911 C34.7019875,45.6919911 34.9749875,45.9629911 35.3059875,45.9629911 L36.5169874,45.9629911 C36.8509874,45.9629911 37.1209874,45.6919911 37.1209874,45.3579911 L37.1209874,41.4849912 L40.7869873,41.4849912 C41.1209873,41.4849912 41.3919873,41.2139912 41.3919873,40.8789912 L41.3919873,39.7469912 C41.3930054,39.4110107 41.1210022,39.1409912 40.7869873,39.1409912 Z M37.1209874,39.1409912" id="Shape" fill="url(#linearGradient-2)"></path>
        </g>
    </g>
</svg>