<?xml version="1.0" encoding="UTF-8" standalone="no"?>
<svg width="62px" height="62px" viewBox="0 0 62 62" version="1.1" xmlns="http://www.w3.org/2000/svg" xmlns:xlink="http://www.w3.org/1999/xlink" xmlns:sketch="http://www.bohemiancoding.com/sketch/ns">
    <title>Slice 2</title>
    <description>Created with Sketch (http://www.bohemiancoding.com/sketch)</description>
    <defs></defs>
    <g id="Page-1" stroke="none" stroke-width="1" fill="none" fill-rule="evenodd" sketch:type="MSPage">
        <g id="add-contact" sketch:type="MSLayerGroup" transform="translate(3.000000, 1.000000)" fill="#000000">
            <g id="Page-1" sketch:type="MSShapeGroup">
                <g id="add-contact">
                    <g id="Page-1">
                        <g id="Group">
                            <path d="M39.2500286,32.9903384 C32.0476116,33.6587465 26.3860272,39.7308168 26.3872302,47.1071392 C26.3872302,49.2359391 26.8708302,51.248339 27.7132302,53.0615391 L18.0412297,53.0615391 C17.9932297,53.0759391 17.9452297,53.0831391 17.8924297,53.0831391 L0.955629299,53.0831391 C0.802029311,53.0831391 0.653229311,53.0207391 0.546429311,52.9091391 C0.438429311,52.7987391 0.378429311,52.6511391 0.382029311,52.4975391 C0.626828735,40.922338 5.50602873,31.5395382 13.4308289,27.4031382 C13.6396289,27.2963382 13.8904289,27.3251382 14.0680289,27.4763382 C15.838029,28.9931384 17.970429,30.0479384 20.232429,30.5231384 C20.2348287,30.5231384 21.3808289,30.7427382 23.0092289,30.7427382 C23.9656287,30.7427382 24.8980287,30.6683382 25.7812287,30.5219382 C28.0180286,30.0467381 30.1504285,28.9919382 31.9180286,27.4763381 C32.0956286,27.3251381 32.3464286,27.2951381 32.5552286,27.4031381 C35.1280286,28.7459384 37.3744286,30.6467384 39.2500286,32.9903384 L39.2500286,32.9903384 L39.2500286,32.9903384 Z M22.9948406,27.4236392 C15.7060345,27.4236392 9.77682297,21.3552309 9.77684037,13.897239 C9.77684037,11.0424388 10.6516405,8.39523891 12.1324405,6.21123879 C12.1804405,6.06243879 12.2572405,5.91963879 12.3664405,5.79483879 C12.4132405,5.74083879 12.4744405,5.71203879 12.5284405,5.67003879 C14.9476407,2.45523877 18.7324405,0.37203884 22.9948406,0.37203884 C30.2836399,0.37203884 36.21044,6.44043843 36.21044,13.8972387 C36.21044,21.3552389 30.2824405,27.4236392 22.9948406,27.4236392 L22.9948406,27.4236392 L22.9948406,27.4236392 Z M42.9304119,36.3852602 C49.4872356,36.3852602 54.8260418,41.7215396 54.8260121,48.2784605 C54.8260121,54.8388605 49.4872122,60.1740606 42.9304119,60.1740606 C36.3700119,60.1740606 31.0348118,54.8388605 31.0348118,48.2784605 C31.0348118,41.7216603 36.3700119,36.3852602 42.9304119,36.3852602 L42.9304119,36.3852602 L42.9304119,36.3852602 Z M42.9304119,58.3391664 C37.3816118,58.3391664 32.8684116,53.8259666 32.8684116,48.2783667 C32.8684116,42.7319664 37.3816115,38.2199667 42.9304119,38.2199667 C48.4768122,38.2199667 52.9888118,42.7319667 52.9888118,48.2783667 C52.9888347,53.8259829 48.476823,58.3391664 42.9304119,58.3391664 L42.9304119,58.3391664 L42.9304119,58.3391664 Z M44.4688097,46.8947817 L44.4688097,42.2927817 C44.4688097,41.8907817 44.1436097,41.5643817 43.7440097,41.5643817 L42.2908098,41.5643817 C41.8936098,41.5643817 41.5660098,41.8907817 41.5660098,42.2927817 L41.5660098,46.8947817 L37.1692098,46.8947817 C36.7660098,46.8947817 36.4420098,47.2199817 36.4420098,47.6219817 L36.4420098,48.9803817 C36.4420098,49.3823817 36.7672098,49.7075817 37.1692098,49.7075817 L41.5660098,49.7075817 L41.5660098,54.3551816 C41.5660098,54.7559816 41.8936098,55.0811816 42.2908098,55.0811816 L43.7440097,55.0811816 C44.1448097,55.0811816 44.4688097,54.7559816 44.4688097,54.3551816 L44.4688097,49.7075817 L48.8680095,49.7075817 C49.2688095,49.7075817 49.5940095,49.3823817 49.5940095,48.9803817 L49.5940095,47.6219817 C49.5952313,47.2188051 49.2688274,46.8947817 48.8680095,46.8947817 L44.4688097,46.8947817 L44.4688097,46.8947817 Z" id="Shape"></path>
                        </g>
                    </g>
                </g>
            </g>
        </g>
    </g>
</svg>