<?xml version="1.0" encoding="UTF-8" standalone="no"?>
<svg width="60px" height="60px" viewBox="0 0 60 60" version="1.1" xmlns="http://www.w3.org/2000/svg" xmlns:xlink="http://www.w3.org/1999/xlink" xmlns:sketch="http://www.bohemiancoding.com/sketch/ns">
    <title>Slice 1</title>
    <description>Created with Sketch (http://www.bohemiancoding.com/sketch)</description>
    <defs></defs>
    <g id="Page-1" stroke="none" stroke-width="1" fill="none" fill-rule="evenodd" sketch:type="MSPage">
        <g id="icon_Connect1" sketch:type="MSLayerGroup">
            <g id="Layer_2"></g>
            <g id="Layer_3"></g>
            <g id="Layer_4"></g>
            <g id="Layer_5"></g>
            <g id="Layer_6"></g>
            <g id="Layer_8"></g>
            <g id="Layer_9"></g>
            <g id="Layer_10"></g>
            <g id="Layer_11"></g>
            <g id="Layer_12"></g>
            <g id="Layer_13"></g>
            <g id="Layer_14"></g>
            <g id="Layer_15"></g>
            <g id="Layer_16"></g>
            <g id="Layer_17"></g>
            <g id="Layer_18"></g>
            <g id="Layer_19"></g>
            <g id="Layer_20"></g>
            <g id="Layer_21"></g>
            <g id="Layer_24"></g>
            <g id="Layer_25"></g>
            <g id="Layer_26"></g>
            <g id="Layer_27"></g>
            <g id="Layer_28"></g>
            <g id="Layer_29"></g>
            <g id="Layer_47"></g>
            <g id="Layer_30"></g>
            <g id="Layer_31"></g>
            <g id="Layer_32"></g>
            <g id="Layer_33"></g>
            <g id="Layer_34"></g>
            <g id="Layer_35"></g>
            <g id="Layer_36"></g>
            <g id="Layer_37"></g>
            <g id="Layer_38"></g>
            <g id="Layer_39"></g>
            <g id="Layer_40"></g>
            <g id="Layer_41"></g>
            <g id="Layer_42"></g>
            <g id="Layer_43"></g>
            <g id="Layer_44"></g>
            <g id="Layer_45"></g>
            <g id="Layer_46"></g>
            <g id="Layer_48"></g>
            <g id="Layer_49"></g>
            <g id="Layer_51"></g>
            <g id="Layer_52"></g>
            <g id="Layer_53"></g>
            <g id="Layer_54" fill="#000000" sketch:type="MSShapeGroup">
                <g id="Group">
                    <path d="M36,32.25 C35.25,33 34.5,33.375 34.125,34.125 C31.875,36 30,38.25 28.125,40.125 C25.125,37.5 22.5,34.5 19.875,31.875 L21.375,30.375 L27.75,24 C28.5,23.25 28.5,22.125 27.75,21.375 C27.375,20.625 26.25,20.625 25.5,21.375 C25.125,21.75 24.75,22.125 24.375,22.125 L16.875,29.625 C16.125,28.5 15.375,27.75 14.25,26.625 C12,29.25 9.375,31.5 7.5,34.125 C5.625,36.375 5.25,39 5.625,42 C5.625,44.25 6.75,46.5 7.875,48.375 L0.375,55.875 L4.125,59.625 L11.625,52.125 C16.125,54.75 20.625,55.125 25.5,52.5 C28.875,50.625 30.75,47.625 33.75,45 C32.625,44.25 31.875,43.125 30.75,42.375 L34.125,39 C35.625,37.5 37.125,36 39,34.5 C39.75,33.75 40.125,32.625 39.375,31.875 C37.875,31.5 36.75,31.5 36,32.25 L36,32.25 Z" id="Shape"></path>
                    <path d="M60,3.75 L56.25,0 L48.75,7.5 C48.375,7.5 48.375,7.125 48,7.125 C43.5,4.875 38.625,4.5 34.125,7.5 C31.5,9.375 29.25,12 27,14.25 L45.75,33 C47.625,31.125 49.5,29.625 51.375,27.375 C53.625,24.75 54.75,21.375 54.375,18 C54.375,15.75 53.625,13.5 52.125,11.625 L60,3.75 L60,3.75 Z" id="Shape"></path>
                </g>
            </g>
            <g id="Layer_55"></g>
            <g id="Layer_56"></g>
            <g id="Layer_57"></g>
            <g id="Layer_58"></g>
            <g id="Layer_59"></g>
            <g id="Layer_60"></g>
            <g id="Layer_61"></g>
            <g id="Layer_62"></g>
            <g id="Layer_63"></g>
            <g id="Layer_64"></g>
            <g id="Layer_65"></g>
            <g id="Layer_66"></g>
            <g id="Layer_50"></g>
        </g>
    </g>
</svg>