<?xml version="1.0" encoding="UTF-8" standalone="no"?>
<svg width="82px" height="82px" version="1.1" xmlns="http://www.w3.org/2000/svg" xmlns:xlink="http://www.w3.org/1999/xlink" xmlns:sketch="http://www.bohemiancoding.com/sketch/ns">
    <title>add</title>
    <description>Created with Sketch (http://www.bohemiancoding.com/sketch)</description>
    <defs></defs>
    <g id="Page 1" fill="rgb(215,215,215)" fill-rule="evenodd">
        <path d="M41,71 C57.5685433,71 71,57.5685433 71,41 C71,24.4314567 57.5685433,11 41,11 C24.4314567,11 11,24.4314567 11,41 C11,57.5685433 24.4314567,71 41,71 Z M41,71" id="Oval 1" fill="rgb(154,170,198)"></path>
        <path d="M45.1402321,37.4080257 L45.1402321,25.8322088 C45.1402321,24.8210227 44.3242652,24 43.3216195,24 L39.6753614,24 C38.6787375,24 37.8567488,24.8210228 37.8567488,25.8322088 L37.8567488,37.4080257 L26.8246346,37.4080257 C25.812956,37.4080257 25,38.22603 25,39.2372161 L25,42.6541194 C25,43.6653056 25.8159669,44.4833098 26.8246346,44.4833098 L37.8567488,44.4833098 L37.8567488,56.1738281 C37.8567488,57.1819957 38.6787376,58 39.6753614,58 L43.3216195,58 C44.3272762,58 45.1402321,57.1819957 45.1402321,56.1738281 L45.1402321,44.4833098 L56.1783677,44.4833098 C57.1840244,44.4833098 57.9999914,43.6653056 57.9999914,42.6541194 L57.9999914,39.2372161 C58.0030567,38.2230705 57.1840693,37.4080257 56.1783677,37.4080257 L45.1402321,37.4080257 Z M45.1402321,37.4080257" id="Shape" fill="rgb(254,255,254)"></path>
    </g>
</svg>