<?xml version="1.0" encoding="UTF-8" standalone="no"?>
<svg width="79px" height="79px" version="1.1" xmlns="http://www.w3.org/2000/svg" xmlns:xlink="http://www.w3.org/1999/xlink" xmlns:sketch="http://www.bohemiancoding.com/sketch/ns">
    <title>advanced-settings</title>
    <description>Created with Sketch (http://www.bohemiancoding.com/sketch)</description>
    <defs>
        <linearGradient x1="50%" y1="0%" x2="50%" y2="173.920641%" id="linearGradient-1">
            <stop stop-color="rgb(123,125,121)" offset="0%"></stop>
            <stop stop-color="rgb(0,0,0)" offset="100%"></stop>
        </linearGradient>
    </defs>
    <g id="Page 1" fill="rgb(215,215,215)" fill-rule="evenodd">
        <g id="Group" stroke="rgb(150,150,150)" stroke-width="1">
            <path d="M77.0386845,38.7883065 L71.392233,37.998629 C71.2219104,34.1354033 70.388362,30.4270161 68.9173943,26.9457258 L73.6038458,23.410242 C73.9057813,23.1779839 74.1070716,22.8321774 74.1612652,22.4579839 C74.2154588,22.0786291 74.112233,21.6915323 73.8825555,21.3844355 L67.3612653,12.7573389 C67.1315879,12.4528228 66.7883621,12.2541131 66.4090073,12.1973389 C66.0244912,12.1431454 65.6451363,12.2463712 65.3406202,12.4760486 L61.0154589,15.7457259 C58.1509427,13.1031452 54.8786847,11.0283067 51.2606203,9.56766127 L52.0322332,4.03217745 C52.0864267,3.65282261 51.9832009,3.26830647 51.7561041,2.96120973 C51.5264267,2.6566936 51.1832009,2.45798394 50.8064267,2.40120975 L40.1044916,0.914758202 C39.7070723,0.860564654 39.3380401,0.961209812 39.0335239,1.19346789 C38.7290078,1.42056466 38.5302981,1.76637112 38.4735239,2.14572592 L37.7638465,7.28120981 C33.7715883,7.44895174 29.9419113,8.32637111 26.3522338,9.89540339 L23.0877177,5.58314532 C22.6077177,4.94830659 21.7070725,4.82443564 21.0670725,5.301855 L12.4477179,11.8128227 C12.1432018,12.0450808 11.9419115,12.3883066 11.8877179,12.7650808 C11.8335244,13.1444356 11.9367502,13.5289518 12.1664276,13.8360485 L15.2528792,17.9263712 C12.5767503,20.8889518 10.5173952,24.233468 9.11094341,27.8954032 L3.70707218,27.1470161 C3.3251367,27.0928226 2.9457819,27.1960484 2.63868508,27.4231452 C2.3367496,27.6554033 2.13287864,27.9960484 2.08126571,28.3754032 L0.599975382,39.0747578 C0.489007636,39.8644352 1.03868506,40.5921772 1.82836251,40.7005643 L7.0541692,41.4283062 C7.28900791,45.3354031 8.21029827,49.1005644 9.80771767,52.6566929 L5.25804022,56.0941123 C4.6283628,56.5741123 4.49674994,57.4773381 4.98191119,58.1147574 L11.4954594,66.734112 C11.9754594,67.3715314 12.8786852,67.4902411 13.5109433,67.0128217 L17.9548143,63.6605636 C20.8193305,66.1870151 24.1328789,68.202499 27.6425561,69.5599185 L26.8322335,75.4592733 C26.7212657,76.2489507 27.2761045,76.9741121 28.0632012,77.0850798 L38.7625558,78.5715313 C38.827072,78.5818539 38.8967494,78.5870152 38.9638461,78.5870152 C39.6709429,78.5870152 40.2902978,78.0657248 40.3909429,77.3457249 L41.1961042,71.6089505 C44.9793299,71.3895957 48.6335234,70.5224989 52.0838457,69.0257246 L55.769007,73.9031439 C56.2541682,74.5405633 57.157394,74.6566923 57.7896521,74.1844342 L66.4167487,67.678628 C66.7238455,67.4489506 66.9225552,67.1005635 66.9767487,66.7237893 C67.0309422,66.3444345 66.9277164,65.9599183 66.7006197,65.6528216 L63.1728778,60.981854 C65.7122327,58.1766927 67.7070712,54.9947574 69.113523,51.5005636 L75.1522325,52.3392732 C75.9161035,52.4347571 76.6696519,51.8979829 76.7832003,51.1083055 L78.2722326,40.4063704 C78.3779927,39.6272051 77.82844,38.8966734 77.0386845,38.7883065 C77.0386845,38.7883065 77.82844,38.8966734 77.0386845,38.7883065 L77.0386845,38.7883065 M47.570281,50.5303679 C45.1444746,52.3652067 42.2541521,53.3355293 39.2218942,53.3355293 C34.8270556,53.3355293 30.785765,51.3303679 28.1406035,47.8284323 C23.5341519,41.730368 24.7496357,33.0206906 30.8554423,28.4064968 C33.2812487,26.571658 36.1715712,25.6039162 39.2012487,25.6039162 C43.5960872,25.6039162 47.6296358,27.6064969 50.2696358,31.1006907 C54.8812689,37.2012349 53.6734816,45.921308 47.570281,50.5303679 C47.570281,50.5303679 53.6734816,45.921308 47.570281,50.5303679 L47.570281,50.5303679" id="Shape" fill="url(#linearGradient-1)"></path>
        </g>
    </g>
</svg>