<?xml version="1.0" encoding="UTF-8" standalone="no"?>
<svg width="60px" height="60px" viewBox="0 0 60 60" version="1.1" xmlns="http://www.w3.org/2000/svg" xmlns:xlink="http://www.w3.org/1999/xlink" xmlns:sketch="http://www.bohemiancoding.com/sketch/ns">
    <title>Slice 1</title>
    <description>Created with Sketch (http://www.bohemiancoding.com/sketch)</description>
    <defs></defs>
    <g id="Page-1" stroke="none" stroke-width="1" fill="none" fill-rule="evenodd" sketch:type="MSPage">
        <g id="icon_Settings" sketch:type="MSLayerGroup">
            <g id="Layer_2"></g>
            <g id="Layer_3"></g>
            <g id="Layer_4"></g>
            <g id="Layer_5"></g>
            <g id="Layer_6"></g>
            <g id="Layer_8"></g>
            <g id="Layer_9"></g>
            <g id="Layer_10"></g>
            <g id="Layer_11"></g>
            <g id="Layer_12"></g>
            <g id="Layer_13"></g>
            <g id="Layer_14"></g>
            <g id="Layer_15"></g>
            <g id="Layer_16"></g>
            <g id="Layer_17"></g>
            <g id="Layer_18"></g>
            <g id="Layer_19"></g>
            <g id="Layer_20"></g>
            <g id="Layer_21"></g>
            <g id="Layer_24"></g>
            <g id="Layer_25"></g>
            <g id="Layer_26"></g>
            <g id="Layer_27"></g>
            <g id="Layer_28"></g>
            <g id="Layer_29"></g>
            <g id="Layer_47"></g>
            <g id="Layer_30"></g>
            <g id="Layer_31"></g>
            <g id="Layer_32"></g>
            <g id="Layer_33"></g>
            <g id="Layer_34"></g>
            <g id="Layer_35"></g>
            <g id="Layer_36"></g>
            <g id="Layer_37"></g>
            <g id="Layer_38"></g>
            <g id="Layer_39"></g>
            <g id="Layer_40"></g>
            <g id="Layer_41"></g>
            <g id="Layer_42"></g>
            <g id="Layer_43"></g>
            <g id="Layer_44"></g>
            <g id="Layer_45"></g>
            <g id="Layer_46"></g>
            <g id="Layer_48"></g>
            <g id="Layer_49"></g>
            <g id="Layer_51"></g>
            <g id="Layer_52"></g>
            <g id="Layer_53"></g>
            <g id="Layer_54"></g>
            <g id="Layer_55"></g>
            <g id="Layer_56"></g>
            <g id="Layer_57"></g>
            <g id="Layer_58"></g>
            <g id="Layer_59"></g>
            <g id="Layer_60"></g>
            <g id="Layer_61"></g>
            <g id="Layer_62"></g>
            <g id="Layer_63" fill="#000000" sketch:type="MSShapeGroup">
                <path d="M39.5,9.5 C39,9.5 38.5,9 38,9 C37.5,9 37,8.5 36.5,8.5 L34.5,0.5 C31,1.38777878e-17 28,1.38777878e-17 24.5,0.5 L22.5,9 C21.5,9 20.5,9.5 19.5,10 L12,6 C9.5,8 7,10 5.5,13 L10,20.5 C10,21 9.5,21.5 9.5,22 C9.5,22.5 9,23 9,23.5 L0.5,25.5 C1.38777878e-17,29 1.38777878e-17,32 0.5,35.5 L9,37.5 C9,38.5 9.5,39.5 10,40.5 L6,48 C8,50.5 10.5,53 13,55 L20.5,50.5 C21,50.5 21.5,51 22,51 C22.5,51 23,51.5 23.5,51.5 L26,59.5 C29.5,60 32.5,60 35.5,59.5 L37.5,51 L40.5,49.5 L48,53.5 C50.5,51.5 53,49 55,46.5 L50.5,39 C50.5,38.5 51,38 51,37.5 C51,37 51.5,36.5 51.5,36 L59.5,33.5 C60,30 60,27 59.5,24 L51,22 L49.5,19 L53.5,11.5 C51.5,9 49,6.5 46.5,4.5 L39.5,9.5 L39.5,9.5 Z M40.5,34 C38,39.5 31.5,42.5 26,40.5 C20.5,38 17.5,31.5 19.5,26 C21.5,20.5 28,17.5 34,20 C39.5,22 42.5,28.5 40.5,34 L40.5,34 Z" id="Shape"></path>
            </g>
            <g id="Layer_64"></g>
            <g id="Layer_65"></g>
            <g id="Layer_66"></g>
            <g id="Layer_50"></g>
        </g>
    </g>
</svg>