<?xml version="1.0" encoding="UTF-8" standalone="no"?>
<svg width="61px" height="61px" viewBox="0 0 61 61" version="1.1" xmlns="http://www.w3.org/2000/svg" xmlns:xlink="http://www.w3.org/1999/xlink" xmlns:sketch="http://www.bohemiancoding.com/sketch/ns">
    <title>Slice 1</title>
    <description>Created with Sketch (http://www.bohemiancoding.com/sketch)</description>
    <defs></defs>
    <g id="Page-1" stroke="none" stroke-width="1" fill="none" fill-rule="evenodd" sketch:type="MSPage">
        <g id="advanced-settings" sketch:type="MSLayerGroup" transform="translate(1.000000, 1.000000)" fill="#000000">
            <g id="Page-1" sketch:type="MSShapeGroup">
                <g id="advanced-settings">
                    <g id="Page-1">
                        <g id="Group">
                            <path d="M58.4912958,29.0679281 L54.1478715,28.4604838 C54.0168542,25.4887718 53.3756631,22.6361662 52.2441495,19.9582506 L55.8491122,17.2386477 C56.0813702,17.0599876 56.2362089,16.7939826 56.2778963,16.5061415 C56.3195837,16.2143301 56.2401792,15.9165633 56.0635042,15.680335 L51.0471272,9.04410685 C50.8704522,8.80986369 50.6064324,8.65701008 50.314621,8.61333762 C50.0188394,8.57165031 49.7270279,8.65105477 49.4927848,8.82772969 L46.1657376,11.3428661 C43.9622636,9.31011169 41.4451421,7.71408208 38.6620156,6.59050867 L39.255564,2.33244419 C39.2972513,2.04063278 39.2178468,1.74485113 39.043157,1.50862287 C38.8664821,1.27437969 38.6024622,1.12152611 38.3126359,1.07785365 L30.0803782,-0.0655706138 C29.774671,-0.107257958 29.4908001,-0.0298386062 29.2565568,0.148821454 C29.0223137,0.323511277 28.8694601,0.589516246 28.8257876,0.881327631 L28.2798819,4.83169985 C25.2089141,4.96073211 22.2630087,5.63567008 19.5017183,6.84261799 L16.9905521,3.5254964 C16.6213213,3.03715892 15.9285173,2.94187357 15.4362096,3.30911923 L8.80593685,8.31755592 C8.57169369,8.496216 8.416855,8.76023585 8.37516762,9.05006215 C8.33348031,9.34187354 8.41288477,9.63765523 8.58955969,9.87388346 L10.9637532,13.0202855 C8.90519254,15.2991937 7.32107323,17.8718985 6.23918724,20.6887717 L2.08236322,20.1130893 C1.78856669,20.071402 1.49675531,20.1508065 1.26052698,20.3254963 C1.02826892,20.5041564 0.871445108,20.7661911 0.831742854,21.0580025 L-0.307711245,29.2882752 C-0.393071049,29.8957194 0.0297577385,30.4555209 0.637201931,30.5388956 L4.65705323,31.0986971 C4.83769839,34.1041562 5.54638328,37.0004342 6.77516744,39.7359176 L3.27541555,42.3800864 C2.79104831,42.7493172 2.68980765,43.4441062 3.06300861,43.9344288 L8.07343031,50.5647015 C8.44266108,51.0550242 9.13745015,51.1463393 9.62380254,50.7790936 L13.0421648,48.2004335 C15.2456388,50.1438578 17.7945222,51.69423 20.4942739,52.7383988 L19.8709488,57.2763641 C19.785589,57.8838082 20.2123881,58.4416247 20.8178471,58.5269845 L29.0481198,59.6704087 C29.7468792,59.6823194 30.223306,59.2813268 30.3007253,58.7274807 L30.9200802,54.3145773 C33.8302538,54.1458428 36.6411718,53.4788453 39.2952659,52.3274805 L42.1300054,56.0793415 C42.5032063,56.5696641 43.1979954,56.6589941 43.6843478,56.2957186 L50.3205759,51.2912523 C50.5568042,51.1145774 50.7096578,50.8465873 50.7513452,50.556761 C50.7930325,50.2649496 50.713628,49.9691679 50.5389382,49.7329397 L47.8252906,46.1398877 C49.7786405,43.9820713 51.3131317,41.5344288 52.3950177,38.8465874 L57.0401788,39.4917486 C57.6277719,39.5651978 58.2074245,39.1522945 58.2947695,38.5448504 L59.4401789,30.3125926 C59.5215328,29.7132347 59.0988,29.1512872 58.4912958,29.0679281 L50.3851394,37.3024523 M35.8232931,38.100283 C33.9572882,39.5116975 31.7339632,40.2580995 29.4014571,40.2580995 C26.020812,40.2580995 22.9121269,38.7156676 20.8773873,36.021871 C17.333963,31.3310523 18.2689505,24.6313005 22.9657248,21.0819206 C24.8317298,19.6705062 27.0550548,18.9260894 29.3855759,18.9260894 C32.7662209,18.9260894 35.8689506,20.4665361 37.8997198,23.1543775 C41.4471299,27.8471038 40.5180628,34.5548523 35.8232931,38.100283 C35.8232931,38.100283 40.5180628,34.5548523 35.8232931,38.100283 L35.8232931,38.100283" id="Shape"></path>
                        </g>
                    </g>
                </g>
            </g>
        </g>
    </g>
</svg>