<?xml version="1.0" encoding="UTF-8" standalone="no"?>
<svg width="400px" height="400px" version="1.1" xmlns="http://www.w3.org/2000/svg" xmlns:xlink="http://www.w3.org/1999/xlink" xmlns:sketch="http://www.bohemiancoding.com/sketch/ns">
    <title>album-placeholder-grid</title>
    <description>Created with Sketch (http://www.bohemiancoding.com/sketch)</description>
    <defs>
        <linearGradient x1="50%" y1="0%" x2="50%" y2="100%" id="linearGradient-1">
            <stop stop-color="rgb(254,255,254)" offset="0%"></stop>
            <stop stop-color="rgb(0,0,0)" offset="100%"></stop>
        </linearGradient>
    </defs>
    <g id="Page 1" fill="rgb(215,215,215)" fill-rule="evenodd">
        <path d="M0,0 L0,400 L400,400 L400,0 L0,0 Z M0,0" id="Rectangle 1" fill="rgb(0,0,0)"></path>
        <path d="M199.5,378 C297.530548,378 377,298.530548 377,200.5 C377,102.469452 297.530548,23 199.5,23 C101.469452,23 22,102.469452 22,200.5 C22,298.530548 101.469452,378 199.5,378 Z M199.5,378" id="Oval 1" stroke="rgb(150,150,150)" stroke-width="1" fill="url(#linearGradient-1)"></path>
        <path d="M200,261 C233.137087,261 260,234.137087 260,201 C260,167.862913 233.137087,141 200,141 C166.862913,141 140,167.862913 140,201 C140,234.137087 166.862913,261 200,261 Z M200,261" id="Oval 2" stroke="rgb(150,150,150)" stroke-width="1" fill="rgb(137,137,137)"></path>
        <path d="M200.5,227 C215.135547,227 227,215.359404 227,201 C227,186.640596 215.135547,175 200.5,175 C185.864453,175 174,186.640596 174,201 C174,215.359404 185.864453,227 200.5,227 Z M200.5,227" id="Oval 3" stroke="rgb(150,150,150)" stroke-width="1" fill="rgb(0,0,0)"></path>
    </g>
</svg>