<?xml version="1.0" encoding="UTF-8" standalone="no"?>
<svg width="210px" height="210px" xmlns="http://www.w3.org/2000/svg" version="1.1">
    <title>album-placeholder</title>
    <description>Created with Sketch (http://www.bohemiancoding.com/sketch)</description>
    <defs>
        <linearGradient id="gradient-1" x1="50%" y1="0%" x2="50%" y2="100%">
            <stop offset="0%" style="stop-color:rgb(255,255,255); stop-opacity:100"></stop>
            <stop offset="100%" style="stop-color:rgb(0,0,0); stop-opacity:100"></stop>
        </linearGradient>
        <linearGradient id="gradient-2" x1="50%" y1="0%" x2="50%" y2="100%">
            <stop offset="0%" style="stop-color:rgb(255,255,255); stop-opacity:100"></stop>
            <stop offset="100%" style="stop-color:rgb(0,0,0); stop-opacity:100"></stop>
        </linearGradient>
        <linearGradient id="gradient-3" x1="50%" y1="0%" x2="50%" y2="100%">
            <stop offset="0%" style="stop-color:rgb(255,255,255); stop-opacity:100"></stop>
            <stop offset="100%" style="stop-color:rgb(0,0,0); stop-opacity:100"></stop>
        </linearGradient>
        <linearGradient id="gradient-4" x1="50%" y1="0%" x2="50%" y2="100%">
            <stop offset="0%" style="stop-color:rgb(255,255,255); stop-opacity:100"></stop>
            <stop offset="100%" style="stop-color:rgb(0,0,0); stop-opacity:100"></stop>
        </linearGradient>
        <linearGradient id="gradient-5" x1="50%" y1="0%" x2="50%" y2="100%">
            <stop offset="0%" style="stop-color:rgb(255,255,255); stop-opacity:100"></stop>
            <stop offset="100%" style="stop-color:rgb(0,0,0); stop-opacity:100"></stop>
        </linearGradient>
        <linearGradient id="gradient-6" x1="50%" y1="0%" x2="50%" y2="100%">
            <stop offset="0%" style="stop-color:rgb(255,255,255); stop-opacity:100"></stop>
            <stop offset="100%" style="stop-color:rgb(0,0,0); stop-opacity:100"></stop>
        </linearGradient>
        <linearGradient id="gradient-7" x1="50%" y1="0%" x2="50%" y2="100%">
            <stop offset="0%" style="stop-color:rgb(255,255,255); stop-opacity:100"></stop>
            <stop offset="100%" style="stop-color:rgb(0,0,0); stop-opacity:100"></stop>
        </linearGradient>
        <linearGradient id="gradient-8" x1="50%" y1="0%" x2="50%" y2="100%">
            <stop offset="0%" style="stop-color:rgb(255,255,255); stop-opacity:100"></stop>
            <stop offset="100%" style="stop-color:rgb(0,0,0); stop-opacity:100"></stop>
        </linearGradient>
        <linearGradient id="gradient-9" x1="50%" y1="0%" x2="50%" y2="100%">
            <stop offset="0%" style="stop-color:rgb(255,255,255); stop-opacity:100"></stop>
            <stop offset="100%" style="stop-color:rgb(0,0,0); stop-opacity:100"></stop>
        </linearGradient>
    </defs>
    <g fill="rgb(215,215,215)" id="Page 1">
        <g fill="rgb(0,0,0)" id="Rectangle 4"></g>
        <path id="Rectangle 4" d="M5,5 L5,205 L205,205 L205,5 L5,5 Z M5,5" fill="rgb(0,0,0)"></path>
        <path id="Rectangle 4 decoration" d="" fill="rgb(0,0,0)"></path>
        <g stroke="rgb(150,150,150)" stroke-width="1" fill="rgb(204,204,204)" id="Oval 5"></g>
        <path id="Oval 5" d="M105,194 C153,194 193,154 193,106 C193,58 153,19 105,19 C57,19 18,58 18,106 C18,154 57,194 105,194 Z M105,194" stroke="rgb(150,150,150)" stroke-width="1" fill="rgb(204,204,204)"></path>
        <path id="Oval 5 decoration" d="" stroke="rgb(150,150,150)" stroke-width="1" fill="rgb(204,204,204)"></path>
        <g stroke="rgb(150,150,150)" stroke-width="1" fill="rgb(137,137,137)" id="Oval 7"></g>
        <path id="Oval 7" d="M105,131 C118,131 130,119 130,106 C130,92 118,81 105,81 C91,81 80,92 80,106 C80,119 91,131 105,131 Z M105,131" stroke="rgb(150,150,150)" stroke-width="1" fill="rgb(137,137,137)"></path>
        <path id="Oval 7 decoration" d="" stroke="rgb(150,150,150)" stroke-width="1" fill="rgb(137,137,137)"></path>
        <g stroke="rgb(150,150,150)" stroke-width="1" fill="rgb(0,0,0)" id="Oval 8"></g>
        <path id="Oval 8" d="M105,119 C112,119 118,113 118,106 C118,99 112,94 105,94 C98,94 93,99 93,106 C93,113 98,119 105,119 Z M105,119" stroke="rgb(150,150,150)" stroke-width="1" fill="rgb(0,0,0)"></path>
        <path id="Oval 8 decoration" d="" stroke="rgb(150,150,150)" stroke-width="1" fill="rgb(0,0,0)"></path>
    </g>
</svg>