<?xml version="1.0" encoding="UTF-8" standalone="no"?>
<svg width="51px" height="50px" viewBox="0 0 51 50" version="1.1" xmlns="http://www.w3.org/2000/svg" xmlns:xlink="http://www.w3.org/1999/xlink" xmlns:sketch="http://www.bohemiancoding.com/sketch/ns">
    <title>apply-check</title>
    <description>Created with Sketch (http://www.bohemiancoding.com/sketch)</description>
    <defs></defs>
    <g id="Page-1" stroke="none" stroke-width="1" fill="none" fill-rule="evenodd" sketch:type="MSPage">
        <g id="apply-check" sketch:type="MSLayerGroup" transform="translate(1.000000, 1.000000)">
            <g id="Page-1" sketch:type="MSShapeGroup">
                <g id="apply-check">
                    <g id="Page-1">
                        <g id="Group">
                            <path d="M4.24000168,-0.24597168 C1.78800178,-0.24597168 -0.208998203,1.74902833 -0.208998203,4.2030282 L-0.208998203,43.8820291 C-0.208998203,46.3350291 1.78800178,48.3320289 4.24000168,48.3320289 L45,48.3320289 C47.4519999,48.3320289 49.4489999,46.3350289 49.4489999,43.8820291 L49.4489999,4.2030282 C49.4489746,1.74902344 47.4520264,-0.24597168 45,-0.24597168 L4.24000168,-0.24597168 Z" id="Shape" fill="#000000"></path>
                            <path d="M38.992981,10.0159912 C38.112981,9.3459912 36.857981,9.5139912 36.1889811,10.3919912 L19.0559816,32.827992 L12.6759815,25.2839919 C11.9629815,24.4409919 10.6999816,24.3349919 9.8579814,25.0479919 C9.0139815,25.7619919 8.90898144,27.0239918 9.6219814,27.865992 L17.6079815,37.3099922 C17.9889815,37.7599922 18.5469815,38.0189922 19.1349815,38.0189922 C19.1519815,38.0189922 19.1679815,38.0189922 19.1849815,38.0179922 C19.7899815,38.0029922 20.3569815,37.7139922 20.7249814,37.2329922 L39.3689805,12.8199921 C40.0390015,11.94104 39.8709717,10.6870117 38.992981,10.0159912 C38.992981,10.0159912 39.8709717,10.6870117 38.992981,10.0159912 L38.992981,10.0159912" id="Shape" fill="#FFFFFF"></path>
                        </g>
                    </g>
                </g>
            </g>
        </g>
    </g>
</svg>