<?xml version="1.0" encoding="UTF-8" standalone="no"?>
<svg width="51px" height="50px" version="1.1" xmlns="http://www.w3.org/2000/svg" xmlns:xlink="http://www.w3.org/1999/xlink" xmlns:sketch="http://www.bohemiancoding.com/sketch/ns">
    <title>Slice 1</title>
    <description>Created with Sketch (http://www.bohemiancoding.com/sketch)</description>
    <defs></defs>
    <g id="Page 1" fill="rgb(223,223,223)" fill-rule="evenodd">
        <g id="Group" fill="rgb(0,0,0)">
            <path d="M46,0.75402832 L5.24000168,0.75402832 C2.78800178,0.75402832 0.791001797,2.74902833 0.791001797,5.2030282 L0.791001797,44.8820291 C0.791001797,47.3350291 2.78800178,49.3320289 5.24000168,49.3320289 L46,49.3320289 C48.4519999,49.3320289 50.4489999,47.3350289 50.4489999,44.8820291 L50.4489999,5.2030282 C50.4489746,2.74902344 48.4520264,0.75402832 46,0.75402832 L46,0.75402832 L46,0.75402832 M46.5689697,44.881958 C46.5689697,45.197958 46.3149697,45.451958 45.9999697,45.451958 L5.2399714,45.451958 C4.9249714,45.451958 4.67097139,45.197958 4.67097139,44.881958 L4.67097139,5.20295715 C4.67097139,4.88895714 4.9249714,4.63095713 5.2399714,4.63095713 L46,4.63095713 C46.315,4.63095713 46.569,4.88895711 46.569,5.20295715 L46.569,44.881958 L46.569,44.881958 L46.5689697,44.881958" id="Shape" fill="rgb(62,115,0)"></path>
            <path d="M39.992981,11.0159912 C39.112981,10.3459912 37.857981,10.5139912 37.1889811,11.3919912 L20.0559816,33.827992 L13.6759815,26.2839919 C12.9629815,25.4409919 11.6999816,25.3349919 10.8579814,26.0479919 C10.0139815,26.7619919 9.90898144,28.0239918 10.6219814,28.865992 L18.6079815,38.3099922 C18.9889815,38.7599922 19.5469815,39.0189922 20.1349815,39.0189922 C20.1519815,39.0189922 20.1679815,39.0189922 20.1849815,39.0179922 C20.7899815,39.0029922 21.3569815,38.7139922 21.7249814,38.2329922 L40.3689805,13.8199921 C41.0390015,12.94104 40.8709717,11.6870117 39.992981,11.0159912 C39.992981,11.0159912 40.8709717,11.6870117 39.992981,11.0159912 L39.992981,11.0159912" id="Shape" fill="rgb(62,115,0)"></path>
        </g>
    </g>
</svg>