<?xml version="1.0" encoding="UTF-8" standalone="no"?>
<svg width="42px" height="42px" version="1.1" xmlns="http://www.w3.org/2000/svg" xmlns:xlink="http://www.w3.org/1999/xlink" xmlns:sketch="http://www.bohemiancoding.com/sketch/ns">
    <title>arrow-up-double</title>
    <description>Created with Sketch (http://www.bohemiancoding.com/sketch)</description>
    <defs></defs>
    <g id="Page 1" fill="rgb(223,223,223)" fill-rule="evenodd">
        <g id="Group" fill="rgb(0,0,0)">
            <path d="M2.35400391,38.0279541 L39.5150032,38.0279541 C40.6710032,38.0279541 41.7310033,37.3789541 42.2560031,36.3469541 C42.4830031,35.9079541 42.5930032,35.4279541 42.5930032,34.9499542 C42.5930032,34.3129541 42.3930032,33.6759541 42.0040032,33.1419542 L23.4220024,7.55995345 C22.8430024,6.76095343 21.9170024,6.2909534 20.9320024,6.2909534 C19.9470024,6.2909534 19.0210024,6.7629534 18.4430023,7.55995345 L-0.137997031,33.1419542 C-0.817997038,34.0769542 -0.912997007,35.3199542 -0.388997018,36.3469541 C0.135986328,37.3790283 1.19702148,38.0279541 2.35400391,38.0279541 C2.35400391,38.0279541 1.19702148,38.0279541 2.35400391,38.0279541 L2.35400391,38.0279541" id="Shape" fill="rgb(100,100,100)"></path>
        </g>
    </g>
</svg>