<?xml version="1.0" encoding="UTF-8" standalone="no"?>
<svg width="42px" height="42px" version="1.1" xmlns="http://www.w3.org/2000/svg" xmlns:xlink="http://www.w3.org/1999/xlink" xmlns:sketch="http://www.bohemiancoding.com/sketch/ns">
    <title>arrow-right-double</title>
    <description>Created with Sketch (http://www.bohemiancoding.com/sketch)</description>
    <defs></defs>
    <g id="Page 1" fill="rgb(223,223,223)" fill-rule="evenodd">
        <g id="Group" fill="rgb(0,0,0)">
            <path d="M7.32121281,41.8181084 L34.5477114,41.8181084 C35.3946701,41.8181084 36.1712932,40.932299 36.5559413,39.5237392 C36.7222559,38.9245553 36.8028488,38.2694112 36.8028488,37.616997 C36.8028488,36.7475662 36.6563162,35.8781353 36.3713102,35.1492876 L22.7569611,0.232836341 C22.3327491,-0.857705628 21.6543029,-1.49920092 20.9326296,-1.49920092 C20.2109563,-1.49920092 19.5325101,-0.854975896 19.1090307,0.232836341 L5.4954153,35.1492876 C4.99720429,36.4254537 4.9276013,38.1220039 5.31151684,39.5237392 C5.69615284,40.9324003 6.47353431,41.8181084 7.32121281,41.8181084 C7.32121281,41.8181084 6.47353431,41.8181084 7.32121281,41.8181084 L7.32121281,41.8181084" id="Shape" fill="rgb(100,100,100)" transform="translate(-213.065652, -198.840546) rotate(-270) translate(213.065652, 198.840546)"></path>
        </g>
    </g>
</svg>