<?xml version="1.0" encoding="UTF-8" standalone="no"?>
<svg width="100px" height="100px" viewBox="0 0 100 100" version="1.1" xmlns="http://www.w3.org/2000/svg" xmlns:xlink="http://www.w3.org/1999/xlink" xmlns:sketch="http://www.bohemiancoding.com/sketch/ns">
    <title>artist-icon</title>
    <description>Created with Sketch (http://www.bohemiancoding.com/sketch)</description>
    <defs></defs>
    <g id="Page 1" fill="rgb(215,215,215)" fill-rule="evenodd">
        <g fill="rgb(214,215,214)">
            <path d="M50,100 C22.3857613,100 0,77.6142426 0,50 C0,22.3857613 22.3857613,0 50,0 C77.6142426,0 100,22.3857613 100,50 C100,77.6142426 77.6142426,100 50,100 Z M82.8845366,40.0616913 C82.6247859,39.2104401 81.8853522,38.6282177 81.0378485,38.608139 L69.8079269,38.3672203 L66.5070209,38.2989613 L63.2061065,38.2246765 L60.3886715,38.1684605 L59.0690692,38.1383488 L58.3713459,36.0323051 L51.8586343,16.399342 C51.5799267,15.5641537 50.8310125,15 49.9910932,15 C49.1511697,15 48.4003593,15.5641537 48.1216517,16.399342 L41.6108363,36.0323051 L40.9112168,38.1383488 L39.5897184,38.1684605 L36.7722834,38.2246765 L33.4732693,38.2989613 L30.1742552,38.3672203 L18.9424397,38.608139 C18.09683,38.6282177 17.3555002,39.2104401 17.0957495,40.0616913 C16.8360009,40.9149483 17.1166067,41.8444958 17.7934729,42.3805435 L35.2877277,56.2816223 L28.928593,78.2916595 C28.6840112,79.1469223 28.9740976,80.0684425 29.654756,80.596463 C29.8272897,80.7289612 30.0130961,80.8273445 30.2102814,80.8935936 C30.2728489,80.917688 30.3392045,80.9156822 30.4074604,80.9337509 C30.5401799,80.9618568 30.6747955,80.9959885 30.8113072,80.9979942 C30.8169956,80.9979942 30.8226839,81 30.8264761,81 C30.9516112,81 31.0748501,80.9678741 31.1999852,80.941774 C31.266345,80.9277252 31.3345966,80.9337509 31.3990603,80.9096565 C31.5924512,80.847419 31.7763616,80.7570755 31.9470033,80.6305862 L49.9929851,67.4703407 L68.0389711,80.6305862 C68.3783501,80.8775307 68.7689242,81 69.1613944,81 C69.5728257,81 69.984257,80.8674934 70.3331166,80.596463 C71.0118747,80.0664368 71.3019632,79.140905 71.0573814,78.2916595 L64.6963506,56.2816223 L82.1943935,42.3805435 C82.8656762,41.8424145 83.1443292,40.9128418 82.8845366,40.0616913 Z M82.8845366,40.0616913" id="Oval 1" fill="rgb(69,73,82)"></path>
        </g>
    </g>
</svg>