<?xml version="1.0" encoding="UTF-8" standalone="no"?>
<svg width="100px" height="100px" version="1.1" xmlns="http://www.w3.org/2000/svg" xmlns:xlink="http://www.w3.org/1999/xlink" xmlns:sketch="http://www.bohemiancoding.com/sketch/ns">
    <title>artist-icon</title>
    <description>Created with Sketch (http://www.bohemiancoding.com/sketch)</description>
    <defs></defs>
    <g id="Page 1" fill="rgb(215,215,215)" fill-rule="evenodd">
        <g fill="rgb(214,215,214)">
            <path d="M50,100 C77.6142426,100 100,77.6142426 100,50 C100,22.3857613 77.6142426,0 50,0 C22.3857613,0 0,22.3857613 0,50 C0,77.6142426 22.3857613,100 50,100 C50,100 22.3857613,100 50,100 L50,100" id="Oval 1" fill="rgb(69,73,82)"></path>
            <path d="M79.9125519,39.7833557 C79.6763458,39.009491 79.0039368,38.4801979 78.2332535,38.4619446 L68.0212479,38.2429276 L65.0195465,38.1808739 L62.0178375,38.1133423 L59.4557838,38.0622368 L58.2557945,38.0348625 L57.621315,36.1202774 L51.6989365,18.2721291 C51.4454918,17.512867 50.7644615,17 50.0006752,17 C49.2368851,17 48.5541306,17.512867 48.3006859,18.2721291 L42.3800316,36.1202774 L41.7438278,38.0348625 L40.5421143,38.0622368 L37.9800606,38.1133423 L34.9800797,38.1808739 L31.9800987,38.2429276 L21.7663708,38.4619446 C20.9974098,38.4801979 20.3232765,39.009491 20.0870705,39.7833557 C19.8508663,40.5590439 20.1060371,41.4040871 20.72155,41.8914032 L36.6300697,54.5287476 L30.8473473,74.5378723 C30.6249352,75.3153839 30.8887272,76.1531296 31.5076885,76.6331482 C31.6645832,76.7536011 31.8335476,76.8430405 32.0128593,76.9032669 C32.0697556,76.9251709 32.1300964,76.9233475 32.1921654,76.9397736 C32.3128548,76.9653244 32.4352684,76.9963531 32.5594063,76.9981766 C32.564579,76.9981766 32.5697517,77 32.5732002,77 C32.6869926,77 32.7990608,76.9707947 32.9128532,76.9470673 C32.9731979,76.9342957 33.0352631,76.9397736 33.0938835,76.9178696 C33.2697449,76.86129 33.436985,76.7791595 33.5921593,76.6641693 L50.0023956,64.7003098 L66.4126358,76.6641693 C66.7212524,76.8886642 67.0764236,77 67.4333191,77 C67.807457,77 68.1815948,76.8795395 68.4988327,76.6331482 C69.116066,76.1513062 69.3798599,75.3099136 69.1574478,74.5378723 L63.3730011,54.5287476 L79.2849655,41.8914032 C79.895401,41.402195 80.1487961,40.5571289 79.9125519,39.7833557 C79.9125519,39.7833557 80.1487961,40.5571289 79.9125519,39.7833557 L79.9125519,39.7833557" id="Shape" fill="rgb(254,254,253)"></path>
        </g>
    </g>
</svg>