<?xml version="1.0" encoding="UTF-8" standalone="no"?>
<svg width="100px" height="100px" viewBox="0 0 100 100" version="1.1" xmlns="http://www.w3.org/2000/svg" xmlns:xlink="http://www.w3.org/1999/xlink" xmlns:sketch="http://www.bohemiancoding.com/sketch/ns">
    <title>artist-icon</title>
    <description>Created with Sketch (http://www.bohemiancoding.com/sketch)</description>
    <defs></defs>
    <g id="Page 1" fill="rgb(215,215,215)" fill-rule="evenodd">
        <path d="M50,100 C22.3857613,100 0,77.6142426 0,50 C0,22.3857613 22.3857613,0 50,0 C77.6142426,0 100,22.3857613 100,50 C100,77.6142426 77.6142426,100 50,100 Z M74.9125277,41.9861298 C74.7157469,41.3412425 74.1555699,40.9001649 73.5135216,40.8849538 L65.0060053,40.7024396 L62.5053189,40.6507282 L60.0046261,40.5944519 L57.8702057,40.551864 L56.870507,40.5290521 L56.3419287,38.9335645 L51.4080563,24.0601075 C51.1969142,23.4273891 50.6295549,23 49.9932524,23 C49.3569468,23 48.788151,23.4273891 48.5770089,24.0601075 L43.644573,38.9335645 L43.1145582,40.5290521 L42.1134231,40.551864 L39.9790026,40.5944519 L37.4797495,40.6507282 L34.9804964,40.7024396 L26.4715452,40.8849538 C25.8309318,40.9001649 25.2693183,41.3412425 25.0725375,41.9861298 C24.8757582,42.6325366 25.0883384,43.3367392 25.6011158,43.742836 L38.8543392,54.2739563 L34.0368129,70.9482269 C33.8515236,71.5961533 34.0712861,72.2942746 34.5869363,72.6942902 C34.7176437,72.7946676 34.8584062,72.8692004 35.0077889,72.9193891 C35.0551886,72.9376424 35.1054579,72.9361229 35.1571669,72.9498113 C35.257712,72.9711037 35.3596936,72.996961 35.4631115,72.9984805 L35.4746031,73 C35.5694024,73 35.6627653,72.9756622 35.7575645,72.9558894 C35.8078371,72.9452464 35.8595429,72.9498113 35.908379,72.931558 C36.0548873,72.8844083 36.1942133,72.8159663 36.3234874,72.7201411 L49.9946857,62.7502581 L63.6658872,72.7201411 C63.9229925,72.9072202 64.218882,73 64.5162079,73 C64.8278983,73 65.1395887,72.8996162 65.4038762,72.6942902 C65.9180869,72.2927551 66.1378509,71.5915947 65.9525617,70.9482269 L61.1335989,54.2739563 L74.389692,43.742836 C74.8982395,43.3351625 75.1093403,42.6309408 74.9125277,41.9861298 Z M74.9125277,41.9861298" id="Oval 1" fill="rgb(69,73,82)"></path>
    </g>
</svg>