<?xml version="1.0" encoding="UTF-8" standalone="no"?>
<svg width="62px" height="61px" viewBox="0 0 62 61" version="1.1" xmlns="http://www.w3.org/2000/svg" xmlns:xlink="http://www.w3.org/1999/xlink" xmlns:sketch="http://www.bohemiancoding.com/sketch/ns">
    <title>Slice 1</title>
    <description>Created with Sketch (http://www.bohemiancoding.com/sketch)</description>
    <defs></defs>
    <g id="Page-1" stroke="none" stroke-width="1" fill="none" fill-rule="evenodd" sketch:type="MSPage">
        <g id="artist-icon" sketch:type="MSLayerGroup" transform="translate(1.000000, 1.000000)" fill="#000000">
            <g id="Page-1" sketch:type="MSShapeGroup">
                <path d="M59.9125522,22.5833558 C59.6763462,21.809491 59.0039372,21.2801979 58.2332538,21.2619446 L48.0212482,21.0429275 L45.0195468,20.9808738 L42.0178377,20.9133423 L39.4557841,20.8622368 L38.2557947,20.8348625 L37.6213153,18.9202774 L31.6989366,1.072129 C31.445492,0.31286692 30.7644617,-0.2 30.0006754,-0.2 C29.2368853,-0.2 28.5541307,0.31286692 28.3006861,1.072129 L22.3800317,18.9202774 L21.7438279,20.8348625 L20.5421144,20.8622368 L17.9800607,20.9133423 L14.9800797,20.9808738 L11.9800988,21.0429275 L1.7663707,21.2619446 C0.9974098,21.2801979 0.3232765,21.809491 0.0870705,22.5833558 C-0.14913376,23.3590439 0.1060371,24.204087 0.72155,24.6914032 L16.6300698,37.3287476 L10.8473473,57.3378723 C10.6249352,58.115384 10.8887273,58.9531295 11.5076885,59.4331482 C11.6645833,59.5536011 11.8335477,59.6430405 12.0128594,59.7032669 C12.0697556,59.7251709 12.1300964,59.7233475 12.1921654,59.7397736 C12.3128548,59.7653244 12.4352685,59.7963532 12.5594063,59.7981766 L12.5732002,59.8 C12.6869927,59.8 12.7990609,59.7707946 12.9128532,59.7470673 C12.973198,59.7342957 13.0352631,59.7397736 13.0938836,59.7178696 C13.269745,59.66129 13.4369851,59.5791596 13.5921594,59.4641693 L30.0023958,47.5003097 L46.4126361,59.4641693 C46.7212527,59.6886642 47.076424,59.8 47.4333194,59.8 C47.8074573,59.8 48.1815952,59.6795394 48.4988329,59.4331482 C49.1160663,58.9513061 49.3798602,58.1099136 49.1574481,57.3378723 L43.3730013,37.3287476 L59.2849659,24.6914032 C59.8954014,24.202195 60.1487964,23.357129 59.9125522,22.5833558 L59.9125522,22.5833558 L59.9125522,22.5833558 Z" id="Path"></path>
            </g>
        </g>
    </g>
</svg>