<?xml version="1.0" encoding="UTF-8" standalone="no"?>
<svg width="200px" height="200px" viewBox="0 0 200 200" version="1.1" xmlns="http://www.w3.org/2000/svg" xmlns:xlink="http://www.w3.org/1999/xlink" xmlns:sketch="http://www.bohemiancoding.com/sketch/ns">
    <title>artist-placeholder-grid</title>
    <description>Created with Sketch (http://www.bohemiancoding.com/sketch)</description>
    <defs></defs>
    <g id="Page-1" stroke="none" stroke-width="1" fill="none" fill-rule="evenodd" sketch:type="MSPage">
        <g id="artist-placeholder-grid" sketch:type="MSLayerGroup">
            <g id="Page-1" sketch:type="MSShapeGroup">
                <g id="artist-placeholder-grid">
                    <g id="Page-1">
                        <rect id="Rectangle-1" fill="#D8D8D8" x="0" y="0" width="200" height="200"></rect>
                        <g id="artist-placeholder" transform="translate(75.000000, 75.000000)" fill="#606060">
                            <g id="Group">
                                <g id="Page-1">
                                    <path d="M50,19.2732558 C50,18.6802326 49.4152047,18.0872093 48.5380117,18.0872093 L31.871345,17.7906977 L26.6081871,0.889534884 C26.3157895,0.296511628 25.7309942,0 25.1461988,0 C24.2690058,0 23.9766082,0.296511628 23.6842105,0.889534884 L18.128655,17.7906977 L1.4619883,18.0872093 C0.877192982,18.0872093 0.292397661,18.6802326 0,19.2732558 C0,19.8662791 0,20.755814 0.584795322,21.0523256 L13.7426901,31.7267442 L9.06432749,48.9244186 C8.77192982,49.5174419 9.06432749,50.1104651 9.64912281,50.7034884 C10.2339181,51 10.8187135,51 11.4035088,50.7034884 L25.1461988,40.3255814 L38.8888889,50.7034884 C38.8888889,50.7034884 39.1812865,51 39.7660819,51 C40.0584795,51 40.3508772,50.7034884 40.6432749,50.7034884 C40.9356725,50.1104651 41.2280702,49.5174419 40.9356725,48.9244186 L36.2573099,31.7267442 L49.4152047,21.0523256 C50,20.755814 50.2923977,19.8662791 50,19.2732558 C50,19.2732558 50.2923977,19.8662791 50,19.2732558 L50,19.2732558" id="Shape"></path>
                                </g>
                            </g>
                        </g>
                    </g>
                </g>
            </g>
        </g>
    </g>
</svg>