<?xml version="1.0" encoding="UTF-8" standalone="no"?>
<svg width="100px" height="100px" viewBox="0 0 100 100" version="1.1" xmlns="http://www.w3.org/2000/svg" xmlns:xlink="http://www.w3.org/1999/xlink" xmlns:sketch="http://www.bohemiancoding.com/sketch/ns">
    <title>artist-icon</title>
    <description>Created with Sketch (http://www.bohemiancoding.com/sketch)</description>
    <defs></defs>
    <g id="Page 1" fill="rgb(215,215,215)" fill-rule="evenodd">
        <g fill="rgb(214,215,214)">
            <path d="M50,100 C22.3857613,100 0,77.6142426 0,50 C0,22.3857613 22.3857613,0 50,0 C77.6142426,0 100,22.3857613 100,50 C100,77.6142426 77.6142426,100 50,100 Z M86.870541,38.1020746 C86.5793054,37.1479205 85.7502434,36.4953166 84.8000119,36.4728107 L72.2088878,36.2027687 L68.5078719,36.1262582 L64.8068467,36.0429936 L61.6479044,35.9799819 L60.1683504,35.9462302 L59.3860544,33.585599 L52.0839234,11.5793193 C51.771433,10.6431699 50.9317413,10.0108189 49.9900136,10.0108189 C49.0482812,10.0108189 48.2064635,10.6431699 47.8939732,11.5793193 L40.593968,33.585599 L39.8095461,35.9462302 L38.3278661,35.9799819 L35.1689239,36.0429936 L31.4700293,36.1262582 L27.7711347,36.2027687 L15.1778869,36.4728107 C14.2297791,36.4953166 13.3985911,37.1479205 13.1073555,38.1020746 C12.8161222,39.0584769 13.1307409,40.1003921 13.8896514,40.7012396 L33.504422,56.2827402 L26.374483,80.9534449 C26.100255,81.9120954 26.4255034,82.945013 27.1886658,83.5368628 C27.3821127,83.6853779 27.5904411,83.7956543 27.8115276,83.8699118 C27.8816791,83.8969189 27.9560778,83.8946706 28.0326071,83.9149235 C28.1814138,83.946427 28.3323465,83.9846846 28.4854051,83.9869329 C28.4917829,83.9869329 28.4981608,83.9891811 28.5024126,83.9891811 C28.6427156,83.9891811 28.7808926,83.9531717 28.9211955,83.9239165 C28.9955989,83.9081694 29.0721235,83.9149235 29.1444009,83.8879165 C29.3612332,83.8181554 29.5674357,83.7168908 29.7587613,83.575111 L49.9921348,68.8239988 L70.225513,83.575111 C70.6060289,83.8519072 71.0439453,83.9891811 71.4839876,83.9891811 C71.9452894,83.9891811 72.4065912,83.8406566 72.7977368,83.5368628 C73.5587686,82.9427648 73.8840194,81.9053507 73.6097913,80.9534449 L66.4777264,56.2827402 L86.0967442,40.7012396 C86.8493945,40.0980592 87.1618237,39.0561158 86.870541,38.1020746 Z M86.870541,38.1020746" id="Oval 1" fill="rgb(69,73,82)"></path>
        </g>
    </g>
</svg>