<?xml version="1.0" encoding="UTF-8" standalone="no"?>
<svg width="60px" height="60px" viewBox="0 0 60 60" version="1.1" xmlns="http://www.w3.org/2000/svg" xmlns:xlink="http://www.w3.org/1999/xlink" xmlns:sketch="http://www.bohemiancoding.com/sketch/ns">
    <title>Slice 1</title>
    <description>Created with Sketch (http://www.bohemiancoding.com/sketch)</description>
    <defs></defs>
    <g id="Page-1" stroke="none" stroke-width="1" fill="none" fill-rule="evenodd" sketch:type="MSPage">
        <g id="g2550-+-g2554" sketch:type="MSLayerGroup" transform="translate(0.000000, 2.000000)" fill="#000000">
            <g id="g2550" sketch:type="MSShapeGroup">
                <path d="M54.8541622,14.9280009 L43.0142092,21.7644343 L30.0939982,21.7644343 C27.0593814,21.7644343 24.590457,24.2070779 24.590457,27.2088415 C24.590457,30.2139034 27.0593816,32.6532486 30.0939982,32.6532486 L42.0098167,32.6532486 L54.8541622,40.0702432 C55.9509123,40.7035823 56.3252917,42.1055047 55.6919804,43.1990041 C55.0603183,44.2958023 53.6601065,44.6701981 52.5650056,44.036859 L34.7564225,33.7566447 L45.0378364,51.5643579 C45.6694985,52.6611561 45.2951191,54.0614293 44.2000183,54.6931189 C43.1049175,55.3248086 41.7030563,54.9504129 41.0713944,53.8536147 L30.9878908,36.3873104 L30.9878908,43.9593409 C30.9878908,45.2227204 29.9620585,46.2485978 28.6987342,46.2485978 C27.4337608,46.2485978 26.4079283,45.2227205 26.4079283,43.9593409 L26.4079283,35.7061409 L15.9286048,53.8536147 C15.2969427,54.9504129 13.896731,55.3248086 12.8016301,54.6931189 C11.7065293,54.0614291 11.3321499,52.661156 11.9638119,51.5643579 L22.246875,33.7549947 L4.43664347,44.035209 C3.33989335,44.6685481 1.93968152,44.2958016 1.30801961,43.1990035 C0.674708276,42.1038547 1.04908763,40.7035815 2.14583775,40.0702425 L19.5668466,30.0126861 L12.4602358,30.0126861 C11.1969117,30.0126861 10.1710792,28.9851594 10.1710792,27.7234292 C10.1710792,26.4551018 11.1969116,25.4308737 12.4602358,25.4308737 L20.3403438,25.4308737 L2.14748629,14.9280009 C1.05073617,14.2930125 0.676356815,12.8943886 1.30801892,11.79924 C1.73352495,11.063643 2.50207462,10.6529622 3.29371381,10.6529622 C3.6829364,10.6529622 4.07545749,10.7535708 4.43664288,10.9613852 L22.2452261,21.2415995 L11.965462,3.43388621 C11.3321507,2.33873744 11.70653,0.94176288 12.8016309,0.306774504 C13.1628163,0.0973107947 13.5553374,8.84764461e-07 13.94456,8.84764461e-07 C14.7361992,8.84764461e-07 15.5063981,0.410681685 15.9302549,1.14462932 L26.4079293,19.2937516 L26.4079293,11.4842188 C26.4079293,10.21919 27.4337617,9.19331255 28.6987352,9.19331255 C29.9620593,9.19331255 30.9878918,10.2191899 30.9878918,11.4842188 L30.9878918,18.612582 L41.0730445,1.14627773 C41.4969013,0.410680776 42.2671002,0 43.0587394,0 C43.4463127,0 43.8404831,0.0989592276 44.2000191,0.30677362 C45.2967693,0.941761995 45.6711486,2.34038586 45.0394865,3.43388533 L34.7580726,21.2415986 L52.5650058,10.9630335 C52.9245419,10.7535698 53.3187123,10.6546105 53.7079349,10.6546105 C54.499574,10.6546105 55.269773,11.0652913 55.6919805,11.799239 C56.3252917,12.896038 55.9509123,14.2946618 54.8541622,14.9280009" id="path2552"></path>
            </g>
            <g id="g2554" transform="translate(26.000000, 24.000000)" sketch:type="MSShapeGroup">
                <path d="M1.88781858,7 C0.845060474,7 0,5.43204391 0,3.5 C0,1.56612642 0.845060474,0 1.88781858,0 L33,0 L33,7 L1.88781858,7 L1.88781858,7 L1.88781858,7" id="path2556"></path>
            </g>
        </g>
    </g>
</svg>