<?xml version="1.0" encoding="UTF-8" standalone="no"?>
<svg width="62px" height="62px" viewBox="0 0 62 62" version="1.1" xmlns="http://www.w3.org/2000/svg" xmlns:xlink="http://www.w3.org/1999/xlink" xmlns:sketch="http://www.bohemiancoding.com/sketch/ns">
    <title>automatic-playlist</title>
    <description>Created with Sketch (http://www.bohemiancoding.com/sketch)</description>
    <defs></defs>
    <g id="Page-1" stroke="none" stroke-width="1" fill="none" fill-rule="evenodd" sketch:type="MSPage">
        <g id="automatic-playlist" sketch:type="MSLayerGroup" transform="translate(1.000000, 1.000000)" fill="#000000">
            <g id="Page-1" sketch:type="MSShapeGroup">
                <g id="automatic-playlist">
                    <g id="Page-1">
                        <g id="g2598">
                            <path d="M6.40086793,49.6183322 L11.6827843,53.3184596 L10.2427019,54.7621752 C8.917681,56.0847738 8.917681,58.2394468 10.2402796,59.5632565 C11.5640894,60.8870664 13.7175512,60.8870664 15.0449945,59.5632565 L18.167393,56.4396465 C22.1363999,52.4718507 22.7843765,48.3054227 22.9115494,45.1176216 C22.9285059,44.6864447 22.9381952,44.2589014 22.9345617,43.8337805 C22.9321394,42.6650007 22.872792,41.5095435 22.8158669,40.3928439 C22.7589419,39.3003678 22.7141286,38.3253752 22.7068616,37.3431157 C22.7020169,36.898616 22.7068616,36.4553275 22.7238179,36.0180948 C22.7710536,34.955898 22.8897484,33.8137637 23.213131,32.6207604 L29.2387061,36.8392687 C27.7271648,37.4569658 26.2786044,37.6798213 24.9438941,37.7633921 C24.9560058,38.5518644 24.9996079,39.3706159 25.0444213,40.26446 C25.0989239,41.3230234 25.1510043,42.3597857 25.1643272,43.4268273 C29.5475546,43.5055534 34.1621156,42.9084462 38.4000032,38.6705592 C42.7868641,34.2824872 43.2749661,29.497151 43.1490042,24.9806941 C43.1356814,24.5483061 43.118725,24.1147069 43.1005574,23.6883747 C43.083601,23.3238122 43.0654334,22.9653057 43.0460547,22.6092214 C42.9515834,20.7270619 42.8559009,18.7807102 43.0678558,16.9324637 C43.1235696,16.431039 43.1986623,15.9780611 43.2882889,15.5456731 C43.5002438,14.55978 43.8187817,13.6405014 44.2426916,12.7660358 C44.2426916,12.7660358 48.387176,14.9354698 48.5968509,15.815764 C48.8065258,16.6960582 46.4736684,16.8670603 45.2867209,17.1492631 C45.0905111,18.8061449 45.1825601,20.5986778 45.2770314,22.4941603 L45.3085219,23.1566708 C48.4321316,22.9846845 52.3926604,22.2131687 56.1703029,18.4355267 L59.2963351,15.313128 C60.6201449,13.9881071 60.6189337,11.8322228 59.2939128,10.5108356 C57.9701029,9.18460345 55.8178524,9.18460345 54.4928314,10.5084132 L53.7830852,11.2193706 L48.4999578,7.52045481 L50.0030209,6.01860288 C51.3256196,4.69479302 51.3256196,2.54133116 50.0018098,1.21752152 C48.6767889,-0.107499407 46.523327,-0.107499407 45.2007284,1.21752152 L42.0759076,4.34113124 C38.1105342,8.30771595 37.4601352,12.4705101 37.3329625,15.6619457 C37.314795,16.0931225 37.3075279,16.5230882 37.3099503,16.946998 C37.3123726,18.0951879 37.3692976,19.2276327 37.4250115,20.3237425 C37.4819366,21.4283304 37.5315946,22.4360245 37.5388616,23.4340294 C37.5424951,23.8797403 37.5400727,24.3230289 37.5194829,24.7614727 C37.4698249,25.8866504 37.3402296,27.0990324 36.9684001,28.3671284 L30.7793166,24.0347702 C32.3720064,23.345614 33.9005039,23.1033799 35.3006176,23.0149644 C35.2872948,22.2059022 35.2436926,21.3665609 35.1988793,20.5151078 C35.1467989,19.481979 35.0922963,18.4379497 35.0826069,17.3515294 C30.6981684,17.2728033 26.0811846,17.8723329 21.8408761,22.1126422 C17.4552262,26.498292 16.9683359,31.2799944 17.0942974,35.7964513 C17.105198,36.233684 17.1269991,36.6636497 17.1427443,37.0936153 L17.1972469,38.1715574 C17.2905071,40.054928 17.388612,41.9988574 17.1766571,43.847104 C17.119732,44.3497399 17.0458506,44.8015067 16.9550128,45.2338947 C16.737002,46.250067 16.4075636,47.1923579 15.964275,48.0886245 L11.570147,45.0134616 C12.6262879,44.3788081 13.7393541,43.9221966 14.9565808,43.6303045 C15.1540016,41.9722116 15.0619526,40.1784676 14.9674813,38.28783 L14.9335685,37.6241084 C11.8135924,37.7936723 7.85064114,38.5651882 4.07299914,42.3440414 L0.949389428,45.4676512 C-0.376842715,46.791461 -0.374420358,48.9485564 0.949389428,50.2711549 C2.27319728,51.5961744 4.42665928,51.5961744 5.75046921,50.2711533 L6.40086793,49.6183322 L6.40086793,49.6183322 Z" id="path2600"></path>
                        </g>
                    </g>
                </g>
            </g>
        </g>
    </g>
</svg>