<?xml version="1.0" encoding="UTF-8" standalone="no"?>
<svg width="107px" height="107px" version="1.1" xmlns="http://www.w3.org/2000/svg" xmlns:xlink="http://www.w3.org/1999/xlink" xmlns:sketch="http://www.bohemiancoding.com/sketch/ns">
    <title>automatic-playlist</title>
    <description>Created with Sketch (http://www.bohemiancoding.com/sketch)</description>
    <defs>
        <radialGradient cx="55.1087141%" cy="29.5365341%" fx="55.1087141%" fy="29.5365341%" r="100%" id="radialGradient-1">
            <stop stop-color="rgb(149,198,243)" offset="0%"></stop>
            <stop stop-color="rgb(124,142,212)" offset="100%"></stop>
        </radialGradient>
    </defs>
    <g id="Page 1" fill="rgb(215,215,215)" fill-rule="evenodd">
        <g id="g2598" fill="rgb(0,0,0)">
            <path d="M20.0684075,81.2901123 L20.9789657,80.3761627 L28.3736486,85.5563411 L26.3575333,87.5775429 C24.502504,89.429181 24.502504,92.4457232 26.354142,94.2990568 C28.2074758,96.1523906 31.2223223,96.1523906 33.0807429,94.2990568 L37.4521008,89.9260028 C43.0087105,84.3710886 43.9158777,78.5380895 44.0939198,74.0751679 C44.1176588,73.4715203 44.1312239,72.8729597 44.126137,72.2777904 C44.1227457,70.6414986 44.0396594,69.0238586 43.9599643,67.4604792 C43.8802693,65.9310126 43.8175306,64.566023 43.8073568,63.1908597 C43.8005742,62.5685601 43.8073568,61.9479562 43.8310957,61.3358304 C43.8972257,59.8487549 44.0633983,58.2497669 44.516134,56.5795623 L52.9519391,62.4854738 C50.8357813,63.3502498 48.8077968,63.6622475 46.9392023,63.7792466 C46.9561587,64.8831078 47.0172017,66.0293599 47.0799404,67.2807417 C47.1562441,68.7627304 47.2291566,70.2141976 47.2478087,71.7080559 C53.384327,71.8182724 59.8447124,70.9823223 65.7777551,65.0492805 C71.9193604,58.9059797 72.6027032,52.2065091 72.4263565,45.8834694 C72.4077045,45.2781262 72.3839656,44.6710873 72.358531,44.0742222 C72.334792,43.5638348 72.3093574,43.0619256 72.2822272,42.5634077 C72.1499673,39.9283843 72.0160118,37.203492 72.3127487,34.6159469 C72.3907481,33.9139523 72.4958778,33.2797832 72.6213551,32.67444 C72.9180919,31.2941897 73.364045,30.0071996 73.9575188,28.7829478 C73.9575188,28.7829478 79.759797,31.8201554 80.0533419,33.0525673 C80.3468867,34.2849792 77.0808863,34.5243821 75.4191598,34.919466 C75.1444662,37.2391005 75.2733348,39.7486466 75.4055946,42.4023221 L75.4496813,43.3298368 C79.8227349,43.089056 85.3674752,42.0089338 90.6561747,36.720235 L95.0326197,32.3488769 C96.8859535,30.4938476 96.8842578,27.4756096 95.0292285,25.6256675 C93.1758947,23.7689425 90.162744,23.7689425 88.3077145,25.6222762 L87.3140699,26.6176165 L79.9176915,21.4391344 L82.0219799,19.3365417 C83.873618,17.4832079 83.873618,14.4683613 82.0202843,12.6150278 C80.165255,10.7599985 77.1504084,10.7599985 75.2987703,12.6150278 L70.9240212,16.9880814 C65.3724985,22.5413 64.4619399,28.3692118 64.2838981,32.8372216 C64.2584636,33.4408692 64.2482897,34.0428211 64.251681,34.6362948 C64.2550723,36.2437608 64.3347673,37.8291835 64.4127667,39.3637372 C64.4924618,40.9101602 64.561983,42.320932 64.5721568,43.7181389 C64.5772437,44.3421341 64.5738524,44.9627381 64.5450266,45.5765594 C64.4755054,47.1518083 64.294072,48.8491431 63.7735107,50.6244775 L55.1087939,44.559176 C57.3385596,43.5943573 59.4784561,43.2552295 61.4386153,43.1314478 C61.4199633,41.9987608 61.3589203,40.8236829 61.2961816,39.6316486 C61.2232691,38.1852683 61.1469654,36.7236272 61.1334002,35.2026389 C54.9951864,35.0924223 48.5314091,35.9317638 42.5949771,41.8681967 C36.4550673,48.0081065 35.7734208,54.7024898 35.949767,61.0255295 C35.9650278,61.6376553 35.9955493,62.2396072 36.0175926,62.8415591 L36.0938963,64.350678 C36.2244606,66.9873969 36.3618074,69.7088981 36.0650705,72.2964433 C35.9853754,73.0001335 35.8819414,73.632607 35.7547685,74.2379502 C35.4495534,75.6605915 34.9883396,76.9797988 34.3677356,78.234572 L28.2159564,73.9293439 C29.6945537,73.040829 31.2528463,72.4015729 32.9569637,71.992924 C33.2333529,69.6715939 33.1044843,67.1603523 32.9722244,64.5134597 L32.9247465,63.5842494 C28.5567799,63.8216389 23.0086482,64.9017611 17.7199494,70.1921557 L13.3468958,74.5652093 C11.4901708,76.4185431 11.4935621,79.4384766 13.3468958,81.2901146 C15.2002268,83.1451418 18.2150736,83.1451418 20.0684075,81.2901123 Z M20.0684075,81.2901123" id="path2600" fill="url(#radialGradient-1)"></path>
        </g>
    </g>
</svg>