<?xml version="1.0" encoding="UTF-8" standalone="no"?>
<svg width="122px" height="122px" version="1.1" xmlns="http://www.w3.org/2000/svg" xmlns:xlink="http://www.w3.org/1999/xlink" xmlns:sketch="http://www.bohemiancoding.com/sketch/ns">
    <title>back-pressed</title>
    <description>Created with Sketch (http://www.bohemiancoding.com/sketch)</description>
    <defs>
        <linearGradient x1="50%" y1="50%" x2="50%" y2="0%" id="linearGradient-1">
            <stop stop-color="rgb(37,41,44)" offset="0%"></stop>
            <stop stop-color="rgb(0,0,0)" stop-opacity="0.5" offset="100%"></stop>
        </linearGradient>
        <path d="M61,106 C85.852815,106 106,85.852815 106,61 C106,36.147185 85.852815,16 61,16 C36.147185,16 16,36.147185 16,61 C16,85.852815 36.147185,106 61,106 Z M61,121 C27.8629134,121 1,94.1370866 1,61 C1,27.8629134 27.8629134,1 61,1 C94.1370866,1 121,27.8629134 121,61 C121,94.1370866 94.1370866,121 61,121 Z M72.020667,47.866611 C72.5906846,47.4418988 73.3484729,47.3820274 73.9739682,47.7088251 C74.602506,48.0362617 74.9981666,48.6973776 75,49.4182771 L75,72.5816226 C75,73.3019496 74.603731,73.963029 73.9751875,74.2898267 C73.7063342,74.4307738 73.4155337,74.5 73.1241236,74.5 C72.7357801,74.5 72.3474365,74.3758917 72.0212766,74.1332881 L64.3385355,68.4243067 L64.3385355,72.5816224 C64.3385355,73.3019495 63.9416569,73.9630288 63.3131133,74.2898265 C63.0448697,74.4307736 62.7534596,74.4999998 62.4620495,74.4999998 C62.0737059,74.4999998 61.6853623,74.3758915 61.3598121,74.1332879 L45.773639,62.5513035 C45.2865329,62.1895808 45,61.6126956 45,60.9983907 C45,60.3847096 45.2877523,59.8072007 45.773639,59.4467253 L61.3598121,47.8666109 C61.9298299,47.4418986 62.6870084,47.3820273 63.3125037,47.708825 C63.941657,48.0362464 64.3379259,48.6973257 64.3379259,49.4189 L64.3379259,53.5737213 Z M72.020667,47.866611" id="path-2"></path>
    </defs>
    <g id="Page 1" fill="rgb(215,215,215)" fill-rule="evenodd">
        <path d="M61,121 C94.1370866,121 121,94.1370866 121,61 C121,27.8629134 94.1370866,1 61,1 C27.8629134,1 1,27.8629134 1,61 C1,94.1370866 27.8629134,121 61,121 Z M61,121" id="Oval 18" stroke="rgb(150,150,150)" stroke-width="1" fill-opacity="0.00241268382" fill="rgb(254,255,254)"></path>
        <use id="Oval 33" stroke="rgb(150,150,150)" stroke-width="1" fill="url(#linearGradient-1)" xlink:href="#path-2"></use>
        <use id="Oval 33-1" stroke="none" fill="none" xlink:href="#path-2"></use>
    </g>
</svg>