<?xml version="1.0" encoding="UTF-8" standalone="no"?>
<svg width="102px" height="102px" version="1.1" xmlns="http://www.w3.org/2000/svg" xmlns:xlink="http://www.w3.org/1999/xlink" xmlns:sketch="http://www.bohemiancoding.com/sketch/ns">
    <title>back-pressed</title>
    <description>Created with Sketch (http://www.bohemiancoding.com/sketch)</description>
    <defs>
        <linearGradient x1="50%" y1="100%" x2="50%" y2="50%" id="linearGradient-1">
            <stop stop-color="rgb(49,55,59)" offset="0%"></stop>
            <stop stop-color="rgb(0,0,0)" stop-opacity="0.5" offset="100%"></stop>
        </linearGradient>
        <path d="M51,101 C78.6142389,101 101,78.6142389 101,51 C101,23.3857611 78.6142389,1 51,1 C23.3857611,1 1,23.3857611 1,51 C1,78.6142389 23.3857611,101 51,101 Z M51,101" id="path-2"></path>
    </defs>
    <g id="Page 1" fill="rgb(223,223,223)" fill-rule="evenodd">
        <use id="Oval 1" stroke="rgb(167,167,167)" stroke-width="1" fill="url(#linearGradient-1)" xlink:href="#path-2"></use>
        <use id="Oval 1-1" stroke="none" fill="none" xlink:href="#path-2"></use>
        <path d="M70.9215002,29.6884192 C69.8955002,29.1644192 68.6525002,29.2604192 67.7175002,29.9414192 L55.1155,39.0924192 L55.1155,32.430419 C55.1155,31.2734191 54.4655,30.213419 53.4334999,29.6884189 C52.4074999,29.1644189 51.1655,29.2604189 50.2304999,29.9414189 L24.6644999,48.5094197 C23.8674999,49.0874197 23.3954998,50.0134196 23.3954998,50.9974196 C23.3954998,51.9824196 23.8654998,52.9074196 24.6644999,53.4874196 L50.2304999,72.0584188 C50.7644998,72.4474188 51.4014999,72.6464188 52.0384998,72.6464188 C52.5164998,72.6464188 52.9944998,72.5354188 53.4344999,72.3094188 C54.4654999,71.7854188 55.1164999,70.7254188 55.1164999,69.5704187 L55.1164999,62.9044188 L67.7185001,72.0584191 C68.2535002,72.4474191 68.8905002,72.6464191 69.5275002,72.6464191 C70.0055001,72.6464191 70.4825001,72.5354191 70.9235002,72.309419 C71.9545002,71.7854191 72.6045002,70.7254191 72.6045002,69.570419 L72.6045002,32.4294201 C72.6014929,31.2735022 71.9524908,30.2134436 70.9215002,29.6884192 C70.9215002,29.6884192 71.9524908,30.2134436 70.9215002,29.6884192 L70.9215002,29.6884192" id="Shape" fill="rgb(213,213,213)"></path>
    </g>
</svg>