<?xml version="1.0" encoding="UTF-8" standalone="no"?>
<svg width="51px" height="51px" version="1.1" xmlns="http://www.w3.org/2000/svg" xmlns:xlink="http://www.w3.org/1999/xlink" xmlns:sketch="http://www.bohemiancoding.com/sketch/ns">
    <title>back</title>
    <description>Created with Sketch (http://www.bohemiancoding.com/sketch)</description>
    <defs>
        <linearGradient x1="50%" y1="50%" x2="50%" y2="0%" id="linearGradient-1">
            <stop stop-color="rgb(37,41,44)" offset="0%"></stop>
            <stop stop-color="rgb(0,0,0)" stop-opacity="0.5" offset="100%"></stop>
        </linearGradient>
        <path d="M2,23.6164666 C2,24.3104666 2.331,24.9594667 2.89099997,25.3654666 L22.791999,39.8204665 C23.1939991,40.1134665 23.675999,40.2324665 24.153999,40.2134665 L24.153999,40.2134665 L24.156999,40.2134665 C24.300999,40.2054665 24.442999,40.1924665 24.582999,40.1564665 C24.741999,40.1234665 24.894999,40.0734665 25.044999,39.9974665 C25.768999,39.6294665 26.224999,38.8834665 26.224999,38.0704665 L26.223999,28.6624665 L45.7469997,28.6624665 C48.5349998,28.6624665 50.7919998,26.4044666 50.7919998,23.6154665 C50.7909998,20.8304665 48.5349998,18.5704665 45.7479996,18.5704665 L26.2249989,18.5704665 L26.2239989,14.4574666 L26.2239989,9.16146655 C26.2239989,8.97946655 26.1929989,8.80346654 26.1499989,8.63346655 C26.1369989,8.58446655 26.1219989,8.53646655 26.1069989,8.49046654 C26.0629989,8.35746654 26.0069989,8.23146654 25.9409989,8.11146654 C25.9199989,8.07446653 25.9039989,8.03746653 25.8809989,8.00346653 C25.7969989,7.87046653 25.7009989,7.74446653 25.5909989,7.63346653 C25.5809989,7.62446653 25.5699989,7.61946653 25.5599989,7.61146653 C25.4099989,7.46446653 25.2369989,7.33546653 25.0429989,7.23646653 C24.3189989,6.86746654 23.4479989,6.93346652 22.7909988,7.41246653 L2.8909992,21.8684669 C2.33099365,22.2754022 2,22.9245721 2,23.6164666 C2,23.6164666 2,22.9245721 2,23.6164666 L2,23.6164666" id="path-2"></path>
    </defs>
    <g id="Page 1" fill="rgb(215,215,215)" fill-rule="evenodd">
        <use id="Shape" stroke="rgb(150,150,150)" stroke-width="1" fill="url(#linearGradient-1)" xlink:href="#path-2"></use>
        <use id="Shape-1" stroke="none" fill="none" xlink:href="#path-2"></use>
    </g>
</svg>