<?xml version="1.0" encoding="UTF-8" standalone="no"?>
<svg width="102px" height="102px" version="1.1" xmlns="http://www.w3.org/2000/svg" xmlns:xlink="http://www.w3.org/1999/xlink" xmlns:sketch="http://www.bohemiancoding.com/sketch/ns">
    <title>back-rest</title>
    <description>Created with Sketch (http://www.bohemiancoding.com/sketch)</description>
    <defs>
        <linearGradient x1="50%" y1="50%" x2="50%" y2="0%" id="linearGradient-1">
            <stop stop-color="rgb(49,55,59)" offset="0%"></stop>
            <stop stop-color="rgb(0,0,0)" stop-opacity="0.5" offset="100%"></stop>
        </linearGradient>
        <path d="M51,101 C78.6142389,101 101,78.6142389 101,51 C101,23.3857611 78.6142389,1 51,1 C23.3857611,1 1,23.3857611 1,51 C1,78.6142389 23.3857611,101 51,101 Z M51,101" id="path-2"></path>
    </defs>
    <g id="Page 1" fill="rgb(223,223,223)" fill-rule="evenodd">
        <use id="Oval 1" stroke="rgb(167,167,167)" stroke-width="1" fill="url(#linearGradient-1)" xlink:href="#path-2"></use>
        <use id="Oval 1-1" stroke="none" fill="none" xlink:href="#path-2"></use>
        <path d="M61.5241115,35.9209238 L52.5609136,42.4735319 L52.5609136,37.7031815 C52.5609136,36.8747073 52.0985998,36.1156903 51.3645877,35.739762 C50.6348431,35.3645498 49.7514682,35.433291 49.0864475,35.9209236 L30.9025788,49.2166106 C30.335711,49.6304897 30,50.2935554 30,50.9981523 C30,51.7034653 30.3342884,52.365815 30.9025788,52.7811262 L49.0864475,66.0789602 C49.466256,66.3575051 49.9193236,66.4999998 50.3723911,66.4999998 C50.7123695,66.4999998 51.052348,66.4205178 51.3652989,66.2586897 C52.0985997,65.8834775 52.5616248,65.1244605 52.5616248,64.2974183 L52.5616248,59.524204 L61.5248227,66.0789604 C61.9053425,66.3575053 62.3584101,66.5 62.8114776,66.5 C63.151456,66.5 63.4907232,66.420518 63.8043854,66.2586899 C64.5376862,65.8834777 65,65.1244607 65,64.2974185 L65,37.7024663 C64.9978611,36.8747668 64.536257,36.1157079 63.8029629,35.7397622 C63.0732183,35.36455 62.1891321,35.4332912 61.5241115,35.9209238 Z M61.5241115,35.9209238" id="Shape" fill="rgb(254,254,254)"></path>
    </g>
</svg>