<?xml version="1.0" encoding="UTF-8" standalone="no"?>
<!-- Created with Inkscape (http://www.inkscape.org/) -->

<svg
   xmlns:dc="http://purl.org/dc/elements/1.1/"
   xmlns:cc="http://creativecommons.org/ns#"
   xmlns:rdf="http://www.w3.org/1999/02/22-rdf-syntax-ns#"
   xmlns:svg="http://www.w3.org/2000/svg"
   xmlns="http://www.w3.org/2000/svg"
   version="1.1"
   width="209.9375"
   height="209.93625"
   id="svg2"
   xml:space="preserve"><metadata
     id="metadata8"><rdf:RDF><cc:Work
         rdf:about=""><dc:format>image/svg+xml</dc:format><dc:type
           rdf:resource="http://purl.org/dc/dcmitype/StillImage" /><dc:title></dc:title></cc:Work></rdf:RDF></metadata><defs
     id="defs6"><clipPath
       id="clipPath16"><path
         d="m 190.352,296.129 0,-46.533 c 7.015,5.27 15.744,8.394 25.19,8.394 l 0,0 c 23.195,0 41.988,-18.797 41.988,-41.992 l 0,0 c 0,-23.186 -18.793,-41.987 -41.988,-41.987 l 0,0 c -23.19,0 -41.989,18.801 -41.989,41.987 l 0,0 0,72.744 c -25.096,-14.519 -41.985,-41.664 -41.985,-72.744 l 0,0 c 0,-46.373 37.602,-83.973 83.974,-83.973 l 0,0 c 46.38,0 83.976,37.6 83.976,83.973 l 0,0 c 0,46.381 -37.596,83.976 -83.976,83.976 l 0,0 c -8.78,0 -17.242,-1.349 -25.19,-3.845 m 12.595,-65.437 0,-29.394 c 0,-3.475 2.821,-6.296 6.299,-6.296 l 0,0 c 1.404,0 2.703,0.461 3.752,1.24 l 0,0 0,-0.002 20.12,14.619 -0.002,0.002 c 1.605,1.143 2.652,3.016 2.652,5.135 l 0,0 c 0,2.117 -1.047,3.99 -2.652,5.133 l 0,0 0.002,0.002 -20.12,14.619 0,-0.002 c -1.049,0.779 -2.348,1.24 -3.752,1.24 l 0,0 c -3.478,0 -6.299,-2.82 -6.299,-6.296"
         id="path18" /></clipPath><linearGradient
       x1="0"
       y1="0"
       x2="1"
       y2="0"
       id="linearGradient24"
       gradientUnits="userSpaceOnUse"
       gradientTransform="matrix(118.75739,118.75739,118.75739,-118.75739,156.16501,156.62248)"
       spreadMethod="pad"><stop
         id="stop26"
         style="stop-color:#89278e;stop-opacity:1"
         offset="0" /><stop
         id="stop28"
         style="stop-color:#e31837;stop-opacity:1"
         offset="1" /></linearGradient></defs><g
     transform="matrix(1.25,0,0,-1.25,-164.46,374.9675)"
     id="g10"><g
       id="g12"><g
         clip-path="url(#clipPath16)"
         id="g14"><g
           id="g20"><g
             id="g22"><path
               d="m 190.352,296.129 0,-46.533 c 7.015,5.27 15.744,8.394 25.19,8.394 l 0,0 c 23.195,0 41.988,-18.797 41.988,-41.992 l 0,0 c 0,-23.186 -18.793,-41.987 -41.988,-41.987 l 0,0 c -23.19,0 -41.989,18.801 -41.989,41.987 l 0,0 0,72.744 c -25.096,-14.519 -41.985,-41.664 -41.985,-72.744 l 0,0 c 0,-46.373 37.602,-83.973 83.974,-83.973 l 0,0 c 46.38,0 83.976,37.6 83.976,83.973 l 0,0 c 0,46.381 -37.596,83.976 -83.976,83.976 l 0,0 c -8.78,0 -17.242,-1.349 -25.19,-3.845 m 12.595,-65.437 0,-29.394 c 0,-3.475 2.821,-6.296 6.299,-6.296 l 0,0 c 1.404,0 2.703,0.461 3.752,1.24 l 0,0 0,-0.002 20.12,14.619 -0.002,0.002 c 1.605,1.143 2.652,3.016 2.652,5.135 l 0,0 c 0,2.117 -1.047,3.99 -2.652,5.133 l 0,0 0.002,0.002 -20.12,14.619 0,-0.002 c -1.049,0.779 -2.348,1.24 -3.752,1.24 l 0,0 c -3.478,0 -6.299,-2.82 -6.299,-6.296"
               id="path30"
               style="fill:url(#linearGradient24);stroke:none" /></g></g></g></g></g></svg>