<?xml version="1.0" encoding="UTF-8" standalone="no"?>
<svg width="51px" height="50px" version="1.1" xmlns="http://www.w3.org/2000/svg" xmlns:xlink="http://www.w3.org/1999/xlink" xmlns:sketch="http://www.bohemiancoding.com/sketch/ns">
    <title>Slice 1</title>
    <description>Created with Sketch (http://www.bohemiancoding.com/sketch)</description>
    <defs></defs>
    <g id="Page 1" fill="rgb(223,223,223)" fill-rule="evenodd">
        <g id="Group" fill="rgb(0,0,0)">
            <path d="M45.8870239,0.75402832 L5.1270256,0.75402832 C2.6750257,0.75402832 0.678025723,2.74902833 0.678025723,5.2030282 L0.678025723,44.8820291 C0.678025723,47.3350291 2.6750257,49.3320289 5.1270256,49.3320289 L45.8870239,49.3320289 C48.3390238,49.3320289 50.3360238,47.3350289 50.3360238,44.8820291 L50.3360238,5.2030282 C50.3359985,2.74902344 48.3389893,0.75402832 45.8870239,0.75402832 L45.8870239,0.75402832 L45.8870239,0.75402832 M46.4559937,44.881958 C46.4559937,45.197958 46.2019936,45.451958 45.8869936,45.451958 L5.12699533,45.451958 C4.81199533,45.451958 4.55799532,45.197958 4.55799532,44.881958 L4.55799532,5.20295715 C4.55799532,4.88895714 4.81199533,4.63095713 5.12699533,4.63095713 L45.8869936,4.63095713 C46.2019936,4.63095713 46.4559937,4.88895711 46.4559937,5.20295715 L46.4559937,44.881958 L46.4559937,44.881958 L46.4559937,44.881958" id="Shape" fill="rgb(100,100,100)"></path>
            <path d="M39.4439697,11.6949463 C38.6629697,10.9139463 37.3969698,10.9139463 36.6159697,11.6949463 L25.4949694,22.8149462 L14.3749695,11.6949463 C13.5939695,10.9139463 12.3279696,10.9139463 11.5469694,11.6949463 C10.7659693,12.4759463 10.7659694,13.7419462 11.5469694,14.5229464 L22.6669693,25.6429462 L11.545969,36.7639465 C10.764969,37.5449466 10.764969,38.8109465 11.545969,39.5919466 C11.936969,39.9829466 12.447969,40.1779466 12.959969,40.1779466 C13.4719691,40.1779466 13.982969,39.9829466 14.3739691,39.5919466 L25.4949694,28.4709463 L36.6159697,39.5919466 C37.0069697,39.9829466 37.5179697,40.1779466 38.0299697,40.1779466 C38.5419697,40.1779466 39.0529697,39.9829466 39.4439697,39.5919466 C40.2249697,38.8109466 40.2249697,37.5449467 39.4439697,36.7639465 L28.3229694,25.6429462 L39.4439697,14.5229464 C40.2260132,13.7419434 40.2260132,12.4770508 39.4439697,11.6949463 C39.4439697,11.6949463 40.2260132,12.4770508 39.4439697,11.6949463 L39.4439697,11.6949463" id="Shape" fill="rgb(100,100,100)"></path>
        </g>
    </g>
</svg>