<?xml version="1.0" encoding="UTF-8" standalone="no"?>
<svg width="178px" height="182px" version="1.1" xmlns="http://www.w3.org/2000/svg" xmlns:xlink="http://www.w3.org/1999/xlink" xmlns:sketch="http://www.bohemiancoding.com/sketch/ns">
    <title>cancel</title>
    <description>Created with Sketch (http://www.bohemiancoding.com/sketch)</description>
    <defs>
        <linearGradient x1="50%" y1="0%" x2="50%" y2="173.920641%" id="linearGradient-1">
            <stop stop-color="rgb(123,125,121)" offset="0%"></stop>
            <stop stop-color="rgb(0,0,0)" offset="100%"></stop>
        </linearGradient>
    </defs>
    <g id="Page 1" fill="rgb(215,215,215)" fill-rule="evenodd">
        <path d="M89.0019265,0 C39.927934,0 0,40.8212552 0,90.9980302 C0,141.174805 39.9279304,182 89.0019265,182 C138.075923,182 178,141.174813 178,90.9980302 C178,40.8212477 138.076029,0 89.0019265,0 L89.0019265,0 L89.0019265,0 M89.0019265,165.12592 C73.1223307,165.12592 58.4316829,159.861961 46.4729259,150.974605 L146.783338,46.2934266 C156.002507,58.7333651 161.493223,74.2183746 161.493223,90.9977348 C161.497087,131.870601 128.976177,165.12592 89.0019265,165.12592 L89.0019265,165.12592 L89.0019265,165.12592 M89.0019265,16.8701854 C105.797282,16.8701854 121.257478,22.755748 133.56253,32.5912466 L32.798085,137.752396 C22.6208299,124.98592 16.5067804,108.710136 16.5067804,90.9944349 C16.5030082,50.1216627 49.0316686,16.8701854 89.0019265,16.8701854 C89.0019265,16.8701854 49.0316686,16.8701854 89.0019265,16.8701854 L89.0019265,16.8701854" id="Shape" fill="url(#linearGradient-1)"></path>
    </g>
</svg>