<?xml version="1.0" encoding="UTF-8" standalone="no"?>
<svg width="60px" height="60px" viewBox="0 0 60 60" version="1.1" xmlns="http://www.w3.org/2000/svg" xmlns:xlink="http://www.w3.org/1999/xlink" xmlns:sketch="http://www.bohemiancoding.com/sketch/ns">
    <title>cancel</title>
    <description>Created with Sketch (http://www.bohemiancoding.com/sketch)</description>
    <defs></defs>
    <g id="Page-1" stroke="none" stroke-width="1" fill="none" fill-rule="evenodd" sketch:type="MSPage">
        <g id="cancel" sketch:type="MSLayerGroup" fill="#000000">
            <g id="Page-1" sketch:type="MSShapeGroup">
                <path d="M30.0006494,0 C13.4588542,0 0,13.4575567 0,29.9993506 C0,46.5411446 13.4588529,60 30.0006494,60 C46.5424458,60 60,46.5411471 60,29.9993506 C60,13.4575542 46.5424817,0 30.0006494,0 L30.0006494,0 M30.0006494,54.4371165 C24.6479766,54.4371165 19.6960729,52.7017454 15.6650312,49.7718478 L49.4775297,15.2615692 C52.5851148,19.3626478 54.435918,24.467596 54.435918,29.9992532 C54.4372204,43.4738244 43.4751158,54.4371165 30.0006494,54.4371165 L30.0006494,54.4371165 M30.0006494,5.5615996 C35.6620053,5.5615996 40.8733072,7.5018949 45.0210775,10.744367 L11.0555343,45.4128779 C7.6249988,41.2041493 5.5640833,35.8385064 5.5640833,29.9981654 C5.5628117,16.5236251 16.5275287,5.5615996 30.0006494,5.5615996 C30.0006494,5.5615996 16.5275287,5.5615996 30.0006494,5.5615996 L30.0006494,5.5615996" id="Shape"></path>
            </g>
        </g>
    </g>
</svg>