<?xml version="1.0" encoding="UTF-8" standalone="no"?>
<svg width="73px" height="73px" viewBox="0 0 73 73" version="1.1" xmlns="http://www.w3.org/2000/svg" xmlns:xlink="http://www.w3.org/1999/xlink" xmlns:sketch="http://www.bohemiancoding.com/sketch/ns">
    <title>charts</title>
    <description>Created with Sketch (http://www.bohemiancoding.com/sketch)</description>
    <defs>
        <radialGradient cx="50%" cy="25.578859%" fx="50%" fy="25.578859%" r="74.4211435%" id="radialGradient-1">
            <stop stop-color="rgb(67,112,14)" offset="0%"></stop>
            <stop stop-color="rgb(125,237,22)" offset="100%"></stop>
        </radialGradient>
        <path d="M12.6880041,58.1100338 C10.7249589,58.1100338 9.13496935,56.2763784 9.13493435,54.014699 L9.13493435,25.7770118 C9.13493435,23.5153566 10.7250023,21.683366 12.6879943,21.683366 L18.844184,21.683366 C20.807176,21.683366 22.3972439,23.5153566 22.3972439,25.7770118 L22.3972439,54.014699 C22.3972439,56.2763526 20.807176,58.1100338 18.844184,58.1100338 Z M33.2428954,58.1100338 C31.2798503,58.1100338 29.6898607,56.2763784 29.6898271,54.014699 L29.6898271,41.0013078 C29.6898271,38.7396542 31.2798923,36.9076636 33.242887,36.9076636 L39.3990754,36.9076636 C41.3620673,36.9076636 42.9521353,38.7396542 42.9521353,41.0013078 L42.9521353,54.014699 C42.9521353,56.2763526 41.3620673,58.1100338 39.3990754,58.1100338 Z M59.9539668,58.1100338 L53.7977868,58.1100338 C51.8347416,58.1100338 50.2447521,56.2763784 50.2447185,54.014699 L50.2447185,7.16953817 C50.2447185,4.9078842 51.8347865,3.07589402 53.7977756,3.07589402 L59.9539668,3.07589402 C61.9169615,3.07589402 63.5070295,4.9078844 63.5070295,7.16953817 L63.5070295,54.014699 C63.5070295,56.2763526 61.9169615,58.1100338 59.9539668,58.1100338 Z M3.31053384,63.6787297 L70.6895101,63.6787297 C72.3030676,63.6787297 73.6141839,65.1875721 73.6141335,67.0483749 L73.6141335,67.2851962 C73.6141335,69.1459409 72.3044902,70.6548414 70.6894653,70.6548414 L3.31053384,70.6548414 C1.6955068,70.6548414 0.385866463,69.147638 0.385866463,67.2851962 L0.385866463,67.0483749 C0.385866463,65.1876237 1.69403853,63.6787297 3.31053384,63.6787297 Z M3.31053384,63.6787297" id="path-2"></path>
    </defs>
    <g id="Page 1" fill="rgb(215,215,215)" fill-rule="evenodd">
        <use id="Shape" fill="url(#radialGradient-1)" xlink:href="#path-2"></use>
        <use id="Shape-1" stroke="none" fill="none" xlink:href="#path-2"></use>
    </g>
</svg>