<?xml version="1.0" encoding="UTF-8" standalone="no"?>
<svg width="60px" height="60px" viewBox="0 0 60 60" version="1.1" xmlns="http://www.w3.org/2000/svg" xmlns:xlink="http://www.w3.org/1999/xlink" xmlns:sketch="http://www.bohemiancoding.com/sketch/ns">
    <title>Slice 1</title>
    <description>Created with Sketch (http://www.bohemiancoding.com/sketch)</description>
    <defs></defs>
    <g id="Page-1" stroke="none" stroke-width="1" fill="none" fill-rule="evenodd" sketch:type="MSPage">
        <g id="charts" sketch:type="MSLayerGroup" transform="translate(1.000000, 2.000000)" fill="#000000">
            <g id="Page-1" sketch:type="MSShapeGroup">
                <g id="Group">
                    <path d="M55.5771484,47.8056815 L19.851435,47.8056815 C18.4985778,47.8056815 17.4000065,48.9056815 17.4000065,50.2585387 C17.4000065,51.6113958 18.4985779,52.7099672 19.851435,52.7099672 L55.5771484,52.7099672 C56.9300056,52.7099672 58.028577,51.6113958 58.028577,50.2585387 C58.028577,48.9056816 56.9314314,47.8056815 55.5771484,47.8056815 L55.5771484,47.8056815" id="Shape"></path>
                    <path d="M55.5771484,25.7842494 L19.851435,25.7842494 C18.4985778,25.7842494 17.4000065,26.8813923 17.4000065,28.235678 C17.4000065,29.5899636 18.4985779,30.685678 19.851435,30.685678 L55.5771484,30.685678 C56.9300056,30.685678 58.028577,29.5899637 58.028577,28.235678 C58.028577,26.8813922 56.9314314,25.7842494 55.5771484,25.7842494 L55.5771484,25.7842494" id="Shape"></path>
                    <path d="M19.8528355,7.66289411 L55.578549,7.66289411 C56.9314062,7.66289411 58.0299775,6.56575125 58.0299775,5.21289407 C58.0299775,3.85860833 56.9314061,2.76003691 55.578549,2.76003691 L19.8528355,2.76003691 C18.4999783,2.76003691 17.401407,3.85860833 17.401407,5.21289407 C17.4014457,6.56713867 18.4985526,7.66289411 19.8528355,7.66289411 C19.8528355,7.66289411 18.4985526,7.66289411 19.8528355,7.66289411 L19.8528355,7.66289411" id="Shape"></path>
                    <path d="M8.36000279,-0.277169364 L2.28285967,-0.277169364 C0.928573932,-0.277169364 -0.169997488,0.819973503 -0.169997488,2.17283068 L-0.169997488,8.25283074 C-0.169997488,9.60568792 0.928573932,10.7056879 2.28285967,10.7056879 L8.36000279,10.7056879 C9.71428852,10.7056879 10.8128599,9.60568792 10.8128599,8.25283074 L10.8128599,2.17283068 C10.8128749,0.818586077 9.71428571,-0.277169364 8.36000279,-0.277169364 L8.36000279,-0.277169364" id="Shape"></path>
                    <path d="M8.36000279,22.7428676 L2.28285967,22.7428676 C0.928573932,22.7428676 -0.169997488,23.8428676 -0.169997488,25.1971534 L-0.169997488,31.275725 C-0.169997488,32.6285822 0.928573932,33.725725 2.28285967,33.725725 L8.36000279,33.725725 C9.71428852,33.725725 10.8128599,32.6285822 10.8128599,31.275725 L10.8128599,25.1971534 C10.8128749,23.8428955 9.71428571,22.7428676 8.36000279,22.7428676 L8.36000279,22.7428676" id="Shape"></path>
                    <path d="M8.36000279,44.767177 L2.28285967,44.767177 C0.928573932,44.767177 -0.169997488,45.8643199 -0.169997488,47.2186056 L-0.169997488,53.2971771 C-0.169997488,54.6500343 0.928573932,55.7486057 2.28285967,55.7486057 L8.36000279,55.7486057 C9.71428852,55.7486057 10.8128599,54.6500342 10.8128599,53.2971771 L10.8128599,47.2186056 C10.8128749,45.8628453 9.71428571,44.767177 8.36000279,44.767177 L8.36000279,44.767177" id="Shape"></path>
                </g>
                <path d="M7.83,51.94 C7.83,52.3266686 7.7516675,52.6616652 7.595,52.945 C7.4383326,53.2283347 7.2333346,53.4616658 6.98,53.645 C6.7266654,53.8283343 6.4416682,53.9649995 6.125,54.055 C5.8083318,54.1450004 5.4866683,54.19 5.16,54.19 C4.8399984,54.19 4.5283348,54.1533337 4.225,54.08 C3.9216651,54.0066663 3.6450013,53.8950008 3.395,53.745 C3.1449988,53.5949993 2.9266676,53.4016678 2.74,53.165 C2.5533324,52.9283321 2.4133338,52.643335 2.32,52.31 L3.88,51.9 C3.946667,52.1333345 4.0833323,52.3383324 4.29,52.515 C4.4966677,52.6916676 4.7599984,52.78 5.08,52.78 C5.2000006,52.78 5.3216661,52.7633335 5.445,52.73 C5.568334,52.6966665 5.6783329,52.6450004 5.775,52.575 C5.8716672,52.5049997 5.9516664,52.4133339 6.015,52.3 C6.0783336,52.1866661 6.11,52.0466675 6.11,51.88 C6.11,51.6999991 6.0683337,51.5500006 5.985,51.43 C5.9016663,51.3099994 5.7916674,51.2150003 5.655,51.145 C5.5183326,51.0749996 5.3633342,51.0250002 5.19,50.995 C5.0166658,50.9649998 4.8433342,50.95 4.67,50.95 L4.22,50.95 L4.22,49.72 L4.71,49.72 C4.8700008,49.72 5.0233326,49.7083334 5.17,49.685 C5.3166674,49.6616666 5.4483327,49.6183337 5.565,49.555 C5.6816673,49.4916664 5.7749997,49.4066672 5.845,49.3 C5.9150004,49.1933328 5.95,49.0533342 5.95,48.88 C5.95,48.6266654 5.8600009,48.433334 5.68,48.3 C5.4999991,48.166666 5.2933345,48.1 5.06,48.1 C4.8199988,48.1 4.6116675,48.171666 4.435,48.315 C4.2583325,48.458334 4.1433336,48.6499988 4.09,48.89 L2.53,48.53 C2.6166671,48.2299985 2.7466658,47.9683344 2.92,47.745 C3.0933342,47.5216655 3.2983321,47.3350008 3.535,47.185 C3.7716679,47.0349992 4.0299986,46.921667 4.31,46.845 C4.5900014,46.768333 4.8766652,46.73 5.17,46.73 C5.4833349,46.73 5.7883318,46.7699996 6.085,46.85 C6.3816681,46.9300004 6.6466655,47.0533325 6.88,47.22 C7.1133345,47.3866675 7.301666,47.5949988 7.445,47.845 C7.5883341,48.0950012 7.66,48.3899983 7.66,48.73 C7.66,49.1233353 7.5483344,49.4549986 7.325,49.725 C7.1016656,49.9950013 6.8166684,50.1766662 6.47,50.27 L6.47,50.3 C6.670001,50.3466669 6.8533325,50.4216661 7.02,50.525 C7.1866675,50.6283338 7.3299994,50.7516659 7.45,50.895 C7.5700006,51.0383341 7.663333,51.1983325 7.73,51.375 C7.796667,51.5516675 7.83,51.739999 7.83,51.94 L7.83,51.94 L7.83,51.94 Z" id="3"></path>
            </g>
        </g>
    </g>
</svg>