<?xml version="1.0" encoding="UTF-8" standalone="no"?>
<svg width="75px" height="75px" version="1.1" xmlns="http://www.w3.org/2000/svg" xmlns:xlink="http://www.w3.org/1999/xlink" xmlns:sketch="http://www.bohemiancoding.com/sketch/ns">
    <title>charts</title>
    <description>Created with Sketch (http://www.bohemiancoding.com/sketch)</description>
    <defs>
        <path d="M13.7301205,53.1286277 C11.7670753,53.1286277 10.1770858,51.5371147 10.1770508,49.5741004 L10.1770508,25.0653276 C10.1770508,23.1023343 11.7671188,21.5122663 13.7301107,21.5122663 L19.8863005,21.5122663 C21.8492924,21.5122663 23.4393604,23.1023343 23.4393604,25.0653276 L23.4393604,49.5741004 C23.4393604,51.5370923 21.8492924,53.1286277 19.8863005,53.1286277 Z M34.2850119,53.1286277 C32.3219667,53.1286277 30.7319772,51.5371147 30.7319436,49.5741004 L30.7319436,38.2791864 C30.7319436,36.3161944 32.3220087,34.7261265 34.2850035,34.7261265 L40.4411918,34.7261265 C42.4041838,34.7261265 43.9942517,36.3161944 43.9942517,38.2791864 L43.9942517,49.5741004 C43.9942517,51.5370923 42.4041838,53.1286277 40.4411918,53.1286277 Z M60.9960832,53.1286277 L54.8399033,53.1286277 C52.8768581,53.1286277 51.2868686,51.5371147 51.286835,49.5741004 L51.286835,8.91505513 C51.286835,6.95206281 52.8769029,5.36199522 54.8398921,5.36199522 L60.9960832,5.36199522 C62.959078,5.36199522 64.5491459,6.95206298 64.5491459,8.91505513 L64.5491459,49.5741004 C64.5491459,51.5370923 62.959078,53.1286277 60.9960832,53.1286277 Z M4.3526503,57.9619521 L71.7316266,57.9619521 C73.3451841,57.9619521 74.6563004,59.271545 74.65625,60.8866203 L74.65625,61.0921684 C74.65625,62.7071933 73.3466067,64.0168366 71.7315817,64.0168366 L4.3526503,64.0168366 C2.73762326,64.0168366 1.42798293,62.7086663 1.42798293,61.0921684 L1.42798293,60.8866203 C1.42798293,59.2715898 2.73615499,57.9619521 4.3526503,57.9619521 Z M4.3526503,57.9619521" id="path-1"></path>
    </defs>
    <g id="Page 1" fill="rgb(215,215,215)" fill-rule="evenodd">
        <use id="Shape" fill="rgb(111,201,14)" xlink:href="#path-1"></use>
        <use id="Shape-1" stroke="none" fill="none" xlink:href="#path-1"></use>
    </g>
</svg>