<?xml version="1.0" encoding="UTF-8" standalone="no"?>
<svg width="60px" height="60px" viewBox="0 0 60 60" version="1.1" xmlns="http://www.w3.org/2000/svg" xmlns:xlink="http://www.w3.org/1999/xlink" xmlns:sketch="http://www.bohemiancoding.com/sketch/ns">
    <title>Slice 1</title>
    <description>Created with Sketch (http://www.bohemiancoding.com/sketch)</description>
    <defs></defs>
    <g id="Page-1" stroke="none" stroke-width="1" fill="none" fill-rule="evenodd" sketch:type="MSPage">
        <g id="charts" sketch:type="MSLayerGroup" transform="translate(1.000000, 2.000000)" fill="#000000">
            <g id="Page-1" sketch:type="MSShapeGroup">
                <g id="charts">
                    <g id="Page-1">
                        <g id="Group">
                            <path d="M55.5771484,45.8056815 L19.851435,45.8056815 C18.4985778,45.8056815 17.4000065,47.7856815 17.4000065,50.2208245 C17.4000065,52.6559672 18.4985779,54.6333958 19.851435,54.6333958 L55.5771484,54.6333958 C56.9300056,54.6333958 58.028577,52.6559672 58.028577,50.2208245 C58.028577,47.7856817 56.9314314,45.8056815 55.5771484,45.8056815 L55.5771484,45.8056815" id="Shape"></path>
                            <path d="M55.5771484,23.7842494 L19.851435,23.7842494 C18.4985778,23.7842494 17.4000065,25.7591066 17.4000065,28.1968209 C17.4000065,30.634535 18.4985779,32.6068209 19.851435,32.6068209 L55.5771484,32.6068209 C56.9300056,32.6068209 58.028577,30.6345351 58.028577,28.1968209 C58.028577,25.7591064 56.9314314,23.7842494 55.5771484,23.7842494 L55.5771484,23.7842494" id="Shape"></path>
                            <path d="M19.8528355,9.58517987 L55.578549,9.58517987 C56.9314062,9.58517987 58.0299775,7.61032272 58.0299775,5.1751798 C58.0299775,2.73746547 56.9314061,0.76003691 55.578549,0.76003691 L19.8528355,0.76003691 C18.4999783,0.76003691 17.401407,2.73746547 17.401407,5.1751798 C17.4014457,7.61282008 18.4985526,9.58517987 19.8528355,9.58517987 C19.8528355,9.58517987 18.4985526,9.58517987 19.8528355,9.58517987 L19.8528355,9.58517987" id="Shape"></path>
                            <path d="M8.36000279,-0.277169364 L2.28285967,-0.277169364 C0.928573932,-0.277169364 -0.169997488,0.819973503 -0.169997488,2.17283068 L-0.169997488,8.25283074 C-0.169997488,9.60568792 0.928573932,10.7056879 2.28285967,10.7056879 L8.36000279,10.7056879 C9.71428852,10.7056879 10.8128599,9.60568792 10.8128599,8.25283074 L10.8128599,2.17283068 C10.8128749,0.818586077 9.71428571,-0.277169364 8.36000279,-0.277169364 L8.36000279,-0.277169364" id="Shape"></path>
                            <path d="M8.36000279,22.7428676 L2.28285967,22.7428676 C0.928573932,22.7428676 -0.169997488,23.8428676 -0.169997488,25.1971534 L-0.169997488,31.275725 C-0.169997488,32.6285822 0.928573932,33.725725 2.28285967,33.725725 L8.36000279,33.725725 C9.71428852,33.725725 10.8128599,32.6285822 10.8128599,31.275725 L10.8128599,25.1971534 C10.8128749,23.8428955 9.71428571,22.7428676 8.36000279,22.7428676 L8.36000279,22.7428676" id="Shape"></path>
                            <path d="M8.36000279,44.767177 L2.28285967,44.767177 C0.928573932,44.767177 -0.169997488,45.8643199 -0.169997488,47.2186056 L-0.169997488,53.2971771 C-0.169997488,54.6500343 0.928573932,55.7486057 2.28285967,55.7486057 L8.36000279,55.7486057 C9.71428852,55.7486057 10.8128599,54.6500342 10.8128599,53.2971771 L10.8128599,47.2186056 C10.8128749,45.8628453 9.71428571,44.767177 8.36000279,44.767177 L8.36000279,44.767177" id="Shape"></path>
                        </g>
                    </g>
                </g>
            </g>
        </g>
    </g>
</svg>