<?xml version="1.0" encoding="UTF-8" standalone="no"?>
<svg width="51px" height="41px" version="1.1" xmlns="http://www.w3.org/2000/svg" xmlns:xlink="http://www.w3.org/1999/xlink" xmlns:sketch="http://www.bohemiancoding.com/sketch/ns">
    <title>charts</title>
    <description>Created with Sketch (http://www.bohemiancoding.com/sketch)</description>
    <defs></defs>
    <g id="Page 1" fill="rgb(223,223,223)" fill-rule="evenodd">
        <g id="Group" fill="rgb(0,0,0)">
            <path d="M8.80700684,32.8959961 L13,32.8959961 C14.337,32.8959961 15.4200001,31.8119961 15.4200001,30.4749961 L15.4200001,13.7819953 C15.4200001,12.4449953 14.3370001,11.3619952 13,11.3619952 L8.80700016,11.3619952 C7.47000015,11.3619952 6.38700008,12.4449952 6.38700008,13.7819953 L6.38700008,30.4749961 C6.38702393,31.8120117 7.4699707,32.8959961 8.80700684,32.8959961 C8.80700684,32.8959961 7.4699707,32.8959961 8.80700684,32.8959961 L8.80700684,32.8959961" id="Shape" fill="rgb(169,183,209)"></path>
            <path d="M22.8070068,32.8959961 L27,32.8959961 C28.337,32.8959961 29.4200001,31.8119961 29.4200001,30.4749961 L29.4200001,22.7819963 C29.4200001,21.4449962 28.3370001,20.3619962 27,20.3619962 L22.8070002,20.3619962 C21.4700001,20.3619962 20.3870001,21.4449961 20.3870001,22.7819963 L20.3870001,30.4749961 C20.3870239,31.8120117 21.4699707,32.8959961 22.8070068,32.8959961 C22.8070068,32.8959961 21.4699707,32.8959961 22.8070068,32.8959961 L22.8070068,32.8959961" id="Shape" fill="rgb(169,183,209)"></path>
            <path d="M36.8070068,32.8959961 L41,32.8959961 C42.337,32.8959961 43.4200001,31.8119961 43.4200001,30.4749961 L43.4200001,2.7819953 C43.4200001,1.44499528 42.3370001,0.36199522 41,0.36199522 L36.8070002,0.36199522 C35.4700001,0.36199522 34.3870001,1.44499516 34.3870001,2.7819953 L34.3870001,30.4749961 C34.3870239,31.8120117 35.4699707,32.8959961 36.8070068,32.8959961 C36.8070068,32.8959961 35.4699707,32.8959961 36.8070068,32.8959961 L36.8070068,32.8959961" id="Shape" fill="rgb(169,183,209)"></path>
            <path d="M48.3120117,36.1879883 L2.41998291,36.1879883 C1.31898296,36.1879883 0.427982926,37.0799883 0.427982926,38.1799883 L0.427982926,38.3199883 C0.427982926,39.4209882 1.31998295,40.3119882 2.41998291,40.3119882 L48.3119812,40.3119882 C49.4119812,40.3119882 50.3039812,39.4199882 50.3039812,38.3199883 L50.3039812,38.1799883 C50.3040161,37.0799561 49.4110107,36.1879883 48.3120117,36.1879883 L48.3120117,36.1879883 L48.3120117,36.1879883" id="Shape" fill="rgb(169,183,209)"></path>
        </g>
    </g>
</svg>