<?xml version="1.0" encoding="UTF-8" standalone="no"?>
<svg width="60px" height="60px" viewBox="0 0 60 60" version="1.1" xmlns="http://www.w3.org/2000/svg" xmlns:xlink="http://www.w3.org/1999/xlink" xmlns:sketch="http://www.bohemiancoding.com/sketch/ns">
    <title>Slice 1</title>
    <description>Created with Sketch (http://www.bohemiancoding.com/sketch)</description>
    <defs></defs>
    <g id="Page-1" stroke="none" stroke-width="1" fill="none" fill-rule="evenodd" sketch:type="MSPage">
        <g id="charts" sketch:type="MSLayerGroup" transform="translate(1.000000, 0.000000)" fill="#000000">
            <g id="Page-1" sketch:type="MSShapeGroup">
                <g id="charts">
                    <g id="Page-1">
                        <g id="charts">
                            <g id="Page-1">
                                <g id="Group">
                                    <path d="M55.5771484,45.8056815 L19.851435,45.8056815 C18.4985778,45.8056815 17.4000065,48.8856815 17.4000065,52.6736817 C17.4000065,56.4616815 18.4985779,59.5376815 19.851435,59.5376815 L55.5771484,59.5376815 C56.9300056,59.5376815 58.028577,56.4616815 58.028577,52.6736817 C58.028577,48.8856818 56.9314314,45.8056815 55.5771484,45.8056815 L55.5771484,45.8056815" id="Shape"></path>
                                    <path d="M55.5771484,23.7842494 L19.851435,23.7842494 C18.4985778,23.7842494 17.4000065,26.8562495 17.4000065,30.6482495 C17.4000065,34.4402492 18.4985779,37.5082495 19.851435,37.5082495 L55.5771484,37.5082495 C56.9300056,37.5082495 58.028577,34.4402494 58.028577,30.6482495 C58.028577,26.8562492 56.9314314,23.7842494 55.5771484,23.7842494 L55.5771484,23.7842494" id="Shape"></path>
                                    <path d="M19.8528355,14.4880371 L55.578549,14.4880371 C56.9314062,14.4880371 58.0299775,11.4160371 58.0299775,7.62803696 C58.0299775,3.83603689 56.9314061,0.76003691 55.578549,0.76003691 L19.8528355,0.76003691 C18.4999783,0.76003691 17.401407,3.83603689 17.401407,7.62803696 C17.4014457,11.4199218 18.4985526,14.4880371 19.8528355,14.4880371 C19.8528355,14.4880371 18.4985526,14.4880371 19.8528355,14.4880371 L19.8528355,14.4880371" id="Shape"></path>
                                    <path d="M10.6863665,0.722830636 L2.95182071,0.722830636 C1.22818432,0.722830636 -0.169997488,2.11919428 -0.169997488,3.84101251 L-0.169997488,11.5791944 C-0.169997488,13.3010126 1.22818432,14.7010126 2.95182071,14.7010126 L10.6863665,14.7010126 C12.4100029,14.7010126 13.8081846,13.3010126 13.8081846,11.5791944 L13.8081846,3.84101251 C13.8082037,2.11742847 12.4099993,0.722830636 10.6863665,0.722830636 L10.6863665,0.722830636" id="Shape"></path>
                                    <path d="M10.6863665,23.7428676 L2.95182071,23.7428676 C1.22818432,23.7428676 -0.169997488,25.1428676 -0.169997488,26.8665041 L-0.169997488,34.6028679 C-0.169997488,36.3246862 1.22818432,37.7210497 2.95182071,37.7210497 L10.6863665,37.7210497 C12.4100029,37.7210497 13.8081846,36.3246862 13.8081846,34.6028679 L13.8081846,26.8665041 C13.8082037,25.1429031 12.4099993,23.7428676 10.6863665,23.7428676 L10.6863665,23.7428676" id="Shape"></path>
                                    <path d="M10.6863665,45.767177 L2.95182071,45.767177 C1.22818432,45.767177 -0.169997488,47.1635407 -0.169997488,48.887177 L-0.169997488,56.6235408 C-0.169997488,58.345359 1.22818432,59.7435408 2.95182071,59.7435408 L10.6863665,59.7435408 C12.4100029,59.7435408 13.8081846,58.3453589 13.8081846,56.6235408 L13.8081846,48.887177 C13.8082037,47.1616639 12.4099993,45.767177 10.6863665,45.767177 L10.6863665,45.767177" id="Shape"></path>
                                </g>
                            </g>
                        </g>
                    </g>
                </g>
            </g>
        </g>
    </g>
</svg>