<?xml version="1.0" encoding="UTF-8" standalone="no"?>
<!-- Created with Inkscape (http://www.inkscape.org/) -->

<svg
   xmlns:dc="http://purl.org/dc/elements/1.1/"
   xmlns:cc="http://creativecommons.org/ns#"
   xmlns:rdf="http://www.w3.org/1999/02/22-rdf-syntax-ns#"
   xmlns:svg="http://www.w3.org/2000/svg"
   xmlns="http://www.w3.org/2000/svg"
   xmlns:sodipodi="http://sodipodi.sourceforge.net/DTD/sodipodi-0.dtd"
   xmlns:inkscape="http://www.inkscape.org/namespaces/inkscape"
   id="svg2"
   version="1.1"
   inkscape:version="0.48.2 r9819"
   width="55"
   height="62.5"
   xml:space="preserve"
   sodipodi:docname="close.pdf"><metadata
     id="metadata8"><rdf:RDF><cc:Work
         rdf:about=""><dc:format>image/svg+xml</dc:format><dc:type
           rdf:resource="http://purl.org/dc/dcmitype/StillImage" /><dc:title></dc:title></cc:Work></rdf:RDF></metadata><defs
     id="defs6" /><sodipodi:namedview
     pagecolor="#ffffff"
     bordercolor="#666666"
     borderopacity="1"
     objecttolerance="10"
     gridtolerance="10"
     guidetolerance="10"
     inkscape:pageopacity="0"
     inkscape:pageshadow="2"
     inkscape:window-width="640"
     inkscape:window-height="480"
     id="namedview4"
     showgrid="false"
     inkscape:zoom="4.602"
     inkscape:cx="27.5"
     inkscape:cy="31.25"
     inkscape:window-x="0"
     inkscape:window-y="0"
     inkscape:window-maximized="0"
     inkscape:current-layer="g10" /><g
     id="g10"
     inkscape:groupmode="layer"
     inkscape:label="close"
     transform="matrix(1.25,0,0,-1.25,0,62.5)"><g
       id="g12" /><g
       id="g14"><path
         d="m 3.354004,32.02795 37.160996,0 c 1.156,0 2.216,-0.649 2.741,-1.681 0.227,-0.439 0.337,-0.919 0.337,-1.397 0,-0.637 -0.2,-1.274 -0.589,-1.808 L 24.422,1.559953 c -0.579,-0.7989996 -1.505,-1.2689996 -2.49,-1.2689996 -0.985,0 -1.911,0.472 -2.489,1.2689996 L 0.862003,27.14195 c -0.68,0.935 -0.77500001,2.178 -0.251,3.205 0.524983,1.03208 1.586018,1.681 2.743001,1.681 0,0 -1.156983,0 0,0 l 0,0"
         style="fill:#656565;fill-opacity:1;fill-rule:evenodd;stroke:none"
         id="path16" /><path
         d="m 42.10602,38.146 -39.919001,0 c -0.947,0 -1.7149997,0.768 -1.7149997,1.716 l 0,7.767 c 0,0.948 0.7679997,1.716 1.7149997,1.716 l 39.919001,0 c 0.948,0 1.716,-0.768 1.716,-1.716 l 0,-7.767 c 0,-0.94806 -0.76703,-1.716 -1.716,-1.716 l 0,0 0,0"
         style="fill:#656565;fill-opacity:1;fill-rule:evenodd;stroke:none"
         id="path18" /></g></g></svg>