<?xml version="1.0" encoding="UTF-8" standalone="no"?>
<svg width="45px" height="45px" viewBox="0 0 45 45" version="1.1" xmlns="http://www.w3.org/2000/svg" xmlns:xlink="http://www.w3.org/1999/xlink" xmlns:sketch="http://www.bohemiancoding.com/sketch/ns">
    <title>Slice 1</title>
    <description>Created with Sketch (http://www.bohemiancoding.com/sketch)</description>
    <defs></defs>
    <g id="Page-1" stroke="none" stroke-width="1" fill="none" fill-rule="evenodd" sketch:type="MSPage">
        <g id="closed-padlock" sketch:type="MSLayerGroup" transform="translate(5.000000, 1.000000)">
            <g id="Page-1" sketch:type="MSShapeGroup">
                <g id="Group">
                    <path d="M30.8569946,16.8280029 L28.4989946,16.8280029 C28.5089946,16.7290029 28.5289946,16.6340029 28.5289946,16.5330029 L28.5289946,11.4480029 C28.5289946,4.9580031 23.2489944,-0.322997 16.7589941,-0.322997 C10.2689939,-0.322997 4.9899941,4.9570032 4.9899941,11.4480029 L4.9899941,16.5330029 C4.9899941,16.6340029 5.0099941,16.7290029 5.0199941,16.8280029 L3.628994,16.8280029 C1.464994,16.8280029 -0.29600591,18.5900029 -0.29600591,20.7530029 L-0.29600591,39.4710033 C-0.29600591,41.6360033 1.4649941,43.3970034 3.628994,43.3970034 L30.8569947,43.3970034 C33.0209947,43.3970034 34.7819946,41.6360034 34.7819946,39.4710033 L34.7819946,20.7530029 C34.7820129,18.5899658 33.0209961,16.8280029 30.8569946,16.8280029 L30.8569946,16.8280029 M10.9979858,16.532959 L10.9979858,11.4479589 C10.9979858,8.269959 13.581986,5.6849589 16.758986,5.6849589 C19.935986,5.6849589 22.5209861,8.269959 22.5209861,11.4479589 L22.5209861,16.532959 C22.5209861,16.633959 22.5409861,16.728959 22.5509861,16.827959 L10.9679859,16.827959 C10.9779968,16.7290039 10.9979858,16.6340332 10.9979858,16.532959 C10.9979858,16.532959 10.9979858,16.6340332 10.9979858,16.532959 L10.9979858,16.532959" id="Shape" fill="#000000"></path>
                    <path d="M17.2420044,29.1169434 C16.0000044,29.1169434 14.9940045,30.1239433 14.9940045,31.3649433 L14.9940045,35.6949432 L19.4920046,35.6949432 L19.4920046,31.3649433 C19.4920044,30.1240234 18.4849854,29.1169434 17.2420044,29.1169434 L17.2420044,29.1169434" id="Shape" fill="#FFFFFF"></path>
                </g>
            </g>
        </g>
    </g>
</svg>