<?xml version="1.0" encoding="UTF-8" standalone="no"?>
<svg width="44px" height="50px" version="1.1" xmlns="http://www.w3.org/2000/svg" xmlns:xlink="http://www.w3.org/1999/xlink" xmlns:sketch="http://www.bohemiancoding.com/sketch/ns">
    <title>close</title>
    <description>Created with Sketch (http://www.bohemiancoding.com/sketch)</description>
    <defs></defs>
    <g id="Page 1" fill="rgb(223,223,223)" fill-rule="evenodd">
        <g id="Group" fill="rgb(0,0,0)">
            <path d="M3.35400391,49.7090466 L40.5150032,49.7090466 C41.6710032,49.7090466 42.7310033,49.0600466 43.2560031,48.0280466 C43.4830031,47.5890466 43.5930032,47.1090466 43.5930032,46.6310467 C43.5930032,45.9940466 43.3930032,45.3570466 43.0040032,44.8230467 L24.4220024,19.241046 C23.8430024,18.4420459 22.9170024,17.9720459 21.9320024,17.9720459 C20.9470024,17.9720459 20.0210024,18.4440459 19.4430023,19.241046 L0.862002969,44.8230467 C0.182002962,45.7580467 0.0870029926,47.0010467 0.611002982,48.0280466 C1.13598633,49.0601208 2.19702148,49.7090466 3.35400391,49.7090466 C3.35400391,49.7090466 2.19702148,49.7090466 3.35400391,49.7090466 L3.35400391,49.7090466" id="Shape" fill="rgb(100,100,100)"></path>
            <path d="M42.1060181,0.655003786 L2.18701935,0.655003786 C1.24001932,0.655003786 0.472019315,1.42300379 0.472019315,2.37100375 L0.472019315,10.1380039 C0.472019315,11.086004 1.24001932,11.8540039 2.18701935,11.8540039 L42.1060181,11.8540039 C43.0540181,11.8540039 43.822018,11.0860039 43.822018,10.1380039 L43.822018,2.37100375 C43.8220215,1.42294812 43.0549927,0.655003786 42.1060181,0.655003786 L42.1060181,0.655003786 L42.1060181,0.655003786" id="Shape" fill="rgb(100,100,100)"></path>
        </g>
    </g>
</svg>