<?xml version="1.0" encoding="UTF-8" standalone="no"?>
<svg width="52px" height="52px" version="1.1" xmlns="http://www.w3.org/2000/svg" xmlns:xlink="http://www.w3.org/1999/xlink" xmlns:sketch="http://www.bohemiancoding.com/sketch/ns">
    <title>closed-padlock</title>
    <description>Created with Sketch (http://www.bohemiancoding.com/sketch)</description>
    <defs></defs>
    <g id="Page 1" fill="rgb(223,223,223)" fill-rule="evenodd">
        <g id="Group" fill="rgb(0,0,0)">
            <path d="M39.8569946,23.8280029 L37.4989946,23.8280029 C37.5089946,23.7290029 37.5289946,23.6340029 37.5289946,23.5330029 L37.5289946,18.4480029 C37.5289946,11.9580031 32.2489944,6.677003 25.7589941,6.677003 C19.2689939,6.677003 13.9899941,11.9570032 13.9899941,18.4480029 L13.9899941,23.5330029 C13.9899941,23.6340029 14.0099941,23.7290029 14.0199941,23.8280029 L12.628994,23.8280029 C10.464994,23.8280029 8.70399409,25.5900029 8.70399409,27.7530029 L8.70399409,46.4710033 C8.70399409,48.6360033 10.4649941,50.3970034 12.628994,50.3970034 L39.8569947,50.3970034 C42.0209947,50.3970034 43.7819946,48.6360034 43.7819946,46.4710033 L43.7819946,27.7530029 C43.7820129,25.5899658 42.0209961,23.8280029 39.8569946,23.8280029 L39.8569946,23.8280029 L39.8569946,23.8280029 M19.9979858,23.532959 L19.9979858,18.4479589 C19.9979858,15.269959 22.581986,12.6849589 25.758986,12.6849589 C28.935986,12.6849589 31.5209861,15.269959 31.5209861,18.4479589 L31.5209861,23.532959 C31.5209861,23.633959 31.5409861,23.728959 31.5509861,23.827959 L19.9679859,23.827959 C19.9779968,23.7290039 19.9979858,23.6340332 19.9979858,23.532959 C19.9979858,23.532959 19.9979858,23.6340332 19.9979858,23.532959 L19.9979858,23.532959" id="Shape" fill="rgb(103,103,103)"></path>
            <path d="M26.2420044,36.1169434 C25.0000044,36.1169434 23.9940045,37.1239433 23.9940045,38.3649433 L23.9940045,42.6949432 L28.4920046,42.6949432 L28.4920046,38.3649433 C28.4920044,37.1240234 27.4849854,36.1169434 26.2420044,36.1169434 L26.2420044,36.1169434 L26.2420044,36.1169434" id="Shape" fill="rgb(255,255,255)"></path>
        </g>
    </g>
</svg>