<?xml version="1.0" encoding="UTF-8" standalone="no"?>
<!-- Created with Inkscape (http://www.inkscape.org/) -->

<svg
   xmlns:dc="http://purl.org/dc/elements/1.1/"
   xmlns:cc="http://creativecommons.org/ns#"
   xmlns:rdf="http://www.w3.org/1999/02/22-rdf-syntax-ns#"
   xmlns:svg="http://www.w3.org/2000/svg"
   xmlns="http://www.w3.org/2000/svg"
   xmlns:sodipodi="http://sodipodi.sourceforge.net/DTD/sodipodi-0.dtd"
   xmlns:inkscape="http://www.inkscape.org/namespaces/inkscape"
   id="svg2"
   version="1.1"
   inkscape:version="0.48.2 r9819"
   width="82.5"
   height="82.5"
   xml:space="preserve"
   sodipodi:docname="collection.pdf"><metadata
     id="metadata8"><rdf:RDF><cc:Work
         rdf:about=""><dc:format>image/svg+xml</dc:format><dc:type
           rdf:resource="http://purl.org/dc/dcmitype/StillImage" /><dc:title></dc:title></cc:Work></rdf:RDF></metadata><defs
     id="defs6" /><sodipodi:namedview
     pagecolor="#ffffff"
     bordercolor="#666666"
     borderopacity="1"
     objecttolerance="10"
     gridtolerance="10"
     guidetolerance="10"
     inkscape:pageopacity="0"
     inkscape:pageshadow="2"
     inkscape:window-width="640"
     inkscape:window-height="480"
     id="namedview4"
     showgrid="false"
     inkscape:zoom="3.4863636"
     inkscape:cx="41.25"
     inkscape:cy="41.25"
     inkscape:window-x="0"
     inkscape:window-y="0"
     inkscape:window-maximized="0"
     inkscape:current-layer="g10" /><g
     id="g10"
     inkscape:groupmode="layer"
     inkscape:label="collection"
     transform="matrix(1.25,0,0,-1.25,0,82.5)"><g
       id="g12" /><g
       id="g14"><path
         d="m 14.5,55 36.60875,0 c 0.965,0 1.7475,-0.7825 1.7475,-1.7475 l 0,-2.94875 c 0,-0.96625 -0.7825,-1.74875 -1.7475,-1.74875 l -36.60875,0 c -0.965,0 -1.74875,0.7825 -1.74875,1.74875 l 0,2.94875 C 12.75125,54.2175 13.535,55 14.5,55"
         style="fill:#b0bac7;fill-opacity:1;fill-rule:evenodd;stroke:none"
         id="path16" /><path
         d="m 14.5,32 36.60875,0 c 0.965,0 1.7475,-0.7825 1.7475,-1.7475 l 0,-2.94875 c 0,-0.96625 -0.7825,-1.74875 -1.7475,-1.74875 l -36.60875,0 c -0.965,0 -1.74875,0.7825 -1.74875,1.74875 l 0,2.94875 C 12.75125,31.2175 13.535,32 14.5,32"
         style="fill:#aeb8c6;fill-opacity:1;fill-rule:evenodd;stroke:none"
         id="path18" /><path
         d="m 14.5,20 36.60875,0 c 0.965,0 1.7475,-0.7825 1.7475,-1.7475 l 0,-2.94875 c 0,-0.96625 -0.7825,-1.74875 -1.7475,-1.74875 l -36.60875,0 c -0.965,0 -1.74875,0.7825 -1.74875,1.74875 l 0,2.94875 C 12.75125,19.2175 13.535,20 14.5,20"
         style="fill:#aeb8c6;fill-opacity:1;fill-rule:evenodd;stroke:none"
         id="path20" /><path
         d="m 14.5,44 36.60875,0 c 0.965,0 1.7475,-0.7825 1.7475,-1.7475 l 0,-2.94875 c 0,-0.96625 -0.7825,-1.74875 -1.7475,-1.74875 l -36.60875,0 c -0.965,0 -1.74875,0.7825 -1.74875,1.74875 l 0,2.94875 C 12.75125,43.2175 13.535,44 14.5,44"
         style="fill:#aeb8c6;fill-opacity:1;fill-rule:evenodd;stroke:none"
         id="path22" /><path
         d="m 61,31 c -1.6925,0 -3.0575,-1.36875 -3.0575,-3.05875 l 0,-19.79 -50.1475,0 0,19.79 C 7.795,29.63125 6.42375,31 4.735,31 3.04625,31 1.67625,29.63125 1.67625,27.94125 l 0,-22.850001 c 0,-1.69 1.37,-3.06 3.05875,-3.06 l 56.265,0 c 1.69,0 3.05875,1.37 3.05875,3.06 l 0,22.850001 C 64.05875,29.63125 62.69,31 61,31"
         style="fill:#9ea9ba;fill-opacity:1;fill-rule:evenodd;stroke:none"
         id="path24" /></g></g></svg>