<?xml version="1.0" encoding="UTF-8" standalone="no"?>
<svg width="74px" height="68px" version="1.1" xmlns="http://www.w3.org/2000/svg" xmlns:xlink="http://www.w3.org/1999/xlink" xmlns:sketch="http://www.bohemiancoding.com/sketch/ns">
    <title>collection</title>
    <description>Created with Sketch (http://www.bohemiancoding.com/sketch)</description>
    <defs>
        <radialGradient cx="48.2475281%" cy="50%" fx="48.2475281%" fy="50%" r="81.9925606%" id="radialGradient-1">
            <stop stop-color="rgb(83,102,136)" offset="0%"></stop>
            <stop stop-color="rgb(0,0,0)" offset="100%"></stop>
        </radialGradient>
        <path d="M18.0049167,0 L56.9950833,0 C58.6532394,0 60,1.34389141 60,3.00166547 L60,4.99833453 C60,6.66097987 58.654653,8 56.9950833,8 L18.0049167,8 C16.3467606,8 15,6.65610859 15,4.99833453 L15,3.00166547 C15,1.33902013 16.345347,0 18.0049167,0 Z M17.5049167,15 L56.4950833,15 C58.1532394,15 59.5,16.3438914 59.5,18.0016655 L59.5,19.9983345 C59.5,21.6609799 58.154653,23 56.4950833,23 L17.5049167,23 C15.8467606,23 14.5,21.6561086 14.5,19.9983345 L14.5,18.0016655 C14.5,16.3390201 15.845347,15 17.5049167,15 Z M18.0049167,30 L56.9950833,30 C58.6532394,30 60,31.3438914 60,33.0016655 L60,34.9983345 C60,36.6609799 58.654653,38 56.9950833,38 L18.0049167,38 C16.3467606,38 15,36.6561086 15,34.9983345 L15,33.0016655 C15,31.3390201 16.345347,30 18.0049167,30 Z M17.4772685,45 L56.4674351,45 C58.1255911,45 59.4723518,46.3438914 59.4723518,48.0016655 L59.4723518,49.9983345 C59.4723518,51.6609799 58.1270047,53 56.4674351,53 L17.4772685,53 C15.8191124,53 14.4723518,51.6561086 14.4723518,49.9983345 L14.4723518,48.0016655 C14.4723518,46.3390201 15.8176988,45 17.4772685,45 Z M8.05129913,60 L65.9487009,60 L65.9487009,34.999854 C65.9487009,33.3499755 67.2897874,32 68.9441015,32 L70.5322476,32 C72.1901307,32 73.5276482,33.3430804 73.5276482,34.999854 L73.5276482,64.5444498 C73.5276482,65.4958702 73.0816863,66.3475616 72.3868662,66.8981603 C71.8693265,67.3237633 71.2063342,67.5789474 70.4835672,67.5789474 L3.51643275,67.5789474 C2.87373094,67.5789474 2.27755463,67.3758914 1.78900862,67.0303375 C0.993762261,66.4910318 0.472351765,65.5788851 0.472351765,64.5444498 L0.472351765,34.999854 C0.472351765,33.3499755 1.81343833,32 3.46775245,32 L5.05589845,32 C6.71378156,32 8.05129913,33.3430804 8.05129913,34.999854 Z M8.05129913,60" id="path-2"></path>
    </defs>
    <g id="Page 1" fill="rgb(215,215,215)" fill-rule="evenodd">
        <use id="Rectangle 1" fill="url(#radialGradient-1)" xlink:href="#path-2"></use>
        <use id="Rectangle 1-1" stroke="none" fill="none" xlink:href="#path-2"></use>
    </g>
</svg>