<?xml version="1.0" encoding="UTF-8" standalone="no"?>
<svg width="78px" height="72px" version="1.1" xmlns="http://www.w3.org/2000/svg" xmlns:xlink="http://www.w3.org/1999/xlink" xmlns:sketch="http://www.bohemiancoding.com/sketch/ns">
    <title>collection</title>
    <description>Created with Sketch (http://www.bohemiancoding.com/sketch)</description>
    <defs>
        <radialGradient cx="48.2475281%" cy="50%" fx="48.2475281%" fy="50%" r="81.9925606%" id="radialGradient-1">
            <stop stop-color="rgb(152,169,199)" offset="0%"></stop>
            <stop stop-color="rgb(0,0,0)" offset="100%"></stop>
        </radialGradient>
        <path d="M20.0049167,2 L58.9950833,2 C60.6532394,2 62,3.34389141 62,5.00166547 L62,6.99833453 C62,8.66097987 60.654653,10 58.9950833,10 L20.0049167,10 C18.3467606,10 17,8.65610859 17,6.99833453 L17,5.00166547 C17,3.33902013 18.345347,2 20.0049167,2 Z M19.5049167,17 L58.4950833,17 C60.1532394,17 61.5,18.3438914 61.5,20.0016655 L61.5,21.9983345 C61.5,23.6609799 60.154653,25 58.4950833,25 L19.5049167,25 C17.8467606,25 16.5,23.6561086 16.5,21.9983345 L16.5,20.0016655 C16.5,18.3390201 17.845347,17 19.5049167,17 Z M20.0049167,32 L58.9950833,32 C60.6532394,32 62,33.3438914 62,35.0016655 L62,36.9983345 C62,38.6609799 60.654653,40 58.9950833,40 L20.0049167,40 C18.3467606,40 17,38.6561086 17,36.9983345 L17,35.0016655 C17,33.3390201 18.345347,32 20.0049167,32 Z M19.4772685,47 L58.4674351,47 C60.1255911,47 61.4723518,48.3438914 61.4723518,50.0016655 L61.4723518,51.9983345 C61.4723518,53.6609799 60.1270047,55 58.4674351,55 L19.4772685,55 C17.8191124,55 16.4723518,53.6561086 16.4723518,51.9983345 L16.4723518,50.0016655 C16.4723518,48.3390201 17.8176988,47 19.4772685,47 Z M10.0512991,62 L67.9487009,62 L67.9487009,36.999854 C67.9487009,35.3499755 69.2897874,34 70.9441015,34 L72.5322476,34 C74.1901307,34 75.5276482,35.3430804 75.5276482,36.999854 L75.5276482,66.5444498 C75.5276482,67.4958702 75.0816863,68.3475616 74.3868662,68.8981603 C73.8693265,69.3237633 73.2063342,69.5789474 72.4835672,69.5789474 L5.51643275,69.5789474 C4.87373094,69.5789474 4.27755463,69.3758914 3.78900862,69.0303375 C2.99376226,68.4910318 2.47235177,67.5788851 2.47235177,66.5444498 L2.47235177,36.999854 C2.47235177,35.3499755 3.81343833,34 5.46775245,34 L7.05589845,34 C8.71378156,34 10.0512991,35.3430804 10.0512991,36.999854 Z M10.0512991,62" id="path-2"></path>
    </defs>
    <g id="Page 1" fill="rgb(215,215,215)" fill-rule="evenodd">
        <use id="Rectangle 1" stroke="rgb(254,255,254)" stroke-width="2" fill="url(#radialGradient-1)" xlink:href="#path-2"></use>
        <use id="Rectangle 1-1" stroke="none" fill="none" xlink:href="#path-2"></use>
    </g>
</svg>