<?xml version="1.0" encoding="UTF-8" standalone="no"?>
<svg width="66px" height="66px" version="1.1" xmlns="http://www.w3.org/2000/svg" xmlns:xlink="http://www.w3.org/1999/xlink" xmlns:sketch="http://www.bohemiancoding.com/sketch/ns">
    <title>collection</title>
    <description>Created with Sketch (http://www.bohemiancoding.com/sketch)</description>
    <defs></defs>
    <g id="Page 1" fill="rgb(223,223,223)" fill-rule="evenodd">
        <g id="g442" fill="rgb(174,183,198)">
            <path d="M16.5,11 L53.1087508,11 C54.0737508,11 54.8562508,11.7825 54.8562508,12.7475 L54.8562508,15.69625 C54.8562508,16.6625 54.0737508,17.445 53.1087508,17.445 L16.5,17.4450002 C15.535,17.4450002 14.7512499,16.6625002 14.7512499,15.6962501 L14.7512499,12.7475002 C14.7512499,11.7825 15.535,11 16.5,11" id="path444" fill="rgb(175,185,199)"></path>
        </g>
        <g id="g442" fill="rgb(0,0,0)">
            <path d="M16.5,34 L53.1087508,34 C54.0737508,34 54.8562508,34.7825 54.8562508,35.7475 L54.8562508,38.69625 C54.8562508,39.6625 54.0737508,40.445 53.1087508,40.445 L16.5,40.4450002 C15.535,40.4450002 14.7512499,39.6625002 14.7512499,38.6962501 L14.7512499,35.7475002 C14.7512499,34.7825 15.535,34 16.5,34" id="path444" fill="rgb(174,183,198)"></path>
        </g>
        <g id="g442" fill="rgb(0,0,0)">
            <path d="M16.5,46 L53.1087508,46 C54.0737508,46 54.8562508,46.7825 54.8562508,47.7475 L54.8562508,50.69625 C54.8562508,51.6625 54.0737508,52.445 53.1087508,52.445 L16.5,52.4450002 C15.535,52.4450002 14.7512499,51.6625002 14.7512499,50.6962501 L14.7512499,47.7475002 C14.7512499,46.7825 15.535,46 16.5,46" id="path444" fill="rgb(174,183,198)"></path>
        </g>
        <g id="g442" fill="rgb(175,185,199)">
            <path d="M16.5,22 L53.1087508,22 C54.0737508,22 54.8562508,22.7825 54.8562508,23.7475 L54.8562508,26.69625 C54.8562508,27.6625 54.0737508,28.445 53.1087508,28.445 L16.5,28.4450002 C15.535,28.4450002 14.7512499,27.6625002 14.7512499,26.6962501 L14.7512499,23.7475002 C14.7512499,22.7825 15.535,22 16.5,22" id="path444" fill="rgb(189,198,209)"></path>
        </g>
        <g id="g438" fill="rgb(0,0,0)">
            <path d="M62,63.9687508 C60.3075,63.9687508 58.9424999,62.6000008 58.9424999,60.9100008 L58.9424999,41.1200011 L8.79499984,41.1200011 L8.79499984,60.9100008 C8.79499984,62.6000008 7.42374983,63.9687508 5.7349999,63.9687508 C4.04624996,63.9687508 2.67624986,62.6000008 2.67624986,60.9100008 L2.67624986,38.0599999 C2.67624986,36.3699999 4.04624981,35 5.7349999,35 L62.0000012,35 C63.6900012,35 65.0587512,36.3699999 65.0587512,38.0599999 L65.0587512,60.9100008 C65.05875,62.6000008 63.69,63.9687508 62,63.9687508" id="path440" fill="rgb(158,168,186)"></path>
        </g>
    </g>
</svg>