<?xml version="1.0" encoding="UTF-8" standalone="no"?>
<svg width="60px" height="60px" viewBox="0 0 60 60" version="1.1" xmlns="http://www.w3.org/2000/svg" xmlns:xlink="http://www.w3.org/1999/xlink" xmlns:sketch="http://www.bohemiancoding.com/sketch/ns">
    <title>Slice 1</title>
    <description>Created with Sketch (http://www.bohemiancoding.com/sketch)</description>
    <defs></defs>
    <g id="Page-1" stroke="none" stroke-width="1" fill="none" fill-rule="evenodd" sketch:type="MSPage">
        <g id="configure" sketch:type="MSLayerGroup" transform="translate(-9.000000, 2.000000)" fill="#000000">
            <g id="Page-1" sketch:type="MSShapeGroup">
                <g id="configure" transform="translate(36.683514, 29.785804) rotate(45.000000) translate(-36.683514, -29.785804) translate(19.901908, -4.934758)">
                    <g id="Page-1" transform="translate(-0.000000, 0.000000)">
                        <path d="M34.0914661,13.9310752 C34.0914661,8.39704265 31.2604823,3.25131382 26.5193138,0.164726693 C26.2084893,-0.0350936954 25.8130271,-0.0549340156 25.4846913,0.115125889 C25.1548963,0.285185774 24.9520578,0.616802592 24.9505985,0.976762683 L24.9505985,2.32873887 L24.9505985,8.40838022 L24.9505985,10.8388197 L21.1185556,16.507483 L12.9729106,16.507483 L9.1408676,10.8388197 L9.1408676,0.976762513 C9.1408676,0.616802379 8.9365698,0.285185576 8.6082339,0.115125719 C8.28135741,-0.05493418 7.88443611,-0.0336766912 7.57361159,0.164726523 C2.82952473,3.25131365 0,8.39704282 0,13.931075 C0,20.5917541 6.90964373,25.7502382 9.75230175,27.5883022 L7.45395131,60.0130551 C7.45395131,65.1502813 11.7573385,69.3295031 17.0471923,69.3295031 C22.3370462,69.3295031 26.6404333,65.1502813 26.6389742,59.9450306 L24.3406238,27.5882995 C27.1818217,25.7503627 34.0914661,20.5906474 34.0914661,13.9310752 C34.0914661,13.9310752 34.0914661,20.5906474 34.0914661,13.9310752 L34.0914661,13.9310752 M19.395159,60.0131837 C19.3936997,61.2744613 18.341566,62.2905692 17.0457341,62.2905692 C15.7484432,62.289152 14.7006873,61.2702098 14.6977687,60.0131837 C14.6977687,58.7519061 15.7484432,57.7329639 17.0457341,57.7301297 C18.3415657,57.7331244 19.3936893,58.7520583 19.395159,60.0131837 C19.3966174,60.0131837 19.3936893,60.0131837 19.395159,60.0131837 C19.395159,60.0131837 19.3936893,60.0131837 19.395159,60.0131837 L19.395159,60.0131837" id="Shape"></path>
                    </g>
                </g>
            </g>
        </g>
    </g>
</svg>