<?xml version="1.0" encoding="UTF-8" standalone="no"?>
<svg width="51px" height="50px" version="1.1" xmlns="http://www.w3.org/2000/svg" xmlns:xlink="http://www.w3.org/1999/xlink" xmlns:sketch="http://www.bohemiancoding.com/sketch/ns">
    <title>configure</title>
    <description>Created with Sketch (http://www.bohemiancoding.com/sketch)</description>
    <defs></defs>
    <g id="Page 1" fill="rgb(223,223,223)" fill-rule="evenodd">
        <path d="M38.3619998,9.83023646 C38.3619998,5.92523648 36.4219998,2.29423668 33.1729997,0.116236707 C32.9599997,-0.0247632954 32.6889997,-0.038763294 32.4639997,0.081236707 C32.2379997,0.201236704 32.0989997,0.435236709 32.0979997,0.689236687 L32.0979997,1.64323668 L32.0979997,5.93323665 L32.0979997,7.64823668 L29.4719998,11.6482367 L23.89,11.6482367 L21.2640001,7.64823668 L21.2640001,0.689236568 C21.2640001,0.43523656 21.1240001,0.201236563 20.899,0.0812365878 C20.675,-0.0387634095 20.4030001,-0.0237634089 20.1900001,0.116236588 C16.9390001,2.29423656 15,5.9252366 15,9.83023634 C15,14.5302361 19.7350001,18.1702365 21.6830001,19.4672364 L20.108,42.3472356 C20.108,45.9722356 23.0569999,48.9212355 26.6819999,48.9212355 C30.3069999,48.9212355 33.2559998,45.9722356 33.2549999,42.2992352 L31.6799998,19.4672345 C33.6269992,18.1703243 38.3619998,14.5294552 38.3619998,9.83023646 C38.3619998,9.83023646 38.3619998,14.5294552 38.3619998,9.83023646 L38.3619998,9.83023646 M28.2910007,42.3473263 C28.2900007,43.2373263 27.5690007,43.9543263 26.6810006,43.9543263 C25.7920007,43.9533263 25.0740007,43.2343263 25.0720007,42.3473263 C25.0720007,41.4573263 25.7920007,40.7383263 26.6810006,40.7363264 C27.5690005,40.7384396 28.2899936,41.4574337 28.2910007,42.3473263 C28.2920001,42.3473263 28.2899936,42.3473263 28.2910007,42.3473263 C28.2910007,42.3473263 28.2899936,42.3473263 28.2910007,42.3473263 L28.2910007,42.3473263" id="Shape" fill="rgb(69,74,83)"></path>
    </g>
</svg>