<?xml version="1.0" encoding="UTF-8" standalone="no"?>
<svg width="50px" height="50px" version="1.1" xmlns="http://www.w3.org/2000/svg" xmlns:xlink="http://www.w3.org/1999/xlink" xmlns:sketch="http://www.bohemiancoding.com/sketch/ns">
    <title>configure</title>
    <description>Created with Sketch (http://www.bohemiancoding.com/sketch)</description>
    <defs>
        <linearGradient x1="50%" y1="0%" x2="50%" y2="173.920641%" id="linearGradient-1">
            <stop stop-color="rgb(123,125,121)" offset="0%"></stop>
            <stop stop-color="rgb(0,0,0)" offset="100%"></stop>
        </linearGradient>
    </defs>
    <g id="Page 1" fill="rgb(215,215,215)" fill-rule="evenodd">
        <path d="M36.3619998,10.8302365 C36.3619998,6.92523648 34.4219998,3.29423668 31.1729997,1.11623671 C30.9599997,0.975236705 30.6889997,0.961236706 30.4639997,1.08123671 C30.2379997,1.2012367 30.0989997,1.43523671 30.0979997,1.68923669 L30.0979997,2.64323668 L30.0979997,6.93323665 L30.0979997,8.64823668 L27.4719998,12.6482367 L21.89,12.6482367 L19.2640001,8.64823668 L19.2640001,1.68923657 C19.2640001,1.43523656 19.1240001,1.20123656 18.899,1.08123659 C18.675,0.96123659 18.4030001,0.976236591 18.1900001,1.11623659 C14.9390001,3.29423656 13,6.9252366 13,10.8302363 C13,15.5302361 17.7350001,19.1702365 19.6830001,20.4672364 L18.108,43.3472356 C18.108,46.9722356 21.0569999,49.9212355 24.6819999,49.9212355 C28.3069999,49.9212355 31.2559998,46.9722356 31.2549999,43.2992352 L29.6799998,20.4672345 C31.6269992,19.1703243 36.3619998,15.5294552 36.3619998,10.8302365 C36.3619998,10.8302365 36.3619998,15.5294552 36.3619998,10.8302365 L36.3619998,10.8302365 M26.2910007,43.3473263 C26.2900007,44.2373263 25.5690007,44.9543263 24.6810006,44.9543263 C23.7920007,44.9533263 23.0740007,44.2343263 23.0720007,43.3473263 C23.0720007,42.4573263 23.7920007,41.7383263 24.6810006,41.7363264 C25.5690005,41.7384396 26.2899936,42.4574337 26.2910007,43.3473263 C26.2920001,43.3473263 26.2899936,43.3473263 26.2910007,43.3473263 C26.2910007,43.3473263 26.2899936,43.3473263 26.2910007,43.3473263 L26.2910007,43.3473263" id="Shape" fill="url(#linearGradient-1)"></path>
    </g>
</svg>