<?xml version="1.0" encoding="UTF-8" standalone="no"?>
<svg width="66px" height="66px" viewBox="0 0 66 66" version="1.1" xmlns="http://www.w3.org/2000/svg" xmlns:xlink="http://www.w3.org/1999/xlink" xmlns:sketch="http://www.bohemiancoding.com/sketch/ns">
    <title>copy</title>
    <description>Created with Sketch (http://www.bohemiancoding.com/sketch)</description>
    <defs></defs>
    <g id="Page-1" stroke="none" stroke-width="1" fill="none" fill-rule="evenodd" sketch:type="MSPage">
        <g id="link35" sketch:type="MSLayerGroup" transform="translate(1.000000, 1.000000)" fill="#000000">
            <g id="Group" sketch:type="MSShapeGroup">
                <path d="M27.1891064,27.1894468 C27.7334468,26.644766 28.4595745,26.3451915 29.2333617,26.3451915 C30.0071489,26.3451915 30.7332766,26.6451064 31.277617,27.1894468 L36.8105532,32.722383 C37.0022128,32.9137021 37.2619574,33.021617 37.5325957,33.021617 C37.803234,33.021617 38.0633191,32.9140426 38.2546383,32.722383 L43.7875745,27.1894468 C43.979234,26.9981277 44.0868085,26.7380426 44.0868085,26.4674043 C44.0868085,26.196766 43.979234,25.9366809 43.7875745,25.7453617 L38.2546383,20.2124255 C35.8440851,17.8025532 32.64,16.4755745 29.2330213,16.4755745 C25.8260426,16.4755745 22.6219574,17.8025532 20.2114043,20.2120851 L3.61191489,36.8115745 C1.2013617,39.2221277 -0.126297872,42.4265532 -0.126297872,45.8345532 C-0.126297872,49.2428936 1.2013617,52.4462979 3.61225532,54.8551489 L9.14485106,60.3877447 C11.5533617,62.7982979 14.7571064,64.1259574 18.1651064,64.1259574 C21.5731064,64.1259574 24.7775319,62.7982979 27.1884255,60.3877447 L36.5426383,51.0335319 C36.8435745,50.7325957 36.9262979,50.276766 36.7506383,49.8893617 C36.5841702,49.5227234 36.219234,49.2902128 35.8209362,49.2902128 C35.7981277,49.2902128 35.7756596,49.2908936 35.7525106,49.2925957 C35.4233191,49.3147234 35.0897021,49.325617 34.7605106,49.325617 C32.162383,49.325617 29.6071489,48.6348936 27.3715745,47.328 C27.2108936,47.2340426 27.0331915,47.1884255 26.8565106,47.1884255 C26.5923404,47.1884255 26.3308936,47.2908936 26.1341277,47.4876596 L20.2114043,53.410383 C19.6660426,53.9557447 18.9402553,54.2563404 18.1674894,54.2563404 C17.394383,54.2563404 16.6679149,53.9560851 16.1225532,53.410383 L10.589617,47.8774468 C10.0435745,47.332766 9.74297872,46.608 9.74229787,45.8362553 C9.74195745,45.0628085 10.0425532,44.3356596 10.589617,43.7885957 L27.1891064,27.1894468 L27.1891064,27.1894468 Z" id="Shape"></path>
                <path d="M60.3874043,9.14382979 L54.8544681,3.61089362 C52.445617,1.2013617 49.2422128,-0.125957447 45.8342128,-0.125957447 C42.4262128,-0.125957447 39.2217872,1.20102128 36.811234,3.61055319 L27.4566809,12.9688511 C27.1557447,13.2697872 27.0730213,13.7259574 27.2490213,14.1133617 C27.4154894,14.4796596 27.7804255,14.7121702 28.178383,14.7121702 C28.2011915,14.7121702 28.2243404,14.7114894 28.2474894,14.7097872 C28.5797447,14.6873191 28.9164255,14.6760851 29.2486809,14.6760851 C31.8519149,14.6760851 34.4013617,15.3664681 36.621617,16.6726809 C36.7829787,16.7676596 36.9617021,16.813617 37.1390638,16.813617 C37.403234,16.813617 37.6646809,16.7111489 37.8614468,16.514383 L43.7882553,10.5875745 C44.3325957,10.0428936 45.0587234,9.74331915 45.8325106,9.74331915 C46.6062979,9.74331915 47.3324255,10.043234 47.876766,10.5875745 L53.4097021,16.1205106 C54.5358298,17.248 54.5358298,19.0835745 53.4093617,20.2117447 L36.8105532,36.8105532 C36.2662128,37.3562553 35.5414468,37.6565106 34.7693617,37.6565106 C33.9955745,37.6565106 33.2680851,37.3559149 32.7206809,36.8098723 L27.1891064,31.2779574 C26.9974468,31.0866383 26.7377021,30.9787234 26.4670638,30.9787234 C26.1964255,30.9787234 25.9363404,31.0862979 25.7450213,31.2779574 L20.2120851,36.8108936 C19.8131064,37.2098723 19.8131064,37.8563404 20.2120851,38.2553191 L25.7450213,43.7882553 C28.1555745,46.1988085 31.3596596,47.5264681 34.7666383,47.5264681 C38.173617,47.5264681 41.3777021,46.1988085 43.7882553,43.7882553 L60.3874043,27.1891064 C62.7979574,24.7795745 64.125617,21.5751489 64.125617,18.1664681 C64.125617,14.7577872 62.7979574,11.5533617 60.3874043,9.14382979 L60.3874043,9.14382979 Z" id="Shape"></path>
            </g>
        </g>
    </g>
</svg>