<?xml version="1.0" encoding="UTF-8" standalone="no"?>
<svg width="54px" height="54px" version="1.1" xmlns="http://www.w3.org/2000/svg" xmlns:xlink="http://www.w3.org/1999/xlink" xmlns:sketch="http://www.bohemiancoding.com/sketch/ns">
    <title>dashboard</title>
    <description>Created with Sketch (http://www.bohemiancoding.com/sketch)</description>
    <defs>
        <radialGradient cx="50%" cy="50%" fx="50%" fy="50%" r="244.726896%" id="radialGradient-1">
            <stop stop-color="rgb(254,255,254)" offset="0%"></stop>
            <stop stop-color="rgb(250,250,250)" offset="0%"></stop>
            <stop stop-color="rgb(129,129,129)" offset="0%"></stop>
            <stop stop-color="rgb(0,0,0)" offset="100%"></stop>
        </radialGradient>
        <path d="M2.91098976,28.1920242 C2.91098976,33.9540243 4.93898988,39.5620241 8.62398958,43.9850245 C8.94898957,44.3770244 9.4329896,44.6020244 9.94198954,44.6020244 L45.2639881,44.6020244 C45.7739881,44.6020244 46.2559881,44.3760244 46.5819881,43.9850245 C50.2659881,39.5620246 52.2949879,33.9540243 52.2949879,28.1920242 C52.2949829,14.5769043 41.21698,3.49902344 27.6019897,3.49902344 C13.98699,3.49902344 2.91098976,14.5770235 2.91098976,28.1920242 Z M2.91098976,28.1920242" id="path-2"></path>
    </defs>
    <g id="Page 1" fill="rgb(215,215,215)" fill-rule="evenodd">
        <g id="Group" fill="rgb(0,0,0)">
            <use id="Shape" stroke="rgb(254,255,254)" stroke-width="2" fill="url(#radialGradient-1)" xlink:href="#path-2"></use>
            <use id="Shape-1" stroke="none" fill="none" xlink:href="#path-2"></use>
            <path d="M36.9169866,21.8380293 C37.2319866,21.5710293 37.6349866,21.4050293 38.0799866,21.4050293 C39.0820007,21.4050293 39.894989,22.2180176 39.8939861,23.2200301 C39.8939861,23.64403 39.7429861,24.02903 39.5019861,24.34103 L30.317986,35.4180297 C30.198986,35.6020297 30.068986,35.7730297 29.890986,35.9600297 C29.3089861,36.5490297 28.4989861,36.9170297 27.6039861,36.9170297 C25.8249862,36.9170297 24.3829861,35.4740298 24.3829861,33.6960298 C24.3829861,32.5890296 24.9419862,31.6120296 25.7929861,31.0330297 Z M11.3519897,27.4318848 C11.9200134,27.4318848 12.381012,27.8920898 12.3809898,28.4608848 C12.3809898,29.0288849 11.9199898,29.4898849 11.3519897,29.4898849 L9.5729897,29.4898849 C9.00498965,29.4898849 8.54398966,29.0288848 8.54398966,28.4608848 C8.54398966,27.8918848 9.00498968,27.4318848 9.5729897,27.4318848 Z M15.1270142,14.9970703 L16.4680141,16.3370703 C16.8700141,16.7380704 16.8700141,17.3910703 16.4680141,17.7930703 C16.2660141,17.9940703 16.0030141,18.0950703 15.7400141,18.0950703 C15.4770141,18.0950703 15.2120141,17.9940703 15.0110141,17.7930703 L13.6720141,16.4540703 C13.2700141,16.0520703 13.270014,15.3990703 13.6720141,14.9970703 C14.0740142,14.5950703 14.7250142,14.5970703 15.1270142,14.9970703 Z M27.8250122,12.7929688 C27.256012,12.7929688 26.79599,12.3320312 26.7960122,11.7629688 L26.7960122,10.0609688 C26.7960122,9.49196878 27.2560122,9.03096879 27.8250122,9.03096879 C28.3940122,9.03096879 28.8550122,9.49196875 28.8550122,10.0609688 L28.8550122,11.7629688 C28.8550122,12.3319688 28.3940122,12.7929688 27.8250122,12.7929688 Z M40.3519897,15.0209961 C40.7550049,14.6169434 41.4079897,14.618996 41.8099897,15.019996 C42.2119897,15.4209961 42.2119897,16.073996 41.8099897,16.475996 L40.4939897,17.792996 C40.2919898,17.993996 40.0289898,18.094996 39.7649898,18.094996 C39.5019897,18.094996 39.2389898,17.9939961 39.0379898,17.792996 C38.6349898,17.3909961 38.6349898,16.7389961 39.0359898,16.3369961 Z M45.5960083,27.4331055 C46.1640015,27.4331055 46.625,27.894043 46.6250083,28.4621055 C46.6250083,29.0311055 46.1640083,29.4911056 45.5960083,29.4911056 L43.7420083,29.4911056 C43.1740083,29.4911056 42.7130083,29.0311055 42.7130083,28.4621055 C42.7130083,27.8941055 43.1740083,27.4331055 43.7420083,27.4331055 Z M45.5960083,27.4331055" id="Shape" fill="rgb(254,255,254)"></path>
        </g>
    </g>
</svg>