<?xml version="1.0" encoding="UTF-8" standalone="no"?>
<svg width="62px" height="62px" viewBox="0 0 62 62" version="1.1" xmlns="http://www.w3.org/2000/svg" xmlns:xlink="http://www.w3.org/1999/xlink" xmlns:sketch="http://www.bohemiancoding.com/sketch/ns">
    <title>Slice 1</title>
    <description>Created with Sketch (http://www.bohemiancoding.com/sketch)</description>
    <defs></defs>
    <g id="Page-1" stroke="none" stroke-width="1" fill="none" fill-rule="evenodd" sketch:type="MSPage">
        <g id="g574" sketch:type="MSLayerGroup" transform="translate(25.250000, 16.875000)" fill="#000000">
            <path d="M25.28,31.25 L3.49180006,31.25 C1.67480066,31.25 0.20224041,30.6675 0.20224041,29.9474999 L0.20224041,1.48874968 C0.20224041,0.769999698 1.67480038,0.186249614 3.49180044,0.186249614 L25.2800004,0.186249614 C27.1001603,0.186249614 28.5727206,0.769999623 28.5727206,1.48874968 L28.5727206,29.9474999 C28.5727202,30.6675 27.1001599,31.25 25.28,31.25" id="path576" sketch:type="MSShapeGroup"></path>
        </g>
        <path d="M20.4691028,19.6025008 L10.0308973,19.6025008 L10.0308973,45.4600018 L20.4691028,45.4600018 L20.4691028,19.6025008 L20.4691028,19.6025008 L20.4691028,19.6025008 M20.9850466,48.0625003 L9.51544862,48.0625003 C9.23073877,48.0625003 9,47.4800003 9,46.7612503 L9,18.3025001 C9,17.5825001 9.23073876,17 9.51544862,17 L20.9850466,17 C21.2692613,17 21.5,17.5825 21.5,18.3025001 L21.5,46.7612503 C21.5,47.4800003 21.2692612,48.0625003 20.9850466,48.0625003" id="path578" fill="#000000" sketch:type="MSShapeGroup"></path>
        <path d="M4,49 L58,49 L58,7 L4,7 L4,49 L4,49 L4,49 M2.1523901,58 C0.962682853,58 0,57.021545 0,55.8151617 L0,5.18483831 C0,3.97845497 0.962682853,3 2.1523901,3 L59.8463694,3 C61.0360767,3 62,3.97845497 62,5.18483831 L62,55.8151617 C62,57.021545 61.0360766,58 59.8463694,58 L2.1523901,58 Z" id="path580" fill="#000000" sketch:type="MSShapeGroup" transform="translate(31.000000, 30.500000) scale(1, -1) translate(-31.000000, -30.500000) "></path>
    </g>
</svg>