<?xml version="1.0" encoding="UTF-8" standalone="no"?>
<svg width="51px" height="51px" version="1.1" xmlns="http://www.w3.org/2000/svg" xmlns:xlink="http://www.w3.org/1999/xlink" xmlns:sketch="http://www.bohemiancoding.com/sketch/ns">
    <title>dashboard</title>
    <description>Created with Sketch (http://www.bohemiancoding.com/sketch)</description>
    <defs></defs>
    <g id="Page 1" fill="rgb(223,223,223)" fill-rule="evenodd">
        <g id="Group" fill="rgb(0,0,0)">
            <path d="M25.6019897,3.49902344 C11.98699,3.49902344 0.910989761,14.5770235 0.910989761,28.1920242 C0.910989761,33.9540243 2.93898988,39.5620241 6.62398958,43.9850245 C6.94898957,44.3770244 7.4329896,44.6020244 7.94198954,44.6020244 L43.2639881,44.6020244 C43.7739881,44.6020244 44.2559881,44.3760244 44.5819881,43.9850245 C48.2659881,39.5620246 50.2949879,33.9540243 50.2949879,28.1920242 C50.2949829,14.5769043 39.21698,3.49902344 25.6019897,3.49902344 L25.6019897,3.49902344 L25.6019897,3.49902344 M42.4400024,41.1708984 L8.7630043,41.1708984 C5.90700436,37.4658985 4.3420043,32.8878984 4.3420043,28.1918983 C4.3420043,16.4688988 13.8780046,6.93189812 25.6010051,6.93189812 C37.3260055,6.93189812 46.8630042,16.4688978 46.8630042,28.1918983 C46.8629761,32.8879395 45.2969971,37.4660645 42.4400024,41.1708984 C42.4400024,41.1708984 45.2969971,37.4660645 42.4400024,41.1708984 L42.4400024,41.1708984" id="Shape" fill="rgb(168,182,207)"></path>
            <path d="M36.0799866,21.4050293 C35.6349866,21.4050293 35.2319866,21.5710293 34.9169866,21.8380293 L34.9119866,21.8340293 L23.7929861,31.0330297 L23.7939861,31.0330297 C22.9419862,31.6120296 22.3829861,32.5890296 22.3829861,33.6960298 C22.3829861,35.4740298 23.8249862,36.9170297 25.6039861,36.9170297 C26.4989861,36.9170297 27.3089861,36.5490297 27.890986,35.9600297 L27.892986,35.9600297 L27.917986,35.9270297 C28.068986,35.7730297 28.198986,35.6020297 28.317986,35.4180297 L37.5019861,24.34103 L37.4979861,24.33903 C37.7429861,24.02903 37.8939861,23.64403 37.8939861,23.2200301 C37.894989,22.2180176 37.0820007,21.4050293 36.0799866,21.4050293 L36.0799866,21.4050293 L36.0799866,21.4050293" id="Shape" fill="rgb(168,182,207)"></path>
            <path d="M9.35198975,27.4318848 L7.5729897,27.4318848 C7.00498968,27.4318848 6.54398966,27.8918848 6.54398966,28.4608848 C6.54398966,29.0288848 7.00498965,29.4898849 7.5729897,29.4898849 L9.35198975,29.4898849 C9.91998976,29.4898849 10.3809898,29.0288849 10.3809898,28.4608848 C10.381012,27.8920898 9.92001343,27.4318848 9.35198975,27.4318848 L9.35198975,27.4318848 L9.35198975,27.4318848" id="Shape" fill="rgb(182,195,216)"></path>
            <path d="M13.1270142,14.9970703 C12.7250142,14.5970703 12.0740142,14.5950703 11.6720141,14.9970703 C11.270014,15.3990703 11.2700141,16.0520703 11.6720141,16.4540703 L13.0110141,17.7930703 C13.2120141,17.9940703 13.4770141,18.0950703 13.7400141,18.0950703 C14.0030141,18.0950703 14.2660141,17.9940703 14.4680141,17.7930703 C14.8700141,17.3910703 14.8700141,16.7380704 14.4680141,16.3370703 L13.1270142,14.9970703 L13.1270142,14.9970703 L13.1270142,14.9970703" id="Shape" fill="rgb(182,195,216)"></path>
            <path d="M25.8250122,12.7929688 C26.3940122,12.7929688 26.8550122,12.3319688 26.8550122,11.7629688 L26.8550122,10.0609688 C26.8550122,9.49196875 26.3940122,9.03096879 25.8250122,9.03096879 C25.2560122,9.03096879 24.7960122,9.49196878 24.7960122,10.0609688 L24.7960122,11.7629688 C24.79599,12.3320312 25.256012,12.7929688 25.8250122,12.7929688 C25.8250122,12.7929688 25.256012,12.7929688 25.8250122,12.7929688 L25.8250122,12.7929688" id="Shape" fill="rgb(182,195,216)"></path>
            <path d="M38.3519897,15.0209961 L37.0359898,16.3369961 C36.6349898,16.7389961 36.6349898,17.3909961 37.0379898,17.792996 C37.2389898,17.9939961 37.5019897,18.094996 37.7649898,18.094996 C38.0289898,18.094996 38.2919898,17.993996 38.4939897,17.792996 L39.8099897,16.475996 C40.2119897,16.073996 40.2119897,15.4209961 39.8099897,15.019996 C39.4079897,14.618996 38.7550049,14.6169434 38.3519897,15.0209961 C38.3519897,15.0209961 38.7550049,14.6169434 38.3519897,15.0209961 L38.3519897,15.0209961" id="Shape" fill="rgb(182,195,216)"></path>
            <path d="M43.5960083,27.4331055 L41.7420083,27.4331055 C41.1740083,27.4331055 40.7130083,27.8941055 40.7130083,28.4621055 C40.7130083,29.0311055 41.1740083,29.4911056 41.7420083,29.4911056 L43.5960083,29.4911056 C44.1640083,29.4911056 44.6250083,29.0311055 44.6250083,28.4621055 C44.625,27.894043 44.1640015,27.4331055 43.5960083,27.4331055 L43.5960083,27.4331055 L43.5960083,27.4331055" id="Shape" fill="rgb(182,195,216)"></path>
        </g>
    </g>
</svg>