<?xml version="1.0" encoding="UTF-8" standalone="no"?>
<svg width="60px" height="60px" viewBox="0 0 60 60" version="1.1" xmlns="http://www.w3.org/2000/svg" xmlns:xlink="http://www.w3.org/1999/xlink" xmlns:sketch="http://www.bohemiancoding.com/sketch/ns">
    <title>Slice 1</title>
    <description>Created with Sketch (http://www.bohemiancoding.com/sketch)</description>
    <defs></defs>
    <g id="Page-1" stroke="none" stroke-width="1" fill="none" fill-rule="evenodd" sketch:type="MSPage">
        <g id="dashboard" sketch:type="MSLayerGroup" transform="translate(0.000000, 4.000000)">
            <g id="Page-1" sketch:type="MSShapeGroup">
                <g id="dashboard">
                    <g id="Page-1">
                        <g id="Group">
                            <g id="Shape" stroke="#FEFFFE" stroke-width="2" fill="#000000">
                                <path d="M-0.108992131,30.3364203 C-0.108992131,37.5037863 2.37427332,44.479591 6.88651785,49.9813719 C7.28447702,50.4689816 7.87713012,50.7488596 8.50039536,50.7488596 L51.7518222,50.7488596 C52.376312,50.7488596 52.966516,50.4677377 53.3656997,49.9813719 C57.8767201,44.4795916 60.3612097,37.5037863 60.3612097,30.3364203 C60.3612036,13.4005395 46.796302,-0.379263526 30.1248853,-0.379263526 C13.4534571,-0.379263526 -0.108992131,13.4006878 -0.108992131,30.3364203 L-0.108992131,30.3364203 L-0.108992131,30.3364203 Z" id="path-2"></path>
                            </g>
                            <g id="Shape-1">
                                <path d="M-0.108992131,30.3364203 C-0.108992131,37.5037863 2.37427332,44.479591 6.88651785,49.9813719 C7.28447702,50.4689816 7.87713012,50.7488596 8.50039536,50.7488596 L51.7518222,50.7488596 C52.376312,50.7488596 52.966516,50.4677377 53.3656997,49.9813719 C57.8767201,44.4795916 60.3612097,37.5037863 60.3612097,30.3364203 C60.3612036,13.4005395 46.796302,-0.379263526 30.1248853,-0.379263526 C13.4534571,-0.379263526 -0.108992131,13.4006878 -0.108992131,30.3364203 L-0.108992131,30.3364203 L-0.108992131,30.3364203 Z" id="path-2"></path>
                            </g>
                            <path d="M41.531004,22.4326706 C41.9167183,22.1005486 42.4101877,21.8940608 42.9550856,21.8940608 C44.1820417,21.8940608 45.1775376,22.905339 45.1763095,24.1517448 C45.1763095,24.6791593 44.9914116,25.1580617 44.6963095,25.5461593 L33.4505951,39.3248662 C33.3048808,39.5537443 33.1456971,39.7664516 32.927738,39.9990613 C32.215085,40.7317199 31.2232483,41.189476 30.1273299,41.189476 C27.9489627,41.189476 26.1832483,39.3945249 26.1832483,37.1828663 C26.1832483,35.8058661 26.8677382,34.5905734 27.9097789,33.870354 L41.531004,22.4326706 L41.531004,22.4326706 Z M10.2269262,29.3908811 C10.9224654,29.3908811 11.4869535,29.9633312 11.4869263,30.6708567 C11.4869263,31.3773934 10.9224365,31.9508324 10.2269262,31.9508324 L8.04855882,31.9508324 C7.35304855,31.9508324 6.78855877,31.3773933 6.78855877,30.6708567 C6.78855877,29.9630762 7.35304859,29.3908811 8.04855882,29.3908811 L10.2269262,29.3908811 L10.2269262,29.3908811 Z M14.8494051,13.923185 L16.4914458,15.5900143 C16.9836907,16.0888193 16.9836907,16.9010874 16.4914458,17.4011362 C16.2440989,17.6511606 15.9220581,17.7767948 15.6000173,17.7767948 C15.2779764,17.7767948 14.9534867,17.6511606 14.7073642,17.4011362 L13.0677724,15.7355509 C12.5755275,15.2355021 12.5755273,14.4232338 13.0677724,13.923185 C13.5600174,13.4231362 14.3571602,13.425624 14.8494051,13.923185 L14.8494051,13.923185 L14.8494051,13.923185 Z M30.3979741,11.1814978 C29.7012392,11.1814978 29.1379469,10.6081364 29.1379741,9.9002783 L29.1379741,7.78315631 C29.1379741,7.0753758 29.7012394,6.50193679 30.3979741,6.50193679 C31.0947088,6.50193679 31.6591986,7.07537576 31.6591986,7.78315631 L31.6591986,9.9002783 C31.6591986,10.6080588 31.0947088,11.1814978 30.3979741,11.1814978 L30.3979741,11.1814978 L30.3979741,11.1814978 Z M45.7371302,13.9529464 C46.2306182,13.4503442 47.0301915,13.4528975 47.5224364,13.9517023 C48.0146813,14.4505073 48.0146813,15.2627755 47.5224364,15.7628243 L45.9110078,17.4010438 C45.663661,17.6510682 45.3416202,17.7767023 45.0183549,17.7767023 C44.6963139,17.7767023 44.3742732,17.6510683 44.1281508,17.4010438 C43.6346814,16.9009951 43.6346814,16.0899708 44.1257018,15.589922 L45.7371302,13.9529464 L45.7371302,13.9529464 Z M52.1583775,29.3923995 C52.8538794,29.3923995 53.4183673,29.9657608 53.4183775,30.6723751 C53.4183775,31.3801556 52.8538877,31.9523509 52.1583775,31.9523509 L49.8881734,31.9523509 C49.1926632,31.9523509 48.6281734,31.3801556 48.6281734,30.6723751 C48.6281734,29.9658385 49.1926632,29.3923995 49.8881734,29.3923995 L52.1583775,29.3923995 L52.1583775,29.3923995 Z" id="Shape" fill="#FEFFFE"></path>
                        </g>
                    </g>
                </g>
            </g>
        </g>
    </g>
</svg>