<?xml version="1.0" encoding="UTF-8" standalone="no"?>
<svg width="51px" height="51px" version="1.1" xmlns="http://www.w3.org/2000/svg" xmlns:xlink="http://www.w3.org/1999/xlink" xmlns:sketch="http://www.bohemiancoding.com/sketch/ns">
    <title>dashboard</title>
    <description>Created with Sketch (http://www.bohemiancoding.com/sketch)</description>
    <defs>
        <radialGradient cx="50%" cy="50%" fx="50%" fy="50%" r="244.726896%" id="radialGradient-1">
            <stop stop-color="rgb(254,255,254)" offset="0%"></stop>
            <stop stop-color="rgb(250,250,250)" offset="0%"></stop>
            <stop stop-color="rgb(129,129,129)" offset="0%"></stop>
            <stop stop-color="rgb(0,0,0)" offset="100%"></stop>
        </radialGradient>
        <path d="M0.910989761,28.1920242 C0.910989761,33.9540243 2.93898988,39.5620241 6.62398958,43.9850245 C6.94898957,44.3770244 7.4329896,44.6020244 7.94198954,44.6020244 L43.2639881,44.6020244 C43.7739881,44.6020244 44.2559881,44.3760244 44.5819881,43.9850245 C48.2659881,39.5620246 50.2949879,33.9540243 50.2949879,28.1920242 C50.2949829,14.5769043 39.21698,3.49902344 25.6019897,3.49902344 C11.98699,3.49902344 0.910989761,14.5770235 0.910989761,28.1920242 Z M0.910989761,28.1920242" id="path-2"></path>
    </defs>
    <g id="Page 1" fill="rgb(215,215,215)" fill-rule="evenodd">
        <g id="Group" fill="rgb(0,0,0)">
            <use id="Shape" fill="url(#radialGradient-1)" xlink:href="#path-2"></use>
            <use id="Shape-1" stroke="none" fill="none" xlink:href="#path-2"></use>
            <path d="M34.9169866,21.8380293 C35.2319866,21.5710293 35.6349866,21.4050293 36.0799866,21.4050293 C37.0820007,21.4050293 37.894989,22.2180176 37.8939861,23.2200301 C37.8939861,23.64403 37.7429861,24.02903 37.5019861,24.34103 L28.317986,35.4180297 C28.198986,35.6020297 28.068986,35.7730297 27.890986,35.9600297 C27.3089861,36.5490297 26.4989861,36.9170297 25.6039861,36.9170297 C23.8249862,36.9170297 22.3829861,35.4740298 22.3829861,33.6960298 C22.3829861,32.5890296 22.9419862,31.6120296 23.7929861,31.0330297 Z M9.35198975,27.4318848 C9.92001343,27.4318848 10.381012,27.8920898 10.3809898,28.4608848 C10.3809898,29.0288849 9.91998976,29.4898849 9.35198975,29.4898849 L7.5729897,29.4898849 C7.00498965,29.4898849 6.54398966,29.0288848 6.54398966,28.4608848 C6.54398966,27.8918848 7.00498968,27.4318848 7.5729897,27.4318848 Z M13.1270142,14.9970703 L14.4680141,16.3370703 C14.8700141,16.7380704 14.8700141,17.3910703 14.4680141,17.7930703 C14.2660141,17.9940703 14.0030141,18.0950703 13.7400141,18.0950703 C13.4770141,18.0950703 13.2120141,17.9940703 13.0110141,17.7930703 L11.6720141,16.4540703 C11.2700141,16.0520703 11.270014,15.3990703 11.6720141,14.9970703 C12.0740142,14.5950703 12.7250142,14.5970703 13.1270142,14.9970703 Z M25.8250122,12.7929688 C25.256012,12.7929688 24.79599,12.3320312 24.7960122,11.7629688 L24.7960122,10.0609688 C24.7960122,9.49196878 25.2560122,9.03096879 25.8250122,9.03096879 C26.3940122,9.03096879 26.8550122,9.49196875 26.8550122,10.0609688 L26.8550122,11.7629688 C26.8550122,12.3319688 26.3940122,12.7929688 25.8250122,12.7929688 Z M38.3519897,15.0209961 C38.7550049,14.6169434 39.4079897,14.618996 39.8099897,15.019996 C40.2119897,15.4209961 40.2119897,16.073996 39.8099897,16.475996 L38.4939897,17.792996 C38.2919898,17.993996 38.0289898,18.094996 37.7649898,18.094996 C37.5019897,18.094996 37.2389898,17.9939961 37.0379898,17.792996 C36.6349898,17.3909961 36.6349898,16.7389961 37.0359898,16.3369961 Z M43.5960083,27.4331055 C44.1640015,27.4331055 44.625,27.894043 44.6250083,28.4621055 C44.6250083,29.0311055 44.1640083,29.4911056 43.5960083,29.4911056 L41.7420083,29.4911056 C41.1740083,29.4911056 40.7130083,29.0311055 40.7130083,28.4621055 C40.7130083,27.8941055 41.1740083,27.4331055 41.7420083,27.4331055 Z M43.5960083,27.4331055" id="Shape" fill="rgb(254,255,254)"></path>
        </g>
    </g>
</svg>