<?xml version="1.0" encoding="UTF-8" standalone="no"?>
<svg width="182px" height="182px" viewBox="0 0 182 182" version="1.1" xmlns="http://www.w3.org/2000/svg" xmlns:xlink="http://www.w3.org/1999/xlink" xmlns:sketch="http://www.bohemiancoding.com/sketch/ns">
    <title>Slice 1</title>
    <description>Created with Sketch (http://www.bohemiancoding.com/sketch)</description>
    <defs>
        <linearGradient x1="50%" y1="0%" x2="50%" y2="173.920641%" id="linearGradient-1">
            <stop stop-color="#7B7D79" offset="0%"></stop>
            <stop stop-color="#000000" offset="100%"></stop>
        </linearGradient>
    </defs>
    <g id="Page-1" stroke="none" stroke-width="1" fill="none" fill-rule="evenodd" sketch:type="MSPage">
        <g id="delete" sketch:type="MSLayerGroup" transform="translate(8.000000, 0.000000)">
            <g id="Page-1" sketch:type="MSShapeGroup">
                <g id="Group">
                    <path d="M154.118966,22.7996141 L119.176682,22.7996141 L119.176682,13.123078 C119.176682,5.7329807 112.745825,-0.27345888 104.833538,-0.27345888 L59.3075378,-0.27345888 C51.3952523,-0.27345888 44.9692525,5.7329802 44.9692525,13.123078 L44.9692525,22.7996141 L10.0221088,22.7996141 C4.6598232,22.7996141 0.3272514,26.8507849 0.3272514,31.8546388 C0.3272514,36.8584926 4.66468,40.9096634 10.0221088,40.9096634 L16.1129657,40.9096634 L16.1129657,172.924299 C16.1129657,177.088885 19.7315372,180.464104 24.1903942,180.464104 L139.96039,180.464104 C144.419247,180.464104 148.037818,177.088884 148.037818,172.924299 L148.037818,40.9096634 L154.123818,40.9096634 C159.47639,40.9096634 163.813818,36.8539561 163.813818,31.8546388 C163.808943,26.8466559 159.466448,22.7996141 154.118966,22.7996141 L154.118966,22.7996141 M57.889195,13.1228206 C57.889195,12.3878938 58.5206236,11.793601 59.3026236,11.793601 L104.828624,11.793601 C105.610624,11.793601 106.24691,12.3878937 106.24691,13.1228206 L106.24691,22.7993567 L57.8891942,22.7993567 L57.8891942,13.1228206 L57.889195,13.1228206" id="Shape" fill="#000000"></path>
                    <path d="M51.8954381,156.07067 C54.5765808,156.07067 56.7477238,154.047353 56.7477238,151.538621 L56.7477238,57.2502289 C56.7477238,54.7460338 54.576581,52.7181801 51.8954381,52.7181801 C49.2191523,52.7181801 47.0528667,54.7460337 47.0528667,57.2502289 L47.0528667,151.538621 C47.0528216,154.047149 49.219029,156.07067 51.8954381,156.07067 C51.8954381,156.07067 49.219029,156.07067 51.8954381,156.07067 L51.8954381,156.07067" id="Shape" fill="#FEFFFE"></path>
                    <path d="M82.0729283,156.07067 C84.749214,156.07067 86.920357,154.047353 86.920357,151.538621 L86.920357,57.2502289 C86.920357,54.7460338 84.749214,52.7181801 82.0729283,52.7181801 C79.3966424,52.7181801 77.2254996,54.7460337 77.2254996,57.2502289 L77.2254996,151.538621 C77.2255685,154.047149 79.3965193,156.07067 82.0729283,156.07067 C82.0729283,156.07067 79.3965193,156.07067 82.0729283,156.07067 L82.0729283,156.07067" id="Shape" fill="#FEFFFE"></path>
                    <path d="M112.245379,156.07067 C114.921664,156.07067 117.092807,154.047353 117.092807,151.538621 L117.092807,57.2502289 C117.092807,54.7460338 114.921665,52.7181801 112.245379,52.7181801 C109.569093,52.7181801 107.39795,54.7460337 107.39795,57.2502289 L107.39795,151.538621 C107.398019,154.047149 109.569266,156.07067 112.245379,156.07067 C112.245379,156.07067 109.569266,156.07067 112.245379,156.07067 L112.245379,156.07067" id="Shape" fill="#FEFFFE"></path>
                </g>
            </g>
        </g>
    </g>
</svg>