<?xml version="1.0" encoding="UTF-8" standalone="no"?>
<svg width="70px" height="70px" version="1.1" xmlns="http://www.w3.org/2000/svg" xmlns:xlink="http://www.w3.org/1999/xlink" xmlns:sketch="http://www.bohemiancoding.com/sketch/ns">
    <title>delete</title>
    <description>Created with Sketch (http://www.bohemiancoding.com/sketch)</description>
    <defs>
        <path d="M35,67 C52.6731129,67 67,52.6731129 67,35 C67,22.9669417 50.5408787,7.02047947 50.5408787,7.02047947 C50.5408787,7.02047947 40.6400546,3 35,3 C17.3268871,3 3,17.3268871 3,35 C3,52.6731129 17.3268871,67 35,67 Z M35,67" id="path-1"></path>
    </defs>
    <g id="Page 1" fill="rgb(223,223,223)" fill-rule="evenodd">
        <use id="Oval 1" xlink:href="#path-1"></use>
        <use id="Oval 1-1" stroke="rgb(99,99,99)" stroke-width="5" fill="none" xlink:href="#path-1"></use>
        <path d="M40.2260666,29.9948845 L40.2260666,13.8649524 C40.2260666,12.4559492 39.054631,11.3119228 37.6151917,11.3119228 L32.3804739,11.3119228 C30.9496798,11.3119228 29.769599,12.4559494 29.769599,13.8649524 L29.769599,29.9948845 L13.9314432,29.9948845 C12.4790359,29.9948845 11.3119228,31.134705 11.3119228,32.5437082 L11.3119228,37.304877 C11.3119228,38.7138802 12.4833585,39.8537007 13.9314432,39.8537007 L29.769599,39.8537007 L29.769599,56.1434594 C29.769599,57.5482566 30.9496799,58.6880772 32.3804739,58.6880772 L37.6151917,58.6880772 C39.0589537,58.6880772 40.2260666,57.5482567 40.2260666,56.1434594 L40.2260666,39.8537007 L56.0728671,39.8537007 C57.5166291,39.8537007 58.6880649,38.7138802 58.6880649,37.304877 L58.6880649,32.5437082 C58.6924655,31.1305811 57.5166935,29.9948845 56.0728671,29.9948845 L40.2260666,29.9948845 Z M40.2260666,29.9948845" id="Shape" fill="rgb(73,73,73)" transform="translate(35, 35) rotate(-45) translate(-35, -35)"></path>
    </g>
</svg>