<?xml version="1.0" encoding="UTF-8" standalone="no"?>
<svg width="200px" height="200px" version="1.1" xmlns="http://www.w3.org/2000/svg" xmlns:xlink="http://www.w3.org/1999/xlink" xmlns:sketch="http://www.bohemiancoding.com/sketch/ns">
    <title>delete</title>
    <description>Created with Sketch (http://www.bohemiancoding.com/sketch)</description>
    <defs>
        <linearGradient x1="50%" y1="0%" x2="50%" y2="173.920641%" id="linearGradient-1">
            <stop stop-color="rgb(123,125,121)" offset="0%"></stop>
            <stop stop-color="rgb(0,0,0)" offset="100%"></stop>
        </linearGradient>
    </defs>
    <g id="Page 1" fill="rgb(215,215,215)" fill-rule="evenodd">
        <g id="Group" fill="url(#linearGradient-1)">
            <path d="M170.118966,32.7996141 L135.176682,32.7996141 L135.176682,23.123078 C135.176682,15.7329807 128.745825,9.72654112 120.833538,9.72654112 L75.3075378,9.72654112 C67.3952523,9.72654112 60.9692525,15.7329802 60.9692525,23.123078 L60.9692525,32.7996141 L26.0221088,32.7996141 C20.6598232,32.7996141 16.3272514,36.8507849 16.3272514,41.8546388 C16.3272514,46.8584926 20.66468,50.9096634 26.0221088,50.9096634 L32.1129657,50.9096634 L32.1129657,182.924299 C32.1129657,187.088885 35.7315372,190.464104 40.1903942,190.464104 L155.96039,190.464104 C160.419247,190.464104 164.037818,187.088884 164.037818,182.924299 L164.037818,50.9096634 L170.123818,50.9096634 C175.47639,50.9096634 179.813818,46.8539561 179.813818,41.8546388 C179.808943,36.8466559 175.466448,32.7996141 170.118966,32.7996141 L170.118966,32.7996141 L170.118966,32.7996141 M73.889195,23.1228206 C73.889195,22.3878938 74.5206236,21.793601 75.3026236,21.793601 L120.828624,21.793601 C121.610624,21.793601 122.24691,22.3878937 122.24691,23.1228206 L122.24691,32.7993567 L73.8891942,32.7993567 L73.8891942,23.1228206 L73.8891942,23.1228206 L73.889195,23.1228206" id="Shape"></path>
            <path d="M67.8954381,166.07067 C70.5765808,166.07067 72.7477238,164.047353 72.7477238,161.538621 L72.7477238,67.2502289 C72.7477238,64.7460338 70.576581,62.7181801 67.8954381,62.7181801 C65.2191523,62.7181801 63.0528667,64.7460337 63.0528667,67.2502289 L63.0528667,161.538621 C63.0528216,164.047149 65.219029,166.07067 67.8954381,166.07067 C67.8954381,166.07067 65.219029,166.07067 67.8954381,166.07067 L67.8954381,166.07067" id="Shape" fill="rgb(254,255,254)"></path>
            <path d="M98.0729283,166.07067 C100.749214,166.07067 102.920357,164.047353 102.920357,161.538621 L102.920357,67.2502289 C102.920357,64.7460338 100.749214,62.7181801 98.0729283,62.7181801 C95.3966424,62.7181801 93.2254996,64.7460337 93.2254996,67.2502289 L93.2254996,161.538621 C93.2255685,164.047149 95.3965193,166.07067 98.0729283,166.07067 C98.0729283,166.07067 95.3965193,166.07067 98.0729283,166.07067 L98.0729283,166.07067" id="Shape" fill="rgb(254,255,254)"></path>
            <path d="M128.245379,166.07067 C130.921664,166.07067 133.092807,164.047353 133.092807,161.538621 L133.092807,67.2502289 C133.092807,64.7460338 130.921665,62.7181801 128.245379,62.7181801 C125.569093,62.7181801 123.39795,64.7460337 123.39795,67.2502289 L123.39795,161.538621 C123.398019,164.047149 125.569266,166.07067 128.245379,166.07067 C128.245379,166.07067 125.569266,166.07067 128.245379,166.07067 L128.245379,166.07067" id="Shape" fill="rgb(254,255,254)"></path>
        </g>
    </g>
</svg>