<?xml version="1.0" encoding="UTF-8" standalone="no"?>
<!-- Created with Inkscape (http://www.inkscape.org/) -->

<svg
   xmlns:dc="http://purl.org/dc/elements/1.1/"
   xmlns:cc="http://creativecommons.org/ns#"
   xmlns:rdf="http://www.w3.org/1999/02/22-rdf-syntax-ns#"
   xmlns:svg="http://www.w3.org/2000/svg"
   xmlns="http://www.w3.org/2000/svg"
   xmlns:sodipodi="http://sodipodi.sourceforge.net/DTD/sodipodi-0.dtd"
   xmlns:inkscape="http://www.inkscape.org/namespaces/inkscape"
   id="svg2"
   version="1.1"
   inkscape:version="0.48.2 r9819"
   width="87.5"
   height="87.5"
   xml:space="preserve"
   sodipodi:docname="delete.pdf"><metadata
     id="metadata8"><rdf:RDF><cc:Work
         rdf:about=""><dc:format>image/svg+xml</dc:format><dc:type
           rdf:resource="http://purl.org/dc/dcmitype/StillImage" /><dc:title></dc:title></cc:Work></rdf:RDF></metadata><defs
     id="defs6" /><sodipodi:namedview
     pagecolor="#ffffff"
     bordercolor="#666666"
     borderopacity="1"
     objecttolerance="10"
     gridtolerance="10"
     guidetolerance="10"
     inkscape:pageopacity="0"
     inkscape:pageshadow="2"
     inkscape:window-width="640"
     inkscape:window-height="480"
     id="namedview4"
     showgrid="false"
     inkscape:zoom="3.2871429"
     inkscape:cx="43.75"
     inkscape:cy="43.75"
     inkscape:window-x="0"
     inkscape:window-y="0"
     inkscape:window-maximized="0"
     inkscape:current-layer="g10" /><g
     id="g10"
     inkscape:groupmode="layer"
     inkscape:label="delete"
     transform="matrix(1.25,0,0,-1.25,0,87.5)"><g
       id="g12" /><g
       id="g14"><g
         id="g16"
         transform="matrix(1,0,0,-1,3,67)"><path
           d="M 32,64 C 49.67311,64 64,49.67311 64,32 64,19.96694 57.35832,9.485131 47.54088,4.020479 42.93931,1.459125 37.64005,0 32,0 14.32689,0 0,14.32689 0,32 0,49.67311 14.32689,64 32,64 z"
           style="fill:none;stroke:#494949;stroke-opacity:1;stroke-width:5;stroke-linecap:butt;stroke-linejoin:miter;stroke-miterlimit:10;stroke-dasharray:none"
           id="path18" /></g><path
         d="m 35.03412,40.11394 -8.18534,8.18534 c -0.71501,0.71502 -1.87254,0.71859 -2.58152,0.0096 L 21.68897,45.7306 c -0.70472,-0.70472 -0.7054,-1.8665 0.0096,-2.58152 l 8.18534,-8.18534 -7.80088,-7.80088 c -0.71536,-0.71537 -0.71179,-1.86863 0.0032,-2.58365 l 2.41612,-2.41611 c 0.71501,-0.71502 1.87041,-0.71646 2.58364,-0.0032 l 7.80088,7.80088 8.26645,-8.26644 c 0.71288,-0.71289 1.87253,-0.71007 2.57725,-0.0053 l 2.57829,2.57829 c 0.71111,0.71111 0.70754,1.86437 -0.0053,2.57726 l -8.26645,8.26644 7.80515,7.80514 c 0.7111,0.71111 0.70966,1.8665 -0.0054,2.58152 l -2.41611,2.41611 c -0.71494,0.71928 -1.87038,0.71649 -2.58152,0.0053 l -7.80514,-7.80514 z"
         style="fill:#494949;fill-opacity:1;fill-rule:evenodd;stroke:none"
         id="path20" /></g></g></svg>