<?xml version="1.0" encoding="UTF-8" standalone="no"?>
<svg width="342px" height="115px" viewBox="0 0 342 115" version="1.1" xmlns="http://www.w3.org/2000/svg" xmlns:xlink="http://www.w3.org/1999/xlink" xmlns:sketch="http://www.bohemiancoding.com/sketch/ns">
    <title>downloadbutton</title>
    <description>Created with Sketch (http://www.bohemiancoding.com/sketch)</description>
    <defs></defs>
    <g id="Page-1" stroke="none" stroke-width="1" fill="none" fill-rule="evenodd" sketch:type="MSPage">
        <g id="Rectangle-1-+-BUY-----&gt;-+-&gt;-+-DOWNLOAD" sketch:type="MSLayerGroup">
            <g id="Rectangle-1-+-BUY-----&gt;" fill="#000000" sketch:type="MSShapeGroup">
                <path d="M0,0 L0,115 L57.393263,115 L342,115 L342,0 L0,0 Z" id="Rectangle-1"></path>
            </g>
            <path d="M283,58.2686567 L267,52 L267,54.6492537 L274.869464,57.5597015 L279.867133,59.4253731 L279.867133,59.5746269 L274.869464,61.4402985 L267,64.3507463 L267,67 L283,60.7313433 L283,58.2686567 Z" id="&gt;" stroke="#FFFFFF" fill="#FFFFFF" sketch:type="MSShapeGroup" transform="translate(275.000000, 60.000000) rotate(90.000000) translate(-275.000000, -60.000000) "></path>
            <path d="M69,69 L75.0117417,69 C80.9921722,69 85,65.6180982 85,58.4033742 C85,51.1886503 80.9921722,48 74.7612524,48 L69,48 L69,69 Z M74,65 L74,52 L74.9201878,52 C78.5680751,52 81,53.5072464 81,58.4057971 C81,63.3043478 78.5680751,65 74.9201878,65 L74,65 Z M97.5,70 C103.148649,70 107,65.8343195 107,58.9023669 C107,52.0029586 103.148649,48 97.5,48 C91.8513514,48 88,51.9704142 88,58.9023669 C88,65.8343195 91.8513514,70 97.5,70 Z M97.5,66 C94.737931,66 93,63.2464455 93,58.9004739 C93,54.5876777 94.737931,52 97.5,52 C100.262069,52 102,54.5876777 102,58.9004739 C102,63.2464455 100.262069,66 97.5,66 Z M112.848601,69 L118.637405,69 L120.577608,59.4662577 C120.927481,57.8558282 121.181934,56.148773 121.436387,54.6027607 L121.563613,54.6027607 C121.78626,56.148773 122.040712,57.8558282 122.390585,59.4662577 L124.426209,69 L130.310433,69 L134,48 L129.515267,48 L128.083969,57.8236196 C127.79771,59.9815951 127.51145,62.2039877 127.225191,64.458589 L127.097964,64.458589 C126.684478,62.2039877 126.270992,59.9493865 125.857506,57.8236196 L123.631043,48 L119.655216,48 L117.428753,57.8236196 C117.015267,60.0138037 116.601781,62.2361963 116.188295,64.458589 L116.061069,64.458589 C115.806616,62.2361963 115.48855,60.0138037 115.234097,57.8236196 L113.802799,48 L109,48 L112.848601,69 Z M137,69 L141.383562,69 L141.383562,61.559816 C141.383562,59.0797546 141.007828,56.2776074 140.819961,53.958589 L140.945205,53.958589 L142.949119,58.5322086 L148.272016,69 L153,69 L153,48 L148.616438,48 L148.616438,55.4079755 C148.616438,57.8880368 148.992172,60.851227 149.180039,63.0736196 L149.054795,63.0736196 L147.050881,58.4355828 L141.727984,48 L137,48 L137,69 Z M158,69 L171,69 L171,65.006135 L162.718519,65.006135 L162.718519,48 L158,48 L158,69 Z M183.5,70 C189.148649,70 193,65.8343195 193,58.9023669 C193,52.0029586 189.148649,48 183.5,48 C177.851351,48 174,51.9704142 174,58.9023669 C174,65.8343195 177.851351,70 183.5,70 Z M183.5,66 C180.737931,66 179,63.2464455 179,58.9004739 C179,54.5876777 180.737931,52 183.5,52 C186.262069,52 188,54.5876777 188,58.9004739 C188,63.2464455 186.262069,66 183.5,66 Z M207.933333,69 L213,69 L206.374359,48 L200.625641,48 L194,69 L198.871795,69 L200.17094,64.0076687 L206.634188,64.0076687 L207.933333,69 Z M201,61 L201.460432,59 C201.978417,56.8333333 202.467626,54.3 202.928058,52 L203.043165,52 C203.532374,54.2666667 204.05036,56.8333333 204.568345,59 L205,61 L201,61 Z M215,69 L221.011742,69 C226.992172,69 231,65.6180982 231,58.4033742 C231,51.1886503 226.992172,48 220.761252,48 L215,48 L215,69 Z M220,65 L220,52 L220.920188,52 C224.568075,52 227,53.5072464 227,58.4057971 C227,63.3043478 224.568075,65 220.920188,65 L220,65 Z" id="DOWNLOAD" fill="#FFFFFF" sketch:type="MSShapeGroup"></path>
        </g>
    </g>
</svg>