<?xml version="1.0" encoding="UTF-8" standalone="no"?>
<svg width="52px" height="52px" version="1.1" xmlns="http://www.w3.org/2000/svg" xmlns:xlink="http://www.w3.org/1999/xlink" xmlns:sketch="http://www.bohemiancoding.com/sketch/ns">
    <title>downloading</title>
    <description>Created with Sketch (http://www.bohemiancoding.com/sketch)</description>
    <defs></defs>
    <g id="Page 1" fill="rgb(223,223,223)" fill-rule="evenodd">
        <g id="Group" fill="rgb(0,0,0)">
            <path d="M48.5140076,27.2529297 C46.9970076,27.2529297 45.7680075,28.4829297 45.7680075,29.9989297 L45.7680075,42.9829299 L7.21500611,42.9829299 L7.21500611,29.9989297 C7.21500611,28.4829297 5.98600614,27.2529297 4.46900606,27.2529297 C2.95300603,27.2529297 1.72300601,28.4829297 1.72300601,29.9989297 L1.72300601,45.7289293 C1.72300601,47.2449293 2.95300603,48.4749293 4.46900606,48.4749293 L48.5140042,48.4749293 C50.0300043,48.4749293 51.2590041,47.2449293 51.2590041,45.7289293 L51.2590041,29.9989297 C51.2590027,28.4829102 50.0289917,27.2529297 48.5140076,27.2529297 L48.5140076,27.2529297 L48.5140076,27.2529297" id="Shape" fill="rgb(152,152,151)"></path>
            <path d="M25.7441548,39.9986642 C25.9703356,40.3456504 26.3286768,40.5520474 26.7118535,40.5520474 C27.0941433,40.5520474 27.4524846,40.3456504 27.6768914,39.9986642 L35.6597409,27.6437623 C35.9231749,27.2359538 35.9622021,26.6955328 35.757309,26.2468438 C35.5541898,25.7971576 35.1417426,25.5129879 34.6938161,25.5129879 L29.4978682,25.5129879 L29.4978682,9.13384359 C29.4978682,7.40389804 28.2507697,6 26.7118537,6 C25.1729378,6 23.9240654,7.40290102 23.9240654,9.13384359 L23.9240654,25.5129879 L18.7281176,25.5129879 C18.2793041,25.5149821 17.8677438,25.7981547 17.6655117,26.2468438 C17.4615055,26.6955328 17.4978718,27.2369509 17.7621928,27.6437623 L25.7441548,39.9986642 L25.7441548,39.9986642 L25.7441548,39.9986642" id="Shape" fill="rgb(131,166,82)"></path>
        </g>
    </g>
</svg>