<?xml version="1.0" encoding="UTF-8" standalone="no"?>
<svg width="52px" height="52px" viewBox="0 0 52 52" version="1.1" xmlns="http://www.w3.org/2000/svg" xmlns:xlink="http://www.w3.org/1999/xlink" xmlns:sketch="http://www.bohemiancoding.com/sketch/ns">
    <title>Slice 1</title>
    <description>Created with Sketch (http://www.bohemiancoding.com/sketch)</description>
    <defs></defs>
    <g id="Page-1" stroke="none" stroke-width="1" fill="none" fill-rule="evenodd" sketch:type="MSPage">
        <g id="downloading" sketch:type="MSLayerGroup" transform="translate(1.000000, 3.000000)" fill="#000000">
            <g id="Page-1" sketch:type="MSShapeGroup">
                <g id="Group">
                    <path d="M47.4456548,21.2529297 C45.8989097,21.2529297 44.6458116,22.4829297 44.6458116,23.9989297 L44.6458116,36.9829299 L5.336869,36.9829299 L5.336869,23.9989297 C5.336869,22.4829297 4.083771,21.2529297 2.53702579,21.2529297 C0.99130026,21.2529297 -0.2628174,22.4829297 -0.2628174,23.9989297 L-0.2628174,39.7289293 C-0.2628174,41.2449293 0.99130026,42.4749293 2.53702579,42.4749293 L47.4456514,42.4749293 C48.9913769,42.4749293 50.2444748,41.2449293 50.2444748,39.7289293 L50.2444748,23.9989297 C50.2444733,22.4829102 48.9903445,21.2529297 47.4456548,21.2529297 L47.4456548,21.2529297" id="Shape"></path>
                    <path d="M25.2160075,34.5520474 C25.6057932,34.5520474 25.9711607,34.3456504 26.1999677,33.9986642 L34.3393436,21.6437623 C34.607943,21.2359538 34.6477355,20.6955328 34.4388249,20.2468438 C34.231723,19.7971576 33.8111886,19.5129879 33.3544791,19.5129879 L28.05665,19.5129879 L28.05665,3.13384359 C28.05665,1.40389804 26.7850986,0 25.2160077,0 C23.6469169,0 22.3735569,1.40290102 22.3735569,3.13384359 L22.3735569,19.5129879 L17.0757277,19.5129879 C16.6181139,19.5149821 16.1984839,19.7981547 15.9922864,20.2468438 C15.7842801,20.6955328 15.8213595,21.2369509 16.0908633,21.6437623 L24.2293343,33.9986642 C24.45995,34.3456504 24.8253175,34.5520474 25.2160075,34.5520474 Z" id="Shape"></path>
                </g>
            </g>
        </g>
    </g>
</svg>