<?xml version="1.0" encoding="UTF-8" standalone="no"?>
<svg width="60px" height="60px" viewBox="0 0 60 60" version="1.1" xmlns="http://www.w3.org/2000/svg" xmlns:xlink="http://www.w3.org/1999/xlink" xmlns:sketch="http://www.bohemiancoding.com/sketch/ns">
    <title>downloading</title>
    <description>Created with Sketch (http://www.bohemiancoding.com/sketch)</description>
    <defs></defs>
    <g id="Page 1" fill="rgb(215,215,215)" fill-rule="evenodd">
        <g id="Group" fill="rgb(0,0,0)">
            <path d="M53.4456548,25.2529297 C51.8989097,25.2529297 50.6458116,26.4829297 50.6458116,27.9989297 L50.6458116,40.9829299 L11.336869,40.9829299 L11.336869,27.9989297 C11.336869,26.4829297 10.083771,25.2529297 8.53702579,25.2529297 C6.99130026,25.2529297 5.7371826,26.4829297 5.7371826,27.9989297 L5.7371826,43.7289293 C5.7371826,45.2449293 6.99130026,46.4749293 8.53702579,46.4749293 L53.4456514,46.4749293 C54.9913769,46.4749293 56.2444748,45.2449293 56.2444748,43.7289293 L56.2444748,27.9989297 C56.2444733,26.4829102 54.9903445,25.2529297 53.4456548,25.2529297 L53.4456548,25.2529297 L53.4456548,25.2529297" id="Shape" fill="rgb(133,134,133)"></path>
            <path d="M30.2293343,37.9986642 C30.45995,38.3456504 30.8253175,38.5520474 31.2160075,38.5520474 C31.6057932,38.5520474 31.9711607,38.3456504 32.1999677,37.9986642 L40.3393436,25.6437623 C40.607943,25.2359538 40.6477355,24.6955328 40.4388249,24.2468438 C40.231723,23.7971576 39.8111886,23.5129879 39.3544791,23.5129879 L34.05665,23.5129879 L34.05665,7.13384359 C34.05665,5.40389804 32.7850986,4 31.2160077,4 C29.6469169,4 28.3735569,5.40290102 28.3735569,7.13384359 L28.3735569,23.5129879 L23.0757277,23.5129879 C22.6181139,23.5149821 22.1984839,23.7981547 21.9922864,24.2468438 C21.7842801,24.6955328 21.8213595,25.2369509 22.0908633,25.6437623 L30.2293343,37.9986642 L30.2293343,37.9986642 L30.2293343,37.9986642" id="Shape" fill="rgb(124,147,67)"></path>
        </g>
    </g>
</svg>