<?xml version="1.0" encoding="UTF-8" standalone="no"?>
<svg width="50px" height="50px" version="1.1" xmlns="http://www.w3.org/2000/svg" xmlns:xlink="http://www.w3.org/1999/xlink" xmlns:sketch="http://www.bohemiancoding.com/sketch/ns">
    <title>drop-all-songs</title>
    <description>Created with Sketch (http://www.bohemiancoding.com/sketch)</description>
    <defs>
        <linearGradient x1="50%" y1="0%" x2="50%" y2="173.920641%" id="linearGradient-1">
            <stop stop-color="rgb(123,125,121)" offset="0%"></stop>
            <stop stop-color="rgb(0,0,0)" offset="100%"></stop>
        </linearGradient>
    </defs>
    <g id="Page 1" fill="rgb(215,215,215)" fill-rule="evenodd">
        <path d="M49.3330399,10.1699049 C49.1850399,9.69890494 48.8410399,9.31690494 48.3880399,9.11990497 L34.6140397,3.14090488 C33.8420397,2.80490488 32.9370397,3.08690488 32.4920398,3.80490485 L27.4740396,11.9089049 C27.4660396,11.9209049 27.4630396,11.9329049 27.4550396,11.9459049 L15.8660399,13.287905 L15.0420399,11.357905 C14.8810399,10.977905 14.5860399,10.670905 14.2140399,10.491905 L2.43303974,4.85690478 C1.79403975,4.55190477 1.0340397,4.67490478 0.523039778,5.16390479 C0.0120398002,5.6539048 -0.140960197,6.4089048 0.13703977,7.05990482 L3.90403973,15.8799045 L3.90403973,38.5599048 C3.90403973,39.1359048 4.19603973,39.6729049 4.67903971,39.9879048 L17.1660402,48.0809052 C17.1730402,48.0839052 17.1790402,48.0849052 17.1840402,48.0889052 C17.3060402,48.1649052 17.4370402,48.2229052 17.5740402,48.2679052 C17.6030402,48.2769052 17.6350402,48.2859052 17.6640402,48.2909052 C17.8050402,48.3279052 17.9470402,48.3529052 18.0920402,48.3529052 C18.1570402,48.3529052 18.2220402,48.3489052 18.2870402,48.3409052 L41.6040396,45.6439052 C42.4620396,45.5439052 43.1080395,44.8179052 43.1080395,43.9559052 L43.1080395,21.379905 L49.1580397,11.5729048 C49.4170853,11.1518385 49.4810502,10.6408522 49.3330399,10.1699049 C49.3330399,10.1699049 49.4810502,10.6408522 49.3330399,10.1699049 L49.3330399,10.1699049 M29.939058,14.6797926 L38.5120579,20.2367928 L29.939058,21.2267928 L29.939058,14.6797926 L29.939058,14.6797926 L29.939058,14.6797926 M27.6920487,13.9728834 C27.7540487,14.0378834 27.8250487,14.0978834 27.8990487,14.1528834 L27.8990487,21.4638833 L19.7580489,22.4058833 L16.7000488,15.2448835 L27.6920487,13.9728834 L27.6920487,13.9728834 L27.6920487,13.9728834 M12.1680619,13.2837965 L15.2910618,20.5957963 L7.29206171,15.4127962 C7.28706171,15.3387962 7.28406171,15.2667962 7.26906171,15.1927962 C7.24606171,15.0787962 7.21006171,14.9687962 7.16506171,14.8657962 L5.03206181,9.87179629 L12.1680619,13.2837965 L12.1680619,13.2837965 L12.1680619,13.2837965 M7.30307164,17.8508131 L16.3910719,23.7388131 L16.3910719,43.5258138 L7.30307164,37.6358139 L7.30307164,17.8508131 L7.30307164,17.8508131 L7.30307164,17.8508131 M19.7910477,44.7448561 L19.7910477,24.5788557 C19.8220477,24.5358557 19.8510477,24.4908557 19.8780477,24.4458557 L39.7080476,22.1518558 L39.7080476,42.4408554 L19.7910477,44.7448561 L19.7910477,44.7448561 L19.7910477,44.7448561 M40.5160843,19.1038649 L30.883084,12.8618648 L34.6080839,6.84586499 L45.2340843,11.456865 L40.5160843,19.1038649 L40.5160843,19.1038649 L40.5160843,19.1038649" id="Shape" fill="url(#linearGradient-1)"></path>
    </g>
</svg>