<?xml version="1.0" encoding="UTF-8" standalone="no"?>
<svg width="71px" height="79px" version="1.1" xmlns="http://www.w3.org/2000/svg" xmlns:xlink="http://www.w3.org/1999/xlink" xmlns:sketch="http://www.bohemiancoding.com/sketch/ns">
    <title>drop-local-songs</title>
    <description>Created with Sketch (http://www.bohemiancoding.com/sketch)</description>
    <defs>
        <linearGradient x1="50%" y1="0%" x2="50%" y2="173.920641%" id="linearGradient-1">
            <stop stop-color="rgb(123,125,121)" offset="0%"></stop>
            <stop stop-color="rgb(0,0,0)" offset="100%"></stop>
        </linearGradient>
    </defs>
    <g id="Page 1" fill="rgb(215,215,215)" fill-rule="evenodd">
        <g id="Group" fill="rgb(0,0,0)">
            <path d="M27.4935528,61.3216133 L25.9067853,61.3216133 L25.9067853,69.1248131 L27.729669,69.1248131 C28.1275992,69.1248131 28.4413201,69.1152131 28.6675295,69.0928131 C28.8937388,69.0704131 29.1265527,69.0208131 29.3709248,68.9360131 C29.6152969,68.8512131 29.8233434,68.7328131 30.0049714,68.5824131 C30.8074365,67.9232131 31.208669,66.788813 31.208669,65.1792129 C31.208669,64.0432129 31.0336457,63.1936128 30.6786457,62.6288129 C30.3253018,62.065625 29.8893319,61.7087891 29.3709248,61.5536133 C28.8541109,61.4000133 28.2283202,61.3216133 27.4935528,61.3216133 Z M27.4935528,61.3216133" id="Shape" fill="url(#linearGradient-1)"></path>
            <path d="M69.5353791,3.84316406 L66.612821,0.943964005 C66.0266582,0.363163996 65.2192396,0.031964016 64.3771466,0.031964016 L3.66058954,0.031964016 C1.93512449,0.031964016 0.534938363,1.388764 0.534938363,3.06076403 L0.534938363,75.7167638 C0.534938363,77.3887637 1.93512439,78.7423638 3.66058954,78.7423638 L67.2980553,78.7423638 C69.0235203,78.7423638 70.4237064,77.3887638 70.4237064,75.7167638 L70.4237064,5.95996447 C70.4221333,5.16796875 70.1033694,4.40800781 69.5353791,3.84316406 C69.5353791,3.84316406 70.1033694,4.40800781 69.5353791,3.84316406 L69.5353791,3.84316406 M60.6158348,60.0864258 C59.4946952,61.1728258 57.5413697,61.1728258 56.4185789,60.0864258 L43.1366259,47.2160263 L38.6058353,42.8256264 C38.04444,42.2816264 37.7356725,41.5600264 37.7356725,40.7920263 C37.7356725,40.0256263 38.0460911,39.3008264 38.6058353,38.7584263 C39.1655795,38.2160262 39.9119051,37.9184263 40.7044633,37.9184263 C41.4970214,37.9184263 42.2416958,38.2160263 42.8030912,38.7584263 L48.2238586,44.0112263 L60.6174866,56.0224262 C61.178882,56.5664262 61.4859983,57.2880262 61.4859983,58.0560263 C61.484348,58.8223633 61.1772745,59.544043 60.6158348,60.0864258 C60.6158348,60.0864258 61.1772745,59.544043 60.6158348,60.0864258 L60.6158348,60.0864258 M20.9070023,69.7536133 C20.9070023,70.2288133 20.7914209,70.5856133 20.5652116,70.8192133 C20.3390023,71.0528133 20.0467465,71.1728133 19.6917465,71.1728133 C19.3301419,71.1728133 19.0411884,71.0544133 18.8265372,70.8160133 C18.6118861,70.5792133 18.5029093,70.2240133 18.5029093,69.7536133 L18.5029093,65.8864132 L13.3133049,65.8864132 L13.3133049,69.7536133 C13.3133049,70.2288133 13.2026769,70.5856133 12.9748165,70.8192133 C12.7486072,71.0528133 12.4563514,71.1728133 12.1013514,71.1728133 C11.7397467,71.1728133 11.4491421,71.0544133 11.234491,70.8160133 C11.021491,70.5792133 10.9125142,70.2240133 10.9125142,69.7536134 L10.9125142,60.6944131 C10.9125142,60.2240131 11.0181887,59.8688131 11.2311887,59.6352131 C11.4458398,59.4016131 11.7347933,59.2816131 12.1013515,59.2816131 C12.4629561,59.2816131 12.7552119,59.4000131 12.9781189,59.6320131 C13.2026771,59.8656131 13.313305,60.2192131 13.313305,60.694413 L13.313305,63.990413 L18.5029094,63.990413 L18.5029094,60.694413 C18.5029094,60.224013 18.6118862,59.8688131 18.8314908,59.635213 C19.0494443,59.401613 19.3383978,59.281613 19.6917467,59.281613 C20.0533513,59.281613 20.3456072,59.400013 20.5685142,59.632013 C20.7947235,59.865613 20.9070025,60.2192131 20.9070025,60.694413 L20.9070025,69.7536133 L20.9070025,69.7536133 L20.9070023,69.7536133 M33.4591249,67.0879883 C33.3352877,67.6543883 33.1437528,68.1695883 32.8845203,68.6287883 C32.6269389,69.0847883 32.2950552,69.4943883 31.887218,69.8543882 C31.5701947,70.1327882 31.2217994,70.3551882 30.8420319,70.5231883 C30.4639156,70.6911883 30.0593807,70.8079883 29.625125,70.8751883 C29.1908691,70.9455883 28.7004738,70.9759883 28.1555901,70.9759883 L25.0249854,70.9759883 C24.5874273,70.9759883 24.2588459,70.9135883 24.0359389,70.7855883 C23.8146831,70.6575883 23.6693808,70.4767882 23.6033343,70.2415882 C23.5356366,70.0095883 23.5009622,69.7071883 23.5009622,69.3359883 L23.5009622,60.9071881 C23.5009622,60.4047881 23.6165436,60.0415881 23.8493575,59.8159881 C24.0821715,59.5871881 24.4553343,59.4783881 24.9754505,59.4783881 L28.1077063,59.4783881 C28.9217295,59.4783881 29.6201714,59.5519881 30.2030319,59.7007881 C30.7875436,59.8447881 31.3159157,60.1199881 31.7897994,60.5231881 C33.0248692,61.5487881 33.642404,63.1071881 33.642404,65.198388 C33.6440543,65.8864258 33.5829823,66.5167969 33.4591249,67.0879883 C33.4591249,67.0879883 33.5829823,66.5167969 33.4591249,67.0879883 L33.4591249,67.0879883 M34.9584138,48.9248047 C23.9402047,48.9248047 15.0057632,40.2704048 15.0057632,29.5904053 C15.0057632,18.9120056 23.9402047,10.2560059 34.9584138,10.2560059 C45.9799257,10.2560059 54.914368,18.9120056 54.914368,29.5904053 C54.914368,34.1424053 53.2797168,38.3184052 50.5652051,41.6224052 L45.2055306,36.4288052 C44.001833,35.2624052 42.4035073,34.6192051 40.7028097,34.6192051 C39.002112,34.6192051 37.4037864,35.2624051 36.1984377,36.4288052 C34.9963912,37.5952051 34.334275,39.1440052 34.334275,40.7920052 C34.334275,42.4416052 34.9963913,43.9920052 36.1984377,45.156805 L39.5420425,48.3952049 C38.0708718,48.7311523 36.5402406,48.9248047 34.9584138,48.9248047 L34.9584138,48.9248047 L34.9584138,48.9248047" id="Shape" fill="url(#linearGradient-1)"></path>
            <path d="M34.9600262,33.3696297 C37.1139625,33.3696297 38.8600727,31.6776243 38.8600727,29.5904297 C38.8600727,27.5032351 37.1139625,25.8112297 34.9600262,25.8112297 C32.8060899,25.8112297 31.0599797,27.5032351 31.0599797,29.5904297 C31.0599797,31.6776243 32.8060899,33.3696297 34.9600262,33.3696297 Z M34.9600262,33.3696297" id="Oval" fill="rgb(111,111,111)"></path>
        </g>
    </g>
</svg>