<?xml version="1.0" encoding="UTF-8" standalone="no"?>
<svg width="63px" height="63px" version="1.1" xmlns="http://www.w3.org/2000/svg" xmlns:xlink="http://www.w3.org/1999/xlink" xmlns:sketch="http://www.bohemiancoding.com/sketch/ns">
    <title>drop-top-songs</title>
    <description>Created with Sketch (http://www.bohemiancoding.com/sketch)</description>
    <defs>
        <linearGradient x1="50%" y1="0%" x2="50%" y2="173.920641%" id="linearGradient-1">
            <stop stop-color="rgb(123,125,121)" offset="0%"></stop>
            <stop stop-color="rgb(0,0,0)" offset="100%"></stop>
        </linearGradient>
    </defs>
    <g id="Page 1" fill="rgb(215,215,215)" fill-rule="evenodd">
        <path d="M32.8110273,30.8057732 C32.7910273,31.0127732 32.7600273,31.2197732 32.7140278,31.5247735 C32.0270275,35.4157733 28.7340277,38.879773 22.8650278,41.813773 C22.4790278,41.947773 22.1410278,42.045773 21.7990278,42.135773 C21.7650278,42.143773 21.7300278,42.147773 21.6970278,42.147773 C21.5350278,42.147773 21.3840278,42.053773 21.3180278,41.899773 C21.2360278,41.713773 21.3020278,41.494773 21.4740278,41.387773 C23.8120278,39.8857732 24.9240278,38.1727731 24.7790279,36.2937731 C24.7890279,35.9307732 24.7670279,35.6397732 24.7070279,35.3527732 C24.5690278,34.5477731 24.2350279,33.6807732 23.8820279,32.7607732 C23.1330279,30.795773 22.2970279,28.6107731 23.2270279,26.637773 C21.3360278,27.6027732 20.6980278,30.0447731 20.5340278,30.8667731 C20.4990278,31.0347731 20.3640278,31.1677731 20.1940278,31.1927731 C20.0200278,31.2277731 19.8540278,31.1397731 19.7680278,30.9897731 C18.0980278,28.0657733 17.7350278,25.1497732 17.6800278,22.6007732 C16.3230277,23.7497731 15.9870277,25.4247729 15.6350277,27.188773 C15.6410277,29.4037731 15.1290276,31.0637732 13.9280277,32.6657732 C13.8280277,32.7997732 13.6600277,32.8607732 13.4980277,32.8197732 C13.3370277,32.7807732 13.2150277,32.6497732 13.1870277,32.4857732 C12.8900277,30.7037732 11.6300276,29.8647731 10.2960276,28.9737732 C10.2640276,28.9527732 10.2330276,28.9327732 10.2000276,28.9117732 C10.4650276,30.3957731 10.2990276,31.9837731 10.1410276,33.5307731 C9.83802766,36.440773 9.55302757,39.1927729 12.0430276,41.0797729 C12.1850276,41.1447729 12.2870276,41.2887729 12.2870276,41.4587729 C12.2870276,41.6867729 12.1020276,41.8707729 11.8570276,41.8707729 C11.8200276,41.8707729 11.7810276,41.8667729 11.7440276,41.8547729 C10.3080275,41.450773 8.9060274,40.9077729 7.5820274,40.2457729 C0.988027183,36.191774 1.64202717,29.9117738 2.27602717,23.8417736 C2.65202716,20.2377735 3.0380272,16.5117734 1.88202718,13.3297735 C1.81802718,13.1577735 1.87702718,12.9637735 2.02302718,12.8547735 C2.17102718,12.7477735 2.37202719,12.7457735 2.51802718,12.8547735 C3.13602722,13.3197735 3.80202722,13.7627735 4.4470272,14.1907735 C6.89202714,15.8237734 9.41802716,17.5057733 10.3230271,20.8177734 C12.0840271,18.1867733 12.844027,15.3787732 12.844027,11.6167731 C13.6450272,7.58677293 14.4610271,3.506773 18.5410271,1.05777312 C18.6710271,0.981773123 18.8300271,0.981773123 18.9590271,1.05177312 C19.0880271,1.12377312 19.1680271,1.26277312 19.1680271,1.41077312 C19.1680271,8.24877342 20.1480271,13.0127734 22.5230271,17.5357731 C23.2450272,14.8457731 25.2870275,9.71477308 30.4610273,8.85177311 C30.6320273,8.8207731 30.8040273,8.90477309 30.8900273,9.0547731 C30.9760273,9.2097731 30.9560273,9.3987731 30.8430273,9.5317731 C29.5460273,11.042773 29.0720273,12.681773 29.0660273,14.388773 C29.0660273,15.064773 29.1300274,15.752773 29.2590274,16.447773 C29.5970274,18.2937732 30.3190274,20.1847732 31.0320274,22.0497732 C31.0600274,22.1267732 31.0870274,22.1987732 31.1360274,22.3217732 C31.2850273,22.7147732 31.4330273,23.1047732 31.5740273,23.4877732 C31.6400273,23.6667732 31.7010273,23.8427732 31.7630273,24.0207732 C31.8510273,24.2687733 31.9430273,24.5207732 32.0250273,24.7647732 C32.1070273,25.0147732 32.1760273,25.2587732 32.2500273,25.5067732 C32.2960273,25.6747732 32.3570273,25.8467732 32.4000273,26.0127732 C32.5090273,26.4247732 32.6030273,26.8297732 32.6710273,27.2297732 C32.8070273,27.8767732 32.8600273,28.5347732 32.8280273,29.2337732 C32.8480273,29.5057732 32.8550273,29.7767732 32.8520273,30.0427732 C32.8520273,30.2027732 32.8390273,30.3627732 32.8310273,30.5227732 C32.8230273,30.6167732 32.8190273,30.7117732 32.8110273,30.8057732 Z M60.2808874,42.147773 C61.5212614,42.147773 62.5238971,43.2257296 62.5238971,44.5561804 C62.5238971,45.8866313 61.5212613,46.9645878 60.2808874,46.9645878 L31.5597678,46.9645878 C30.3206859,46.9645878 29.3154661,45.8866313 29.3154661,44.5561804 C29.3154661,43.2257296 30.3206859,42.147773 31.5597678,42.147773 Z M26.948989,56.5807649 L59.725527,56.5807649 C61.1410417,56.5807649 62.2852494,57.6587214 62.2852494,58.9891723 C62.2852494,60.3196231 61.1410416,61.3975796 59.725527,61.3975796 L26.948989,61.3975796 C25.5349488,61.3975796 24.3877921,60.3196231 24.3877921,58.9891723 C24.3877921,57.6587214 25.5349488,56.5807649 26.948989,56.5807649 Z M62.5238971,29.3554278 C62.5238971,30.6844914 61.7034732,31.762448 60.6861477,31.762448 L37.1542742,31.762448 C36.1390659,31.762448 35.3154662,30.6844914 35.3154662,29.3554278 C35.3154662,28.0263643 36.1390659,26.9470205 37.1542742,26.9470205 L60.6861477,26.9470205 C61.7034732,26.9470205 62.5238971,28.0263643 62.5238971,29.3554278 Z M62.5238971,29.3554278" id="Shape" fill="url(#linearGradient-1)"></path>
    </g>
</svg>