<?xml version="1.0" encoding="UTF-8" standalone="no"?>
<svg width="100px" height="100px" version="1.1" xmlns="http://www.w3.org/2000/svg" xmlns:xlink="http://www.w3.org/1999/xlink" xmlns:sketch="http://www.bohemiancoding.com/sketch/ns">
    <title>drop-local-songs</title>
    <description>Created with Sketch (http://www.bohemiancoding.com/sketch)</description>
    <defs>
        <linearGradient x1="50%" y1="0%" x2="50%" y2="173.920641%" id="linearGradient-1">
            <stop stop-color="rgb(123,125,121)" offset="0%"></stop>
            <stop stop-color="rgb(0,0,0)" offset="100%"></stop>
        </linearGradient>
    </defs>
    <g id="Page 1" fill="rgb(215,215,215)" fill-rule="evenodd">
        <path d="M100,0 L100,100 L0,100 L0,0 Z M19.5625031,72.6678414 C18.4217871,75.5373811 18.5981917,78.4188374 20.0517163,80.5733755 C21.5028808,82.7279137 23.9771753,83.912433 27.0159193,83.912433 C29.7818463,83.912433 32.7453525,82.9138141 35.3725065,81.09771 C35.7511688,80.8379261 36.0804458,80.5376255 36.4332427,80.2540082 C36.5908315,80.1253079 36.760174,79.9989909 36.9177503,79.865524 C37.0823888,79.7225237 37.2423234,79.57714 37.3999123,79.429373 C37.5316231,79.3078227 37.6656796,79.1958058 37.7950447,79.0671056 C41.4241419,75.4873312 42.854145,70.8565044 41.445316,67.5126804 L41.445316,37.4873938 L68.1990685,29.1170961 L68.1990685,54.3232975 C67.9968109,54.3352016 67.7945281,54.3709517 67.5922579,54.3995517 C67.3170827,54.3757184 67.0371909,54.3566516 66.7479038,54.3566516 C63.9843346,54.3566516 61.0137793,55.3552707 58.3983788,57.1689913 C55.8135479,58.9541119 53.8308361,61.3517632 52.812423,63.9162229 C51.6717196,66.783379 51.8528156,69.6648353 53.3016471,71.8193734 C54.7551701,73.9739115 57.2317979,75.1584308 60.2705545,75.1584308 C63.0294319,75.1584308 65.9999752,74.1598119 68.6200795,72.3437079 C71.2002066,70.5585876 73.1829185,68.1633321 74.2036774,65.5988598 C74.5188426,64.805208 74.7258167,64.0139396 74.84107,63.2322046 C75.3326273,61.3755836 75.3091075,59.5594796 74.6599613,58.0198429 L74.6599613,20.053259 C74.6599613,19.9650754 74.6599613,19.8816586 74.6458494,19.7982417 L74.6458494,18.5803557 C74.6458494,17.7890873 74.2742368,17.0431024 73.6486104,16.5735846 C73.0206383,16.1016836 72.2139033,15.9658333 71.4589243,16.1994005 L36.6566855,27.0912573 C35.6241606,27.4130081 34.9209252,28.3806435 34.9209252,29.4745959 C34.9209252,35.6426763 34.9326788,41.8202898 34.9467907,48.0122036 C34.9609151,53.0720446 34.9703481,58.143776 34.9773727,63.2226707 C34.497569,63.1559372 34.0107031,63.1082704 33.495626,63.1082704 C30.7296984,63.1082704 27.7638594,64.1092727 25.1437426,65.9229933 C22.5589243,67.7104972 20.583262,70.1033691 19.5625031,72.6678414 Z M19.5625031,72.6678414" id="path16" fill="url(#linearGradient-1)"></path>
    </g>
</svg>