<?xml version="1.0" encoding="UTF-8" standalone="no"?>
<svg width="51px" height="51px" version="1.1" xmlns="http://www.w3.org/2000/svg" xmlns:xlink="http://www.w3.org/1999/xlink" xmlns:sketch="http://www.bohemiancoding.com/sketch/ns">
    <title>drop-album</title>
    <description>Created with Sketch (http://www.bohemiancoding.com/sketch)</description>
    <defs>
        <linearGradient x1="50%" y1="0%" x2="50%" y2="173.920641%" id="linearGradient-1">
            <stop stop-color="rgb(123,125,121)" offset="0%"></stop>
            <stop stop-color="rgb(0,0,0)" offset="100%"></stop>
        </linearGradient>
    </defs>
    <g id="Page 1" fill="rgb(215,215,215)" fill-rule="evenodd">
        <path d="M25.9320068,0.185058594 C12.1530066,0.185058594 0.943006516,11.3970585 0.943006516,25.1750584 C0.943006516,38.9540586 12.1530066,50.1640587 25.9320068,50.1640587 C39.7110071,50.1640587 50.9210072,38.9540586 50.9210072,25.1750584 C50.9210205,11.3959961 39.7109985,0.185058594 25.9320068,0.185058594 L25.9320068,0.185058594 L25.9320068,0.185058594 M25.9320068,46.6090088 C14.1130066,46.6090088 4.49800682,36.9930086 4.49800682,25.1740093 C4.49800682,21.5570092 5.40000683,18.1510096 6.98800683,15.1570091 C8.56000686,12.1950092 10.8080068,9.64500904 13.5220068,7.71200895 C13.9780068,7.38800895 14.4450067,7.07700896 14.9250067,6.78900898 C15.4310067,6.48300898 15.9520067,6.20300895 16.4830067,5.940009 C19.3360066,4.53100896 22.5420067,3.73900902 25.9310067,3.73900902 C37.7500069,3.73900902 47.3670075,13.3520089 47.3670075,25.1740085 C47.3670075,28.5620085 46.5720075,31.7680084 45.1660075,34.6190082 C43.6780075,37.6380082 41.5000076,40.2580081 38.8400073,42.2720081 C38.3950073,42.6070081 37.9350073,42.922008 37.4650073,43.2260081 C36.9710073,43.5420081 36.4660073,43.8400081 35.9460073,44.117008 C32.9550171,45.7060547 29.5469971,46.6090088 25.9320068,46.6090088 Z M34.2230069,26.1750488 C34.2230069,25.8660488 34.2030069,25.5660488 34.1700069,25.2650488 C33.7540069,21.4620488 30.755007,18.4310487 26.9690067,17.9550489 C26.6290067,17.9140489 26.2840067,17.8820489 25.9320068,17.8820489 C25.6410068,17.8820489 25.3500067,17.8990489 25.0670068,17.9290489 C24.4090068,17.9980489 23.7780067,18.1510489 23.1740067,18.3660489 C19.9550066,19.5050489 17.6410068,22.5720487 17.6410068,26.1760488 C17.6410068,26.4020488 17.6570068,26.6240488 17.6750068,26.8460488 C18.0000067,30.8820486 21.2250067,34.107049 25.2600068,34.4330487 C25.4830068,34.4520487 25.7050068,34.4670487 25.9320068,34.4670487 C26.4850068,34.4670487 27.0220068,34.4080487 27.5430067,34.3070487 C28.1580067,34.1850487 28.7460067,33.9930487 29.3050067,33.7420487 C32.1979825,32.4439697 34.2230069,29.5439453 34.2230069,26.1750488 Z M26,30 C23.7908609,30 22,28.2091391 22,26 C22,23.7908609 23.7908609,22 26,22 C28.2091391,22 30,23.7908609 30,26 C30,28.2091391 28.2091391,30 26,30 Z M26,30" id="Shape" fill="url(#linearGradient-1)"></path>
    </g>
</svg>