<?xml version="1.0" encoding="UTF-8" standalone="no"?>
<svg width="50px" height="50px" version="1.1" xmlns="http://www.w3.org/2000/svg" xmlns:xlink="http://www.w3.org/1999/xlink" xmlns:sketch="http://www.bohemiancoding.com/sketch/ns">
    <title>filter</title>
    <description>Created with Sketch (http://www.bohemiancoding.com/sketch)</description>
    <defs></defs>
    <g id="Page 1" fill="rgb(223,223,223)" fill-rule="evenodd">
        <g id="Group" fill="rgb(0,0,0)">
            <path d="M29.0449829,42.8669434 L26.8129828,45.0699434 L22.750983,41.0619435 C22.429983,40.7459435 22.010983,40.5849435 21.591983,40.5849435 C21.171983,40.5849435 20.752983,40.7449435 20.431983,41.0619435 L16.3719831,45.0699434 L12.3119831,41.0619435 C11.6679831,40.4279435 10.6349831,40.4279435 9.99098301,41.0619435 L6.08898306,44.9169436 L3.68798304,42.5459435 L3.68798304,3.52094197 L29.0449834,3.52094197 L29.0449834,5.11894202 C30.2129834,5.53694203 31.3199835,6.08594203 32.3459835,6.74994206 L32.3459835,1.87094188 C32.3459835,0.958941877 31.6079835,0.220941901 30.6949835,0.220941901 L2.03698254,0.220941901 C1.12598252,0.220941901 0.385982513,0.958941877 0.385982513,1.87094188 L0.385982513,43.2359436 C0.385982513,43.6769436 0.563982517,44.1009436 0.87698251,44.4099436 L4.92898256,48.4119434 C5.57298255,49.0479434 6.60498255,49.0479434 7.24998266,48.4119434 L11.1529828,44.5569434 L15.2119828,48.5649433 C15.8569828,49.1999433 16.8899828,49.2019433 17.5329829,48.5649433 L21.5929828,44.5569434 L25.6549826,48.5649433 C25.9759826,48.8829433 26.3939826,49.0419433 26.8139827,49.0419433 C27.2339827,49.0419433 27.6519827,48.8839433 27.9739826,48.5649433 L31.8579827,44.7309432 C32.1709827,44.4219432 32.3469827,43.9979432 32.3469827,43.5579432 L32.3469827,33.613943 C31.3219827,34.276943 30.2139828,34.828943 29.0459826,35.246943 L29.0459826,42.8669434 L29.0459826,42.8669434 L29.0449829,42.8669434" id="Shape" fill="rgb(99,99,99)"></path>
            <path d="M37.0369873,20.1810303 C37.0369873,16.1160302 35.2129873,12.4830303 32.3459873,10.03403 C31.3599873,9.19202995 30.2499874,8.48903 29.0449872,7.96202993 C27.4039872,7.24102992 25.5929873,6.83502996 23.685987,6.83502996 C20.306987,6.83502996 17.2299871,8.10102999 14.8789868,10.17003 L11.2319868,10.17003 L8.04698682,10.17003 C7.68198681,10.17003 7.38698679,10.46603 7.38698679,10.83103 C7.38698679,11.19403 7.68198678,11.49103 8.04698682,11.49103 L10.2759869,11.49103 L13.5689869,11.49103 C12.3149869,12.95003 11.3759868,14.68203 10.8419869,16.5880302 L8.10998678,16.5880302 L8.04798678,16.5880302 C7.68298677,16.5880302 7.38798676,16.8840302 7.38798676,17.2470301 C7.38798676,17.5490301 7.59198675,17.7930301 7.86698676,17.8720301 C7.92598676,17.8900301 7.98498676,17.9100301 8.04898676,17.9100301 L10.5479868,17.9100301 C10.4209868,18.6490302 10.3409868,19.4050301 10.3409868,20.18103 C10.3409868,21.19003 10.4619868,22.16703 10.6739868,23.1100299 L8.04898683,23.1100299 C8.02398683,23.1100299 7.99998683,23.1220299 7.97498683,23.1270299 C7.64698682,23.1630299 7.3889868,23.4330299 7.3889868,23.7710299 C7.3889868,24.13603 7.68398679,24.43103 8.04898683,24.43103 L8.27798683,24.43103 L11.0429869,24.43103 C11.7089869,26.41103 12.816987,28.1890299 14.2639869,29.63403 L10.801987,29.63403 L8.04998691,29.63403 C7.6849869,29.63403 7.38998688,29.92903 7.38998688,30.2940301 C7.38998688,30.6570301 7.68498687,30.9540301 8.04998691,30.9540301 L11.8829869,30.9540301 L15.8269869,30.9540301 C18.0339869,32.5670301 20.745987,33.5300301 23.6879869,33.5300301 C25.5949869,33.5300301 27.406987,33.1260301 29.0469871,32.4030301 C30.2519872,31.8760301 31.360987,31.1730301 32.3479872,30.3310301 C35.2130127,27.8809814 37.0369873,24.2459717 37.0369873,20.1810303 C37.0369873,20.1810303 37.0369873,24.2459717 37.0369873,20.1810303 L37.0369873,20.1810303 M29.0449829,28.875 C27.4859829,29.84 25.6549828,30.404 23.6859827,30.4069999 C20.2479827,30.4009999 17.2209826,28.7029999 15.3679829,26.104 L25.2249832,26.104 C26.1349832,26.104 26.8729832,25.3649999 26.8729832,24.4529999 C26.8729832,23.5429999 26.1349832,22.803 25.2249832,22.803 L13.9429836,22.803 C13.9009836,22.803 13.8609836,22.815 13.8179836,22.817 C13.5929836,21.975 13.4609836,21.0939999 13.4579836,20.1810001 C13.4609836,19.2540001 13.5969836,18.3600001 13.8289836,17.5060001 C13.8679836,17.5100001 13.9029836,17.5180001 13.9429836,17.5180001 L25.2249832,17.5180001 C26.1349832,17.5180001 26.8729832,16.7800001 26.8729832,15.8680001 C26.8729832,14.9560001 26.1349832,14.2180002 25.2249832,14.2180002 L15.398983,14.2180002 C17.253983,11.6440003 20.2679829,9.96100018 23.6859827,9.95200036 C25.6559827,9.95800036 27.4869828,10.5240004 29.0449829,11.4870003 C30.3819829,12.3130003 31.5119829,13.4340004 32.345983,14.7650004 C33.331983,16.3360004 33.911983,18.1880005 33.9159831,20.1810003 C33.9119831,22.1750003 33.3319831,24.0280002 32.345983,25.6000005 C31.5120239,26.9300537 30.382019,28.0510254 29.0449829,28.875 C29.0449829,28.875 30.382019,28.0510254 29.0449829,28.875 L29.0449829,28.875" id="Shape" fill="rgb(99,99,99)"></path>
            <path d="M49.0710449,40.1020508 L37.3900452,28.4140511 L37.3510452,28.3750511 C36.1150452,30.4360512 34.4350453,32.195051 32.432045,33.5120511 L32.460045,33.5410511 L44.0450451,45.1290514 C45.1910451,46.2740514 47.0680451,46.2740514 48.2140452,45.1230514 L49.0700452,44.2710514 C50.2189941,43.125 50.2189941,41.2459717 49.0710449,40.1020508 C49.0710449,40.1020508 50.2189941,41.2459717 49.0710449,40.1020508 L49.0710449,40.1020508" id="Shape" fill="rgb(99,99,99)"></path>
        </g>
    </g>
</svg>