<?xml version="1.0" encoding="UTF-8" standalone="no"?>
<svg width="90px" height="90px" viewBox="0 0 90 90" version="1.1" xmlns="http://www.w3.org/2000/svg" xmlns:xlink="http://www.w3.org/1999/xlink" xmlns:sketch="http://www.bohemiancoding.com/sketch/ns">
    <title>folder</title>
    <description>Created with Sketch (http://www.bohemiancoding.com/sketch)</description>
    <defs></defs>
    <g id="Page-1" stroke="none" stroke-width="1" fill="none" fill-rule="evenodd" sketch:type="MSPage">
        <path d="M87.1450038,24.4833376 C85.8248024,23.1092149 83.9427764,22.3195294 81.9789985,22.3195294 L75.233622,22.3195294 L37.4730823,22.3195294 L37.4730823,21.0184614 C37.4730823,17.1483061 34.3247762,14 30.4563602,14 L13.1441555,14 C9.27226058,14 6.12569415,17.1500456 6.12569415,21.0184614 L6.12569415,23.4918821 C4.2088801,24.761641 3,26.9237099 3,29.3362515 L3,68.4987445 C3,68.5057021 3,68.5178779 3.0017394,68.5265748 L3,68.5439688 C3,72.3897726 6.14656684,75.5154666 10.0184614,75.5154666 L75.2336242,75.5154666 C75.4736608,75.5154666 75.7102186,75.5050302 75.9432977,75.4789393 C75.9850432,75.4771999 76.028528,75.4650241 76.0702735,75.4615453 C76.2616071,75.4389332 76.4529406,75.4145816 76.6390559,75.3745755 C76.6686257,75.3693573 76.6947166,75.3606604 76.7242863,75.3519634 C76.9225774,75.3119573 77.1208685,75.2597754 77.3139414,75.200636 C77.3243778,75.1954178 77.3348142,75.191939 77.3452506,75.1884602 C79.756053,74.4300837 81.5998126,72.4123847 82.1059765,69.9198305 C82.1077159,69.912873 82.1077159,69.9024366 82.1077159,69.895479 C82.1512008,69.6937091 82.18251,69.4919392 82.2051221,69.2797329 C82.2103403,69.2240723 82.2155585,69.1684116 82.2190373,69.1092721 C82.2277343,69.0136054 82.2433888,68.9266356 82.2451282,68.8309688 L88.9539776,29.7937099 L88.9939837,29.4127822 C89.0705187,27.5587047 88.4147685,25.8086925 87.1450038,24.4833376 C87.1450038,24.4833376 88.4147685,25.8086925 87.1450038,24.4833376 L87.1450038,24.4833376 M76.353802,68.0395724 L76.3120565,68.5422577 C76.3120565,69.1110401 75.8302439,69.5754587 75.2353705,69.5754587 L10.0184665,69.5754587 C9.48273268,69.5754587 9.03918673,69.2014886 8.95569578,68.7127185 L15.6454115,29.7867827 C15.7341207,29.2527882 15.9028421,28.2578539 17.7761713,28.2578539 L81.9807431,28.2578539 C82.3286222,28.2578539 82.657368,28.3830904 82.8573985,28.5935573 C82.9791562,28.7187937 83.0435138,28.8614242 83.057429,29.0353638 L76.353802,68.0395724 L76.353802,68.0395724 L76.353802,68.0395724" id="Shape" fill="#706F6F" sketch:type="MSShapeGroup"></path>
    </g>
</svg>