<?xml version="1.0" encoding="UTF-8" standalone="no"?>
<svg width="51px" height="51px" version="1.1" xmlns="http://www.w3.org/2000/svg" xmlns:xlink="http://www.w3.org/1999/xlink" xmlns:sketch="http://www.bohemiancoding.com/sketch/ns">
    <title>forward</title>
    <description>Created with Sketch (http://www.bohemiancoding.com/sketch)</description>
    <defs>
        <linearGradient x1="50%" y1="50%" x2="50%" y2="0%" id="linearGradient-1">
            <stop stop-color="rgb(37,41,44)" offset="0%"></stop>
            <stop stop-color="rgb(0,0,0)" stop-opacity="0.5" offset="100%"></stop>
        </linearGradient>
        <path d="M49.9019998,21.8483483 L30.0010007,7.39334835 C29.6000007,7.10034834 29.1180007,6.98134835 28.6410007,7.00234835 C28.4940007,7.00834835 28.3510007,7.02134835 28.2110007,7.05834835 C28.0530007,7.09034835 27.8990007,7.14134835 27.7490007,7.21634836 C27.0260007,7.58634836 26.5690007,8.33034832 26.5690007,9.1433484 L26.5690007,18.5523488 L7.046,18.5523488 C4.25900006,18.5513488 2,20.8103487 2,23.5983488 C2.002,26.3843488 4.25900006,28.6433489 7.046,28.6433489 L26.5679994,28.6433489 L26.5689994,32.7563488 L26.5689994,38.0533487 C26.5689994,38.2343487 26.6009994,38.4113487 26.6439994,38.5813487 C26.6549994,38.6303487 26.6699994,38.6773487 26.6859994,38.7243487 C26.7299994,38.8563487 26.7849994,38.9823487 26.8519994,39.1033487 C26.8719994,39.1393487 26.8879994,39.1763487 26.9109994,39.2103487 C26.9959994,39.3433487 27.0909994,39.4703487 27.2019994,39.5813487 C27.3829994,39.7493487 27.5559994,39.8793487 27.7489993,39.9773487 C28.4749994,40.3473487 29.3449993,40.2803487 30.0029993,39.8013487 L49.9019995,25.3473483 C50.4599919,24.9394127 50.7929997,24.2895104 50.7929997,23.5983483 C50.7919997,22.9033483 50.4599997,22.2553482 49.9019998,21.8483483 Z M49.9019998,21.8483483" id="path-2"></path>
    </defs>
    <g id="Page 1" fill="rgb(215,215,215)" fill-rule="evenodd">
        <use id="Shape" stroke="rgb(150,150,150)" stroke-width="1" fill="url(#linearGradient-1)" xlink:href="#path-2"></use>
        <use id="Shape-1" stroke="none" fill="none" xlink:href="#path-2"></use>
    </g>
</svg>