<?xml version="1.0" encoding="UTF-8" standalone="no"?>
<svg width="46px" height="46px" version="1.1" xmlns="http://www.w3.org/2000/svg" xmlns:xlink="http://www.w3.org/1999/xlink" xmlns:sketch="http://www.bohemiancoding.com/sketch/ns">
    <title>headphones-off</title>
    <description>Created with Sketch (http://www.bohemiancoding.com/sketch)</description>
    <defs>
        <path d="M22.9489994,3 C35.6030006,3 45.8990002,13.3579998 45.8990002,26.0900002 C45.8990002,30.10709 44.8480053,34.0531349 42.8749985,37.5289989 L42.8749985,40.066999 C42.8749985,40.9539864 42.3148781,41.7097526 41.5294123,42 L35.2420579,42 C34.4561193,41.7097529 33.895999,40.9539867 33.895999,40.0669993 L33.895999,26.431999 C33.895999,25.2939991 34.8179989,24.3719991 35.9559989,24.3719991 L40.815999,24.3719991 C41.140999,24.3719991 41.444999,24.4539991 41.717999,24.5889991 C40.9559999,14.8269995 32.8329998,7.11599952 22.9499994,7.11599952 C13.0770002,7.11599952 4.95700002,14.8149999 4.185,24.5669997 C4.44700003,24.4439997 4.73800001,24.3719997 5.046,24.3719997 L9.90600014,24.3719997 C11.0430002,24.3719997 11.9650002,25.2939997 11.9650002,26.4319997 L11.9650002,40.0669999 C11.9650002,41.2049999 11.0430001,42.1269999 9.90600014,42.1269999 L5.046,42.1269999 C3.90800005,42.1269999 2.98600006,41.2049999 2.98600006,40.0669999 L2.98600006,37.4549999 C1.03699994,33.9960003 0,30.0800002 0,26.0900002 C0,13.3570004 10.2959995,3 22.9489994,3 Z M22.9489994,3" id="path-1"></path>
    </defs>
    <g id="Page 1" fill="rgb(215,215,215)" fill-rule="evenodd">
        <use id="Shape" fill="rgb(154,155,154)" xlink:href="#path-1"></use>
        <use id="Shape-1" stroke="none" fill="none" xlink:href="#path-1"></use>
    </g>
</svg>