<?xml version="1.0" encoding="UTF-8" standalone="no"?>
<svg width="95px" height="95px" viewBox="0 0 95 95" version="1.1" xmlns="http://www.w3.org/2000/svg" xmlns:xlink="http://www.w3.org/1999/xlink" xmlns:sketch="http://www.bohemiancoding.com/sketch/ns">
    <title>inbox</title>
    <description>Created with Sketch (http://www.bohemiancoding.com/sketch)</description>
    <defs>
        <linearGradient x1="50%" y1="0%" x2="50%" y2="100%" id="linearGradient-1">
            <stop stop-color="rgb(0,0,0)" stop-opacity="0.510598575" offset="0%"></stop>
            <stop stop-color="rgb(254,255,254)" stop-opacity="0.509047564" offset="100%"></stop>
        </linearGradient>
        <path d="M90.6464197,40.397229 L71.128772,14.4786786 C70.588772,13.7615786 69.7470073,13.3409036 68.854066,13.3409036 L25.5552437,13.3409036 C24.6605378,13.3409036 23.8205379,13.7598036 23.2787732,14.4786786 L3.76470588,40.397229 C3.38529411,40.894229 3.18235292,41.506604 3.18235292,42.133179 L3.18235292,81.0056783 C3.18235292,82.5943033 4.46176472,83.8776284 6.03941167,83.8776284 L88.3717625,83.8776284 C89.9494095,83.8776284 91.2270566,82.5925284 91.2270566,81.0056783 L91.2270566,42.133179 C91.2270795,41.506604 91.0241556,40.894281 90.6464197,40.397229 C90.6464197,40.397229 91.0241556,40.894281 90.6464197,40.397229 L90.6464197,40.397229 M85.5164508,78.1302795 L8.89468833,78.1302795 L8.89468833,43.095328 L26.9758653,19.0884537 L67.4317463,19.0884537 L85.5164525,43.095328 L85.5164525,78.1302795 L85.5164525,78.1302795 L85.5164508,78.1302795" id="path-2"></path>
        <path d="M64.6453355,23.7176025 L29.762394,23.7176025 C29.2206292,23.7176025 28.7106292,23.9749775 28.3876881,24.4116275 L14.4412177,43.3011779 C14.0547471,43.8212529 13.9947472,44.5206029 14.2841589,45.101028 C14.5753354,45.685003 15.1700412,46.050653 15.8176883,46.050653 L31.9876885,46.050653 L31.9876885,55.1457532 C31.9876885,56.0989282 32.7553356,56.8692782 33.701218,56.8692782 L60.7118058,56.8692782 C61.6559235,56.8692782 62.4235705,56.0989282 62.4235705,55.1457532 L62.4235705,46.050653 L78.5970999,46.050653 C79.244747,46.050653 79.8376881,45.685003 80.1270998,45.101028 C80.4182763,44.520603 80.3582763,43.821253 79.9718057,43.3011779 L66.0235708,24.4116275 C65.6988382,23.9750122 65.1888356,23.7176025 64.6453355,23.7176025 L64.6453355,23.7176025 L64.6453355,23.7176025 M60.7117992,42.6051453 C59.7641521,42.6051453 58.9982697,43.3754952 58.9982697,44.3251202 L58.9982697,53.4202204 L35.4165052,53.4202204 L35.4165052,44.3251202 C35.4165052,43.3754952 34.6488581,42.6051453 33.7012111,42.6051453 L19.2235632,42.6051453 L30.6270924,27.1644196 L63.7859175,27.1644196 L75.1876822,42.6051453 L60.7117992,42.6051453 L60.7117992,42.6051453 L60.7117992,42.6051453" id="path-3"></path>
    </defs>
    <g id="Page 1" fill="rgb(206,206,206)" fill-rule="evenodd">
        <g id="Group" fill="rgb(0,0,0)">
            <use id="Shape" fill="rgb(62,128,19)" xlink:href="#path-2"></use>
            <use id="Shape-1" stroke="none" fill="url(#linearGradient-1)" xlink:href="#path-2"></use>
            <use id="Shape-2" stroke="none" fill="none" xlink:href="#path-2"></use>
            <use id="Shape" fill="rgb(62,128,19)" xlink:href="#path-3"></use>
            <use id="Shape-1" stroke="none" fill="url(#linearGradient-1)" xlink:href="#path-3"></use>
            <use id="Shape-2" stroke="none" fill="none" xlink:href="#path-3"></use>
        </g>
    </g>
</svg>