<?xml version="1.0" encoding="UTF-8" standalone="no"?>
<svg width="100px" height="100px" viewBox="0 0 100 100" version="1.1" xmlns="http://www.w3.org/2000/svg" xmlns:xlink="http://www.w3.org/1999/xlink" xmlns:sketch="http://www.bohemiancoding.com/sketch/ns">
    <title>inbox</title>
    <description>Created with Sketch (http://www.bohemiancoding.com/sketch)</description>
    <defs></defs>
    <g id="Page 1" stroke="none" stroke-width="1" fill="none" fill-rule="evenodd">
        <path d="M4,50 L4,91 L97,91 L97,50 L4,50 Z M25.7265625,19 L4,50 L97,50 L75.3945312,19 L25.7265625,19 Z M25.7265625,19" id="Rectangle 8" fill="#FFFFFF"></path>
        <g id="Group" transform="translate(1.000000, 3.000000)">
            <path id="Shape" fill="#9B9B9B" d="M97.3548503,45.9181572 L75.6276213,17.2579381 C75.0275732,16.4663384 74.0902433,16 73.0940852,16 L57.5359773,16 L57.5359773,22.3523915 L71.5135665,22.3523915 L91.6426285,48.9023312 L91.6426285,87.6436897 L6.3554106,87.6436897 L6.3554106,48.9023312 L26.4844725,22.3523915 L41.0072035,22.3523915 L41.0072035,16 L24.901993,16 C23.9058348,16 22.9704658,16.464379 22.3684569,17.2579381 L0.643188731,45.9181572 C0.225508244,46.4667906 0,47.1427854 0,47.8344554 L0,90.8198855 C0,92.5755125 1.42364335,94 3.17868577,94 L94.8213142,94 C96.5783176,94 98,92.5735531 98,90.8198855 L98,47.8344554 C98,47.1427854 97.7744918,46.46875 97.3548503,45.9181572 L97.3548503,45.9181572 Z M97.3548503,45.9181572"></path>
            <path id="Shape" fill="#9B9B9B" d="M62.1778225,50.999412 L62.1778225,61.1512722 L35.8199786,61.1512722 L35.8199786,50.999412 C35.8199786,49.9353752 34.9614682,49.0770259 33.9060517,49.0770259 L17.7243125,49.0770259 L30.466103,31.8467501 L30.9150488,31.8467501 C30.5862157,30.5750481 30.6964831,29.2262134 31.2616035,28 L29.5052015,28 C28.8967618,28 28.3277033,28.2867757 27.9673653,28.7752833 L12.3783132,49.8542869 C11.9451199,50.4397049 11.8801409,51.216966 12.2030668,51.8656724 C12.5279618,52.5163566 13.1915352,52.9257537 13.9161495,52.9257537 L31.9901559,52.9257537 L31.9901559,63.0776139 C31.9901559,64.1396729 32.8486663,65 33.9080208,65 L64.0917493,65 C65.1530729,65 66.0076452,64.1396729 66.0076452,63.0776139 L66.0076452,52.9257537 L84.0836207,52.9257537 C84.810204,52.9257537 85.4718083,52.5163566 85.7967033,51.8656724 C86.1215983,51.2189438 86.0526812,50.4397049 85.6214569,49.8542869 L70.0304358,28.7752833 C69.6700977,28.2867757 69.0990702,28 68.4925996,28 L67.2895036,28 C67.8703764,29.2598354 67.9688295,30.6541586 67.6084914,31.9495938 L80.2774267,49.0770259 L64.0937184,49.0770259 C63.0323948,49.0790036 62.1778225,49.9353752 62.1778225,50.999412 L62.1778225,50.999412 Z M62.1778225,50.999412"></path>
            <path id="Shape" fill="#67ABFE" d="M34.2040126,28.7107082 C33.8839325,29.3487239 33.9440687,30.1159085 34.3592029,30.6952111 L34.5784093,31.0044334 L46.9722983,48.2152015 C47.3292361,48.7103487 47.893741,49 48.4989833,49 C49.1042257,49 49.6706704,48.7103487 50.0256683,48.2152015 L62.4195574,31.0044334 L62.6387637,30.6952111 C63.0577777,30.1159085 63.115974,29.3487239 62.7939541,28.7107082 C62.473874,28.0746495 61.8240144,27.6734433 61.1120787,27.6734433 L52.9025094,27.6734433 L52.9025094,27.1978672 L52.9025094,22.0839557 L52.9025094,15.7390262 L52.9025094,4.44262492 C52.9025094,1.99233135 50.931592,0 48.4989833,0 C46.0663746,0 44.0954572,1.99233135 44.0954572,4.44262492 L44.0954572,15.7390262 L44.0954572,22.0839557 L44.0954572,27.1978672 L44.0954572,27.6734433 L35.8839481,27.6734433 C35.1758921,27.6734433 34.5279724,28.0746495 34.2040126,28.7107082 L34.2040126,28.7107082 Z M34.2040126,28.7107082"></path>
        </g>
    </g>
</svg>