<?xml version="1.0" encoding="UTF-8" standalone="no"?>
<svg width="60px" height="60px" viewBox="0 0 60 60" version="1.1" xmlns="http://www.w3.org/2000/svg" xmlns:xlink="http://www.w3.org/1999/xlink" xmlns:sketch="http://www.bohemiancoding.com/sketch/ns">
    <title>Slice 1</title>
    <description>Created with Sketch (http://www.bohemiancoding.com/sketch)</description>
    <defs></defs>
    <g id="Page-1" stroke="none" stroke-width="1" fill="none" fill-rule="evenodd" sketch:type="MSPage">
        <g id="inbox" sketch:type="MSLayerGroup" transform="translate(1.000000, 3.000000)">
            <g id="Page-1" sketch:type="MSShapeGroup">
                <g id="Group">
                    <path d="M55.8458826,45.5395786 L37.6141182,45.5395786 L57.0576482,25.7778397 C58.2917658,24.5236005 58.2917658,22.4826222 57.0576482,21.2271875 L37.091765,0.936970923 C35.8576473,-0.318463802 33.849412,-0.317268237 32.6152943,0.936970923 L1.37294169,32.6863198 C0.14000054,33.9417545 0.138824014,35.9827328 1.37294169,37.2369719 L9.54235318,45.5395804 L1.85411807,45.5395804 C0.558824006,45.5395804 -0.489411326,46.6061021 -0.489411326,47.9213195 L-0.489411326,50.4800152 C-0.489411326,51.7964282 0.560000462,52.8617544 1.85411807,52.8617544 L55.8447043,52.8617544 C57.138822,52.8617544 58.1882337,51.7952326 58.1882337,50.4800152 L58.1882337,47.9213195 C58.190602,46.6048942 57.1400075,45.5395786 55.8458826,45.5395786 L55.8458826,45.5395786" id="Shape" fill="#000000"></path>
                    <path d="M34.9741211,6.3437301 C34.1505917,6.24449097 33.3835329,6.83753443 33.2800034,7.68166483 L30.4129445,30.8175349 L7.9223556,33.3953608 C7.08941441,33.491013 6.49059088,34.2538391 6.58470858,35.1003608 C6.6717674,35.8882956 7.32941448,36.4705782 8.0905909,36.4705782 C8.14706149,36.4705782 8.20470855,36.4681869 8.2623556,36.461013 L31.940002,33.7468826 C32.6376491,33.6679696 33.1894138,33.113187 33.2764726,32.4077522 L36.2905903,8.06786045 C36.3953068,7.22127632 35.8058867,6.44888969 34.9741211,6.3437301 C34.9741211,6.3437301 35.8058867,6.44888969 34.9741211,6.3437301 L34.9741211,6.3437301" id="Shape" fill="#FFFFFF"></path>
                </g>
            </g>
        </g>
    </g>
</svg>