<?xml version="1.0" encoding="UTF-8" standalone="no"?>
<svg width="71px" height="71px" version="1.1" xmlns="http://www.w3.org/2000/svg" xmlns:xlink="http://www.w3.org/1999/xlink" xmlns:sketch="http://www.bohemiancoding.com/sketch/ns">
    <title>info</title>
    <description>Created with Sketch (http://www.bohemiancoding.com/sketch)</description>
    <defs></defs>
    <g id="Page 1" fill="rgb(215,215,215)" fill-rule="evenodd">
        <path d="M35.5340004,11 C22.0050001,11 11,22.0059996 11,35.5349998 C11,49.0640001 22.0050001,60.0720005 35.5340004,60.0720005 C49.0630007,60.0720005 60.0699997,49.0640001 60.0699997,35.5349998 C60.0699997,22.0059996 49.0630531,11 35.5340004,11 L35.5340004,11 L35.5340004,11 M36.2140541,18.2849731 C39.2040541,18.2849731 41.636054,20.7189732 41.636054,23.7089729 C41.636054,26.6989727 39.2040541,29.1319728 36.2140541,29.1319728 C33.2240541,29.1319728 30.7900543,26.6989727 30.7900543,23.7089729 C30.7900543,20.7189732 33.2240028,18.2849731 36.2140541,18.2849731 C36.2140541,18.2849731 33.2240028,18.2849731 36.2140541,18.2849731 L36.2140541,18.2849731 M43.6360512,50.75 C43.2080512,51.206 42.7490512,51.303 42.4390512,51.303 L29.9860511,51.303 C29.6750511,51.303 29.2150511,51.206 28.7890511,50.75 C28.4580511,50.395 28.290051,49.932 28.290051,49.374 C28.290051,48.807 28.453051,48.3319999 28.7750511,47.9649999 C29.2050511,47.4789999 29.6710511,47.3769999 29.986051,47.3769999 L31.4000511,47.3769999 L31.4000511,36.9980002 L29.986051,36.9980002 C29.675051,36.9980002 29.215051,36.9020002 28.789051,36.4450002 C28.458051,36.0900002 28.290051,35.6270002 28.290051,35.0680003 C28.290051,34.5020003 28.453051,34.0290002 28.775051,33.6620002 C29.205051,33.1740002 29.671051,33.0720003 29.986051,33.0720003 L40.4180511,33.0720003 C40.7550511,33.0720003 41.0270512,33.3440003 41.0270512,33.6790003 L41.0270512,47.3759998 L42.4390511,47.3759998 C42.7540511,47.3759998 43.2210511,47.4779998 43.6480511,47.9639998 C43.9720511,48.3309998 44.1360511,48.8059998 44.1360511,49.3729998 C44.1360512,49.9329834 43.9680214,50.3950195 43.6360512,50.75 C43.6360512,50.75 43.9680214,50.3950195 43.6360512,50.75 L43.6360512,50.75" id="Shape" fill="rgb(80,81,80)"></path>
    </g>
</svg>