<?xml version="1.0" encoding="UTF-8" standalone="no"?>
<svg width="50px" height="50px" viewBox="0 0 50 50" version="1.1" xmlns="http://www.w3.org/2000/svg" xmlns:xlink="http://www.w3.org/1999/xlink" xmlns:sketch="http://www.bohemiancoding.com/sketch/ns">
    <title>info</title>
    <description>Created with Sketch (http://www.bohemiancoding.com/sketch)</description>
    <defs></defs>
    <g id="Page 1" stroke="none" stroke-width="1" fill="none" fill-rule="evenodd" sketch:type="MSPage">
        <g id="info" sketch:type="MSLayerGroup" fill="#A1B8CC">
            <g id="Page 1" sketch:type="MSShapeGroup">
                <path d="M24.5340004,0 C11.0050001,0 0,11.0059996 0,24.5349998 C0,38.0640001 11.0050001,49.0720005 24.5340004,49.0720005 C38.0630007,49.0720005 49.0699997,38.0640001 49.0699997,24.5349998 C49.0699997,11.0059996 38.0630531,0 24.5340004,0 L24.5340004,0 M25.2140541,7.2849731 C28.2040541,7.2849731 30.636054,9.7189732 30.636054,12.7089729 C30.636054,15.6989727 28.2040541,18.1319728 25.2140541,18.1319728 C22.2240541,18.1319728 19.7900543,15.6989727 19.7900543,12.7089729 C19.7900543,9.7189732 22.2240028,7.2849731 25.2140541,7.2849731 C25.2140541,7.2849731 22.2240028,7.2849731 25.2140541,7.2849731 L25.2140541,7.2849731 M32.6360512,39.75 C32.2080512,40.206 31.7490512,40.303 31.4390512,40.303 L18.9860511,40.303 C18.6750511,40.303 18.2150511,40.206 17.7890511,39.75 C17.4580511,39.395 17.290051,38.932 17.290051,38.374 C17.290051,37.807 17.453051,37.3319999 17.7750511,36.9649999 C18.2050511,36.4789999 18.6710511,36.3769999 18.986051,36.3769999 L20.4000511,36.3769999 L20.4000511,25.9980002 L18.986051,25.9980002 C18.675051,25.9980002 18.215051,25.9020002 17.789051,25.4450002 C17.458051,25.0900002 17.290051,24.6270002 17.290051,24.0680003 C17.290051,23.5020003 17.453051,23.0290002 17.775051,22.6620002 C18.205051,22.1740002 18.671051,22.0720003 18.986051,22.0720003 L29.4180511,22.0720003 C29.7550511,22.0720003 30.0270512,22.3440003 30.0270512,22.6790003 L30.0270512,36.3759998 L31.4390511,36.3759998 C31.7540511,36.3759998 32.2210511,36.4779998 32.6480511,36.9639998 C32.9720511,37.3309998 33.1360511,37.8059998 33.1360511,38.3729998 C33.1360512,38.9329834 32.9680214,39.3950195 32.6360512,39.75 C32.6360512,39.75 32.9680214,39.3950195 32.6360512,39.75 L32.6360512,39.75" id="Shape"></path>
            </g>
        </g>
    </g>
</svg>