<?xml version="1.0" encoding="UTF-8" standalone="no"?>
<svg width="82px" height="82px" viewBox="0 0 82 82" version="1.1" xmlns="http://www.w3.org/2000/svg" xmlns:xlink="http://www.w3.org/1999/xlink" xmlns:sketch="http://www.bohemiancoding.com/sketch/ns">
    <title>Slice 1</title>
    <description>Created with Sketch (http://www.bohemiancoding.com/sketch)</description>
    <defs></defs>
    <g id="Page-1" stroke="none" stroke-width="1" fill="none" fill-rule="evenodd" sketch:type="MSPage">
        <g id="ipv6-logo" sketch:type="MSLayerGroup" transform="translate(10.000000, 0.000000)">
            <g id="Group" sketch:type="MSShapeGroup">
                <path d="M30.0465746,81.0835052 C13.5243646,81.1093918 0.0631491713,67.5899072 0.0379558011,50.9413175 C0.0361325967,48.7802041 0.264861878,46.6028907 0.724309392,44.4713381 C0.751160221,44.3470825 0.811325967,44.0827052 0.811325967,44.0827052 C0.835524862,43.9614557 0.942265193,43.4741196 0.969116022,43.3603856 C0.992486188,43.2586763 5.06469613,24.7804887 5.09005525,24.6630804 C5.1140884,24.5510165 6.63861878,17.6224268 6.66812155,17.495499 C8.85712707,7.4164268 18.6130939,0.100874227 29.9207735,0.0835051546 C41.2379006,0.0651340206 51.019558,7.35747216 53.231105,17.4418887 C53.259116,17.5567918 54.0861878,21.2609134 54.1141989,21.3871732 C54.1410497,21.4989031 58.9266298,42.9077876 58.9266298,42.9077876 C58.9543094,43.0343814 58.9839779,43.1611423 59.0091713,43.2874021 L59.1661326,43.9779897 C59.1972928,44.1141031 59.2279558,44.2480454 59.2564641,44.3856619 C59.7222099,46.5125381 59.9580663,48.6851753 59.9618785,50.8462887 C59.9880663,67.4925402 46.5671271,81.0607918 30.0465746,81.0835052 L30.0465746,81.0835052 Z" id="Shape" fill="#00BF38"></path>
                <path d="M29.9837569,38.5942454 C23.2539779,38.5942454 17.7772376,44.1142701 17.7772376,50.8965588 C17.7772376,57.6771773 23.2541436,63.1935278 29.9837569,63.1935278 C36.7143646,63.1935278 42.1896133,57.6771773 42.1896133,50.8965588 C42.1896133,44.1142701 36.7145304,38.5942454 29.9837569,38.5942454 L29.9837569,38.5942454 Z M26.0166298,41.1291278 C25.421105,42.0055979 24.9102762,43.0813113 24.5081768,44.3081691 L21.8071823,44.3081691 C22.9132044,42.9171402 24.3595028,41.812033 26.0166298,41.1291278 L26.0166298,41.1291278 Z M20.6792818,46.0557649 L24.0372928,46.0557649 C23.7692818,47.2824557 23.6013812,48.6148639 23.5511602,50.0214247 L19.5470718,50.0214247 C19.6637569,48.599833 20.0620442,47.2632495 20.6792818,46.0557649 L20.6792818,46.0557649 Z M20.6792818,55.7301711 C20.0620442,54.5278639 19.6637569,53.1854351 19.5470718,51.7695216 L23.5511602,51.7695216 C23.6013812,53.1745794 23.769116,54.5086577 24.0372928,55.7301711 L20.6792818,55.7301711 L20.6792818,55.7301711 Z M21.8060221,57.4812742 L24.5081768,57.4812742 C24.9102762,58.709468 25.421105,59.7840124 26.0166298,60.6581443 C24.3595028,59.9715649 22.9132044,58.8676268 21.8060221,57.4812742 L21.8060221,57.4812742 Z M29.1172376,61.2336619 C28.0881215,60.7421505 27.0832044,59.4150866 26.3564088,57.4812742 L29.1172376,57.4812742 L29.1172376,61.2336619 L29.1172376,61.2336619 Z M29.1172376,55.7301711 L25.820221,55.7301711 C25.5311602,54.545901 25.3425414,53.2156639 25.2888398,51.7695216 L29.1172376,51.7695216 L29.1172376,55.7301711 L29.1172376,55.7301711 Z M29.1172376,50.0214247 L25.2888398,50.0214247 C25.3425414,48.5741134 25.5329834,47.2408701 25.820221,46.0557649 L29.1172376,46.0557649 L29.1172376,50.0214247 L29.1172376,50.0214247 Z M29.1172376,44.3081691 L26.3575691,44.3081691 C27.0832044,42.3725196 28.089116,41.0451216 29.1172376,40.5537773 L29.1172376,44.3081691 L29.1172376,44.3081691 Z M39.2865746,46.0557649 C39.9064641,47.2632495 40.3040884,48.599833 40.4187845,50.0214247 L36.4120442,50.0214247 C36.3653039,48.6148639 36.198232,47.2824557 35.9275691,46.0557649 L39.2865746,46.0557649 L39.2865746,46.0557649 Z M38.1568508,44.3081691 L35.4558564,44.3081691 C35.0555801,43.0813113 34.5457459,42.0055979 33.9467403,41.1291278 C35.6055249,41.812033 37.0526519,42.9171402 38.1568508,44.3081691 L38.1568508,44.3081691 Z M30.8524309,40.5536103 C31.8760773,41.0449546 32.8854696,42.3725196 33.6094475,44.3080021 L30.8524309,44.3080021 L30.8524309,40.5536103 L30.8524309,40.5536103 Z M30.8524309,46.0557649 L34.1431492,46.0557649 C34.4320442,47.2408701 34.6231492,48.5741134 34.6776796,50.0214247 L30.8524309,50.0214247 L30.8524309,46.0557649 L30.8524309,46.0557649 Z M30.8524309,51.7696887 L34.6776796,51.7696887 C34.6231492,53.2158309 34.4322099,54.546068 34.1431492,55.7303381 L30.8524309,55.7303381 L30.8524309,51.7696887 L30.8524309,51.7696887 Z M30.8524309,61.2336619 L30.8524309,57.4812742 L33.6120994,57.4812742 C32.8853039,59.4150866 31.8759116,60.7419835 30.8524309,61.2336619 L30.8524309,61.2336619 Z M33.9467403,60.6581443 C34.5457459,59.7840124 35.0555801,58.709468 35.4558564,57.4812742 L38.158674,57.4812742 C37.0526519,58.8676268 35.6055249,59.9715649 33.9467403,60.6581443 L33.9467403,60.6581443 Z M39.2865746,55.7301711 L35.9275691,55.7301711 C36.198232,54.5088247 36.3653039,53.1745794 36.4120442,51.7695216 L40.4187845,51.7695216 C40.3040884,53.1854351 39.9066298,54.5278639 39.2865746,55.7301711 L39.2865746,55.7301711 Z" id="Shape" fill="#FFFFFF"></path>
                <path d="M29.9837569,26.7420247 C23.5430387,26.7420247 17.6890608,29.3235031 13.3781768,33.501433 C14.8843094,26.7196454 16.4196133,19.8010763 16.4534254,19.6566124 C17.6216022,14.1452722 23.3104972,10.1493835 29.9837569,10.1493835 C36.6614917,10.1493835 42.3540331,14.1636433 43.5266851,19.7138969 L44.4765746,23.992701 C44.718895,25.0762639 45.7854696,25.7631773 46.8638122,25.515 C47.9396685,25.2735031 48.6177348,24.1994598 48.3765746,23.1125567 L47.4308287,18.8559649 C45.8724862,11.4782845 38.5337569,6.12159588 29.9835912,6.12159588 C21.4362431,6.12159588 14.1044751,11.4619175 12.5489503,18.7945052 C6.68519337,45.2050144 6.58176796,45.6698041 6.58176796,45.6698041 C6.57646409,45.6981959 6.57281768,45.7219113 6.56933702,45.7488 C6.48762431,46.1153876 6.41685083,46.4893237 6.35585635,46.8655979 C6.34889503,46.9118598 6.33861878,46.9562845 6.32983425,47.0012103 C6.26983425,47.3943526 6.21497238,47.7889979 6.17005525,48.1853134 C6.16574586,48.2220557 6.1601105,48.2581299 6.15762431,48.2930351 C6.11535912,48.6798309 6.08320442,49.0713031 6.05883978,49.4637773 C6.05718232,49.5083691 6.05171271,49.5527938 6.05171271,49.5975526 C6.02751381,50.0274371 6.01574586,50.4574887 6.01574586,50.8948887 C6.01574586,64.2116227 16.7665193,75.0460825 29.9835912,75.0460825 C43.1988398,75.0460825 53.9524309,64.2116227 53.9524309,50.8948887 C53.9527624,37.5758165 43.1991713,26.7420247 29.9837569,26.7420247 L29.9837569,26.7420247 Z M29.9837569,71.0192969 C18.971105,71.0192969 10.0120442,61.9910536 10.0120442,50.8942206 C10.0120442,50.5331443 10.0211602,50.1724021 10.0397238,49.814499 C10.041547,49.7795938 10.048011,49.7476948 10.048011,49.7162969 C10.0677348,49.3849485 10.0929282,49.0517629 10.1305525,48.7204144 C10.1322099,48.7005402 10.1365193,48.681668 10.1365193,48.6629629 C10.1733149,48.3207588 10.2218785,47.9792227 10.2774033,47.6373526 C10.2793923,47.6129691 10.2846961,47.5849113 10.2909945,47.5611959 C10.3440331,47.239033 10.4041989,46.9131959 10.4756354,46.5932041 C12.4369061,37.5547732 20.4361326,30.7693113 29.9837569,30.7693113 C40.9977348,30.7693113 49.9558011,39.7977216 49.9558011,50.8940536 C49.9558011,61.9912206 40.9979006,71.0192969 29.9837569,71.0192969 L29.9837569,71.0192969 Z" id="Shape" fill="#FFFFFF"></path>
            </g>
        </g>
    </g>
</svg>