<?xml version="1.0" encoding="UTF-8" standalone="no"?>
<svg width="70px" height="70px" version="1.1" xmlns="http://www.w3.org/2000/svg" xmlns:xlink="http://www.w3.org/1999/xlink" xmlns:sketch="http://www.bohemiancoding.com/sketch/ns">
    <title>jump-link</title>
    <description>Created with Sketch (http://www.bohemiancoding.com/sketch)</description>
    <defs></defs>
    <g id="Page 1" fill="rgb(215,215,215)" fill-rule="evenodd">
        <path d="M3.92749935,32.2666472 C3.92749935,15.1653975 17.7899995,1.30289731 34.8899999,1.30289731 C51.9912508,1.30289731 65.8524997,15.1653975 65.8525005,32.2666472 C65.8525005,49.3666464 51.9912496,63.2278961 34.8899999,63.2278961 C17.7899995,63.2278961 3.9274986,49.3666476 3.92749935,32.2666472 Z M41.2905092,51.9754974 C50.4633568,48.6904138 55.9401713,43.0150362 55.9401713,36.7980101 C55.9401713,28.0662734 45.0255007,20.6251955 29.9849963,19.1070699 C29.9510646,19.1032998 29.9221599,19.1171237 29.8882283,19.1171237 L29.8869716,16.6639933 L29.8869716,14.1681342 C29.8869716,14.0273809 29.8643505,13.8903977 29.8304189,13.7596981 C29.8216218,13.723253 29.8090545,13.6855512 29.797744,13.6491062 C29.7638124,13.548568 29.7198269,13.4518001 29.6695579,13.3575456 C29.6532204,13.3298976 29.6419099,13.3022496 29.6243157,13.2733449 C29.5589659,13.1728068 29.4848191,13.0747821 29.3993616,12.9893247 C29.3918213,12.9817843 29.3842809,12.9792709 29.3754838,12.9717305 C29.259865,12.8586251 29.126652,12.758087 28.9771015,12.6826834 C28.4191148,12.3974064 27.7467661,12.4489322 27.2390485,12.8184098 L14.5285148,23.9680884 C14.0974575,24.28227 13.8398286,24.7849607 13.8398286,25.3178128 C13.842342,25.8531783 14.0974575,26.3520988 14.5285148,26.6675372 L27.2415618,37.8172157 C27.5507166,38.0421698 27.9227077,38.1339108 28.2921853,38.1188301 L28.293442,38.1188301 C28.4052907,38.1138032 28.5133692,38.1037494 28.6214477,38.0761014 C28.7446069,38.0497101 28.8639959,38.0107516 28.9783581,37.9529422 C29.535088,37.6664085 29.8882281,37.0945979 29.8882281,36.4662346 L29.8869714,31.3425599 C40.1833332,32.0211916 47.6508029,36.4222488 47.6508029,41.8249164 C47.6508029,45.0232858 45.0644593,48.0758746 40.5578376,50.2022561 C40.0941055,50.4221833 39.8842321,50.9650892 40.0802815,51.4388751 C40.2323454,51.8058393 40.587999,52.0307934 40.9662738,52.0307934 C41.0743522,52.0307934 41.1836874,52.0119425 41.2905092,51.9754974 Z M41.2905092,51.9754974" id="path468" fill="rgb(154,155,154)"></path>
    </g>
</svg>