<?xml version="1.0" encoding="UTF-8" standalone="no"?>
<svg width="39px" height="39px" version="1.1" xmlns="http://www.w3.org/2000/svg" xmlns:xlink="http://www.w3.org/1999/xlink" xmlns:sketch="http://www.bohemiancoding.com/sketch/ns">
    <title>jump-link</title>
    <description>Created with Sketch (http://www.bohemiancoding.com/sketch)</description>
    <defs></defs>
    <g id="Page 1" fill="rgb(215,215,215)" fill-rule="evenodd">
        <path d="M19.5,39 C8.73044685,39 0,30.2695532 0,19.5 C0,8.73044685 8.73044685,0 19.5,0 C30.2695532,0 39,8.73044685 39,19.5 C39,30.2695532 30.2695532,39 19.5,39 Z M4.60662879,13.3905612 C4.30108734,13.6055851 4.11833356,13.9490738 4.11833356,14.3131718 C4.11976135,14.6779568 4.30108734,15.0193846 4.60662879,15.2337215 L13.6300961,22.8509258 C13.8499717,23.0048088 14.1133941,23.0659498 14.3753888,23.0556451 L14.3768166,23.0556451 C14.4553436,23.0522102 14.5331567,23.0460274 14.6109698,23.0261051 C14.6966356,23.0082437 14.7815876,22.9821385 14.8622562,22.9422938 C15.2591746,22.7485662 15.5090332,22.3563022 15.5090332,21.9283153 L15.5083194,18.4281657 C22.8163279,18.8911883 28.1161869,21.8980885 28.1161869,25.58647 C28.1161869,27.7710583 26.2807965,29.8574085 23.0804642,31.3096788 C22.7520785,31.4601268 22.603591,31.8304076 22.7420841,32.1539739 C22.8505942,32.4054076 23.1040223,32.5579166 23.371728,32.5579166 C23.4481133,32.5579166 23.5259265,32.546238 23.6015979,32.5201329 C30.1129145,30.2764649 34.0000016,26.4005387 34.0000016,22.1543314 C34.0000016,16.1886198 26.2522416,11.107735 15.5775657,10.0703992 C15.5540076,10.0676513 15.533305,10.077269 15.509033,10.077269 L15.5083191,8.40241815 L15.5083191,6.69665329 C15.5083191,6.60116342 15.4918998,6.5077345 15.4676278,6.41911442 C15.4612029,6.39300928 15.4519224,6.36690414 15.4454975,6.34285993 C15.4197978,6.27347522 15.3898147,6.20683842 15.3534067,6.1436365 C15.3426985,6.12440113 15.3341319,6.10447879 15.3212821,6.08661738 C15.2748797,6.01723265 15.2227664,5.94990887 15.1620864,5.89151579 C15.1563753,5.88601997 15.1513782,5.88395904 15.1456671,5.87983718 C15.0628568,5.80220874 14.9679105,5.73419798 14.862256,5.6819877 C14.4653377,5.4875731 13.9891784,5.5239829 13.629382,5.77472965 Z M4.60662879,13.3905612" id="Oval 1" fill="rgb(100,98,99)"></path>
    </g>
</svg>