<?xml version="1.0" encoding="UTF-8" standalone="no"?>
<!-- Created with Inkscape (http://www.inkscape.org/) -->

<svg
   xmlns:dc="http://purl.org/dc/elements/1.1/"
   xmlns:cc="http://creativecommons.org/ns#"
   xmlns:rdf="http://www.w3.org/1999/02/22-rdf-syntax-ns#"
   xmlns:svg="http://www.w3.org/2000/svg"
   xmlns="http://www.w3.org/2000/svg"
   xmlns:sodipodi="http://sodipodi.sourceforge.net/DTD/sodipodi-0.dtd"
   xmlns:inkscape="http://www.inkscape.org/namespaces/inkscape"
   id="svg2"
   version="1.1"
   inkscape:version="0.48.2 r9819"
   width="120"
   height="120"
   xml:space="preserve"
   sodipodi:docname="jump.pdf"><metadata
     id="metadata8"><rdf:RDF><cc:Work
         rdf:about=""><dc:format>image/svg+xml</dc:format><dc:type
           rdf:resource="http://purl.org/dc/dcmitype/StillImage" /><dc:title></dc:title></cc:Work></rdf:RDF></metadata><defs
     id="defs6" /><sodipodi:namedview
     pagecolor="#ffffff"
     bordercolor="#666666"
     borderopacity="1"
     objecttolerance="10"
     gridtolerance="10"
     guidetolerance="10"
     inkscape:pageopacity="0"
     inkscape:pageshadow="2"
     inkscape:window-width="640"
     inkscape:window-height="480"
     id="namedview4"
     showgrid="false"
     inkscape:zoom="2.396875"
     inkscape:cx="60"
     inkscape:cy="60"
     inkscape:window-x="0"
     inkscape:window-y="0"
     inkscape:window-maximized="0"
     inkscape:current-layer="g10" /><g
     id="g10"
     inkscape:groupmode="layer"
     inkscape:label="jump"
     transform="matrix(1.25,0,0,-1.25,0,120)"><g
       id="g12" /><g
       id="g14"><path
         d="M 48,11 C 68.43454,11 85,27.56546 85,48 85,68.43454 68.43454,85 48,85 27.56546,85 11,68.43454 11,48 11,27.56546 27.56546,11 48,11 z"
         style="fill:#494949;fill-opacity:1;fill-rule:evenodd;stroke:none"
         id="path16" /><g
         id="g18"
         transform="matrix(1,0,0,-1,11,85)"><path
           d="M 37,74 C 57.43454,74 74,57.43454 74,37 74,16.56546 57.43454,0 37,0 16.56546,0 0,16.56546 0,37 0,57.43454 16.56546,74 37,74 z"
           style="fill:none;stroke:#a8a8a8;stroke-opacity:1;stroke-width:1;stroke-linecap:butt;stroke-linejoin:miter;stroke-miterlimit:10;stroke-dasharray:none"
           id="path20" /></g><path
         d="m 42.0067,65.56925 c -0.044,0.0047 -0.0836,-0.01404 -0.1276,-0.01404 L 41.878,68.95 l 0,3.45564 c 0,0.19425 -0.0297,0.38266 -0.0737,0.56521 -0.0121,0.05149 -0.0275,0.10181 -0.0418,0.15213 -0.0451,0.14042 -0.1012,0.27383 -0.1672,0.40372 -0.0209,0.03979 -0.0363,0.07841 -0.0594,0.11468 -0.0847,0.14277 -0.1804,0.27734 -0.2915,0.39553 -0.0099,0.01054 -0.0198,0.01405 -0.0308,0.02341 -0.1507,0.15798 -0.3245,0.29723 -0.5192,0.40138 -0.726,0.39553 -1.5994,0.32298 -2.2594,-0.1884 L 21.8965,58.84053 C 21.3355,58.40638 21,57.71128 21,56.9717 c 0.0022,-0.73957 0.3355,-1.43117 0.8965,-1.86532 L 38.4361,39.67245 c 0.4026,-0.31128 0.8866,-0.43766 1.3662,-0.4166 l 0.0033,0 c 0.1441,0.0082 0.286,0.0199 0.4268,0.05851 0.1595,0.03628 0.3146,0.09128 0.4631,0.16968 0.7271,0.39436 1.1836,1.19011 1.1836,2.05607 l -0.0011,7.09266 c 13.3969,-0.93617 23.1121,-7.0283 23.1121,-14.50713 0,-4.42575 -3.3649,-8.65373 -9.2301,-11.59681 -0.6017,-0.30309 -0.8745,-1.0567 -0.6204,-1.70851 C 55.3376,20.30894 55.8018,20 56.2935,20 c 0.1397,0 0.2816,0.02457 0.4213,0.07723 11.935,4.54628 19.0608,12.39958 19.0608,21.00532 0,12.08713 -14.2021,22.385 -33.7689,24.4867"
         style="fill:#ffffff;fill-opacity:1;fill-rule:evenodd;stroke:none"
         id="path22" /></g></g></svg>