<?xml version="1.0" encoding="UTF-8" standalone="no"?>
<svg width="80px" height="80px" version="1.1" xmlns="http://www.w3.org/2000/svg" xmlns:xlink="http://www.w3.org/1999/xlink" xmlns:sketch="http://www.bohemiancoding.com/sketch/ns">
    <title>jump-link</title>
    <description>Created with Sketch (http://www.bohemiancoding.com/sketch)</description>
    <defs></defs>
    <g id="Page 1" fill="rgb(215,215,215)" fill-rule="evenodd">
        <path d="M8.92749935,39.2666472 C8.92749935,22.1653975 22.7899995,8.30289731 39.8899999,8.30289731 C56.9912508,8.30289731 70.8524997,22.1653975 70.8525005,39.2666472 C70.8525005,56.3666464 56.9912496,70.2278961 39.8899999,70.2278961 C22.7899995,70.2278961 8.9274986,56.3666476 8.92749935,39.2666472 Z M46.2905092,58.9754974 C55.4633568,55.6904138 60.9401713,50.0150362 60.9401713,43.7980101 C60.9401713,35.0662734 50.0255007,27.6251955 34.9849963,26.1070699 C34.9510646,26.1032998 34.9221599,26.1171237 34.8882283,26.1171237 L34.8869716,23.6639933 L34.8869716,21.1681342 C34.8869716,21.0273809 34.8643505,20.8903977 34.8304189,20.7596981 C34.8216218,20.723253 34.8090545,20.6855512 34.797744,20.6491062 C34.7638124,20.548568 34.7198269,20.4518001 34.6695579,20.3575456 C34.6532204,20.3298976 34.6419099,20.3022496 34.6243157,20.2733449 C34.5589659,20.1728068 34.4848191,20.0747821 34.3993616,19.9893247 C34.3918213,19.9817843 34.3842809,19.9792709 34.3754838,19.9717305 C34.259865,19.8586251 34.126652,19.758087 33.9771015,19.6826834 C33.4191148,19.3974064 32.7467661,19.4489322 32.2390485,19.8184098 L19.5285148,30.9680884 C19.0974575,31.28227 18.8398286,31.7849607 18.8398286,32.3178128 C18.842342,32.8531783 19.0974575,33.3520988 19.5285148,33.6675372 L32.2415618,44.8172157 C32.5507166,45.0421698 32.9227077,45.1339108 33.2921853,45.1188301 L33.293442,45.1188301 C33.4052907,45.1138032 33.5133692,45.1037494 33.6214477,45.0761014 C33.7446069,45.0497101 33.8639959,45.0107516 33.9783581,44.9529422 C34.535088,44.6664085 34.8882281,44.0945979 34.8882281,43.4662346 L34.8869714,38.3425599 C45.1833332,39.0211916 52.6508029,43.4222488 52.6508029,48.8249164 C52.6508029,52.0232858 50.0644593,55.0758746 45.5578376,57.2022561 C45.0941055,57.4221833 44.8842321,57.9650892 45.0802815,58.4388751 C45.2323454,58.8058393 45.587999,59.0307934 45.9662738,59.0307934 C46.0743522,59.0307934 46.1836874,59.0119425 46.2905092,58.9754974 Z M46.2905092,58.9754974" id="path468" fill="rgb(154,155,154)"></path>
    </g>
</svg>