<?xml version="1.0" encoding="UTF-8" standalone="no"?>
<svg width="75px" height="75px" version="1.1" xmlns="http://www.w3.org/2000/svg" xmlns:xlink="http://www.w3.org/1999/xlink" xmlns:sketch="http://www.bohemiancoding.com/sketch/ns">
    <title>jump-link</title>
    <description>Created with Sketch (http://www.bohemiancoding.com/sketch)</description>
    <defs></defs>
    <g id="Page 1" fill="rgb(215,215,215)" fill-rule="evenodd">
        <path d="M5.92749935,37.2666472 C5.92749935,20.1653975 19.7899995,6.30289731 36.8899999,6.30289731 C53.9912508,6.30289731 67.8524997,20.1653975 67.8525005,37.2666472 C67.8525005,54.3666464 53.9912496,68.2278961 36.8899999,68.2278961 C19.7899995,68.2278961 5.9274986,54.3666476 5.92749935,37.2666472 Z M43.2905092,56.9754974 C52.4633568,53.6904138 57.9401713,48.0150362 57.9401713,41.7980101 C57.9401713,33.0662734 47.0255007,25.6251955 31.9849963,24.1070699 C31.9510646,24.1032998 31.9221599,24.1171237 31.8882283,24.1171237 L31.8869716,21.6639933 L31.8869716,19.1681342 C31.8869716,19.0273809 31.8643505,18.8903977 31.8304189,18.7596981 C31.8216218,18.723253 31.8090545,18.6855512 31.797744,18.6491062 C31.7638124,18.548568 31.7198269,18.4518001 31.6695579,18.3575456 C31.6532204,18.3298976 31.6419099,18.3022496 31.6243157,18.2733449 C31.5589659,18.1728068 31.4848191,18.0747821 31.3993616,17.9893247 C31.3918213,17.9817843 31.3842809,17.9792709 31.3754838,17.9717305 C31.259865,17.8586251 31.126652,17.758087 30.9771015,17.6826834 C30.4191148,17.3974064 29.7467661,17.4489322 29.2390485,17.8184098 L16.5285148,28.9680884 C16.0974575,29.28227 15.8398286,29.7849607 15.8398286,30.3178128 C15.842342,30.8531783 16.0974575,31.3520988 16.5285148,31.6675372 L29.2415618,42.8172157 C29.5507166,43.0421698 29.9227077,43.1339108 30.2921853,43.1188301 L30.293442,43.1188301 C30.4052907,43.1138032 30.5133692,43.1037494 30.6214477,43.0761014 C30.7446069,43.0497101 30.8639959,43.0107516 30.9783581,42.9529422 C31.535088,42.6664085 31.8882281,42.0945979 31.8882281,41.4662346 L31.8869714,36.3425599 C42.1833332,37.0211916 49.6508029,41.4222488 49.6508029,46.8249164 C49.6508029,50.0232858 47.0644593,53.0758746 42.5578376,55.2022561 C42.0941055,55.4221833 41.8842321,55.9650892 42.0802815,56.4388751 C42.2323454,56.8058393 42.587999,57.0307934 42.9662738,57.0307934 C43.0743522,57.0307934 43.1836874,57.0119425 43.2905092,56.9754974 Z M43.2905092,56.9754974" id="path468" fill="rgb(154,155,154)"></path>
    </g>
</svg>