<?xml version="1.0" encoding="UTF-8" standalone="no"?>
<svg width="100px" height="100px" viewBox="0 0 100 100" version="1.1" xmlns="http://www.w3.org/2000/svg" xmlns:xlink="http://www.w3.org/1999/xlink" xmlns:sketch="http://www.bohemiancoding.com/sketch/ns">
    <title>lastfm-settings</title>
    <description>Created with Sketch (http://www.bohemiancoding.com/sketch)</description>
    <defs></defs>
    <g id="Page-1" stroke="none" stroke-width="1" fill="none" fill-rule="evenodd" sketch:type="MSPage">
        <g id="lastfm-settings" sketch:type="MSLayerGroup">
            <g id="Page-1" sketch:type="MSShapeGroup">
                <path d="M100,50 C100,22.3857611 77.6142389,0 50,0 C22.3857611,0 0,22.3857611 0,50 C0,77.6142389 22.3857611,100 50,100 C77.6142389,100 100,77.6142389 100,50 Z" id="Oval-1" fill="#000000"></path>
                <g id="g462" transform="translate(50.000000, 51.000000) scale(1, -1) translate(-50.000000, -51.000000) translate(12.000000, 28.000000)" fill="#FEFFFE">
                    <path d="M64.0322581,27.3370325 C63.3649032,27.5553551 62.7207742,27.7566454 62.1014194,27.9532906 C57.3680002,29.4412906 54.5143225,30.3393551 54.5143225,34.0229681 C54.5143225,37.0113551 56.8198708,39.1760005 59.997161,39.1760005 C62.4327738,39.1760005 64.2459351,38.1664521 65.8717415,35.8887748 C66.0250322,35.6781939 66.3114839,35.6023225 66.5468386,35.7261941 L71.3236129,38.1633554 C71.452129,38.2268393 71.548129,38.3445167 71.5899355,38.4838715 C71.6317419,38.6232264 71.6147097,38.7718716 71.5450323,38.8988393 C68.9839999,43.4433553 65.2941933,45.6544521 60.2619352,45.6544521 C52.6051607,45.6544521 47.6565162,41.0216777 47.6565162,33.8541943 C47.6565162,26.5241295 52.4441291,23.55742 61.2745808,20.6510969 C66.3889033,18.9447743 68.6526451,18.0405162 68.6526451,14.4002579 C68.6526451,10.3078709 64.9628388,7.3659349 59.9243869,7.537806 C54.6459354,7.7158705 53.0464516,10.5138061 51.0350963,15.0954835 C47.6348381,22.8544515 43.7638704,31.9156124 43.7267096,32.0038707 C39.8418062,40.9674837 32.1385802,46.1050325 22.5927738,46.1050325 C9.9842582,46.1050325 -0.2753553,35.8438715 -0.2753553,23.2307103 C-0.2753553,10.6221947 9.9842575,0.3610322 22.5927738,0.3610322 C29.4722574,0.3610322 35.9181931,3.4098064 40.2800001,8.7285158 C40.4069679,8.8833545 40.4363872,9.0923867 40.3574195,9.2766448 L37.4758712,15.9300641 C37.3938067,16.1143221 37.2095486,16.2381931 37.0067099,16.2474834 C36.7976776,16.2567737 36.6103228,16.1421931 36.5158712,15.9625802 C33.7953551,10.761548 28.459613,7.5316122 22.592775,7.5316122 C13.9388392,7.5316122 6.9014204,14.5721282 6.9014204,23.2307089 C6.9014204,31.8877412 13.9388399,38.9282565 22.592775,38.9282565 C28.8931617,38.9282565 34.6655491,35.19045 36.9587103,29.6116111 L44.0890329,13.3473534 L44.9112265,11.5202567 C48.1365167,4.0121277 52.8714842,0.6459345 60.2913549,0.6180634 C69.110968,0.6180634 75.7612907,6.4647731 75.7612907,14.2113541 C75.76129,21.9966456 71.4598709,24.9153551 64.0322581,27.3370325" id="path464"></path>
                </g>
            </g>
        </g>
    </g>
</svg>