<?xml version="1.0" encoding="UTF-8" standalone="no"?>
<svg width="100px" height="100px" viewBox="0 0 100 100" version="1.1" xmlns="http://www.w3.org/2000/svg" xmlns:xlink="http://www.w3.org/1999/xlink" xmlns:sketch="http://www.bohemiancoding.com/sketch/ns">
    <title>lastfm-settings</title>
    <description>Created with Sketch (http://www.bohemiancoding.com/sketch)</description>
    <defs>
        <linearGradient x1="50%" y1="0%" x2="50%" y2="173.920641%" id="linearGradient-1">
            <stop stop-color="rgb(123,125,121)" offset="0%"></stop>
            <stop stop-color="rgb(0,0,0)" offset="100%"></stop>
        </linearGradient>
    </defs>
    <g id="Page 1" fill="rgb(215,215,215)" fill-rule="evenodd">
        <path d="M50,100 C77.6142389,100 100,77.6142389 100,50 C100,22.3857611 77.6142389,0 50,0 C22.3857611,0 0,22.3857611 0,50 C0,77.6142389 22.3857611,100 50,100 Z M50,100" id="Oval 1" fill="url(#linearGradient-1)"></path>
        <g id="g462" fill="rgb(0,0,0)" transform="translate(49.500000, 50.500000) scale(1, -1) translate(-49.500000, -50.500000)">
            <path d="M76.0322581,54.3370325 C75.3649032,54.5553551 74.7207742,54.7566454 74.1014194,54.9532906 C69.3680002,56.4412906 66.5143225,57.3393551 66.5143225,61.0229681 C66.5143225,64.0113551 68.8198708,66.1760005 71.997161,66.1760005 C74.4327738,66.1760005 76.2459351,65.1664521 77.8717415,62.8887748 C78.0250322,62.6781939 78.3114839,62.6023225 78.5468386,62.7261941 L83.3236129,65.1633554 C83.452129,65.2268393 83.548129,65.3445167 83.5899355,65.4838715 C83.6317419,65.6232264 83.6147097,65.7718716 83.5450323,65.8988393 C80.9839999,70.4433553 77.2941933,72.6544521 72.2619352,72.6544521 C64.6051607,72.6544521 59.6565162,68.0216777 59.6565162,60.8541943 C59.6565162,53.5241295 64.4441291,50.55742 73.2745808,47.6510969 C78.3889033,45.9447743 80.6526451,45.0405162 80.6526451,41.4002579 C80.6526451,37.3078709 76.9628388,34.3659349 71.9243869,34.537806 C66.6459354,34.7158705 65.0464516,37.5138061 63.0350963,42.0954835 C59.6348381,49.8544515 55.7638704,58.9156124 55.7267096,59.0038707 C51.8418062,67.9674837 44.1385802,73.1050325 34.5927738,73.1050325 C21.9842582,73.1050325 11.7246447,62.8438715 11.7246447,50.2307103 C11.7246447,37.6221947 21.9842575,27.3610322 34.5927738,27.3610322 C41.4722574,27.3610322 47.9181931,30.4098064 52.2800001,35.7285158 C52.4069679,35.8833545 52.4363872,36.0923867 52.3574195,36.2766448 L49.4758712,42.9300641 C49.3938067,43.1143221 49.2095486,43.2381931 49.0067099,43.2474834 C48.7976776,43.2567737 48.6103228,43.1421931 48.5158712,42.9625802 C45.7953551,37.761548 40.459613,34.5316122 34.592775,34.5316122 C25.9388392,34.5316122 18.9014204,41.5721282 18.9014204,50.2307089 C18.9014204,58.8877412 25.9388399,65.9282565 34.592775,65.9282565 C40.8931617,65.9282565 46.6655491,62.19045 48.9587103,56.6116111 L56.0890329,40.3473534 L56.9112265,38.5202567 C60.1365167,31.0121277 64.8714842,27.6459345 72.2913549,27.6180634 C81.110968,27.6180634 87.7612907,33.4647731 87.7612907,41.2113541 C87.76129,48.9966456 83.4598709,51.9153551 76.0322581,54.3370325" id="path464" fill="rgb(254,255,254)"></path>
        </g>
    </g>
</svg>