<?xml version="1.0" encoding="UTF-8" standalone="no"?>
<svg width="51px" height="51px" viewBox="0 0 51 51" version="1.1" xmlns="http://www.w3.org/2000/svg" xmlns:xlink="http://www.w3.org/1999/xlink" xmlns:sketch="http://www.bohemiancoding.com/sketch/ns">
    <title>list-add</title>
    <description>Created with Sketch (http://www.bohemiancoding.com/sketch)</description>
    <defs></defs>
    <g id="Page 1" fill="rgb(215,215,215)" fill-rule="evenodd">
        <path d="M25.5,51 C39.5832618,51 51,39.5832618 51,25.5 C51,11.4167382 39.5832618,0 25.5,0 C11.4167382,0 0,11.4167382 0,25.5 C0,39.5832618 11.4167382,51 25.5,51 Z M25.5,51" id="Oval 1" fill="rgb(80,81,80)"></path>
        <path d="M37.6399999,22.9940004 L28.5669999,22.9940004 L28.5669999,13.5 C28.5669999,12.672 27.8949999,12 27.0669999,12 L24.073,12 C23.2449999,12 22.573,12.672 22.573,13.5 L22.573,22.9940004 L13.5,22.9940004 C12.672,22.9940004 12,23.6660004 12,24.4940004 L12,27.3010004 C12,28.1290004 12.672,28.8010004 13.5,28.8010004 L22.573,28.8010004 L22.573,38.3890007 C22.573,39.2170007 23.2449999,39.8890007 24.073,39.8890007 L27.0669999,39.8890007 C27.8949999,39.8890007 28.5669999,39.2170007 28.5669999,38.3890007 L28.5669999,28.8010004 L37.6399999,28.8010004 C38.4679999,28.8010004 39.1399999,28.1290004 39.1399999,27.3010004 L39.1399999,24.4940004 C39.1399999,23.6659975 38.4680028,22.9940004 37.6399999,22.9940004 L37.6399999,22.9940004 L37.6399999,22.9940004" id="Shape" fill="rgb(254,255,254)"></path>
    </g>
</svg>