<?xml version="1.0" encoding="UTF-8" standalone="no"?>
<svg width="51px" height="51px" version="1.1" xmlns="http://www.w3.org/2000/svg" xmlns:xlink="http://www.w3.org/1999/xlink" xmlns:sketch="http://www.bohemiancoding.com/sketch/ns">
    <title>list-remove</title>
    <description>Created with Sketch (http://www.bohemiancoding.com/sketch)</description>
    <defs></defs>
    <g id="Page 1" fill="rgb(223,223,223)" fill-rule="evenodd">
        <path d="M25.5,51 C39.5832618,51 51,39.5832618 51,25.5 C51,11.4167382 39.5832618,0 25.5,0 C11.4167382,0 0,11.4167382 0,25.5 C0,39.5832618 11.4167382,51 25.5,51 Z M25.5,51" id="Oval 1" fill="rgb(100,100,100)"></path>
        <path d="M37.5705004,22.6930001 L13.4294996,22.6930001 C12.6014996,22.6930001 11.9294996,23.3650001 11.9294996,24.1930001 L11.9294996,27 C11.9294996,27.828 12.6014996,28.5 13.4294996,28.5 L37.5705004,28.5 C38.3985004,28.5 39.0705004,27.828 39.0705004,27 L39.0705004,24.1930001 C39.0705004,23.3649971 38.3985033,22.6930001 37.5705004,22.6930001 L37.5705004,22.6930001 L37.5705004,22.6930001" id="Shape" fill="rgb(255,255,255)"></path>
    </g>
</svg>