<?xml version="1.0" encoding="UTF-8" standalone="no"?>
<svg width="16px" height="16px" viewBox="0 0 16 16" version="1.1" xmlns="http://www.w3.org/2000/svg" xmlns:xlink="http://www.w3.org/1999/xlink" xmlns:sketch="http://www.bohemiancoding.com/sketch/ns">
    <title>Slice 1</title>
    <description>Created with Sketch (http://www.bohemiancoding.com/sketch)</description>
    <defs></defs>
    <g id="Page-1" stroke="none" stroke-width="1" fill="none" fill-rule="evenodd" sketch:type="MSPage">
        <g id="icon_Loader" sketch:type="MSLayerGroup">
            <g id="Layer_2"></g>
            <g id="Layer_3"></g>
            <g id="Layer_4"></g>
            <g id="Layer_5"></g>
            <g id="Layer_6"></g>
            <g id="Layer_8"></g>
            <g id="Layer_9"></g>
            <g id="Layer_10"></g>
            <g id="Layer_11"></g>
            <g id="Layer_12"></g>
            <g id="Layer_13"></g>
            <g id="Layer_14"></g>
            <g id="Layer_15"></g>
            <g id="Layer_16"></g>
            <g id="Layer_17"></g>
            <g id="Layer_18"></g>
            <g id="Layer_19"></g>
            <g id="Layer_20"></g>
            <g id="Layer_21"></g>
            <g id="Layer_24"></g>
            <g id="Layer_25"></g>
            <g id="Layer_26"></g>
            <g id="Layer_27"></g>
            <g id="Layer_28"></g>
            <g id="Layer_29"></g>
            <g id="Layer_47"></g>
            <g id="Layer_30"></g>
            <g id="Layer_31"></g>
            <g id="Layer_32"></g>
            <g id="Layer_33"></g>
            <g id="Layer_34"></g>
            <g id="Layer_35"></g>
            <g id="Layer_36"></g>
            <g id="Layer_37"></g>
            <g id="Layer_38"></g>
            <g id="Layer_39"></g>
            <g id="Layer_40"></g>
            <g id="Layer_41"></g>
            <g id="Layer_42"></g>
            <g id="Layer_43"></g>
            <g id="Layer_44"></g>
            <g id="Layer_45"></g>
            <g id="Layer_46"></g>
            <g id="Layer_48" fill="#010101" sketch:type="MSShapeGroup">
                <path d="M16,6.9 C15.3,2.8 11.8,-0.2 7.6,0 C3.5,0.3 0,3.8 0,8 C0,12.1 3.2,15.6 7.2,16 C9.2,16.2 11.2,15.6 12.8,14.4 C14.3,13.2 15.7,11.1 15.5,9.2 C14.8,13 11.3,15.7 7.4,15.3 C3.5,14.9 0.5,11.4 0.9,7.4 C1.3,3.3 5.2,0.5 9.2,1.1 C11,1.4 12.6,2.5 13.7,4 C14.2,4.8 14.6,5.7 14.8,6.6 C14.9,6.9 14.8,7.3 15.1,7.5 C15.5,7.7 16.1,7.4 16,6.9 C15.9,6.6 16,7 16,6.9 L16,6.9 Z" id="Shape"></path>
            </g>
            <g id="Layer_49"></g>
            <g id="Layer_51"></g>
            <g id="Layer_52"></g>
            <g id="Layer_53"></g>
            <g id="Layer_54"></g>
            <g id="Layer_55"></g>
            <g id="Layer_56"></g>
            <g id="Layer_57"></g>
            <g id="Layer_58"></g>
            <g id="Layer_59"></g>
            <g id="Layer_60"></g>
            <g id="Layer_61"></g>
            <g id="Layer_62"></g>
            <g id="Layer_63"></g>
            <g id="Layer_64"></g>
            <g id="Layer_65"></g>
            <g id="Layer_66"></g>
            <g id="Layer_50"></g>
        </g>
    </g>
</svg>