<?xml version="1.0" encoding="UTF-8" standalone="no"?>
<svg width="49px" height="50px" viewBox="0 0 49 50" version="1.1" xmlns="http://www.w3.org/2000/svg" xmlns:xlink="http://www.w3.org/1999/xlink" xmlns:sketch="http://www.bohemiancoding.com/sketch/ns">
    <title>loading-animation</title>
    <description>Created with Sketch (http://www.bohemiancoding.com/sketch)</description>
    <defs></defs>
    <g id="Page 1" fill="rgb(215,215,215)" fill-rule="evenodd">
        <g id="Group" fill="rgb(0,0,0)">
            <path d="M25.0079956,0.757995605 C23.7099956,0.757995605 22.6559956,1.81099558 22.6559956,3.1099956 L22.6559956,10.7559955 C22.6559956,12.0529956 23.7099956,13.1059954 25.0079956,13.1059954 C26.3069956,13.1059954 27.3599956,12.0529954 27.3599956,10.7559955 L27.3599956,3.1099956 C27.3590088,1.81097412 26.3070068,0.757995605 25.0079956,0.757995605 L25.0079956,0.757995605 L25.0079956,0.757995605" id="Shape" fill="rgb(111,111,111)"></path>
            <path d="M25.0079956,39.3890381 C24.2659956,39.3890381 23.6639956,39.9910381 23.6639956,40.7330381 L23.6639956,48.379038 C23.6639956,49.121038 24.2659956,49.722038 25.0079956,49.722038 C25.7499956,49.722038 26.3519956,49.121038 26.3519956,48.379038 L26.3519956,40.7330381 C26.3519897,39.9899902 25.75,39.3890381 25.0079956,39.3890381 L25.0079956,39.3890381 L25.0079956,39.3890381" id="Shape" fill="rgb(111,111,111)"></path>
            <path d="M47.6430054,24.9039917 L39.9970055,24.9039917 C39.5330055,24.9039917 39.1580055,25.2789917 39.1580055,25.7419917 C39.1580055,26.2069917 39.5330055,26.5829917 39.9970055,26.5829917 L47.6430054,26.5829917 C48.1070054,26.5829917 48.4830053,26.2069917 48.4830053,25.7419917 C48.4820557,25.2789917 48.105957,24.9039917 47.6430054,24.9039917 L47.6430054,24.9039917 L47.6430054,24.9039917" id="Shape" fill="rgb(111,111,111)"></path>
            <path d="M11.8660278,25.7420044 C11.8660278,24.7220044 11.0390278,23.8960044 10.0190278,23.8960044 L2.37202799,23.8960044 C1.35202801,23.8960044 0.52502799,24.7220044 0.52502799,25.7420044 C0.52502799,26.7630044 1.35202801,27.5900044 2.37202799,27.5900044 L10.0190278,27.5900044 C11.0390015,27.5900269 11.8660278,26.7639771 11.8660278,25.7420044 C11.8660278,25.7420044 11.8660278,26.7639771 11.8660278,25.7420044 L11.8660278,25.7420044" id="Shape" fill="rgb(111,111,111)"></path>
            <path d="M15.5809937,5.04998779 C14.9779937,4.00598776 13.6429937,3.64898777 12.5999937,4.25098777 C11.5549937,4.85398775 11.1979938,6.18898773 11.8009937,7.23198771 L15.6229937,13.8539879 C16.0269937,14.5539879 16.7609937,14.9459879 17.5159937,14.9459879 C17.8869937,14.9459879 18.2619937,14.8509879 18.6049937,14.6519879 C19.6489937,14.0499879 20.0059937,12.715988 19.4039937,11.670988 L15.5809937,5.04998779 L15.5809937,5.04998779 L15.5809937,5.04998779" id="Shape" fill="rgb(111,111,111)"></path>
            <path d="M33.5209961,38.1369629 C33.1959961,37.5749629 32.4779961,37.3829629 31.9149961,37.7069629 C31.3529962,38.0309629 31.1599962,38.7499629 31.4839962,39.3119629 L35.3059962,45.9329627 C35.5249962,46.3099627 35.9189962,46.5209627 36.3259962,46.5209627 C36.5249962,46.5209627 36.7279962,46.4699627 36.9119962,46.3629627 C37.4739962,46.0389627 37.6679962,45.3199627 37.3439962,44.7589627 L33.5209961,38.1369629 L33.5209961,38.1369629 L33.5209961,38.1369629" id="Shape" fill="rgb(111,111,111)"></path>
            <path d="M4.39801025,16.1699829 L11.0190101,19.9939828 C11.3370101,20.1779828 11.68301,20.2639828 12.0250101,20.2639828 C12.7200101,20.2639828 13.3980101,19.9029828 13.7710102,19.2559828 C14.3290102,18.2919828 13.9980102,17.0609829 13.0350102,16.5039827 L6.41300994,12.6809827 C5.44900995,12.1249827 4.21900994,12.4549827 3.66100985,13.4189827 C3.10300976,14.3829827 3.43597412,15.6140137 4.39801025,16.1699829 C4.39801025,16.1699829 3.43597412,15.6140137 4.39801025,16.1699829 L4.39801025,16.1699829" id="Shape" fill="rgb(111,111,111)"></path>
            <path d="M45.1129761,36.1879883 L38.4909759,32.3669882 C38.0099759,32.0889882 37.3939759,32.2549882 37.1149758,32.7349882 C36.8379758,33.2169882 37.0019758,33.8349882 37.4839758,34.1119882 L44.1049756,37.9319881 C44.2639756,38.0259881 44.4379756,38.0689881 44.6089756,38.0689881 C44.9569756,38.0689881 45.2949756,37.8869881 45.4819756,37.5649881 C45.7600098,37.0820313 45.5960083,36.467041 45.1129761,36.1879883 C45.1129761,36.1879883 45.5960083,36.467041 45.1129761,36.1879883 L45.1129761,36.1879883" id="Shape" fill="rgb(111,111,111)"></path>
            <path d="M37.9869995,18.9199829 C38.1009995,18.9199829 38.2159995,18.8909829 38.3219995,18.8299829 L44.9449997,15.0079829 C45.2659997,14.8219829 45.3769997,14.4119829 45.1909997,14.0899829 C45.0049997,13.7699829 44.5929997,13.6579829 44.2729997,13.8439829 L37.6499995,17.6679828 C37.3299996,17.8539828 37.2189995,18.2639828 37.4039995,18.5839828 C37.5289917,18.8010254 37.7559814,18.9199829 37.9869995,18.9199829 C37.9869995,18.9199829 37.7559814,18.9199829 37.9869995,18.9199829 L37.9869995,18.9199829" id="Shape" fill="rgb(111,111,111)"></path>
            <path d="M13.4799805,32.3980103 C13.0169805,31.5930102 11.9889804,31.3220103 11.1869805,31.7830102 L4.56598067,35.6070101 C3.7629807,36.0700101 3.48798072,37.0970101 3.95098066,37.9000101 C4.26198065,38.4390101 4.82698065,38.7400101 5.40598071,38.7400101 C5.6909807,38.7400101 5.97998071,38.6680101 6.24398071,38.5150101 L12.8649805,34.6910102 C13.6699829,34.2290039 13.9429932,33.2009888 13.4799805,32.3980103 C13.4799805,32.3980103 13.9429932,33.2009888 13.4799805,32.3980103 L13.4799805,32.3980103" id="Shape" fill="rgb(111,111,111)"></path>
            <path d="M32.2509766,13.1989746 C32.3299766,13.2449746 32.4169766,13.2669746 32.5019765,13.2669746 C32.6759765,13.2669746 32.8459766,13.1749746 32.9389766,13.0139746 L36.7619765,6.39297481 C36.9009765,6.15197481 36.8189765,5.8429748 36.5759765,5.70497479 C36.3359765,5.56497478 36.0269765,5.64797479 35.8879765,5.88897479 L32.0659765,12.5119749 C31.9279785,12.7520142 32.0100098,13.0599976 32.2509766,13.1989746 C32.2509766,13.1989746 32.0100098,13.0599976 32.2509766,13.1989746 L32.2509766,13.1989746" id="Shape" fill="rgb(111,111,111)"></path>
            <path d="M18.2680054,37.4160156 C17.5460054,36.9980156 16.6220053,37.2460156 16.2040055,37.9690156 L12.3840055,44.5900154 C11.9650055,45.3140154 12.2140055,46.2360154 12.9360055,46.6540153 C13.1750055,46.7930153 13.4340055,46.8570153 13.6910055,46.8570153 C14.2120056,46.8570153 14.7210055,46.5860153 15.0000055,46.1010153 L18.8220056,39.4800155 C19.2379761,38.7580566 18.9899902,37.8320313 18.2680054,37.4160156 C18.2680054,37.4160156 18.9899902,37.8320313 18.2680054,37.4160156 L18.2680054,37.4160156" id="Shape" fill="rgb(111,111,111)"></path>
        </g>
    </g>
</svg>