<?xml version="1.0" encoding="UTF-8" standalone="no"?>
<svg width="70px" height="70px" viewBox="0 0 70 70" version="1.1" xmlns="http://www.w3.org/2000/svg" xmlns:xlink="http://www.w3.org/1999/xlink" xmlns:sketch="http://www.bohemiancoding.com/sketch/ns">
    <title>loved</title>
    <description>Created with Sketch (http://www.bohemiancoding.com/sketch)</description>
    <defs>
        <radialGradient cx="50%" cy="50%" fx="50%" fy="50%" r="211.271691%" id="radialGradient-1">
            <stop stop-color="rgb(254,255,254)" stop-opacity="0.5" offset="0%"></stop>
            <stop stop-color="rgb(0,0,0)" stop-opacity="0.5" offset="100%"></stop>
        </radialGradient>
        <path d="M49.8474408,12.4489679 C45.9948526,12.4489679 42.2975583,14.9094717 39.7041469,19.1988827 C38.6352058,20.9647739 36.8247353,22.0188663 34.8641469,22.0188663 C32.8996763,22.0188663 31.0905,20.9633417 30.0241469,19.1960183 C27.4333233,14.9152 23.7450878,12.4575609 19.9041467,12.4575609 C15.0253232,12.4575609 10.0843822,16.4462123 10.0843822,24.0711961 C10.0843822,33.3603854 19.1082646,41.221681 25.6966177,46.9590365 C28.790853,49.6601484 31.0322649,51.5449112 32.5140296,52.7923494 C33.3810885,53.5241989 34.1368531,54.1615238 34.8214414,54.7501542 C36.181559,53.5514105 37.8548533,52.1492958 40.1920297,50.1871943 L44.0899122,46.9103417 C51.6165004,40.5800584 59.6465003,33.0596255 59.6465003,23.9365692 C59.6464485,16.396059 54.7172062,12.4489679 49.8474408,12.4489679 L49.8474408,12.4489679 L49.8474408,12.4489679" id="path-2"></path>
    </defs>
    <g id="Page 1" fill="rgb(215,215,215)" fill-rule="evenodd">
        <g id="Group" fill="rgb(0,0,0)">
            <use id="Shape" fill="rgb(233,63,51)" xlink:href="#path-2"></use>
            <use id="Shape-1" stroke="none" fill="url(#radialGradient-1)" xlink:href="#path-2"></use>
            <path d="M49.8474408,4.07208552 C44.1455583,4.07208552 38.8448528,7.01523763 34.8641466,12.3730632 C30.8886172,7.01953423 25.5982645,4.08067873 19.9028527,4.08067873 C11.4729704,4.08067873 2.51250009,11.0869562 2.51250009,24.072629 C2.51250009,37.4306718 13.216147,46.7542339 21.0326176,53.561437 C23.9922646,56.1451091 26.1637939,57.9754489 27.9302645,59.4649276 C30.720382,61.818017 32.1206174,62.9981422 33.6321471,64.6594836 C33.9582647,65.0232601 34.3982647,65.2237668 34.8628529,65.2237668 C35.3274411,65.2237668 35.7648529,65.0246923 36.096147,64.6609158 C38.0929705,62.4639351 39.9047354,60.9415166 44.762853,56.8669338 L48.6710882,53.5829204 C55.1520293,48.1320024 67.215794,37.9849312 67.215794,23.9408675 C67.2170841,11.0339103 58.2669462,4.07208552 49.8474408,4.07208552 L49.8474408,4.07208552 L49.8474408,4.07208552 M46.5538545,50.5065701 L42.653384,53.7848548 C38.5937369,57.1891724 36.6202073,58.8447848 34.8563251,60.62643 C33.5699721,59.3546446 32.1360898,58.1473079 30.0460898,56.3857132 C28.354678,54.9621156 26.1792664,53.1289116 23.1756192,50.5065701 C15.9285605,44.1963375 6.00526669,35.5530664 6.00526669,24.0726242 C6.00526669,13.5990129 13.1656196,7.94615595 19.9015019,7.94615595 C25.1258551,7.94615595 30.0499725,11.1342127 33.4107962,16.6882485 C34.0306785,17.7151293 35.696208,17.7151293 36.3147961,16.6882485 C39.6795019,11.1270519 44.61009,7.93756275 49.844796,7.93756275 C56.5703255,7.93756275 63.721619,13.5460216 63.721619,23.9394306 C63.7229507,35.1276526 54.8621467,43.5203569 46.5538545,50.5065701 C46.5538545,50.5065701 54.8621467,43.5203569 46.5538545,50.5065701 L46.5538545,50.5065701" id="Shape" fill="rgb(79,79,79)"></path>
        </g>
    </g>
</svg>