<?xml version="1.0" encoding="UTF-8" standalone="no"?>
<svg width="51px" height="44px" version="1.1" xmlns="http://www.w3.org/2000/svg" xmlns:xlink="http://www.w3.org/1999/xlink" xmlns:sketch="http://www.bohemiancoding.com/sketch/ns">
    <title>loved</title>
    <description>Created with Sketch (http://www.bohemiancoding.com/sketch)</description>
    <defs></defs>
    <g id="Page 1" fill="rgb(223,223,223)" fill-rule="evenodd">
        <g id="Group" fill="rgb(0,0,0)">
            <path d="M36.9730225,6.60900879 C33.9960225,6.60900879 31.1390224,8.32700884 29.1350226,11.3220086 C28.3090227,12.5550086 26.9100227,13.2910086 25.3950226,13.2910086 C23.8770226,13.2910086 22.4790227,12.5540086 21.6550226,11.3200086 C19.6530225,8.33100855 16.8030224,6.61500871 13.8350224,6.61500871 C10.0650225,6.61500871 6.24702263,9.4000088 6.24702263,14.7240089 C6.24702263,21.210009 13.2200227,26.6990093 18.3110228,30.7050089 C20.7020228,32.5910089 22.4340229,33.9070088 23.5790229,34.7780088 C24.2490229,35.2890088 24.8330228,35.7340088 25.3620229,36.1450088 C26.4130229,35.3080088 27.706023,34.3290088 29.512023,32.9590087 L32.5240231,30.6710086 C38.340023,26.2510085 44.545023,21.0000091 44.545023,14.6300082 C44.5449829,9.36499023 40.7360229,6.60900879 36.9730225,6.60900879 L36.9730225,6.60900879 L36.9730225,6.60900879" id="Shape" fill="rgb(133,38,31)"></path>
            <path d="M36.9730225,0.760009766 C32.5670223,0.760009766 28.4710226,2.81500983 25.3950224,6.55600977 C22.3230224,2.81800985 18.2350225,0.766009808 13.8340225,0.766009808 C7.32002258,0.766009808 0.396022797,5.65801001 0.396022797,14.7250094 C0.396022797,24.0520091 8.66702271,30.5620093 14.7070227,35.3150096 C16.9940226,37.1190096 18.6720226,38.3970096 20.0370226,39.4370098 C22.1930225,41.0800098 23.2750225,41.9040098 24.4430227,43.0640099 C24.6950227,43.3180099 25.0350227,43.4580099 25.3940227,43.4580099 C25.7530227,43.4580099 26.0910227,43.3190099 26.3470227,43.0650099 C27.8900227,41.5310099 29.2900228,40.46801 33.0440227,37.62301 L36.0640227,35.33001 C41.0720226,31.52401 50.3940226,24.4390102 50.3940226,14.6330095 C50.3950195,5.62097168 43.4790039,0.760009766 36.9730225,0.760009766 L36.9730225,0.760009766 L36.9730225,0.760009766 M34.4279785,33.1820068 L31.4139786,35.4710069 C28.2769785,37.848007 26.7519784,39.0040069 25.3889785,40.2480068 C24.3949785,39.3600068 23.2869785,38.5170069 21.6719785,37.2870069 C20.3649784,36.2930068 18.6839786,35.0130069 16.3629785,33.1820068 C10.7629786,28.7760067 3.09497881,22.7410069 3.09497881,14.7250061 C3.09497881,7.4120059 8.6279788,3.46500587 13.8329787,3.46500587 C17.8699789,3.46500587 21.6749787,5.69100595 24.2719789,9.56900597 C24.7509789,10.286006 26.0379789,10.286006 26.5159788,9.56900597 C29.1159787,5.68600607 32.9259787,3.45900583 36.9709787,3.45900583 C42.1679788,3.45900583 47.6939783,7.37500572 47.6939783,14.6320062 C47.6950073,22.4439697 40.8480225,28.3040161 34.4279785,33.1820068 C34.4279785,33.1820068 40.8480225,28.3040161 34.4279785,33.1820068 L34.4279785,33.1820068" id="Shape" fill="rgb(98,97,97)"></path>
        </g>
    </g>
</svg>