<?xml version="1.0" encoding="UTF-8" standalone="no"?>
<svg width="90px" height="90px" version="1.1" xmlns="http://www.w3.org/2000/svg" xmlns:xlink="http://www.w3.org/1999/xlink" xmlns:sketch="http://www.bohemiancoding.com/sketch/ns">
    <title>loved_playlist</title>
    <description>Created with Sketch (http://www.bohemiancoding.com/sketch)</description>
    <defs>
        <radialGradient cx="50%" cy="50%" fx="50%" fy="50%" r="211.271691%" id="radialGradient-1">
            <stop stop-color="rgb(254,255,254)" stop-opacity="0.5" offset="0%"></stop>
            <stop stop-color="rgb(0,0,0)" stop-opacity="0.5" offset="100%"></stop>
        </radialGradient>
        <path d="M45.0021389,12.2169656 C39.4723594,4.33790827 32.111921,0.0126470508 24.1916638,0.0126470508 C12.4642834,0.0126470508 0.00247920983,10.3241374 0.00247920983,29.4358042 C0.00247920983,49.0955064 14.8907622,62.8174611 25.763115,72.8359636 C29.8798485,76.6384837 32.9003465,79.3322867 35.3556263,81.5244272 C39.2383525,84.9875871 41.1860157,86.7244366 43.286684,89.1695162 C43.7420987,89.7049042 44.3523186,90 45.0003396,90 C45.6465606,90 46.2549804,89.707012 46.7139953,89.171624 C49.4914854,85.9382172 52.0133673,83.6975973 58.7707865,77.7008293 L64.205163,72.8675819 C73.2198554,64.8451921 90,49.9112378 90,29.2418842 C90.0017265,10.2461957 77.5543621,0 65.8432154,0 C57.9121578,0 50.5373182,4.33158474 45.0021389,12.2169656 Z M45.0021389,12.2169656" id="path-2"></path>
    </defs>
    <g id="Page 1" fill="rgb(223,223,223)" fill-rule="evenodd">
        <use id="Shape" fill="rgb(255,38,0)" xlink:href="#path-2"></use>
        <use id="Shape-1" stroke="none" fill="url(#radialGradient-1)" xlink:href="#path-2"></use>
    </g>
</svg>