<?xml version="1.0" encoding="UTF-8" standalone="no"?>
<svg width="70px" height="70px" viewBox="0 0 70 70" version="1.1" xmlns="http://www.w3.org/2000/svg" xmlns:xlink="http://www.w3.org/1999/xlink" xmlns:sketch="http://www.bohemiancoding.com/sketch/ns">
    <title>loved</title>
    <description>Created with Sketch (http://www.bohemiancoding.com/sketch)</description>
    <defs>
        <radialGradient cx="50%" cy="39.1449653%" fx="50%" fy="39.1449653%" r="60.855037%" id="radialGradient-1">
            <stop stop-color="rgb(150,44,38)" offset="0%"></stop>
            <stop stop-color="rgb(233,105,103)" offset="100%"></stop>
        </radialGradient>
        <path d="M49.8461466,11.6988137 C45.9935584,11.6988137 42.2962641,14.1593175 39.7028527,18.4487285 C38.6339116,20.2146198 36.8234411,21.2687121 34.8628527,21.2687121 C32.8983821,21.2687121 31.0892058,20.2131875 30.0228527,18.4458641 C27.4320291,14.1650458 23.7437936,11.7074067 19.9028525,11.7074067 C15.024029,11.7074067 10.083088,15.6960581 10.083088,23.3210419 C10.083088,32.6102313 19.1069704,40.4715268 25.6953235,46.2088824 C28.7895588,48.9099942 31.0309707,50.794757 32.5127354,52.0421953 C33.3797942,52.7740447 34.1355589,53.4113696 34.8201472,54 C36.1802648,52.8012563 37.853559,51.3991416 40.1907355,49.4370401 L44.088618,46.1601875 C51.6152062,39.8299042 59.6452061,32.3094713 59.6452061,23.186415 C59.6451543,15.6459049 54.715912,11.6988137 49.8461466,11.6988137 L49.8461466,11.6988137 L49.8461466,11.6988137" id="path-2"></path>
    </defs>
    <g id="Page 1" fill="rgb(215,215,215)" fill-rule="evenodd">
        <g id="Group" fill="rgb(0,0,0)">
            <use id="Shape" stroke="rgb(254,255,254)" stroke-width="1" fill="url(#radialGradient-1)" xlink:href="#path-2"></use>
            <use id="Shape-1" stroke="none" fill="none" xlink:href="#path-2"></use>
            <path d="M49.8474408,4.07208552 C44.1455583,4.07208552 38.8448528,7.01523763 34.8641466,12.3730632 C30.8886172,7.01953423 25.5982645,4.08067873 19.9028527,4.08067873 C11.4729704,4.08067873 2.51250009,11.0869562 2.51250009,24.072629 C2.51250009,37.4306718 13.216147,46.7542339 21.0326176,53.561437 C23.9922646,56.1451091 26.1637939,57.9754489 27.9302645,59.4649276 C30.720382,61.818017 32.1206174,62.9981422 33.6321471,64.6594836 C33.9582647,65.0232601 34.3982647,65.2237668 34.8628529,65.2237668 C35.3274411,65.2237668 35.7648529,65.0246923 36.096147,64.6609158 C38.0929705,62.4639351 39.9047354,60.9415166 44.762853,56.8669338 L48.6710882,53.5829204 C55.1520293,48.1320024 67.215794,37.9849312 67.215794,23.9408675 C67.2170841,11.0339103 58.2669462,4.07208552 49.8474408,4.07208552 L49.8474408,4.07208552 L49.8474408,4.07208552 M46.5538545,50.5065701 L42.653384,53.7848548 C38.5937369,57.1891724 36.6202073,58.8447848 34.8563251,60.62643 C33.5699721,59.3546446 32.1360898,58.1473079 30.0460898,56.3857132 C28.354678,54.9621156 26.1792664,53.1289116 23.1756192,50.5065701 C15.9285605,44.1963375 6.00526669,35.5530664 6.00526669,24.0726242 C6.00526669,13.5990129 13.1656196,7.94615595 19.9015019,7.94615595 C25.1258551,7.94615595 30.0499725,11.1342127 33.4107962,16.6882485 C34.0306785,17.7151293 35.696208,17.7151293 36.3147961,16.6882485 C39.6795019,11.1270519 44.61009,7.93756275 49.844796,7.93756275 C56.5703255,7.93756275 63.721619,13.5460216 63.721619,23.9394306 C63.7229507,35.1276526 54.8621467,43.5203569 46.5538545,50.5065701 C46.5538545,50.5065701 54.8621467,43.5203569 46.5538545,50.5065701 L46.5538545,50.5065701" id="Shape" fill="rgb(79,79,79)"></path>
        </g>
    </g>
</svg>