<?xml version="1.0" encoding="UTF-8" standalone="no"?>
<svg width="95px" height="95px" version="1.1" xmlns="http://www.w3.org/2000/svg" xmlns:xlink="http://www.w3.org/1999/xlink" xmlns:sketch="http://www.bohemiancoding.com/sketch/ns">
    <title>loved_playlist</title>
    <description>Created with Sketch (http://www.bohemiancoding.com/sketch)</description>
    <defs></defs>
    <g id="Page 1" fill="rgb(223,223,223)" fill-rule="evenodd">
        <path d="M68.8432154,12 C60.9121578,12 53.5373182,15.609654 48.0021389,22.1808047 C42.4723594,15.6149236 35.111921,12.0105392 27.1916638,12.0105392 C15.4642834,12.0105392 3.00247921,20.6034479 3.00247921,36.5298368 C3.00247921,52.912922 17.8907622,64.3478842 28.763115,72.6966364 C32.8798485,75.8654031 35.9003465,78.1102389 38.3556263,79.9370227 C42.2383525,82.8229892 44.1860157,84.2703638 46.286684,86.3079301 C46.7420987,86.7540869 47.3523186,87 48.0003396,87 C48.6465606,87 49.2549804,86.7558434 49.7139953,86.3096866 C52.4914854,83.615181 55.0133673,81.7479978 61.7707865,76.7506911 L67.205163,72.7229849 C76.2198554,66.0376601 93,53.5926982 93,36.3682368 C93.0017265,20.5384964 80.5543621,12 68.8432154,12 L68.8432154,12 L68.8432154,12" id="Shape" fill="rgb(162,177,201)"></path>
    </g>
</svg>