<?xml version="1.0" encoding="UTF-8" standalone="no"?>
<svg width="61px" height="60px" version="1.1" xmlns="http://www.w3.org/2000/svg" xmlns:xlink="http://www.w3.org/1999/xlink" xmlns:sketch="http://www.bohemiancoding.com/sketch/ns">
    <title>loved</title>
    <description>Created with Sketch (http://www.bohemiancoding.com/sketch)</description>
    <defs>
        <radialGradient cx="50%" cy="50%" fx="50%" fy="50%" r="211.271691%" id="radialGradient-1">
            <stop stop-color="rgb(254,255,254)" stop-opacity="0.5" offset="0%"></stop>
            <stop stop-color="rgb(0,0,0)" stop-opacity="0.5" offset="100%"></stop>
        </radialGradient>
        <path d="M44.2226347,8.16248946 C40.6619092,8.16248946 37.244713,10.5442623 34.8477722,14.696421 C33.8598114,16.4058074 32.1864978,17.426171 30.3744388,17.426171 C28.5587918,17.426171 26.8866743,16.404421 25.9011055,14.6936483 C23.5065564,10.5498073 20.0977327,8.17080753 16.5477719,8.17080753 C12.0385563,8.17080753 7.47192903,12.0318304 7.47192903,19.4128305 C7.47192903,28.4047852 15.812184,36.0145356 21.9014194,41.5683077 C24.7612429,44.1829896 26.8328509,46.007444 28.2023607,47.2149668 C29.0037333,47.9233986 29.702243,48.5403304 30.3349685,49.1101258 C31.592047,47.9497395 33.1385765,46.5924895 35.2986941,44.6931711 L38.9012825,41.521171 C45.8576746,35.3934436 53.2793412,28.1136489 53.2793412,19.2825114 C53.2792933,11.9832819 48.7234784,8.16248946 44.2226347,8.16248946 L44.2226347,8.16248946 L44.2226347,8.16248946" id="path-2"></path>
    </defs>
    <g id="Page 1" fill="rgb(223,223,223)" fill-rule="evenodd">
        <g id="Group" fill="rgb(0,0,0)">
            <use id="Shape" fill="rgb(255,38,0)" xlink:href="#path-2"></use>
            <use id="Shape-1" stroke="none" fill="url(#radialGradient-1)" xlink:href="#path-2"></use>
            <path d="M44.2226347,0.0536499023 C38.952713,0.0536499023 34.0535761,2.90262727 30.3744385,8.08901354 C26.7000856,2.90678639 21.8105172,0.0619681423 16.546576,0.0619681423 C8.75532113,0.0619681423 0.473674325,6.84405933 0.473674325,19.4142176 C0.473674325,32.3448308 10.3664389,41.3700584 17.5907526,47.9594451 C20.3261839,50.4604451 22.3332035,52.2322179 23.9658505,53.6740363 C26.5445955,55.9518318 27.8387524,57.0941954 29.2357723,58.7023774 C29.5371841,59.0545137 29.9438507,59.2486046 30.3732428,59.2486046 C30.802635,59.2486046 31.2069095,59.0559001 31.5131056,58.7037637 C33.3586546,56.5770818 35.0331645,55.1033775 39.5232429,51.1591729 L43.1353997,47.9802411 C49.1253604,42.7037411 60.2752036,32.8813551 60.2752036,19.2866723 C60.2763959,6.79271074 52.0042988,0.0536499023 44.2226347,0.0536499023 L44.2226347,0.0536499023 L44.2226347,0.0536499023 M41.1785625,45.0023277 L37.5735822,48.1757141 C33.8214841,51.4711006 31.9974644,53.0737368 30.3672096,54.7983731 C29.1783076,53.5672822 27.8530527,52.3985777 25.921386,50.6933504 C24.3581115,49.3153049 22.3475038,47.5407596 19.5714056,45.0023277 C12.8733665,38.8940093 3.7018374,30.527305 3.7018374,19.414213 C3.7018374,9.27573545 10.3197394,3.80375814 16.5453275,3.80375814 C21.3738963,3.80375814 25.9249746,6.8898037 29.0311904,12.2661219 C29.604112,13.2601446 31.1434649,13.2601446 31.7151903,12.2661219 C34.8249942,6.88287205 39.3820529,3.7954399 44.2201903,3.7954399 C50.4362099,3.7954399 57.0457388,9.22443975 57.0457388,19.2852813 C57.0469695,30.1155035 48.8574386,38.2396587 41.1785625,45.0023277 C41.1785625,45.0023277 48.8574386,38.2396587 41.1785625,45.0023277 L41.1785625,45.0023277" id="Shape" fill="rgb(98,97,97)"></path>
        </g>
    </g>
</svg>