<?xml version="1.0" encoding="UTF-8" standalone="no"?>
<svg width="54px" height="53px" version="1.1" xmlns="http://www.w3.org/2000/svg" xmlns:xlink="http://www.w3.org/1999/xlink" xmlns:sketch="http://www.bohemiancoding.com/sketch/ns">
    <title>loved</title>
    <description>Created with Sketch (http://www.bohemiancoding.com/sketch)</description>
    <defs>
        <radialGradient cx="50%" cy="50%" fx="50%" fy="50%" r="211.271691%" id="radialGradient-1">
            <stop stop-color="rgb(254,255,254)" stop-opacity="0.5" offset="0%"></stop>
            <stop stop-color="rgb(0,0,0)" stop-opacity="0.5" offset="100%"></stop>
        </radialGradient>
        <path d="M38.9730225,12.7592135 C35.9960225,12.7592135 33.1390224,14.516259 31.1350226,17.579327 C30.3090227,18.8403498 28.9100227,19.593077 27.3950226,19.593077 C25.8770226,19.593077 24.4790227,18.839327 23.6550226,17.5772816 C21.6530225,14.5203497 18.8030224,12.7653498 15.8350224,12.7653498 C12.0650225,12.7653498 8.24702263,15.6136454 8.24702263,21.0586455 C8.24702263,27.6920546 15.2200227,33.305805 20.3110228,37.40285 C22.7020228,39.3317136 24.4340229,40.6776226 25.5790229,41.5684181 C26.2490229,42.0910317 26.8330228,42.5461454 27.3620229,42.9664863 C28.4130229,42.1104635 29.706023,41.1092136 31.512023,39.7080771 L34.5240231,37.368077 C40.340023,32.8476223 46.545023,27.477282 46.545023,20.9625084 C46.5449829,15.5778309 42.7360229,12.7592135 38.9730225,12.7592135 L38.9730225,12.7592135 L38.9730225,12.7592135" id="path-2"></path>
    </defs>
    <g id="Page 1" fill="rgb(215,215,215)" fill-rule="evenodd">
        <g id="Group" fill="rgb(0,0,0)">
            <use id="Shape" fill="rgb(233,63,51)" xlink:href="#path-2"></use>
            <use id="Shape-1" stroke="none" fill="url(#radialGradient-1)" xlink:href="#path-2"></use>
            <path d="M38.9730225,6.77728271 C34.5670223,6.77728271 30.4710226,8.87898733 27.3950224,12.70501 C24.3230224,8.88205553 20.2350225,6.78341912 15.8340225,6.78341912 C9.32002258,6.78341912 2.3960228,11.7866011 2.3960228,21.0596687 C2.3960228,30.5986457 10.6670227,37.2566005 16.7070227,42.1176234 C18.9940226,43.9626235 20.6720226,45.2696689 22.0370226,46.3333055 C24.1930225,48.0136464 25.2750225,48.8563737 26.4430227,50.0427374 C26.6950227,50.3025101 27.0350227,50.4456919 27.3940227,50.4456919 C27.7530227,50.4456919 28.0910227,50.3035329 28.3470227,50.0437601 C29.8900227,48.4748964 31.2900228,47.3877375 35.0440227,44.4780784 L38.0640227,42.1329648 C43.0720226,38.2404648 52.3940226,30.9944423 52.3940226,20.9655779 C52.3950195,11.748721 45.4790039,6.77728271 38.9730225,6.77728271 L38.9730225,6.77728271 L38.9730225,6.77728271 M36.4279785,39.9361434 L33.4139786,42.2771661 C30.2769785,44.7081889 28.7519784,45.8904616 27.3889785,47.1627342 C26.3949785,46.2545524 25.2869785,45.3923934 23.6719785,44.1344388 C22.3649784,43.1178479 20.6839786,41.8087571 18.3629785,39.9361434 C12.7629786,35.4300069 5.09497881,29.2578479 5.09497881,21.0596653 C5.09497881,13.5804606 10.6279788,9.54375601 15.8329787,9.54375601 C19.8699789,9.54375601 23.6749787,11.820347 26.2719789,15.7864834 C26.7509789,16.5197788 28.0379789,16.5197788 28.5159788,15.7864834 C31.1159787,11.8152335 34.9259787,9.5376196 38.9709787,9.5376196 C44.1679788,9.5376196 49.6939783,13.5426195 49.6939783,20.9645518 C49.6950073,28.9540599 42.8480225,34.9472892 36.4279785,39.9361434 C36.4279785,39.9361434 42.8480225,34.9472892 36.4279785,39.9361434 L36.4279785,39.9361434" id="Shape" fill="rgb(79,79,79)"></path>
        </g>
    </g>
</svg>