<?xml version="1.0" encoding="UTF-8" standalone="no"?>
<svg width="50px" height="50px" version="1.1" xmlns="http://www.w3.org/2000/svg" xmlns:xlink="http://www.w3.org/1999/xlink" xmlns:sketch="http://www.bohemiancoding.com/sketch/ns">
    <title>music-settings</title>
    <description>Created with Sketch (http://www.bohemiancoding.com/sketch)</description>
    <defs></defs>
    <g id="Page 1" fill="rgb(223,223,223)" fill-rule="evenodd">
        <g id="Group" fill="rgb(0,0,0)">
            <path d="M41.2520142,-0.0439453125 L10.4410133,-0.0439453125 C9.49401331,-0.0439453125 8.72501338,0.724054694 8.72501338,1.67105472 L8.72501338,47.3360556 C8.72501338,48.2830557 9.49401337,49.0520556 10.4410133,49.0520556 L41.2520142,49.0520556 C42.1990142,49.0520556 42.9680141,48.2830556 42.9680141,47.3360556 L42.9680141,1.67105472 C42.9680176,0.724121094 42.1989746,-0.0439453125 41.2520142,-0.0439453125 L41.2520142,-0.0439453125 L41.2520142,-0.0439453125 M39.5360107,45.6188965 L12.1580105,45.6188965 L12.1580105,3.38689804 L39.5360107,3.38689804 L39.5360107,45.6188965 L39.5360107,45.6188965 L39.5360107,45.6188965" id="Shape" fill="rgb(86,91,101)"></path>
            <path d="M25.8469849,17.5209961 C28.667985,17.5209961 30.9529848,15.232996 30.9529848,12.4149961 C30.9529848,9.59299612 28.6679847,7.30699635 25.8469849,7.30699635 C23.025985,7.30699635 20.7389851,9.59299636 20.7389851,12.4149961 C20.7379761,15.2329102 23.0250244,17.5209961 25.8469849,17.5209961 C25.8469849,17.5209961 23.0250244,17.5209961 25.8469849,17.5209961 L25.8469849,17.5209961 M25.8460083,10.8168945 C26.7290083,10.8168945 27.4440084,11.5318945 27.4440084,12.4148946 C27.4440084,13.2978947 26.7290084,14.0128946 25.8460083,14.0128946 C24.9650083,14.0128946 24.2480083,13.2978947 24.2480083,12.4148946 C24.2480083,11.5318945 24.9650269,10.8168945 25.8460083,10.8168945 C25.8460083,10.8168945 24.9650269,10.8168945 25.8460083,10.8168945 L25.8460083,10.8168945" id="Shape" fill="rgb(68,73,82)"></path>
            <path d="M25.8469849,42.4350586 C31.4889851,42.4350586 36.061985,37.8610587 36.061985,32.2200584 C36.061985,26.5770583 31.4889851,22.0030584 25.8469849,22.0030584 C20.2039847,22.0030584 15.6309853,26.5770583 15.6309853,32.2200584 C15.6309814,37.8601074 20.2039795,42.4350586 25.8469849,42.4350586 C25.8469849,42.4350586 20.2039795,42.4350586 25.8469849,42.4350586 L25.8469849,42.4350586 M25.8460083,28.7019043 C27.7880083,28.7019043 29.3620083,30.2779043 29.3620083,32.2189043 C29.3620083,34.1599042 27.7890084,35.7349043 25.8460083,35.7349043 C23.9070083,35.7349043 22.3320084,34.1599042 22.3320084,32.2189043 C22.3320084,30.2779043 23.9060059,28.7019043 25.8460083,28.7019043 C25.8460083,28.7019043 23.9060059,28.7019043 25.8460083,28.7019043 L25.8460083,28.7019043" id="Shape" fill="rgb(68,73,82)"></path>
        </g>
    </g>
</svg>