<?xml version="1.0" encoding="UTF-8" standalone="no"?>
<svg width="61px" height="61px" viewBox="0 0 61 61" version="1.1" xmlns="http://www.w3.org/2000/svg" xmlns:xlink="http://www.w3.org/1999/xlink" xmlns:sketch="http://www.bohemiancoding.com/sketch/ns">
    <title>Slice 1</title>
    <description>Created with Sketch (http://www.bohemiancoding.com/sketch)</description>
    <defs></defs>
    <g id="Page-1" stroke="none" stroke-width="1" fill="none" fill-rule="evenodd" sketch:type="MSPage">
        <g id="music-settings" sketch:type="MSLayerGroup" transform="translate(1.000000, 2.000000)" fill="#000000">
            <g id="Page-1" sketch:type="MSShapeGroup">
                <g id="collection">
                    <g id="Page-1">
                        <g id="Rectangle-1">
                            <path d="M9.8757799,3.17212967 C9.8757799,1.329734 10.9956894,-0.166666667 12.3771678,-0.166666667 L14.0410587,-0.166666667 C15.4265965,-0.166666667 16.5424466,1.32816333 16.5424466,3.17212967 L16.5424466,46.494537 C16.5424466,48.3369327 15.4225371,49.8333333 14.0410587,49.8333333 L12.3771678,49.8333333 C10.99163,49.8333333 9.8757799,48.3385033 9.8757799,46.494537 L9.8757799,3.17212967 L9.8757799,3.17212967 Z M20.9543379,46.494537 L20.9543379,3.17212967 C20.9543379,1.329734 22.0742474,-0.166666667 23.4557258,-0.166666667 L25.1196167,-0.166666667 C26.5051545,-0.166666667 27.6210046,1.32816333 27.6210046,3.17212967 L27.6210046,46.494537 C27.6210046,48.3369327 26.5010951,49.8333333 25.1196167,49.8333333 L23.4557258,49.8333333 C22.070188,49.8333333 20.9543379,48.3385033 20.9543379,46.494537 L20.9543379,46.494537 L20.9543379,46.494537 Z M31.6392694,46.494537 L31.6392694,3.17212967 C31.6392694,1.329734 32.7591789,-0.166666667 34.1406573,-0.166666667 L35.8045482,-0.166666667 C37.190086,-0.166666667 38.3059361,1.32816333 38.3059361,3.17212967 L38.3059361,46.494537 C38.3059361,48.3369327 37.1860266,49.8333333 35.8045482,49.8333333 L34.1406573,49.8333333 C32.7551195,49.8333333 31.6392694,48.3385033 31.6392694,46.494537 L31.6392694,46.494537 L31.6392694,46.494537 Z M39.7081618,44.8937192 L50.9208259,3.04748713 C51.397673,1.26786958 52.8667195,0.112311435 54.2011251,0.469864351 L55.8083203,0.900511001 C57.146647,1.25911457 57.837585,2.99181273 57.3603314,4.77294743 L46.1476673,46.6191795 C45.6708202,48.3987971 44.2017737,49.5543552 42.867368,49.1968023 L41.2601729,48.7661557 C39.9218461,48.4075521 39.2309082,46.6748539 39.7081618,44.8937192 L39.7081618,44.8937192 L39.7081618,44.8937192 Z M6.1564254,51.5 L53.743331,51.5 L53.743331,30.666545 C53.743331,29.2916463 54.8455939,28.1666667 56.2053041,28.1666667 L57.5106296,28.1666667 C58.8732733,28.1666667 59.9726027,29.2859003 59.9726027,30.666545 L59.9726027,55.2870415 C59.9726027,56.0798918 59.6060587,56.7896347 59.0349737,57.2484669 C58.6095986,57.6031361 58.0646734,57.8157895 57.4706184,57.8157895 L2.42913799,57.8157895 C1.90088992,57.8157895 1.410882,57.6465762 1.00933733,57.3586146 C0.35571019,56.9091932 -0.07284638,56.1490709 -0.07284638,55.2870415 L-0.07284638,30.666545 C-0.07284638,29.2916463 1.02941655,28.1666667 2.38912678,28.1666667 L3.69445226,28.1666667 C5.05709591,28.1666667 6.1564254,29.2859003 6.1564254,30.666545 L6.1564254,51.5 L6.1564254,51.5 Z" id="path-2"></path>
                        </g>
                    </g>
                </g>
            </g>
        </g>
    </g>
</svg>