<?xml version="1.0" encoding="UTF-8" standalone="no"?>
<svg width="82px" height="82px" viewBox="0 0 82 82" version="1.1" xmlns="http://www.w3.org/2000/svg" xmlns:xlink="http://www.w3.org/1999/xlink" xmlns:sketch="http://www.bohemiancoding.com/sketch/ns">
    <title>Network Activity</title>
    <description>Created with Sketch (http://www.bohemiancoding.com/sketch)</description>
    <defs>
        <radialGradient cx="50%" cy="0%" fx="50%" fy="0%" r="100%" id="radialGradient-1">
            <stop stop-color="#FF374A" offset="0%"></stop>
            <stop stop-color="#B60000" offset="100%"></stop>
        </radialGradient>
        <filter x="-20%" y="-20%" width="140%" height="140%" filterUnits="objectBoundingBox" id="filter-2">
            <feOffset dx="0" dy="1" in="SourceAlpha" result="shadowOffsetInner1"></feOffset>
            <feGaussianBlur stdDeviation="1.5" in="shadowOffsetInner1" result="shadowBlurInner1"></feGaussianBlur>
            <feComposite in="shadowBlurInner1" in2="SourceAlpha" operator="arithmetic" k2="-1" k3="1" result="shadowInnerInner1"></feComposite>
            <feColorMatrix values="0 0 0 0 0   0 0 0 0 0   0 0 0 0 0  0 0 0 0.7 0" in="shadowInnerInner1" type="matrix" result="shadowMatrixInner1"></feColorMatrix>
            <feMerge>
                <feMergeNode in="SourceGraphic"></feMergeNode>
                <feMergeNode in="shadowMatrixInner1"></feMergeNode>
            </feMerge>
        </filter>
        <filter x="-20%" y="-20%" width="140%" height="140%" filterUnits="objectBoundingBox" id="filter-3">
            <feOffset dx="0" dy="1" in="SourceAlpha" result="shadowOffsetInner1"></feOffset>
            <feGaussianBlur stdDeviation="1.5" in="shadowOffsetInner1" result="shadowBlurInner1"></feGaussianBlur>
            <feComposite in="shadowBlurInner1" in2="SourceAlpha" operator="arithmetic" k2="-1" k3="1" result="shadowInnerInner1"></feComposite>
            <feColorMatrix values="0 0 0 0 0   0 0 0 0 0   0 0 0 0 0  0 0 0 0.7 0" in="shadowInnerInner1" type="matrix" result="shadowMatrixInner1"></feColorMatrix>
            <feMerge>
                <feMergeNode in="SourceGraphic"></feMergeNode>
                <feMergeNode in="shadowMatrixInner1"></feMergeNode>
            </feMerge>
        </filter>
        <radialGradient cx="-93.3681184%" cy="64.1660344%" fx="-93.3681184%" fy="64.1660344%" r="100%" id="radialGradient-4">
            <stop stop-color="#FF374A" offset="0%"></stop>
            <stop stop-color="#B60000" offset="100%"></stop>
        </radialGradient>
    </defs>
    <g id="Page 1" stroke="none" stroke-width="1" fill="none" fill-rule="evenodd" sketch:type="MSPage">
        <g id="Group" sketch:type="MSLayerGroup" transform="translate(29.000000, 10.000000)" fill="url(#radialGradient-1)">
            <path d="M6,4 C6,3.61624999 6.31125,3.30749997 6.69499999,3.30749997 C6.69624999,3.30749997 6.70124999,3.30749997 6.70499999,3.30874998 C6.84999999,1.48499999 8.37249998,0.048749925 10.2349998,0.048749925 C12.0937498,0.048749925 13.6187499,1.48499999 13.76125,3.30874998 C13.76625,3.30749997 13.76875,3.30749997 13.77375,3.30749997 C14.155,3.30749997 14.46375,3.61624997 14.46375,4 C14.46375,4.28124999 14.2975,4.52375 14.055,4.63124999 C14.195,5.04125001 14.27375,5.47874996 14.27375,5.93499997 C14.27375,8.16624993 12.46375,9.97374991 10.235,9.97374991 C8.00375006,9.97374976 6.1925,8.16624993 6.1925,5.93499997 C6.1925,5.47874996 6.27249999,5.04125001 6.41125,4.63124999 C6.17000001,4.52375 6,4.28124999 6,4" id="path932" filter="url(#filter-2)" sketch:type="MSShapeGroup"></path>
            <path d="M13.75,62 L12.45,62 L10.2162501,56.5512497 L7.97999978,62 L6.67750001,62 C3.06125015,62 0.534999967,58.6249999 0.534999967,53.8062502 C0.527499967,53.4325002 0.369999968,44.6300001 1.11374997,40.8412505 C1.65999997,38.0587505 2.65749998,37.2500007 3.39125,37.0575006 L4.36875001,12.8487499 C4.38250001,12.5437499 4.63125,12.3024999 4.93750002,12.3024999 L8.26124992,12.3024999 C8.56374992,12.3024999 8.81249994,12.5412499 8.82749993,12.8437499 L9.82749995,33.3787492 L10.2162499,33.8237492 L10.6024999,33.3787492 L11.6012499,12.8437499 C11.6174999,12.5412499 11.8649999,12.3024999 12.1675,12.3024999 L15.49375,12.3024999 C15.79625,12.3024999 16.05,12.5437499 16.0625,12.8487499 L17.03625,37.0537503 C17.75125,37.2300003 18.85125,37.9875003 19.3187499,40.8587502 C19.94,44.6562503 19.8974999,53.4275005 19.8949999,53.7950001 C19.8949999,58.6249999 17.3699999,62 13.75,62" id="path944" filter="url(#filter-3)" sketch:type="MSShapeGroup" transform="translate(10.206284, 37.151250) rotate(-180.000000) translate(-10.206284, -37.151250) "></path>
        </g>
        <g id="Group" sketch:type="MSLayerGroup" transform="translate(53.000000, 18.000000)" fill="url(#radialGradient-1)">
            <path d="M6.25,2.5 L6.25875,2.5 C6.3675,1.13374993 7.50875,0.0575000048 8.90250001,0.0575000048 C10.2975001,0.0575000048 11.4387501,1.13375001 11.5450001,2.5 L11.5537501,2.5 C11.8412501,2.5 12.0725001,2.73250001 12.0725001,3.01750001 C12.0725001,3.22875001 11.9450001,3.41000002 11.7662501,3.48999999 C11.8700001,3.7975 11.9262501,4.12500001 11.9262501,4.4675 C11.9262501,6.14000008 10.5737501,7.49375001 8.90250022,7.49375001 C7.2312502,7.49375001 5.87625021,6.14000008 5.87625021,4.4675 C5.87625021,4.12500001 5.93375021,3.79749998 6.04000021,3.48999999 C5.85875001,3.40999998 5.73375002,3.22875001 5.73375002,3.01750001 C5.73375002,2.73250001 5.96375,2.5 6.25,2.5" id="path940" sketch:type="MSShapeGroup"></path>
            <path d="M10.9140107,46.8300004 L9.93776063,46.8300004 L8.26401065,42.7487503 L6.59026067,46.8300004 L5.61651069,46.8300004 C2.90651071,46.8300004 1.01276058,44.3037506 1.01276058,40.6912507 C1.00901058,40.4125007 0.889010577,33.8187505 1.44651058,30.9812506 C1.85651059,28.8962506 2.60401058,28.2912506 3.15526056,28.1462507 L3.88526055,10.0112502 C3.89526055,9.78375024 4.08401054,9.60375023 4.31026055,9.60375023 L6.80151059,9.60375023 C7.02776058,9.60375023 7.21276059,9.78125023 7.22526058,10.0087502 L7.9752606,25.3912499 L8.26401061,25.7249999 L8.55651061,25.3912499 L9.30526058,10.0087502 C9.31401058,9.78125023 9.50276059,9.60375023 9.72776058,9.60375023 L12.2190106,9.60375023 C12.4477606,9.60375023 12.6352606,9.78375022 12.6452606,10.0112502 L13.3752606,28.1437497 C13.9102606,28.2762497 14.7315106,28.8424997 15.0852606,30.9949996 C15.5515106,33.8400008 15.5165106,40.4087507 15.5165106,40.6837507 C15.5165106,44.3037506 13.6240105,46.8300004 10.9140107,46.8300004 Z M10.9140107,46.8300004" id="path952" sketch:type="MSShapeGroup" transform="translate(8.258255, 28.216875) rotate(-180.000000) translate(-8.258255, -28.216875) "></path>
        </g>
        <g id="Group" sketch:type="MSLayerGroup" transform="translate(12.000000, 18.000000)" fill="url(#radialGradient-4)">
            <path d="M13.4598564,24.1621039 L11.2636064,33.4007741 C11.3666619,33.8297424 11.4755508,34.2372622 11.6223564,34.77254 C11.9062453,35.8207145 12.3369397,37.4032345 13.1108286,40.6932344 C13.510412,43.199901 12.7793008,44.6369448 12.0948564,45.4006946 C11.4522175,46.1196827 10.5781898,46.5318653 9.70124543,46.5318653 L9.2715232,46.5318653 L6.82346776,40.8032739 L4.37443993,46.5309328 L4.04291216,46.5309328 C3.12805106,46.5309328 2.22971771,46.1206153 1.58416212,45.408155 C0.907495469,44.6602582 0.176384383,43.2362701 0.554578768,40.6661907 C1.36443988,37.1216073 1.83110651,35.4905953 2.14027325,34.4125797 C2.24235658,34.0516869 2.32693992,33.7579368 2.39985658,33.4735123 L0.167634351,24.0819051 C0.135551018,23.9532146 0.168606573,23.8198614 0.252217682,23.7182146 C0.337773237,23.6165678 0.467078794,23.5568852 0.602217696,23.5568852 L2.52138434,23.5568852 L3.11930102,9.37575449 C3.12805102,9.1454172 3.3244399,8.96357195 3.56360656,8.96357195 L5.29027325,8.96357195 C5.5284677,8.96357195 5.72388437,9.14355211 5.73749548,9.37202433 L6.45596772,23.5568859 L7.20360661,23.5568859 L7.92207885,9.37202433 C7.93471774,9.1435521 8.13110663,8.96357195 8.36930108,8.96357195 L10.0940233,8.96357195 C10.3341622,8.96357195 10.5324956,9.14541718 10.5422178,9.37575449 L11.1362456,23.5568852 L13.0437456,23.5568852 L13.0524956,23.5568852 C13.29944,23.5568852 13.4987456,23.7489884 13.4987456,23.9858535 C13.4987453,24.048334 13.4851342,24.1089491 13.4598564,24.1621039" id="path1076" sketch:type="MSShapeGroup" transform="translate(6.827150, 27.747719) rotate(-180.000000) translate(-6.827150, -27.747719) "></path>
            <path d="M2.93902801,0.78146832 L2.94097246,0.78146832 C3.4105558,0.78146832 4.0561113,0.878452449 4.44305575,1.33632946 C4.53152797,1.44170644 4.60638908,1.53775803 4.67347242,1.63007946 C5.13527797,0.745099296 6.04333357,0.136150886 6.72000022,0.136150886 C7.4550002,0.136150886 8.33000023,0.742301658 8.77041685,1.62168665 C8.836528,1.53123024 8.9104171,1.43797625 8.99791678,1.33632946 C9.38291669,0.877519908 10.0275001,0.78146832 10.5000002,0.78146832 C10.9413891,0.78146832 11.76875,0.901765933 11.76875,1.13210323 C11.76875,1.15541673 11.7609728,1.23281752 11.6511118,1.26172624 C11.5898611,1.27664691 11.529584,1.27944449 11.309861,1.26359135 C11.0463889,1.26359135 10.7897223,1.61236115 10.5563892,2.14111113 C10.5884725,2.1383136 10.6186115,2.12619057 10.6536113,2.12619057 C10.9686112,2.12619057 11.2408331,2.26793656 11.3750003,2.35279763 C11.4595835,2.40408738 11.7279169,2.58686514 11.7279169,2.75938503 C11.7279169,2.87128969 11.6190285,2.97013885 11.3390283,2.89087316 C11.326389,2.88621036 11.3118062,2.88527788 11.2952783,2.88527788 C10.8500003,2.88527788 10.1869446,4.5797024 9.84083355,5.83863089 C9.83500017,5.86474233 9.82625034,5.88992085 9.81847267,5.91603185 C9.8165279,5.92162713 9.8145836,5.92815488 9.81263929,5.93375016 L9.81069453,5.9356151 C9.48305574,7.28500004 8.22694481,8.29214283 6.72000018,8.29214283 C5.21402793,8.29214283 3.95597246,7.28500004 3.62736135,5.9356151 L3.62541687,5.93375016 C3.62347246,5.92815488 3.62152804,5.92162713 3.61958356,5.91603185 C3.61375024,5.88992085 3.60402803,5.86474233 3.59819466,5.83863089 C3.25402802,4.5797024 2.59000024,2.88527788 2.14375022,2.88527788 C2.12819466,2.88527788 2.11361133,2.88621042 2.10000022,2.89087312 C1.82291689,2.970139 1.71111132,2.87128979 1.71111132,2.75938502 C1.71111132,2.53837312 2.26527798,2.12619056 2.78638905,2.12619056 C2.81944461,2.12619056 2.84472238,2.13738104 2.87583349,2.14017866 C2.63763912,1.61236115 2.37513914,1.26545641 2.10291689,1.26545641 C2.03291689,1.27105165 1.97361133,1.27384927 1.92597245,1.27384927 C1.86472245,1.27384927 1.67027799,1.27384927 1.67027799,1.13210324 C1.67027807,0.901765933 2.49763913,0.78146832 2.93902801,0.78146832" id="path1080" sketch:type="MSShapeGroup" transform="translate(6.719514, 4.214147) rotate(-180.000000) translate(-6.719514, -4.214147) "></path>
        </g>
    </g>
</svg>