<?xml version="1.0" encoding="UTF-8" standalone="no"?>
<svg width="62px" height="62px" viewBox="0 0 62 62" version="1.1" xmlns="http://www.w3.org/2000/svg" xmlns:xlink="http://www.w3.org/1999/xlink" xmlns:sketch="http://www.bohemiancoding.com/sketch/ns">
    <title>Slice 1</title>
    <description>Created with Sketch (http://www.bohemiancoding.com/sketch)</description>
    <defs></defs>
    <g id="Page-1" stroke="none" stroke-width="1" fill="none" fill-rule="evenodd" sketch:type="MSPage">
        <g id="new-releases" sketch:type="MSLayerGroup" transform="translate(0.000000, 1.000000)">
            <g id="Page-1" sketch:type="MSShapeGroup">
                <g id="new-releases">
                    <g id="Page-1">
                        <g id="Group">
                            <g id="Shape" fill="#000000">
                                <path d="M60.0246464,25.2661463 L55.2772993,22.3445138 L57.6026056,17.2812481 C57.8695443,16.6996156 57.848728,16.0261462 57.546279,15.4616564 C57.24383,14.8947176 56.6964831,14.5053299 56.0621974,14.4024727 L50.5593402,13.5220646 L50.7699525,7.95308518 C50.7956668,7.31390148 50.5189321,6.69920756 50.0230137,6.29022798 C49.5283198,5.88369738 48.8707688,5.73430962 48.2475034,5.88124839 L42.8266871,7.17553416 L40.8895442,1.95186094 C40.6654626,1.35186093 40.1756667,0.887779286 39.5634218,0.701656824 C38.9499525,0.516758878 38.286279,0.626962947 37.7646464,1.00288133 L33.2511767,4.26982008 L29.4613808,0.184922167 C29.0254624,-0.286506397 28.3960747,-0.525281897 27.7568911,-0.462832919 C27.1189318,-0.397934961 26.5470952,-0.0416084155 26.211585,0.505738518 L23.2911769,5.25308557 L18.2266868,2.9277794 C17.6450543,2.66084062 16.9715849,2.68288142 16.4058706,2.98288144 C15.8413808,3.28288144 15.449544,3.83267736 15.3479113,4.46696308 L14.4675033,9.96737137 L8.8985238,9.7592081 C8.26546255,9.72614688 7.64342178,10.0102285 7.23689114,10.5073714 C6.83036056,11.0020653 6.67974827,11.6571673 6.82791156,12.2816571 L8.11974824,17.7036978 L2.89607502,19.6408407 C2.29607501,19.8636978 1.83444238,20.3534939 1.64709546,20.9681876 C1.46342198,21.5804325 1.57240157,22.2453305 1.94831995,22.7645142 L5.2152587,27.2779838 L1.12913638,31.0665553 C0.6589323,31.5036981 0.420156798,32.1343103 0.482605776,32.7722696 C0.546279247,33.4090042 0.903830281,33.9808409 1.44995275,34.3175756 L6.1960751,37.2379838 L3.87321802,42.3012493 C3.60383026,42.885331 3.62587107,43.557576 3.92832006,44.1208412 C4.22954456,44.68778 4.77811599,45.0796167 5.41117716,45.1812493 L10.9115855,46.062882 L10.7046467,51.630637 C10.6801569,52.2710451 10.9556671,52.885739 11.450361,53.2922696 C11.9475038,53.6975758 12.6026059,53.850637 13.2270957,53.6988002 L18.6466877,52.4094125 L20.5850549,57.6330857 C20.8066876,58.2330858 21.297708,58.6947184 21.9111773,58.8820653 C22.5234222,59.0657388 23.1907691,58.9567592 23.7087284,58.5808408 L28.2221979,55.313902 L32.0119939,59.3988 C32.4013816,59.8200245 32.947504,60.056351 33.5156674,60.056351 C33.5830143,60.056351 33.6479123,60.0514531 33.7164837,60.0465551 C34.3544429,59.9816571 34.9250551,59.6253306 35.2617898,59.0804327 L38.182198,54.3330856 L43.2466879,56.6559427 C43.8283206,56.9253305 44.50179,56.9032897 45.0662798,56.6020652 C45.631994,56.3008407 46.0226063,55.7510448 46.1254634,55.1167589 L47.0058715,49.6163507 L52.5760753,49.8269629 C53.8005652,49.8269629 54.7189326,48.9110445 54.7189326,47.777167 C54.7189326,47.5224731 54.672402,47.2787996 54.5879122,47.052269 L53.3548509,41.8812485 L58.5785242,39.9428813 C59.1797487,39.7187996 59.6413812,39.2290037 59.8287282,38.6167589 C60.0124017,38.004514 59.9021976,37.3396161 59.5262793,36.8179834 L56.2593405,32.3045139 L60.3466876,28.5159424 C60.8144451,28.0800083 61.054444,27.4481824 60.9895443,26.810228 C60.9270953,26.1734934 60.5707688,25.602881 60.0246464,25.2661463 L60.0246464,25.2661463 L60.0246464,25.2661463 Z" id="path-2"></path>
                            </g>
                            <g id="Shape-1">
                                <path d="M60.0246464,25.2661463 L55.2772993,22.3445138 L57.6026056,17.2812481 C57.8695443,16.6996156 57.848728,16.0261462 57.546279,15.4616564 C57.24383,14.8947176 56.6964831,14.5053299 56.0621974,14.4024727 L50.5593402,13.5220646 L50.7699525,7.95308518 C50.7956668,7.31390148 50.5189321,6.69920756 50.0230137,6.29022798 C49.5283198,5.88369738 48.8707688,5.73430962 48.2475034,5.88124839 L42.8266871,7.17553416 L40.8895442,1.95186094 C40.6654626,1.35186093 40.1756667,0.887779286 39.5634218,0.701656824 C38.9499525,0.516758878 38.286279,0.626962947 37.7646464,1.00288133 L33.2511767,4.26982008 L29.4613808,0.184922167 C29.0254624,-0.286506397 28.3960747,-0.525281897 27.7568911,-0.462832919 C27.1189318,-0.397934961 26.5470952,-0.0416084155 26.211585,0.505738518 L23.2911769,5.25308557 L18.2266868,2.9277794 C17.6450543,2.66084062 16.9715849,2.68288142 16.4058706,2.98288144 C15.8413808,3.28288144 15.449544,3.83267736 15.3479113,4.46696308 L14.4675033,9.96737137 L8.8985238,9.7592081 C8.26546255,9.72614688 7.64342178,10.0102285 7.23689114,10.5073714 C6.83036056,11.0020653 6.67974827,11.6571673 6.82791156,12.2816571 L8.11974824,17.7036978 L2.89607502,19.6408407 C2.29607501,19.8636978 1.83444238,20.3534939 1.64709546,20.9681876 C1.46342198,21.5804325 1.57240157,22.2453305 1.94831995,22.7645142 L5.2152587,27.2779838 L1.12913638,31.0665553 C0.6589323,31.5036981 0.420156798,32.1343103 0.482605776,32.7722696 C0.546279247,33.4090042 0.903830281,33.9808409 1.44995275,34.3175756 L6.1960751,37.2379838 L3.87321802,42.3012493 C3.60383026,42.885331 3.62587107,43.557576 3.92832006,44.1208412 C4.22954456,44.68778 4.77811599,45.0796167 5.41117716,45.1812493 L10.9115854,46.062882 L10.7046467,51.630637 C10.6801569,52.2710451 10.9556671,52.885739 11.450361,53.2922696 C11.9475038,53.6975758 12.6026059,53.850637 13.2270957,53.6988002 L18.6466877,52.4094125 L20.5850549,57.6330857 C20.8066876,58.2330858 21.297708,58.6947184 21.9111773,58.8820653 C22.5234222,59.0657388 23.1907691,58.9567592 23.7087284,58.5808408 L28.2221979,55.313902 L32.0119939,59.3988 C32.4013816,59.8200245 32.947504,60.056351 33.5156674,60.056351 C33.5830143,60.056351 33.6479123,60.0514531 33.7164837,60.0465551 C34.3544429,59.9816571 34.9250551,59.6253306 35.2617898,59.0804327 L38.182198,54.3330856 L43.2466879,56.6559427 C43.8283206,56.9253305 44.50179,56.9032897 45.0662798,56.6020652 C45.631994,56.3008407 46.0226063,55.7510448 46.1254634,55.1167589 L47.0058715,49.6163507 L52.5760753,49.8269629 C53.8005652,49.8269629 54.7189326,48.9110445 54.7189326,47.777167 C54.7189326,47.5224731 54.672402,47.2787996 54.5879122,47.052269 L53.3548509,41.8812485 L58.5785242,39.9428813 C59.1797487,39.7187996 59.6413812,39.2290037 59.8287282,38.6167589 C60.0124017,38.004514 59.9021976,37.3396161 59.5262793,36.8179834 L56.2593405,32.3045139 L60.3466876,28.5159424 C60.8144451,28.0800083 61.054444,27.4481824 60.9895443,26.810228 C60.9270953,26.1734934 60.5707688,25.602881 60.0246464,25.2661463 L60.0246464,25.2661463 L60.0246464,25.2661463 Z" id="path-2"></path>
                            </g>
                        </g>
                    </g>
                </g>
            </g>
        </g>
    </g>
</svg>