<?xml version="1.0" encoding="UTF-8" standalone="no"?>
<svg
   xmlns:dc="http://purl.org/dc/elements/1.1/"
   xmlns:cc="http://creativecommons.org/ns#"
   xmlns:rdf="http://www.w3.org/1999/02/22-rdf-syntax-ns#"
   xmlns:svg="http://www.w3.org/2000/svg"
   xmlns="http://www.w3.org/2000/svg"
   xmlns:xlink="http://www.w3.org/1999/xlink"
   xmlns:sodipodi="http://sodipodi.sourceforge.net/DTD/sodipodi-0.dtd"
   xmlns:inkscape="http://www.inkscape.org/namespaces/inkscape"
   width="53px"
   height="53px"
   version="1.1"
   id="svg2"
   inkscape:version="0.48.2 r9819"
   sodipodi:docname="new-additions.svg">
  <metadata
     id="metadata16">
    <rdf:RDF>
      <cc:Work
         rdf:about="">
        <dc:format>image/svg+xml</dc:format>
        <dc:type
           rdf:resource="http://purl.org/dc/dcmitype/StillImage" />
        <dc:title>new-additions</dc:title>
      </cc:Work>
    </rdf:RDF>
  </metadata>
  <sodipodi:namedview
     pagecolor="#ffffff"
     bordercolor="#666666"
     borderopacity="1"
     objecttolerance="10"
     gridtolerance="10"
     guidetolerance="10"
     inkscape:pageopacity="0"
     inkscape:pageshadow="2"
     inkscape:window-width="1178"
     inkscape:window-height="679"
     id="namedview14"
     showgrid="false"
     inkscape:zoom="8"
     inkscape:cx="16.054293"
     inkscape:cy="24.228108"
     inkscape:window-x="0"
     inkscape:window-y="0"
     inkscape:window-maximized="0"
     inkscape:current-layer="svg2" />
  <title
     id="title4">new-additions</title>
  <description
     id="description6">Created with Sketch (http://www.bohemiancoding.com/sketch)</description>
  <defs
     id="defs8">
    <path
       d="M45.2483787,33.7077824 C44.9053787,31.7337824 44.1083787,29.6497823 43.2653786,27.4447824 C41.2633786,22.2107822 39.1933786,16.7987825 43.0373786,12.3127824 C43.1743786,12.1537824 43.1963786,11.9247824 43.0933786,11.7417824 C42.9893786,11.5587824 42.7813786,11.4567824 42.5753786,11.4947824 C36.3223789,12.5367825 33.8533785,18.7377825 32.9803784,21.9907827 C30.1093783,16.5227828 28.9243781,10.7617826 28.9243781,2.50078296 C28.9243781,2.32078295 28.8273781,2.15378296 28.6703781,2.06478297 C28.5143781,1.97678297 28.3213781,1.97778297 28.1673781,2.07178297 C23.2333781,5.03278294 22.247378,9.96678295 21.2823779,14.8357829 C21.2823779,19.3827828 20.3623779,22.775783 18.2333779,25.9577827 C17.1373779,21.9527825 14.087378,19.9197825 11.1293778,17.9477824 C10.3523778,17.4287824 9.5483778,16.8927825 8.80037777,16.3327824 C8.62237777,16.1997824 8.38037779,16.2007824 8.20237778,16.3317824 C8.02437778,16.4637824 7.95437779,16.6957824 8.03037778,16.9037824 C9.42837778,20.7497824 8.9593778,25.2537828 8.50637779,29.6087824 C7.7413778,36.9477826 6.95037779,44.5377823 14.918378,49.4377828 C16.521378,50.2387828 18.214378,50.8937828 19.950378,51.3827829 C19.995378,51.3957829 20.041378,51.4017829 20.086378,51.4017829 C20.382378,51.4017829 20.606378,51.1777829 20.606378,50.9017829 C20.606378,50.6987829 20.485378,50.5237829 20.3113781,50.4457829 C17.3013781,48.1657829 17.647378,44.8407829 18.012378,41.3217833 C18.206378,39.4527833 18.406378,37.5327833 18.083378,35.7367833 L18.200378,35.8147833 C19.811378,36.8897833 21.335378,37.9057833 21.6933781,40.0587832 C21.7263781,40.2557832 21.8743781,40.4147832 22.0683781,40.4617832 C22.2633781,40.5107832 22.467378,40.4367832 22.5873781,40.2757832 C24.0393781,38.3387832 24.6593781,36.3317832 24.650378,33.6557833 C25.077378,31.5237834 25.483378,29.4967834 27.1233781,28.1097833 C27.1883781,31.1897832 27.6283781,34.7147833 29.6453781,38.2507831 C29.7493781,38.4317831 29.9523782,38.5347831 30.1603781,38.4957831 C30.3663781,38.4627831 30.5293781,38.3057831 30.5703781,38.1007831 C30.7693781,37.1077831 31.5413781,34.1567831 33.8263782,32.990783 C32.7023782,35.3737829 33.7133782,38.0157831 34.6203782,40.3897831 C35.0463782,41.5017831 35.4473782,42.5517831 35.6163782,43.522783 C35.6883782,43.870783 35.7163782,44.222783 35.7013782,44.6617831 C35.8803782,46.932783 34.5363782,49.0037831 31.7083782,50.8157829 C31.5013782,50.9487829 31.4213782,51.2117829 31.5203782,51.4367829 C31.6013782,51.6227829 31.7833782,51.7367829 31.9783782,51.7367829 C32.0193782,51.7367829 32.0613782,51.7317829 32.1033782,51.7207829 C32.5143782,51.6147829 32.9223782,51.4957829 33.3923782,51.3347829 C41.8493425,47.1077629 45.9013445,41.9698235 45.4363787,36.1277825 C45.4743787,35.2827824 45.4123787,34.4857825 45.2483787,33.7077824 Z M45.2483787,33.7077824"
       id="path-1" />
  </defs>
  <g
     id="Page 1"
     fill="rgb(215,215,215)"
     fill-rule="evenodd">
    <use
       id="Shape"
       fill="rgb(239,140,51)"
       xlink:href="#path-1" />
    <use
       id="Shape-1"
       stroke="none"
       fill="none"
       xlink:href="#path-1" />
  </g>
</svg>
