<?xml version="1.0" encoding="UTF-8" standalone="no"?>
<svg width="60px" height="60px" viewBox="0 0 60 60" version="1.1" xmlns="http://www.w3.org/2000/svg" xmlns:xlink="http://www.w3.org/1999/xlink" xmlns:sketch="http://www.bohemiancoding.com/sketch/ns">
    <title>Slice 1</title>
    <description>Created with Sketch (http://www.bohemiancoding.com/sketch)</description>
    <defs></defs>
    <g id="Page-1" stroke="none" stroke-width="1" fill="none" fill-rule="evenodd" sketch:type="MSPage">
        <g id="new-additions" sketch:type="MSLayerGroup" transform="translate(7.000000, 0.000000)">
            <g id="Page-1" sketch:type="MSShapeGroup">
                <g id="new-additions">
                    <g id="Page-1">
                        <g id="Shape" fill="#EF8C33">
                            <path d="M45.3020822,38.0493389 C44.88492,35.6805389 43.9155957,33.1797388 42.8903253,30.5337389 C40.4554605,24.2529386 37.9378929,17.758539 42.613028,12.3753389 C42.7796496,12.1845389 42.8064064,11.9097389 42.6811361,11.6901389 C42.5546496,11.4705389 42.3016767,11.3481389 42.0511361,11.3937389 C34.4461365,12.644139 31.4432982,20.085339 30.3815413,23.9889392 C26.8897844,17.4273394 25.448568,10.5141391 25.448568,0.600939552 C25.448568,0.38493954 25.330595,0.184539552 25.139649,0.077739564 C24.9499193,-0.027860436 24.7151896,-0.026660436 24.5278923,0.086139564 C18.5270815,3.63933953 17.3278922,9.56013954 16.1542434,15.4029395 C16.1542434,20.8593394 15.0353245,24.9309396 12.4460001,28.7493392 C11.1130272,23.943339 7.40356784,21.503739 3.80600003,19.1373389 C2.86100003,18.5145389 1.88316219,17.871339 0.973432423,17.1993389 C0.756945936,17.0397389 0.462621636,17.0409389 0.246135138,17.1981389 C0.0296486514,17.3565389 -0.0554864716,17.6349389 0.0369459486,17.8845389 C1.73721622,22.4997389 1.16681084,27.9045394 0.61586488,33.1305389 C-0.314540514,41.9373391 -1.27656755,51.0453388 8.41424351,56.9253394 C10.3638381,57.8865394 12.4228922,58.6725394 14.5342435,59.2593395 C14.5889732,59.2749395 14.6449192,59.2821395 14.6996489,59.2821395 C15.0596489,59.2821395 15.3320814,59.0133395 15.3320814,58.6821395 C15.3320814,58.4385395 15.1849192,58.2285395 14.9732977,58.1349395 C11.3124869,55.3989395 11.7332976,51.4089395 12.1772165,47.18614 C12.4131624,44.94334 12.6564057,42.63934 12.2635678,40.48414 L12.4058651,40.57774 C14.3651895,41.86774 16.218703,43.08694 16.6541085,45.6705398 C16.6942436,45.9069398 16.8742436,46.0977398 17.1101896,46.1541398 C17.3473517,46.2129398 17.5954597,46.1241398 17.7414058,45.9309398 C19.5073517,43.6065398 20.2614058,41.1981398 20.2504597,37.98694 C20.7697841,35.4285401 21.2635678,32.9961401 23.2581626,31.33174 C23.3372166,35.0277398 23.8723517,39.25774 26.3254599,43.5009397 C26.4519463,43.7181397 26.6988384,43.8417397 26.9518112,43.7949397 C27.2023517,43.7553397 27.400595,43.5669397 27.4504599,43.3209397 C27.6924869,42.1293397 28.6314058,38.5881397 31.41046,37.1889396 C30.0434329,40.0485395 31.2730275,43.2189397 32.3761356,46.0677397 C32.8942438,47.4021397 33.3819465,48.6621397 33.587487,49.8273396 C33.6750546,50.2449396 33.7091086,50.6673396 33.6908654,51.1941397 C33.9085681,53.9193396 32.2739735,56.4045397 28.834514,58.5789395 C28.5827573,58.7385395 28.48546,59.0541395 28.6058654,59.3241395 C28.7043789,59.5473395 28.9257302,59.6841395 29.1628924,59.6841395 C29.2127573,59.6841395 29.2638384,59.6781395 29.3149194,59.6649395 C29.8147843,59.5377395 30.3110005,59.3949395 30.8826221,59.2017395 C41.1681193,54.1293155 46.0962298,47.9637882 45.5307309,40.953339 C45.5769471,39.9393389 45.5015417,38.982939 45.3020822,38.0493389 L45.3020822,38.0493389 L45.3020822,38.0493389 Z" id="path-1"></path>
                        </g>
                        <g id="Shape-1" fill="#000000">
                            <path d="M45.3020822,38.0493389 C44.88492,35.6805389 43.9155957,33.1797388 42.8903253,30.5337389 C40.4554605,24.2529386 37.9378929,17.758539 42.613028,12.3753389 C42.7796496,12.1845389 42.8064064,11.9097389 42.6811361,11.6901389 C42.5546496,11.4705389 42.3016767,11.3481389 42.0511361,11.3937389 C34.4461365,12.644139 31.4432982,20.085339 30.3815413,23.9889392 C26.8897844,17.4273394 25.448568,10.5141391 25.448568,0.600939552 C25.448568,0.38493954 25.330595,0.184539552 25.139649,0.077739564 C24.9499193,-0.027860436 24.7151896,-0.026660436 24.5278923,0.086139564 C18.5270815,3.63933953 17.3278922,9.56013954 16.1542434,15.4029395 C16.1542434,20.8593394 15.0353245,24.9309396 12.4460001,28.7493392 C11.1130272,23.943339 7.40356784,21.503739 3.80600003,19.1373389 C2.86100003,18.5145389 1.88316219,17.871339 0.973432423,17.1993389 C0.756945936,17.0397389 0.462621636,17.0409389 0.246135138,17.1981389 C0.0296486514,17.3565389 -0.0554864716,17.6349389 0.0369459486,17.8845389 C1.73721622,22.4997389 1.16681084,27.9045394 0.61586488,33.1305389 C-0.314540514,41.9373391 -1.27656755,51.0453388 8.41424351,56.9253394 C10.3638381,57.8865394 12.4228922,58.6725394 14.5342435,59.2593395 C14.5889732,59.2749395 14.6449192,59.2821395 14.6996489,59.2821395 C15.0596489,59.2821395 15.3320814,59.0133395 15.3320814,58.6821395 C15.3320814,58.4385395 15.1849192,58.2285395 14.9732977,58.1349395 C11.3124869,55.3989395 11.7332976,51.4089395 12.1772165,47.18614 C12.4131624,44.94334 12.6564057,42.63934 12.2635678,40.48414 L12.4058651,40.57774 C14.3651895,41.86774 16.218703,43.08694 16.6541085,45.6705398 C16.6942436,45.9069398 16.8742436,46.0977398 17.1101896,46.1541398 C17.3473517,46.2129398 17.5954597,46.1241398 17.7414058,45.9309398 C19.5073517,43.6065398 20.2614058,41.1981398 20.2504597,37.98694 C20.7697841,35.4285401 21.2635678,32.9961401 23.2581626,31.33174 C23.3372166,35.0277398 23.8723517,39.25774 26.3254599,43.5009397 C26.4519463,43.7181397 26.6988384,43.8417397 26.9518112,43.7949397 C27.2023517,43.7553397 27.400595,43.5669397 27.4504599,43.3209397 C27.6924869,42.1293397 28.6314058,38.5881397 31.41046,37.1889396 C30.0434329,40.0485395 31.2730275,43.2189397 32.3761356,46.0677397 C32.8942438,47.4021397 33.3819465,48.6621397 33.587487,49.8273396 C33.6750546,50.2449396 33.7091086,50.6673396 33.6908654,51.1941397 C33.9085681,53.9193396 32.2739735,56.4045397 28.834514,58.5789395 C28.5827573,58.7385395 28.48546,59.0541395 28.6058654,59.3241395 C28.7043789,59.5473395 28.9257302,59.6841395 29.1628924,59.6841395 C29.2127573,59.6841395 29.2638384,59.6781395 29.3149194,59.6649395 C29.8147843,59.5377395 30.3110005,59.3949395 30.8826221,59.2017395 C41.1681193,54.1293155 46.0962298,47.9637882 45.5307309,40.953339 C45.5769471,39.9393389 45.5015417,38.982939 45.3020822,38.0493389 L45.3020822,38.0493389 L45.3020822,38.0493389 Z" id="path-1"></path>
                        </g>
                    </g>
                </g>
            </g>
        </g>
    </g>
</svg>