<?xml version="1.0" encoding="UTF-8" standalone="no"?>
<svg width="50px" height="51px" version="1.1" xmlns="http://www.w3.org/2000/svg" xmlns:xlink="http://www.w3.org/1999/xlink" xmlns:sketch="http://www.bohemiancoding.com/sketch/ns">
    <title>new-releases</title>
    <description>Created with Sketch (http://www.bohemiancoding.com/sketch)</description>
    <defs>
        <radialGradient cx="50%" cy="53.6083847%" fx="50%" fy="53.6083847%" r="48.6437738%" id="radialGradient-1">
            <stop stop-color="rgb(239,141,51)" offset="0%"></stop>
            <stop stop-color="rgb(246,187,50)" offset="100%"></stop>
        </radialGradient>
        <path d="M49.2034612,21.6340195 L45.3264611,19.2480196 L47.2254612,15.1130193 C47.4434612,14.6380194 47.4264612,14.0880194 47.1794612,13.6270194 C46.9324612,13.1640194 46.4854612,12.8460194 45.9674612,12.7620194 L41.4734612,12.0430194 L41.6454612,7.49501956 C41.6664612,6.97301954 41.4404612,6.47101951 41.0354612,6.13701952 C40.6314612,5.80501953 40.0944612,5.68301952 39.5854611,5.80301952 L35.1584611,6.86001956 L33.5764611,2.59401977 C33.3934611,2.10401976 32.9934611,1.72501975 32.4934611,1.57301974 C31.9924612,1.42201975 31.4504612,1.51201974 31.0244612,1.81901975 L27.338461,4.48701973 L24.243461,1.15101977 C23.887461,0.766019776 23.373461,0.571019784 22.8514611,0.622019783 C22.330461,0.675019782 21.8634611,0.966019794 21.5894611,1.41301979 L19.2044611,5.29001988 L15.0684609,3.39101984 C14.593461,3.17301984 14.043461,3.19101983 13.581461,3.43601984 C13.120461,3.68101984 12.8004609,4.13001984 12.7174609,4.64801985 L11.998461,9.14001995 L7.4504611,8.97001995 C6.93346108,8.94301995 6.42546112,9.17501995 6.0934611,9.58101995 C5.76146112,9.98501997 5.63846109,10.52002 5.75946111,11.03002 L6.81446106,15.4580199 L2.54846127,17.0400199 C2.05846126,17.2220199 1.68146128,17.62202 1.52846129,18.1240199 C1.37846128,18.6240199 1.46746128,19.1670199 1.77446129,19.5910199 L4.44246127,23.2770201 L1.10546138,26.3710202 C0.721461378,26.7280201 0.526461385,27.2430201 0.577461384,27.7640202 C0.629461385,28.2840201 0.921461396,28.7510201 1.36746141,29.0260201 L5.24346133,31.4110201 L3.34646138,35.5460203 C3.12646138,36.0230203 3.14446137,36.5720204 3.39146138,37.0320203 C3.63746139,37.4950203 4.08546139,37.8150203 4.60246135,37.8980203 L9.09446145,38.6180203 L8.92546145,43.1650202 C8.90546145,43.6880202 9.13046145,44.1900202 9.53446148,44.5220202 C9.94046146,44.8530202 10.4754615,44.9780202 10.9854615,44.8540202 L15.4114616,43.8010202 L16.9944615,48.06702 C17.1754615,48.5570201 17.5764615,48.93402 18.0774615,49.08702 C18.5774615,49.23702 19.1224614,49.14802 19.5454615,48.84102 L23.2314616,46.17302 L26.3264617,49.50902 C26.6444616,49.85302 27.0904616,50.04602 27.5544617,50.04602 C27.6094617,50.04602 27.6624617,50.04202 27.7184617,50.03802 C28.2394617,49.98502 28.7054617,49.69402 28.9804617,49.24902 L31.3654617,45.3720199 L35.5014618,47.2690199 C35.9764618,47.4890199 36.5264618,47.4710199 36.9874618,47.2250199 C37.4494618,46.9790199 37.7684618,46.5300199 37.8524618,46.0120198 L38.5714617,41.5200197 L43.1204615,41.6920197 C44.1204616,41.6920197 44.8704616,40.9440197 44.8704616,40.0180197 C44.8704616,39.8100197 44.8324616,39.6110197 44.7634616,39.4260197 L43.7564616,35.2030196 L48.0224614,33.6200197 C48.5134614,33.4370197 48.8904613,33.0370197 49.0434614,32.5370198 C49.1934614,32.0370198 49.1034614,31.4940198 48.7964614,31.0680198 L46.1284614,27.3820197 L49.4664615,24.2880196 C49.8484635,23.9320068 50.0444626,23.4160156 49.9914612,22.8950195 C49.9404612,22.3750196 49.6494612,21.9090195 49.2034612,21.6340195 Z M49.2034612,21.6340195" id="path-2"></path>
    </defs>
    <g id="Page 1" fill="rgb(215,215,215)" fill-rule="evenodd">
        <g id="Group" fill="url(#radialGradient-1)">
            <use id="Shape" fill="rgb(239,140,51)" xlink:href="#path-2"></use>
            <use id="Shape-1" stroke="none" fill="none" xlink:href="#path-2"></use>
        </g>
    </g>
</svg>