<?xml version="1.0" encoding="UTF-8" standalone="no"?>
<svg width="50px" height="50px" viewBox="0 0 50 50" version="1.1" xmlns="http://www.w3.org/2000/svg" xmlns:xlink="http://www.w3.org/1999/xlink" xmlns:sketch="http://www.bohemiancoding.com/sketch/ns">
    <title>new-additions</title>
    <description>Created with Sketch (http://www.bohemiancoding.com/sketch)</description>
    <defs></defs>
    <g id="Page-1" stroke="none" stroke-width="1" fill="none" fill-rule="evenodd" sketch:type="MSPage">
        <path d="M46,15.3830004 C46,6.88800049 37.0425065,0 26.0012998,0 C14.9574935,0 6,6.88800001 6,15.3830004 C6,18.1880004 6.99571034,20.8110003 8.69335761,23.0750003 L8.67775901,23.0750003 L25.9922001,49.9980006 L43.3170408,23.0750003 L43.2962427,23.0750003 C45.0069192,20.8109789 46,18.1880541 46,15.3830004 C46,15.3830004 46,18.1880541 46,15.3830004 L46,15.3830004 M26.3850374,21.9490404 C22.8170373,21.9490404 19.9220376,19.0560405 19.9220376,15.4880404 C19.9220376,11.9180405 22.8170376,9.02304029 26.3850374,9.02304029 C29.9570374,9.02304029 32.8500376,11.9180403 32.8500376,15.4880404 C32.8500032,19.0570726 29.9569979,21.9490404 26.3850374,21.9490404 L26.3850374,21.9490404 L26.3850374,21.9490404" id="Shape" fill="#000000" sketch:type="MSShapeGroup"></path>
    </g>
</svg>