<?xml version="1.0" encoding="UTF-8" standalone="no"?>
<svg width="50px" height="51px" version="1.1" xmlns="http://www.w3.org/2000/svg" xmlns:xlink="http://www.w3.org/1999/xlink" xmlns:sketch="http://www.bohemiancoding.com/sketch/ns">
    <title>new-releases</title>
    <description>Created with Sketch (http://www.bohemiancoding.com/sketch)</description>
    <defs>
        <radialGradient cx="50%" cy="50%" fx="50%" fy="50%" r="153.418744%" id="radialGradient-1">
            <stop stop-color="rgb(254,255,254)" stop-opacity="0.5" offset="0%"></stop>
            <stop stop-color="rgb(0,0,0)" stop-opacity="0.5" offset="100%"></stop>
        </radialGradient>
        <path d="M48.7129995,21.6340195 L44.8359994,19.2480196 L46.7349994,15.1130193 C46.9529994,14.6380194 46.9359994,14.0880194 46.6889994,13.6270194 C46.4419994,13.1640194 45.9949994,12.8460194 45.4769994,12.7620194 L40.9829994,12.0430194 L41.1549995,7.49501956 C41.1759995,6.97301954 40.9499995,6.47101951 40.5449994,6.13701952 C40.1409994,5.80501953 39.6039995,5.68301952 39.0949994,5.80301952 L34.6679993,6.86001956 L33.0859993,2.59401977 C32.9029993,2.10401976 32.5029993,1.72501975 32.0029994,1.57301974 C31.5019994,1.42201975 30.9599994,1.51201974 30.5339994,1.81901975 L26.8479993,4.48701973 L23.7529993,1.15101977 C23.3969993,0.766019776 22.8829993,0.571019784 22.3609993,0.622019783 C21.8399993,0.675019782 21.3729993,0.966019794 21.0989993,1.41301979 L18.7139993,5.29001988 L14.5779992,3.39101984 C14.1029992,3.17301984 13.5529992,3.19101983 13.0909992,3.43601984 C12.6299992,3.68101984 12.3099992,4.13001984 12.2269992,4.64801985 L11.5079992,9.14001995 L6.95999934,8.97001995 C6.44299932,8.94301995 5.93499937,9.17501995 5.60299935,9.58101995 C5.27099936,9.98501997 5.14799934,10.52002 5.26899936,11.03002 L6.3239993,15.4580199 L2.05799951,17.0400199 C1.5679995,17.2220199 1.19099953,17.62202 1.03799953,18.1240199 C0.887999523,18.6240199 0.976999529,19.1670199 1.28399954,19.5910199 L3.95199952,23.2770201 L0.614999626,26.3710202 C0.230999622,26.7280201 0.0359996296,27.2430201 0.0869996287,27.7640202 C0.13899963,28.2840201 0.43099964,28.7510201 0.87699965,29.0260201 L4.75299958,31.4110201 L2.85599962,35.5460203 C2.63599962,36.0230203 2.65399962,36.5720204 2.90099962,37.0320203 C3.14699963,37.4950203 3.59499963,37.8150203 4.11199959,37.8980203 L8.60399969,38.6180203 L8.43499969,43.1650202 C8.41499969,43.6880202 8.63999969,44.1900202 9.04399972,44.5220202 C9.44999971,44.8530202 9.98499971,44.9780202 10.4949997,44.8540202 L14.9209998,43.8010202 L16.5039998,48.06702 C16.6849998,48.5570201 17.0859998,48.93402 17.5869997,49.08702 C18.0869997,49.23702 18.6319997,49.14802 19.0549998,48.84102 L22.7409999,46.17302 L25.8359999,49.50902 C26.1539999,49.85302 26.5999999,50.04602 27.0639999,50.04602 C27.1189999,50.04602 27.1719999,50.04202 27.2279999,50.03802 C27.749,49.98502 28.2149999,49.69402 28.4899999,49.24902 L30.8749999,45.3720199 L35.0110001,47.2690199 C35.486,47.4890199 36.036,47.4710199 36.497,47.2250199 C36.959,46.9790199 37.278,46.5300199 37.362,46.0120198 L38.081,41.5200197 L42.6299998,41.6920197 C43.6299998,41.6920197 44.3799998,40.9440197 44.3799998,40.0180197 C44.3799998,39.8100197 44.3419998,39.6110197 44.2729998,39.4260197 L43.2659998,35.2030196 L47.5319996,33.6200197 C48.0229996,33.4370197 48.3999996,33.0370197 48.5529997,32.5370198 C48.7029997,32.0370198 48.6129996,31.4940198 48.3059997,31.0680198 L45.6379997,27.3820197 L48.9759997,24.2880196 C49.3580017,23.9320068 49.5540009,23.4160156 49.5009995,22.8950195 C49.4499995,22.3750196 49.1589994,21.9090195 48.7129995,21.6340195 Z M48.7129995,21.6340195" id="path-2"></path>
    </defs>
    <g id="Page 1" fill="rgb(223,223,223)" fill-rule="evenodd">
        <g id="Group" fill="rgb(0,0,0)">
            <path d="M23.0719986,23.0679932 C22.4859986,23.0679932 22.0049986,23.2689932 21.6299986,23.6729932 C21.2531112,24.0790264 21.0259986,24.6789932 20.9439986,25.4719932 L25.2079985,25.4719932 C25.1509985,24.6649932 24.9349985,24.0659932 24.5579985,23.6649932 C24.1843812,23.2675912 23.6869965,23.0679932 23.0719986,23.0679932 L23.0719986,23.0679932 L23.0719986,23.0679932" id="Shape" fill="rgb(131,130,130)"></path>
            <use id="Shape" fill="rgb(165,129,204)" xlink:href="#path-2"></use>
            <use id="Shape-1" stroke="none" fill="url(#radialGradient-1)" xlink:href="#path-2"></use>
        </g>
    </g>
</svg>