<?xml version="1.0" encoding="UTF-8" standalone="no"?>
<svg width="52px" height="53px" version="1.1" xmlns="http://www.w3.org/2000/svg" xmlns:xlink="http://www.w3.org/1999/xlink" xmlns:sketch="http://www.bohemiancoding.com/sketch/ns">
    <title>new-releases</title>
    <description>Created with Sketch (http://www.bohemiancoding.com/sketch)</description>
    <defs>
        <radialGradient cx="50%" cy="50%" fx="50%" fy="50%" r="66.9981956%" id="radialGradient-1">
            <stop stop-color="rgb(123,80,183)" offset="0%"></stop>
            <stop stop-color="rgb(91,68,204)" offset="100%"></stop>
            <stop stop-color="rgb(133,112,206)" offset="100%"></stop>
        </radialGradient>
        <path d="M49.7129995,22.6340195 L45.8359994,20.2480196 L47.7349994,16.1130193 C47.9529994,15.6380194 47.9359994,15.0880194 47.6889994,14.6270194 C47.4419994,14.1640194 46.9949994,13.8460194 46.4769994,13.7620194 L41.9829994,13.0430194 L42.1549995,8.49501956 C42.1759995,7.97301954 41.9499995,7.47101951 41.5449994,7.13701952 C41.1409994,6.80501953 40.6039995,6.68301952 40.0949994,6.80301952 L35.6679993,7.86001956 L34.0859993,3.59401977 C33.9029993,3.10401976 33.5029993,2.72501975 33.0029994,2.57301974 C32.5019994,2.42201975 31.9599994,2.51201974 31.5339994,2.81901975 L27.8479993,5.48701973 L24.7529993,2.15101977 C24.3969993,1.76601978 23.8829993,1.57101978 23.3609993,1.62201978 C22.8399993,1.67501978 22.3729993,1.96601979 22.0989993,2.41301979 L19.7139993,6.29001988 L15.5779992,4.39101984 C15.1029992,4.17301984 14.5529992,4.19101983 14.0909992,4.43601984 C13.6299992,4.68101984 13.3099992,5.13001984 13.2269992,5.64801985 L12.5079992,10.14002 L7.95999934,9.97001995 C7.44299932,9.94301995 6.93499937,10.1750199 6.60299935,10.58102 C6.27099936,10.98502 6.14799934,11.52002 6.26899936,12.03002 L7.3239993,16.4580199 L3.05799951,18.0400199 C2.5679995,18.2220199 2.19099953,18.62202 2.03799953,19.1240199 C1.88799952,19.6240199 1.97699953,20.1670199 2.28399954,20.5910199 L4.95199952,24.2770201 L1.61499963,27.3710202 C1.23099962,27.7280201 1.03599963,28.2430201 1.08699963,28.7640202 C1.13899963,29.2840201 1.43099964,29.7510201 1.87699965,30.0260201 L5.75299958,32.4110201 L3.85599962,36.5460203 C3.63599962,37.0230203 3.65399962,37.5720204 3.90099962,38.0320203 C4.14699963,38.4950203 4.59499963,38.8150203 5.11199959,38.8980203 L9.60399969,39.6180203 L9.43499969,44.1650202 C9.41499969,44.6880202 9.63999969,45.1900202 10.0439997,45.5220202 C10.4499997,45.8530202 10.9849997,45.9780202 11.4949997,45.8540202 L15.9209998,44.8010202 L17.5039998,49.06702 C17.6849998,49.5570201 18.0859998,49.93402 18.5869997,50.08702 C19.0869997,50.23702 19.6319997,50.14802 20.0549998,49.84102 L23.7409999,47.17302 L26.8359999,50.50902 C27.1539999,50.85302 27.5999999,51.04602 28.0639999,51.04602 C28.1189999,51.04602 28.1719999,51.04202 28.2279999,51.03802 C28.749,50.98502 29.2149999,50.69402 29.4899999,50.24902 L31.8749999,46.3720199 L36.0110001,48.2690199 C36.486,48.4890199 37.036,48.4710199 37.497,48.2250199 C37.959,47.9790199 38.278,47.5300199 38.362,47.0120198 L39.081,42.5200197 L43.6299998,42.6920197 C44.6299998,42.6920197 45.3799998,41.9440197 45.3799998,41.0180197 C45.3799998,40.8100197 45.3419998,40.6110197 45.2729998,40.4260197 L44.2659998,36.2030196 L48.5319996,34.6200197 C49.0229996,34.4370197 49.3999996,34.0370197 49.5529997,33.5370198 C49.7029997,33.0370198 49.6129996,32.4940198 49.3059997,32.0680198 L46.6379997,28.3820197 L49.9759997,25.2880196 C50.3580017,24.9320068 50.5540009,24.4160156 50.5009995,23.8950195 C50.4499995,23.3750196 50.1589994,22.9090195 49.7129995,22.6340195 Z M49.7129995,22.6340195" id="path-2"></path>
    </defs>
    <g id="Page 1" fill="rgb(215,215,215)" fill-rule="evenodd">
        <g id="Group" fill="rgb(0,0,0)">
            <path d="M24.0719986,24.0679932 C23.4859986,24.0679932 23.0049986,24.2689932 22.6299986,24.6729932 C22.2531112,25.0790264 22.0259986,25.6789932 21.9439986,26.4719932 L26.2079985,26.4719932 C26.1509985,25.6649932 25.9349985,25.0659932 25.5579985,24.6649932 C25.1843812,24.2675912 24.6869965,24.0679932 24.0719986,24.0679932 L24.0719986,24.0679932 L24.0719986,24.0679932" id="Shape" fill="rgb(111,111,111)"></path>
            <use id="Shape" stroke="rgb(254,255,254)" stroke-width="2" fill="url(#radialGradient-1)" xlink:href="#path-2"></use>
            <use id="Shape-1" stroke="none" fill="none" xlink:href="#path-2"></use>
        </g>
    </g>
</svg>