<?xml version="1.0" encoding="UTF-8" standalone="no"?>
<svg width="51px" height="51px" viewBox="0 0 51 51" version="1.1" xmlns="http://www.w3.org/2000/svg" xmlns:xlink="http://www.w3.org/1999/xlink" xmlns:sketch="http://www.bohemiancoding.com/sketch/ns">
    <title>new-releases</title>
    <description>Created with Sketch (http://www.bohemiancoding.com/sketch)</description>
    <defs></defs>
    <g id="Page-1" stroke="none" stroke-width="1" fill="none" fill-rule="evenodd" sketch:type="MSPage">
        <g id="Group" sketch:type="MSLayerGroup" transform="translate(1.000000, 2.000000)">
            <path d="M10.4210104,39.730965 C11.5292686,40.3171289 13.7604964,41 16.3999653,41 C22.3078151,41 25,37.9793808 25,35.1719123 C25,33.2269139 23.7078493,31.5769711 21.6347691,30.6918043 C23.2812192,29.75335 24.1908736,28.3895815 24.1908736,26.7850316 C24.1908736,24.4028772 22.0417843,22 17.2409664,22 C14.6100792,22 12.3249091,22.775631 11.1676132,23.4407396 C10.8255733,23.6371144 10.688267,23.9953256 10.8366069,24.3140646 L11.6138588,25.9807832 C11.7156126,26.1988678 11.9387353,26.3656383 12.213348,26.4327412 C12.4904126,26.500831 12.7907701,26.4603719 13.0261524,26.326166 C13.81076,25.874208 15.2426689,25.3452789 16.6905152,25.3452789 C18.4693677,25.3452789 19.4489013,25.986704 19.4489013,27.1491637 C19.4489013,28.7023994 17.2005102,29.2668535 15.6876885,29.2668535 L14.102536,29.2668535 C13.5888632,29.2668535 13.1720404,29.6023682 13.1720404,30.0158407 L13.1720404,31.7358469 C13.1720404,32.1483326 13.5888632,32.4838473 14.102536,32.4838473 L15.6876885,32.4838473 C16.4342917,32.4838473 20.158726,32.6111456 20.1955044,35.1344135 C20.2102158,35.7797859 19.9135361,36.3995012 19.3839259,36.8346836 C18.7182355,37.3794016 17.7043753,37.6557079 16.3680904,37.6557079 C14.5953677,37.6557079 12.9060095,37.0665835 12.1863771,36.7202139 C11.9485429,36.6057442 11.6543151,36.581074 11.3944138,36.658045 C11.1320606,36.7320556 10.9248752,36.8988262 10.831703,37.1109899 L10.0544511,38.8556663 C9.90979906,39.1793789 10.0605735,39.5415417 10.4210104,39.730965 C10.4210104,39.730965 10.0605735,39.5415417 10.4210104,39.730965 L10.4210104,39.730965" id="Shape" fill="#000000" sketch:type="MSShapeGroup"></path>
            <path d="M28.5845618,26.8016393 C28.656616,27.031597 28.8529017,27.2218717 29.118757,27.3185353 C29.3858546,27.415199 29.6889794,27.4029888 29.9461385,27.2910625 L32.326413,26.2389552 L32.326413,40.228726 C32.326413,40.6540459 32.7487999,41 33.2693297,41 L36.0570833,41 C36.5776131,41 37,40.6540459 37,40.228726 L37,22.7722915 C37,22.3459541 36.5776131,22 36.0570833,22 L33.5973006,22 C33.4432536,22 33.290449,22.0295078 33.1537944,22.0905586 L28.4975999,24.1316875 C28.114967,24.299577 27.9224083,24.6587587 28.0292473,25.0016602 L28.5845618,26.8016393 L28.5845618,26.8016393 L28.5845618,26.8016393" id="Shape" fill="#000000" sketch:type="MSShapeGroup"></path>
            <path d="M44.3627742,3 L39.7543456,3 L39.7543456,6.48630229 C39.7543456,7.81193816 38.4535406,8.89026887 36.8529215,8.89026887 C35.2535115,8.89026887 33.9514973,7.81193816 33.9514973,6.48630229 L33.9514973,3 L16.0485021,3 L16.0485021,6.48630229 C16.0485021,7.81193816 14.746488,8.89026887 13.1470779,8.89026887 C11.546459,8.89026887 10.2456538,7.81193816 10.2456538,6.48630229 L10.2456538,3 L5.63722524,3 C2.52907463,3 0,5.09458478 0,7.66776031 L0,45.3312385 C0,47.9044138 2.52907463,50 5.63722524,50 L44.3627748,50 C47.4709254,50 50,47.9044141 50,45.3312385 L50,7.66776031 C49.9999556,5.09456472 47.4709052,3 44.3627742,3 L44.3627742,3 L44.3627742,3 M46.9999994,45.3873205 C46.9999994,46.2758792 46.1117057,47 45.0162652,47 L5.98373425,47 C4.8895123,47 4,46.2768697 4,45.3873205 L4,15 L47,15 L47,45.3873205 L47,45.3873205 L46.9999994,45.3873205" id="Shape" fill="#000000" sketch:type="MSShapeGroup"></path>
            <path d="M13.0005659,7 C13.5529145,7 14,6.620326 14,6.15244489 L14,2.81399811 L14,0.847555105 C14,0.379674003 13.5529145,0 13.0005659,0 C12.4482173,0 12,0.379674003 12,0.847555105 L12,2.81399811 L12,6.15244489 C11.9999624,6.62126604 12.4482444,7 13.0005659,7 C13.0005659,7 12.4482444,7 13.0005659,7 L13.0005659,7" id="Shape" fill="#706F6F" sketch:type="MSShapeGroup"></path>
            <path d="M36.9994341,7 C37.5517827,7 38,6.62032598 38,6.15244487 L38,0.847555133 C38,0.379674015 37.5517827,0 36.9994341,0 C36.4470855,0 36,0.379674015 36,0.847555133 L36,6.15244487 C36.000005,6.62126603 36.4459381,7 36.9994341,7 C36.9994341,7 36.4459381,7 36.9994341,7 L36.9994341,7" id="Shape" fill="#706F6F" sketch:type="MSShapeGroup"></path>
        </g>
    </g>
</svg>