<?xml version="1.0" encoding="UTF-8" standalone="no"?>
<svg width="38px" height="50px" version="1.1" xmlns="http://www.w3.org/2000/svg" xmlns:xlink="http://www.w3.org/1999/xlink" xmlns:sketch="http://www.bohemiancoding.com/sketch/ns">
    <title>Slice 1</title>
    <description>Created with Sketch (http://www.bohemiancoding.com/sketch)</description>
    <defs></defs>
    <g id="Page 1" fill="rgb(223,223,223)" fill-rule="evenodd">
        <path d="M37.4363787,34.1277825 C37.4743787,33.2827824 37.4123787,32.4857825 37.2483787,31.7077824 C36.9053787,29.7337824 36.1083787,27.6497823 35.2653786,25.4447824 C33.2633786,20.2107822 31.1933786,14.7987825 35.0373786,10.3127824 C35.1743786,10.1537824 35.1963786,9.9247824 35.0933786,9.74178244 C34.9893786,9.55878244 34.7813786,9.45678244 34.5753786,9.49478244 C28.3223789,10.5367825 25.8533785,16.7377825 24.9803784,19.9907827 C22.1093783,14.5227828 20.9243781,8.76178264 20.9243781,0.500782961 C20.9243781,0.320782954 20.8273781,0.153782958 20.6703781,0.0647829712 C20.5143781,-0.0232170283 20.3213781,-0.0222170263 20.1673781,0.0717829714 C15.2333781,3.03278294 14.247378,7.96678295 13.2823779,12.8357829 C13.2823779,17.3827828 12.3623779,20.775783 10.2333779,23.9577827 C9.1373779,19.9527825 6.08737795,17.9197825 3.12937777,15.9477824 C2.35237776,15.4287824 1.5483778,14.8927825 0.800377772,14.3327824 C0.622377769,14.1997824 0.380377785,14.2007824 0.202377782,14.3317824 C0.0243777788,14.4637824 -0.045622214,14.6957824 0.0303777761,14.9037824 C1.42837778,18.7497824 0.959377796,23.2537828 0.506377787,27.6087824 C-0.258622199,34.9477826 -1.04962221,42.5377823 6.91837797,47.4377828 C8.52137801,48.2387828 10.214378,48.8937828 11.950378,49.3827829 C11.995378,49.3957829 12.041378,49.4017829 12.086378,49.4017829 L12.106378,49.4017829 C12.382378,49.4017829 12.606378,49.1777829 12.606378,48.9017829 C12.606378,48.6987829 12.485378,48.5237829 12.3113781,48.4457829 C9.30137806,46.1657829 9.64737802,42.8407829 10.012378,39.3217833 C10.206378,37.4527833 10.406378,35.5327833 10.083378,33.7367833 L10.200378,33.8147833 C11.811378,34.8897833 13.335378,35.9057833 13.6933781,38.0587832 C13.7263781,38.2557832 13.8743781,38.4147832 14.0683781,38.4617832 C14.2633781,38.5107832 14.467378,38.4367832 14.5873781,38.2757832 C16.0393781,36.3387832 16.6593781,34.3317832 16.650378,31.6557833 C17.077378,29.5237834 17.483378,27.4967834 19.1233781,26.1097833 C19.1883781,29.1897832 19.6283781,32.7147833 21.6453781,36.2507831 C21.7493781,36.4317831 21.9523782,36.5347831 22.1603781,36.4957831 C22.3663781,36.4627831 22.5293781,36.3057831 22.5703781,36.1007831 C22.7693781,35.1077831 23.5413781,32.1567831 25.8263782,30.990783 C24.7023782,33.3737829 25.7133782,36.0157831 26.6203782,38.3897831 C27.0463782,39.5017831 27.4473782,40.5517831 27.6163782,41.522783 C27.6883782,41.870783 27.7163782,42.222783 27.7013782,42.6617831 C27.8803782,44.932783 26.5363782,47.0037831 23.7083782,48.8157829 C23.5013782,48.9487829 23.4213782,49.2117829 23.5203782,49.4367829 C23.6013782,49.6227829 23.7833782,49.7367829 23.9783782,49.7367829 C24.0193782,49.7367829 24.0613782,49.7317829 24.1033782,49.7207829 C24.5143782,49.6147829 24.9223782,49.4957829 25.3923782,49.3347829 C33.8493425,45.1077629 37.9013445,39.9698235 37.4363787,34.1277825 C37.4363787,34.1277825 37.9013445,39.9698235 37.4363787,34.1277825 L37.4363787,34.1277825" id="Shape" fill="rgb(168,182,207)"></path>
    </g>
</svg>