<?xml version="1.0" encoding="UTF-8" standalone="no"?>
<svg width="100px" height="100px" version="1.1" xmlns="http://www.w3.org/2000/svg" xmlns:xlink="http://www.w3.org/1999/xlink" xmlns:sketch="http://www.bohemiancoding.com/sketch/ns">
    <title>no-album-no-case</title>
    <description>Created with Sketch (http://www.bohemiancoding.com/sketch)</description>
    <defs></defs>
    <g id="Page 1" fill="rgb(223,223,223)" fill-rule="evenodd">
        <path d="M50,100 C77.6142389,100 100,77.6142389 100,50 C100,22.3857611 77.6142389,0 50,0 C22.3857611,0 0,22.3857611 0,50 C0,77.6142389 22.3857611,100 50,100 Z M50,100" id="Oval 1" fill="rgb(155,155,155)"></path>
        <path d="M50.5,71 C61.8218379,71 71,61.8218379 71,50.5 C71,39.1781621 61.8218379,30 50.5,30 C39.1781621,30 30,39.1781621 30,50.5 C30,61.8218379 39.1781621,71 50.5,71 Z M50.5,71" id="Oval 3" stroke="rgb(167,167,167)" stroke-width="1"></path>
        <path d="M50,58 C54.4182782,58 58,54.4182782 58,50 C58,45.5817218 54.4182782,42 50,42 C45.5817218,42 42,45.5817218 42,50 C42,54.4182782 45.5817218,58 50,58 Z M50,58" id="Oval 2" stroke="rgb(167,167,167)" stroke-width="1" fill="rgb(254,254,254)"></path>
    </g>
</svg>