<?xml version="1.0" encoding="UTF-8" standalone="no"?>
<svg width="100px" height="100px" viewBox="0 0 100 100" version="1.1" xmlns="http://www.w3.org/2000/svg" xmlns:xlink="http://www.w3.org/1999/xlink" xmlns:sketch="http://www.bohemiancoding.com/sketch/ns">
    <title>no-artist-image-placeholder</title>
    <description>Created with Sketch (http://www.bohemiancoding.com/sketch)</description>
    <defs></defs>
    <g id="Page 1" fill="rgb(215,215,215)" fill-rule="evenodd">
        <path d="M50,100 C77.6142389,100 100,77.6142389 100,50 C100,22.3857611 77.6142389,0 50,0 C22.3857611,0 0,22.3857611 0,50 C0,77.6142389 22.3857611,100 50,100 Z M50,100" id="Oval 1" fill="rgb(196,197,196)"></path>
        <path d="M78.2332518,38.461946 L68.0212481,38.2429279 L65.019543,38.1808728 L62.0178379,38.1133422 L59.4557854,38.062238 L58.255793,38.0348607 L57.6213143,36.1202778 L51.6989383,18.27213 C51.4454917,17.5128673 50.7644615,17 50.0006733,17 C49.236885,17 48.5541308,17.5128673 48.3006841,18.27213 L42.3800321,36.1202778 L41.7438293,38.0348607 L40.5421128,38.062238 L37.9800602,38.1133422 L34.9800793,38.1808728 L31.9800984,38.2429279 L21.7663707,38.461946 C20.9974101,38.4801975 20.3232765,39.0094912 20.0870711,39.7833549 C19.8508658,40.5590439 20.1060365,41.4040886 20.7215499,41.8914038 L36.6300696,54.5287458 L30.8473477,74.5378719 C30.6249353,75.315386 30.8887267,76.1531301 31.5076883,76.6331447 C31.6645838,76.7536047 31.8335483,76.843037 32.0128575,76.903267 C32.0697537,76.9251688 32.1300981,76.9233437 32.1921667,76.93977 C32.3128556,76.9653221 32.4352686,76.9963497 32.5594057,76.9981748 C32.6869911,77 32.7990594,76.9707976 32.9128518,76.9470706 C32.9731962,76.9342946 33.0352648,76.93977 33.0938851,76.9178682 C33.269746,76.8612886 33.4369863,76.7791568 33.5921578,76.6641723 L50.0023975,64.7003107 L66.4126372,76.6641723 C66.7212559,76.8886658 67.076426,77 67.4333203,77 C67.8074559,77 68.1815914,76.8795401 68.4988307,76.6331447 C69.1160682,76.151305 69.3798596,75.3099105 69.1574472,74.5378719 L63.3730013,54.5287458 L79.284969,41.8914038 C79.8953985,41.4021957 80.1487981,40.5571279 79.9125514,39.7833549 C79.676346,39.0094911 79.0039365,38.4801975 78.2332518,38.461946 Z M78.2332518,38.461946" id="Shape" fill="rgb(254,255,254)"></path>
    </g>
</svg>