<?xml version="1.0" encoding="UTF-8" standalone="no"?>
<svg width="107px" height="107px" version="1.1" xmlns="http://www.w3.org/2000/svg" xmlns:xlink="http://www.w3.org/1999/xlink" xmlns:sketch="http://www.bohemiancoding.com/sketch/ns">
    <title>no-album-art-placeholder</title>
    <description>Created with Sketch (http://www.bohemiancoding.com/sketch)</description>
    <defs></defs>
    <g id="Page 1" fill="rgb(223,223,223)" fill-rule="evenodd">
        <path d="M0,0 L0,107 L107,107 L107,0 L0,0 Z M0,0" id="Rectangle 1" stroke="rgb(167,167,167)" stroke-width="1" fill="rgb(0,0,0)"></path>
        <path d="M53,103 C80.6142389,103 103,80.6142389 103,53 C103,25.3857611 80.6142389,3 53,3 C25.3857611,3 3,25.3857611 3,53 C3,80.6142389 25.3857611,103 53,103 Z M53,103" id="Oval 1" fill="rgb(155,155,155)"></path>
        <path d="M53.5,74 C64.8218379,74 74,64.8218379 74,53.5 C74,42.1781621 64.8218379,33 53.5,33 C42.1781621,33 33,42.1781621 33,53.5 C33,64.8218379 42.1781621,74 53.5,74 Z M53.5,74" id="Oval 3" stroke="rgb(167,167,167)" stroke-width="1"></path>
        <path d="M53,61 C57.4182782,61 61,57.4182782 61,53 C61,48.5817218 57.4182782,45 53,45 C48.5817218,45 45,48.5817218 45,53 C45,57.4182782 48.5817218,61 53,61 Z M53,61" id="Oval 2" stroke="rgb(167,167,167)" stroke-width="1" fill="rgb(254,254,254)"></path>
    </g>
</svg>