<?xml version="1.0" encoding="UTF-8" standalone="no"?>
<!-- Created with Inkscape (http://www.inkscape.org/) -->

<svg
   xmlns:dc="http://purl.org/dc/elements/1.1/"
   xmlns:cc="http://creativecommons.org/ns#"
   xmlns:rdf="http://www.w3.org/1999/02/22-rdf-syntax-ns#"
   xmlns:svg="http://www.w3.org/2000/svg"
   xmlns="http://www.w3.org/2000/svg"
   xmlns:sodipodi="http://sodipodi.sourceforge.net/DTD/sodipodi-0.dtd"
   xmlns:inkscape="http://www.inkscape.org/namespaces/inkscape"
   id="svg2"
   version="1.1"
   inkscape:version="0.48.2 r9819"
   width="100"
   height="100"
   xml:space="preserve"
   sodipodi:docname="no-source.pdf"><metadata
     id="metadata8"><rdf:RDF><cc:Work
         rdf:about=""><dc:format>image/svg+xml</dc:format><dc:type
           rdf:resource="http://purl.org/dc/dcmitype/StillImage" /><dc:title></dc:title></cc:Work></rdf:RDF></metadata><defs
     id="defs6" /><sodipodi:namedview
     pagecolor="#ffffff"
     bordercolor="#666666"
     borderopacity="1"
     objecttolerance="10"
     gridtolerance="10"
     guidetolerance="10"
     inkscape:pageopacity="0"
     inkscape:pageshadow="2"
     inkscape:window-width="640"
     inkscape:window-height="480"
     id="namedview4"
     showgrid="false"
     inkscape:zoom="2.87625"
     inkscape:cx="50"
     inkscape:cy="50"
     inkscape:window-x="0"
     inkscape:window-y="0"
     inkscape:window-maximized="0"
     inkscape:current-layer="g10" /><g
     id="g10"
     inkscape:groupmode="layer"
     inkscape:label="no-source"
     transform="matrix(1.25,0,0,-1.25,0,100)"><g
       id="g12" /><g
       id="g14"><path
         d="M 0,80 0,0 80,0 80,80 0,80 z"
         style="fill:#e0dfe0;fill-opacity:1;fill-rule:evenodd;stroke:none"
         id="path16" /><path
         d="m 50.56985,29.17647 -4.19693,-4.03041 c -0.11416,-0.1123 -0.26354,-0.16641 -0.41716,-0.16641 -0.14939,0 -0.30159,0.05411 -0.41716,0.16641 l -5.75282,5.5227 -5.6908,-5.46182 c -0.22972,-0.22188 -0.60178,-0.22188 -0.8315,0 l -4.13774,3.96953 c -0.22972,0.22188 -0.22972,0.57906 0,0.79959 l 5.6908,5.46182 -5.7204,5.4943 c -0.23113,0.22188 -0.23113,0.57906 0,0.79958 l 4.19694,4.03177 c 0.22267,0.20971 0.61305,0.20971 0.83572,0 l 5.7204,-5.49565 5.72182,5.49565 c 0.22267,0.20971 0.61446,0.20971 0.8329,0 l 4.13634,-3.97088 c 0.10992,-0.10688 0.17193,-0.2503 0.17193,-0.39912 0,-0.15018 -0.06201,-0.29494 -0.17193,-0.40182 l -5.72182,-5.49159 5.75141,-5.52406 c 0.11134,-0.10553 0.17335,-0.2503 0.17335,-0.39912 0,-0.15018 -0.06201,-0.29359 -0.17335,-0.40047 M 62.55747,46.486 c -0.38051,0.07441 -0.76666,0.12582 -1.15704,0.16912 -0.0747,0.0095 -0.14516,0.02435 -0.22267,0.03247 -0.48058,0.04735 -0.9682,0.07441 -1.46146,0.07441 -0.0099,0 -0.01691,-0.0027 -0.02678,-0.0027 -0.02255,0 -0.04369,0.0041 -0.06765,0.0041 -0.50453,0 -1.00765,-0.02706 -1.50232,-0.07441 -1.76024,5.52541 -7.11422,9.45571 -13.32507,9.45571 -0.67928,0 -1.60943,-0.05142 -2.4677,-0.14883 -3.05117,3.93165 -7.91753,6.48871 -13.41385,6.48871 -9.24651,0 -16.73983,-7.19359 -16.73983,-16.06753 0,-0.35718 0.03101,-0.70353 0.05355,-1.0553 -4.495707,-2.668 -7.506001,-7.429 -7.506001,-12.88 0,-8.3517 7.045161,-15.12588 15.742031,-15.14211 l 0,-0.0014 38.00215,0 -0.007,0.05683 c 0.38756,-0.02842 0.77231,-0.05683 1.16409,-0.05683 8.46575,0 15.32629,6.58747 15.32629,14.71324 0,7.16112 -5.33002,13.11947 -12.39068,14.43453"
         style="fill:#787576;fill-opacity:1;fill-rule:evenodd;stroke:none"
         id="path18" /></g></g></svg>