<?xml version="1.0" encoding="UTF-8" standalone="no"?>
<!-- Created with Inkscape (http://www.inkscape.org/) -->

<svg
   xmlns:dc="http://purl.org/dc/elements/1.1/"
   xmlns:cc="http://creativecommons.org/ns#"
   xmlns:rdf="http://www.w3.org/1999/02/22-rdf-syntax-ns#"
   xmlns:svg="http://www.w3.org/2000/svg"
   xmlns="http://www.w3.org/2000/svg"
   xmlns:sodipodi="http://sodipodi.sourceforge.net/DTD/sodipodi-0.dtd"
   xmlns:inkscape="http://www.inkscape.org/namespaces/inkscape"
   id="svg2"
   version="1.1"
   inkscape:version="0.48.2 r9819"
   width="78.75"
   height="53.75"
   xml:space="preserve"
   sodipodi:docname="no-source.pdf"><metadata
     id="metadata8"><rdf:RDF><cc:Work
         rdf:about=""><dc:format>image/svg+xml</dc:format><dc:type
           rdf:resource="http://purl.org/dc/dcmitype/StillImage" /><dc:title></dc:title></cc:Work></rdf:RDF></metadata><defs
     id="defs6" /><sodipodi:namedview
     pagecolor="#ffffff"
     bordercolor="#666666"
     borderopacity="1"
     objecttolerance="10"
     gridtolerance="10"
     guidetolerance="10"
     inkscape:pageopacity="0"
     inkscape:pageshadow="2"
     inkscape:window-width="640"
     inkscape:window-height="480"
     id="namedview4"
     showgrid="false"
     inkscape:zoom="5.2154762"
     inkscape:cx="39.375"
     inkscape:cy="26.875"
     inkscape:window-x="0"
     inkscape:window-y="0"
     inkscape:window-maximized="0"
     inkscape:current-layer="g10" /><g
     id="g10"
     inkscape:groupmode="layer"
     inkscape:label="no-source"
     transform="matrix(1.25,0,0,-1.25,0,53.75)"><g
       id="g12" /><g
       id="g14"><path
         d="M 41.25,11.38235 37.5275,7.614794 c -0.10125,-0.104971 -0.23375,-0.155559 -0.37,-0.155559 -0.1325,0 -0.2675,0.050588 -0.37,0.155559 L 31.685,12.77732 26.6375,7.671705 c -0.20375,-0.207412 -0.53375,-0.207412 -0.7375,0 l -3.67,3.710645 c -0.20375,0.20741 -0.20375,0.5413 0,0.74744 l 5.0475,5.10562 -5.07375,5.13597 c -0.205,0.20741 -0.205,0.5413 0,0.74744 l 3.7225,3.76883 c 0.1975,0.19603 0.54375,0.19603 0.74125,0 l 5.07375,-5.13724 5.075,5.13724 c 0.1975,0.19603 0.545,0.19603 0.73875,0 l 3.66875,-3.71191 c 0.0975,-0.09992 0.1525,-0.23397 0.1525,-0.37309 0,-0.14039 -0.055,-0.27571 -0.1525,-0.37562 l -5.075,-5.13344 5.10125,-5.1638 c 0.09875,-0.09864 0.15375,-0.23397 0.15375,-0.37308 0,-0.14039 -0.055,-0.27445 -0.15375,-0.37436 M 51.8825,27.563 c -0.3375,0.06956 -0.68,0.11762 -1.02625,0.15809 -0.06625,0.0088 -0.12875,0.02276 -0.1975,0.03035 C 50.2325,27.79571 49.8,27.821 49.3625,27.821 c -0.0087,0 -0.015,-0.0025 -0.02375,-0.0025 -0.02,0 -0.03875,0.0038 -0.06,0.0038 -0.4475,0 -0.89375,-0.02529 -1.3325,-0.06955 -1.56125,5.16505 -6.31,8.83902 -11.81875,8.83902 -0.6025,0 -1.4275,-0.04805 -2.18875,-0.13911 -2.70625,3.67523 -7.0225,6.06553 -11.8975,6.06553 -8.20125,0 -14.8475,-6.72444 -14.8475,-15.01965 0,-0.33388 0.0275,-0.65765 0.0475,-0.98647 -3.9875,-2.494 -6.6575006,-6.9445 -6.6575006,-12.04 0,-7.807031 6.2487506,-14.1394144 13.9625006,-14.154591 l 0,-0.001265 33.70625,0 -0.0062,0.0531177 c 0.34375,-0.0265589 0.685,-0.0531177 1.0325,-0.0531177 7.50875,0 13.59375,6.1578527 13.59375,13.7536757 0,6.69409 -4.7275,12.26385 -10.99,13.49315"
         style="fill:#bebdbd;fill-opacity:1;fill-rule:evenodd;stroke:none"
         id="path16" /></g></g></svg>