<?xml version="1.0" encoding="UTF-8" standalone="no"?>
<svg width="80px" height="80px" viewBox="0 0 80 80" version="1.1" xmlns="http://www.w3.org/2000/svg" xmlns:xlink="http://www.w3.org/1999/xlink" xmlns:sketch="http://www.bohemiancoding.com/sketch/ns">
    <title>no-source</title>
    <description>Created with Sketch (http://www.bohemiancoding.com/sketch)</description>
    <defs></defs>
    <g id="Page 1" fill="rgb(215,215,215)" fill-rule="evenodd">
        <path d="M0,0 L0,80 L80,80 L80,0 L0,0 Z M0,0" id="Rectangle 1"></path>
        <g id="g2276" fill="rgb(0,0,0)" transform="translate(39.500000, 40.000000) scale(1, -1) translate(-39.500000, -40.000000)">
            <path d="M50.5073529,29.3537088 L46.3104168,25.3232969 C46.1962624,25.2110028 46.0468751,25.1568852 45.8932599,25.1568852 C45.7438727,25.1568852 45.5916668,25.2110028 45.476103,25.3232969 L39.7232847,30.8460025 L34.0324757,25.3841788 C33.8027576,25.1622964 33.4306988,25.1622964 33.2009807,25.3841788 L29.0632359,29.3537088 C28.8335177,29.5755912 28.8335177,29.9327677 29.0632359,30.1532971 L34.7540448,35.6151209 L29.0336404,41.1094148 C28.8025129,41.3312972 28.8025129,41.6884736 29.0336404,41.9090031 L33.2305766,45.9407678 C33.4532481,46.1504737 33.843628,46.1504737 34.0662996,45.9407678 L39.786704,40.445121 L45.5085177,45.9407678 C45.7311893,46.1504737 46.1229784,46.1504737 46.3414221,45.9407678 L50.4777574,41.969885 C50.5876838,41.8630033 50.6496936,41.7195917 50.6496936,41.5707673 C50.6496936,41.4205907 50.5876838,41.2758269 50.4777574,41.1689439 L44.7559438,35.6773556 L50.5073529,30.1532971 C50.6186887,30.0477677 50.6806985,29.9030029 50.6806985,29.7541794 C50.6806985,29.604003 50.6186887,29.4605912 50.5073529,29.3537088 M62.4949749,46.6632378 C62.1144602,46.7376496 61.7283082,46.7890613 61.3379283,46.8323555 C61.2632347,46.841826 61.192769,46.8567084 61.1152568,46.864826 C60.6346808,46.912179 60.1470583,46.9392378 59.6537985,46.9392378 C59.6439333,46.9392378 59.6368867,46.9365319 59.6270215,46.9365319 C59.6044725,46.9365319 59.5833328,46.9405907 59.5593745,46.9405907 C59.0548402,46.9405907 58.5517152,46.9135319 58.0570461,46.866179 C56.2968133,52.3915909 50.9428306,56.3218847 44.7319849,56.3218847 C44.0526957,56.3218847 43.1225487,56.2704729 42.2642765,56.1730611 C39.2131124,60.104708 34.346752,62.661767 28.850429,62.661767 C19.6039218,62.661767 12.1106002,55.4681789 12.1106002,46.5942371 C12.1106002,46.2370606 12.1416051,45.8907077 12.1641541,45.538943 C7.66844323,42.870943 4.65814889,38.1099427 4.65814889,32.6589424 C4.65814889,24.3072367 11.7033083,17.5330596 20.4001833,17.5168242 L20.4001833,17.5154712 L58.4023281,17.5154712 L58.3952816,17.5722948 C58.7828428,17.543883 59.1675855,17.5154712 59.5593747,17.5154712 C68.0251222,17.5154712 74.8856614,24.1029418 74.8856614,32.2287065 C74.8856614,39.3898245 69.5556368,45.3481765 62.4949754,46.6632355" id="path2278" fill="rgb(100,98,99)"></path>
        </g>
    </g>
</svg>