<?xml version="1.0" encoding="UTF-8" standalone="no"?>
<svg width="60px" height="60px" viewBox="0 0 60 60" version="1.1" xmlns="http://www.w3.org/2000/svg" xmlns:xlink="http://www.w3.org/1999/xlink" xmlns:sketch="http://www.bohemiancoding.com/sketch/ns">
    <title>Slice 1</title>
    <description>Created with Sketch (http://www.bohemiancoding.com/sketch)</description>
    <defs></defs>
    <g id="Page-1" stroke="none" stroke-width="1" fill="none" fill-rule="evenodd" sketch:type="MSPage">
        <g id="loved" sketch:type="MSLayerGroup" transform="translate(0.000000, 1.000000)">
            <g id="Page-1">
                <g id="loved">
                    <g id="Layer_2"></g>
                    <g id="Layer_3"></g>
                    <g id="Layer_4"></g>
                    <g id="Layer_5"></g>
                    <g id="Layer_6"></g>
                    <g id="Layer_8"></g>
                    <g id="Layer_9"></g>
                    <g id="Layer_10"></g>
                    <g id="Layer_11"></g>
                    <g id="Layer_12"></g>
                    <g id="Layer_13"></g>
                    <g id="Layer_14"></g>
                    <g id="Layer_15"></g>
                    <g id="Layer_16"></g>
                    <g id="Layer_17"></g>
                    <g id="Layer_18"></g>
                    <g id="Layer_19"></g>
                    <g id="Layer_20"></g>
                    <g id="Layer_21"></g>
                    <g id="Layer_24"></g>
                    <g id="Layer_25"></g>
                    <g id="Layer_26"></g>
                    <g id="Layer_27"></g>
                    <g id="Layer_28"></g>
                    <g id="Layer_29" transform="translate(0.000000, 5.000000)" stroke="#000000" stroke-width="2" sketch:type="MSShapeGroup">
                        <path d="M56.5,24 C58,22.5 60,18.5 60,16 L60,13.5 C60,11 58.5,7 56.5,5 L55,3.5 C52.5,1.5 49,0 46,0 L43.5,0 C41,0 37,1.5 35,3.5 L30,8.5 L25,3.5 C23,1.5 19,0 16.5,0 L14,0 C11,0 7.5,1.5 5.5,3.5 L3.5,5 C2,7 0,11 0,13.5 L0,15.5 C0,18 1.5,22 3.5,24 L30,50 L56.5,24 L56.5,24 Z" id="Shape"></path>
                    </g>
                    <g id="Layer_47"></g>
                    <g id="Layer_30"></g>
                    <g id="Layer_31"></g>
                    <g id="Layer_32"></g>
                    <g id="Layer_33"></g>
                    <g id="Layer_34"></g>
                    <g id="Layer_35"></g>
                    <g id="Layer_36"></g>
                    <g id="Layer_37"></g>
                    <g id="Layer_38"></g>
                    <g id="Layer_39"></g>
                    <g id="Layer_40"></g>
                    <g id="Layer_41"></g>
                    <g id="Layer_42"></g>
                    <g id="Layer_43"></g>
                    <g id="Layer_44"></g>
                    <g id="Layer_45"></g>
                    <g id="Layer_46"></g>
                </g>
            </g>
        </g>
    </g>
</svg>