<?xml version="1.0" encoding="UTF-8" standalone="no"?>
<svg width="54px" height="53px" version="1.1" xmlns="http://www.w3.org/2000/svg" xmlns:xlink="http://www.w3.org/1999/xlink" xmlns:sketch="http://www.bohemiancoding.com/sketch/ns">
    <title>not-loved</title>
    <description>Created with Sketch (http://www.bohemiancoding.com/sketch)</description>
    <defs></defs>
    <g id="Page 1" fill="rgb(215,215,215)" fill-rule="evenodd">
        <path d="M38.3107783,5 C33.8163885,5 29.6371976,7.16579237 26.5005096,11.1084828 C23.3668816,7.16895414 19.1958516,5.00632353 14.7075822,5.00632353 C8.06188357,5.00632353 1,10.1620687 1,19.7179021 C1,29.5477532 9.43692613,36.4087305 15.5980958,41.4179818 C17.9309757,43.3192418 19.6426383,44.6661433 21.0340019,45.7622136 C23.234274,47.4937935 24.3379802,48.3622183 25.5283917,49.5847581 C25.7864672,49.8524521 26.132268,50 26.49949,50 C26.865692,50 27.2104727,49.853506 27.4705883,49.585812 C29.0445427,47.9691086 30.4736485,46.8487987 34.3029582,43.8504146 L37.382523,41.4337909 C42.4909894,37.4225961 52,29.9556189 52,19.6209421 C52.0009784,10.1230979 44.9472776,5 38.3107783,5 L38.3107783,5 L38.3107783,5 M14.7075433,7.85085411 C18.8245101,7.85085411 22.7058433,10.1968657 25.3549418,14.2839424 C25.8435512,15.0395984 27.15637,15.0395984 27.6439591,14.2839424 C30.2961182,10.1915963 34.1825513,7.84453058 38.3097194,7.84453058 C43.6109775,7.84453058 49.2468158,11.9716558 49.2468158,19.6199068 C49.2468158,27.8530791 42.2614366,34.0290125 35.7136636,39.170002 L32.6391992,41.5824101 C29.4392671,44.0875626 27.8836737,45.3058865 26.4933303,46.6169549 C25.4783694,45.6810797 24.3481417,44.7926307 22.7007428,43.496317 C21.3675228,42.4487269 19.65382,41.0997177 17.2862579,39.170002 C11.5739152,34.5264588 3.75208617,28.1660908 3.75208617,19.7179192 C3.75415046,12.0095799 9.39810727,7.85085411 14.7075433,7.85085411 C14.7075433,7.85085411 9.39810727,7.85085411 14.7075433,7.85085411 L14.7075433,7.85085411" id="Shape" fill="rgb(82,83,82)"></path>
    </g>
</svg>