<?xml version="1.0" encoding="UTF-8" standalone="no"?>
<svg width="62px" height="62px" viewBox="0 0 62 62" version="1.1" xmlns="http://www.w3.org/2000/svg" xmlns:xlink="http://www.w3.org/1999/xlink" xmlns:sketch="http://www.bohemiancoding.com/sketch/ns">
    <title>not-loved</title>
    <description>Created with Sketch (http://www.bohemiancoding.com/sketch)</description>
    <defs></defs>
    <g id="Page-1" stroke="none" stroke-width="1" fill="none" fill-rule="evenodd" sketch:type="MSPage">
        <g id="not-loved" sketch:type="MSLayerGroup" transform="translate(1.000000, 7.000000)" stroke="#000000" stroke-width="2">
            <path d="M56.5,24 C58,22.5 60,18.5 60,16 L60,13.5 C60,11 58.5,7 56.5,5 L55,3.5 C52.5,1.5 49,0 46,0 L43.5,0 C41,0 37,1.5 35,3.5 L30,8.5 L25,3.5 C23,1.5 19,0 16.5,0 L14,0 C11,0 7.5,1.5 5.5,3.5 L3.5,5 C2,7 0,11 0,13.5 L0,15.5 C0,18 1.5,22 3.5,24 L30,50 L56.5,24 L56.5,24 Z" id="Shape" sketch:type="MSShapeGroup"></path>
        </g>
    </g>
</svg>