<?xml version="1.0" encoding="UTF-8" standalone="no"?>
<svg width="50px" height="43px" version="1.1" xmlns="http://www.w3.org/2000/svg" xmlns:xlink="http://www.w3.org/1999/xlink" xmlns:sketch="http://www.bohemiancoding.com/sketch/ns">
    <title>Slice 1</title>
    <description>Created with Sketch (http://www.bohemiancoding.com/sketch)</description>
    <defs></defs>
    <g id="Page 1" fill="rgb(223,223,223)" fill-rule="evenodd">
        <path d="M36.5769997,0 C32.1709995,0 28.0739994,2.05500007 24.9989996,5.796 C21.9269996,2.05800009 17.8379998,0.00600004196 13.4379997,0.00600004196 C6.92299986,0.00600004196 0,4.89800024 0,13.9649997 C0,23.2919993 8.27099991,29.8019996 14.3109999,34.5549998 C16.5979998,36.3589998 18.2759998,37.6369998 19.6399999,38.677 C21.7969999,40.3200001 22.8789999,41.1440001 24.046,42.3040001 C24.299,42.5580001 24.638,42.6980001 24.998,42.6980001 C25.357,42.6980001 25.6950001,42.5590001 25.95,42.3050001 C27.493,40.7710001 28.8940001,39.7080002 32.648,36.8630002 L35.6670001,34.5700002 C40.675,30.7640002 49.997,23.6790004 49.997,13.8729997 C49.9979591,4.86102295 43.0829811,0 36.5769997,0 L36.5769997,0 L36.5769997,0 M13.4379616,2.70501709 C17.4739614,2.70501709 21.2789617,4.93101716 23.8759613,8.80901718 C24.3549613,9.52601719 25.6419613,9.52601719 26.1199613,8.80901718 C28.7199612,4.92601728 32.5299611,2.69901705 36.5759616,2.69901705 C41.7729616,2.69901705 47.2979617,6.61501694 47.2979617,13.8720174 C47.2979617,21.6840172 40.4499617,27.5440173 34.0309615,32.4220166 L31.0169616,34.7110167 C27.8799615,37.0880167 26.3549614,38.2440166 24.9919615,39.4880166 C23.9969615,38.6000166 22.8889616,37.7570167 21.2739615,36.5270166 C19.9669615,35.5330166 18.2869616,34.2530167 15.9659615,32.4220166 C10.3659616,28.0160165 2.69796181,21.9810166 2.69796181,13.9650159 C2.6999855,6.65100098 8.23294449,2.70501709 13.4379616,2.70501709 C13.4379616,2.70501709 8.23294449,2.70501709 13.4379616,2.70501709 L13.4379616,2.70501709" id="Shape" fill="rgb(101,101,101)"></path>
    </g>
</svg>