<?xml version="1.0" encoding="UTF-8" standalone="no"?>
<svg width="70px" height="70px" viewBox="0 0 70 70" version="1.1" xmlns="http://www.w3.org/2000/svg" xmlns:xlink="http://www.w3.org/1999/xlink" xmlns:sketch="http://www.bohemiancoding.com/sketch/ns">
    <title>not-loved</title>
    <description>Created with Sketch (http://www.bohemiancoding.com/sketch)</description>
    <defs></defs>
    <g id="Page 1" fill="rgb(215,215,215)" fill-rule="evenodd">
        <path d="M50.2845366,3 C44.4682675,3 39.0599028,5.9839806 35.0006595,11.4161319 C30.9453762,5.98833681 25.5475726,3.00871241 19.739224,3.00871241 C11.1389082,3.00871241 2,10.1121836 2,23.2779984 C2,36.8213489 12.918375,46.274251 20.8916533,53.1758861 C23.9106744,55.7953999 26.1257673,57.6511308 27.9263554,59.1612721 C30.7737663,61.5470044 32.2020921,62.7435008 33.7426246,64.4278889 C34.0766046,64.7967118 34.5241115,65 34.99934,65 C35.4732484,65 35.9194352,64.7981639 36.2560554,64.4293409 C38.2929376,62.2018829 40.1423686,60.6583448 45.0979459,56.527238 L49.0832651,53.1976675 C55.6942216,47.6711323 68,37.3832972 68,23.1444091 C68.0012662,10.0584904 58.8729475,3 50.2845366,3 L50.2845366,3 L50.2845366,3 M19.7391736,6.92784344 C25.067013,6.92784344 30.0899148,10.1601261 33.51816,15.7912095 C34.150478,16.8323356 35.8494199,16.8323356 36.4804177,15.7912095 C39.9126235,10.152866 44.9421252,6.91913102 50.2831663,6.91913102 C57.143618,6.91913102 64.4370557,12.6053925 64.4370557,23.1429827 C64.4370557,34.4864645 55.3971532,42.9955283 46.9235646,50.0786694 L42.944846,53.4024316 C38.8037574,56.8539752 36.7906365,58.5325548 34.9913686,60.3389157 C33.6778898,59.0494876 32.2152422,57.8254023 30.0833142,56.0393701 C28.3579707,54.5960238 26.1402377,52.7373889 23.0763337,50.0786694 C15.6838903,43.6808988 5.56152328,34.9177251 5.56152328,23.278022 C5.56419472,12.6576434 12.8681388,6.92784344 19.7391736,6.92784344 C19.7391736,6.92784344 12.8681388,6.92784344 19.7391736,6.92784344 L19.7391736,6.92784344" id="Shape" fill="rgb(82,83,82)"></path>
    </g>
</svg>