<?xml version="1.0" encoding="UTF-8" standalone="no"?>
<svg width="60px" height="60px" version="1.1" xmlns="http://www.w3.org/2000/svg" xmlns:xlink="http://www.w3.org/1999/xlink" xmlns:sketch="http://www.bohemiancoding.com/sketch/ns">
    <title>not-loved</title>
    <description>Created with Sketch (http://www.bohemiancoding.com/sketch)</description>
    <defs></defs>
    <g id="Page 1" fill="rgb(215,215,215)" fill-rule="evenodd">
        <path d="M42.3107783,9 C37.8163885,9 33.6371976,11.1657924 30.5005096,15.1084828 C27.3668816,11.1689541 23.1958516,9.00632353 18.7075822,9.00632353 C12.0618836,9.00632353 5,14.1620687 5,23.7179021 C5,33.5477532 13.4369261,40.4087305 19.5980958,45.4179818 C21.9309757,47.3192418 23.6426383,48.6661433 25.0340019,49.7622136 C27.234274,51.4937935 28.3379802,52.3622183 29.5283917,53.5847581 C29.7864672,53.8524521 30.132268,54 30.49949,54 C30.865692,54 31.2104727,53.853506 31.4705883,53.585812 C33.0445427,51.9691086 34.4736485,50.8487987 38.3029582,47.8504146 L41.382523,45.4337909 C46.4909894,41.4225961 56,33.9556189 56,23.6209421 C56.0009784,14.1230979 48.9472776,9 42.3107783,9 L42.3107783,9 L42.3107783,9 M18.7075433,11.8508541 C22.8245101,11.8508541 26.7058433,14.1968657 29.3549418,18.2839424 C29.8435512,19.0395984 31.15637,19.0395984 31.6439591,18.2839424 C34.2961182,14.1915963 38.1825513,11.8445306 42.3097194,11.8445306 C47.6109775,11.8445306 53.2468158,15.9716558 53.2468158,23.6199068 C53.2468158,31.8530791 46.2614366,38.0290125 39.7136636,43.170002 L36.6391992,45.5824101 C33.4392671,48.0875626 31.8836737,49.3058865 30.4933303,50.6169549 C29.4783694,49.6810797 28.3481417,48.7926307 26.7007428,47.496317 C25.3675228,46.4487269 23.65382,45.0997177 21.2862579,43.170002 C15.5739152,38.5264588 7.75208617,32.1660908 7.75208617,23.7179192 C7.75415046,16.0095799 13.3981073,11.8508541 18.7075433,11.8508541 C18.7075433,11.8508541 13.3981073,11.8508541 18.7075433,11.8508541 L18.7075433,11.8508541" id="Shape" fill="rgb(82,83,82)"></path>
    </g>
</svg>