<?xml version="1.0" encoding="UTF-8" standalone="no"?>
<svg width="61px" height="61px" version="1.1" xmlns="http://www.w3.org/2000/svg" xmlns:xlink="http://www.w3.org/1999/xlink" xmlns:sketch="http://www.bohemiancoding.com/sketch/ns">
    <title>not-loved</title>
    <description>Created with Sketch (http://www.bohemiancoding.com/sketch)</description>
    <defs></defs>
    <g id="Page 1" fill="rgb(223,223,223)" fill-rule="evenodd">
        <path d="M44.6266172,0 C39.2509745,0 34.2523344,2.93585188 30.5006096,8.28038782 C26.7525446,2.94013783 21.7636656,0.00857188998 16.3953434,0.00857188998 C8.44656663,0.00857188998 0,6.99747093 0,19.9509339 C0,33.2758433 10.0912254,42.5762792 17.4604675,49.3665976 C20.2507748,51.9438612 22.2980576,53.769661 23.9622376,55.2554451 C26.5939356,57.6026979 27.9140548,58.7798959 29.3378803,60.4371165 C29.6465588,60.7999907 30.0601636,61 30.49939,61 C30.9373963,61 31.3497811,60.8014193 31.6608997,60.4385451 C33.5434727,58.2470139 35.2527952,56.7283715 39.83295,52.6638954 L43.5163511,49.3880277 C49.6264776,43.9506302 61,33.8287279 61,19.8194993 C61.0011702,6.94464375 52.5643908,0 44.6266172,0 L44.6266172,0 L44.6266172,0 M16.3952969,3.86449112 C21.319512,3.86449112 25.9618909,7.04464017 29.1304206,12.5848997 C29.7148357,13.6092334 31.2850699,13.6092334 31.8682648,12.5848997 C35.0404551,7.03749715 39.6889339,3.85591923 44.6253507,3.85591923 C50.9660712,3.85591923 57.7069757,9.45046681 57.7069757,19.8180959 C57.7069757,30.9786183 49.3519144,39.3504392 41.5202643,46.319336 L37.8429637,49.5894892 C34.015594,52.9853627 32.1549822,54.6368684 30.4920225,56.4140945 C29.2780497,55.1454636 27.9262087,53.9411216 25.9557904,52.1838964 C24.3611547,50.7638299 22.3114318,48.9351729 19.4796418,46.319336 C12.6472319,40.0247553 3.29171091,31.4029231 3.29171091,19.9509571 C3.29417997,9.50187499 10.044795,3.86449112 16.3952969,3.86449112 C16.3952969,3.86449112 10.044795,3.86449112 16.3952969,3.86449112 L16.3952969,3.86449112" id="Shape" fill="rgb(101,101,101)"></path>
    </g>
</svg>