<?xml version="1.0" encoding="UTF-8" standalone="no"?>
<svg width="60px" height="60px" viewBox="0 0 60 60" version="1.1" xmlns="http://www.w3.org/2000/svg" xmlns:xlink="http://www.w3.org/1999/xlink" xmlns:sketch="http://www.bohemiancoding.com/sketch/ns">
    <title>now-playing-speaker</title>
    <description>Created with Sketch (http://www.bohemiancoding.com/sketch)</description>
    <defs></defs>
    <g id="Page 1" fill="rgb(215,215,215)" fill-rule="evenodd">
        <g id="Group" fill="rgb(0,0,0)">
            <path d="M36.686303,26.3189981 C37.182023,27.7209981 37.430903,29.166998 37.425803,30.6099981 C37.430903,32.0639981 37.167743,33.5229982 36.664883,34.9479979 C36.441503,35.5639979 37.031063,36.1759979 37.965383,36.3219978 C38.096963,36.3429978 38.228543,36.3509978 38.360123,36.3509978 C39.144503,36.3509978 39.858503,35.9929978 40.047203,35.4659978 C40.607183,33.8709978 40.888703,32.2399978 40.897883,30.6099979 C40.891763,28.9909979 40.611263,27.3779978 40.055363,25.7979981 C39.8319666,25.1810303 38.90479,24.802002 37.974563,24.947998 C37.045343,25.086998 36.468023,25.7009981 36.686303,26.3189981 Z M36.686303,26.3189981" id="Shape" fill="rgb(254,255,254)"></path>
            <path d="M50.4460925,15.1989746 C50.0360525,14.6229746 48.9997325,14.3819746 48.1388524,14.6509746 C47.2738925,14.9169746 46.9056725,15.5989746 47.3106125,16.1709746 L47.3024525,16.1709746 C50.5735925,20.7489747 52.2035523,25.6799744 52.2035523,30.6209744 C52.2035523,35.5639743 50.5746123,40.4979743 47.3024525,45.0749749 C46.8934325,45.6469749 47.2647125,46.3289748 48.1378325,46.5979749 C48.3765125,46.6689749 48.6253925,46.7039749 48.8671324,46.7029749 C49.5209524,46.7049749 50.1462124,46.4599749 50.4450725,46.0469749 C53.9293924,41.163975 55.6827727,35.8949744 55.6827727,30.6209752 C55.6828064,25.3530273 53.928374,20.0839844 50.4460925,15.1989746 C50.4460925,15.1989746 53.928374,20.0839844 50.4460925,15.1989746 L50.4460925,15.1989746" id="Shape" fill="rgb(254,255,254)"></path>
            <path d="M45.8683569,21.4260254 C45.5501169,20.8270254 44.562757,20.5150254 43.6641369,20.7230254 C42.7634769,20.9250254 42.2830569,21.5770254 42.5972169,22.1730254 C44.0211369,24.8780254 44.730037,27.7370256 44.730037,30.6030257 C44.727997,33.4820257 44.004817,36.363026 42.5747771,39.0970262 C42.2616371,39.6910262 42.7420571,40.3460261 43.6488371,40.5490262 C43.8354971,40.5910262 44.025217,40.6110262 44.211877,40.6110262 C44.935057,40.6110262 45.6102971,40.3150262 45.861217,39.8400262 C47.4075371,36.8650263 48.1980369,33.737026 48.197017,30.6030257 C48.1980334,27.4909668 47.4319751,24.3780518 45.8683569,21.4260254 C45.8683569,21.4260254 47.4319751,24.3780518 45.8683569,21.4260254 L45.8683569,21.4260254" id="Shape" fill="rgb(254,255,254)"></path>
            <path d="M17.5816932,22.280982 L6.95227371,22.280982 C6.24337372,22.280982 5.66605367,22.845982 5.66605367,23.542982 L5.66605367,38.0439824 C5.66605367,38.7399824 6.24235367,39.3049824 6.95227371,39.3049824 L17.8203734,39.3049824 C21.4699335,42.4019823 27.5399537,47.4649823 29.9451135,48.9769824 C33.0102136,50.9039824 33.4029136,47.6499823 33.4029136,47.6499823 L33.4029136,31.0769824 L33.4029136,30.3079824 L33.4029136,13.7349824 C33.4029285,13.7340088 33.0102185,10.4790039 29.9451135,12.4069824 C27.4869134,13.9519824 21.2006536,19.2089825 17.5816932,22.280982 Z M17.5816932,22.280982" id="Shape" fill="rgb(254,255,254)"></path>
        </g>
    </g>
</svg>