<?xml version="1.0" encoding="UTF-8" standalone="no"?>
<svg width="60px" height="60px" viewBox="0 0 60 60" version="1.1" xmlns="http://www.w3.org/2000/svg" xmlns:xlink="http://www.w3.org/1999/xlink" xmlns:sketch="http://www.bohemiancoding.com/sketch/ns">
    <title>now-playing-speaker-dark</title>
    <description>Created with Sketch (http://www.bohemiancoding.com/sketch)</description>
    <defs>
        <linearGradient x1="50%" y1="-39.1231204%" x2="50%" y2="222.072246%" id="linearGradient-1">
            <stop stop-color="rgb(67,68,67)" offset="0%"></stop>
            <stop stop-color="rgb(0,0,0)" offset="100%"></stop>
        </linearGradient>
        <linearGradient x1="50%" y1="-39.1231204%" x2="50%" y2="222.072246%" id="linearGradient-2">
            <stop stop-color="rgb(65,66,65)" offset="0%"></stop>
            <stop stop-color="rgb(0,0,0)" offset="100%"></stop>
        </linearGradient>
        <linearGradient x1="50%" y1="-39.1231204%" x2="50%" y2="222.072246%" id="linearGradient-3">
            <stop stop-color="rgb(69,70,69)" offset="0%"></stop>
            <stop stop-color="rgb(35,35,35)" offset="45.8253235%"></stop>
            <stop stop-color="rgb(0,0,0)" offset="100%"></stop>
        </linearGradient>
        <linearGradient x1="50%" y1="-39.1231204%" x2="50%" y2="222.072246%" id="linearGradient-4">
            <stop stop-color="rgb(81,82,81)" offset="0%"></stop>
            <stop stop-color="rgb(0,0,0)" offset="100%"></stop>
        </linearGradient>
    </defs>
    <g id="Page 1" fill="rgb(215,215,215)" fill-rule="evenodd">
        <g id="Group" fill="rgb(0,0,0)">
            <path d="M36.974563,21.947998 C36.045343,22.086998 35.468023,22.7009981 35.686303,23.3189981 L35.681203,23.3199981 C36.182023,24.7209981 36.430903,26.166998 36.425803,27.6099981 C36.430903,29.0639981 36.167743,30.5229982 35.664883,31.9479979 C35.441503,32.5639979 36.031063,33.1759979 36.965383,33.3219978 C37.096963,33.3429978 37.228543,33.3509978 37.360123,33.3509978 C38.144503,33.3509978 38.858503,32.9929978 39.047203,32.4659978 C39.607183,30.8709978 39.888703,29.2399978 39.897883,27.6099979 C39.891763,25.9909979 39.611263,24.3779978 39.055363,22.7979981 C38.8319666,22.1810303 37.90479,21.802002 36.974563,21.947998 C36.974563,21.947998 37.90479,21.802002 36.974563,21.947998 L36.974563,21.947998" id="Shape" fill="url(#linearGradient-1)"></path>
            <path d="M49.4460925,12.1989746 C49.0360525,11.6229746 47.9997325,11.3819746 47.1388524,11.6509746 C46.2738925,11.9169746 45.9056725,12.5989746 46.3106125,13.1709746 L46.3024525,13.1709746 C49.5735925,17.7489747 51.2035523,22.6799744 51.2035523,27.6209744 C51.2035523,32.5639743 49.5746123,37.4979743 46.3024525,42.0749749 C45.8934325,42.6469749 46.2647125,43.3289748 47.1378325,43.5979749 C47.3765125,43.6689749 47.6253925,43.7039749 47.8671324,43.7029749 C48.5209524,43.7049749 49.1462124,43.4599749 49.4450725,43.0469749 C52.9293924,38.163975 54.6827727,32.8949744 54.6827727,27.6209752 C54.6828064,22.3530273 52.928374,17.0839844 49.4460925,12.1989746 C49.4460925,12.1989746 52.928374,17.0839844 49.4460925,12.1989746 L49.4460925,12.1989746" id="Shape" fill="url(#linearGradient-2)"></path>
            <path d="M44.8683569,18.4260254 C44.5501169,17.8270254 43.562757,17.5150254 42.6641369,17.7230254 C41.7634769,17.9250254 41.2830569,18.5770254 41.5972169,19.1730254 C43.0211369,21.8780254 43.730037,24.7370256 43.730037,27.6030257 C43.727997,30.4820257 43.004817,33.363026 41.5747771,36.0970262 C41.2616371,36.6910262 41.7420571,37.3460261 42.6488371,37.5490262 C42.8354971,37.5910262 43.025217,37.6110262 43.211877,37.6110262 C43.935057,37.6110262 44.6102971,37.3150262 44.861217,36.8400262 C46.4075371,33.8650263 47.1980369,30.737026 47.197017,27.6030257 C47.1980334,24.4909668 46.4319751,21.3780518 44.8683569,18.4260254 C44.8683569,18.4260254 46.4319751,21.3780518 44.8683569,18.4260254 L44.8683569,18.4260254" id="Shape" fill="url(#linearGradient-3)"></path>
            <path d="M16.5816932,19.280982 L5.95227371,19.280982 C5.24337372,19.280982 4.66605367,19.845982 4.66605367,20.542982 L4.66605367,35.0439824 C4.66605367,35.7399824 5.24235367,36.3049824 5.95227371,36.3049824 L16.8203734,36.3049824 C20.4699335,39.4019823 26.5399537,44.4649823 28.9451135,45.9769824 C32.0102136,47.9039824 32.4029136,44.6499823 32.4029136,44.6499823 L32.4029136,28.0769824 L32.4029136,27.3079824 L32.4029136,10.7349824 C32.4029285,10.7340088 32.0102185,7.47900391 28.9451135,9.40698242 C26.4869134,10.9519824 20.2006536,16.2089825 16.5816932,19.280982 Z M16.5816932,19.280982" id="Shape" fill="url(#linearGradient-4)"></path>
        </g>
    </g>
</svg>