<?xml version="1.0" encoding="UTF-8" standalone="no"?>
<svg width="54px" height="54px" version="1.1" xmlns="http://www.w3.org/2000/svg" xmlns:xlink="http://www.w3.org/1999/xlink" xmlns:sketch="http://www.bohemiancoding.com/sketch/ns">
    <title>now-playing-speaker</title>
    <description>Created with Sketch (http://www.bohemiancoding.com/sketch)</description>
    <defs></defs>
    <g id="Page 1" fill="rgb(215,215,215)" fill-rule="evenodd">
        <g id="Group" fill="rgb(0,0,0)">
            <path d="M32.686303,23.3189981 C33.182023,24.7209981 33.430903,26.166998 33.425803,27.6099981 C33.430903,29.0639981 33.167743,30.5229982 32.664883,31.9479979 C32.441503,32.5639979 33.031063,33.1759979 33.965383,33.3219978 C34.096963,33.3429978 34.228543,33.3509978 34.360123,33.3509978 C35.144503,33.3509978 35.858503,32.9929978 36.047203,32.4659978 C36.607183,30.8709978 36.888703,29.2399978 36.897883,27.6099979 C36.891763,25.9909979 36.611263,24.3779978 36.055363,22.7979981 C35.8319666,22.1810303 34.90479,21.802002 33.974563,21.947998 C33.045343,22.086998 32.468023,22.7009981 32.686303,23.3189981 Z M32.686303,23.3189981" id="Shape" fill="rgb(254,255,254)"></path>
            <path d="M46.4460925,12.1989746 C46.0360525,11.6229746 44.9997325,11.3819746 44.1388524,11.6509746 C43.2738925,11.9169746 42.9056725,12.5989746 43.3106125,13.1709746 L43.3024525,13.1709746 C46.5735925,17.7489747 48.2035523,22.6799744 48.2035523,27.6209744 C48.2035523,32.5639743 46.5746123,37.4979743 43.3024525,42.0749749 C42.8934325,42.6469749 43.2647125,43.3289748 44.1378325,43.5979749 C44.3765125,43.6689749 44.6253925,43.7039749 44.8671324,43.7029749 C45.5209524,43.7049749 46.1462124,43.4599749 46.4450725,43.0469749 C49.9293924,38.163975 51.6827727,32.8949744 51.6827727,27.6209752 C51.6828064,22.3530273 49.928374,17.0839844 46.4460925,12.1989746 C46.4460925,12.1989746 49.928374,17.0839844 46.4460925,12.1989746 L46.4460925,12.1989746" id="Shape" fill="rgb(254,255,254)"></path>
            <path d="M41.8683569,18.4260254 C41.5501169,17.8270254 40.562757,17.5150254 39.6641369,17.7230254 C38.7634769,17.9250254 38.2830569,18.5770254 38.5972169,19.1730254 C40.0211369,21.8780254 40.730037,24.7370256 40.730037,27.6030257 C40.727997,30.4820257 40.004817,33.363026 38.5747771,36.0970262 C38.2616371,36.6910262 38.7420571,37.3460261 39.6488371,37.5490262 C39.8354971,37.5910262 40.025217,37.6110262 40.211877,37.6110262 C40.935057,37.6110262 41.6102971,37.3150262 41.861217,36.8400262 C43.4075371,33.8650263 44.1980369,30.737026 44.197017,27.6030257 C44.1980334,24.4909668 43.4319751,21.3780518 41.8683569,18.4260254 C41.8683569,18.4260254 43.4319751,21.3780518 41.8683569,18.4260254 L41.8683569,18.4260254" id="Shape" fill="rgb(254,255,254)"></path>
            <path d="M13.5816932,19.280982 L2.95227371,19.280982 C2.24337372,19.280982 1.66605367,19.845982 1.66605367,20.542982 L1.66605367,35.0439824 C1.66605367,35.7399824 2.24235367,36.3049824 2.95227371,36.3049824 L13.8203734,36.3049824 C17.4699335,39.4019823 23.5399537,44.4649823 25.9451135,45.9769824 C29.0102136,47.9039824 29.4029136,44.6499823 29.4029136,44.6499823 L29.4029136,28.0769824 L29.4029136,27.3079824 L29.4029136,10.7349824 C29.4029285,10.7340088 29.0102185,7.47900391 25.9451135,9.40698242 C23.4869134,10.9519824 17.2006536,16.2089825 13.5816932,19.280982 Z M13.5816932,19.280982" id="Shape" fill="rgb(254,255,254)"></path>
        </g>
    </g>
</svg>