<?xml version="1.0" encoding="UTF-8" standalone="no"?>
<svg width="55px" height="55px" version="1.1" xmlns="http://www.w3.org/2000/svg" xmlns:xlink="http://www.w3.org/1999/xlink" xmlns:sketch="http://www.bohemiancoding.com/sketch/ns">
    <title>ok</title>
    <description>Created with Sketch (http://www.bohemiancoding.com/sketch)</description>
    <defs>
        <radialGradient cx="30.8769464%" cy="42.7043207%" fx="30.8769464%" fy="42.7043207%" r="42.0988053%" id="radialGradient-1">
            <stop stop-color="rgb(193,223,81)" offset="0%"></stop>
            <stop stop-color="rgb(86,136,31)" offset="100%"></stop>
        </radialGradient>
    </defs>
    <g id="Page 1" fill="rgb(215,215,215)" fill-rule="evenodd">
        <path d="M17.9529994,42.6650005 C20.1429994,37.7370006 22.5009992,32.9870001 25.0309994,28.4080006 C27.5599995,23.8330007 30.2819993,19.487001 33.194999,15.3740002 C36.1079991,11.2620002 38.3349988,8.44100007 39.8699992,6.91400012 C41.4039992,5.38900015 42.4679992,4.49700007 43.0529993,4.23800001 C43.6419992,3.977 44.9399992,3.70699999 46.9489992,3.42300001 C48.9599991,3.141 50.3369992,3 51.0839994,3 C51.5569994,3 51.7949994,3.183 51.7949994,3.542 C51.7949994,3.76899999 51.7089994,3.98899999 51.5409994,4.20300001 C51.3709994,4.41700001 50.8799994,4.88700002 50.0699995,5.60799998 C45.9859993,9.40399998 41.4969995,15.0070001 36.5989997,22.4139997 C31.7029998,29.8219997 27.609,37.6029999 24.3159997,45.7559988 C22.9839997,49.0089988 22.0709999,50.9649989 21.5759997,51.6179988 C21.0799997,52.2959988 19.5119998,52.6349987 16.8759999,52.6349987 C14.979,52.6349987 13.8429999,52.4439987 13.4729998,52.0609987 C13.0989998,51.6769987 12.3499998,50.6289987 11.2219999,48.9179989 C9.37199986,46.057999 7.23999977,43.3539987 4.82599998,40.8079992 C3.60699999,39.5239992 3,38.5549992 3,37.9039991 C3,37.0009992 3.662,36.0839991 4.98899996,35.148999 C6.31799996,34.2119991 7.41900003,33.7469991 8.30000007,33.7469991 C9.42400002,33.7469991 10.808,34.3679991 12.4490002,35.6039991 C14.0950282,36.8449322 15.9260218,39.1979595 17.9529994,42.6650005 L17.9529994,42.6650005 L17.9529994,42.6650005 L17.9529994,42.6650005" id="Shape" fill="url(#radialGradient-1)"></path>
    </g>
</svg>