<?xml version="1.0" encoding="UTF-8" standalone="no"?>
<svg width="50px" height="50px" viewBox="0 0 50 50" version="1.1" xmlns="http://www.w3.org/2000/svg" xmlns:xlink="http://www.w3.org/1999/xlink" xmlns:sketch="http://www.bohemiancoding.com/sketch/ns">
    <title>ok</title>
    <description>Created with Sketch (http://www.bohemiancoding.com/sketch)</description>
    <defs></defs>
    <g id="Page-1" stroke="none" stroke-width="1" fill="none" fill-rule="evenodd" sketch:type="MSPage">
        <g id="ok" sketch:type="MSLayerGroup" fill="#000000">
            <g id="Page-1" sketch:type="MSShapeGroup">
                <path d="M14.9529994,39.6650005 C17.1429994,34.7370006 19.5009992,29.9870001 22.0309994,25.4080006 C24.5599995,20.8330007 27.2819993,16.487001 30.194999,12.3740002 C33.1079991,8.2620002 35.3349988,5.44100007 36.8699992,3.91400012 C38.4039992,2.38900015 39.4679992,1.49700007 40.0529993,1.23800001 C40.6419992,0.977 41.9399992,0.70699999 43.9489992,0.42300001 C45.9599991,0.141 47.3369992,0 48.0839994,0 C48.5569994,0 48.7949994,0.183 48.7949994,0.542 C48.7949994,0.76899999 48.7089994,0.98899999 48.5409994,1.20300001 C48.3709994,1.41700001 47.8799994,1.88700002 47.0699995,2.60799998 C42.9859993,6.40399998 38.4969995,12.0070001 33.5989997,19.4139997 C28.7029998,26.8219997 24.609,34.6029999 21.3159997,42.7559988 C19.9839997,46.0089988 19.0709999,47.9649989 18.5759997,48.6179988 C18.0799997,49.2959988 16.5119998,49.6349987 13.8759999,49.6349987 C11.979,49.6349987 10.8429999,49.4439987 10.4729998,49.0609987 C10.0989998,48.6769987 9.3499998,47.6289987 8.2219999,45.9179989 C6.37199986,43.057999 4.23999977,40.3539987 1.82599998,37.8079992 C0.60699999,36.5239992 0,35.5549992 0,34.9039991 C0,34.0009992 0.662,33.0839991 1.98899996,32.148999 C3.31799996,31.2119991 4.41900003,30.7469991 5.30000007,30.7469991 C6.42400002,30.7469991 7.808,31.3679991 9.4490002,32.6039991 C11.0950282,33.8449322 12.9260218,36.1979595 14.9529994,39.6650005 L14.9529994,39.6650005" id="Shape"></path>
            </g>
        </g>
    </g>
</svg>