<?xml version="1.0" encoding="UTF-8" standalone="no"?>
<svg width="44px" height="50px" version="1.1" xmlns="http://www.w3.org/2000/svg" xmlns:xlink="http://www.w3.org/1999/xlink" xmlns:sketch="http://www.bohemiancoding.com/sketch/ns">
    <title>Slice 1</title>
    <description>Created with Sketch (http://www.bohemiancoding.com/sketch)</description>
    <defs></defs>
    <g id="Page 1" fill="rgb(223,223,223)" fill-rule="evenodd">
        <g id="Group" fill="rgb(0,0,0)">
            <path d="M3.35400391,32.0279541 L40.5150032,32.0279541 C41.6710032,32.0279541 42.7310033,31.3789541 43.2560031,30.3469541 C43.4830031,29.9079541 43.5930032,29.4279541 43.5930032,28.9499542 C43.5930032,28.3129541 43.3930032,27.6759541 43.0040032,27.1419542 L24.4220024,1.55995345 C23.8430024,0.760953426 22.9170024,0.290953398 21.9320024,0.290953398 C20.9470024,0.290953398 20.0210024,0.762953401 19.4430023,1.55995345 L0.862002969,27.1419542 C0.182002962,28.0769542 0.0870029926,29.3199542 0.611002982,30.3469541 C1.13598633,31.3790283 2.19702148,32.0279541 3.35400391,32.0279541 C3.35400391,32.0279541 2.19702148,32.0279541 3.35400391,32.0279541 L3.35400391,32.0279541" id="Shape" fill="rgb(100,100,100)"></path>
            <path d="M42.1060181,38.1459961 L2.18701935,38.1459961 C1.24001932,38.1459961 0.472019315,38.9139961 0.472019315,39.8619961 L0.472019315,47.6289963 C0.472019315,48.5769963 1.24001932,49.3449962 2.18701935,49.3449962 L42.1060181,49.3449962 C43.0540181,49.3449962 43.822018,48.5769962 43.822018,47.6289963 L43.822018,39.8619961 C43.8220215,38.9139404 43.0549927,38.1459961 42.1060181,38.1459961 L42.1060181,38.1459961 L42.1060181,38.1459961" id="Shape" fill="rgb(100,100,100)"></path>
        </g>
    </g>
</svg>