<?xml version="1.0" encoding="UTF-8" standalone="no"?>
<svg width="52px" height="52px" viewBox="0 0 52 52" version="1.1" xmlns="http://www.w3.org/2000/svg" xmlns:xlink="http://www.w3.org/1999/xlink" xmlns:sketch="http://www.bohemiancoding.com/sketch/ns">
    <title>open-padlock</title>
    <description>Created with Sketch (http://www.bohemiancoding.com/sketch)</description>
    <defs>
        <path d="M37.1529722,23.8280029 C37.1629722,23.7290029 37.1819722,23.6340029 37.1819722,23.5330029 L37.1819722,12.4290029 C37.1819722,5.93900308 31.901972,0.658002943 25.4109723,0.658002943 C18.9199726,0.658002943 13.6399724,5.93800315 13.6399724,12.4290029 L13.6399724,13.5100028 C13.6399724,15.1690029 14.9849724,16.5140028 16.6439724,16.5140028 C18.3039723,16.5140028 19.6479723,15.1690027 19.6479723,13.5100028 L19.6479723,12.4290029 C19.6479723,9.25100288 22.2339723,6.66600284 25.4109723,6.66600284 C28.5889723,6.66600284 31.1739723,9.25100288 31.1739723,12.4290029 L31.1739723,23.5330029 C31.1739723,23.6340029 31.1939723,23.7290029 31.2029723,23.8280029 L12.2809714,23.8280029 C10.1169714,23.8280029 8.35597149,25.5900029 8.35597149,27.7530029 L8.35597149,46.4710033 C8.35597149,48.6360033 10.1169715,50.3970034 12.2809714,50.3970034 L39.5089721,50.3970034 C41.6729721,50.3970034 43.433972,48.6360034 43.433972,46.4710033 L43.433972,27.7530029 C43.434021,25.5899658 41.6729736,23.8280029 39.5089722,23.8280029 L37.1529722,23.8280029 Z M37.1529722,23.8280029" id="path-1"></path>
    </defs>
    <g id="Page 1" fill="rgb(215,215,215)" fill-rule="evenodd">
        <use id="Shape" fill="rgb(154,155,154)" xlink:href="#path-1"></use>
        <use id="Shape-1" stroke="none" fill="none" xlink:href="#path-1"></use>
        <path d="M25.894989,36.1169434 C24.653989,36.1169434 23.6469891,37.1239433 23.6469891,38.3649433 L23.6469891,42.6949432 L28.1429889,42.6949432 L28.1429889,38.3649433 C28.1430054,37.1240234 27.1369934,36.1169434 25.894989,36.1169434 L25.894989,36.1169434 L25.894989,36.1169434" id="Shape" fill="rgb(254,255,254)"></path>
    </g>
</svg>