<?xml version="1.0" encoding="UTF-8" standalone="no"?>
<svg width="52px" height="52px" version="1.1" xmlns="http://www.w3.org/2000/svg" xmlns:xlink="http://www.w3.org/1999/xlink" xmlns:sketch="http://www.bohemiancoding.com/sketch/ns">
    <title>open-padlock</title>
    <description>Created with Sketch (http://www.bohemiancoding.com/sketch)</description>
    <defs></defs>
    <g id="Page 1" fill="rgb(223,223,223)" fill-rule="evenodd">
        <g id="Group" fill="rgb(0,0,0)">
            <path d="M39.5089722,23.8280029 L37.1529722,23.8280029 C37.1629722,23.7290029 37.1819722,23.6340029 37.1819722,23.5330029 L37.1819722,12.4290029 C37.1819722,5.93900308 31.901972,0.658002943 25.4109723,0.658002943 C18.9199726,0.658002943 13.6399724,5.93800315 13.6399724,12.4290029 L13.6399724,13.5100028 C13.6399724,15.1690029 14.9849724,16.5140028 16.6439724,16.5140028 C18.3039723,16.5140028 19.6479723,15.1690027 19.6479723,13.5100028 L19.6479723,12.4290029 C19.6479723,9.25100288 22.2339723,6.66600284 25.4109723,6.66600284 C28.5889723,6.66600284 31.1739723,9.25100288 31.1739723,12.4290029 L31.1739723,23.5330029 C31.1739723,23.6340029 31.1939723,23.7290029 31.2029723,23.8280029 L12.2809714,23.8280029 C10.1169714,23.8280029 8.35597149,25.5900029 8.35597149,27.7530029 L8.35597149,46.4710033 C8.35597149,48.6360033 10.1169715,50.3970034 12.2809714,50.3970034 L39.5089721,50.3970034 C41.6729721,50.3970034 43.433972,48.6360034 43.433972,46.4710033 L43.433972,27.7530029 C43.434021,25.5899658 41.6729736,23.8280029 39.5089722,23.8280029 L39.5089722,23.8280029 L39.5089722,23.8280029 M40.4299927,46.4709473 C40.4299927,46.9799473 40.0169927,47.3929473 39.5089927,47.3929473 L12.280992,47.3929473 C11.772992,47.3929473 11.358992,46.9799473 11.358992,46.4709473 L11.358992,27.7529469 C11.358992,27.2459468 11.772992,26.8319468 12.280992,26.8319468 L39.5089927,26.8319468 C40.0169927,26.8319468 40.4299927,27.2459469 40.4299927,27.7529469 L40.4299927,46.4709473 L40.4299927,46.4709473 L40.4299927,46.4709473" id="Shape" fill="rgb(103,104,103)"></path>
            <path d="M25.894989,36.1169434 C24.653989,36.1169434 23.6469891,37.1239433 23.6469891,38.3649433 L23.6469891,42.6949432 L28.1429889,42.6949432 L28.1429889,38.3649433 C28.1430054,37.1240234 27.1369934,36.1169434 25.894989,36.1169434 L25.894989,36.1169434 L25.894989,36.1169434" id="Shape" fill="rgb(131,130,130)"></path>
        </g>
    </g>
</svg>