<?xml version="1.0" encoding="UTF-8" standalone="no"?>
<svg width="50px" height="50px" viewBox="0 0 50 50" version="1.1" xmlns="http://www.w3.org/2000/svg" xmlns:xlink="http://www.w3.org/1999/xlink" xmlns:sketch="http://www.bohemiancoding.com/sketch/ns">
    <title>Slice 1</title>
    <description>Created with Sketch (http://www.bohemiancoding.com/sketch)</description>
    <defs></defs>
    <g id="Page-1" stroke="none" stroke-width="1" fill="none" fill-rule="evenodd" sketch:type="MSPage">
        <g id="Group" sketch:type="MSLayerGroup" transform="translate(-2.000000, 12.000000)">
            <path d="M50.352005,2.75299072 C50.352005,1.4029907 49.171005,0.221990824 47.8200049,0.220990658 L19.4660048,0.215990658 C18.0710049,0.214990658 16.9370048,1.3499906 16.9360049,2.74599063 L16.9400049,20.8649901 C16.9410049,21.5419901 17.2050049,22.1769901 17.6830048,22.6559901 C18.1610048,23.1349901 18.7970048,23.3979901 19.4730048,23.3979901 L47.8270049,23.4049901 C49.2230049,23.4049901 50.3570049,22.2699901 50.3570049,20.87299 L50.352005,2.75299072 L50.352005,2.75299072 L50.352005,2.75299072" id="Shape" fill="#000000" sketch:type="MSShapeGroup"></path>
            <path d="M42.7709961,5.87902832 L33.5369959,13.0490284 L24.5209961,5.86102819 C24.2499961,5.6440282 23.9109961,5.5460282 23.5649961,5.5830282 C23.2209961,5.6230282 22.9109961,5.79302819 22.6959961,6.06302819 C22.2819961,6.58002821 22.3239961,7.32202813 22.7919961,7.79002818 L32.7189962,15.7180282 C32.9479962,15.8990282 33.2349961,15.9990281 33.5279962,16.0020282 C33.8199962,16.0010282 34.1039961,15.9010282 34.3229962,15.7270282 L44.3659964,7.93302801 C44.6389964,7.72102802 44.8139964,7.41302803 44.8569964,7.07002804 C44.8999964,6.72502804 44.8069964,6.38302806 44.5929964,6.10902801 C44.1470032,5.53497314 43.3300018,5.44500732 42.7709961,5.87902832 C42.7709961,5.87902832 43.3300018,5.44500732 42.7709961,5.87902832 L42.7709961,5.87902832 M23.154007,7.42901611 L23.144007,7.43701611 L23.154007,7.42901611 L23.154007,7.42901611 L23.154007,7.42901611" id="Shape" fill="#FFFFFF" sketch:type="MSShapeGroup"></path>
            <path d="M15.3090057,2.24700928 C15.3080057,1.69500929 14.8620057,1.24800926 14.3100057,1.24800926 L1.41800553,1.24600926 C0.86600554,1.24500926 0.4200055,1.69100926 0.4200055,2.24400929 C0.4200055,2.5190093 0.532005504,2.76900927 0.713005513,2.94900927 C0.89300552,3.13000927 1.14300552,3.24200929 1.4180055,3.24100927 L14.3110051,3.24400927 C14.8609924,3.24401855 15.3079987,2.79797363 15.3090057,2.24700928 C15.3090057,2.24700928 15.3079987,2.79797363 15.3090057,2.24700928 L15.3090057,2.24700928" id="Shape" fill="#000000" sketch:type="MSShapeGroup"></path>
            <path d="M15.3090057,8.23498535 C15.3090057,7.68398535 14.8630057,7.23698533 14.3110057,7.23798537 L6.54300559,7.23498537 C5.99300557,7.23498537 5.54700559,7.68098538 5.54600561,8.2329854 C5.54700561,8.5079854 5.65800561,8.75798537 5.8380056,8.93898537 C6.0190056,9.11998536 6.26800561,9.23098536 6.54400557,9.23198538 L14.3120057,9.23298538 C14.8630066,9.23400879 15.3099976,8.7880249 15.3090057,8.23498535 C15.3090057,8.23498535 15.3099976,8.7880249 15.3090057,8.23498535 L15.3090057,8.23498535" id="Shape" fill="#000000" sketch:type="MSShapeGroup"></path>
            <path d="M14.3119965,13.2249756 L10.2159963,13.2249756 C9.66299629,13.2259756 9.21699625,13.6719756 9.21799624,14.2229756 C9.21799624,14.4989756 9.32899624,14.7479756 9.51099625,14.9289756 C9.69099626,15.1099756 9.94099626,15.2219756 10.2159962,15.2219756 L14.3129964,15.2219756 C14.8639964,15.2219756 15.3099963,14.7759756 15.3099963,14.2239756 C15.3110046,13.6729736 14.8639984,13.2260132 14.3119965,13.2249756 C14.3119965,13.2249756 14.8639984,13.2260132 14.3119965,13.2249756 L14.3119965,13.2249756" id="Shape" fill="#000000" sketch:type="MSShapeGroup"></path>
        </g>
    </g>
</svg>