<?xml version="1.0" encoding="UTF-8" standalone="no"?>
<svg width="100px" height="100px" viewBox="0 0 100 100" version="1.1" xmlns="http://www.w3.org/2000/svg" xmlns:xlink="http://www.w3.org/1999/xlink" xmlns:sketch="http://www.bohemiancoding.com/sketch/ns">
    <title>outbox</title>
    <description>Created with Sketch (http://www.bohemiancoding.com/sketch)</description>
    <defs></defs>
    <g id="Page 1" stroke="none" stroke-width="1" fill="none" fill-rule="evenodd" sketch:type="MSPage">
        <g id="inbox" sketch:type="MSLayerGroup" transform="translate(1.000000, 2.000000)">
            <g id="Page 1" sketch:type="MSShapeGroup">
                <path d="M3,50 L3,91 L96,91 L96,50 L3,50 L3,50 Z M24.7265625,19 L3,50 L96,50 L74.3945312,19 L24.7265625,19 L24.7265625,19 Z M24.7265625,19" id="Rectangle 8" fill="#FFFFFF"></path>
                <g id="Group">
                    <path d="M75.6276213,20.2579381 C75.0275732,19.4663384 74.0902433,19 73.0940852,19 L70.2802734,20.2579381 L71.5135665,25.3523915 L91.6426285,51.9023312 L91.6426285,90.6436897 L6.3554106,90.6436897 L6.3554106,51.9023312 L26.4844725,25.3523915 L26.4844723,20.2579381 L24.901993,19 C23.9058348,19 22.9704658,19.464379 22.3684569,20.2579381 L0.643188731,48.9181572 C0.225508244,49.4667906 0,50.1427854 0,50.8344554 L0,93.8198855 C0,95.5755125 1.42364335,97 3.17868577,97 L94.8213142,97 C96.5783176,97 98,95.5735531 98,93.8198855 L98,50.8344554 C98,50.1427854 97.7744918,49.46875 97.3548503,48.9181572 L75.6276213,20.2579381 Z M75.6276213,20.2579381" id="Shape" fill="#9B9B9B"></path>
                    <path d="M62.1778225,53.999412 L62.1778225,64.1512722 L35.8199786,64.1512722 L35.8199786,53.999412 C35.8199786,52.9353752 34.9614682,52.0770259 33.9060517,52.0770259 L17.7243125,52.0770259 L30.466103,34.8467501 L30.9150488,34.8467501 C30.5862157,33.5750481 30.6964831,32.2262134 31.2616035,31 L29.5052015,31 C28.8967618,31 28.3277033,31.2867757 27.9673653,31.7752833 L12.3783132,52.8542869 C11.9451199,53.4397049 11.8801409,54.216966 12.2030668,54.8656724 C12.5279618,55.5163566 13.1915352,55.9257537 13.9161495,55.9257537 L31.9901559,55.9257537 L31.9901559,66.0776139 C31.9901559,67.1396729 32.8486663,68 33.9080208,68 L64.0917493,68 C65.1530729,68 66.0076452,67.1396729 66.0076452,66.0776139 L66.0076452,55.9257537 L84.0836207,55.9257537 C84.810204,55.9257537 85.4718083,55.5163566 85.7967033,54.8656724 C86.1215983,54.2189438 86.0526812,53.4397049 85.6214569,52.8542869 L70.0304358,31.7752833 C69.6700977,31.2867757 69.0990702,31 68.4925996,31 L67.2895036,31 C67.8703764,32.2598354 67.9688295,33.6541586 67.6084914,34.9495938 L80.2774267,52.0770259 L64.0937184,52.0770259 C63.0323948,52.0790036 62.1778225,52.9353752 62.1778225,53.999412 L62.1778225,53.999412 L62.1778225,53.999412 Z M62.1778225,53.999412" id="Shape" fill="#9B9B9B"></path>
                    <path d="M34.7040126,29.2107082 C34.3839325,29.8487239 34.4440687,30.6159085 34.8592029,31.1952111 L35.0784093,31.5044334 L47.4722983,48.7152015 C47.8292361,49.2103487 48.393741,49.5 48.9989833,49.5 C49.6042257,49.5 50.1706704,49.2103487 50.5256683,48.7152015 L62.9195574,31.5044334 L63.1387637,31.1952111 C63.5577777,30.6159085 63.615974,29.8487239 63.2939541,29.2107082 C62.973874,28.5746495 62.3240144,28.1734433 61.6120787,28.1734433 L53.4025094,28.1734433 L53.4025094,27.6978672 L53.4025094,22.5839557 L53.4025094,16.2390262 L53.4025094,4.94262492 C53.4025094,2.49233135 51.431592,0.5 48.9989833,0.5 C46.5663746,0.5 44.5954572,2.49233135 44.5954572,4.94262492 L44.5954572,16.2390262 L44.5954572,22.5839557 L44.5954572,27.6978672 L44.5954572,28.1734433 L36.3839481,28.1734433 C35.6758921,28.1734433 35.0279724,28.5746495 34.7040126,29.2107082 L34.7040126,29.2107082 L34.7040126,29.2107082 Z M34.7040126,29.2107082" id="Shape" fill="#99CC00" transform="translate(49.000000, 25.000000) rotate(-180.000000) translate(-49.000000, -25.000000) "></path>
                </g>
            </g>
        </g>
    </g>
</svg>