<?xml version="1.0" encoding="UTF-8" standalone="no"?>
<svg width="102px" height="102px" version="1.1" xmlns="http://www.w3.org/2000/svg" xmlns:xlink="http://www.w3.org/1999/xlink" xmlns:sketch="http://www.bohemiancoding.com/sketch/ns">
    <title>pause-pressed</title>
    <description>Created with Sketch (http://www.bohemiancoding.com/sketch)</description>
    <defs>
        <linearGradient x1="50%" y1="50%" x2="50%" y2="0%" id="linearGradient-1">
            <stop stop-color="rgb(49,55,59)" offset="0%"></stop>
            <stop stop-color="rgb(0,0,0)" stop-opacity="0.5" offset="100%"></stop>
        </linearGradient>
        <path d="M51,101 C78.6142389,101 101,78.6142389 101,51 C101,23.3857611 78.6142389,1 51,1 C23.3857611,1 1,23.3857611 1,51 C1,78.6142389 23.3857611,101 51,101 Z M51,101" id="path-2"></path>
    </defs>
    <g id="Page 1" fill="rgb(223,223,223)" fill-rule="evenodd">
        <use id="Oval 1" stroke="rgb(167,167,167)" stroke-width="1" fill="url(#linearGradient-1)" xlink:href="#path-2"></use>
        <use id="Oval 1-1" stroke="none" fill="none" xlink:href="#path-2"></use>
        <g id="Group" fill="rgb(0,0,0)">
            <path d="M44.8781738,31.1253995 L37.8163555,31.1253995 C36.9554464,31.1253995 36.2563556,31.8235813 36.2563556,32.6853995 L36.2563556,68.9744897 C36.2563556,69.8363079 36.9554465,70.5353988 37.8163555,70.5353988 L44.8781738,70.5353988 C45.7390829,70.5353988 46.4390829,69.8363079 46.4390829,68.9744897 L46.4390829,32.6853995 C46.4381769,31.8227539 45.7391025,31.1253995 44.8781738,31.1253995 L44.8781738,31.1253995 L44.8781738,31.1253995" id="Shape" fill="rgb(213,213,213)"></path>
            <path d="M64.2227117,31.1253995 L57.1618025,31.1253995 C56.2999843,31.1253995 55.6008934,31.8235813 55.6008934,32.6853995 L55.6008934,68.9744897 C55.6008934,69.8363079 56.2999843,70.5353988 57.1618025,70.5353988 L64.2227117,70.5353988 C65.0845299,70.5353988 65.7836208,69.8363079 65.7836208,68.9744897 L65.7836208,32.6853995 C65.7836581,31.8227539 65.0845281,31.1253995 64.2227117,31.1253995 L64.2227117,31.1253995 L64.2227117,31.1253995" id="Shape" fill="rgb(213,213,213)"></path>
        </g>
    </g>
</svg>