<?xml version="1.0" encoding="UTF-8" standalone="no"?>
<svg width="102px" height="102px" version="1.1" xmlns="http://www.w3.org/2000/svg" xmlns:xlink="http://www.w3.org/1999/xlink" xmlns:sketch="http://www.bohemiancoding.com/sketch/ns">
    <title>pause-rest</title>
    <description>Created with Sketch (http://www.bohemiancoding.com/sketch)</description>
    <defs>
        <linearGradient x1="50%" y1="50%" x2="50%" y2="0%" id="linearGradient-1">
            <stop stop-color="rgb(49,55,59)" offset="0%"></stop>
            <stop stop-color="rgb(0,0,0)" stop-opacity="0.5" offset="100%"></stop>
        </linearGradient>
        <path d="M51,101 C78.6142389,101 101,78.6142389 101,51 C101,23.3857611 78.6142389,1 51,1 C23.3857611,1 1,23.3857611 1,51 C1,78.6142389 23.3857611,101 51,101 Z M51,101" id="path-2"></path>
        <linearGradient x1="50%" y1="93.796875%" x2="50%" y2="221.863281%" id="linearGradient-3">
            <stop stop-color="rgb(255,255,255)" offset="0%"></stop>
            <stop stop-color="rgb(0,0,0)" offset="100%"></stop>
        </linearGradient>
    </defs>
    <g id="Page 1" fill="rgb(223,223,223)" fill-rule="evenodd">
        <path d="M54.0700073,14.1679993 C36.159008,14.1679993 21.5930061,28.7329988 21.5930061,46.6399994 C21.5930061,64.5459995 36.1580057,79.1160011 54.0700073,79.1160011 C56.6380074,79.1160011 59.1300073,78.7980011 61.5290074,78.2280011 L61.5290074,50.2170014 L39.1910081,66.0230012 C38.9930081,66.1580012 38.7470081,66.2360012 38.5100081,66.2360012 C38.3260081,66.2360012 38.1380081,66.1970012 37.9690081,66.1000012 C37.5730081,65.8980012 37.3270081,65.4920012 37.3270081,65.0570012 L37.3270081,28.0039998 C37.3270081,27.5689998 37.5730081,27.1589998 37.9690081,26.9509998 C38.3650081,26.7579998 38.8330081,26.7919998 39.1910081,27.0429998 L61.5290074,42.85 L61.5290074,26.8220001 L62.4800074,26.8220001 L71.4250071,26.8220001 L71.4250071,74.0560013 C80.5010073,68.2920013 86.5460074,58.1680017 86.5460074,46.6390015 C86.5460052,28.7340088 71.9759979,14.1679993 54.0700073,14.1679993 L54.0700073,14.1679993 L54.0700073,14.1679993" id="Shape"></path>
        <use id="Oval 1" stroke="rgb(167,167,167)" stroke-width="1" fill="url(#linearGradient-1)" xlink:href="#path-2"></use>
        <use id="Oval 1-1" stroke="none" fill="none" xlink:href="#path-2"></use>
        <path d="M51.0024096,1 C23.4287559,1 1,23.4303817 1,51 C1,78.5708278 23.4287582,101 51.0024096,101 C78.5700348,101 101,78.5708255 101,51 C100.998781,23.4303656 78.570021,1 51.0024096,1 L51.0024096,1 L51.0024096,1 M71.9231332,84.0524422 L71.9231332,27.1097021 L61.1403091,27.1097021 L59.9939183,27.1097021 L59.9939183,46.4321861 L33.0663916,27.3761274 C32.636043,27.0735355 32.0706831,27.0325469 31.5933216,27.2652172 C31.1159601,27.5159707 30.8194173,28.0102443 30.8194173,28.5346566 L30.8194173,73.2037377 C30.8194173,73.72815 31.1159601,74.2176015 31.5933216,74.4611217 C31.797044,74.5780596 32.0236702,74.6250759 32.2454745,74.6250759 C32.5299627,74.6250759 32.8265054,74.5310433 33.0663916,74.3682947 L59.9939183,55.313442 L59.9939183,89.0819781 C57.1020239,89.7679335 54.098022,90.1525026 51.0024047,90.1525026 C29.411442,90.1525026 11.8527342,72.5877042 11.8527342,51.0012031 C11.8527342,29.4147042 29.4102338,11.8547277 51.0024047,11.8547277 C72.5873411,11.8547277 90.1520752,29.4134982 90.1520752,51.0012031 C90.1508707,64.8987339 82.8638775,77.1036685 71.9231332,84.0524422 C71.9231332,84.0524422 82.8638775,77.1036685 71.9231332,84.0524422 L71.9231332,84.0524422" id="Shape" fill="url(#linearGradient-3)"></path>
    </g>
</svg>