<?xml version="1.0" encoding="UTF-8" standalone="no"?>
<svg width="122px" height="122px" version="1.1" xmlns="http://www.w3.org/2000/svg" xmlns:xlink="http://www.w3.org/1999/xlink" xmlns:sketch="http://www.bohemiancoding.com/sketch/ns">
    <title>play-pressed</title>
    <description>Created with Sketch (http://www.bohemiancoding.com/sketch)</description>
    <defs>
        <linearGradient x1="50%" y1="50%" x2="50%" y2="0%" id="linearGradient-1">
            <stop stop-color="rgb(37,41,44)" offset="0%"></stop>
            <stop stop-color="rgb(0,0,0)" stop-opacity="0.5" offset="100%"></stop>
        </linearGradient>
        <path d="M61,106 C85.852815,106 106,85.852815 106,61 C106,36.147185 85.852815,16 61,16 C36.147185,16 16,36.147185 16,61 C16,85.852815 36.147185,106 61,106 Z M61,121 C27.8629134,121 1,94.1370866 1,61 C1,27.8629134 27.8629134,1 61,1 C94.1370866,1 121,27.8629134 121,61 C121,94.1370866 94.1370866,121 61,121 Z M52.2667596,83.9999894 C51.3047827,84.0027739 50.6146688,83.4551662 50.2900698,82.9381874 C50.1100401,82.6504614 50.0109329,82.3163279 50.0109329,81.9756974 L50.0000207,41.1677891 C50.0000207,41.1677891 49.9963838,40.298114 50.0854894,39.7792788 C50.2909778,38.5801108 51.4211642,38.0037306 52.2803969,38.000018 C52.8750404,37.9972335 53.4078556,38.3183729 53.948854,38.731399 L78.8129561,58.5390173 C78.8675105,58.5844966 78.9193373,58.630904 78.9693455,58.6810241 C79.8422168,59.5618371 80.0104263,60.4760634 79.9995155,61.0849288 C79.9731475,62.3416419 79.1793802,63.1407778 79.020263,63.2864972 C69.7223658,70.6346492 54.7126176,82.7571985 54.7126176,82.7571985 C53.8161061,83.422681 53.095078,83.9953487 52.2667596,83.9999894 Z M52.2667596,83.9999894" id="path-2"></path>
    </defs>
    <g id="Page 1" fill="rgb(215,215,215)" fill-rule="evenodd">
        <path d="M61,121 C94.1370866,121 121,94.1370866 121,61 C121,27.8629134 94.1370866,1 61,1 C27.8629134,1 1,27.8629134 1,61 C1,94.1370866 27.8629134,121 61,121 Z M61,121" id="Oval 18" stroke="rgb(150,150,150)" stroke-width="1" fill-opacity="0.00241268382" fill="rgb(254,255,254)"></path>
        <use id="Oval 33" stroke="rgb(150,150,150)" stroke-width="1" fill="url(#linearGradient-1)" xlink:href="#path-2"></use>
        <use id="Oval 33-1" stroke="none" fill="none" xlink:href="#path-2"></use>
    </g>
</svg>