<?xml version="1.0" encoding="UTF-8" standalone="no"?>
<svg width="102px" height="102px" version="1.1" xmlns="http://www.w3.org/2000/svg" xmlns:xlink="http://www.w3.org/1999/xlink" xmlns:sketch="http://www.bohemiancoding.com/sketch/ns">
    <title>play-pressed</title>
    <description>Created with Sketch (http://www.bohemiancoding.com/sketch)</description>
    <defs>
        <linearGradient x1="50%" y1="50%" x2="50%" y2="100%" id="linearGradient-1">
            <stop stop-color="rgb(253,88,92)" offset="0%"></stop>
            <stop stop-color="rgb(165,21,21)" offset="100%"></stop>
        </linearGradient>
    </defs>
    <g id="Page 1" fill="rgb(223,223,223)" fill-rule="evenodd">
        <path d="M51,101 C78.6142389,101 101,78.6142389 101,51 C101,23.3857611 78.6142389,1 51,1 C23.3857611,1 1,23.3857611 1,51 C1,78.6142389 23.3857611,101 51,101 Z M51,101" id="Oval 1" stroke="rgb(167,167,167)" stroke-width="1" fill="url(#linearGradient-1)"></path>
        <path d="M39.5027446,29.632504 C39.5027446,29.632504 39.4987446,28.6955041 39.5967446,28.136504 C39.8227446,26.8445039 41.0657445,26.223504 42.0107446,26.2195039 C42.6647446,26.2165039 43.2507446,26.5625039 43.8457446,27.0075039 L71.1917453,48.3485035 C71.2517453,48.3975035 71.3087453,48.4475035 71.3637453,48.5015035 C72.3237453,49.4505035 72.5087453,50.4355035 72.4967453,51.0915034 C72.4677453,52.4455034 71.5947453,53.3065033 71.4197453,53.4635034 C61.1937455,61.3805032 44.6857461,74.4415041 44.6857461,74.4415041 C43.699746,75.1585041 42.906746,75.775504 41.995746,75.780504 L41.995746,75.780504 C40.937746,75.783504 40.178746,75.193504 39.821746,74.636504 C39.623746,74.326504 39.514746,73.966504 39.514746,73.599504 L39.5027446,29.632504 L39.5027446,29.632504 L39.5027446,29.632504" id="Shape" fill="rgb(213,213,213)"></path>
    </g>
</svg>