<?xml version="1.0" encoding="UTF-8" standalone="no"?>
<svg width="82px" height="82px" version="1.1" xmlns="http://www.w3.org/2000/svg" xmlns:xlink="http://www.w3.org/1999/xlink" xmlns:sketch="http://www.bohemiancoding.com/sketch/ns">
    <title>playlist-icon</title>
    <description>Created with Sketch (http://www.bohemiancoding.com/sketch)</description>
    <defs>
        <radialGradient cx="44.3827927%" cy="39.150463%" fx="44.3827927%" fy="39.150463%" r="120.982587%" id="radialGradient-1">
            <stop stop-color="rgb(196,210,241)" offset="0%"></stop>
            <stop stop-color="rgb(8,10,12)" offset="99.1944134%"></stop>
            <stop stop-color="rgb(0,0,0)" offset="100%"></stop>
        </radialGradient>
    </defs>
    <g id="Page 1" fill="rgb(215,215,215)" fill-rule="evenodd">
        <path d="M6.43623614,15.75 C4.66868603,15.75 3.23473984,14.40255 3.23473984,12.7394874 C3.23473984,11.0764248 4.66868618,9.72898734 6.43623614,9.72898734 L47.4069145,9.72898734 C49.176302,9.72898734 50.6065645,11.0764248 50.6065645,12.7394874 C50.6065645,14.40255 49.176302,15.75 47.4069145,15.75 Z M69.9009962,21.4003115 C74.4584718,27.0023785 78.7628333,32.2932302 78.2153628,42.444845 C78.1670164,43.2940642 77.5385017,43.9603053 76.7649355,43.9775173 C75.9828509,44.0040984 75.3401012,43.3566204 75.2633225,42.5120921 C74.7983218,37.4433334 72.3397144,35.5587651 68.9354703,32.9469628 C66.694415,31.2297488 64.2528569,29.3577014 62.148322,26.3251924 L62.148322,61.3874233 C63.8049311,65.1565361 62.1739148,70.8618269 58.1468475,75.1736436 C55.3199326,78.1967634 51.7976681,80 48.7219038,80 C46.8192853,80 45.2039052,79.3149882 44.0506733,78.0153452 C40.9350936,74.4870749 42.2390561,67.7151626 47.0226276,62.5994834 C50.1154537,59.2917193 54.0870695,57.4462533 57.29649,57.8200397 L57.29649,11.9900279 C57.0064121,9.58779701 56.8499901,6.92907451 56.8371937,4.08268304 C56.8357677,3.28037169 57.3633243,2.59380384 58.0828527,2.46556412 C58.8080725,2.34200271 59.5019955,2.80650265 59.7266776,3.56971163 C62.2051998,11.9415442 66.2934222,16.9665097 69.9009962,21.4003115 Z M6.43623614,34.5 C4.66868603,34.5 3.23473984,33.15255 3.23473984,31.4894874 C3.23473984,29.8264248 4.66868618,28.4789873 6.43623614,28.4789873 L47.4069145,28.4789873 C49.176302,28.4789873 50.6065645,29.8264248 50.6065645,31.4894874 C50.6065645,33.15255 49.176302,34.5 47.4069145,34.5 Z M50.6710758,49.7816772 C50.6710758,51.4430023 49.2426508,52.7921773 47.4714133,52.7921773 L6.50074923,52.7921773 C4.73319405,52.7921773 3.29924786,51.4430022 3.29924786,49.7816772 C3.29924786,48.1203396 4.7331942,46.7729021 6.50074923,46.7729021 L47.4714133,46.7729021 C49.2426508,46.7729021 50.6710758,48.1203398 50.6710758,49.7816772 Z M50.6710758,49.7816772" id="path16" fill="url(#radialGradient-1)"></path>
    </g>
</svg>