<?xml version="1.0" encoding="UTF-8" standalone="no"?>
<svg width="70px" height="70px" version="1.1" xmlns="http://www.w3.org/2000/svg" xmlns:xlink="http://www.w3.org/1999/xlink" xmlns:sketch="http://www.bohemiancoding.com/sketch/ns">
    <title>playlist-icon</title>
    <description>Created with Sketch (http://www.bohemiancoding.com/sketch)</description>
    <defs>
        <radialGradient cx="55.1087141%" cy="29.5365341%" fx="55.1087141%" fy="29.5365341%" r="100%" id="radialGradient-1">
            <stop stop-color="rgb(149,198,243)" offset="0%"></stop>
            <stop stop-color="rgb(124,142,212)" offset="100%"></stop>
        </radialGradient>
    </defs>
    <g id="Page 1" fill="rgb(215,215,215)" fill-rule="evenodd">
        <path d="M47.5025931,4.54194679 C50.2434046,11.2347259 54.7642469,15.2518915 58.7535969,18.7964536 C63.7933571,23.2749746 68.5532165,27.5046907 67.947814,35.6202967 C67.8943508,36.299203 67.1993188,36.8318242 66.3438972,36.8455785 C65.479041,36.8668316 64.7682846,36.3492118 64.6833724,35.6740588 C64.1691718,31.6218858 61.4503799,30.1152899 57.6858897,28.0273149 C55.2076821,26.6545008 52.5077542,25.1579058 50.1805015,22.7336035 L50.1805015,50.763756 C52.0124282,53.776944 50.2088108,58.337985 45.7555785,61.7850227 C42.6295123,64.2018243 38.7345144,65.6434035 35.3332647,65.6434035 C33.2293047,65.6434035 31.4429788,65.0957783 30.1677088,64.0567913 C26.7224306,61.2361459 28.1643853,55.8224099 33.4541645,51.7327263 C36.8742835,49.0883728 41.2661852,47.6130348 44.8152448,47.9118526 L44.8152448,11.2734866 C44.4944604,9.3530458 44.3214913,7.22756122 44.3073393,4.95204222 C44.3057668,4.31064159 44.8891498,3.76176773 45.6848184,3.65924778 C46.4867767,3.56047332 47.2541413,3.93180806 47.5025931,4.54194679 Z M7.41968321,19 L34.3132543,19 C35.4747001,19 36.4135367,20.1189523 36.4135367,21.5 C36.4135367,22.8810496 35.4747001,24 34.3132543,24 L7.41968321,24 C6.25944519,24 5.3181884,22.8810496 5.3181884,21.5 C5.3181884,20.1189523 6.25944519,19 7.41968321,19 Z M7.41968321,34.4487179 L34.3132543,34.4487179 C35.4747001,34.4487179 36.4135367,35.5676703 36.4135367,36.9487199 C36.4135367,38.3297656 35.4747001,39.4487179 34.3132543,39.4487179 L7.41968321,39.4487179 C6.25944519,39.4487179 5.3181884,38.3297656 5.3181884,36.9487199 C5.3181884,35.5676703 6.25944519,34.4487179 7.41968321,34.4487179 Z M36.4558825,7.30593303 C36.4558825,8.68593858 35.5182542,9.80521313 34.3555971,9.80521313 L7.46202753,9.80521313 C6.3017895,9.80521313 5.36053281,8.68593858 5.36053281,7.30593303 C5.36053281,5.92592748 6.3017895,4.80521313 7.46202753,4.80521313 L34.3555971,4.80521313 C35.5182542,4.80521313 36.4558825,5.92592748 36.4558825,7.30593303 Z M36.4558825,7.30593303" id="path1084" stroke="rgb(49,54,58)" stroke-width="1" fill="url(#radialGradient-1)"></path>
    </g>
</svg>