<?xml version="1.0" encoding="UTF-8" standalone="no"?>
<!-- Created with Inkscape (http://www.inkscape.org/) -->

<svg
   xmlns:dc="http://purl.org/dc/elements/1.1/"
   xmlns:cc="http://creativecommons.org/ns#"
   xmlns:rdf="http://www.w3.org/1999/02/22-rdf-syntax-ns#"
   xmlns:svg="http://www.w3.org/2000/svg"
   xmlns="http://www.w3.org/2000/svg"
   xmlns:sodipodi="http://sodipodi.sourceforge.net/DTD/sodipodi-0.dtd"
   xmlns:inkscape="http://www.inkscape.org/namespaces/inkscape"
   id="svg2"
   version="1.1"
   inkscape:version="0.48.2 r9819"
   width="100"
   height="100"
   xml:space="preserve"
   sodipodi:docname="playlist.pdf"><metadata
     id="metadata8"><rdf:RDF><cc:Work
         rdf:about=""><dc:format>image/svg+xml</dc:format><dc:type
           rdf:resource="http://purl.org/dc/dcmitype/StillImage" /><dc:title></dc:title></cc:Work></rdf:RDF></metadata><defs
     id="defs6" /><sodipodi:namedview
     pagecolor="#ffffff"
     bordercolor="#666666"
     borderopacity="1"
     objecttolerance="10"
     gridtolerance="10"
     guidetolerance="10"
     inkscape:pageopacity="0"
     inkscape:pageshadow="2"
     inkscape:window-width="640"
     inkscape:window-height="480"
     id="namedview4"
     showgrid="false"
     inkscape:zoom="2.87625"
     inkscape:cx="50"
     inkscape:cy="50"
     inkscape:window-x="0"
     inkscape:window-y="0"
     inkscape:window-maximized="0"
     inkscape:current-layer="g10" /><g
     id="g10"
     inkscape:groupmode="layer"
     inkscape:label="playlist"
     transform="matrix(1.25,0,0,-1.25,0,100)"><g
       id="g12" /><g
       id="g14"><path
         d="m 66.31543,55.20355 c -2.88404,3.54456 -6.15233,7.56172 -8.13376,14.2545 -0.17962,0.61014 -0.73437,0.98148 -1.31414,0.8827 -0.57522,-0.10252 -0.99697,-0.65139 -0.99583,-1.29279 0.01023,-2.27552 0.13528,-4.40101 0.36718,-6.32145 l 0,-36.63836 c -2.56574,0.29882 -5.74081,-1.17652 -8.21334,-3.82088 -3.82418,-4.08968 -4.86662,-9.50342 -2.3759,-12.324061 0.92194,-1.038987 2.21334,-1.586613 3.73437,-1.586613 2.45889,0 5.27473,1.44158 7.53468,3.858384 3.2194,3.44704 4.5233,8.00808 3.19894,11.02126 l 0,28.03016 c 1.68245,-2.42431 3.63433,-3.9209 5.42592,-5.29371 2.72149,-2.08798 4.687,-3.59458 5.05874,-7.64675 0.06138,-0.67515 0.57522,-1.19277 1.20045,-1.17152 0.61842,0.01376 1.12088,0.54638 1.15953,1.22528 0.43767,8.11561 -3.00341,12.34533 -6.64684,16.82385"
         style="fill:#b6c3d8;fill-opacity:1;fill-rule:evenodd;stroke:none"
         id="path16" /><path
         d="m 9.948989,31 32.776541,0 c 1.41551,0 2.55972,-1.07796 2.55972,-2.40841 0,-1.33045 -1.14421,-2.4084 -2.55972,-2.4084 l -32.776541,0 c -1.41404,0 -2.561197,1.07795 -2.561197,2.4084 0,1.33045 1.147157,2.40841 2.561197,2.40841"
         style="fill:#c3cee0;fill-opacity:1;fill-rule:evenodd;stroke:none"
         id="path18" /><path
         d="m 9.948989,46 32.776541,0 c 1.41551,0 2.55972,-1.07796 2.55972,-2.40841 0,-1.33045 -1.14421,-2.4084 -2.55972,-2.4084 l -32.776541,0 c -1.41404,0 -2.561197,1.07795 -2.561197,2.4084 0,1.33045 1.147157,2.40841 2.561197,2.40841"
         style="fill:#c3cee0;fill-opacity:1;fill-rule:evenodd;stroke:none"
         id="path20" /><path
         d="m 45.33686,58.22534 c 0,-1.32907 -1.14274,-2.40702 -2.55973,-2.40702 l -32.77653,0 c -1.414044,0 -2.561201,1.07795 -2.561201,2.40702 0,1.32906 1.147157,2.4084 2.561201,2.4084 l 32.77653,0 c 1.41699,0 2.55973,-1.07934 2.55973,-2.4084"
         style="fill:#c3cee0;fill-opacity:1;fill-rule:evenodd;stroke:none"
         id="path22" /></g></g></svg>