<?xml version="1.0" encoding="UTF-8" standalone="no"?>
<svg width="70px" height="70px" version="1.1" xmlns="http://www.w3.org/2000/svg" xmlns:xlink="http://www.w3.org/1999/xlink" xmlns:sketch="http://www.bohemiancoding.com/sketch/ns">
    <title>playlist</title>
    <description>Created with Sketch (http://www.bohemiancoding.com/sketch)</description>
    <defs></defs>
    <g id="Page 1" fill="rgb(223,223,223)" fill-rule="evenodd">
        <g id="g1082" fill="rgb(0,0,0)">
            <path d="M61.5501904,51.352101 C58.6661418,54.8105374 55.3978562,58.7300984 53.4164226,65.2602608 C53.236809,65.8555755 52.6820531,66.2178879 52.1022877,66.1215151 C51.5270695,66.0214828 51.1053186,65.4859436 51.1064554,64.8601312 C51.1166865,62.6399004 51.241734,60.5660586 51.4736401,58.6922811 L51.4736401,22.9441252 C48.9078941,23.2356829 45.7328256,21.7961927 43.260297,19.2160894 C39.4361189,15.2257736 38.3936779,9.9435764 40.8843958,7.19146556 C41.8063364,6.17772287 43.0977355,5.6434035 44.6187672,5.6434035 C47.0776547,5.6434035 49.8934954,7.04995628 52.1534436,9.40803648 C55.3728468,12.7713201 56.6767506,17.2215411 55.3523843,20.1615162 L55.3523843,47.5106122 C57.0348408,45.1452125 58.9867177,43.6849839 60.7783061,42.3455257 C63.4997932,40.308281 65.4653117,38.838293 65.8370433,34.8845742 C65.8984302,34.2258244 66.4122615,33.7207829 67.0374987,33.7415214 C67.6559151,33.7549403 68.1583784,34.2746207 68.1970295,34.9370303 C68.6346962,42.8554485 65.193618,46.9823941 61.5501904,51.352101" id="path1084" fill="rgb(168,182,207)"></path>
        </g>
        <g id="g1086" fill="rgb(182,195,216)">
            <path d="M3.94898897,38 L36.725527,38 C38.1410417,38 39.2852494,39.0779566 39.2852494,40.4084074 C39.2852494,41.7388583 38.1410416,42.8168148 36.725527,42.8168148 L3.94898897,42.8168148 C2.53494877,42.8168148 1.38779207,41.7388583 1.38779207,40.4084074 C1.38779207,39.0779566 2.53494877,38 3.94898897,38" id="path1088"></path>
        </g>
        <g id="g1090" fill="rgb(182,195,216)">
            <path d="M3.94898897,23 L36.725527,23 C38.1410417,23 39.2852494,24.0779566 39.2852494,25.4084074 C39.2852494,26.7388583 38.1410416,27.8168148 36.725527,27.8168148 L3.94898897,27.8168148 C2.53494877,27.8168148 1.38779207,26.7388583 1.38779207,25.4084074 C1.38779207,24.0779566 2.53494877,23 3.94898897,23" id="path1092"></path>
        </g>
        <g id="g1094" fill="rgb(182,195,216)">
            <path d="M39.3368566,10.774663 C39.3368566,12.1037266 38.1941234,13.1816832 36.7771343,13.1816832 L4.00059623,13.1816832 C2.58655603,13.1816832 1.43939932,12.1037266 1.43939932,10.774663 C1.43939932,9.44559941 2.58655603,8.3662556 4.00059623,8.3662556 L36.7771343,8.3662556 C38.1941234,8.3662556 39.3368566,9.44559941 39.3368566,10.774663" id="path1096"></path>
        </g>
    </g>
</svg>