<?xml version="1.0" encoding="UTF-8" standalone="no"?>
<svg width="102px" height="102px" version="1.1" xmlns="http://www.w3.org/2000/svg" xmlns:xlink="http://www.w3.org/1999/xlink" xmlns:sketch="http://www.bohemiancoding.com/sketch/ns">
    <title>play-rest</title>
    <description>Created with Sketch (http://www.bohemiancoding.com/sketch)</description>
    <defs>
        <linearGradient x1="50%" y1="50%" x2="50%" y2="0%" id="linearGradient-1">
            <stop stop-color="rgb(49,55,59)" offset="0%"></stop>
            <stop stop-color="rgb(0,0,0)" stop-opacity="0.5" offset="100%"></stop>
        </linearGradient>
        <path d="M51,101 C78.6142389,101 101,78.6142389 101,51 C101,23.3857611 78.6142389,1 51,1 C23.3857611,1 1,23.3857611 1,51 C1,78.6142389 23.3857611,101 51,101 Z M51,101" id="path-2"></path>
    </defs>
    <g id="Page 1" fill="rgb(223,223,223)" fill-rule="evenodd">
        <use id="Oval 1" stroke="rgb(167,167,167)" stroke-width="1" fill="url(#linearGradient-1)" xlink:href="#path-2"></use>
        <use id="Oval 1-1" stroke="none" fill="none" xlink:href="#path-2"></use>
        <path d="M41.0000207,31.1677891 C41.0000207,31.1677891 40.9963838,30.298114 41.0854894,29.7792788 C41.2909778,28.5801108 42.4211642,28.0037306 43.2803969,28.000018 C43.8750404,27.9972335 44.4078556,28.3183729 44.948854,28.731399 L69.8129561,48.5390173 C69.8675105,48.5844966 69.9193373,48.630904 69.9693455,48.6810241 C70.8422168,49.5618371 71.0104263,50.4760634 70.9995155,51.0849288 C70.9731475,52.3416419 70.1793802,53.1407778 70.020263,53.2864972 C60.7223658,60.6346492 45.7126176,72.7571985 45.7126176,72.7571985 C44.8161061,73.422681 44.095078,73.9953487 43.2667596,73.9999894 L43.2667596,73.9999894 C42.3047827,74.0027739 41.6146688,73.4551662 41.2900698,72.9381874 C41.1100401,72.6504614 41.0109329,72.3163279 41.0109329,71.9756974 L41.0000207,31.1677891 L41.0000207,31.1677891 L41.0000207,31.1677891" id="Shape" fill="rgb(254,254,254)"></path>
    </g>
</svg>