<?xml version="1.0" encoding="UTF-8" standalone="no"?>
<svg width="63px" height="63px" viewBox="0 0 63 63" version="1.1" xmlns="http://www.w3.org/2000/svg" xmlns:xlink="http://www.w3.org/1999/xlink" xmlns:sketch="http://www.bohemiancoding.com/sketch/ns">
    <title>Slice 1</title>
    <description>Created with Sketch (http://www.bohemiancoding.com/sketch)</description>
    <defs></defs>
    <g id="Page-1" stroke="none" stroke-width="1" fill="none" fill-rule="evenodd" sketch:type="MSPage">
        <g id="playlist-icon" sketch:type="MSLayerGroup" transform="translate(0.000000, 1.000000)" fill="#000000">
            <g id="Page-1" sketch:type="MSShapeGroup">
                <g id="playlist-icon">
                    <g id="Page-1">
                        <g id="playlist-icon">
                            <g id="Page-1">
                                <path d="M2.41968321,30.8053144 L29.3132543,30.8053144 C30.4747001,30.8053144 31.4135367,31.9242668 31.4135367,33.3053164 C31.4135367,34.6863621 30.4747001,35.8053144 29.3132543,35.8053144 L2.41968321,35.8053144 C1.25944519,35.8053144 0.3181884,34.6863621 0.3181884,33.3053164 C0.3181884,31.9242668 1.25944519,30.8053144 2.41968321,30.8053144 L2.41968321,30.8053144 L2.41968321,30.8053144 Z M42.5025931,0.89854326 C45.2434046,7.5913223 49.7642469,11.608488 53.7535969,15.1530501 C58.7933571,19.6315711 63.5532165,23.8612872 62.947814,31.9768931 C62.8943508,32.6557994 62.1993188,33.1884207 61.3438972,33.202175 C60.479041,33.2234281 59.7682846,32.7058083 59.6833724,32.0306553 C59.1691718,27.9784823 56.4503799,26.4718863 52.6858897,24.3839113 C50.2076821,23.0110972 47.5077542,21.5145023 45.1805015,19.0901999 L45.1805015,47.1203525 C47.0124282,50.1335405 45.2088108,54.6945814 40.7555785,58.1416192 C37.6295123,60.5584208 33.7345144,62 30.3332647,62 C28.2293047,62 26.4429788,61.4523748 25.1677088,60.4133878 C21.7224306,57.5927424 23.1643853,52.1790064 28.4541645,48.0893228 C31.8742835,45.4449693 36.2661852,43.9696313 39.8152448,44.2684491 L39.8152448,7.630083 C39.4944604,5.70964227 39.3214913,3.58415769 39.3073393,1.30863869 C39.3057668,0.66723806 39.8891498,0.1183642 40.6848184,0.01584425 C41.4867767,-0.08293021 42.2541413,0.28840453 42.5025931,0.89854326 L42.5025931,0.89854326 L42.5025931,0.89854326 Z M2.41968321,15.3565965 L29.3132543,15.3565965 C30.4747001,15.3565965 31.4135367,16.4755488 31.4135367,17.8565965 C31.4135367,19.2376461 30.4747001,20.3565965 29.3132543,20.3565965 L2.41968321,20.3565965 C1.25944519,20.3565965 0.3181884,19.2376461 0.3181884,17.8565965 C0.3181884,16.4755488 1.25944519,15.3565965 2.41968321,15.3565965 L2.41968321,15.3565965 L2.41968321,15.3565965 Z M31.4558825,3.6625295 C31.4558825,5.04253505 30.5182542,6.1618096 29.3555971,6.1618096 L2.46202753,6.1618096 C1.3017895,6.1618096 0.36053281,5.04253505 0.36053281,3.6625295 C0.36053281,2.28252395 1.3017895,1.1618096 2.46202753,1.1618096 L29.3555971,1.1618096 C30.5182542,1.1618096 31.4558825,2.28252395 31.4558825,3.6625295 L31.4558825,3.6625295 L31.4558825,3.6625295 Z" id="path1084"></path>
                            </g>
                        </g>
                    </g>
                </g>
            </g>
        </g>
    </g>
</svg>