<?xml version="1.0" encoding="UTF-8" standalone="no"?>
<svg width="70px" height="70px" version="1.1" xmlns="http://www.w3.org/2000/svg" xmlns:xlink="http://www.w3.org/1999/xlink" xmlns:sketch="http://www.bohemiancoding.com/sketch/ns">
    <title>playlist-icon</title>
    <description>Created with Sketch (http://www.bohemiancoding.com/sketch)</description>
    <defs>
        <radialGradient cx="55.1087141%" cy="29.5365341%" fx="55.1087141%" fy="29.5365341%" r="100%" id="radialGradient-1">
            <stop stop-color="rgb(149,198,243)" offset="0%"></stop>
            <stop stop-color="rgb(124,142,212)" offset="100%"></stop>
        </radialGradient>
    </defs>
    <g id="Page 1" fill="rgb(215,215,215)" fill-rule="evenodd">
        <path d="M6.41968321,34.8053144 L33.3132543,34.8053144 C34.4747001,34.8053144 35.4135367,35.9242668 35.4135367,37.3053164 C35.4135367,38.6863621 34.4747001,39.8053144 33.3132543,39.8053144 L6.41968321,39.8053144 C5.25944519,39.8053144 4.3181884,38.6863621 4.3181884,37.3053164 C4.3181884,35.9242668 5.25944519,34.8053144 6.41968321,34.8053144 Z M46.5025931,4.89854326 C49.2434046,11.5913223 53.7642469,15.608488 57.7535969,19.1530501 C62.7933571,23.6315711 67.5532165,27.8612872 66.947814,35.9768931 C66.8943508,36.6557994 66.1993188,37.1884207 65.3438972,37.202175 C64.479041,37.2234281 63.7682846,36.7058083 63.6833724,36.0306553 C63.1691718,31.9784823 60.4503799,30.4718863 56.6858897,28.3839113 C54.2076821,27.0110972 51.5077542,25.5145023 49.1805015,23.0901999 L49.1805015,51.1203525 C51.0124282,54.1335405 49.2088108,58.6945814 44.7555785,62.1416192 C41.6295123,64.5584208 37.7345144,66 34.3332647,66 C32.2293047,66 30.4429788,65.4523748 29.1677088,64.4133878 C25.7224306,61.5927424 27.1643853,56.1790064 32.4541645,52.0893228 C35.8742835,49.4449693 40.2661852,47.9696313 43.8152448,48.2684491 L43.8152448,11.630083 C43.4944604,9.70964227 43.3214913,7.58415769 43.3073393,5.30863869 C43.3057668,4.66723806 43.8891498,4.1183642 44.6848184,4.01584425 C45.4867767,3.91706979 46.2541413,4.28840453 46.5025931,4.89854326 Z M6.41968321,19.3565965 L33.3132543,19.3565965 C34.4747001,19.3565965 35.4135367,20.4755488 35.4135367,21.8565965 C35.4135367,23.2376461 34.4747001,24.3565965 33.3132543,24.3565965 L6.41968321,24.3565965 C5.25944519,24.3565965 4.3181884,23.2376461 4.3181884,21.8565965 C4.3181884,20.4755488 5.25944519,19.3565965 6.41968321,19.3565965 Z M35.4558825,7.6625295 C35.4558825,9.04253505 34.5182542,10.1618096 33.3555971,10.1618096 L6.46202753,10.1618096 C5.3017895,10.1618096 4.36053281,9.04253505 4.36053281,7.6625295 C4.36053281,6.28252395 5.3017895,5.1618096 6.46202753,5.1618096 L33.3555971,5.1618096 C34.5182542,5.1618096 35.4558825,6.28252395 35.4558825,7.6625295 Z M35.4558825,7.6625295" id="path1084" fill="url(#radialGradient-1)"></path>
    </g>
</svg>