<?xml version="1.0" encoding="UTF-8" standalone="no"?>
<svg width="62px" height="63px" viewBox="0 0 62 63" version="1.1" xmlns="http://www.w3.org/2000/svg" xmlns:xlink="http://www.w3.org/1999/xlink" xmlns:sketch="http://www.bohemiancoding.com/sketch/ns">
    <title>plugins</title>
    <description>Created with Sketch (http://www.bohemiancoding.com/sketch)</description>
    <defs></defs>
    <g id="Page-1" stroke="none" stroke-width="1" fill="none" fill-rule="evenodd" sketch:type="MSPage">
        <path d="M50.0505804,46.7449229 C50.6130804,47.8674229 51.9818304,48.4549229 53.9005803,48.4949228 C56.9405802,48.5611728 58.6543303,48.1724229 60.4830801,50.6924229 C62.4093301,53.3461727 61.5593301,57.3449229 59.2205801,59.1961728 C56.3443299,61.4674229 54.7330802,61.1261729 52.1830799,60.1299228 C50.3555799,59.4136728 49.2893299,58.8936728 48.94183,56.5049227 C48.59308,54.1199227 48.90058,49.3111725 44.9355801,49.7661729 C44.4205801,49.8236729 44.2793301,49.9086729 43.5105801,50.6236729 L31.3380802,61.9599232 C30.6293303,62.6186732 30.4480802,62.6149232 29.7618302,61.9286732 L20.2693304,52.4361734 C19.5293304,51.6961734 19.4305804,51.5836734 19.2955804,51.3186734 C18.6155803,49.9974234 19.3468304,48.7436735 19.9955804,47.8899234 C20.4980804,47.2261733 20.9318304,46.5861734 21.5480804,46.3374234 C22.5243304,45.9449234 23.9618304,46.5474234 25.2018305,46.3074234 C27.9193305,45.7824234 29.4643306,42.6361733 29.7793304,39.8236736 C30.2718304,35.4386738 25.6305804,32.3786738 21.4818304,33.8149234 C20.2530804,34.2411734 19.0043304,35.1161735 18.4280803,36.1086735 C16.7330804,39.0174234 17.3118303,46.2949237 13.2818302,45.0674233 C11.0518301,44.3886733 1.97683059,35.9661731 0.34182988,33.0786738 C-0.175670126,32.1649237 -0.140670129,31.9911737 0.689329876,31.3511738 C6.29807986,27.0224237 12.1668301,22.771174 13.0868302,17.0274243 C13.3930802,15.1161742 13.0993302,13.2999241 11.0193301,12.6711744 C10.0218301,12.3699244 8.81683014,12.6136744 7.65183009,12.3549244 C3.45308013,11.4224244 1.93308033,6.51242466 3.89808006,3.5211745 C5.61558001,0.906174493 8.09933014,-0.353825378 11.1480803,0.0861746194 C12.1243303,0.226174624 13.3393303,0.967424599 13.7543304,1.6736746 C14.8180804,3.49242465 14.8480804,7.1861744 16.0393303,9.29992439 C17.4693304,11.8349245 20.9468304,12.7236745 22.8705805,11.6299243 C23.8805805,11.0561744 28.8180803,4.87617449 31.7018305,1.42117457 C32.3730806,0.616174576 32.5505806,0.581174579 33.4743305,1.08367455 C36.6155805,2.7949245 43.3530804,8.79117442 43.4105804,13.0224241 C43.4443304,15.4324241 40.5543303,15.4824242 37.4030801,17.694924 C34.29933,19.8749239 33.40308,23.2274241 35.64808,26.238674 C36.77183,27.746174 38.5955801,28.5324241 40.44683,28.768674 C41.28808,28.873674 43.9230799,27.9149239 44.3418299,27.3486739 C47.63433,22.8961739 45.65683,17.3299235 50.9005802,18.5136741 C51.6805802,18.6899241 51.8430802,18.7974241 52.5268302,19.5936741 L61.3593302,29.8574247 C62.0430803,30.651173 62.0168302,30.797423 61.1055803,31.314923 C56.7855801,33.769923 47.5918304,41.8411724 50.0505804,46.7449229 Z" id="path2118" fill="#000000" sketch:type="MSShapeGroup"></path>
    </g>
</svg>