<?xml version="1.0" encoding="UTF-8" standalone="no"?>
<svg width="61px" height="61px" viewBox="0 0 61 61" version="1.1" xmlns="http://www.w3.org/2000/svg" xmlns:xlink="http://www.w3.org/1999/xlink" xmlns:sketch="http://www.bohemiancoding.com/sketch/ns">
    <title>Slice 1</title>
    <description>Created with Sketch (http://www.bohemiancoding.com/sketch)</description>
    <defs></defs>
    <g id="Page-1" stroke="none" stroke-width="1" fill="none" fill-rule="evenodd" sketch:type="MSPage">
        <g id="private-listening" sketch:type="MSLayerGroup" transform="translate(0.000000, 7.000000)" fill="#000000">
            <g id="Page-1" sketch:type="MSShapeGroup">
                <g id="private-listening">
                    <g id="Page-1">
                        <path d="M59.6681619,27.7718812 C60.1481598,28.8563826 60.4187822,30.0150741 60.420001,31.2232946 C60.420001,37.1662942 54.1261236,41.9987647 46.3897967,41.9987647 C38.6534698,41.9987647 32.3595923,37.1662945 32.3595923,31.2232946 C32.3595923,30.863824 32.3865311,30.5080593 32.4318372,30.1547652 C31.8600005,30.0967064 31.2857148,30.0633534 30.7077556,30.0633534 C29.7942862,30.0633534 28.8881638,30.1461181 27.9979597,30.2931181 C28.0334699,30.6019417 28.0604087,30.9107652 28.0604087,31.2245299 C28.0604087,37.1675295 21.7653062,42 14.0302043,42 C6.29387739,42 0,37.1675298 0,31.2245299 C0,30.0090004 0.275510229,28.8428827 0.76285718,27.752118 C0.798367371,27.6495886 0.835102065,27.5482945 0.887755127,27.4531768 L1.03714289,27.176471 C1.08000004,27.0937063 1.12285718,27.0109415 1.16938779,26.9318827 L12.2877551,6.39264644 C12.6195917,5.78488161 15.6306119,0.494116918 20.1208161,0.494116918 L20.1759181,0.494116918 C22.9518361,0.522528979 25.3885709,2.51505833 27.421224,6.42352892 C27.9306119,7.40188198 27.5559179,8.61247009 26.586122,9.12511715 C25.6163262,9.63899963 24.4163262,9.2622348 23.9069384,8.28264669 C22.6444896,5.85652916 21.3061221,4.51252916 20.1404078,4.49770564 L20.120816,4.49770564 C18.4212241,4.49770564 16.4522444,7.06958786 15.7640811,8.3221761 L8.76612176,21.245823 C10.3934687,20.7356466 12.1653053,20.4527642 14.0277544,20.4527642 C19.5428567,20.4527642 24.3122442,22.91347 26.6020401,26.4772934 C27.9440809,26.2042934 29.3191829,26.059764 30.7065299,26.059764 C31.7865298,26.059764 32.8591828,26.1511759 33.914693,26.320411 C36.244897,22.8393523 40.9555087,20.452764 46.3897947,20.452764 C48.2657132,20.452764 50.0546928,20.7393522 51.690611,21.2557051 L44.6130598,8.18382304 C43.9273456,6.9411174 41.960815,4.36676434 40.2612231,4.36676434 L40.2404068,4.36676434 C39.075917,4.38158799 37.7375497,5.72682316 36.4751007,8.1541761 C35.9644884,9.13376434 34.7644884,9.50929375 33.795917,8.99664669 C32.8248966,8.48152916 32.4514272,7.27341139 32.960815,6.29382316 C34.992244,2.38535242 37.4302032,0.391587667 40.207346,0.364411196 C40.2244888,0.363175902 40.2428562,0.363175902 40.2612235,0.363175902 C44.7514276,0.363175902 47.7612234,5.65270502 48.0918356,6.25923443 L59.4955089,27.3197636 C59.5738762,27.4667636 59.6277538,27.6187048 59.6681619,27.7718812 L59.6681619,27.7718812 L59.6681619,27.7718812 Z" id="Shape"></path>
                    </g>
                </g>
            </g>
        </g>
    </g>
</svg>