<?xml version="1.0" encoding="UTF-8" standalone="no"?>
<svg width="125px" height="125px" version="1.1" xmlns="http://www.w3.org/2000/svg" xmlns:xlink="http://www.w3.org/1999/xlink" xmlns:sketch="http://www.bohemiancoding.com/sketch/ns">
    <title>private-listening</title>
    <description>Created with Sketch (http://www.bohemiancoding.com/sketch)</description>
    <defs></defs>
    <g id="Page 1" fill="rgb(223,223,223)" fill-rule="evenodd">
        <path d="M56.3768631,84.5 C56.3768631,84.5 59.4092257,82.8457031 62.8768631,82.8457031 C65.9092257,82.8457031 69.3768631,84.5 69.3768631,84.5" id="Line" stroke="rgb(0,0,0)" stroke-width="5" stroke-linecap="square"></path>
        <path d="M85,94 L96.8408027,32.068077 C97.9204012,26.4213633 107.775391,23.9999992 107.775391,24 C107.77539,24.0000007 115.09082,29.9828589 115.09082,29.9828589" id="Line" stroke="rgb(0,0,0)" stroke-width="4" stroke-linecap="square"></path>
        <path d="M10,90 L21.8408027,28.068077 C22.9204012,22.4213633 32.7753911,19.9999992 32.7753906,20 C32.7753902,20.0000007 40.0908203,25.9828589 40.0908203,25.9828589" id="Line" stroke="rgb(0,0,0)" stroke-width="4" stroke-linecap="square"></path>
        <path d="M28.6126502,102 C13.1486764,102 11.9272601,95.7315277 11.9272601,95.7315277 C5.27731738,89.9172634 5.67081667,79.4770032 11.9103813,73.2808225 C11.9103813,73.2808225 13.1486764,67 28.6126502,67 C44.0766239,67 56.6126502,74.8350164 56.6126502,84.5 C56.6126502,94.1649836 44.0766239,102 28.6126502,102 Z M97.1410761,102.204316 C81.6771023,102.204316 69.1410761,94.277824 69.1410761,84.5 C69.1410761,74.722176 81.6771023,66.7956844 97.1410761,66.7956844 C112.60505,66.7956844 113.910763,73.1998621 113.910763,73.1998621 C120.113094,79.4407559 120.499713,89.95634 113.893923,95.8126514 C113.893923,95.8126514 112.60505,102.204316 97.1410761,102.204316 Z M97.1410761,102.204316" id="path2312" stroke="rgb(0,0,0)" stroke-width="5" fill="rgb(120,117,118)"></path>
    </g>
</svg>