<?xml version="1.0" encoding="UTF-8" standalone="no"?>
<svg width="53px" height="53px" viewBox="0 0 53 53" version="1.1" xmlns="http://www.w3.org/2000/svg" xmlns:xlink="http://www.w3.org/1999/xlink" xmlns:sketch="http://www.bohemiancoding.com/sketch/ns">
    <title>listen-privately</title>
    <description>Created with Sketch (http://www.bohemiancoding.com/sketch)</description>
    <defs>
        <linearGradient x1="50%" y1="0%" x2="50%" y2="173.920641%" id="linearGradient-1">
            <stop stop-color="rgb(123,125,121)" offset="0%"></stop>
            <stop stop-color="rgb(0,0,0)" offset="100%"></stop>
        </linearGradient>
    </defs>
    <g id="Page 1" fill="rgb(215,215,215)" fill-rule="evenodd">
        <path d="M50.7289989,30.4819991 C51.1209972,31.3599288 51.3420055,32.2979171 51.3430008,33.2760004 C51.3430008,38.0870001 46.2030009,41.999 39.8850006,41.999 C33.5670003,41.999 28.4270004,38.0870003 28.4270004,33.2760004 C28.4270004,32.9850004 28.4490004,32.6970004 28.4860004,32.4110004 C28.0190004,32.3640004 27.5500004,32.3370004 27.0780004,32.3370004 C26.3320004,32.3370004 25.5920004,32.4040004 24.8650004,32.5230004 C24.8940004,32.7730004 24.9160004,33.0230004 24.9160004,33.2770004 C24.9160004,38.0880001 19.7750001,42 13.4580002,42 C7.13999987,42 2,38.0880003 2,33.2770004 C2,32.2930003 2.22500002,31.3490003 2.62300003,30.4660003 C2.65200002,30.3830003 2.68200002,30.3010003 2.72500002,30.2240003 L2.84700003,30.0000003 C2.88200003,29.9330003 2.91700003,29.8660003 2.95500003,29.8020003 L12.035,13.1749995 C12.3059999,12.6829994 14.7649997,8.39999941 18.4319998,8.39999941 L18.4769998,8.39999941 C20.7439995,8.42299965 22.7339996,10.0359996 24.3939996,13.1999996 C24.8099997,13.9919997 24.5039996,14.9719996 23.7119996,15.3869996 C22.9199997,15.8029997 21.9399997,15.4979996 21.5239997,14.7049997 C20.4929998,12.7409998 19.3999997,11.6529998 18.4479997,11.6409998 L18.4319997,11.6409998 C17.0439997,11.6409998 15.4359996,13.7229997 14.8739996,14.7369997 L9.15899944,25.1989996 C10.4879994,24.7859996 11.9349993,24.5569996 13.4559994,24.5569996 C17.9599996,24.5569996 21.8549994,26.5489995 23.7249994,29.4339994 C24.8209994,29.2129994 25.9439994,29.0959994 27.0769994,29.0959994 C27.9589993,29.0959994 28.8349993,29.1699995 29.6969993,29.3069994 C31.5999992,26.4889995 35.4469988,24.5569994 39.884999,24.5569994 C41.4169991,24.5569994 42.8779991,24.7889994 44.213999,25.2069994 L38.4339988,14.6249996 C37.8739989,13.6189998 36.2679989,11.5349997 34.8799989,11.5349997 L34.8629989,11.5349997 C33.9119989,11.5469998 32.8189989,12.6359997 31.7879989,14.6009997 C31.3709989,15.3939997 30.3909989,15.6979997 29.5999989,15.2829997 C28.8069989,14.8659998 28.5019989,13.8879997 28.9179989,13.0949997 C30.5769993,9.93099958 32.5679993,8.31699954 34.8359992,8.29499954 C34.8499992,8.29399954 34.8649992,8.29399954 34.8799992,8.29399954 C38.5469992,8.29399954 41.0049991,12.5759993 41.2749991,13.0669993 L50.5879989,30.1159991 C50.6519989,30.2349991 50.6959989,30.3579991 50.7289989,30.4819991 Z M50.7289989,30.4819991" id="Shape" fill="url(#linearGradient-1)"></path>
    </g>
</svg>