<?xml version="1.0" encoding="UTF-8" standalone="no"?>
<svg width="50px" height="45px" version="1.1" xmlns="http://www.w3.org/2000/svg" xmlns:xlink="http://www.w3.org/1999/xlink" xmlns:sketch="http://www.bohemiancoding.com/sketch/ns">
    <title>process-stop</title>
    <description>Created with Sketch (http://www.bohemiancoding.com/sketch)</description>
    <defs>
        <radialGradient cx="50%" cy="50%" fx="50%" fy="50%" r="100%" id="radialGradient-1">
            <stop stop-color="rgb(158,63,51)" offset="0%"></stop>
            <stop stop-color="rgb(73,29,23)" offset="100%"></stop>
            <stop stop-color="rgb(0,0,0)" offset="100%"></stop>
        </radialGradient>
    </defs>
    <g id="Page 1" fill="rgb(215,215,215)" fill-rule="evenodd">
        <g id="process-stop" fill="rgb(0,0,0)">
            <g id="Page 1" fill="rgb(222,223,222)">
                <path d="M48.7402077,36.8689995 L29.342207,2.69300008 C28.3972073,1.02700007 26.6312084,0 24.717207,0 C22.8012085,0 21.0352077,1.02699995 20.0902081,2.69300008 L0.693208516,36.8689995 C-0.241791502,38.5149994 -0.229791477,40.5349998 0.7222085,42.1719971 C1.67420852,43.8069992 3.4262085,44.8149986 5.31920862,44.8149986 L44.1142082,44.8149986 C46.0082054,44.8149986 47.7582054,43.8069992 48.7112083,42.1719971 C49.6632423,40.5350151 49.6731911,38.514019 48.7402077,36.8689995 C48.7402077,36.8689995 49.6731911,38.514019 48.7402077,36.8689995 L48.7402077,36.8689995 M27.3662148,38.5350151 C26.7162151,39.1130142 25.9442158,39.4060135 25.0742149,39.4060135 C24.1932163,39.4060135 23.4142151,39.1170158 22.756216,38.5470161 C22.0842152,37.9630127 21.7422161,37.1450157 21.7422161,36.1150131 C21.7422161,35.2110138 22.0642147,34.431015 22.6992149,33.7980156 C23.3332157,33.1640129 24.119215,32.8420143 25.0352154,32.8420143 C25.9492149,32.8420143 26.7412148,33.162014 27.3892155,33.7950134 C28.0382156,34.4300156 28.3682156,35.2110138 28.3682156,36.1150131 C28.3672218,37.1299858 28.0302162,37.9429741 27.3662148,38.5350151 C27.3662148,38.5350151 28.0302162,37.9429741 27.3662148,38.5350151 L27.3662148,38.5350151 M28.2272072,16.5289726 L27.3822079,26.2069721 C27.2872086,27.411972 27.0832081,28.319973 26.7592087,28.9809723 C26.4022083,29.7099724 25.7792072,30.0969715 24.9562073,30.0969715 C24.1172085,30.0969715 23.4992085,29.7179718 23.1682072,29.0019722 C22.8742085,28.3639717 22.6722088,27.4389725 22.5492077,26.1699715 L21.9192085,16.7509727 C21.8002071,14.8899727 21.7412071,13.5909729 21.7412071,12.779973 C21.7412071,11.6079721 22.0602074,10.6729727 22.6892071,10.0009727 C23.3242073,9.3229723 24.1672077,8.97797298 25.1912079,8.97797298 C26.4552078,8.97797298 27.3192081,9.43697262 27.7612076,10.3409729 C28.1672077,11.1749725 28.3652077,12.326973 28.3652077,13.8619728 C28.3672218,14.7319746 28.3202248,15.6279707 28.2272072,16.5289726 C28.2272072,16.5289726 28.3202248,15.6279707 28.2272072,16.5289726 L28.2272072,16.5289726" id="Shape" fill="url(#radialGradient-1)"></path>
            </g>
        </g>
    </g>
</svg>