<?xml version="1.0" encoding="UTF-8" standalone="no"?>
<svg width="50px" height="45px" version="1.1" xmlns="http://www.w3.org/2000/svg" xmlns:xlink="http://www.w3.org/1999/xlink" xmlns:sketch="http://www.bohemiancoding.com/sketch/ns">
    <title>process-stop</title>
    <description>Created with Sketch (http://www.bohemiancoding.com/sketch)</description>
    <defs></defs>
    <g id="Page 1" fill="rgb(223,223,223)" fill-rule="evenodd">
        <path d="M48.7402084,36.8689988 L29.3422077,2.69300008 C28.3972077,1.02700007 26.6312078,0 24.7172077,0 C22.8012077,0 21.0352078,1.02699995 20.0902079,2.69300008 L0.693208507,36.8689988 C-0.241791495,38.5149988 -0.229791471,40.5349987 0.722208506,42.1719987 C1.67420853,43.8069987 3.4262085,44.8149986 5.31920863,44.8149986 L44.1142068,44.8149986 C46.0082069,44.8149986 47.7582069,43.8069986 48.7112069,42.1719987 C49.6632431,40.5350144 49.6731918,38.5140183 48.7402084,36.8689988 C48.7402084,36.8689988 49.6731918,38.5140183 48.7402084,36.8689988 L48.7402084,36.8689988 M27.3662155,38.5350144 C26.7162155,39.1130144 25.9442155,39.4060144 25.0742155,39.4060144 C24.1932155,39.4060144 23.4142155,39.1170144 22.7562154,38.5470144 C22.0842154,37.9630144 21.7422153,37.1450144 21.7422153,36.1150144 C21.7422153,35.2110144 22.0642153,34.4310144 22.6992153,33.7980145 C23.3332153,33.1640145 24.1192153,32.8420146 25.0352153,32.8420146 C25.9492153,32.8420146 26.7412153,33.1620145 27.3892154,33.7950146 C28.0382154,34.4300146 28.3682154,35.2110146 28.3682154,36.1150145 C28.3672226,37.1299851 28.030217,37.9429734 27.3662155,38.5350144 C27.3662155,38.5350144 28.030217,37.9429734 27.3662155,38.5350144 L27.3662155,38.5350144 M28.227208,16.5289719 L27.3822079,26.2069724 C27.2872079,27.4119724 27.0832079,28.3199723 26.7592079,28.9809723 C26.4022079,29.7099723 25.7792079,30.0969723 24.9562079,30.0969723 C24.1172079,30.0969723 23.4992079,29.7179723 23.1682079,29.0019723 C22.8742079,28.3639723 22.6722079,27.4389724 22.5492079,26.1699723 L21.9192079,16.7509726 C21.8002079,14.8899727 21.7412079,13.5909725 21.7412079,12.7799727 C21.7412079,11.6079726 22.0602079,10.6729726 22.6892079,10.0009726 C23.3242079,9.32297266 24.167208,8.97797263 25.191208,8.97797263 C26.4552081,8.97797263 27.319208,9.43697262 27.761208,10.3409727 C28.1672079,11.1749727 28.3652079,12.3269726 28.3652079,13.8619726 C28.3672226,14.7319748 28.3202255,15.6279709 28.227208,16.5289719 C28.227208,16.5289719 28.3202255,15.6279709 28.227208,16.5289719 L28.227208,16.5289719" id="Shape" fill="rgb(172,51,39)"></path>
    </g>
</svg>