<?xml version="1.0" encoding="UTF-8" standalone="no"?>
<svg width="105px" height="105px" version="1.1" xmlns="http://www.w3.org/2000/svg" xmlns:xlink="http://www.w3.org/1999/xlink" xmlns:sketch="http://www.bohemiancoding.com/sketch/ns">
    <title>recently-played</title>
    <description>Created with Sketch (http://www.bohemiancoding.com/sketch)</description>
    <defs>
        <radialGradient cx="50%" cy="50%" fx="50%" fy="50%" r="10.6786549%" id="radialGradient-1">
            <stop stop-color="rgb(254,255,254)" offset="0%"></stop>
            <stop stop-color="rgb(37,76,123)" offset="100%"></stop>
            <stop stop-color="rgb(0,0,0)" offset="100%"></stop>
        </radialGradient>
        <path d="M2.41603851,52.541996 C2.41603851,25.0439968 24.7920399,2.67199707 52.2900391,2.67199707 C79.7879639,2.67199707 102.157959,25.0419922 102.160038,52.541996 C102.160038,80.041996 79.7880402,102.415997 52.2900391,102.415997 C24.792038,102.415997 2.41603851,80.041996 2.41603851,52.541996 Z M53.0059547,50.5100098 L53.0059547,22.7240105 C53.0059547,21.0420104 51.6419548,19.6760104 49.9599547,19.6760104 C48.2779547,19.6760104 46.9119546,21.0440104 46.9119546,22.7240105 L46.9119546,54.5760098 C46.9119546,55.2180098 47.1139546,55.8140098 47.4539546,56.3040098 C48.1039546,57.6800098 49.4959547,58.6400098 51.1199545,58.6400098 L72.5279555,58.6400098 C74.7739555,58.6400098 76.5919556,56.8200097 76.5919556,54.5760096 C76.5919556,52.3320096 74.7740479,50.5100098 72.5279541,50.5100098 Z M53.0059547,50.5100098" id="path-2"></path>
    </defs>
    <g id="Page 1" fill="rgb(215,215,215)" fill-rule="evenodd">
        <g id="Group" fill="rgb(0,0,0)">
            <use id="Shape" stroke="rgb(254,255,254)" stroke-width="2" fill="url(#radialGradient-1)" xlink:href="#path-2"></use>
            <use id="Shape-1" stroke="none" fill="none" xlink:href="#path-2"></use>
        </g>
    </g>
</svg>