<?xml version="1.0" encoding="UTF-8" standalone="no"?>
<svg width="44px" height="44px" viewBox="0 0 44 44" version="1.1" xmlns="http://www.w3.org/2000/svg" xmlns:xlink="http://www.w3.org/1999/xlink" xmlns:sketch="http://www.bohemiancoding.com/sketch/ns">
    <title>refresh</title>
    <description>Created with Sketch (http://www.bohemiancoding.com/sketch)</description>
    <defs></defs>
    <g id="Page 1" stroke="none" stroke-width="1" fill="none" fill-rule="evenodd">
        <g id="refresh" transform="translate(0.000000, 1.000000)" fill="#FFFFFF">
            <g id="Page 1">
                <path d="M43.8927655,25.3359998 L37.0097656,15.8609994 C36.8167656,15.5939995 36.5067655,15.4359994 36.1767656,15.4359994 C35.8477656,15.4359994 35.5367656,15.5939994 35.3437656,15.8609994 L28.4607657,25.3349994 C28.2317657,25.6489994 28.2007657,26.0639994 28.3767657,26.4079994 C28.5517657,26.7539994 28.9057656,26.9699994 29.2937657,26.9699994 L33.1067656,26.9699994 C32.2747656,28.3759994 31.2177656,29.6569994 29.9327656,30.7409993 C26.9367655,33.2659994 23.1357657,34.4739993 19.2317654,34.1419993 C15.3277653,33.8089993 11.7867652,31.9769993 9.26076567,28.9809995 C6.73476612,25.9849997 5.52876555,22.1849995 5.86076557,18.2809997 C6.19276556,14.3759997 8.0247656,10.8349996 11.0207654,8.30899958 C14.0167652,5.78299955 17.8147656,4.57699946 21.7207652,4.90899948 C25.5477651,5.23499949 29.0417653,7.01299957 31.5577651,9.91299967 C32.4277651,10.9149996 33.9457651,11.0219996 34.9487652,10.1539997 C35.9507651,9.28399966 36.0577651,7.76599965 35.1887651,6.76399956 C31.8467651,2.91299949 27.2097651,0.552999593 22.1277653,0.118999578 C16.9457651,-0.319000416 11.900765,1.28299961 7.92276535,4.63499937 C3.94576536,7.98899946 1.51276551,12.6899997 1.07176552,17.8729993 C0.630765507,23.0569993 2.23276553,28.0999995 5.58676539,32.0769998 C8.94076524,36.054 13.6417657,38.4869996 18.8247653,38.929 C19.3877653,38.977 19.9497653,39 20.5087653,39 C25.0917655,39 29.4847652,37.402 33.0287658,34.414 C35.4547659,32.369 37.3017655,29.8200002 38.4777657,26.9689999 L43.0587655,26.9689999 C43.4467655,26.9689999 43.7997655,26.7519999 43.9757655,26.4069999 C44.15276,26.0630506 44.1197705,25.6489881 43.8927655,25.3359998 C43.8927655,25.3359998 44.1197705,25.6489881 43.8927655,25.3359998 L43.8927655,25.3359998" id="Shape"></path>
            </g>
        </g>
    </g>
</svg>