<?xml version="1.0" encoding="UTF-8" standalone="no"?>
<svg width="44px" height="39px" viewBox="0 0 44 39" version="1.1" xmlns="http://www.w3.org/2000/svg" xmlns:xlink="http://www.w3.org/1999/xlink" xmlns:sketch="http://www.bohemiancoding.com/sketch/ns">
    <title>refresh</title>
    <description>Created with Sketch (http://www.bohemiancoding.com/sketch)</description>
    <defs></defs>
    <g id="Page 1" fill="rgb(206,206,206)" fill-rule="evenodd">
        <path d="M42.8927655,25.3359998 L36.0097656,15.8609994 C35.8167656,15.5939995 35.5067655,15.4359994 35.1767656,15.4359994 C34.8477656,15.4359994 34.5367656,15.5939994 34.3437656,15.8609994 L27.4607657,25.3349994 C27.2317657,25.6489994 27.2007657,26.0639994 27.3767657,26.4079994 C27.5517657,26.7539994 27.9057656,26.9699994 28.2937657,26.9699994 L32.1067656,26.9699994 C31.2747656,28.3759994 30.2177656,29.6569994 28.9327656,30.7409993 C25.9367655,33.2659994 22.1357657,34.4739993 18.2317654,34.1419993 C14.3277653,33.8089993 10.7867652,31.9769993 8.26076567,28.9809995 C5.73476612,25.9849997 4.52876555,22.1849995 4.86076557,18.2809997 C5.19276556,14.3759997 7.0247656,10.8349996 10.0207654,8.30899958 C13.0167652,5.78299955 16.8147656,4.57699946 20.7207652,4.90899948 C24.5477651,5.23499949 28.0417653,7.01299957 30.5577651,9.91299967 C31.4277651,10.9149996 32.9457651,11.0219996 33.9487652,10.1539997 C34.9507651,9.28399966 35.0577651,7.76599965 34.1887651,6.76399956 C30.8467651,2.91299949 26.2097651,0.552999593 21.1277653,0.118999578 C15.9457651,-0.319000416 10.900765,1.28299961 6.92276535,4.63499937 C2.94576536,7.98899946 0.512765506,12.6899997 0.0717655213,17.8729993 C-0.369234493,23.0569993 1.23276553,28.0999995 4.58676539,32.0769998 C7.94076524,36.054 12.6417657,38.4869996 17.8247653,38.929 C18.3877653,38.977 18.9497653,39 19.5087653,39 C24.0917655,39 28.4847652,37.402 32.0287658,34.414 C34.4547659,32.369 36.3017655,29.8200002 37.4777657,26.9689999 L42.0587655,26.9689999 C42.4467655,26.9689999 42.7997655,26.7519999 42.9757655,26.4069999 C43.15276,26.0630506 43.1197705,25.6489881 42.8927655,25.3359998 C42.8927655,25.3359998 43.1197705,25.6489881 42.8927655,25.3359998 L42.8927655,25.3359998" id="Shape" fill="rgb(254,255,254)"></path>
    </g>
</svg>