<?xml version="1.0" encoding="UTF-8" standalone="no"?>
<svg width="73px" height="54px" version="1.1" xmlns="http://www.w3.org/2000/svg" xmlns:xlink="http://www.w3.org/1999/xlink" xmlns:sketch="http://www.bohemiancoding.com/sketch/ns">
    <title>repeat-off-rest</title>
    <description>Created with Sketch (http://www.bohemiancoding.com/sketch)</description>
    <defs></defs>
    <g id="Page 1" fill="rgb(215,215,215)" fill-rule="evenodd">
        <g id="Group" fill="rgb(81,91,21)">
            <path d="M34.6940002,18.3170166 L34.6940002,22.7480168 C34.6940002,23.1300168 34.9090002,23.4800168 35.2500002,23.6540169 C35.3956046,23.7283135 35.5550002,23.7650169 35.7130002,23.7650169 C35.9230002,23.7650169 36.1340002,23.6990169 36.3110002,23.5700169 L45.6810001,16.765017 C45.9450001,16.574017 46.1010001,16.267017 46.1010001,15.941017 C46.1010001,15.615017 45.9450001,15.308017 45.6810001,15.117017 L36.3110002,8.3120172 C36.0010002,8.08601721 35.5910002,8.05401722 35.2500002,8.2270172 C34.9074061,8.40082598 34.6940002,8.75101719 34.6940002,9.13401721 L34.6940002,13.5650174 L14.0710011,13.5650174 C8.26900101,13.5650174 3.55000114,18.2850172 3.55000114,24.0860173 L3.55000114,32.0150172 C3.55000114,33.3270173 4.61400115,34.3910172 5.92600107,34.3910172 C7.23800099,34.3910172 8.302001,33.3280172 8.302001,32.0150172 L8.302001,24.0860173 C8.302001,20.9050174 10.8900011,18.3170173 14.072001,18.3170173 L34.6940002,18.3170173 L34.6940002,18.3170173 L34.6940002,18.3170166" id="Shape" fill="rgb(77,78,77)"></path>
            <path d="M50.5130005,21.7110596 C49.2010005,21.7110596 48.1380005,22.7750596 48.1380005,24.0860596 L48.1380005,32.0150595 C48.1380005,35.1980596 45.5500004,37.7860594 42.3680005,37.7860594 L21.6460004,37.7860594 L21.6460004,33.3530593 C21.6460004,32.9710593 21.4300004,32.6210593 21.0900004,32.4460593 C20.7500004,32.2740593 20.3380004,32.3040593 20.0290004,32.5300593 L10.66,39.3360595 C10.395,39.5270595 10.239,39.8340595 10.239,40.1600595 C10.239,40.4850595 10.395,40.7920595 10.6589999,40.9830595 L20.0289998,47.7900597 C20.2069998,47.9190597 20.4159998,47.9840597 20.6269998,47.9840597 C20.7849998,47.9840597 20.9429998,47.9470597 21.0899998,47.8740597 C21.4299998,47.7000597 21.6459998,47.3490597 21.6459998,46.9660597 L21.6459998,42.5370598 L42.3679999,42.5370598 C48.1690001,42.5370598 52.8889998,37.8160596 52.8889998,32.0160599 L52.8889998,24.08706 C52.8890076,22.7750244 51.8250122,21.7110596 50.5130005,21.7110596 L50.5130005,21.7110596 L50.5130005,21.7110596" id="Shape" fill="rgb(77,78,77)"></path>
        </g>
    </g>
</svg>