<?xml version="1.0" encoding="UTF-8" standalone="no"?>
<svg width="17px" height="17px" viewBox="0 0 17 17" version="1.1" xmlns="http://www.w3.org/2000/svg" xmlns:xlink="http://www.w3.org/1999/xlink" xmlns:sketch="http://www.bohemiancoding.com/sketch/ns">
    <title>repeat</title>
    <description>Created with Sketch (http://www.bohemiancoding.com/sketch)</description>
    <defs></defs>
    <g id="Page-1" stroke="none" stroke-width="1" fill="none" fill-rule="evenodd" sketch:type="MSPage">
        <g id="repeat_no_a" sketch:type="MSLayerGroup" transform="translate(1.000000, 1.000000)" fill="#000000">
            <path d="M13.3,5.1 C13.6,5.8 13.8,6.5 13.8,7.3 C14,10.8 11.2,13.8 7.7,14 L7.4,14 C4,14 1.2,11.3 1.1,7.9 C0.9,4.4 3.6,1.4 7.2,1.2 L7.5,1.2 C9.2,1.2 10.7,1.8 11.8,2.9 L12.4,2.2 C11.1,1 9.3,0.2 7.4,0.2 L7.1,0.2 C3.1,0.5 1.77635684e-15,3.9 0.1,8 C0.3,11.9 3.5,15 7.4,15 L7.7,15 C11.7,14.8 14.8,11.4 14.7,7.4 C14.7,6.5 14.4,5.6 14.1,4.8 L13.3,5.1 L13.3,5.1 Z" id="Shape" sketch:type="MSShapeGroup"></path>
        </g>
    </g>
</svg>