<?xml version="1.0" encoding="UTF-8" standalone="no"?>
<svg width="15px" height="15px" viewBox="0 0 15 15" version="1.1" xmlns="http://www.w3.org/2000/svg" xmlns:xlink="http://www.w3.org/1999/xlink" xmlns:sketch="http://www.bohemiancoding.com/sketch/ns">
    <title>Slice 1</title>
    <description>Created with Sketch (http://www.bohemiancoding.com/sketch)</description>
    <defs></defs>
    <g id="Page-1" stroke="none" stroke-width="1" fill="none" fill-rule="evenodd" sketch:type="MSPage">
        <g id="repeat_one_a" sketch:type="MSLayerGroup" fill="#000000">
            <path d="M14.1,4.7 L13.3,5 C13.6,5.7 13.8,6.4 13.8,7.2 C14,10.7 11.2,13.7 7.7,13.9 L7.4,13.9 C4,14 1.2,11.3 1.1,7.9 C0.9,4.4 3.6,1.4 7.2,1.2 L7.5,1.2 C8.7,1.2 9.9,1.6 10.9,2.2 L10.2,2.3 L10.3,3.2 L12.6,2.8 L12.2,0.5 L11.3,0.6 L11.4,1.4 C10.2,0.6 8.9,0.2 7.4,0.2 L7.1,0.2 C3.1,0.5 1.77635684e-15,3.9 0.1,8 C0.3,11.9 3.5,15 7.4,15 L7.7,15 C11.7,14.8 14.8,11.4 14.7,7.4 C14.7,6.4 14.5,5.5 14.1,4.7 L14.1,4.7 Z" id="Shape" sketch:type="MSShapeGroup"></path>
        </g>
    </g>
</svg>