<?xml version="1.0" encoding="UTF-8" standalone="no"?>
<svg width="80px" height="80px" viewBox="0 0 80 80" version="1.1" xmlns="http://www.w3.org/2000/svg" xmlns:xlink="http://www.w3.org/1999/xlink" xmlns:sketch="http://www.bohemiancoding.com/sketch/ns">
    <title>resolver-default</title>
    <description>Created with Sketch (http://www.bohemiancoding.com/sketch)</description>
    <defs></defs>
    <g id="Page 1" fill="rgb(215,215,215)" fill-rule="evenodd">
        <path d="M8.00005106,0 C3.58174486,0 0,3.5797863 0,8.00005106 L0,71.9999489 C0,76.4182551 3.5797863,80 8.00005106,80 L71.9999489,80 C76.4182551,80 80,76.4202137 80,71.9999489 L80,8.00005106 C80,3.58174486 76.4202137,0 71.9999489,0 L8.00005106,0 Z M8.00005106,0" id="Rectangle 1" fill="rgb(81,82,81)"></path>
        <g id="Group" fill="rgb(0,0,0)">
            <path d="M56.2101428,27.8563929 C55.7689628,27.8563929 55.3289228,27.8796168 54.8900228,27.9238529 C53.4342429,23.2989673 49.0030628,20.0122247 43.8616631,20.0122247 C43.2631631,20.0122247 42.4321031,20.0597785 41.6865431,20.1504625 C38.7567432,17.745124 35.6753234,16.6193149 32.0569636,16.6193149 C24.3482835,16.6193149 18.0817038,21.9940025 16.8083231,29.5362596 C13.4430432,31.5578499 11.2439831,34.979513 11.2439831,38.3160219 C11.2439831,44.0833051 16.1836033,48.7745443 22.2529626,48.7745443 L32.8333028,48.7745443 L32.8333028,45.0056276 L22.2529626,45.0056276 C17.8525627,45.0056276 15.1279626,41.5330928 15.1279626,38.3160219 C15.1279626,36.1020045 16.9200426,33.6657008 19.4873225,32.3939125 L20.4244025,31.9272216 L20.5338425,30.9142146 C21.1973225,24.8129488 26.0434627,20.3860197 32.0558229,20.3860197 C34.971943,20.3860197 37.3511229,21.3581082 39.7690627,23.5378425 L40.5283027,24.2246081 L41.5394827,23.9912626 C42.0581827,23.8707192 43.1936227,23.7811411 43.8616626,23.7811411 C47.7331025,23.7811411 50.9992028,26.5934518 51.4563429,30.3203443 L51.7208228,32.4713253 L53.8811228,31.9183739 C54.6358028,31.7248409 55.4201229,31.6253097 56.2101428,31.6253097 C60.2981828,31.6253097 63.8834827,34.7516967 63.8834827,38.3160217 C63.8834827,41.8803467 60.2970428,45.0056274 56.2101428,45.0056274 L45.3847025,45.0056274 L45.3847025,48.774544 L56.2101428,48.774544 C62.4755826,48.774544 67.7686027,43.9859851 67.7686027,38.3160217 C67.7685767,32.6471645 62.4755505,27.8563929 56.2101428,27.8563929 L56.2101428,27.8563929 L56.2101428,27.8563929" id="Shape" fill="rgb(254,255,254)"></path>
            <path d="M47.3030777,49.937952 C47.9471777,49.937952 48.4692977,49.3296422 48.4692977,48.5789053 C48.4692977,48.2075302 48.3427577,47.8720946 48.1352777,47.6258422 L40.4414176,35.25732 C40.2225376,34.9032491 39.8714176,34.6969296 39.4986376,34.6969296 C39.1258576,34.6969296 38.7747376,34.9032491 38.5558576,35.25732 L30.7662374,47.7789177 C30.5085974,48.1915568 30.4709774,48.7399674 30.6704774,49.1965326 C30.8688374,49.6517666 31.2689774,49.9379517 31.7078774,49.9379517 L36.4662372,49.9379517 L36.4662372,65.4931123 C36.4662372,66.2438491 36.9872172,66.852159 37.6301772,66.852159 L41.3659571,66.852159 C42.0077772,66.852159 42.5298972,66.2438492 42.5298972,65.4931123 L42.5298972,49.9379517 L47.287117,49.9379517 C47.2939627,49.937952 47.298555,49.937952 47.3030777,49.937952 C47.3030777,49.937952 47.298555,49.937952 47.3030777,49.937952 L47.3030777,49.937952" id="Shape" fill="rgb(254,255,254)" transform="translate(39.506293, 50.774544) scale(1, -1) translate(-39.506293, -50.774544)"></path>
        </g>
    </g>
</svg>