<?xml version="1.0" encoding="UTF-8" standalone="no"?>
<!-- Created with Inkscape (http://www.inkscape.org/) -->

<svg
   xmlns:dc="http://purl.org/dc/elements/1.1/"
   xmlns:cc="http://creativecommons.org/ns#"
   xmlns:rdf="http://www.w3.org/1999/02/22-rdf-syntax-ns#"
   xmlns:svg="http://www.w3.org/2000/svg"
   xmlns="http://www.w3.org/2000/svg"
   xmlns:sodipodi="http://sodipodi.sourceforge.net/DTD/sodipodi-0.dtd"
   xmlns:inkscape="http://www.inkscape.org/namespaces/inkscape"
   id="svg2"
   version="1.1"
   inkscape:version="0.48.2 r9819"
   width="100"
   height="100"
   xml:space="preserve"
   sodipodi:docname="resolver-default.pdf"><metadata
     id="metadata8"><rdf:RDF><cc:Work
         rdf:about=""><dc:format>image/svg+xml</dc:format><dc:type
           rdf:resource="http://purl.org/dc/dcmitype/StillImage" /><dc:title></dc:title></cc:Work></rdf:RDF></metadata><defs
     id="defs6" /><sodipodi:namedview
     pagecolor="#ffffff"
     bordercolor="#666666"
     borderopacity="1"
     objecttolerance="10"
     gridtolerance="10"
     guidetolerance="10"
     inkscape:pageopacity="0"
     inkscape:pageshadow="2"
     inkscape:window-width="640"
     inkscape:window-height="480"
     id="namedview4"
     showgrid="false"
     inkscape:zoom="2.87625"
     inkscape:cx="50"
     inkscape:cy="50"
     inkscape:window-x="0"
     inkscape:window-y="0"
     inkscape:window-maximized="0"
     inkscape:current-layer="g10" /><g
     id="g10"
     inkscape:groupmode="layer"
     inkscape:label="resolver-default"
     transform="matrix(1.25,0,0,-1.25,0,100)"><g
       id="g12" /><g
       id="g14"><path
         d="M 8.000051,80 C 3.581745,80 0,76.42021 0,71.99995 L 0,8.000051 C 0,3.581745 3.579786,0 8.000051,0 L 71.99995,0 C 76.41826,0 80,3.579786 80,8.000051 L 80,71.99995 C 80,76.41826 76.42021,80 71.99995,80 L 8.000051,80 z"
         style="fill:#656565;fill-opacity:1;fill-rule:evenodd;stroke:none"
         id="path16" /><path
         d="m 56.21014,52.14361 c -0.44118,0 -0.88122,-0.02323 -1.32012,-0.06746 -1.45578,4.62488 -5.88696,7.91163 -11.02836,7.91163 -0.5985,0 -1.42956,-0.04756 -2.17512,-0.13824 -2.9298,2.40534 -6.01122,3.53115 -9.62958,3.53115 -7.70868,0 -13.97526,-5.37469 -15.24864,-12.91695 -3.36528,-2.02159 -5.56434,-5.44325 -5.56434,-8.77976 0,-5.76729 4.93962,-10.45852 11.00898,-10.45852 l 10.58034,0 0,3.76891 -10.58034,0 c -4.4004,0 -7.125,3.47254 -7.125,6.68961 0,2.21402 1.79208,4.65032 4.35936,5.92211 l 0.93708,0.46669 0.10944,1.01301 c 0.66348,6.10126 5.50962,10.52819 11.52198,10.52819 2.91612,0 5.2953,-0.97209 7.71324,-3.15182 l 0.75924,-0.68677 1.01118,0.23335 c 0.5187,0.12054 1.65414,0.21012 2.32218,0.21012 3.87144,0 7.13754,-2.81231 7.59468,-6.5392 l 0.26448,-2.15099 2.1603,0.55296 c 0.75468,0.19353 1.539,0.29306 2.32902,0.29306 4.08804,0 7.67334,-3.12639 7.67334,-6.69071 0,-3.56433 -3.58644,-6.68961 -7.67334,-6.68961 l -10.82544,0 0,-3.76891 10.82544,0 c 6.26544,0 11.55846,4.78855 11.55846,10.45852 -2e-5,5.66886 -5.29305,10.45963 -11.55846,10.45963 l 0,0 0,0"
         style="fill:#ffffff;fill-opacity:1;fill-rule:evenodd;stroke:none"
         id="path18" /><path
         d="m 47.30308,28.38886 c 0.6441,0 1.16622,-0.60831 1.16622,-1.35904 0,-0.37138 -0.12654,-0.70681 -0.33402,-0.95307 L 40.44142,13.70823 c -0.21888,-0.35407 -0.57,-0.56039 -0.94278,-0.56039 -0.37278,0 -0.7239,0.20632 -0.94278,0.56039 l -7.78962,12.5216 c -0.25764,0.41264 -0.29526,0.96105 -0.09576,1.41761 0.19836,0.45524 0.5985,0.74142 1.0374,0.74142 l 4.75836,0 0,15.55516 c 0,0.75074 0.52098,1.35905 1.16394,1.35905 l 3.73578,0 c 0.64182,0 1.16394,-0.60831 1.16394,-1.35905 l 0,-15.55516 4.75722,0 c 0.0068,0 0.01144,0 0.01596,0 0,0 -0.0045,0 0,0 l 0,0"
         style="fill:#ffffff;fill-opacity:1;fill-rule:evenodd;stroke:none"
         id="path20" /></g></g></svg>