<?xml version="1.0" encoding="UTF-8" standalone="no"?>
<svg width="51px" height="51px" version="1.1" xmlns="http://www.w3.org/2000/svg" xmlns:xlink="http://www.w3.org/1999/xlink" xmlns:sketch="http://www.bohemiancoding.com/sketch/ns">
    <title>resolvers-settings</title>
    <description>Created with Sketch (http://www.bohemiancoding.com/sketch)</description>
    <defs></defs>
    <g id="Page 1" fill="rgb(223,223,223)" fill-rule="evenodd">
        <g id="Group" fill="rgb(0,0,0)">
            <path d="M30.7369995,38.2019958 L30.7369995,37.8139958 L31.5539995,36.9979959 L30.1959994,35.4479959 C28.3459994,36.3969959 26.2559994,36.9409959 24.0399993,36.9409959 C16.5589994,36.9409959 10.4739993,30.8559959 10.4739993,23.3769958 C10.4739993,15.8959959 16.5589994,9.81099582 24.0399993,9.81099582 C31.5199993,9.81099582 37.6059993,15.8959959 37.6059993,23.3769958 C37.6059993,27.0799959 36.1109993,30.4389956 33.6939994,32.8919961 L34.7809994,34.3919961 L35.5209994,33.6529961 L36.2579994,33.6529961 L43.0589995,42.7109957 C47.5029992,38.2059956 50.2519993,32.022996 50.2519993,25.194995 C50.2519993,11.4169951 39.0819992,0.244994223 25.3019986,0.244994223 C11.5219979,0.244994223 0.350998342,11.4159938 0.350998342,25.194995 C0.350998342,38.9729949 11.5219979,50.1439944 25.3019986,50.1439944 C29.8009986,50.1439944 34.0089983,48.9359944 37.6529984,46.8529945 C34.5770035,43.026001 30.7369995,38.2019958 30.7369995,38.2019958 L30.7369995,38.2019958 L30.7369995,38.2019958" id="Shape" fill="rgb(92,92,92)"></path>
            <path d="M15.2649994,23.3769989 C15.2649994,28.2149987 19.2019994,32.1499987 24.039999,32.1499987 C28.8789992,32.1499987 32.8149986,28.2149987 32.8149986,23.3769989 C32.8149986,18.5379987 28.8789985,14.6009989 24.039999,14.6009989 C19.2020035,14.602005 15.2649994,18.5379944 15.2649994,23.3769989 C15.2649994,23.3769989 15.2649994,18.5379944 15.2649994,23.3769989 L15.2649994,23.3769989" id="Shape" fill="rgb(71,71,71)"></path>
        </g>
    </g>
</svg>