<?xml version="1.0" encoding="UTF-8" standalone="no"?>
<svg width="60px" height="60px" viewBox="0 0 60 60" version="1.1" xmlns="http://www.w3.org/2000/svg" xmlns:xlink="http://www.w3.org/1999/xlink" xmlns:sketch="http://www.bohemiancoding.com/sketch/ns">
    <title>Slice 1</title>
    <description>Created with Sketch (http://www.bohemiancoding.com/sketch)</description>
    <defs></defs>
    <g id="Page-1" stroke="none" stroke-width="1" fill="none" fill-rule="evenodd" sketch:type="MSPage">
        <g id="icon_Search" sketch:type="MSLayerGroup">
            <g id="Layer_2"></g>
            <g id="Layer_3"></g>
            <g id="Layer_4"></g>
            <g id="Layer_5"></g>
            <g id="Layer_6"></g>
            <g id="Layer_8"></g>
            <g id="Layer_9"></g>
            <g id="Layer_10"></g>
            <g id="Layer_11"></g>
            <g id="Layer_12"></g>
            <g id="Layer_13"></g>
            <g id="Layer_14"></g>
            <g id="Layer_15"></g>
            <g id="Layer_16"></g>
            <g id="Layer_17"></g>
            <g id="Layer_18"></g>
            <g id="Layer_19"></g>
            <g id="Layer_20"></g>
            <g id="Layer_21"></g>
            <g id="Layer_24"></g>
            <g id="Layer_25"></g>
            <g id="Layer_26"></g>
            <g id="Layer_27"></g>
            <g id="Layer_28"></g>
            <g id="Layer_29"></g>
            <g id="Layer_47"></g>
            <g id="Layer_30"></g>
            <g id="Layer_31" fill="#000000" sketch:type="MSShapeGroup">
                <g id="Group">
                    <path d="M58,48.9230769 L58,48.9230769 L47.5,39.2307692 C47.5,42 46.5,44.7692308 44.5,47.0769231 L52.5,54.4615385 C53,55.3846154 54,55.8461538 55.5,55.8461538 C57.5,55.8461538 59.5,54 59.5,52.1538462 C59.5,50.7692308 59,49.8461538 58,48.9230769 L58,48.9230769 Z" id="Shape"></path>
                    <path d="M25.5,0 C11.5,0 0,10.6153846 0,24 C0,37.3846154 11.5,48 25.5,48 C39.5,48 51,37.3846154 51,24 C51.5,10.6153846 40,0 25.5,0 L25.5,0 Z M25.5,40.6153846 C15.5,40.6153846 7.5,33.2307692 7.5,24 C7.5,14.7692308 15.5,7.38461538 25.5,7.38461538 C35.5,7.38461538 43.5,14.7692308 43.5,24 C43.5,33.2307692 35.5,40.6153846 25.5,40.6153846 L25.5,40.6153846 Z" id="Shape"></path>
                </g>
            </g>
            <g id="Layer_32"></g>
            <g id="Layer_33"></g>
            <g id="Layer_34"></g>
            <g id="Layer_35"></g>
            <g id="Layer_36"></g>
            <g id="Layer_37"></g>
            <g id="Layer_38"></g>
            <g id="Layer_39"></g>
            <g id="Layer_40"></g>
            <g id="Layer_41"></g>
            <g id="Layer_42"></g>
            <g id="Layer_43"></g>
            <g id="Layer_44"></g>
            <g id="Layer_45"></g>
            <g id="Layer_46"></g>
            <g id="Layer_48"></g>
            <g id="Layer_49"></g>
            <g id="Layer_51"></g>
            <g id="Layer_52"></g>
            <g id="Layer_53"></g>
            <g id="Layer_54"></g>
            <g id="Layer_55"></g>
            <g id="Layer_56"></g>
            <g id="Layer_57"></g>
            <g id="Layer_58"></g>
            <g id="Layer_59"></g>
            <g id="Layer_60"></g>
            <g id="Layer_61"></g>
            <g id="Layer_62"></g>
            <g id="Layer_63"></g>
            <g id="Layer_64"></g>
            <g id="Layer_65"></g>
            <g id="Layer_66"></g>
            <g id="Layer_50"></g>
        </g>
    </g>
</svg>