<?xml version="1.0" encoding="UTF-8" standalone="no"?>
<svg width="50px" height="50px" version="1.1" xmlns="http://www.w3.org/2000/svg" xmlns:xlink="http://www.w3.org/1999/xlink" xmlns:sketch="http://www.bohemiancoding.com/sketch/ns">
    <title>search-icon</title>
    <description>Created with Sketch (http://www.bohemiancoding.com/sketch)</description>
    <defs></defs>
    <g id="Page 1" fill="rgb(215,215,215)" fill-rule="evenodd">
        <path d="M43.5068816,43.0943684 L32.314124,28.1858003 L31.5054434,28.1858003 L30.6926421,28.9975714 L29.4986793,27.3482751 C32.1523878,24.6585106 33.7944732,20.9684548 33.7944732,16.8972366 C33.7944732,8.68371993 27.1117838,2 18.8972366,2 C10.6826898,2 4,8.68371944 4,16.8972366 C4,25.1128134 10.6826893,31.7955028 18.8972366,31.7955028 C21.3304896,31.7955028 23.6246704,31.1959459 25.6571882,30.1585684 L27.147839,31.8573128 L26.2505641,32.7566481 L26.2505641,33.183137 C26.2505641,33.183137 37.2712841,47.0223923 37.9553151,47.7053927 C38.6383154,48.3904534 40.1753236,48.1329117 40.1753236,48.1329117 C40.1753236,48.1329117 42.3973926,46.8503546 43.5068817,45.7408653 C44.616398,44.6303437 43.5068816,43.0943684 43.5068816,43.0943684 L43.5068816,43.0943684 L43.5068816,43.0943684 M9.26108,16.897229 C9.26108,11.586721 13.5836583,7.26208307 18.8962259,7.26208307 C24.2098241,7.26208307 28.5313718,11.5856914 28.5313718,16.897229 C28.5313718,22.2118573 24.2098236,26.5334055 18.8962259,26.5334055 C13.5836416,26.5344468 9.26108,22.2128913 9.26108,16.897229 C9.26108,16.897229 9.26108,22.2128913 9.26108,16.897229 L9.26108,16.897229" id="Shape" fill="rgb(111,111,111)"></path>
    </g>
</svg>