<?xml version="1.0" encoding="UTF-8" standalone="no"?>
<svg width="61px" height="61px" viewBox="0 0 61 61" version="1.1" xmlns="http://www.w3.org/2000/svg" xmlns:xlink="http://www.w3.org/1999/xlink" xmlns:sketch="http://www.bohemiancoding.com/sketch/ns">
    <title>Slice 1</title>
    <description>Created with Sketch (http://www.bohemiancoding.com/sketch)</description>
    <defs></defs>
    <g id="Page-1" stroke="none" stroke-width="1" fill="none" fill-rule="evenodd" sketch:type="MSPage">
        <g id="search-icon" sketch:type="MSLayerGroup" transform="translate(4.000000, 1.000000)" fill="#000000">
            <g id="Page-1" sketch:type="MSShapeGroup">
                <g id="search-icon">
                    <g id="Page-1">
                        <g id="search-icon">
                            <g id="Page-1">
                                <path d="M52.3466183,52.7079938 L37.5162158,33.5861356 L36.4447128,33.5861356 L35.3677509,34.6273205 L33.7857511,32.5119169 C37.3019161,29.0620022 39.477675,24.3291046 39.477675,19.1073243 C39.477675,8.57259693 30.6231138,0 19.7388376,0 C8.85456385,0 0,8.57259693 0,19.1073243 C0,29.6446961 8.85456385,38.215972 19.7388376,38.215972 C22.9628994,38.215972 26.0026877,37.4469738 28.6957746,36.1164259 L30.6708861,38.2952496 L29.4819981,39.4487455 L29.4819981,39.9957614 C29.4819981,39.9957614 44.0844489,57.7461118 44.9907918,58.6221318 C45.8957702,59.5007988 47.9323036,59.1704737 47.9323036,59.1704737 C47.9323036,59.1704737 50.8765448,57.525453 52.3466183,56.1024123 C53.8167272,54.6780504 52.3466183,52.7079938 52.3466183,52.7079938 L52.3466183,52.7079938 M6.97093073,19.1073144 C6.97093073,12.2960122 12.6983471,6.74919348 19.7374981,6.74919348 C26.7780163,6.74919348 32.504068,12.2946913 32.504068,19.1073144 C32.504068,25.9239033 26.7780163,31.466759 19.7374981,31.466759 C12.6983256,31.4680947 6.97093073,25.9252292 6.97093073,19.1073144 C6.97093073,19.1073144 6.97093073,25.9252292 6.97093073,19.1073144 L6.97093073,19.1073144" id="Shape"></path>
                            </g>
                        </g>
                    </g>
                </g>
            </g>
        </g>
    </g>
</svg>