<?xml version="1.0" encoding="UTF-8" standalone="no"?>
<svg width="82px" height="82px" version="1.1" xmlns="http://www.w3.org/2000/svg" xmlns:xlink="http://www.w3.org/1999/xlink" xmlns:sketch="http://www.bohemiancoding.com/sketch/ns">
    <title>search-box-dismiss</title>
    <description>Created with Sketch (http://www.bohemiancoding.com/sketch)</description>
    <defs></defs>
    <g id="Page 1" fill="rgb(223,223,223)" fill-rule="evenodd">
        <path d="M41,71 C57.5685433,71 71,57.5685433 71,41 C71,24.4314567 57.5685433,11 41,11 C24.4314567,11 11,24.4314567 11,41 C11,57.5685433 24.4314567,71 41,71 Z M41,71" id="Oval 1" fill="rgb(152,152,152)"></path>
        <path d="M62.5728671,35.9948845 L46.7260666,35.9948845 L46.7260666,19.8649524 C46.7260666,18.4559492 45.554631,17.3119228 44.1151917,17.3119228 L38.8804739,17.3119228 C37.4496798,17.3119228 36.269599,18.4559494 36.269599,19.8649524 L36.269599,35.9948845 L20.4314432,35.9948845 C18.9790359,35.9948845 17.8119228,37.134705 17.8119228,38.5437082 L17.8119228,43.304877 C17.8119228,44.7138802 18.9833585,45.8537007 20.4314432,45.8537007 L36.269599,45.8537007 L36.269599,62.1434594 C36.269599,63.5482566 37.4496799,64.6880772 38.8804739,64.6880772 L44.1151917,64.6880772 C45.5589537,64.6880772 46.7260666,63.5482567 46.7260666,62.1434594 L46.7260666,45.8537007 L62.5728671,45.8537007 C64.0166291,45.8537007 65.1880649,44.7138802 65.1880649,43.304877 L65.1880649,38.5437082 C65.1924655,37.1305811 64.0166935,35.9948845 62.5728671,35.9948845 L62.5728671,35.9948845 L62.5728671,35.9948845" id="Shape" fill="rgb(254,254,254)" transform="translate(41.5, 41) rotate(-45) translate(-41.5, -41)"></path>
    </g>
</svg>