<?xml version="1.0" encoding="UTF-8" standalone="no"?>
<svg width="50px" height="50px" viewBox="0 0 50 50" version="1.1" xmlns="http://www.w3.org/2000/svg" xmlns:xlink="http://www.w3.org/1999/xlink" xmlns:sketch="http://www.bohemiancoding.com/sketch/ns">
    <title>search-icon</title>
    <description>Created with Sketch (http://www.bohemiancoding.com/sketch)</description>
    <defs></defs>
    <g id="Page 1" fill="rgb(215,215,215)" fill-rule="evenodd">
        <g id="search-icon" fill="rgb(0,0,0)">
            <g id="Page 1" fill="rgb(214,215,214)">
                <path d="M44.5068817,43.094368 L33.3141251,28.1858006 L32.5054436,28.1858006 L31.6926422,28.9975719 L30.4986801,27.3482742 C33.1523895,24.6585102 34.7944717,20.9684544 34.7944717,16.8972359 C34.7944717,8.68371964 28.111784,2 19.8972359,2 C11.6826897,2 5,8.68371964 5,16.8972359 C5,25.1128139 11.6826897,31.7955036 19.8972359,31.7955036 C22.3304901,31.7955036 24.62467,31.1959457 26.6571884,30.1585693 L28.1478386,31.8573132 L27.2505646,32.756649 L27.2505646,33.183136 C27.2505646,33.183136 38.2712822,47.0223923 38.9553146,47.7053909 C39.6383171,48.3904533 41.1753235,48.1329117 41.1753235,48.1329117 C41.1753235,48.1329117 43.3973923,46.8503532 44.5068817,45.7408638 C45.6163979,44.6303444 44.5068817,43.094368 44.5068817,43.094368 L44.5068817,43.094368 M10.2610798,16.8972282 C10.2610798,11.5867214 14.5836582,7.26208305 19.896225,7.26208305 C25.2098236,7.26208305 29.5313721,11.5856915 29.5313721,16.8972282 C29.5313721,22.2118568 25.2098236,26.5334053 19.896225,26.5334053 C14.583642,26.5344467 10.2610798,22.2128906 10.2610798,16.8972282 C10.2610798,16.8972282 10.2610798,22.2128906 10.2610798,16.8972282 L10.2610798,16.8972282" id="Shape" fill="rgb(154,155,154)"></path>
            </g>
        </g>
    </g>
</svg>