<?xml version="1.0" encoding="UTF-8" standalone="no"?>
<svg width="64px" height="59px" version="1.1" xmlns="http://www.w3.org/2000/svg" xmlns:xlink="http://www.w3.org/1999/xlink" xmlns:sketch="http://www.bohemiancoding.com/sketch/ns">
    <title>share</title>
    <description>Created with Sketch (http://www.bohemiancoding.com/sketch)</description>
    <defs></defs>
    <g id="Page 1" fill="rgb(215,215,215)" fill-rule="evenodd">
        <path d="M63.1779187,13.6943139 C63.6923204,14.0447233 64.0023992,14.6044864 64,15.1978275 C63.9975962,15.792292 63.6923204,16.3486928 63.1779187,16.6979826 L47.9862402,29.1112044 C47.6160632,29.3619766 47.172572,29.4616138 46.7314845,29.444821 L46.7290807,29.444821 C46.5968747,29.4392234 46.4658705,29.4291478 46.3348663,29.3966817 C46.1906415,29.3675742 46.0476186,29.3250325 45.9118069,29.2601004 C45.2435653,28.9443962 44.8229097,28.3051511 44.8229097,27.6076909 L44.8241116,21.9037434 C32.5205355,22.6582988 23.5978286,27.5584324 23.5978286,33.5691282 C23.5978286,37.129198 26.6878449,40.5291762 32.0758425,42.8958388 C32.6287042,43.1410134 32.8803708,43.7450036 32.6455304,44.2717273 C32.4628457,44.6814711 32.0361807,44.9300043 31.5854782,44.9300043 C31.4568777,44.9300043 31.3258736,44.9109724 31.198475,44.8684307 C20.2361891,41.2120829 13.6919889,34.8957588 13.6919889,27.9760135 C13.6919889,18.2541132 26.7359192,9.97415277 44.7075303,8.28367956 C44.7471921,8.27920148 44.7820464,8.29487474 44.8229101,8.29487474 L44.824112,5.56548822 L44.824112,2.78572326 C44.824112,2.63011013 44.8517551,2.4778556 44.8926188,2.3334377 C44.9034356,2.29089598 44.91906,2.24835427 44.9298768,2.20917112 C44.9731443,2.09609974 45.023623,1.98750643 45.0849185,1.88451071 C45.1029466,1.85316419 45.1173691,1.82069815 45.1390028,1.79159066 C45.2171245,1.67851926 45.3048613,1.56880644 45.4070205,1.47364734 C45.4166355,1.46469119 45.4250486,1.46133264 45.4346636,1.45461552 C45.5740809,1.32810992 45.7339301,1.21727757 45.9118073,1.13219416 C46.5800489,0.815370358 47.3816983,0.874704852 47.9874425,1.28332918 Z M47.7713727,32.8702357 C48.7624031,32.8702357 49.5669714,33.7650576 49.5669724,34.8698186 L49.5669724,56.5004171 C49.5669724,57.6051781 48.7624041,58.5 47.7713737,58.5 L1.7955987,58.5 C0.803538101,58.5 1.42108547e-14,57.605178 1.42108547e-14,56.5004171 L1.42108547e-14,16.4995829 C1.42108547e-14,15.3971163 0.803538162,14.5 1.7955987,14.5 L12.4970778,14.5 C13.4891384,14.5 14.2926765,15.3971163 14.2926765,16.4995829 C14.2926765,17.6043438 13.4891384,18.4991657 12.4970778,18.4991657 L3.5901668,18.4991657 L3.5901668,54.5008343 L45.975774,54.5008343 L45.975774,34.8698186 C45.975774,33.7650576 46.7803424,32.8702357 47.7713727,32.8702357 Z M47.7713727,32.8702357" id="path900" fill="rgb(100,98,99)"></path>
    </g>
</svg>