<?xml version="1.0" encoding="UTF-8" standalone="no"?>
<svg width="70px" height="70px" version="1.1" xmlns="http://www.w3.org/2000/svg" xmlns:xlink="http://www.w3.org/1999/xlink" xmlns:sketch="http://www.bohemiancoding.com/sketch/ns">
    <title>share</title>
    <description>Created with Sketch (http://www.bohemiancoding.com/sketch)</description>
    <defs></defs>
    <g id="Page 1" fill="rgb(215,215,215)" fill-rule="evenodd">
        <path d="M68.7811056,18.171657 C69.3359288,18.5539219 69.6703734,19.1645725 69.6677856,19.8118538 C69.6651929,20.4603604 69.3359288,21.0673431 68.7811056,21.4483866 L52.3956746,34.9900831 C51.9964093,35.2636528 51.5180688,35.3723479 51.0423209,35.3540285 L51.0397283,35.3540285 C50.8971336,35.347922 50.7558352,35.3369304 50.6145367,35.3015129 C50.4589789,35.2697592 50.3047173,35.2233501 50.1582336,35.1525151 C49.437482,34.8081105 48.9837715,34.1107522 48.9837715,33.3498865 L48.9850679,27.1273983 C35.7146845,27.9505496 26.0908368,33.29615 26.0908368,39.8532727 C26.0908368,43.7369852 29.4236647,47.4460523 35.2350478,50.0278661 C35.831353,50.2953292 36.1027954,50.9542276 35.8495014,51.5288353 C35.6524614,51.9758286 35.1922693,52.2469556 34.7061509,52.2469556 C34.5674452,52.2469556 34.4261467,52.2261936 34.2887373,52.1797845 C22.4650418,48.1910414 15.4066025,41.300506 15.4066025,33.751693 C15.4066025,23.1459835 29.4755166,14.1132995 48.8593257,12.2691469 C48.9021041,12.2642617 48.9396973,12.2813598 48.983772,12.2813598 L48.9850683,9.30384723 L48.9850683,6.27137637 C48.9850683,6.10161659 49.0148836,5.93552074 49.0589583,5.77797393 C49.0706252,5.73156479 49.0874773,5.68515565 49.0991441,5.64241039 C49.1458115,5.51905979 49.2002567,5.40059437 49.2663688,5.2882354 C49.2858136,5.2540392 49.3013694,5.2186217 49.324703,5.18686808 C49.4089636,5.06351746 49.5035946,4.94383074 49.6137814,4.84002082 C49.624152,4.83025047 49.6332262,4.82658659 49.6435967,4.81925884 C49.7939694,4.68125272 49.9663793,4.56034471 50.1582341,4.46752643 C50.8789856,4.12190047 51.7436282,4.18662901 52.3969713,4.63240101 Z M57.514653,40.452782 C57.514653,39.2475882 58.5195455,38.2714189 59.7573259,38.2714189 C60.9951063,38.2714189 61.9999988,39.2475882 62,40.452782 L62,64.0497986 C62,65.2549924 60.9951076,66.2311618 59.7573271,66.2311618 L2.33434952,66.2311618 C1.09528235,66.2311618 0.0916766421,65.2549923 0.0916766421,64.0497986 L0.0916766421,20.4125249 C0.0916766421,19.2098341 1.09528243,18.2311618 2.33434952,18.2311618 L15.7003188,18.2311618 C16.939386,18.2311618 17.9429917,19.2098341 17.9429917,20.4125249 C17.9429917,21.6177187 16.9393859,22.593888 15.7003188,22.593888 L4.57573521,22.593888 L4.57573521,61.8684355 L35.0071039,61.8684355 L57.514653,61.8684355 Z M57.514653,40.452782" id="path900" fill="rgb(100,98,99)"></path>
    </g>
</svg>