<?xml version="1.0" encoding="UTF-8" standalone="no"?>
<svg width="55px" height="35px" version="1.1" xmlns="http://www.w3.org/2000/svg" xmlns:xlink="http://www.w3.org/1999/xlink" xmlns:sketch="http://www.bohemiancoding.com/sketch/ns">
    <title>share</title>
    <description>Created with Sketch (http://www.bohemiancoding.com/sketch)</description>
    <defs></defs>
    <g id="Page 1" fill="rgb(215,215,215)" fill-rule="evenodd">
        <path d="M53.4683713,8.57012309 C53.9125911,8.80107477 54.1803646,9.17000951 54.1782927,9.56107528 C54.1762169,9.95288139 53.9125911,10.3196001 53.4683713,10.5498139 L40.3493565,18.7312555 C40.0296843,18.8965372 39.6467004,18.9622071 39.2657923,18.9511392 L39.2637165,18.9511392 C39.1495479,18.9474498 39.0364172,18.9408091 38.9232864,18.919411 C38.7987388,18.9002265 38.6752291,18.8721876 38.5579468,18.8293915 C37.9808762,18.6213137 37.6176123,18.1999931 37.6176123,17.7403034 L37.6186502,13.9808835 C26.993702,14.478204 19.288357,17.7078376 19.288357,21.6694326 C19.288357,24.0158422 21.9567896,26.2567369 26.6096804,27.8165827 C27.0871129,27.978175 27.3044435,28.3762595 27.1016434,28.7234183 C26.9438831,28.9934767 26.5754297,29.1572827 26.1862185,29.1572827 C26.0751635,29.1572827 25.9620328,29.144739 25.8520157,29.1167001 C16.38536,26.7068345 10.7340122,22.5438027 10.7340122,17.9830615 C10.7340122,11.5754453 21.9983049,6.11819872 37.5179746,5.0040232 C37.5522252,5.00107174 37.5823242,5.01140184 37.6176127,5.01140184 L37.6186506,3.212488 L37.6186506,1.38037019 C37.6186506,1.27780699 37.6425222,1.17745741 37.6778107,1.08227288 C37.6871518,1.05423402 37.7006444,1.02619517 37.7099855,1.00036991 C37.7473498,0.92584559 37.7909414,0.854272728 37.8438742,0.786389185 C37.8594426,0.765728979 37.8718974,0.744330906 37.8905795,0.725146426 C37.9580428,0.650622095 38.0338093,0.578311368 38.1220305,0.515592876 C38.1303337,0.509689958 38.1375989,0.507476364 38.1459021,0.503049177 C38.2662982,0.419670485 38.4043384,0.346621891 38.5579471,0.290544184 C39.1350177,0.0817284989 39.8272948,0.120835325 40.3503948,0.390155907 Z M45.975774,19.0721546 C45.975774,18.3440167 46.7803424,17.7542477 47.7713727,17.7542477 C48.7624031,17.7542477 49.5669714,18.3440167 49.5669724,19.0721546 L49.5669724,33.3286855 C49.5669724,34.0568234 48.7624041,34.6465924 47.7713737,34.6465924 L1.7955987,34.6465924 C0.803538101,34.6465924 1.42108547e-14,34.0568233 1.42108547e-14,33.3286855 L1.42108547e-14,6.96449925 C1.42108547e-14,6.23787358 0.803538162,5.64659236 1.7955987,5.64659236 L12.4970778,5.64659236 C13.4891384,5.64659236 14.2926765,6.23787358 14.2926765,6.96449925 C14.2926765,7.69263716 13.4891384,8.28240613 12.4970778,8.28240613 L3.5901668,8.28240613 L3.5901668,32.0107786 L27.9550782,32.0107786 L45.975774,32.0107786 Z M45.975774,19.0721546" id="path900" fill="rgb(100,98,99)"></path>
    </g>
</svg>