<?xml version="1.0" encoding="UTF-8" standalone="no"?>
<svg width="61px" height="61px" version="1.1" xmlns="http://www.w3.org/2000/svg" xmlns:xlink="http://www.w3.org/1999/xlink" xmlns:sketch="http://www.bohemiancoding.com/sketch/ns">
    <title>share</title>
    <description>Created with Sketch (http://www.bohemiancoding.com/sketch)</description>
    <defs></defs>
    <g id="Page 1" fill="rgb(223,223,223)" fill-rule="evenodd">
        <g id="Group">
            <path d="M59.4674996,36.9688243 L43.6687497,51.6577749 C43.0387497,52.1413999 42.2049997,52.2116249 41.5099997,51.8366499 C41.3249997,51.7359499 41.1587497,51.6047749 41.0137497,51.4550499 C41.0037497,51.4470999 40.9949997,51.4431249 40.9849997,51.4325249 C40.8787497,51.3198999 40.7874997,51.1900499 40.7062497,51.0562249 C40.6837497,51.0217749 40.6687497,50.9833499 40.6499997,50.9462499 C40.5862497,50.8243499 40.5337497,50.6958249 40.4887497,50.5619999 C40.4774997,50.5156249 40.4612497,50.4652749 40.4499997,50.4149249 C40.4074997,50.2439999 40.3787497,50.0637999 40.3787497,49.8796249 L40.3787497,46.5896498 L40.3774997,43.3592999 C40.3349997,43.3592999 40.2987497,43.3778499 40.2574997,43.3725499 C21.5662496,41.3717999 8,31.5720997 8,20.0657997 C8,11.8759744 14.8062502,4.40032473 26.2075,0.0728749996 C26.34,0.0225250012 26.47625,0 26.61,0 C27.07875,0 27.5225,0.294150004 27.7125,0.779099999 C27.955,1.40317498 27.695,2.11734999 27.12,2.40752496 C21.5162503,5.20857507 18.3025001,9.23259999 18.3025001,13.4461004 C18.3025001,20.5600253 27.5824999,26.3595508 40.3787493,27.2526005 L40.3774993,20.5017258 C40.3774993,19.6762507 40.8149992,18.9196758 41.5099993,18.5460258 C41.6512493,18.4691758 41.7999993,18.4188258 41.9499993,18.3843758 C42.0862493,18.3459508 42.2224993,18.3340258 42.3599993,18.3274008 L42.3624993,18.3274008 C42.8212493,18.3075258 43.2824993,18.4254508 43.6674993,18.7222508 L59.4674996,33.4138492 C60.0024996,33.8272492 60.3199996,34.4857742 60.3224997,35.1893492 C60.3224997,35.8915992 60.0024996,36.5540992 59.4674996,36.9688243" id="path900" fill="rgb(120,117,118)"></path>
            <path d="M49.5507265,39.9262495 C48.522783,39.9262495 47.6882467,38.9512495 47.6882467,37.7474995 L47.6882467,16.3575001 L3.72389076,16.3575001 L3.72389076,55.585 L12.96256,55.585 C13.9915721,55.585 14.8250399,56.56 14.8250399,57.7637501 C14.8250399,58.9650001 13.9915722,59.9425001 12.96256,59.9425001 L1.86247987,59.9425001 C0.833467775,59.9425001 0,58.9650001 0,57.7637501 L0,14.17875 C0,12.975 0.833467711,12 1.86247987,12 L49.5507276,12 C50.5786711,12 51.4132074,12.975 51.4132074,14.17875 L51.4132074,37.7474995 C51.4132064,38.9512495 50.5786701,39.9262495 49.5507265,39.9262495" id="path904" fill="rgb(120,117,118)"></path>
        </g>
    </g>
</svg>