<?xml version="1.0" encoding="UTF-8" standalone="no"?>
<svg width="66px" height="66px" viewBox="0 0 66 66" version="1.1" xmlns="http://www.w3.org/2000/svg" xmlns:xlink="http://www.w3.org/1999/xlink" xmlns:sketch="http://www.bohemiancoding.com/sketch/ns">
    <title>share</title>
    <description>Created with Sketch (http://www.bohemiancoding.com/sketch)</description>
    <defs></defs>
    <g id="Page 1" fill="rgb(215,215,215)" fill-rule="evenodd">
        <path d="M65.8190173,18.0481792 C66.374568,18.4304441 66.7094512,19.0410947 66.70686,19.6883759 C66.704264,20.3368826 66.374568,20.9438653 65.8190173,21.3249088 L49.4120986,34.8666053 C49.0123098,35.140175 48.533342,35.2488701 48.0569702,35.2305507 L48.0543742,35.2305507 C47.9115924,35.2244442 47.7701087,35.2134525 47.628625,35.178035 C47.4728631,35.1462814 47.3183993,35.0998723 47.1717235,35.0290373 C46.4500268,34.6846327 45.9957213,33.9872743 45.9957213,33.2264087 L45.9970193,27.0039205 C32.7092333,27.8270718 23.0727651,33.1726722 23.0727651,39.7297949 C23.0727651,43.6135074 26.4099636,47.3225745 32.2289677,49.9043883 C32.8260549,50.1718514 33.0978532,50.8307498 32.8442271,51.4053575 C32.6469287,51.8523507 32.1861331,52.1234778 31.6993772,52.1234778 C31.5604896,52.1234778 31.4190058,52.1027158 31.2814162,52.0563067 C19.4422153,48.0675636 12.3745197,41.1770282 12.3745197,33.6282152 C12.3745197,23.0225057 26.4618835,13.9898216 45.8711122,12.1456691 C45.9139468,12.1407839 45.9515892,12.157882 45.9957217,12.157882 L45.9970198,9.18036941 L45.9970198,6.14789855 C45.9970198,5.97813877 46.0268741,5.81204292 46.0710066,5.65449612 C46.0826888,5.60808697 46.099563,5.56167784 46.1112451,5.51893258 C46.1579737,5.39558198 46.2124904,5.27711655 46.2786892,5.16475758 C46.2981594,5.13056138 46.3137356,5.09514388 46.3370999,5.06339026 C46.4214709,4.94003964 46.516226,4.82035292 46.6265574,4.716543 C46.6369415,4.70677266 46.6460276,4.70310878 46.6564117,4.69578102 C46.8069816,4.55777491 46.9796176,4.43686689 47.171724,4.34404862 C47.8934207,3.99842266 48.7591971,4.06315119 49.4133971,4.50892319 Z M57.4982799,35.2058264 C57.4982799,34.0006326 58.5044902,33.0244632 59.7438938,33.0244632 C60.9832975,33.0244632 61.9895077,34.0006326 61.9895089,35.2058264 L61.9895089,58.802843 C61.9895089,60.0080368 60.9832987,60.9842061 59.743895,60.9842061 L2.24561389,60.9842061 C1.00492182,60.9842061 0,60.0080367 0,58.802843 L0,15.1655692 C0,13.9628785 1.0049219,12.9842061 2.24561389,12.9842061 L15.6291111,12.9842061 C16.8698031,12.9842061 17.8747249,13.9628785 17.874725,15.1655692 C17.874725,16.370763 16.8698031,17.3469324 15.6291111,17.3469324 L4.48993889,17.3469324 L4.48993889,56.6214799 L34.9612148,56.6214799 L57.4982799,56.6214799 Z M57.4982799,35.2058264" id="path900" fill="rgb(100,98,99)"></path>
    </g>
</svg>