<?xml version="1.0" encoding="UTF-8" standalone="no"?>
<svg width="80px" height="80px" viewBox="0 0 80 80" version="1.1" xmlns="http://www.w3.org/2000/svg" xmlns:xlink="http://www.w3.org/1999/xlink" xmlns:sketch="http://www.bohemiancoding.com/sketch/ns">
    <title>share</title>
    <description>Created with Sketch (http://www.bohemiancoding.com/sketch)</description>
    <defs></defs>
    <g id="Page 1" fill="rgb(215,215,215)" fill-rule="evenodd">
        <path d="M74.7795072,20.9247014 C75.3350579,21.3069663 75.6699411,21.9176169 75.66735,22.5648981 C75.6647539,23.2134048 75.3350579,23.8203875 74.7795072,24.2014309 L58.3725886,37.7431275 C57.9727997,38.0166971 57.4938319,38.1253922 57.0174602,38.1070728 L57.0148641,38.1070728 C56.8720824,38.1009664 56.7305987,38.0899747 56.589115,38.0545572 C56.4333531,38.0228036 56.2788892,37.9763945 56.1322134,37.9055595 C55.4105167,37.5611549 54.9562112,36.8637965 54.9562112,36.1029309 L54.9575092,29.8804427 C41.6697232,30.703594 32.033255,36.0491944 32.033255,42.6063171 C32.033255,46.4900296 35.3704535,50.1990967 41.1894576,52.7809104 C41.7865448,53.0483736 42.0583432,53.707272 41.804717,54.2818796 C41.6074186,54.7288729 41.146623,55 40.6598672,55 C40.5209795,55 40.3794958,54.979238 40.2419061,54.9328289 C28.4027052,50.9440858 21.3350096,44.0535504 21.3350096,36.5047373 C21.3350096,25.8990279 35.4223735,16.8663438 54.8316022,15.0221912 C54.8744367,15.0173061 54.9120791,15.0344042 54.9562117,15.0344042 L54.9575097,12.0568916 L54.9575097,9.02442074 C54.9575097,8.85466096 54.987364,8.6885651 55.0314966,8.5310183 C55.0431787,8.48460916 55.0600529,8.43820002 55.0717351,8.39545476 C55.1184636,8.27210416 55.1729803,8.15363873 55.2391791,8.04127977 C55.2586493,8.00708356 55.2742255,7.97166606 55.2975898,7.93991244 C55.3819608,7.81656182 55.476716,7.69687511 55.5870473,7.59306519 C55.5974314,7.58329484 55.6065175,7.57963096 55.6169017,7.5723032 C55.7674715,7.43429709 55.9401076,7.31338907 56.1322139,7.2205708 C56.8539106,6.87494484 57.7196871,6.93967338 58.373887,7.38544538 Z M63.4982799,43.2058264 C63.4982799,42.0006326 64.5044902,41.0244632 65.7438938,41.0244632 C66.9832975,41.0244632 67.9895077,42.0006326 67.9895089,43.2058264 L67.9895089,66.802843 C67.9895089,68.0080368 66.9832987,68.9842061 65.743895,68.9842061 L8.24561389,68.9842061 C7.00492182,68.9842061 6,68.0080367 6,66.802843 L6,23.1655692 C6,21.9628785 7.0049219,20.9842061 8.24561389,20.9842061 L21.6291111,20.9842061 C22.8698031,20.9842061 23.874725,21.9628785 23.874725,23.1655692 C23.874725,24.370763 22.8698031,25.3469324 21.6291111,25.3469324 L10.4899389,25.3469324 L10.4899389,64.6214799 L40.9612148,64.6214799 L63.4982799,64.6214799 Z M63.4982799,43.2058264" id="path900" fill="rgb(100,98,99)"></path>
    </g>
</svg>