<?xml version="1.0" encoding="UTF-8" standalone="no"?>
<!-- Created with Inkscape (http://www.inkscape.org/) -->

<svg
   xmlns:dc="http://purl.org/dc/elements/1.1/"
   xmlns:cc="http://creativecommons.org/ns#"
   xmlns:rdf="http://www.w3.org/1999/02/22-rdf-syntax-ns#"
   xmlns:svg="http://www.w3.org/2000/svg"
   xmlns="http://www.w3.org/2000/svg"
   xmlns:sodipodi="http://sodipodi.sourceforge.net/DTD/sodipodi-0.dtd"
   xmlns:inkscape="http://www.inkscape.org/namespaces/inkscape"
   id="svg2"
   version="1.1"
   inkscape:version="0.48.2 r9819"
   width="76.25"
   height="76.25"
   xml:space="preserve"
   sodipodi:docname="share.pdf"><metadata
     id="metadata8"><rdf:RDF><cc:Work
         rdf:about=""><dc:format>image/svg+xml</dc:format><dc:type
           rdf:resource="http://purl.org/dc/dcmitype/StillImage" /><dc:title></dc:title></cc:Work></rdf:RDF></metadata><defs
     id="defs6" /><sodipodi:namedview
     pagecolor="#ffffff"
     bordercolor="#666666"
     borderopacity="1"
     objecttolerance="10"
     gridtolerance="10"
     guidetolerance="10"
     inkscape:pageopacity="0"
     inkscape:pageshadow="2"
     inkscape:window-width="640"
     inkscape:window-height="480"
     id="namedview4"
     showgrid="false"
     inkscape:zoom="3.7721311"
     inkscape:cx="38.125"
     inkscape:cy="38.125"
     inkscape:window-x="0"
     inkscape:window-y="0"
     inkscape:window-maximized="0"
     inkscape:current-layer="g10" /><g
     id="g10"
     inkscape:groupmode="layer"
     inkscape:label="share"
     transform="matrix(1.25,0,0,-1.25,0,76.25)"><g
       id="g12" /><g
       id="g14"><path
         d="M 59.4675,44.96882 43.66875,59.65777 C 43.03875,60.1414 42.205,60.21162 41.51,59.83665 41.325,59.73595 41.15875,59.60477 41.01375,59.45505 41.00375,59.4471 40.995,59.44312 40.985,59.43252 40.87875,59.3199 40.7875,59.19005 40.70625,59.05622 40.68375,59.02177 40.66875,58.98335 40.65,58.94625 40.58625,58.82435 40.53375,58.69582 40.48875,58.562 40.4775,58.51562 40.46125,58.46527 40.45,58.41492 40.4075,58.244 40.37875,58.0638 40.37875,57.87962 l 0,-3.28997 -0.0012,-3.23035 c -0.0425,0 -0.07875,0.01855 -0.12,0.01325 C 21.56625,49.3718 8,39.5721 8,28.0658 8,19.87597 14.80625,12.40032 26.2075,8.072875 26.34,8.022525 26.47625,8 26.61,8 c 0.46875,0 0.9125,0.29415 1.1025,0.7791 0.2425,0.624075 -0.0175,1.33825 -0.5925,1.62842 -5.60375,2.80106 -8.8175,6.82508 -8.8175,11.03858 0,7.11393 9.28,12.91345 22.07625,13.8065 l -0.0012,-6.75087 c 0,-0.82548 0.4375,-1.58205 1.1325,-1.9557 0.14125,-0.07685 0.29,-0.1272 0.44,-0.16165 0.13625,-0.03843 0.2725,-0.05035 0.41,-0.05698 l 0.0025,0 c 0.45875,-0.01987 0.92,0.09805 1.305,0.39485 l 15.8,14.6916 c 0.535,0.4134 0.8525,1.07192 0.855,1.7755 0,0.70225 -0.32,1.36475 -0.855,1.77947"
         style="fill:#787576;fill-opacity:1;fill-rule:evenodd;stroke:none"
         id="path16" /><path
         d="m 49.55073,28.17625 c -1.02795,0 -1.86248,-0.975 -1.86248,-2.17875 l 0,-21.39 -43.964359,0 0,39.2275 9.238669,0 c 1.02901,0 1.86248,0.975 1.86248,2.17875 0,1.20125 -0.83347,2.17875 -1.86248,2.17875 l -11.10008,0 C 0.8334678,48.1925 0,47.215 0,46.01375 L 0,2.42875 C 0,1.225 0.8334677,0.25 1.86248,0.25 l 47.68825,0 c 1.02794,0 1.86248,0.975 1.86248,2.17875 l 0,23.56875 c 0,1.20375 -0.83454,2.17875 -1.86248,2.17875"
         style="fill:#787576;fill-opacity:1;fill-rule:evenodd;stroke:none"
         id="path18" /></g></g></svg>