<?xml version="1.0" encoding="UTF-8" standalone="no"?>
<svg width="73px" height="54px" version="1.1" xmlns="http://www.w3.org/2000/svg" xmlns:xlink="http://www.w3.org/1999/xlink" xmlns:sketch="http://www.bohemiancoding.com/sketch/ns">
    <title>shuffle-on-pressed</title>
    <description>Created with Sketch (http://www.bohemiancoding.com/sketch)</description>
    <defs></defs>
    <g id="Page 1" fill="rgb(215,215,215)" fill-rule="evenodd">
        <g id="Group" fill="rgb(0,0,0)">
            <path d="M7.95385875,20.8453176 L17.4619888,20.8453176 C17.4886192,20.8453176 18.9053584,20.8768966 20.2230323,22.2032123 C20.9132932,20.4674228 21.814467,18.9863702 22.8509236,17.7379491 C20.976141,16.3053176 18.9245322,15.7884754 17.4619888,15.7884754 L7.95385875,15.7884754 C6.54138051,15.7884754 5.39520663,16.9190017 5.39520663,18.3168964 C5.39516548,19.7136616 6.54139245,20.8453176 7.95385875,20.8453176 C7.95385875,20.8453176 6.54139245,20.8453176 7.95385875,20.8453176 L7.95385875,20.8453176" id="Shape" fill="rgb(61,62,61)"></path>
            <path d="M41.7103572,20.8453176 L41.7103572,25.5621597 C41.7103572,25.9695281 41.9474266,26.3421597 42.3215177,26.5274228 C42.4813764,26.6063702 42.6564598,26.6453176 42.8293682,26.6453176 C43.0620877,26.6453176 43.2926322,26.5758439 43.4872901,26.4379492 L53.7921959,19.1926861 C54.0825515,18.9895282 54.2543725,18.6642651 54.2543725,18.3168966 C54.2543725,17.9695282 54.0825515,17.6432124 53.7921959,17.4400545 L43.4872901,10.1947915 C43.1479981,9.95479146 42.6945214,9.92005461 42.3215177,10.1053178 C41.9463391,10.2905809 41.7103572,10.6642652 41.7103572,11.0716336 L41.7103572,15.787423 L34.8799313,15.787423 C32.2123569,15.7884757 27.9113963,17.0779493 25.2177223,21.1663706 C25.1840106,21.2190021 25.1502989,21.2705811 25.1176747,21.3232127 C24.7816452,21.8474232 24.47389,22.4158442 24.1998465,23.033739 C24.1846218,23.0663706 24.1715721,23.0990021 24.157435,23.1316337 C23.3929406,24.8790021 22.8872651,27.0011075 22.7893924,29.5758445 C22.5044741,37.0653179 18.1611019,37.446371 17.7130623,37.4621604 L8.00626757,37.4621604 C6.56427675,37.4621604 5.39415448,38.5947919 5.39415448,39.9916342 C5.39415448,41.3884764 6.56427675,42.5200552 8.00626757,42.5200552 L17.7130623,42.5200552 C20.2022909,42.5200552 24.3716673,41.0811078 26.5705406,36.332687 C26.8576338,35.7021607 27.0762161,35.1200554 27.2665241,34.4905818 C27.2828362,34.4337397 27.2991483,34.3768975 27.3165479,34.3190028 C27.3926711,34.0516344 27.4644444,33.7768976 27.5307803,33.4947923 C27.54383,33.4379502 27.5579672,33.3832133 27.5710169,33.3253186 C27.6427902,32.9968976 27.7080386,32.6579502 27.7645873,32.3074239 C27.7743746,32.2432133 27.7841618,32.1758449 27.7917741,32.1105818 C27.8363606,31.8211081 27.8733347,31.5211081 27.9048715,31.2158449 C27.9146587,31.1158449 27.9255335,31.0168975 27.9342333,30.9147922 C27.967945,30.5400554 27.9973068,30.1568975 28.0114439,29.7590027 C28.0201437,29.5505817 28.0331934,29.349529 28.0473306,29.1505817 C28.624749,21.2295179 34.2567956,20.860994 34.8821066,20.8453176 L41.7103572,20.8453176 Z M41.7103572,20.8453176" id="Shape" fill="rgb(61,62,61)"></path>
            <path d="M52.8026707,39.116802 L42.7086709,31.871539 C42.376323,31.631539 41.9321274,31.5978548 41.5667578,31.7831179 C41.1992578,31.9673284 40.9681056,32.33996 40.9681056,32.7494337 L40.9681056,37.4641706 L34.2817361,37.4641706 C34.1315405,37.4641706 32.0554319,37.4262759 30.2456274,35.743118 C29.6736057,37.5662759 28.8810839,39.114697 27.9447577,40.4178548 C30.1454969,41.963118 32.5592792,42.5210128 34.2796056,42.5220653 L40.9681054,42.5220653 L40.9681054,47.2378548 C40.9681054,47.6462759 41.2003228,48.0178548 41.5667575,48.203118 C41.7233445,48.2820653 41.8948445,48.3210127 42.0642141,48.3210127 C42.2921706,48.3210127 42.5179967,48.2525916 42.7086706,48.1146969 L52.8026704,40.8694339 C53.0870835,40.666276 53.2553878,40.3389075 53.2553878,39.9925917 C53.2553878,39.646276 53.0871144,39.3211092 52.8026707,39.116802 C52.8026707,39.116802 53.0871144,39.3211092 52.8026707,39.116802 L52.8026707,39.116802" id="Shape" fill="rgb(59,60,59)"></path>
        </g>
    </g>
</svg>