<?xml version="1.0" encoding="UTF-8" standalone="no"?>
<svg width="73px" height="54px" version="1.1" xmlns="http://www.w3.org/2000/svg" xmlns:xlink="http://www.w3.org/1999/xlink" xmlns:sketch="http://www.bohemiancoding.com/sketch/ns">
    <title>shuffle-off-rest</title>
    <description>Created with Sketch (http://www.bohemiancoding.com/sketch)</description>
    <defs></defs>
    <g id="Page 1" fill="rgb(215,215,215)" fill-rule="evenodd">
        <g id="Group" fill="rgb(0,0,0)">
            <path d="M7.95385875,20.8453176 L17.4619888,20.8453176 C17.4886192,20.8453176 18.9053584,20.8768966 20.2230323,22.2032123 C20.9132932,20.4674228 21.814467,18.9863702 22.8509236,17.7379491 C20.976141,16.3053176 18.9245322,15.7884754 17.4619888,15.7884754 L7.95385875,15.7884754 C6.54138051,15.7884754 5.39520663,16.9190017 5.39520663,18.3168964 C5.39516548,19.7136616 6.54139245,20.8453176 7.95385875,20.8453176 C7.95385875,20.8453176 6.54139245,20.8453176 7.95385875,20.8453176 L7.95385875,20.8453176" id="Shape" fill="rgb(76,77,76)"></path>
            <path d="M34.2785897,20.8453176 L40.9670895,20.8453176 L40.9670895,25.5621597 C40.9670895,25.9695281 41.1993068,26.3421597 41.5657416,26.5274228 C41.7223286,26.6063702 41.8938286,26.6453176 42.0631981,26.6453176 C42.2911547,26.6453176 42.5169807,26.5758439 42.7076547,26.4379492 L52.8016545,19.1926861 C53.0860675,18.9895282 53.2543719,18.6642651 53.2543719,18.3168966 C53.2543719,17.9695282 53.0860675,17.6432124 52.8016545,17.4400545 L42.7076547,10.1947915 C42.3753068,9.95479146 41.9311112,9.92005461 41.5657416,10.1053178 C41.1982416,10.2905809 40.9670895,10.6642652 40.9670895,11.0716336 L40.9670895,15.787423 L34.2764589,15.787423 C31.6634805,15.7884757 27.4505458,17.0779493 24.8120021,21.1663706 C24.7789804,21.2190021 24.7459586,21.2705811 24.7140021,21.3232127 C24.38485,21.8474232 24.0833934,22.4158442 23.8149587,23.033739 C23.8000456,23.0663706 23.787263,23.0990021 23.7734152,23.1316337 C23.0245673,24.8790021 22.5292413,27.0011075 22.4333717,29.5758445 C22.1542847,37.0653179 17.8998064,37.446371 17.4609367,37.4621604 L7.9528066,37.4621604 C6.54032837,37.4621604 5.39415448,38.5947919 5.39415448,39.9916342 C5.39415448,41.3884764 6.54032837,42.5200552 7.9528066,42.5200552 L17.4609367,42.5200552 C19.8992193,42.5200552 23.9832629,41.0811078 26.1371328,36.332687 C26.1499154,36.3032133 26.1637632,36.272687 26.1765458,36.2432133 C26.4183502,35.7021607 26.6324589,35.1200554 26.8188719,34.4905818 C26.8348502,34.4337397 26.8508284,34.3768975 26.8678719,34.3190028 C26.9424371,34.0516344 27.0127415,33.7768976 27.0777197,33.4947923 C27.0905023,33.4379502 27.1043502,33.3832133 27.1171328,33.3253186 C27.1874371,32.9968976 27.2513502,32.6579502 27.3067415,32.3074239 C27.3163284,32.2432133 27.3259154,32.1758449 27.3333719,32.1105818 C27.3770458,31.8211081 27.4132632,31.5211081 27.4441545,31.2158449 C27.4537415,31.1158449 27.4643937,31.0168975 27.4729154,30.9147922 C27.5059371,30.5400554 27.534698,30.1568975 27.5485458,29.7590027 C27.5570676,29.5505817 27.5698502,29.349529 27.583698,29.1505817 L27.583698,29.1505817 C28.1492986,21.2295179 33.6660767,20.860994 34.2785897,20.8453176 C34.2785897,20.8453176 33.6660767,20.860994 34.2785897,20.8453176 L34.2785897,20.8453176" id="Shape" fill="rgb(77,78,77)"></path>
            <path d="M52.8026707,39.116802 L42.7086709,31.871539 C42.376323,31.631539 41.9321274,31.5978548 41.5667578,31.7831179 C41.1992578,31.9673284 40.9681056,32.33996 40.9681056,32.7494337 L40.9681056,37.4641706 L34.2817361,37.4641706 C34.1315405,37.4641706 32.0554319,37.4262759 30.2456274,35.743118 C29.6736057,37.5662759 28.8810839,39.114697 27.9447577,40.4178548 C30.1454969,41.963118 32.5592792,42.5210128 34.2796056,42.5220653 L40.9681054,42.5220653 L40.9681054,47.2378548 C40.9681054,47.6462759 41.2003228,48.0178548 41.5667575,48.203118 C41.7233445,48.2820653 41.8948445,48.3210127 42.0642141,48.3210127 C42.2921706,48.3210127 42.5179967,48.2525916 42.7086706,48.1146969 L52.8026704,40.8694339 C53.0870835,40.666276 53.2553878,40.3389075 53.2553878,39.9925917 C53.2553878,39.646276 53.0871144,39.3211092 52.8026707,39.116802 C52.8026707,39.116802 53.0871144,39.3211092 52.8026707,39.116802 L52.8026707,39.116802" id="Shape" fill="rgb(76,77,76)"></path>
        </g>
    </g>
</svg>