<?xml version="1.0" encoding="UTF-8" standalone="no"?>
<svg width="60px" height="60px" version="1.1" xmlns="http://www.w3.org/2000/svg" xmlns:xlink="http://www.w3.org/1999/xlink" xmlns:sketch="http://www.bohemiancoding.com/sketch/ns">
    <title>shuffle-off-rest</title>
    <description>Created with Sketch (http://www.bohemiancoding.com/sketch)</description>
    <defs></defs>
    <g id="Page 1" fill="rgb(223,223,223)" fill-rule="evenodd">
        <g id="Group" fill="rgb(0,0,0)">
            <path d="M9.77301025,22.2530518 L18.6990099,22.2530518 C18.7240099,22.2530518 20.0540099,22.2830518 21.2910099,23.5430517 C21.9390099,21.8940517 22.7850099,20.4870517 23.7580099,19.3010516 C21.9980099,17.9400517 20.0720098,17.4490516 18.6990099,17.4490516 L9.77301025,17.4490516 C8.44701028,17.4490516 7.3710103,18.5230516 7.3710103,19.8510516 C7.37097168,21.1779785 8.44702148,22.2530518 9.77301025,22.2530518 C9.77301025,22.2530518 8.44702148,22.2530518 9.77301025,22.2530518 L9.77301025,22.2530518" id="Shape" fill="rgb(95,95,95)"></path>
            <path d="M34.4860229,22.2530518 L40.7650228,22.2530518 L40.7650228,26.7340517 C40.7650228,27.1210517 40.9830227,27.4750517 41.3270227,27.6510517 C41.4740227,27.7260517 41.6350227,27.7630517 41.7940227,27.7630517 C42.0080227,27.7630517 42.2200227,27.6970517 42.3990228,27.5660517 L51.8750226,20.6830518 C52.1420226,20.4900518 52.3000226,20.1810518 52.3000226,19.8510518 C52.3000226,19.5210517 52.1420226,19.2110518 51.8750226,19.0180518 L42.3990228,12.1350519 C42.0870228,11.9070519 41.6700228,11.8740519 41.3270227,12.0500519 C40.9820227,12.2260519 40.7650228,12.5810519 40.7650228,12.9680519 L40.7650228,17.4480519 L34.4840226,17.4480519 C32.0310225,17.4490519 28.0760226,18.6740518 25.5990224,22.558052 C25.5680224,22.608052 25.5370224,22.657052 25.5070224,22.707052 C25.1980224,23.205052 24.9150224,23.745052 24.6630224,24.332052 C24.6490224,24.363052 24.6370224,24.394052 24.6240224,24.425052 C23.9210224,26.085052 23.4560224,28.1010522 23.3660224,30.5470522 C23.1040224,37.662052 19.1100223,38.0240525 18.6980222,38.0390524 L9.77202253,38.0390524 C8.44602255,38.0390524 7.37002258,39.1150523 7.37002258,40.4420525 C7.37002258,41.7690526 8.44602255,42.8440524 9.77202253,42.8440524 L18.6980222,42.8440524 C20.9870222,42.8440524 24.8210223,41.4770524 26.8430226,36.9660526 C26.8550226,36.9380526 26.8680226,36.9090526 26.8800226,36.8810526 C27.1070226,36.3670526 27.3080226,35.8140526 27.4830226,35.2160527 C27.4980226,35.1620527 27.5130226,35.1080527 27.5290226,35.0530527 C27.5990226,34.7990527 27.6650226,34.5380527 27.7260226,34.2700527 C27.7380226,34.2160527 27.7510226,34.1640527 27.7630226,34.1090527 C27.8290226,33.7970527 27.8890226,33.4750527 27.9410226,33.1420527 C27.9500226,33.0810527 27.9590226,33.0170527 27.9660226,32.9550527 C28.0070226,32.6800527 28.0410226,32.3950527 28.0700226,32.1050526 C28.0790226,32.0100526 28.0890226,31.9160526 28.0970226,31.8190526 C28.1280226,31.4630526 28.1550226,31.0990526 28.1680226,30.7210526 C28.1760226,30.5230526 28.1880226,30.3320526 28.2010226,30.1430526 L28.2010226,30.1430526 C28.7319946,22.618042 33.9110107,22.2679443 34.4860229,22.2530518 C34.4860229,22.2530518 33.9110107,22.2679443 34.4860229,22.2530518 L34.4860229,22.2530518" id="Shape" fill="rgb(96,96,96)"></path>
            <path d="M51.8759766,39.6109619 L42.3999767,32.727962 C42.0879767,32.499962 41.6709768,32.467962 41.3279767,32.643962 C40.9829767,32.818962 40.7659767,33.172962 40.7659767,33.561962 L40.7659767,38.0409621 L34.4889768,38.0409621 C34.3479768,38.0409621 32.3989769,38.0049621 30.6999767,36.4059621 C30.1629767,38.1379621 29.4189767,39.6089622 28.5399767,40.8469621 C30.6059766,42.3149621 32.8719764,42.8449621 34.4869767,42.845962 L40.7659765,42.845962 L40.7659765,47.3259621 C40.7659765,47.7139621 40.9839765,48.0669621 41.3279765,48.2429621 C41.4749765,48.3179621 41.6359765,48.3549621 41.7949765,48.3549621 C42.0089765,48.3549621 42.2209765,48.2899621 42.3999765,48.1589621 L51.8759763,41.2759622 C52.1429763,41.0829622 52.3009763,40.7719622 52.3009763,40.4429622 C52.3009763,40.1139622 52.1430054,39.8050537 51.8759766,39.6109619 C51.8759766,39.6109619 52.1430054,39.8050537 51.8759766,39.6109619 L51.8759766,39.6109619" id="Shape" fill="rgb(95,95,95)"></path>
        </g>
    </g>
</svg>