<?xml version="1.0" encoding="UTF-8" standalone="no"?>
<svg width="73px" height="54px" viewBox="0 0 73 54" version="1.1" xmlns="http://www.w3.org/2000/svg" xmlns:xlink="http://www.w3.org/1999/xlink" xmlns:sketch="http://www.bohemiancoding.com/sketch/ns">
    <title>shuffle-on-rest</title>
    <description>Created with Sketch (http://www.bohemiancoding.com/sketch)</description>
    <defs>
        <linearGradient x1="50%" y1="0%" x2="50%" y2="100%" id="linearGradient-1">
            <stop stop-color="rgb(233,105,103)" offset="0%"></stop>
            <stop stop-color="rgb(150,44,38)" offset="100%"></stop>
        </linearGradient>
    </defs>
    <g id="Page 1" fill="rgb(215,215,215)" fill-rule="evenodd">
        <path d="M7.95385875,20.8453176 C6.54139245,20.8453176 5.39520646,19.7136616 5.39520663,18.3168964 C5.39520663,16.9190017 6.54138051,15.7884754 7.95385875,15.7884754 L17.4619888,15.7884754 C18.9245322,15.7884754 20.976141,16.3053176 22.8509236,17.7379491 C21.814467,18.9863702 20.9132932,20.4674228 20.2230323,22.2032123 C18.9053584,20.8768966 17.4886192,20.8453176 17.4619888,20.8453176 Z M27.3333719,32.1105818 L27.3067415,32.3074239 C27.2513502,32.6579502 27.1874371,32.9968976 27.1171328,33.3253186 L27.0777197,33.4947923 C27.0127415,33.7768976 26.9424371,34.0516344 26.8678719,34.3190028 L26.8188719,34.4905818 C26.6324589,35.1200554 26.4183502,35.7021607 26.1371328,36.332687 C23.9832629,41.0811078 19.8992193,42.5200552 17.4609367,42.5200552 L7.9528066,42.5200552 C6.54032837,42.5200552 5.39415448,41.3884764 5.39415448,39.9916342 C5.39415448,38.5947919 6.54032837,37.4621604 7.9528066,37.4621604 L17.4609367,37.4621604 C17.8998064,37.446371 22.1542847,37.0653179 22.4333717,29.5758445 C22.5292413,27.0011075 23.0245673,24.8790021 23.7734152,23.1316337 L23.8149587,23.033739 C24.0833934,22.4158442 24.38485,21.8474232 24.7140021,21.3232127 L24.8120021,21.1663706 C27.4505458,17.0779493 31.6634805,15.7884757 34.2764589,15.787423 L40.9670895,15.787423 L40.9670895,11.0716336 C40.9670895,10.6642652 41.1982416,10.2905809 41.5657416,10.1053178 C41.9311112,9.92005461 42.3753068,9.95479146 42.7076547,10.1947915 L52.8016545,17.4400545 C53.0860675,17.6432124 53.2543719,17.9695282 53.2543719,18.3168966 C53.2543719,18.6642651 53.0860675,18.9895282 52.8016545,19.1926861 L42.7076547,26.4379492 C42.5169807,26.5758439 42.2911547,26.6453176 42.0631981,26.6453176 C41.8938286,26.6453176 41.7223286,26.6063702 41.5657416,26.5274228 C41.1993068,26.3421597 40.9670895,25.9695281 40.9670895,25.5621597 L40.9670895,20.8453176 L34.2785897,20.8453176 C33.6660767,20.860994 28.1492986,21.2295179 27.583698,29.1505817 C27.5698502,29.349529 27.5570676,29.5505817 27.5485458,29.7590027 C27.534698,30.1568975 27.5059371,30.5400554 27.4729154,30.9147922 C27.4643937,31.0168975 27.4537415,31.1158449 27.4441545,31.2158449 C27.4132636,31.5211048 27.3770466,31.8211016 27.3333719,32.1105818 Z M52.8026707,39.116802 C53.0871144,39.3211092 53.2553878,39.646276 53.2553878,39.9925917 C53.2553878,40.3389075 53.0870835,40.666276 52.8026704,40.8694339 L42.7086706,48.1146969 C42.5179967,48.2525916 42.2921706,48.3210127 42.0642141,48.3210127 C41.8948445,48.3210127 41.7233445,48.2820653 41.5667575,48.203118 C41.2003228,48.0178548 40.9681054,47.6462759 40.9681054,47.2378548 L40.9681054,42.5220653 L34.2796056,42.5220653 C32.5592792,42.5210128 30.1454969,41.963118 27.9447577,40.4178548 C28.8810839,39.114697 29.6736057,37.5662759 30.2456274,35.743118 C32.0554319,37.4262759 34.1315405,37.4641706 34.2817361,37.4641706 L40.9681056,37.4641706 L40.9681056,32.7494337 C40.9681056,32.33996 41.1992578,31.9673284 41.5667578,31.7831179 C41.9321274,31.5978548 42.376323,31.631539 42.7086709,31.871539 Z M52.8026707,39.116802" id="Shape" fill="url(#linearGradient-1)"></path>
    </g>
</svg>