<?xml version="1.0" encoding="UTF-8" standalone="no"?>
<svg width="73px" height="54px" version="1.1" xmlns="http://www.w3.org/2000/svg" xmlns:xlink="http://www.w3.org/1999/xlink" xmlns:sketch="http://www.bohemiancoding.com/sketch/ns">
    <title>shuffle-off-pressed</title>
    <description>Created with Sketch (http://www.bohemiancoding.com/sketch)</description>
    <defs></defs>
    <g id="Page 1" fill="rgb(223,223,223)" fill-rule="evenodd">
        <g id="Group" fill="rgb(0,0,0)">
            <path d="M7.77301025,20.2530518 L16.6990099,20.2530518 C16.7240099,20.2530518 18.0540099,20.2830518 19.2910099,21.5430517 C19.9390099,19.8940517 20.7850099,18.4870517 21.7580099,17.3010516 C19.9980099,15.9400517 18.0720098,15.4490516 16.6990099,15.4490516 L7.77301025,15.4490516 C6.44701028,15.4490516 5.3710103,16.5230516 5.3710103,17.8510516 C5.37097168,19.1779785 6.44702148,20.2530518 7.77301025,20.2530518 C7.77301025,20.2530518 6.44702148,20.2530518 7.77301025,20.2530518 L7.77301025,20.2530518" id="Shape" fill="rgb(79,79,79)"></path>
            <path d="M32.4860229,20.2530518 L38.7650228,20.2530518 L38.7650228,24.7340517 C38.7650228,25.1210517 38.9830227,25.4750517 39.3270227,25.6510517 C39.4740227,25.7260517 39.6350227,25.7630517 39.7940227,25.7630517 C40.0080227,25.7630517 40.2200227,25.6970517 40.3990228,25.5660517 L49.8750226,18.6830518 C50.1420226,18.4900518 50.3000226,18.1810518 50.3000226,17.8510518 C50.3000226,17.5210517 50.1420226,17.2110518 49.8750226,17.0180518 L40.3990228,10.1350519 C40.0870228,9.90705189 39.6700228,9.87405188 39.3270227,10.0500519 C38.9820227,10.2260519 38.7650228,10.5810519 38.7650228,10.9680519 L38.7650228,15.4480519 L32.4840226,15.4480519 C30.0310225,15.4490519 26.0760226,16.6740518 23.5990224,20.558052 C23.5680224,20.608052 23.5370224,20.657052 23.5070224,20.707052 C23.1980224,21.205052 22.9150224,21.745052 22.6630224,22.332052 C22.6490224,22.363052 22.6370224,22.394052 22.6240224,22.425052 C21.9210224,24.085052 21.4560224,26.1010522 21.3660224,28.5470522 C21.1040224,35.662052 17.1100223,36.0240525 16.6980222,36.0390524 L7.77202253,36.0390524 C6.44602255,36.0390524 5.37002258,37.1150523 5.37002258,38.4420525 C5.37002258,39.7690526 6.44602255,40.8440524 7.77202253,40.8440524 L16.6980222,40.8440524 C18.9870222,40.8440524 22.8210223,39.4770524 24.8430226,34.9660526 C24.8550226,34.9380526 24.8680226,34.9090526 24.8800226,34.8810526 C25.1070226,34.3670526 25.3080226,33.8140526 25.4830226,33.2160527 C25.4980226,33.1620527 25.5130226,33.1080527 25.5290226,33.0530527 C25.5990226,32.7990527 25.6650226,32.5380527 25.7260226,32.2700527 C25.7380226,32.2160527 25.7510226,32.1640527 25.7630226,32.1090527 C25.8290226,31.7970527 25.8890226,31.4750527 25.9410226,31.1420527 C25.9500226,31.0810527 25.9590226,31.0170527 25.9660226,30.9550527 C26.0070226,30.6800527 26.0410226,30.3950527 26.0700226,30.1050526 C26.0790226,30.0100526 26.0890226,29.9160526 26.0970226,29.8190526 C26.1280226,29.4630526 26.1550226,29.0990526 26.1680226,28.7210526 C26.1760226,28.5230526 26.1880226,28.3320526 26.2010226,28.1430526 L26.2010226,28.1430526 C26.7319946,20.618042 31.9110107,20.2679443 32.4860229,20.2530518 C32.4860229,20.2530518 31.9110107,20.2679443 32.4860229,20.2530518 L32.4860229,20.2530518" id="Shape" fill="rgb(79,79,79)"></path>
            <path d="M49.8759766,37.6109619 L40.3999767,30.727962 C40.0879767,30.499962 39.6709768,30.467962 39.3279767,30.643962 C38.9829767,30.818962 38.7659767,31.172962 38.7659767,31.561962 L38.7659767,36.0409621 L32.4889768,36.0409621 C32.3479768,36.0409621 30.3989769,36.0049621 28.6999767,34.4059621 C28.1629767,36.1379621 27.4189767,37.6089622 26.5399767,38.8469621 C28.6059766,40.3149621 30.8719764,40.8449621 32.4869767,40.845962 L38.7659765,40.845962 L38.7659765,45.3259621 C38.7659765,45.7139621 38.9839765,46.0669621 39.3279765,46.2429621 C39.4749765,46.3179621 39.6359765,46.3549621 39.7949765,46.3549621 C40.0089765,46.3549621 40.2209765,46.2899621 40.3999765,46.1589621 L49.8759763,39.2759622 C50.1429763,39.0829622 50.3009763,38.7719622 50.3009763,38.4429622 C50.3009763,38.1139622 50.1430054,37.8050537 49.8759766,37.6109619 C49.8759766,37.6109619 50.1430054,37.8050537 49.8759766,37.6109619 L49.8759766,37.6109619" id="Shape" fill="rgb(76,76,76)"></path>
        </g>
    </g>
</svg>