<?xml version="1.0" encoding="UTF-8" standalone="no"?>
<svg width="60px" height="60px" viewBox="0 0 60 60" version="1.1" xmlns="http://www.w3.org/2000/svg" xmlns:xlink="http://www.w3.org/1999/xlink" xmlns:sketch="http://www.bohemiancoding.com/sketch/ns">
    <title>sipplugin-add</title>
    <description>Created with Sketch (http://www.bohemiancoding.com/sketch)</description>
    <defs>
        <linearGradient x1="50%" y1="0%" x2="50%" y2="173.920641%" id="linearGradient-1">
            <stop stop-color="rgb(123,125,121)" offset="0%"></stop>
            <stop stop-color="rgb(0,0,0)" offset="100%"></stop>
        </linearGradient>
    </defs>
    <g id="Page 1" fill="rgb(215,215,215)" fill-rule="evenodd">
        <path d="M30,60 C46.5685433,60 60,46.5685433 60,30 C60,13.4314567 46.5685433,0 30,0 C13.4314567,0 0,13.4314567 0,30 C0,46.5685433 13.4314567,60 30,60 Z M30,60" id="Oval 1" fill="url(#linearGradient-1)"></path>
        <path d="M34.1402321,26.4080257 L34.1402321,14.8322088 C34.1402321,13.8210227 33.3242652,13 32.3216195,13 L28.6753614,13 C27.6787375,13 26.8567488,13.8210228 26.8567488,14.8322088 L26.8567488,20 L26.8567488,26.4080257 L15.8246346,26.4080257 C14.812956,26.4080257 14,27.22603 14,28.2372161 L14,31.6541194 C14,32.6653056 14.8159669,33.4833098 15.8246346,33.4833098 L26.8567488,33.4833098 L26.8567488,45.1738281 C26.8567488,46.1819957 27.6787376,47 28.6753614,47 L32.3216195,47 C33.3272762,47 34.1402321,46.1819957 34.1402321,45.1738281 L34.1402321,33.4833098 L45.1783677,33.4833098 C46.1840244,33.4833098 46.9999914,32.6653056 46.9999914,31.6541194 L46.9999914,28.2372161 C47.0030567,27.2230705 46.1840693,26.4080257 45.1783677,26.4080257 L34.1402321,26.4080257 Z M34.1402321,26.4080257" id="Shape" fill="rgb(254,255,254)"></path>
    </g>
</svg>