<?xml version="1.0" encoding="UTF-8" standalone="no"?>
<svg width="60px" height="60px" viewBox="0 0 60 60" version="1.1" xmlns="http://www.w3.org/2000/svg" xmlns:xlink="http://www.w3.org/1999/xlink" xmlns:sketch="http://www.bohemiancoding.com/sketch/ns">
    <title>sipplugin-remove</title>
    <description>Created with Sketch (http://www.bohemiancoding.com/sketch)</description>
    <defs>
        <linearGradient x1="50%" y1="0%" x2="50%" y2="173.920641%" id="linearGradient-1">
            <stop stop-color="rgb(123,125,121)" offset="0%"></stop>
            <stop stop-color="rgb(0,0,0)" offset="100%"></stop>
        </linearGradient>
    </defs>
    <g id="Page 1" fill="rgb(215,215,215)" fill-rule="evenodd">
        <path d="M30,60 C46.5685433,60 60,46.5685433 60,30 C60,13.4314567 46.5685433,0 30,0 C13.4314567,0 0,13.4314567 0,30 C0,46.5685433 13.4314567,60 30,60 Z M30,60" id="Oval 1" fill="url(#linearGradient-1)"></path>
        <path d="M41.6410007,27 L17.5,27 C16.672,27 16,27.672 16,28.5 L16,31.3069999 C16,32.1349999 16.672,32.8069999 17.5,32.8069999 L41.6410007,32.8069999 C42.4690008,32.8069999 43.1410007,32.1349999 43.1410007,31.3069999 L43.1410007,28.5 C43.1410007,27.6719971 42.4690037,27 41.6410007,27 L41.6410007,27 L41.6410007,27" id="Shape" fill="rgb(254,255,254)"></path>
    </g>
</svg>