<?xml version="1.0" encoding="UTF-8" standalone="no"?>
<svg width="50px" height="50px" version="1.1" xmlns="http://www.w3.org/2000/svg" xmlns:xlink="http://www.w3.org/1999/xlink" xmlns:sketch="http://www.bohemiancoding.com/sketch/ns">
    <title>sipplugin-online</title>
    <description>Created with Sketch (http://www.bohemiancoding.com/sketch)</description>
    <defs></defs>
    <g id="Page 1" fill="rgb(215,215,215)" fill-rule="evenodd">
        <g id="Group" fill="rgb(0,0,0)">
            <path d="M49.723999,22.1959839 C42.4199991,12.5999842 34.4229994,7.73298359 25.9529991,7.73298359 C11.5999994,7.73298359 1.29099846,21.6239834 0.858999252,22.2139835 C0.546999246,22.6419835 0.547999263,23.2239835 0.862999253,23.6509836 C8.78499918,34.3589838 17.0999988,39.7889841 25.577,39.7889841 C40.0029996,39.7889841 49.4079993,24.210984 49.8010009,23.5489843 C50.0529785,23.1229858 50.0209961,22.5889893 49.723999,22.1959839 C49.723999,22.1959839 50.0209961,22.5889893 49.723999,22.1959839 L49.723999,22.1959839 M25.5536299,37.363984 C18.0776301,37.363984 10.6086302,32.5139841 3.34363082,22.9479836 C5.60163072,20.1819836 14.5726309,10.1579837 25.9296313,10.1579837 C33.4086314,10.1579837 40.5796309,14.4759835 47.2526312,22.9949836 C45.2966109,25.9399728 36.9656172,37.363984 25.5536299,37.363984 L25.5536299,37.363984 L25.5536299,37.363984" id="Shape" fill="rgb(111,111,111)"></path>
            <path d="M25.2659912,12.5469971 C19.1549911,12.5469971 14.1819916,17.4929972 14.1819916,23.5739975 C14.1819916,29.6529975 19.1549916,34.5989971 25.2659912,34.5989971 C31.3769908,34.5989971 36.3489914,29.652997 36.3489914,23.5739975 C36.348999,17.492981 31.3770142,12.5469971 25.2659912,12.5469971 L25.2659912,12.5469971 L25.2659912,12.5469971" id="Shape" fill="rgb(113,175,250)"></path>
            <path d="M25.2679915,18.9259973 C22.6869915,18.9259973 20.5919914,21.0079973 20.5919914,23.573997 C20.5919914,26.1409969 22.6869915,28.2199969 25.2679915,28.2199969 C27.8479915,28.2199969 29.9389915,26.1409969 29.9389915,23.573997 C29.9390121,21.0079675 27.8480086,18.9259973 25.2679915,18.9259973 L25.2679915,18.9259973 L25.2679915,18.9259973 M22.5099959,22.1479821 L22.5309959,22.0469821 L23.9639959,21.0729821 L25.3819959,23.8579822 L22.5099959,22.1479821 L22.5099959,22.1479821 L22.5099959,22.1479821" id="Shape" fill="rgb(111,111,111)"></path>
        </g>
    </g>
</svg>