<?xml version="1.0" encoding="UTF-8" standalone="no"?>
<svg width="55px" height="55px" version="1.1" xmlns="http://www.w3.org/2000/svg" xmlns:xlink="http://www.w3.org/1999/xlink" xmlns:sketch="http://www.bohemiancoding.com/sketch/ns">
    <title>sipplugin-online</title>
    <description>Created with Sketch (http://www.bohemiancoding.com/sketch)</description>
    <defs></defs>
    <g id="Page 1" fill="rgb(215,215,215)" fill-rule="evenodd">
        <g id="Group" fill="rgb(0,0,0)">
            <path d="M52.723999,26.1959839 C45.4199991,16.5999842 37.4229994,11.7329836 28.9529991,11.7329836 C14.5999994,11.7329836 4.29099846,25.6239834 3.85899925,26.2139835 C3.54699925,26.6419835 3.54799926,27.2239835 3.86299925,27.6509836 C11.7849992,38.3589838 20.0999988,43.7889841 28.577,43.7889841 C43.0029996,43.7889841 52.4079993,28.210984 52.8010009,27.5489843 C53.0529785,27.1229858 53.0209961,26.5889893 52.723999,26.1959839 C52.723999,26.1959839 53.0209961,26.5889893 52.723999,26.1959839 L52.723999,26.1959839 M28.5770264,41.3640137 C21.1010265,41.3640137 13.6320267,36.5140138 6.36702728,26.9480133 C8.62502718,24.1820133 17.5960274,14.1580133 28.9530277,14.1580133 C36.4320278,14.1580133 43.6030273,18.4760132 50.2760277,26.9950132 C48.3200073,29.9400024 39.9890137,41.3640137 28.5770264,41.3640137 L28.5770264,41.3640137 L28.5770264,41.3640137" id="Shape" fill="rgb(111,111,111)"></path>
            <path d="M28.2659912,16.5469971 C22.1549911,16.5469971 17.1819916,21.4929972 17.1819916,27.5739975 C17.1819916,33.6529975 22.1549916,38.5989971 28.2659912,38.5989971 C34.3769908,38.5989971 39.3489914,33.652997 39.3489914,27.5739975 C39.348999,21.492981 34.3770142,16.5469971 28.2659912,16.5469971 L28.2659912,16.5469971 L28.2659912,16.5469971 M28.2659912,37.4370117 C22.7959914,37.4370117 18.3449917,33.0110116 18.3449917,27.5750113 C18.3449917,22.1370111 22.7959919,17.7120113 28.2659912,17.7120113 C33.7369914,17.7120113 38.1859913,22.1370115 38.1859913,27.5750113 C38.1859741,33.0109863 33.7360229,37.4370117 28.2659912,37.4370117 L28.2659912,37.4370117 L28.2659912,37.4370117" id="Shape" fill="rgb(111,111,111)"></path>
            <path d="M28.2659912,22.9260254 C25.6849911,22.9260254 23.5899911,25.0080254 23.5899911,27.5740252 C23.5899911,30.1410251 25.6849911,32.2200251 28.2659912,32.2200251 C30.8459911,32.2200251 32.9369912,30.1410251 32.9369912,27.5740252 C32.9370117,25.0079956 30.8460083,22.9260254 28.2659912,22.9260254 L28.2659912,22.9260254 L28.2659912,22.9260254 M25.5079956,26.1480103 L25.5289956,26.0470103 L26.9619956,25.0730103 L28.3799956,27.8580104 L25.5079956,26.1480103 L25.5079956,26.1480103 L25.5079956,26.1480103" id="Shape" fill="rgb(111,111,111)"></path>
        </g>
    </g>
</svg>