<?xml version="1.0" encoding="UTF-8" standalone="no"?>
<svg width="50px" height="50px" viewBox="0 0 50 50" version="1.1" xmlns="http://www.w3.org/2000/svg" xmlns:xlink="http://www.w3.org/1999/xlink" xmlns:sketch="http://www.bohemiancoding.com/sketch/ns">
    <title>Slice 1</title>
    <description>Created with Sketch (http://www.bohemiancoding.com/sketch)</description>
    <defs></defs>
    <g id="Page-1" stroke="none" stroke-width="1" fill="none" fill-rule="evenodd" sketch:type="MSPage">
        <g id="sipplugin-online" sketch:type="MSLayerGroup" transform="translate(0.000000, 8.000000)">
            <g id="Page-1" sketch:type="MSShapeGroup">
                <g id="Group">
                    <path d="M48.723999,14.1959839 C41.4199991,4.5999842 33.4229994,-0.26701641 24.9529991,-0.26701641 C10.5999994,-0.26701641 0.29099846,13.6239834 -0.141000748,14.2139835 C-0.453000754,14.6419835 -0.452000737,15.2239835 -0.137000747,15.6509836 C7.78499918,26.3589838 16.0999988,31.7889841 24.577,31.7889841 C39.0029996,31.7889841 48.4079993,16.210984 48.8010009,15.5489843 C49.0529785,15.1229858 49.0209961,14.5889893 48.723999,14.1959839 C48.723999,14.1959839 49.0209961,14.5889893 48.723999,14.1959839 L48.723999,14.1959839 M24.5536299,29.363984 C17.0776301,29.363984 9.6086302,24.5139841 2.34363082,14.9479836 C4.60163072,12.1819836 13.5726309,2.1579837 24.9296313,2.1579837 C32.4086314,2.1579837 39.5796309,6.4759835 46.2526312,14.9949836 C44.2966109,17.9399728 35.9656172,29.363984 24.5536299,29.363984 L24.5536299,29.363984" id="Shape" fill="#000000"></path>
                    <path d="M24.2659912,4.5469971 C18.1549911,4.5469971 13.1819916,9.4929972 13.1819916,15.5739975 C13.1819916,21.6529975 18.1549916,26.5989971 24.2659912,26.5989971 C30.3769908,26.5989971 35.3489914,21.652997 35.3489914,15.5739975 C35.348999,9.492981 30.3770142,4.5469971 24.2659912,4.5469971 L24.2659912,4.5469971" id="Shape" fill="#D4D4D4"></path>
                    <path d="M24.2679915,10.9259973 C21.6869915,10.9259973 19.5919914,13.0079973 19.5919914,15.573997 C19.5919914,18.1409969 21.6869915,20.2199969 24.2679915,20.2199969 C26.8479915,20.2199969 28.9389915,18.1409969 28.9389915,15.573997 C28.9390121,13.0079675 26.8480086,10.9259973 24.2679915,10.9259973 L24.2679915,10.9259973 M21.5099959,14.1479821 L21.5309959,14.0469821 L22.9639959,13.0729821 L24.3819959,15.8579822 L21.5099959,14.1479821" id="Shape" fill="#000000"></path>
                </g>
            </g>
        </g>
    </g>
</svg>