<?xml version="1.0" encoding="UTF-8" standalone="no"?>
<svg width="102px" height="102px" version="1.1" xmlns="http://www.w3.org/2000/svg" xmlns:xlink="http://www.w3.org/1999/xlink" xmlns:sketch="http://www.bohemiancoding.com/sketch/ns">
    <title>skip-rest</title>
    <description>Created with Sketch (http://www.bohemiancoding.com/sketch)</description>
    <defs>
        <linearGradient x1="50%" y1="50%" x2="50%" y2="0%" id="linearGradient-1">
            <stop stop-color="rgb(49,55,59)" offset="0%"></stop>
            <stop stop-color="rgb(0,0,0)" stop-opacity="0.5" offset="100%"></stop>
        </linearGradient>
        <path d="M51,101 C78.6142389,101 101,78.6142389 101,51 C101,23.3857611 78.6142389,1 51,1 C23.3857611,1 1,23.3857611 1,51 C1,78.6142389 23.3857611,101 51,101 Z M51,101" id="path-2"></path>
    </defs>
    <g id="Page 1" fill="rgb(223,223,223)" fill-rule="evenodd">
        <use id="Oval 1" stroke="rgb(167,167,167)" stroke-width="1" fill="url(#linearGradient-1)" xlink:href="#path-2"></use>
        <use id="Oval 1-1" stroke="none" fill="none" xlink:href="#path-2"></use>
        <path d="M41.4738961,66.0797177 L50.4388809,59.5261024 L50.4388809,64.2966645 C50.4388809,65.1251755 50.9005022,65.8842262 51.6338328,66.2601712 C52.3643183,66.6354 53.2484405,66.5666558 53.9127769,66.0797176 L72.0980958,52.7827247 C72.6649867,52.3695433 73,51.7057321 73,51.0011039 C73,50.2957596 72.6664092,49.6333805 72.0980958,49.2180508 L53.9127769,35.9203422 C53.5329529,35.641785 53.0798669,35.5 52.626781,35.5 C52.2867887,35.5 51.9467964,35.5780533 51.6338328,35.7398887 C50.9012135,36.1158336 50.4388809,36.8741682 50.4388809,37.7019631 L50.4388809,42.4746733 L41.4738961,35.9203423 C41.0947833,35.641785 40.6416974,35.5000001 40.1886114,35.5000001 C39.8479078,35.5000001 39.5086269,35.5780534 39.1956632,35.7398887 C38.4623326,36.1158336 38,36.8741683 38,37.7019632 L38,64.2973804 C38.0000002,65.1252037 38.4623284,65.8835096 39.1956632,66.2601713 C39.9261487,66.6354001 40.8102709,66.5666559 41.4738961,66.0797177 Z M41.4738961,66.0797177" id="Shape" fill="rgb(254,254,254)"></path>
    </g>
</svg>