<?xml version="1.0" encoding="UTF-8" standalone="no"?>
<svg width="122px" height="122px" version="1.1" xmlns="http://www.w3.org/2000/svg" xmlns:xlink="http://www.w3.org/1999/xlink" xmlns:sketch="http://www.bohemiancoding.com/sketch/ns">
    <title>skip-rest</title>
    <description>Created with Sketch (http://www.bohemiancoding.com/sketch)</description>
    <defs>
        <linearGradient x1="50%" y1="50%" x2="50%" y2="0%" id="linearGradient-1">
            <stop stop-color="rgb(37,41,44)" offset="0%"></stop>
            <stop stop-color="rgb(0,0,0)" stop-opacity="0.5" offset="100%"></stop>
        </linearGradient>
        <path d="M61,106 C85.852815,106 106,85.852815 106,61 C106,36.147185 85.852815,16 61,16 C36.147185,16 16,36.147185 16,61 C16,85.852815 36.147185,106 61,106 Z M61,121 C27.8629134,121 1,94.1370866 1,61 C1,27.8629134 27.8629134,1 61,1 C94.1370866,1 121,27.8629134 121,61 C121,94.1370866 94.1370866,121 61,121 Z M51.9776252,74.6203902 C51.4088036,75.0602053 50.6509846,75.1222969 50.0248542,74.7833805 C49.3962815,74.44317 49.0000001,73.7582485 49,73.0105371 L49,48.98887 C49,48.2411842 49.3962851,47.5562368 50.0248542,47.2166737 C50.2931087,47.0704998 50.583921,47.0000001 50.8759526,47.0000001 C51.2643121,47.0000001 51.6526714,47.1280639 51.9776252,47.379664 L59.6618979,53.2997049 L59.6618979,48.9888699 C59.6618979,48.2411842 60.058183,47.5562368 60.6861424,47.2166736 C60.9543969,47.0704998 61.2458189,47 61.5372408,47 C61.9256002,47 62.3139596,47.1280638 62.639523,47.379664 L78.2269392,59.3904975 C78.7140651,59.765634 79,60.3639119 79,61.0009971 C79,61.6374354 78.7128457,62.2370069 78.2269392,62.610203 L62.639523,74.6203901 C62.0700918,75.0602052 61.3122728,75.1222968 60.6861424,74.7833804 C60.0575733,74.4438172 59.6618979,73.758223 59.6618979,73.0098905 L59.6618979,68.7009957 Z M51.9776252,74.6203902" id="path-2"></path>
    </defs>
    <g id="Page 1" fill="rgb(215,215,215)" fill-rule="evenodd">
        <path d="M61,121 C94.1370866,121 121,94.1370866 121,61 C121,27.8629134 94.1370866,1 61,1 C27.8629134,1 1,27.8629134 1,61 C1,94.1370866 27.8629134,121 61,121 Z M61,121" id="Oval 18" stroke="rgb(150,150,150)" stroke-width="1" fill-opacity="0.5027861" fill="rgb(254,255,254)"></path>
        <use id="Oval 33" stroke="rgb(150,150,150)" stroke-width="1" fill="url(#linearGradient-1)" xlink:href="#path-2"></use>
        <use id="Oval 33-1" stroke="none" fill="none" xlink:href="#path-2"></use>
    </g>
</svg>