<?xml version="1.0" encoding="UTF-8" standalone="no"?>
<svg width="102px" height="102px" version="1.1" xmlns="http://www.w3.org/2000/svg" xmlns:xlink="http://www.w3.org/1999/xlink" xmlns:sketch="http://www.bohemiancoding.com/sketch/ns">
    <title>skip-pressed</title>
    <description>Created with Sketch (http://www.bohemiancoding.com/sketch)</description>
    <defs>
        <linearGradient x1="50%" y1="50%" x2="50%" y2="0%" id="linearGradient-1">
            <stop stop-color="rgb(49,55,59)" offset="0%"></stop>
            <stop stop-color="rgb(0,0,0)" stop-opacity="0.5" offset="100%"></stop>
        </linearGradient>
        <path d="M51,101 C78.6142389,101 101,78.6142389 101,51 C101,23.3857611 78.6142389,1 51,1 C23.3857611,1 1,23.3857611 1,51 C1,78.6142389 23.3857611,101 51,101 Z M51,101" id="path-2"></path>
    </defs>
    <g id="Page 1" fill="rgb(223,223,223)" fill-rule="evenodd">
        <use id="Oval 1" stroke="rgb(167,167,167)" stroke-width="1" fill="url(#linearGradient-1)" xlink:href="#path-2"></use>
        <use id="Oval 1-1" stroke="none" fill="none" xlink:href="#path-2"></use>
        <path d="M37.6770005,72.0585419 L50.2810006,62.9065414 L50.2810006,69.5685416 C50.2810006,70.7255416 50.9300006,71.7855416 51.9610006,72.3105417 C52.9880005,72.8345417 54.2310005,72.7385417 55.1650006,72.0585417 L80.732,53.4895415 C81.529,52.9125415 82,51.9855415 82,51.0015416 C82,50.0165416 81.531,49.0915416 80.732,48.5115416 L55.1650006,29.9415419 C54.6310006,29.5525419 53.9940006,29.3545418 53.3570006,29.3545418 C52.8790006,29.3545418 52.4010006,29.4635418 51.9610006,29.6895419 C50.9310006,30.2145418 50.2810006,31.2735418 50.2810006,32.4295419 L50.2810006,39.0945418 L37.6770005,29.9415419 C37.1440005,29.552542 36.5070006,29.3545419 35.8700005,29.3545419 C35.3910005,29.3545419 34.9140005,29.4635419 34.4740005,29.6895419 C33.4430004,30.2145419 32.7930005,31.2735419 32.7930005,32.429542 L32.7930005,69.5695413 C32.7930007,70.7255809 33.4429946,71.7845409 34.4740005,72.3105419 C35.5010004,72.8345419 36.7440004,72.7385419 37.6770005,72.0585419 Z M37.6770005,72.0585419" id="Shape" fill="rgb(213,213,213)"></path>
    </g>
</svg>