<?xml version="1.0" encoding="UTF-8" standalone="no"?>
<svg width="93px" height="93px" viewBox="0 0 93 93" version="1.1" xmlns="http://www.w3.org/2000/svg" xmlns:xlink="http://www.w3.org/1999/xlink" xmlns:sketch="http://www.bohemiancoding.com/sketch/ns">
    <title>Slice 1</title>
    <description>Created with Sketch (http://www.bohemiancoding.com/sketch)</description>
    <defs>
        <linearGradient x1="50.0002151%" y1="0%" x2="50.0002151%" y2="100.000566%" id="linearGradient-1">
            <stop stop-color="#F79810" offset="0%"></stop>
            <stop stop-color="#F8310E" offset="100%"></stop>
        </linearGradient>
    </defs>
    <g id="Page-1" stroke="none" stroke-width="1" fill="none" fill-rule="evenodd" sketch:type="MSPage">
        <g id="soundcloud" sketch:type="MSLayerGroup" transform="translate(0.000000, 16.000000)" fill="url(#linearGradient-1)">
            <path d="M1.053,24.152 C0.859,24.152 0.705,24.302 0.68,24.516 L0,29.681 L0.68,34.757 C0.705,34.971 0.859,35.12 1.053,35.12 C1.241,35.12 1.394,34.972 1.424,34.759 L1.424,34.759 L1.424,34.758 C1.424,34.758 1.424,34.758 1.424,34.759 L2.23,29.681 L1.424,24.515 C1.395,24.302 1.24,24.152 1.053,24.152 L1.053,24.152 Z M4.877,21.33 C4.845,21.108 4.686,20.955 4.49,20.955 C4.293,20.955 4.13,21.113 4.103,21.33 C4.103,21.332 3.189,29.681 3.189,29.681 L4.103,37.847 C4.129,38.066 4.292,38.224 4.49,38.224 C4.685,38.224 4.844,38.07 4.876,37.849 L5.916,29.681 L4.877,21.33 L4.877,21.33 Z M19.281,13.627 C18.906,13.627 18.596,13.934 18.578,14.324 L17.85,29.688 L18.578,39.617 C18.597,40.005 18.906,40.311 19.281,40.311 C19.654,40.311 19.963,40.004 19.985,39.615 L19.985,39.618 L20.808,29.688 L19.985,14.324 C19.963,13.934 19.654,13.627 19.281,13.627 L19.281,13.627 Z M11.826,18.967 C11.538,18.967 11.303,19.197 11.28,19.504 L10.46,29.684 L11.28,39.533 C11.302,39.838 11.538,40.068 11.826,40.068 C12.111,40.068 12.346,39.838 12.371,39.533 L13.303,29.684 L12.371,19.502 C12.346,19.197 12.111,18.967 11.826,18.967 L11.826,18.967 Z M26.857,40.31 C27.322,40.31 27.7,39.935 27.719,39.455 L28.433,29.693 L27.72,9.238 C27.701,8.758 27.323,8.383 26.858,8.383 C26.389,8.383 26.01,8.759 25.995,9.239 C25.995,9.24 25.362,29.692 25.362,29.692 L25.995,39.458 C26.01,39.934 26.389,40.31 26.857,40.31 L26.857,40.31 Z M42.367,40.356 C43.007,40.356 43.535,39.829 43.547,39.181 L43.547,39.188 L43.547,39.181 L44.045,29.699 L43.547,6.075 C43.536,5.428 43.007,4.9 42.367,4.9 C41.726,4.9 41.197,5.427 41.187,6.076 L40.742,29.691 C40.742,29.706 41.187,39.187 41.187,39.187 C41.197,39.829 41.727,40.356 42.367,40.356 L42.367,40.356 Z M34.553,40.319 C35.11,40.319 35.559,39.872 35.574,39.302 L35.574,39.309 L36.18,29.695 L35.573,9.092 C35.558,8.522 35.109,8.076 34.552,8.076 C33.991,8.076 33.542,8.522 33.53,9.092 L32.991,29.696 L33.531,39.308 C33.543,39.872 33.992,40.319 34.553,40.319 L34.553,40.319 Z M15.539,40.229 C15.87,40.229 16.138,39.964 16.163,39.615 L17.041,29.684 L16.163,20.237 C16.139,19.888 15.871,19.625 15.539,19.625 C15.203,19.625 14.935,19.89 14.914,20.241 L14.141,29.684 L14.914,39.614 C14.936,39.964 15.203,40.229 15.539,40.229 L15.539,40.229 Z M8.143,39.685 C8.385,39.685 8.581,39.494 8.609,39.23 L9.595,29.682 L8.61,19.774 C8.581,19.509 8.385,19.318 8.143,19.318 C7.898,19.318 7.702,19.51 7.677,19.774 C7.677,19.775 6.809,29.682 6.809,29.682 L7.677,39.228 C7.701,39.493 7.897,39.685 8.143,39.685 L8.143,39.685 Z M38.445,8.749 C37.84,8.749 37.355,9.23 37.343,9.846 L36.851,29.697 L37.343,39.249 C37.355,39.857 37.839,40.338 38.445,40.338 C39.049,40.338 39.531,39.858 39.545,39.242 L39.545,39.25 L40.097,29.698 L39.545,9.844 C39.531,9.23 39.049,8.749 38.445,8.749 L38.445,8.749 Z M23.055,40.33 C23.473,40.33 23.818,39.989 23.838,39.554 L24.606,29.691 L23.838,10.813 C23.817,10.377 23.473,10.037 23.055,10.037 C22.633,10.037 22.289,10.378 22.271,10.813 C22.271,10.814 21.591,29.691 21.591,29.691 L22.272,39.558 C22.289,39.989 22.633,40.33 23.055,40.33 L23.055,40.33 Z M31.631,39.399 L31.631,39.394 L32.291,29.694 L31.631,8.55 C31.615,8.025 31.201,7.613 30.69,7.613 C30.176,7.613 29.762,8.024 29.748,8.55 L29.162,29.693 L29.749,39.398 C29.763,39.918 30.177,40.329 30.69,40.329 C31.202,40.329 31.614,39.918 31.631,39.395 L31.631,39.399 L31.631,39.399 Z M81.549,17.506 C79.982,17.506 78.487,17.823 77.125,18.394 C76.215,8.086 67.571,0 57.027,0 C54.447,0 51.932,0.508 49.711,1.367 C48.848,1.701 48.618,2.045 48.61,2.712 L48.61,39.012 C48.619,39.712 49.162,40.295 49.845,40.364 C49.874,40.367 81.344,40.383 81.548,40.383 C87.864,40.383 92.985,35.262 92.985,28.945 C92.985,22.628 87.865,17.506 81.549,17.506 L81.549,17.506 Z M46.272,2.68 C45.585,2.68 45.021,3.244 45.011,3.937 L44.495,29.702 L45.012,39.053 C45.021,39.736 45.585,40.299 46.272,40.299 C46.957,40.299 47.521,39.736 47.531,39.043 L47.531,39.054 L48.092,29.702 L47.531,3.935 C47.521,3.244 46.957,2.68 46.272,2.68 L46.272,2.68 Z M9.236,47.654 C7.883,47.336 7.517,47.166 7.517,46.63 C7.517,46.252 7.822,45.861 8.736,45.861 C9.517,45.861 10.127,46.178 10.675,46.739 L11.906,45.545 C11.101,44.704 10.126,44.204 8.798,44.204 C7.114,44.204 5.749,45.155 5.749,46.704 C5.749,48.386 6.847,48.886 8.419,49.251 C10.028,49.616 10.321,49.861 10.321,50.41 C10.321,51.056 9.844,51.337 8.834,51.337 C8.017,51.337 7.249,51.057 6.651,50.36 L5.42,51.458 C6.066,52.409 7.311,53.006 8.736,53.006 C11.066,53.006 12.09,51.909 12.09,50.288 C12.09,48.434 10.59,47.971 9.236,47.654 L9.236,47.654 Z M17.09,44.204 C14.762,44.204 13.385,46.008 13.385,48.605 C13.385,51.202 14.762,53.005 17.09,53.005 C19.418,53.005 20.797,51.202 20.797,48.605 C20.797,46.008 19.418,44.204 17.09,44.204 L17.09,44.204 Z M17.09,51.312 C15.713,51.312 15.139,50.129 15.139,48.606 C15.139,47.082 15.713,45.899 17.09,45.899 C18.469,45.899 19.041,47.082 19.041,48.606 C19.041,50.129 18.469,51.312 17.09,51.312 L17.09,51.312 Z M27.686,49.13 C27.686,50.495 27.014,51.337 25.93,51.337 C24.845,51.337 24.187,50.471 24.187,49.106 L24.187,44.337 L22.479,44.337 L22.479,49.13 C22.479,51.616 23.87,53.006 25.93,53.006 C28.1,53.006 29.393,51.579 29.393,49.106 L29.393,44.337 L27.686,44.337 L27.686,49.13 L27.686,49.13 Z M36.756,47.947 C36.756,48.423 36.78,49.495 36.78,49.812 C36.67,49.592 36.39,49.166 36.183,48.848 L33.158,44.336 L31.525,44.336 L31.525,52.872 L33.208,52.872 L33.208,49.116 C33.208,48.64 33.184,47.568 33.184,47.251 C33.293,47.47 33.575,47.897 33.781,48.215 L36.915,52.872 L38.439,52.872 L38.439,44.336 L36.756,44.336 L36.756,47.947 L36.756,47.947 Z M43.303,44.337 L40.633,44.337 L40.633,52.873 L43.18,52.873 C45.375,52.873 47.546,51.604 47.546,48.605 C47.546,45.483 45.741,44.337 43.303,44.337 L43.303,44.337 Z M43.18,51.215 L42.34,51.215 L42.34,45.996 L43.242,45.996 C45.047,45.996 45.791,46.861 45.791,48.605 C45.791,50.166 44.973,51.215 43.18,51.215 L43.18,51.215 Z M52.825,45.898 C53.593,45.898 54.081,46.24 54.386,46.825 L55.971,46.094 C55.434,44.985 54.458,44.204 52.849,44.204 C50.62,44.204 49.058,46.008 49.058,48.605 C49.058,51.299 50.557,53.005 52.788,53.005 C54.337,53.005 55.361,52.286 55.946,51.079 L54.508,50.225 C54.057,50.982 53.605,51.311 52.837,51.311 C51.557,51.311 50.813,50.14 50.813,48.605 C50.812,47.021 51.546,45.898 52.825,45.898 L52.825,45.898 Z M59.156,44.337 L57.449,44.337 L57.449,52.873 L62.579,52.873 L62.579,51.189 L59.156,51.189 L59.156,44.337 L59.156,44.337 Z M67.076,44.204 C64.746,44.204 63.369,46.008 63.369,48.605 C63.369,51.202 64.746,53.005 67.076,53.005 C69.404,53.005 70.782,51.202 70.782,48.605 C70.782,46.008 69.404,44.204 67.076,44.204 L67.076,44.204 Z M67.076,51.312 C65.697,51.312 65.125,50.129 65.125,48.606 C65.125,47.082 65.697,45.899 67.076,45.899 C68.452,45.899 69.025,47.082 69.025,48.606 C69.025,50.129 68.452,51.312 67.076,51.312 L67.076,51.312 Z M77.67,49.13 C77.67,50.495 77.001,51.337 75.916,51.337 C74.829,51.337 74.172,50.471 74.172,49.106 L74.172,44.337 L72.465,44.337 L72.465,49.13 C72.465,51.616 73.855,53.006 75.916,53.006 C78.086,53.006 79.378,51.579 79.378,49.106 L79.378,44.337 L77.67,44.337 L77.67,49.13 L77.67,49.13 Z M84.181,44.337 L81.512,44.337 L81.512,52.873 L84.059,52.873 C86.255,52.873 88.424,51.604 88.424,48.605 C88.424,45.483 86.62,44.337 84.181,44.337 L84.181,44.337 Z M84.059,51.215 L83.218,51.215 L83.218,45.996 L84.121,45.996 C85.924,45.996 86.668,46.861 86.668,48.605 C86.668,50.166 85.851,51.215 84.059,51.215 L84.059,51.215 Z" id="Shape" sketch:type="MSShapeGroup"></path>
        </g>
    </g>
</svg>