<?xml version="1.0" encoding="UTF-8" standalone="no"?>
<svg width="600px" height="350px" viewBox="0 0 600 350" version="1.1" xmlns="http://www.w3.org/2000/svg" xmlns:xlink="http://www.w3.org/1999/xlink" xmlns:sketch="http://www.bohemiancoding.com/sketch/ns">
    <title>slash</title>
    <description>Created with Sketch (http://www.bohemiancoding.com/sketch)</description>
    <defs></defs>
    <g id="Page-1" stroke="none" stroke-width="1" fill="none" fill-rule="evenodd" sketch:type="MSPage">
        <rect id="Rectangle-1" fill-opacity="0.670898438" fill="#FFFFFF" sketch:type="MSShapeGroup" x="0" y="0" width="600" height="350"></rect>
        <text id="TOMAHAWK" sketch:type="MSTextLayer" font-family="Proxima Nova" font-size="66" font-style="condensed" font-weight="260" letter-spacing="2.66666675" fill="#FFFFFF">
            <tspan x="161" y="198">TOMAHAWK</tspan>
        </text>
        <g id="Shape-+-Shape" sketch:type="MSLayerGroup" transform="translate(70.000000, 139.000000)">
            <path d="M36.5004388,8 C20.7825043,8 8,20.7826107 8,36.4982447 C8,52.2130012 20.7816267,65 36.5004388,65 C38.7540067,65 40.9408803,64.7209152 43.0461411,64.2206688 L43.0461411,39.63751 L23.443259,53.5092536 C23.2695026,53.627733 23.0536234,53.6961877 22.8456422,53.6961877 C22.6841716,53.6961877 22.5191908,53.6619603 22.3708836,53.5768307 C22.0233707,53.3995504 21.8074916,53.0432346 21.8074916,52.6614676 L21.8074916,20.1428219 C21.8074916,19.761055 22.0233707,19.4012287 22.3708836,19.2186826 C22.7183964,19.049301 23.1290933,19.0791402 23.443259,19.2994242 L43.0461411,33.1720453 L43.0461411,19.105469 L43.8806984,19.105469 L51.7304512,19.105469 L51.7304512,60.5592166 C59.6951642,55.5005851 65,46.6155078 65,36.4973671 C65,20.7834883 52.2139855,8 36.5004388,8 L36.5004388,8 Z" id="Shape" sketch:type="MSShapeGroup"></path>
            <path d="M36.50176,0 C16.3729929,0 0,16.3741772 0,36.5 C0,56.6267028 16.3729929,73 36.50176,73 C56.6261271,73 73,56.6267028 73,36.5 C72.99912,16.3741772 56.6261271,0 36.50176,0 L36.50176,0 Z M51.729778,60.5592166 L51.729778,19.105469 L43.8801459,19.105469 L43.0456015,19.105469 L43.0456015,33.1720453 L23.4430212,19.2994242 C23.129738,19.0791402 22.7181698,19.049301 22.3706623,19.2186826 C22.0231548,19.4012287 21.807279,19.761055 21.807279,20.1428219 L21.807279,52.6614676 C21.807279,53.0432346 22.0231548,53.3995504 22.3706623,53.5768307 C22.5189673,53.6619603 22.6839456,53.6961877 22.8454137,53.6961877 C23.0525141,53.6961877 23.2683899,53.627733 23.4430212,53.5092536 L43.0456015,39.63751 L43.0456015,64.2206688 C40.9403732,64.7200376 38.7535333,65 36.5,65 C20.7823075,65 8,52.2130012 8,36.4982447 C8,20.7834883 20.7814299,8 36.5,8 C52.2133048,8 65,20.7826107 65,36.4982447 C64.9991225,46.6155078 59.6943683,55.5005851 51.729778,60.5592166 L51.729778,60.5592166 Z" id="Shape" fill="#FFFFFF" sketch:type="MSShapeGroup"></path>
        </g>
    </g>
</svg>