<?xml version="1.0" encoding="UTF-8" standalone="no"?>
<svg width="600px" height="350px" viewBox="0 0 600 350" version="1.1" xmlns="http://www.w3.org/2000/svg" xmlns:xlink="http://www.w3.org/1999/xlink" xmlns:sketch="http://www.bohemiancoding.com/sketch/ns">
    <title>splash-unrounded</title>
    <description>Created with Sketch (http://www.bohemiancoding.com/sketch)</description>
    <defs></defs>
    <g id="Page-1" stroke="none" stroke-width="1" fill="none" fill-rule="evenodd" sketch:type="MSPage">
        <g id="splash" sketch:type="MSLayerGroup">
            <g id="Page-1" sketch:type="MSShapeGroup">
                <rect id="Rectangle-1" fill="#E65D69" x="0" y="0" width="600" height="350"></rect>
                <g id="Shape-+-Shape" transform="translate(70.000000, 139.000000)">
                    <path d="M36.5004388,8 C20.7825043,8 8,20.7826107 8,36.4982447 C8,52.2130012 20.7816267,65 36.5004388,65 C38.7540067,65 40.9408803,64.7209152 43.0461411,64.2206688 L43.0461411,39.63751 L23.443259,53.5092536 C23.2695026,53.627733 23.0536234,53.6961877 22.8456422,53.6961877 C22.6841716,53.6961877 22.5191908,53.6619603 22.3708836,53.5768307 C22.0233707,53.3995504 21.8074916,53.0432346 21.8074916,52.6614676 L21.8074916,20.1428219 C21.8074916,19.761055 22.0233707,19.4012287 22.3708836,19.2186826 C22.7183964,19.049301 23.1290933,19.0791402 23.443259,19.2994242 L43.0461411,33.1720453 L43.0461411,19.105469 L43.8806984,19.105469 L51.7304512,19.105469 L51.7304512,60.5592166 C59.6951642,55.5005851 65,46.6155078 65,36.4973671 C65,20.7834883 52.2139855,8 36.5004388,8 L36.5004388,8 L36.5004388,8 Z" id="Shape"></path>
                    <path d="M36.50176,0 C16.3729929,0 0,16.3741772 0,36.5 C0,56.6267028 16.3729929,73 36.50176,73 C56.6261271,73 73,56.6267028 73,36.5 C72.99912,16.3741772 56.6261271,0 36.50176,0 L36.50176,0 L36.50176,0 Z M51.729778,60.5592166 L51.729778,19.105469 L43.8801459,19.105469 L43.0456015,19.105469 L43.0456015,33.1720453 L23.4430212,19.2994242 C23.129738,19.0791402 22.7181698,19.049301 22.3706623,19.2186826 C22.0231548,19.4012287 21.807279,19.761055 21.807279,20.1428219 L21.807279,52.6614676 C21.807279,53.0432346 22.0231548,53.3995504 22.3706623,53.5768307 C22.5189673,53.6619603 22.6839456,53.6961877 22.8454137,53.6961877 C23.0525141,53.6961877 23.2683899,53.627733 23.4430212,53.5092536 L43.0456015,39.63751 L43.0456015,64.2206688 C40.9403732,64.7200376 38.7535333,65 36.5,65 C20.7823075,65 8,52.2130012 8,36.4982447 C8,20.7834883 20.7814299,8 36.5,8 C52.2133048,8 65,20.7826107 65,36.4982447 C64.9991225,46.6155078 59.6943683,55.5005851 51.729778,60.5592166 L51.729778,60.5592166 L51.729778,60.5592166 Z" id="Shape" fill="#FFFFFF"></path>
                </g>
                <path d="M181.526,198 L181.526,157.41 L195.914,157.41 L195.914,153.978 L163.31,153.978 L163.31,157.41 L177.698,157.41 L177.698,198 L181.526,198 Z M221.522,198.792 C234.392,198.792 242.906,188.892 242.906,176.022 C242.906,163.152 234.392,153.252 221.522,153.252 C208.586,153.252 200.138,163.152 200.138,176.022 C200.138,188.892 208.586,198.792 221.522,198.792 Z M221.522,195.36 C210.896,195.36 204.098,187.11 204.098,176.022 C204.098,164.868 210.896,156.684 221.522,156.684 C232.082,156.684 238.946,164.868 238.946,176.022 C238.946,187.11 232.082,195.36 221.522,195.36 Z M293.396,198 L293.396,153.978 L287.72,153.978 L272.804,190.608 L257.822,153.978 L252.212,153.978 L252.212,198 L255.974,198 L255.974,158.73 L272.078,198 L273.53,198 L289.568,158.73 L289.568,198 L293.396,198 Z M340.586,198 L322.568,153.978 L317.882,153.978 L299.864,198 L304.22,198 L308.576,187.176 L331.874,187.176 L336.23,198 L340.586,198 Z M330.62,183.744 L309.83,183.744 L320.258,158.004 L330.62,183.744 Z M382.496,198 L382.496,153.978 L378.734,153.978 L378.734,173.646 L350.816,173.646 L350.816,153.978 L347.054,153.978 L347.054,198 L350.816,198 L350.816,177.078 L378.734,177.078 L378.734,198 L382.496,198 Z M429.686,198 L411.668,153.978 L406.982,153.978 L388.964,198 L393.32,198 L397.676,187.176 L420.974,187.176 L425.33,198 L429.686,198 Z M419.72,183.744 L398.93,183.744 L409.358,158.004 L419.72,183.744 Z M470.87,198 L483.41,153.978 L479.186,153.978 L468.56,192.72 L457.802,153.978 L454.37,153.978 L443.546,192.72 L432.92,153.978 L428.696,153.978 L441.302,198 L445.526,198 L456.086,160.182 L466.646,198 L470.87,198 Z M521.756,198 L501.23,174.966 L519.974,153.978 L515.156,153.978 L493.904,178.068 L493.904,153.978 L490.142,153.978 L490.142,198 L493.904,198 L493.904,182.622 L498.788,177.276 L516.938,198 L521.756,198 Z" id="TOMAHAWK" fill="#FFFFFF"></path>
            </g>
        </g>
    </g>
</svg>