<?xml version="1.0" encoding="UTF-8" standalone="no"?>
<svg width="304px" height="333px" viewBox="0 0 304 333" version="1.1" xmlns="http://www.w3.org/2000/svg" xmlns:xlink="http://www.w3.org/1999/xlink" xmlns:sketch="http://www.bohemiancoding.com/sketch/ns">
    <title>splash</title>
    <description>Created with Sketch (http://www.bohemiancoding.com/sketch)</description>
    <defs>
        <radialGradient cx="50%" cy="38.2163462%" fx="50%" fy="38.2163462%" r="321.977806%" id="radialGradient-1">
            <stop stop-color="#FEFFFE" offset="0%"></stop>
            <stop stop-color="#000000" offset="100%"></stop>
        </radialGradient>
        <filter x="-20%" y="-20%" width="140%" height="140%" filterUnits="objectBoundingBox" id="filter-2">
            <feOffset dx="0" dy="2" in="SourceAlpha" result="shadowOffsetOuter1"></feOffset>
            <feGaussianBlur stdDeviation="2" in="shadowOffsetOuter1" result="shadowBlurOuter1"></feGaussianBlur>
            <feColorMatrix values="0 0 0 0 0   0 0 0 0 0   0 0 0 0 0  0 0 0 0.7 0" in="shadowBlurOuter1" type="matrix" result="shadowMatrixOuter1"></feColorMatrix>
            <feMerge>
                <feMergeNode in="shadowMatrixOuter1"></feMergeNode>
                <feMergeNode in="SourceGraphic"></feMergeNode>
            </feMerge>
        </filter>
        <filter x="-20%" y="-20%" width="140%" height="140%" filterUnits="objectBoundingBox" id="filter-3">
            <feMorphology radius="5" in="SourceAlpha" operator="dilate" result="shadowSpreadInner1"></feMorphology>
            <feOffset dx="0" dy="1" in="shadowSpreadInner1" result="shadowOffsetInner1"></feOffset>
            <feGaussianBlur stdDeviation="1.5" in="shadowOffsetInner1" result="shadowBlurInner1"></feGaussianBlur>
            <feComposite in="shadowBlurInner1" in2="SourceAlpha" operator="arithmetic" k2="-1" k3="1" result="shadowInnerInner1"></feComposite>
            <feColorMatrix values="0 0 0 0 0   0 0 0 0 0   0 0 0 0 0  0 0 0 0.7 0" in="shadowInnerInner1" type="matrix" result="shadowMatrixInner1"></feColorMatrix>
            <feMerge>
                <feMergeNode in="SourceGraphic"></feMergeNode>
                <feMergeNode in="shadowMatrixInner1"></feMergeNode>
            </feMerge>
        </filter>
    </defs>
    <g id="Page-1" stroke="none" stroke-width="1" fill="none" fill-rule="evenodd" sketch:type="MSPage">
        <rect d="M11.9938714,2 C7.57897813,2 4,5.58048287 4,9.99335196 L4,319.006648 C4,323.421254 7.58290025,327 11.9938714,327 L292.006129,327 C296.421022,327 300,323.419517 300,319.006648 L300,9.99335196 C300,5.57874557 296.4171,2 292.006129,2 L11.9938714,2 Z M11.9938714,2" id="Rectangle-4" fill="url(#radialGradient-1)" filter="url(#filter-2)" sketch:type="MSShapeGroup" x="4" y="2" width="296" height="325" rx="8"></rect>
        <g id="tomahawk-icon" sketch:type="MSLayerGroup" transform="translate(108.523976, 83.845121)">
            <g id="Page-1" sketch:type="MSShapeGroup">
                <ellipse d="M43.976024,88.04 C68.2633126,88.04 87.952048,68.3512646 87.952048,44.063976 C87.952048,19.7766874 68.2633126,0.087952048 43.976024,0.087952048 C19.6887354,0.087952048 0,19.7766874 0,44.063976 C0,68.3512646 19.6887354,88.04 43.976024,88.04 Z M43.976024,88.04" id="Oval-1" stroke="#979797" fill="#FFFFFF" cx="43.976024" cy="44.063976" rx="43.976024" ry="43.976024"></ellipse>
                <g id="Group">
                    <path d="M43.9760316,9.57393941 C24.9881687,9.57393941 9.54641449,25.019712 9.54641449,44.0095827 C9.54641449,62.9983923 24.9871061,78.4494695 43.9760316,78.4494695 C46.6984278,78.4494695 49.3402543,78.1122393 51.8834898,77.5077704 L51.8834898,47.8028926 L28.2024618,64.564711 C27.9925575,64.7078746 27.7317672,64.7905915 27.4805181,64.7905915 C27.2854554,64.7905915 27.0861523,64.7492332 26.9069915,64.6463674 C26.4871828,64.432152 26.2263924,64.0016003 26.2263924,63.5402951 L26.2263924,24.246629 C26.2263924,23.7853237 26.4871827,23.3505302 26.9069915,23.1299521 C27.3268002,22.925281 27.8229378,22.9613371 28.2024618,23.2275155 L51.8834898,39.9903948 L51.8834898,22.9931515 L52.8916665,22.9931515 L62.3744669,22.9931515 L62.3744669,73.0834819 C71.9961439,66.9709219 78.4045878,56.2347051 78.4045878,44.0085243 C78.4045855,25.020783 62.9585849,9.57393941 43.9760316,9.57393941 L43.9760316,9.57393941" id="Shape"></path>
                    <path d="M43.9760316,0.0265208588 C19.7267767,0.0265208588 0.00212849594,19.7576617 0.00212849594,44.0095906 C0.00212849594,68.2625836 19.7267788,87.9926604 43.9760316,87.9926604 C68.2199849,87.9926604 87.9456969,68.2625815 87.9456969,44.0095906 C87.9446251,19.7576476 68.2199729,0.0265208588 43.9760316,0.0265208588 L43.9760316,0.0265208588 M62.3744625,73.0845482 L62.3744625,22.9942179 L52.8916624,22.9942179 L51.8834854,22.9942179 L51.8834854,39.9914611 L28.2024575,23.2285819 C27.8239936,22.9624034 27.3267959,22.9263474 26.9069872,23.1310185 C26.4871784,23.3515966 26.2263882,23.7863901 26.2263882,24.2476953 L26.2263882,63.5413616 C26.2263882,64.0026669 26.4871784,64.4332185 26.9069872,64.6474337 C27.086148,64.7502995 27.2854511,64.791658 27.4805137,64.791658 C27.7307028,64.791658 27.991493,64.7089412 28.2024575,64.5657775 L51.8834854,47.8039589 L51.8834854,77.5088367 C49.3402502,78.1122452 46.6984237,78.4505357 43.9760275,78.4505357 C24.9881644,78.4505357 9.54641018,62.9994606 9.54641018,44.0106489 C9.54641018,25.0218392 24.9871018,9.57500577 43.9760275,9.57500577 C62.9585908,9.57500577 78.4056447,25.0207783 78.4056447,44.0106489 C78.4045855,56.2357702 71.9961436,66.9719802 62.3744625,73.0845482 L60.7620121,11.6991258" id="Shape" fill="#E63E30"></path>
                </g>
            </g>
        </g>
        <path d="M61.068,63.2531211 L61.068,43.7411211 L68.052,43.7411211 L68.052,39.2411211 L48.9,39.2411211 L48.9,43.7411211 L55.92,43.7411211 L55.92,63.2531211 L61.068,63.2531211 Z M81.876,63.6851211 C89.112,63.6851211 94.404,58.5011211 94.404,51.2651211 C94.404,44.0291211 89.112,38.8451211 81.876,38.8451211 C74.604,38.8451211 69.312,44.0291211 69.312,51.2651211 C69.312,58.5011211 74.604,63.6851211 81.876,63.6851211 C81.876,63.6851211 74.604,63.6851211 81.876,63.6851211 Z M81.876,59.1491211 C77.412,59.1491211 74.568,55.7291211 74.568,51.2651211 C74.568,46.7651211 77.412,43.3811211 81.876,43.3811211 C86.304,43.3811211 89.148,46.7651211 89.148,51.2651211 C89.148,55.7291211 86.304,59.1491211 81.876,59.1491211 Z M124.032,63.2531211 L124.032,39.2411211 L116.832,39.2411211 L111,54.2531211 L105.168,39.2411211 L98.004,39.2411211 L98.004,63.2531211 L103.116,63.2531211 L103.116,45.9371211 L109.884,63.2531211 L112.116,63.2531211 L118.884,45.9371211 L118.884,63.2531211 L124.032,63.2531211 Z M151.176,63.2531211 L141.924,39.2411211 L135.516,39.2411211 L126.264,63.2531211 L132.06,63.2531211 L133.572,59.1851211 L143.868,59.1851211 L145.38,63.2531211 L151.176,63.2531211 Z M142.464,54.6851211 L134.976,54.6851211 L138.72,44.3531211 L142.464,54.6851211 Z M175.008,63.2531211 L175.008,39.2411211 L169.86,39.2411211 L169.86,48.6731211 L158.52,48.6731211 L158.52,39.2411211 L153.408,39.2411211 L153.408,63.2531211 L158.52,63.2531211 L158.52,53.1371211 L169.86,53.1371211 L169.86,63.2531211 L175.008,63.2531211 Z M202.116,63.2531211 L192.864,39.2411211 L186.456,39.2411211 L177.204,63.2531211 L183,63.2531211 L184.512,59.1851211 L194.808,59.1851211 L196.32,63.2531211 L202.116,63.2531211 Z M193.404,54.6851211 L185.916,54.6851211 L189.66,44.3531211 L193.404,54.6851211 Z M226.56,63.2531211 L233.4,39.2411211 L227.676,39.2411211 L223.464,56.5931211 L218.928,39.2411211 L214.932,39.2411211 L210.36,56.5931211 L206.148,39.2411211 L200.424,39.2411211 L207.3,63.2531211 L212.736,63.2531211 L216.912,46.7651211 L221.124,63.2531211 L226.56,63.2531211 Z M256.368,63.2531211 L246.18,50.5091211 L255.72,39.2411211 L249.42,39.2411211 L240.924,49.9331211 L240.924,39.2411211 L235.812,39.2411211 L235.812,63.2531211 L240.924,63.2531211 L240.924,55.8731211 L242.796,53.6051211 L250.068,63.2531211 L256.368,63.2531211 Z M256.368,63.2531211" id="TOMAHAWK" fill="#262626" filter="url(#filter-3)" sketch:type="MSShapeGroup"></path>
    </g>
</svg>