<?xml version="1.0" encoding="UTF-8" standalone="no"?>
<svg width="1000px" height="1000px" viewBox="0 0 1000 1000" version="1.1" xmlns="http://www.w3.org/2000/svg" xmlns:xlink="http://www.w3.org/1999/xlink" xmlns:sketch="http://www.bohemiancoding.com/sketch/ns">
    <title>Slice 1</title>
    <description>Created with Sketch (http://www.bohemiancoding.com/sketch)</description>
    <defs>
        <radialGradient cx="50.8262172%" cy="19.7598471%" fx="50.8262172%" fy="19.7598471%" r="50%" id="radialGradient-1">
            <stop stop-color="#A9D03F" offset="0%"></stop>
            <stop stop-color="#A9D03F" offset="7.105015%"></stop>
            <stop stop-color="#A1CC3E" offset="24.677444%"></stop>
            <stop stop-color="#94C93D" offset="45.569649%"></stop>
            <stop stop-color="#8DC540" offset="59.65941%"></stop>
            <stop stop-color="#84BC41" offset="79.657596%"></stop>
            <stop stop-color="#79B641" offset="100%"></stop>
        </radialGradient>
    </defs>
    <g id="Page 1" stroke="none" stroke-width="1" fill="none" fill-rule="evenodd" sketch:type="MSPage">
        <g id="svg2" sketch:type="MSLayerGroup" transform="translate(-3578.000000, -1.000000)">
            <g id="layer1" transform="translate(0.205880, 0.260670)" sketch:type="MSShapeGroup">
                <g id="g3128" transform="translate(3577.939315, 0.777349)">
                    <g id="g3099" transform="translate(0.354801, 0.209030)">
                        <path d="M193.437643,632.659533 L195.123066,649.176693 L207.876102,655.075649 C208.61026,635.537611 220.760227,623.670557 236.809201,620.805363 C287.667189,609.746278 350.224972,599.175766 423.104651,599.175766 C537.69697,599.175766 636.546844,627.589457 716.536846,676.368177 C728.346469,683.54526 732.213989,692.48324 733.896707,704.34618 L778.335699,675.581658 L767.09954,631.311187 L435.408243,542.320795 L125.290361,581.872088 L193.437643,632.659533 Z M193.437643,632.659533" id="path3103" stroke="#008080" stroke-width="0.60321335" fill="#7A9F3F"></path>
                        <path d="M172.482213,509.286544 L187.538661,503.607354 C188.063083,484.734552 198.241386,469.043304 220.011149,463.105899 C276.33546,446.55852 342.484544,436.195362 414.733719,436.195362 C553.337209,436.195362 680.365755,472.505672 773.168293,528.463296 C788.018896,537.582595 793.722856,544.317514 796.523759,568.200359 L864.776004,530.687943 L578.11458,396.57358 L98.8624405,424.540587 L172.482213,509.286544 Z M172.482213,509.286544" id="path3105" stroke="#000080" stroke-width="0.60321335" fill="#82A73E"></path>
                        <path d="M153.605473,350.070232 C152.076157,321.873002 166.872726,301.582443 188.549915,295.350126 C259.810578,274.652277 336.233219,264.506862 426.53168,264.506862 C576.724736,264.506862 727.614818,295.943186 838.000808,359.708052 C859.696193,371.514802 865.964969,387.375427 867.14592,411.606877 L935.646849,366.381993 L730.026064,192.541832 L100.769276,259.916791 L153.605473,350.070232 Z M153.605473,350.070232" id="path3107" stroke="#000000" stroke-width="0.60321335" fill="#81A83E"></path>
                        <path d="M499.499987,0.252954078 C223.636558,0.252954078 0,223.868339 0,499.731895 C0,775.595316 223.636558,999.231882 499.499987,999.231882 C775.363415,999.231882 998.999974,775.595316 998.999974,499.731895 C998.999974,223.868339 775.363415,0.252954078 499.499987,0.252954078 L499.499987,0.252954078 Z M426.206543,260.943245 C572.876178,260.943245 727.193376,291.113719 839.912938,357.318749 C855.106318,365.924044 865.651016,378.898295 865.651016,402.681847 C865.651016,429.910701 843.765436,449.478352 818.538319,449.478352 C808.368472,449.478352 802.334438,447.003989 792.800241,441.784298 C702.388396,387.571922 562.085689,357.719226 426.396258,357.719226 C358.663817,357.719226 289.87104,364.607334 226.857649,381.707704 C219.600156,383.534168 210.428242,387.16733 201.246049,387.16733 C174.600109,387.16733 154.154431,366.087014 154.154431,339.443328 C154.154431,312.298387 170.977823,297.060501 189.125333,291.698212 C260.328459,270.721438 339.807595,260.943245 426.206543,260.943245 L426.206543,260.943245 Z M416.025141,432.57252 C546.769259,432.57252 673.250636,465.135467 772.690392,524.647805 C789.361104,534.207108 795.498418,546.34634 795.498418,564.129754 C795.498418,585.758205 778.279496,603.232205 756.564569,603.232205 C745.726425,603.232205 738.908806,598.852727 731.543195,594.568562 C650.290675,546.350185 537.6778,514.318914 414.35986,514.318914 C351.11133,514.318914 296.518727,523.175342 251.330956,535.208671 C241.595233,537.888096 236.137204,540.773661 227.026285,540.773661 C205.543773,540.773661 188.008119,523.267822 188.008119,501.607938 C188.008119,480.36762 198.309807,465.742557 219.079311,459.89156 C275.228953,444.470603 332.567773,432.57252 416.025141,432.57252 L416.025141,432.57252 Z M422.875981,595.685809 C532.179064,595.685809 629.593366,620.760574 713.414819,671.002852 C725.890454,678.286513 733.208476,685.729501 733.208476,704.203109 C733.208476,722.209932 718.564432,735.44287 702.137283,735.44287 C694.05938,735.44287 688.548347,732.640611 680.994538,728.043997 C608.602224,684.246044 518.339022,661.221961 422.538709,661.221961 C369.09223,661.221961 315.300392,668.07641 264.990477,678.549316 C256.809701,680.322827 246.514832,683.48192 240.369613,683.48192 C221.400881,683.48192 208.750353,668.414491 208.750353,652.094569 C208.750353,631.105451 220.860397,620.6544 235.921837,617.777132 C297.616561,603.71727 359.058918,595.685809 422.875981,595.685809 L422.875981,595.685809 Z M422.875981,595.685809" id="path3101" fill="url(#radialGradient-1)"></path>
                    </g>
                </g>
            </g>
        </g>
    </g>
</svg>