<?xml version="1.0" encoding="UTF-8" standalone="no"?>
<!-- Created with Inkscape (http://www.inkscape.org/) -->

<svg
   xmlns:dc="http://purl.org/dc/elements/1.1/"
   xmlns:cc="http://creativecommons.org/ns#"
   xmlns:rdf="http://www.w3.org/1999/02/22-rdf-syntax-ns#"
   xmlns:svg="http://www.w3.org/2000/svg"
   xmlns="http://www.w3.org/2000/svg"
   version="1.1"
   width="194.88251"
   height="194.88251"
   id="svg3252"
   xml:space="preserve"><metadata
     id="metadata3258"><rdf:RDF><cc:Work
         rdf:about=""><dc:format>image/svg+xml</dc:format><dc:type
           rdf:resource="http://purl.org/dc/dcmitype/StillImage" /><dc:title></dc:title></cc:Work></rdf:RDF></metadata><defs
     id="defs3256"><clipPath
       id="clipPath3266"><path
         d="m 0,155.906 155.906,0 L 155.906,0 0,0 0,155.906 z"
         id="path3268" /></clipPath></defs><g
     transform="matrix(1.25,0,0,-1.25,0,194.8825)"
     id="g3260"><g
       id="g3262"><g
         clip-path="url(#clipPath3266)"
         id="g3264"><g
           transform="translate(0,3.7119)"
           id="g3270"><path
             d="m 0,0 c 0,-2.051 1.661,-3.712 3.711,-3.712 l 148.482,0 c 2.051,0 3.712,1.661 3.712,3.712 l 0,148.481 c 0,2.051 -1.661,3.712 -3.712,3.712 l -148.482,0 C 1.661,152.193 0,150.532 0,148.481 L 0,0 z"
             id="path3272"
             style="fill:#84b82d;fill-opacity:1;fill-rule:nonzero;stroke:none" /></g><path
           d="m 104.527,43.722 -1.413,0 0,-8.581 1.413,0 0,8.581 z m -9.569,0 -3.632,0 0,-8.581 3.632,0 0,8.581 z m 26.71,0.309 c 0.384,-1.071 0.562,-1.567 1.121,-3.13 0.482,1.522 0.636,2.005 0.966,3.05 -0.546,0.282 -0.938,0.774 -1.104,1.377 -0.151,-0.556 -0.502,-1.007 -0.983,-1.297 M 73.945,40.634 c 0.77,0.721 1.244,2.129 1.3,3.861 0.062,1.88 -0.288,3.327 -0.986,4.07 -0.251,0.27 -0.697,0.627 -1.662,0.661 -2.568,0.083 -2.885,-3.516 -2.919,-4.622 -0.057,-1.69 0.327,-3.098 1.048,-3.87 0.411,-0.438 0.924,-0.661 1.572,-0.681 0.669,-0.023 1.206,0.168 1.647,0.581 M 54.063,34.827 c 1.646,0 2.482,1.549 2.482,4.605 0,1.377 -0.229,4.573 -2.343,4.573 -0.725,0 -1.34,-0.323 -1.824,-0.963 -0.607,-0.804 -0.94,-2.011 -0.94,-3.397 0,-2.33 0.688,-4.818 2.625,-4.818 m -10.977,8.859 -2.489,0 c 1.007,-0.572 1.829,-1.273 2.489,-2.048 0.004,2.343 0,0.773 0,2.048 m -8.9,-10.275 c 1.034,0 2.768,0.238 2.768,1.846 0,0.947 -0.584,1.431 -4.082,1.786 -1.598,0.158 -3.003,0.313 -4.398,0.768 0.233,-0.174 0.466,-0.35 0.616,-0.608 l 0.071,-0.117 c 1.19,-2.011 2.387,-3.675 5.025,-3.675 m 2.494,11.677 c -0.425,0.926 -0.593,1.133 -0.901,1.462 -0.889,0.912 -2.008,1.416 -3.149,1.416 -1.627,0 -2.626,-0.747 -2.626,-1.282 0,-0.214 0.231,-0.364 0.444,-0.458 0.62,-0.288 1.275,-0.464 3.311,-0.694 1.22,-0.137 2.106,-0.269 2.921,-0.444 m 104.654,3.791 0,-2.929 c 0,-1.227 -0.995,-2.264 -2.222,-2.264 l -7.338,0 c -0.859,-2.594 -6.047,-18.247 -6.047,-18.247 -1.262,-3.657 -4.042,-4.15 -6.594,-4.15 l -2.69,0 c -1.226,0 -2.22,0.995 -2.22,2.222 l 0,3.115 c 0,0.59 0.299,1.153 0.717,1.569 0.418,0.417 1.051,0.649 1.641,0.647 l 1.227,-0.002 0.547,0.007 c 0.161,0 0.249,0.006 0.334,0.011 0.048,0.116 0.112,0.286 0.194,0.541 0.005,0.015 0.024,0.087 0.036,0.13 -0.43,1.136 -4.494,11.878 -5.355,14.157 l -0.877,0 0,-8.541 0.147,0 c 1.228,0 2.222,-0.998 2.222,-2.222 l 0,-3.008 c 0,-1.227 -0.994,-2.222 -2.222,-2.222 l -22.032,0 c -4.758,0 -7.598,2.611 -7.598,7.103 l 0,6.342 0,0.002 c -0.581,-2.292 -1.709,-4.281 -3.298,-5.77 -2.108,-1.975 -4.848,-2.967 -7.924,-2.867 -2.969,0.094 -5.497,1.222 -7.35,3.101 l 0.002,0 c -1.195,-4.994 -4.801,-8.334 -9.44,-8.334 -0.561,0 -1.083,0.04 -1.57,0.115 0.048,-0.18 0.111,-0.353 0.111,-0.547 l 0,-3.008 c 0,-1.226 -0.995,-2.222 -2.222,-2.222 l -8.243,0 c -1.228,0 -2.221,0.996 -2.221,2.222 l 0,3.386 C 39.366,26.059 37.309,25.394 35,25.394 c -2.422,0 -4.249,0.657 -5.719,1.58 -0.135,-0.484 -0.385,-1.031 -0.845,-1.521 -0.489,-0.519 -1.373,-1.138 -2.81,-1.138 -1.434,0 -2.318,0.617 -2.806,1.134 -1.045,1.108 -1.023,2.516 -1.007,2.786 -0.002,-0.043 -0.003,-0.084 -0.003,-0.127 l 0,7.961 c 0,1.228 0.996,2.221 2.222,2.221 l 3.149,0 c 0.004,0 0.007,-0.002 0.01,-0.002 -0.905,0.396 -1.96,0.973 -2.757,1.847 -1.623,1.719 -2.517,3.958 -2.517,6.303 0,2.615 1.08,5.01 3.044,6.747 1.889,1.668 4.462,2.586 7.244,2.586 2.012,0 3.609,-0.526 4.891,-1.217 0.406,0.437 0.973,0.719 1.619,0.719 l 3.148,0 c 1.227,0 2.221,-0.993 2.221,-2.22 l 0,-1.918 5.164,0 c 0.606,0 1.151,-0.245 1.553,-0.638 1.166,0.631 2.596,1.065 4.428,1.065 2.639,0 4.914,-1.048 6.609,-2.87 l 0,-10e-4 c 1.469,5.004 5.679,8.259 10.967,8.087 4.246,-0.136 7.58,-2.242 9.38,-5.643 l 1.019,0 0,3.334 c 0,1.226 0.994,2.221 2.222,2.221 l 3.678,0 c 1.228,0 2.222,-0.995 2.222,-2.221 l 0,-3.334 3.632,0 0,3.334 c 0,1.226 0.994,2.221 2.222,2.221 l 3.713,0 c 1.228,0 2.221,-0.995 2.221,-2.221 l 0,-3.334 1.413,0 0,1.885 c 0,2.469 1.136,3.81 2.089,4.498 1.191,0.859 2.785,1.259 5.015,1.259 l 2.723,0 c 1.228,0 2.223,-0.994 2.223,-2.22 l 0,-2.937 c 0,-1.227 -0.995,-2.222 -2.223,-2.222 l -1.667,0 0,-0.263 7.86,0 c 1.021,0 1.846,-0.703 2.104,-1.642 0.261,0.939 1.084,1.642 2.105,1.642 l 14.356,0 c 1.227,0 2.222,-1.029 2.222,-2.256"
           id="path3274"
           style="fill:#5e9536;fill-opacity:1;fill-rule:nonzero;stroke:none" /><g
           transform="translate(27.1812,36.0693)"
           id="g3276"><path
             d="m 0,0 c 1.027,-1.732 2.794,-4.881 7.005,-4.881 3.042,0 4.99,1.59 4.99,4.068 0,3.398 -3.645,3.751 -6.087,3.998 -1.803,0.177 -3.114,0.317 -4.387,0.814 -0.743,0.282 -1.912,0.777 -2.654,1.592 -1.203,1.273 -1.91,2.972 -1.91,4.777 0,4.069 3.433,7.111 8.067,7.111 3.29,0 5.201,-1.769 6.51,-2.972 l 0,2.476 3.148,0 0,-7.147 -3.113,0 c -0.532,1.167 -0.815,1.593 -1.38,2.196 -1.309,1.342 -3.006,2.086 -4.74,2.086 -2.761,0 -4.847,-1.522 -4.847,-3.504 0,-1.061 0.635,-1.979 1.732,-2.474 0.921,-0.426 1.805,-0.638 3.999,-0.887 2.229,-0.248 3.184,-0.459 4.564,-0.92 3.997,-1.38 5.023,-4.812 5.023,-6.934 0,-4.528 -3.431,-7.853 -8.101,-7.853 -3.963,0 -5.874,2.121 -7.785,4.175 l 0,-3.682 c 0,0 0.094,-1.572 -1.589,-1.572 -1.682,0 -1.594,1.572 -1.594,1.572 L -3.149,0 0,0 z"
             id="path3278"
             style="fill:#ffffff;fill-opacity:1;fill-rule:nonzero;stroke:none" /></g><g
           transform="translate(54.0635,32.6055)"
           id="g3280"><path
             d="m 0,0 c 3.006,0 4.702,2.441 4.702,6.826 0,4.246 -1.696,6.794 -4.564,6.794 -2.935,0 -4.988,-2.723 -4.988,-6.581 C -4.85,2.722 -2.938,0 0,0 m -4.815,13.584 c 1.487,1.946 3.113,3.149 5.981,3.149 4.493,0 7.607,-4.104 7.607,-10.013 0,-5.696 -3.221,-9.834 -7.642,-9.834 -3.397,0 -4.883,1.839 -5.946,3.148 l 0,-5.802 2.265,0 0,-3.007 -8.244,0 0,3.007 2.264,0 0,19.068 -2.264,0 0,3.008 5.979,0 0,-2.724 z"
             id="path3282"
             style="fill:#ffffff;fill-opacity:1;fill-rule:nonzero;stroke:none" /></g><g
           transform="translate(77.4663,44.4209)"
           id="g3284"><path
             d="M 0,0 C 0.14,4.351 -1.58,6.922 -4.799,7.025 -7.875,7.124 -9.872,4.5 -10.01,0.256 -10.142,-3.775 -8.282,-6.49 -5.241,-6.59 -2.165,-6.688 -0.133,-4.137 0,0 m -13.962,0.667 c 0.186,5.693 4.031,9.64 9.229,9.472 5.375,-0.175 8.888,-4.254 8.696,-10.125 -0.192,-5.943 -4,-9.887 -9.375,-9.712 -5.269,0.171 -8.744,4.388 -8.55,10.365"
             id="path3286"
             style="fill:#ffffff;fill-opacity:1;fill-rule:nonzero;stroke:none" /></g><g
           transform="translate(85.4258,54.4688)"
           id="g3288"><path
             d="m 0,0 3.679,0 0,-5.556 4.246,0 0,-3.007 -4.246,0 0,-10.93 c 0,-2.411 1.92,-2.053 4.246,-2.053 l 0,-3.078 -2.549,0 c -3.21,0 -5.376,1.359 -5.376,4.951 l 0,11.11 -2.433,0 c 0,0 -0.054,0.777 -0.157,1.47 -0.101,0.695 -0.333,1.537 -0.333,1.537 L 0,-5.556 0,0 z"
             id="path3290"
             style="fill:#ffffff;fill-opacity:1;fill-rule:nonzero;stroke:none" /></g><g
           transform="translate(94.9492,48.9131)"
           id="g3292"><path
             d="m 0,0 5.943,0 0,-15.99 2.124,0 0,-3.008 -8.101,0 0,3.008 2.264,0 0,13.018 -2.23,0 L 0,0 z"
             id="path3294"
             style="fill:#ffffff;fill-opacity:1;fill-rule:nonzero;stroke:none" /></g><path
           d="m 97.18,54.469 3.713,0 0,-3.325 -3.713,0 0,3.325 z"
           id="path3296"
           style="fill:#ffffff;fill-opacity:1;fill-rule:nonzero;stroke:none" /><g
           transform="translate(110.4639,45.9053)"
           id="g3298"><path
             d="m 0,0 0,-12.982 2.37,0 0,-3.008 -8.278,0 0,3.008 2.192,0 0,12.982 -2.972,0 0,3.008 2.972,0 0,4.106 c 0,2.476 1.487,3.537 4.883,3.537 l 2.724,0 0,-2.936 -2.157,0 C 0.426,7.715 0,7.29 0,6.087 l 0,-3.079 10.083,0 L 10.083,0 8.172,0 12.455,-11.956 16.24,0 l -1.948,0 0,3.008 7.184,0 0,-3.008 -1.769,0 -6.546,-19.74 c -0.706,-2.053 -1.875,-2.655 -4.492,-2.655 l -2.69,0 0,3.116 c 0.566,-0.036 1.451,0 1.913,0 1.662,0 2.086,0.352 2.652,2.122 l 0.247,0.884 L 4.635,0 0,0 z"
             id="path3300"
             style="fill:#ffffff;fill-opacity:1;fill-rule:nonzero;stroke:none" /></g><g
           transform="translate(133.2666,48.8789)"
           id="g3302"><path
             d="m 0,0 2.194,0 0,-1.11 -0.37,0 0,0.726 -0.493,0 0,-2.162 0.331,0 0,-0.383 -1.135,0 0,0.383 0.338,0 0,2.162 -0.495,0 0,-0.713 -0.37,0 L 0,0 z"
             id="path3304"
             style="fill:#ffffff;fill-opacity:1;fill-rule:nonzero;stroke:none" /></g><g
           transform="translate(135.7598,48.8789)"
           id="g3306"><path
             d="M 0,0 1.014,0 1.678,-2.214 2.352,0 l 1.001,0 0,-0.384 -0.295,0 0,-2.162 0.295,0 0,-0.383 -0.724,0 0,2.624 -0.788,-2.624 -0.312,0 -0.797,2.617 0,-2.617 -0.732,0 0,0.383 0.303,0 0,2.162 L 0,-0.384 0,0 z"
             id="path3308"
             style="fill:#ffffff;fill-opacity:1;fill-rule:nonzero;stroke:none" /></g><g
           transform="translate(79.1582,58.2109)"
           id="g3310"><path
             d="m 0,0 c -2.762,1.688 -6.185,2.082 -10.174,1.169 -0.352,-0.08 -0.571,-0.43 -0.491,-0.781 0.079,-0.352 0.431,-0.571 0.782,-0.492 3.646,0.833 6.742,0.494 9.202,-1.009 0.306,-0.188 0.71,-0.091 0.899,0.217 C 0.404,-0.587 0.309,-0.186 0,0"
             id="path3312"
             style="fill:#5e9536;fill-opacity:1;fill-rule:nonzero;stroke:none" /></g><g
           transform="translate(80.3877,61.29)"
           id="g3314"><path
             d="m 0,0 c -3.233,1.986 -7.963,2.547 -11.768,1.392 -0.431,-0.13 -0.675,-0.586 -0.544,-1.018 0.132,-0.432 0.588,-0.676 1.02,-0.544 3.329,1.01 7.623,0.51 10.438,-1.223 0.383,-0.234 0.886,-0.114 1.124,0.27 C 0.504,-0.739 0.384,-0.237 0,0"
             id="path3316"
             style="fill:#538434;fill-opacity:1;fill-rule:nonzero;stroke:none" /></g><g
           transform="translate(81.7666,64.8672)"
           id="g3318"><path
             d="m 0,0 c -3.885,2.307 -10.037,2.524 -13.738,1.399 -0.518,-0.157 -0.81,-0.704 -0.652,-1.221 0.156,-0.518 0.702,-0.811 1.222,-0.654 3.221,0.98 8.792,0.794 12.169,-1.211 0.464,-0.276 1.065,-0.124 1.341,0.342 C 0.618,-0.878 0.466,-0.278 0,0"
             id="path3320"
             style="fill:#467232;fill-opacity:1;fill-rule:nonzero;stroke:none" /></g></g></g></g></svg>