<?xml version="1.0" encoding="UTF-8" standalone="no"?>
<svg width="47px" height="47px" version="1.1" xmlns="http://www.w3.org/2000/svg" xmlns:xlink="http://www.w3.org/1999/xlink" xmlns:sketch="http://www.bohemiancoding.com/sketch/ns">
    <title>spotify-logo</title>
    <description>Created with Sketch (http://www.bohemiancoding.com/sketch)</description>
    <defs>
        <linearGradient x1="62.2222222%" y1="-109.879447%" x2="62.2222222%" y2="100.079007%" id="linearGradient-1">
            <stop stop-color="rgb(211,224,107)" offset="0%"></stop>
            <stop stop-color="rgb(133,163,46)" offset="100%"></stop>
        </linearGradient>
        <linearGradient x1="132.472281%" y1="113.795168%" x2="-9.02630224%" y2="19.3853017%" id="linearGradient-2">
            <stop stop-color="rgb(107,126,50)" offset="0%"></stop>
            <stop stop-color="rgb(60,73,24)" offset="100%"></stop>
        </linearGradient>
        <linearGradient x1="114.177516%" y1="87.9933558%" x2="2.46797803%" y2="25.4018941%" id="linearGradient-3">
            <stop stop-color="rgb(107,126,50)" offset="0%"></stop>
            <stop stop-color="rgb(60,73,24)" offset="100%"></stop>
        </linearGradient>
        <linearGradient x1="149.680203%" y1="114.783395%" x2="-1.23068876%" y2="20.5175511%" id="linearGradient-4">
            <stop stop-color="rgb(107,126,50)" offset="0%"></stop>
            <stop stop-color="rgb(60,73,24)" offset="100%"></stop>
        </linearGradient>
        <linearGradient x1="65.1692878%" y1="-1.15412394%" x2="65.1692878%" y2="100.967712%" id="linearGradient-5">
            <stop stop-color="rgb(254,255,254)" offset="0%"></stop>
            <stop stop-color="rgb(254,255,254)" stop-opacity="0" offset="100%"></stop>
        </linearGradient>
        <radialGradient cx="47.4050141%" cy="100.000123%" fx="47.4050141%" fy="100.000123%" r="50%" id="radialGradient-6">
            <stop stop-color="rgb(107,126,50)" offset="0%"></stop>
            <stop stop-color="rgb(60,73,24)" offset="100%"></stop>
        </radialGradient>
    </defs>
    <g id="Page 1" fill="rgb(215,215,215)" fill-rule="evenodd">
        <g id="svg2" fill="rgb(0,0,0)">
            <g id="layer1">
                <path d="M46,23.4999996 C46,35.9264065 35.9264069,45.9999996 23.5,45.9999996 C11.0735931,45.9999996 1,35.9264065 1,23.4999996 C1,11.0735927 11.0735931,0.999999617 23.5,0.999999617 C35.9264069,0.999999617 46,11.0735927 46,23.4999996 C46,23.4999996 46,11.0735927 46,23.4999996 L46,23.4999996" id="path5513" fill="url(#linearGradient-1)"></path>
                <path d="M10.3002453,11.6195555 C8.24102688,12.012805 7.94257736,15.3554049 10.7654648,15.3130732 C21.9770622,13.2014904 31.0487232,15.4988899 39.6700478,19.8260403 C40.8082466,20.3789711 42.6476097,18.0287037 41.0204697,16.7585106 C31.3168354,11.6140623 19.9609756,9.87804699 10.3002453,11.6195555 C10.3002453,11.6195555 19.9609756,9.87804699 10.3002453,11.6195555 L10.3002453,11.6195555" id="path7661" fill="url(#linearGradient-2)"></path>
                <path d="M12.3035316,19.1448269 C10.172718,19.3810368 9.82939053,22.9693108 12.5619602,22.6482792 C21.9036541,21.5098209 27.8536301,22.6287899 35.6833229,25.8085918 C37.6471901,26.8732643 38.7249985,23.4825859 36.9293365,22.6049614 C28.1335659,18.8897991 21.4121304,18.7261505 12.3035316,19.1448269 C12.3035316,19.1448269 21.4121304,18.7261505 12.3035316,19.1448269 L12.3035316,19.1448269" id="path7666" opacity="0.8" fill="url(#linearGradient-3)"></path>
                <path d="M14.4476528,25.7030106 C12.7541599,26.3083305 13.0538054,29.1486492 14.8631124,29.0521393 C17.8708324,28.7223721 20.1539478,28.7061386 23.6155319,29.0975533 C27.1264324,29.494545 29.2332573,30.4359741 32.1573563,31.4530487 C33.3504066,31.9618759 34.4471741,29.7644825 33.1875381,28.5280266 C29.9664268,27.2747231 27.415802,26.1748791 23.3885059,25.7194977 C20.0840149,25.3480473 17.7555847,25.3715115 14.4476528,25.7030106 C14.4476528,25.7030106 17.7555847,25.3715115 14.4476528,25.7030106 L14.4476528,25.7030106" id="path7668" opacity="0.6" fill="url(#linearGradient-4)"></path>
                <path d="M23.4999995,44.9999992 C11.6258773,44.9999992 1.9999994,35.3741214 1.9999994,23.4999993 C1.9999994,11.6258773 11.6258773,1.99999946 23.4999995,1.99999946 C35.3741217,1.99999946 44.9999996,11.6258773 44.9999996,23.4999993 C44.9999996,35.3741214 35.3741217,44.9999992 23.4999995,44.9999992 Z M23.4999995,44.9999992" id="path3894" stroke="rgb(0,0,0)" stroke-width="0.955555555" opacity="0.2"></path>
                <path d="M7.34768963,38.6745071 C7.87801963,38.6745071 11.00822,31.347157 22.94065,32.7613673 C34.8730803,34.1755773 36.25068,42.033257 36.25068,42.033257 C34.2001801,43.433877 32.01899,44.6602271 29.2680001,45.126857 C29.2680001,45.126857 26.2690802,39.5798371 20.8773904,39.933387 C15.4857006,40.286937 13.6232605,43.4474771 13.6232605,43.4474771 C10.8516705,42.4523971 8.70550013,40.8477371 7.34769011,38.6745069 C7.34769011,38.6745069 8.70550013,40.8477371 7.34769011,38.6745069 L7.34768963,38.6745071" id="path5529" fill="url(#radialGradient-6)"></path>
                <path d="M23.4999995,45.9999993 C11.0735926,46.0000012 0.9999995,35.9264062 0.9999995,23.4999993 C0.99999895,11.0735925 11.0735926,0.999999335 23.4999995,0.999999335 C35.9264064,0.999999335 45.9999995,11.0735925 45.9999995,23.4999993 C45.9999995,35.9264062 35.9264064,45.9999993 23.4999995,45.9999993 Z M23.4999995,45.9999993" id="path3892" stroke="rgb(117,143,56)" stroke-width="1"></path>
            </g>
        </g>
    </g>
</svg>