<?xml version="1.0" encoding="UTF-8" standalone="no"?>
<svg width="51px" height="48px" version="1.1" xmlns="http://www.w3.org/2000/svg" xmlns:xlink="http://www.w3.org/1999/xlink" xmlns:sketch="http://www.bohemiancoding.com/sketch/ns">
    <title>starred</title>
    <description>Created with Sketch (http://www.bohemiancoding.com/sketch)</description>
    <defs>
        <radialGradient cx="50%" cy="58.0597016%" fx="50%" fy="58.0597016%" r="100%" id="radialGradient-1">
            <stop stop-color="rgb(233,105,103)" offset="0%"></stop>
            <stop stop-color="rgb(150,44,38)" offset="100%"></stop>
        </radialGradient>
    </defs>
    <g id="Page 1" fill="rgb(215,215,215)" fill-rule="evenodd">
        <path d="M48.8930068,17.4339878 L32.0770068,17.0949878 L26.5580068,1.38198751 C26.3820068,0.880987525 25.9090068,0.545987487 25.3780068,0.545987487 C24.8470069,0.545987487 24.3740069,0.880987495 24.1980069,1.38198751 L18.6780069,17.0949878 L1.8620069,17.4339878 C1.32900691,17.4449878 0.861006856,17.7929878 0.698006868,18.2999878 C0.534006864,18.8079878 0.711006869,19.3629878 1.13700688,19.6839877 L14.5290071,29.7319881 L9.66400731,45.6449882 C9.5090073,46.1529882 9.69100731,46.7049881 10.1210073,47.0189881 C10.5490073,47.3309881 11.1310073,47.3419881 11.5680073,47.0399881 L25.3780077,37.5309883 L39.190008,47.0399881 C39.404008,47.1869881 39.652008,47.2609881 39.899008,47.2609881 C40.159008,47.2609881 40.419008,47.1799881 40.638008,47.0189881 C41.067008,46.7059881 41.249008,46.1539881 41.094008,45.6449882 L36.2240081,29.7329885 L49.6180082,19.6849881 C50.0440063,19.3629761 50.2210083,18.8079834 50.0570068,18.2999878 C49.8940068,17.7929878 49.4260069,17.4449878 48.8930068,17.4339878 Z M48.8930068,17.4339878" id="Shape" fill="url(#radialGradient-1)"></path>
    </g>
</svg>