<?xml version="1.0" encoding="UTF-8" standalone="no"?>
<svg width="65px" height="65px" version="1.1" xmlns="http://www.w3.org/2000/svg" xmlns:xlink="http://www.w3.org/1999/xlink" xmlns:sketch="http://www.bohemiancoding.com/sketch/ns">
    <title>station</title>
    <description>Created with Sketch (http://www.bohemiancoding.com/sketch)</description>
    <defs>
        <radialGradient cx="50%" cy="65.3320312%" fx="50%" fy="65.3320312%" r="104.403985%" id="radialGradient-1">
            <stop stop-color="rgb(234,223,222)" stop-opacity="0.675953585" offset="0%"></stop>
            <stop stop-color="rgb(249,247,245)" offset="100%"></stop>
        </radialGradient>
        <path d="M34.7205264,23.8658403 L43.7497617,6.06399576 C45.0702623,5.97554713 46.1191884,4.88551118 46.1191884,3.54134096 C46.1191884,2.13737466 44.9818137,1 43.5790931,1 C42.1763724,1 41.0377521,2.13737466 41.0377521,3.54134096 C41.0377521,4.04213465 41.19098,4.50680137 41.4413769,4.90170587 L31.8228992,23.8658398 L30.9421501,23.8658398 L22.5694278,9.42255184 C22.9132563,8.98653746 23.1275263,8.44463382 23.1275263,7.84791695 C23.1275263,6.44395065 21.9913974,5.30657599 20.587431,5.30657599 C19.1847103,5.30657599 18.0498273,6.44395065 18.0498273,7.84791695 C18.0498273,9.08619784 18.9392966,10.1164375 20.1140439,10.3394277 L27.9560743,23.8658396 L4.26056096,23.8658396 C3.07086457,23.8658396 2.10540409,24.8300543 2.10540409,26.018505 L2.10540409,60.8473346 C2.10540409,62.037031 3.0708645,63 4.26056096,63 L61.8219364,63 C63.0128786,63 63.9758475,62.0370311 63.9758475,60.8473346 L63.9758475,26.018505 C63.9758475,24.8300543 63.0128786,23.8658396 61.8219364,23.8658396 L34.7205264,23.8658403 Z M34.7205264,23.8658403" id="path-2"></path>
        <radialGradient cx="111.454284%" cy="38.2510383%" fx="111.454284%" fy="38.2510383%" r="100%" id="radialGradient-3">
            <stop stop-color="rgb(254,255,254)" offset="0%"></stop>
            <stop stop-color="rgb(131,130,126)" offset="11.943046%"></stop>
            <stop stop-color="rgb(0,0,0)" offset="100%"></stop>
        </radialGradient>
        <radialGradient cx="-105.486953%" cy="100%" fx="-105.486953%" fy="100%" r="184.868038%" id="radialGradient-4">
            <stop stop-color="rgb(130,135,125)" offset="0%"></stop>
            <stop stop-color="rgb(0,0,0)" offset="100%"></stop>
        </radialGradient>
    </defs>
    <g id="Page 1" fill="rgb(215,215,215)" fill-rule="evenodd">
        <use id="Path" stroke="rgb(49,54,58)" stroke-width="0.5" fill="url(#radialGradient-1)" xlink:href="#path-2"></use>
        <use id="Path-1" stroke="none" fill="none" xlink:href="#path-2"></use>
        <path d="M14.4493761,42.4725 C15.0156261,42.47 15.4718761,42.01125 15.4718761,41.4462501 C15.4718761,40.8787501 15.0156261,40.41875 14.4468761,40.4175 C13.8818761,40.4175 13.4231261,40.87875 13.4231261,41.4462501 C13.4231261,42.01125 13.8818761,42.4700001 14.4493761,42.4725 M14.4493761,47.0437501 C15.0156261,47.0437501 15.4718761,46.5850001 15.4718761,46.0212501 C15.4718761,45.4550001 15.0156261,44.9937501 14.4468761,44.9937501 C13.8818761,44.9937501 13.4231261,45.455 13.4231261,46.0212501 C13.4231261,46.5850001 13.8818761,47.0437501 14.4493761,47.0437501 M16.7356261,40.1837502 C17.300626,40.1837502 17.760626,39.7250002 17.760626,39.1600002 C17.760626,38.5937502 17.300626,38.1337502 16.7356261,38.1337502 C16.1706261,38.1337502 15.711876,38.5937502 15.711876,39.1600002 C15.711876,39.7250002 16.1706261,40.1837502 16.7356261,40.1837502 M16.7356261,44.7575001 C17.300626,44.7575001 17.760626,44.2975001 17.760626,43.7337501 C17.760626,43.1662501 17.300626,42.7075001 16.7356261,42.7075001 C16.1706261,42.7075001 15.711876,43.1662501 15.711876,43.7337501 C15.711876,44.2987501 16.1706261,44.7575001 16.7356261,44.7575001 M16.7356261,49.33125 C17.300626,49.33125 17.760626,48.8725 17.760626,48.305 C17.760626,47.74 17.300626,47.28125 16.7356261,47.28 C16.1706261,47.28 15.711876,47.74 15.711876,48.305 C15.711876,48.8725 16.1706261,49.33125 16.7356261,49.33125 M19.020626,42.4462501 C19.590626,42.4462501 20.046876,41.9887501 20.046876,41.4225001 C20.046876,40.8550001 19.590626,40.3975001 19.020626,40.3975001 C18.455626,40.3975001 17.998126,40.8550001 17.998126,41.4225001 C17.998126,41.9887501 18.455626,42.4462501 19.020626,42.4462501 M20.046876,46.02125 C20.046876,45.455 19.590626,44.99375 19.020626,44.99375 C18.455626,44.99375 17.998126,45.455 17.998126,46.02125 C17.998126,46.585 18.455626,47.04375 19.020626,47.04375 C19.590626,47.04375 20.046876,46.585 20.046876,46.02125 M19.0206261,51.6412501 C19.590626,51.6400002 20.0468763,51.1824999 20.0468763,50.6162499 C20.0468763,50.0487499 19.5881261,49.5899997 19.0206261,49.5899997 C18.4556262,49.5899997 17.9981261,50.0487498 17.9981261,50.6149997 C17.9981261,51.1824997 18.4556261,51.6399997 19.0206261,51.6412497 M21.3106262,40.1837492 C21.8756262,40.1837492 22.3343762,39.7249992 22.3343762,39.1599992 C22.3343762,38.5937492 21.8756262,38.1337493 21.3081262,38.1337493 C20.7431262,38.1337493 20.2831262,38.5937493 20.2831262,39.1599992 C20.2831262,39.7249992 20.7431262,40.1837492 21.3106262,40.1837492 M21.3106262,44.7574991 C21.8756262,44.7574991 22.3343762,44.2974991 22.3343762,43.7337491 C22.3343762,43.1662491 21.8756262,42.7074992 21.3081263,42.7074992 C20.7431263,42.7074992 20.2831263,43.1662492 20.2831263,43.7337491 C20.2831263,44.2987491 20.7431263,44.7574991 21.3106263,44.7574991 M21.3106263,49.331249 C21.8756263,49.331249 22.3343763,48.872499 22.3343763,48.3049991 C22.3343763,47.7399991 21.8756263,47.2812491 21.3081263,47.2799991 C20.7431264,47.2799991 20.2831264,47.7399991 20.2831264,48.3049991 C20.2831264,48.8724991 20.7431264,49.331249 21.3106264,49.331249 M23.6193764,37.8499985 C24.1856264,37.8499985 24.6431264,37.3924985 24.6431264,36.8262485 C24.6431264,36.2587485 24.1856264,35.7999985 23.6193764,35.7999985 C23.0531264,35.7999985 22.5931264,36.2587486 22.5931264,36.8262485 C22.5931264,37.3924985 23.0531264,37.8499985 23.6193764,37.8499985 M23.6193764,42.4462486 C24.1856264,42.4462486 24.6431264,41.9887486 24.6431264,41.4224986 C24.6431264,40.8549986 24.1856264,40.3974986 23.6193764,40.3974986 C23.0531264,40.3974986 22.5931264,40.8549986 22.5931264,41.4224986 C22.5931264,41.9887486 23.0531264,42.4462486 23.6193764,42.4462486 M23.6193764,47.0449985 C24.1856261,47.0437501 24.6431257,46.585 24.6431257,46.02125 C24.6431257,45.4549999 24.1856261,44.99375 23.619376,44.99375 C23.053126,44.99375 22.593126,45.455 22.593126,46.02125 C22.593126,46.585 23.053126,47.04375 23.619376,47.045 M23.619376,51.6400002 C24.185626,51.6400002 24.643126,51.1825002 24.643126,50.6150002 C24.643126,50.0487502 24.185626,49.5900002 23.619376,49.5900002 C23.053126,49.5900002 22.593126,50.0487502 22.593126,50.6150002 C22.593126,51.1825002 23.053126,51.6400002 23.619376,51.6400002 M25.8818759,44.7575001 C26.4518759,44.7575001 26.909376,44.2975001 26.909376,43.7337501 C26.909376,43.1662501 26.451876,42.7075001 25.8818759,42.7075001 C25.316876,42.7075001 24.8581259,43.1662501 24.8581259,43.7337501 C24.8581259,44.2987501 25.316876,44.7575001 25.8818759,44.7575001 M25.8818759,49.33125 C26.4518759,49.33125 26.909376,48.8725 26.909376,48.305 C26.909376,47.74 26.451876,47.28125 25.8818759,47.28 C25.316876,47.28 24.8581259,47.74 24.8581259,48.305 C24.8581259,48.8725 25.316876,49.33125 25.8818759,49.33125 M25.9056259,38.1112502 C25.338126,38.1112502 24.8818759,38.5687502 24.879376,39.1362502 C24.879376,39.7025002 25.338126,40.1612502 25.9056259,40.1612502 C26.471876,40.1612502 26.929376,39.7025002 26.929376,39.1362502 C26.929376,38.5687502 26.4706259,38.1112502 25.9056259,38.1112502 M28.1693759,47.0437501 C28.7381259,47.0437501 29.196876,46.5850001 29.196876,46.0212501 C29.196876,45.4550001 28.7381259,44.9937501 28.1693759,44.9937501 C27.6043759,44.9937501 27.1443759,45.455 27.1443759,46.0212501 C27.1443759,46.5850001 27.6043759,47.0437501 28.1693759,47.0437501 M28.1918759,40.3975002 C27.6281259,40.3975002 27.1681259,40.8550002 27.1681259,41.4225002 C27.1681259,41.9887502 27.6281259,42.4462502 28.1918759,42.4462502 C28.7606259,42.4462502 29.2168759,41.9887502 29.2168759,41.4225002 C29.2168759,40.8550002 28.7581259,40.3975002 28.1918759,40.3975002 M19.0206261,35.845 C18.4556262,35.845 17.9981261,36.30375 17.9981261,36.8725 C17.9981261,37.43875 18.4556261,37.8975 19.0206261,37.8975 C19.5906261,37.8975 20.0468761,37.43875 20.0468761,36.8725 C20.0468761,36.3025 19.5906261,35.845 19.0206261,35.845 M33.0406258,43.7337501 C33.0406258,44.3843893 32.9876847,45.0226659 32.885873,45.644503 C31.9736976,51.2158133 27.1386109,55.4675002 21.3081262,55.4675002 C14.8281262,55.4675002 9.57437609,50.2137501 9.57437609,43.7337501 C9.57437609,37.2525002 14.8281262,32 21.3081262,32 C27.7893761,32 33.0406258,37.2525002 33.0406258,43.7337501 Z M33.0406258,43.7337501" id="path2520" fill="url(#radialGradient-3)"></path>
        <g id="g2512" fill="rgb(37,41,44)">
            <path d="M47.5,41.2337501 C48.35875,42.0925001 49.5,42.5637501 50.715,42.5637501 C51.9287501,42.5637501 53.07125,42.0925001 53.9300001,41.2325 C54.78625,40.3737501 55.2625,39.2312501 55.2625,38.0175002 C55.2625,36.8025 54.7887498,35.66 53.9300001,34.8012502 C53.0712497,33.9424999 51.92875,33.4700001 50.715,33.4700001 C49.5,33.4700001 48.35875,33.9424999 47.5,34.8012502 C45.7275,36.5750001 45.7275,39.4600001 47.5,41.2337501 M50.715,32.6075001 C52.1600001,32.6075001 53.5187501,33.1700001 54.5412502,34.19125 C55.5650002,35.2125 56.1262502,36.5725 56.1262502,38.0175002 C56.1262502,39.4625002 55.5625002,40.8212502 54.5412502,41.8437503 C53.5187501,42.8662503 52.1600002,43.4287503 50.715,43.4287503 C49.2687501,43.4287503 47.91125,42.8662503 46.8900001,41.8437503 C44.7800002,39.7337503 44.7800002,36.3012503 46.8900001,34.19125 C47.9112501,33.1700001 49.2687501,32.6075001 50.715,32.6075001" id="path2514"></path>
        </g>
        <g id="g2508" fill="rgb(37,41,44)">
            <path d="M52.415,38.4500001 L53.4387501,40.3425 C53.53,40.5100001 53.50125,40.7200001 53.365,40.8550001 C53.2293737,40.9893823 53.02125,41.0175 52.8525,40.9275002 L50.96625,39.9012501 C50.20625,40.1375 49.34625,39.965 48.7437499,39.3625001 C47.8812501,38.4987502 47.8812501,37.0962501 48.7437499,36.2337501 C49.608125,35.3693748 51.01125,35.3687501 51.875,36.2337501 C52.475,36.8337501 52.65,37.6925002 52.415,38.4500001 Z M52.415,38.4500001" id="path2510" fill="url(#radialGradient-4)"></path>
        </g>
    </g>
</svg>