<?xml version="1.0" encoding="UTF-8" standalone="no"?>
<svg width="500px" height="500px" viewBox="0 0 500 500" version="1.1" xmlns="http://www.w3.org/2000/svg" xmlns:xlink="http://www.w3.org/1999/xlink" xmlns:sketch="http://www.bohemiancoding.com/sketch/ns">
    <title>station-year</title>
    <description>Created with Sketch (http://www.bohemiancoding.com/sketch)</description>
    <defs>
        <linearGradient x1="50%" y1="50%" x2="50%" y2="170.589844%" id="linearGradient-1">
            <stop stop-color="rgb(254,255,254)" offset="0%"></stop>
            <stop stop-color="rgb(0,0,0)" offset="100%"></stop>
        </linearGradient>
    </defs>
    <g id="Page 1" fill="rgb(215,215,215)" fill-rule="evenodd">
        <g id="Group" stroke="rgb(150,150,150)" stroke-width="1" fill="url(#linearGradient-1)">
            <path d="M355.771247,109.03281 L332.664776,109.03281 L332.664776,129.935958 C332.664776,137.880106 326.140948,144.356636 318.110699,144.356636 C310.092453,144.356636 303.556623,137.880106 303.556623,129.935958 L303.556623,109.03281 L213.783475,109.03281 L213.783475,129.935958 C213.783475,137.880106 207.247644,144.356636 199.223396,144.356636 C191.199147,144.356636 184.675321,137.880106 184.675321,129.935958 L184.675321,109.03281 L161.568849,109.03281 C145.976481,109.03281 133.30093,121.587771 133.30093,137.006667 L133.30093,362.782075 C133.30093,378.218795 145.976481,390.773756 161.568849,390.773756 L355.759238,390.773756 C371.351606,390.773756 384.027156,378.218795 384.027156,362.782075 L384.027156,137.006667 C384.038931,121.587992 371.363384,109.03281 355.771247,109.03281 L355.771247,109.03281 L355.771247,109.03281 M365.643764,362.782392 C365.643764,368.171578 361.220525,372.562547 355.770998,372.562547 L161.580609,372.562547 C156.137085,372.562547 151.701842,368.17752 151.701842,362.782392 L151.701842,178.676625 L365.637768,178.676625 L365.637768,362.782392 L365.637768,362.782392 L365.643764,362.782392" id="Shape"></path>
            <path d="M199.229351,135.242749 C202.194182,135.242749 204.588853,132.866041 204.588853,129.930806 L204.588853,109.027658 L204.588853,96.7222502 C204.588853,93.7929573 202.200183,91.416249 199.229351,91.416249 C196.276524,91.416249 193.881854,93.7870154 193.881854,96.7222502 L193.881854,109.027658 L193.881854,129.930806 C193.881906,132.865171 196.276498,135.242749 199.229351,135.242749 C199.229351,135.242749 196.276498,135.242749 199.229351,135.242749 L199.229351,135.242749" id="Shape"></path>
            <path d="M318.116413,135.242749 C321.075242,135.242749 323.475914,132.866041 323.475914,129.930806 L323.475914,96.7222488 C323.475914,93.7929558 321.081243,91.4162475 318.116413,91.4162475 C315.151582,91.4162475 312.756911,93.787014 312.756911,96.7222488 L312.756911,129.930806 C312.756879,132.865171 315.151837,135.242749 318.116413,135.242749 C318.116413,135.242749 315.151837,135.242749 318.116413,135.242749 L318.116413,135.242749" id="Shape"></path>
            <path d="M225.078633,227.731864 C223.908261,227.731864 222.965736,226.804913 222.966041,225.646302 L222.966041,210.857234 C222.966041,209.704531 223.914307,208.765731 225.078633,208.765731 L240.022819,208.765731 C241.187145,208.765731 242.129409,209.710473 242.129409,210.857234 L242.129409,225.646302 C242.129409,226.804947 241.181144,227.731864 240.022819,227.731864 Z M267.102182,227.731864 L252.157996,227.731864 C250.993851,227.731864 250.051326,226.804913 250.045404,225.646302 L250.045404,210.857234 C250.045404,209.704531 250.993669,208.765731 252.157996,208.765731 L267.102182,208.765731 C268.27251,208.765731 269.208772,209.710473 269.208772,210.857234 L269.208772,225.646302 C269.208772,226.804947 268.266508,227.731864 267.102182,227.731864 Z M279.249813,227.731864 C278.085302,227.731864 277.143144,226.804913 277.143223,225.646302 L277.143223,210.857234 C277.143223,209.704531 278.085487,208.765731 279.249813,208.765731 L294.2,208.765731 C295.364326,208.765731 296.30659,209.710473 296.30659,210.857234 L296.30659,225.646302 C296.30659,226.804947 295.358325,227.731864 294.2,227.731864 Z M306.335403,227.731864 C305.165031,227.731864 304.228734,226.804913 304.228813,225.646302 L304.228813,210.857234 C304.228813,209.704531 305.171077,208.765731 306.335403,208.765731 L321.279589,208.765731 C322.455918,208.765731 323.392181,209.710473 323.392181,210.857234 L323.392181,225.646302 C323.392181,226.804947 322.449917,227.731864 321.279589,227.731864 Z M333.420993,227.731864 C332.262343,227.731864 331.314323,226.804913 331.308401,225.646302 L331.308401,210.857234 C331.308401,209.704531 332.262668,208.765731 333.420993,208.765731 L348.365179,208.765731 C349.535507,208.765731 350.477771,209.710473 350.477771,210.857234 L350.477771,225.646302 C350.477771,226.804947 349.529505,227.731864 348.365179,227.731864 Z M170.901226,265.319075 C169.737081,265.319075 168.800784,264.368914 168.794636,263.227572 L168.794636,248.438505 C168.794636,247.279859 169.7369,246.347001 170.901226,246.347001 L185.845412,246.347001 C187.01574,246.347001 187.952002,247.285801 187.952002,248.438505 L187.952002,263.227572 C187.952002,264.374334 187.009738,265.319075 185.845412,265.319075 Z M197.986816,265.319075 C196.828532,265.319075 195.874286,264.368914 195.874224,263.227572 L195.874224,248.438505 C195.874224,247.279859 196.828491,246.347001 197.986816,246.347001 L212.931002,246.347001 C214.095328,246.347001 215.043594,247.285801 215.043594,248.438505 L215.043594,263.227572 C215.043594,264.374334 214.089326,265.319075 212.931002,265.319075 Z M225.078633,265.319075 C223.908261,265.319075 222.965736,264.368914 222.966041,263.227572 L222.966041,248.438505 C222.966041,247.279859 223.914307,246.347001 225.078633,246.347001 L240.022819,246.347001 C241.187145,246.347001 242.129409,247.285801 242.129409,248.438505 L242.129409,263.227572 C242.129409,264.374334 241.181144,265.319075 240.022819,265.319075 Z M252.157996,265.319075 C250.993851,265.319075 250.051326,264.368914 250.045404,263.227572 L250.045404,248.438505 C250.045404,247.279859 250.993669,246.347001 252.157996,246.347001 L267.102182,246.347001 C268.27251,246.347001 269.208772,247.285801 269.208772,248.438505 L269.208772,263.227572 C269.208772,264.374334 268.266508,265.319075 267.102182,265.319075 Z M279.249813,265.319075 C278.085302,265.319075 277.143144,264.368914 277.143223,263.227572 L277.143223,248.438505 C277.143223,247.279859 278.085487,246.347001 279.249813,246.347001 L294.2,246.347001 C295.364326,246.347001 296.30659,247.285801 296.30659,248.438505 L296.30659,263.227572 C296.30659,264.374334 295.358325,265.319075 294.2,265.319075 Z M306.335403,265.319075 C305.165031,265.319075 304.228734,264.368914 304.228813,263.227572 L304.228813,248.438505 C304.228813,247.279859 305.171077,246.347001 306.335403,246.347001 L321.279589,246.347001 C322.455918,246.347001 323.392181,247.285801 323.392181,248.438505 L323.392181,263.227572 C323.392181,264.374334 322.449917,265.319075 321.279589,265.319075 Z M333.420993,265.319075 C332.262343,265.319075 331.314323,264.368914 331.308401,263.227572 L331.308401,248.438505 C331.308401,247.279859 332.262668,246.347001 333.420993,246.347001 L348.365179,246.347001 C349.535507,246.347001 350.477771,247.285801 350.477771,248.438505 L350.477771,263.227572 C350.477771,264.374334 349.529505,265.319075 348.365179,265.319075 Z M170.901226,302.88888 C169.737081,302.88888 168.800784,301.961929 168.794636,300.797376 L168.794636,286.008309 C168.794636,284.849663 169.7369,283.922747 170.901226,283.922747 L185.845412,283.922747 C187.01574,283.922747 187.952002,284.855605 187.952002,286.008309 L187.952002,300.797376 C187.952002,301.961963 187.009738,302.88888 185.845412,302.88888 Z M197.986816,302.88888 C196.828532,302.88888 195.874286,301.961929 195.874224,300.797376 L195.874224,286.008309 C195.874224,284.849663 196.828491,283.922747 197.986816,283.922747 L212.931002,283.922747 C214.095328,283.922747 215.043594,284.855605 215.043594,286.008309 L215.043594,300.797376 C215.043594,301.961963 214.089326,302.88888 212.931002,302.88888 Z M225.078633,302.88888 C223.908261,302.88888 222.965736,301.961929 222.966041,300.797376 L222.966041,286.008309 C222.966041,284.849663 223.914307,283.922747 225.078633,283.922747 L240.022819,283.922747 C241.187145,283.922747 242.129409,284.855605 242.129409,286.008309 L242.129409,300.797376 C242.129409,301.961963 241.181144,302.88888 240.022819,302.88888 Z M252.157996,302.88888 C250.993851,302.88888 250.051326,301.961929 250.045404,300.797376 L250.045404,286.008309 C250.045404,284.849663 250.993669,283.922747 252.157996,283.922747 L267.102182,283.922747 C268.27251,283.922747 269.208772,284.855605 269.208772,286.008309 L269.208772,300.797376 C269.208772,301.961963 268.266508,302.88888 267.102182,302.88888 Z M279.249813,302.88888 C278.085302,302.88888 277.143144,301.961929 277.143223,300.797376 L277.143223,286.008309 C277.143223,284.849663 278.085487,283.922747 279.249813,283.922747 L294.2,283.922747 C295.364326,283.922747 296.30659,284.855605 296.30659,286.008309 L296.30659,300.797376 C296.30659,301.961963 295.358325,302.88888 294.2,302.88888 Z M306.335403,302.88888 C305.165031,302.88888 304.228734,301.961929 304.228813,300.797376 L304.228813,286.008309 C304.228813,284.849663 305.171077,283.922747 306.335403,283.922747 L321.279589,283.922747 C322.455918,283.922747 323.392181,284.855605 323.392181,286.008309 L323.392181,300.797376 C323.392181,301.961963 322.449917,302.88888 321.279589,302.88888 Z M333.420993,302.88888 C332.262343,302.88888 331.314323,301.961929 331.308401,300.797376 L331.308401,286.008309 C331.308401,284.849663 332.262668,283.922747 333.420993,283.922747 L348.365179,283.922747 C349.535507,283.922747 350.477771,284.855605 350.477771,286.008309 L350.477771,300.797376 C350.477771,301.961963 349.529505,302.88888 348.365179,302.88888 Z M170.901226,340.465937 C169.737081,340.465937 168.800784,339.52593 168.794636,338.374434 L168.794636,323.585366 C168.794636,322.426721 169.7369,321.499804 170.901226,321.499804 L185.845412,321.499804 C187.01574,321.499804 187.952002,322.432663 187.952002,323.585366 L187.952002,338.374434 C187.952002,339.527137 187.009738,340.465937 185.845412,340.465937 Z M197.986816,340.465937 C196.828532,340.465937 195.874286,339.52593 195.874224,338.374434 L195.874224,323.585366 C195.874224,322.426721 196.828491,321.499804 197.986816,321.499804 L212.931002,321.499804 C214.095328,321.499804 215.043594,322.432663 215.043594,323.585366 L215.043594,338.374434 C215.043594,339.527137 214.089326,340.465937 212.931002,340.465937 Z M225.078633,340.465937 C223.908261,340.465937 222.965736,339.52593 222.966041,338.374434 L222.966041,323.585366 C222.966041,322.426721 223.914307,321.499804 225.078633,321.499804 L240.022819,321.499804 C241.187145,321.499804 242.129409,322.432663 242.129409,323.585366 L242.129409,338.374434 C242.129409,339.527137 241.181144,340.465937 240.022819,340.465937 Z M252.157996,340.465937 C250.993851,340.465937 250.051326,339.52593 250.045404,338.374434 L250.045404,323.585366 C250.045404,322.426721 250.993669,321.499804 252.157996,321.499804 L267.102182,321.499804 C268.27251,321.499804 269.208772,322.432663 269.208772,323.585366 L269.208772,338.374434 C269.208772,339.527137 268.266508,340.465937 267.102182,340.465937 Z M294.2,340.465937 L279.249813,340.465937 C278.085302,340.465937 277.143144,339.52593 277.143223,338.374434 L277.143223,323.585366 C277.143223,322.426721 278.085487,321.499804 279.249813,321.499804 L294.2,321.499804 C295.364326,321.499804 296.30659,322.432663 296.30659,323.585366 L296.30659,338.374434 C296.30659,339.527137 295.358325,340.465937 294.2,340.465937 Z M294.2,340.465937" id="Shape"></path>
        </g>
    </g>
</svg>