<?xml version="1.0" encoding="UTF-8" standalone="no"?>
<svg width="500px" height="500px" viewBox="0 0 500 500" version="1.1" xmlns="http://www.w3.org/2000/svg" xmlns:xlink="http://www.w3.org/1999/xlink" xmlns:sketch="http://www.bohemiancoding.com/sketch/ns">
    <title>station-genre</title>
    <description>Created with Sketch (http://www.bohemiancoding.com/sketch)</description>
    <defs>
        <linearGradient x1="50%" y1="50%" x2="50%" y2="170.589844%" id="linearGradient-1">
            <stop stop-color="rgb(254,255,254)" offset="0%"></stop>
            <stop stop-color="rgb(0,0,0)" offset="100%"></stop>
        </linearGradient>
    </defs>
    <g id="Page 1" fill="rgb(215,215,215)" fill-rule="evenodd">
        <path d="M381.686449,150 C387.380815,150 391.999971,154.614094 392,160.296459 L392,321.703548 C392,327.391797 387.380827,332 381.686449,332 L183.104033,332 C180.370972,332 177.740025,330.919953 175.817872,328.987868 L95.015377,248.29032 C93.0872176,246.352235 92,243.73012 92,241 C92,238.269879 93.0872174,235.653764 95.015377,233.72168 L175.817872,153.012132 C177.740025,151.086048 180.358958,150 183.104033,150 Z M172.406039,266.932994 C186.744149,266.932994 198.361103,255.334584 198.361109,240.999854 C198.361109,226.683225 186.738091,215.066715 172.406039,215.066715 C158.073987,215.066715 146.444963,226.677225 146.444963,240.999854 C146.444963,255.328484 158.06798,266.932994 172.406039,266.932994 Z M172.406039,266.932994" id="Shape" stroke="rgb(150,150,150)" stroke-width="1" fill="url(#linearGradient-1)"></path>
    </g>
</svg>