<?xml version="1.0" encoding="UTF-8" standalone="no"?>
<svg width="64px" height="64px" version="1.1" xmlns="http://www.w3.org/2000/svg" xmlns:xlink="http://www.w3.org/1999/xlink" xmlns:sketch="http://www.bohemiancoding.com/sketch/ns">
    <title>station</title>
    <description>Created with Sketch (http://www.bohemiancoding.com/sketch)</description>
    <defs>
        <radialGradient cx="50%" cy="65.3320312%" fx="50%" fy="65.3320312%" r="104.403985%" id="radialGradient-1">
            <stop stop-color="rgb(234,223,222)" stop-opacity="0.675953585" offset="0%"></stop>
            <stop stop-color="rgb(249,247,245)" offset="100%"></stop>
        </radialGradient>
        <path d="M33.7205264,23.8658403 L42.7497617,6.06399576 C44.0702623,5.97554713 45.1191884,4.88551118 45.1191884,3.54134096 C45.1191884,2.13737466 43.9818137,1 42.5790931,1 C41.1763724,1 40.0377521,2.13737466 40.0377521,3.54134096 C40.0377521,4.04213465 40.19098,4.50680137 40.4413769,4.90170587 L30.8228992,23.8658398 L29.9421501,23.8658398 L21.5694278,9.42255184 C21.9132563,8.98653746 22.1275263,8.44463382 22.1275263,7.84791695 C22.1275263,6.44395065 20.9913974,5.30657599 19.587431,5.30657599 C18.1847103,5.30657599 17.0498273,6.44395065 17.0498273,7.84791695 C17.0498273,9.08619784 17.9392966,10.1164375 19.1140439,10.3394277 L26.9560743,23.8658396 L3.26056096,23.8658396 C2.07086457,23.8658396 1.10540409,24.8300543 1.10540409,26.018505 L1.10540409,60.8473346 C1.10540409,62.037031 2.0708645,63 3.26056096,63 L60.8219364,63 C62.0128786,63 62.9758475,62.0370311 62.9758475,60.8473346 L62.9758475,26.018505 C62.9758475,24.8300543 62.0128786,23.8658396 60.8219364,23.8658396 L33.7205264,23.8658403 Z M33.7205264,23.8658403" id="path-2"></path>
        <radialGradient cx="111.454284%" cy="38.2510383%" fx="111.454284%" fy="38.2510383%" r="100%" id="radialGradient-3">
            <stop stop-color="rgb(254,255,254)" offset="0%"></stop>
            <stop stop-color="rgb(131,130,126)" offset="11.943046%"></stop>
            <stop stop-color="rgb(0,0,0)" offset="100%"></stop>
        </radialGradient>
        <radialGradient cx="-105.486953%" cy="100%" fx="-105.486953%" fy="100%" r="184.868038%" id="radialGradient-4">
            <stop stop-color="rgb(130,135,125)" offset="0%"></stop>
            <stop stop-color="rgb(0,0,0)" offset="100%"></stop>
        </radialGradient>
    </defs>
    <g id="Page 1" fill="rgb(215,215,215)" fill-rule="evenodd">
        <use id="Path" stroke="rgb(49,54,58)" stroke-width="1" fill="url(#radialGradient-1)" xlink:href="#path-2"></use>
        <use id="Path-1" stroke="none" fill="none" xlink:href="#path-2"></use>
        <path d="M13.4493761,42.4725 C14.0156261,42.47 14.4718761,42.01125 14.4718761,41.4462501 C14.4718761,40.8787501 14.0156261,40.41875 13.4468761,40.4175 C12.8818761,40.4175 12.4231261,40.87875 12.4231261,41.4462501 C12.4231261,42.01125 12.8818761,42.4700001 13.4493761,42.4725 M13.4493761,47.0437501 C14.0156261,47.0437501 14.4718761,46.5850001 14.4718761,46.0212501 C14.4718761,45.4550001 14.0156261,44.9937501 13.4468761,44.9937501 C12.8818761,44.9937501 12.4231261,45.455 12.4231261,46.0212501 C12.4231261,46.5850001 12.8818761,47.0437501 13.4493761,47.0437501 M15.7356261,40.1837502 C16.300626,40.1837502 16.760626,39.7250002 16.760626,39.1600002 C16.760626,38.5937502 16.300626,38.1337502 15.7356261,38.1337502 C15.1706261,38.1337502 14.711876,38.5937502 14.711876,39.1600002 C14.711876,39.7250002 15.1706261,40.1837502 15.7356261,40.1837502 M15.7356261,44.7575001 C16.300626,44.7575001 16.760626,44.2975001 16.760626,43.7337501 C16.760626,43.1662501 16.300626,42.7075001 15.7356261,42.7075001 C15.1706261,42.7075001 14.711876,43.1662501 14.711876,43.7337501 C14.711876,44.2987501 15.1706261,44.7575001 15.7356261,44.7575001 M15.7356261,49.33125 C16.300626,49.33125 16.760626,48.8725 16.760626,48.305 C16.760626,47.74 16.300626,47.28125 15.7356261,47.28 C15.1706261,47.28 14.711876,47.74 14.711876,48.305 C14.711876,48.8725 15.1706261,49.33125 15.7356261,49.33125 M18.020626,42.4462501 C18.590626,42.4462501 19.046876,41.9887501 19.046876,41.4225001 C19.046876,40.8550001 18.590626,40.3975001 18.020626,40.3975001 C17.455626,40.3975001 16.998126,40.8550001 16.998126,41.4225001 C16.998126,41.9887501 17.455626,42.4462501 18.020626,42.4462501 M19.046876,46.02125 C19.046876,45.455 18.590626,44.99375 18.020626,44.99375 C17.455626,44.99375 16.998126,45.455 16.998126,46.02125 C16.998126,46.585 17.455626,47.04375 18.020626,47.04375 C18.590626,47.04375 19.046876,46.585 19.046876,46.02125 M18.0206261,51.6412501 C18.590626,51.6400002 19.0468763,51.1824999 19.0468763,50.6162499 C19.0468763,50.0487499 18.5881261,49.5899997 18.0206261,49.5899997 C17.4556262,49.5899997 16.9981261,50.0487498 16.9981261,50.6149997 C16.9981261,51.1824997 17.4556261,51.6399997 18.0206261,51.6412497 M20.3106262,40.1837492 C20.8756262,40.1837492 21.3343762,39.7249992 21.3343762,39.1599992 C21.3343762,38.5937492 20.8756262,38.1337493 20.3081262,38.1337493 C19.7431262,38.1337493 19.2831262,38.5937493 19.2831262,39.1599992 C19.2831262,39.7249992 19.7431262,40.1837492 20.3106262,40.1837492 M20.3106262,44.7574991 C20.8756262,44.7574991 21.3343762,44.2974991 21.3343762,43.7337491 C21.3343762,43.1662491 20.8756262,42.7074992 20.3081263,42.7074992 C19.7431263,42.7074992 19.2831263,43.1662492 19.2831263,43.7337491 C19.2831263,44.2987491 19.7431263,44.7574991 20.3106263,44.7574991 M20.3106263,49.331249 C20.8756263,49.331249 21.3343763,48.872499 21.3343763,48.3049991 C21.3343763,47.7399991 20.8756263,47.2812491 20.3081263,47.2799991 C19.7431264,47.2799991 19.2831264,47.7399991 19.2831264,48.3049991 C19.2831264,48.8724991 19.7431264,49.331249 20.3106264,49.331249 M22.6193764,37.8499985 C23.1856264,37.8499985 23.6431264,37.3924985 23.6431264,36.8262485 C23.6431264,36.2587485 23.1856264,35.7999985 22.6193764,35.7999985 C22.0531264,35.7999985 21.5931264,36.2587486 21.5931264,36.8262485 C21.5931264,37.3924985 22.0531264,37.8499985 22.6193764,37.8499985 M22.6193764,42.4462486 C23.1856264,42.4462486 23.6431264,41.9887486 23.6431264,41.4224986 C23.6431264,40.8549986 23.1856264,40.3974986 22.6193764,40.3974986 C22.0531264,40.3974986 21.5931264,40.8549986 21.5931264,41.4224986 C21.5931264,41.9887486 22.0531264,42.4462486 22.6193764,42.4462486 M22.6193764,47.0449985 C23.1856261,47.0437501 23.6431257,46.585 23.6431257,46.02125 C23.6431257,45.4549999 23.1856261,44.99375 22.619376,44.99375 C22.053126,44.99375 21.593126,45.455 21.593126,46.02125 C21.593126,46.585 22.053126,47.04375 22.619376,47.045 M22.619376,51.6400002 C23.185626,51.6400002 23.643126,51.1825002 23.643126,50.6150002 C23.643126,50.0487502 23.185626,49.5900002 22.619376,49.5900002 C22.053126,49.5900002 21.593126,50.0487502 21.593126,50.6150002 C21.593126,51.1825002 22.053126,51.6400002 22.619376,51.6400002 M24.8818759,44.7575001 C25.4518759,44.7575001 25.909376,44.2975001 25.909376,43.7337501 C25.909376,43.1662501 25.451876,42.7075001 24.8818759,42.7075001 C24.316876,42.7075001 23.8581259,43.1662501 23.8581259,43.7337501 C23.8581259,44.2987501 24.316876,44.7575001 24.8818759,44.7575001 M24.8818759,49.33125 C25.4518759,49.33125 25.909376,48.8725 25.909376,48.305 C25.909376,47.74 25.451876,47.28125 24.8818759,47.28 C24.316876,47.28 23.8581259,47.74 23.8581259,48.305 C23.8581259,48.8725 24.316876,49.33125 24.8818759,49.33125 M24.9056259,38.1112502 C24.338126,38.1112502 23.8818759,38.5687502 23.879376,39.1362502 C23.879376,39.7025002 24.338126,40.1612502 24.9056259,40.1612502 C25.471876,40.1612502 25.929376,39.7025002 25.929376,39.1362502 C25.929376,38.5687502 25.4706259,38.1112502 24.9056259,38.1112502 M27.1693759,47.0437501 C27.7381259,47.0437501 28.196876,46.5850001 28.196876,46.0212501 C28.196876,45.4550001 27.7381259,44.9937501 27.1693759,44.9937501 C26.6043759,44.9937501 26.1443759,45.455 26.1443759,46.0212501 C26.1443759,46.5850001 26.6043759,47.0437501 27.1693759,47.0437501 M27.1918759,40.3975002 C26.6281259,40.3975002 26.1681259,40.8550002 26.1681259,41.4225002 C26.1681259,41.9887502 26.6281259,42.4462502 27.1918759,42.4462502 C27.7606259,42.4462502 28.2168759,41.9887502 28.2168759,41.4225002 C28.2168759,40.8550002 27.7581259,40.3975002 27.1918759,40.3975002 M18.0206261,35.845 C17.4556262,35.845 16.9981261,36.30375 16.9981261,36.8725 C16.9981261,37.43875 17.4556261,37.8975 18.0206261,37.8975 C18.5906261,37.8975 19.0468761,37.43875 19.0468761,36.8725 C19.0468761,36.3025 18.5906261,35.845 18.0206261,35.845 M32.0406258,43.7337501 C32.0406258,44.3843893 31.9876847,45.0226659 31.885873,45.644503 C30.9736976,51.2158133 26.1386109,55.4675002 20.3081262,55.4675002 C13.8281262,55.4675002 8.57437609,50.2137501 8.57437609,43.7337501 C8.57437609,37.2525002 13.8281262,32 20.3081262,32 C26.7893761,32 32.0406258,37.2525002 32.0406258,43.7337501 Z M32.0406258,43.7337501" id="path2520" fill="url(#radialGradient-3)"></path>
        <g id="g2512" fill="rgb(37,41,44)">
            <path d="M46.5,41.2337501 C47.35875,42.0925001 48.5,42.5637501 49.715,42.5637501 C50.9287501,42.5637501 52.07125,42.0925001 52.9300001,41.2325 C53.78625,40.3737501 54.2625,39.2312501 54.2625,38.0175002 C54.2625,36.8025 53.7887498,35.66 52.9300001,34.8012502 C52.0712497,33.9424999 50.92875,33.4700001 49.715,33.4700001 C48.5,33.4700001 47.35875,33.9424999 46.5,34.8012502 C44.7275,36.5750001 44.7275,39.4600001 46.5,41.2337501 M49.715,32.6075001 C51.1600001,32.6075001 52.5187501,33.1700001 53.5412502,34.19125 C54.5650002,35.2125 55.1262502,36.5725 55.1262502,38.0175002 C55.1262502,39.4625002 54.5625002,40.8212502 53.5412502,41.8437503 C52.5187501,42.8662503 51.1600002,43.4287503 49.715,43.4287503 C48.2687501,43.4287503 46.91125,42.8662503 45.8900001,41.8437503 C43.7800002,39.7337503 43.7800002,36.3012503 45.8900001,34.19125 C46.9112501,33.1700001 48.2687501,32.6075001 49.715,32.6075001" id="path2514"></path>
        </g>
        <g id="g2508" fill="rgb(37,41,44)">
            <path d="M51.415,38.4500001 L52.4387501,40.3425 C52.53,40.5100001 52.50125,40.7200001 52.365,40.8550001 C52.2293737,40.9893823 52.02125,41.0175 51.8525,40.9275002 L49.96625,39.9012501 C49.20625,40.1375 48.34625,39.965 47.7437499,39.3625001 C46.8812501,38.4987502 46.8812501,37.0962501 47.7437499,36.2337501 C48.608125,35.3693748 50.01125,35.3687501 50.875,36.2337501 C51.475,36.8337501 51.65,37.6925002 51.415,38.4500001 Z M51.415,38.4500001" id="path2510" fill="url(#radialGradient-4)"></path>
        </g>
    </g>
</svg>