<?xml version="1.0" encoding="UTF-8" standalone="no"?>
<svg width="500px" height="500px" viewBox="0 0 500 500" version="1.1" xmlns="http://www.w3.org/2000/svg" xmlns:xlink="http://www.w3.org/1999/xlink" xmlns:sketch="http://www.bohemiancoding.com/sketch/ns">
    <title>station-genre</title>
    <description>Created with Sketch (http://www.bohemiancoding.com/sketch)</description>
    <defs>
        <linearGradient x1="50%" y1="50%" x2="50%" y2="170.589844%" id="linearGradient-1">
            <stop stop-color="rgb(254,255,254)" offset="0%"></stop>
            <stop stop-color="rgb(0,0,0)" offset="100%"></stop>
        </linearGradient>
    </defs>
    <g id="Page 1" fill="rgb(215,215,215)" fill-rule="evenodd">
        <g id="Group" fill="rgb(0,0,0)">
            <path d="M389.045442,230.429716 C383.570272,224.959128 241.528204,83.1885389 241.528204,83.1885389 L179.981162,84.9885389 L160.691354,104.235598 C166.349226,110.976775 171.677056,117.782657 175.749546,123.859127 C179.185524,122.035598 183.098886,121.000304 187.259779,121.000304 C200.856353,121.000304 211.871525,132.006186 211.871525,145.576774 C211.871525,159.14148 200.850461,170.141481 187.259779,170.141481 C173.669099,170.141481 162.648034,159.141481 162.648034,145.576774 C162.648034,142.612068 163.19614,139.788539 164.1568,137.159127 C158.104056,132.623833 151.208523,126.559127 144.560523,120.34148 L129.631991,135.24148 L129.631991,198.565012 L276.789714,345.447361 C276.789714,345.447361 281.192246,351.47089 287.22731,345.447361 C293.262374,339.423831 389.045432,243.817946 389.045432,243.817946 C389.045432,243.817946 394.514592,235.894158 389.045442,230.429716 C389.045442,230.429716 394.514592,235.894158 389.045442,230.429716 L389.045442,230.429716" id="Shape" stroke="rgb(150,150,150)" stroke-width="1" fill="url(#linearGradient-1)"></path>
            <path d="M178.83767,140.964384 C179.008585,140.964384 179.309159,140.952619 179.427032,140.82909 C182.916053,137.346737 161.374883,108.893797 132.325244,78.5584992 C131.523712,78.4114404 129.867605,78.1349698 127.975755,78.1349698 C125.512223,78.1349698 122.20001,78.5996757 120.437818,80.8290875 C118.940839,82.7173229 118.622584,85.7232053 119.506627,89.7761465 C138.165813,109.723719 170.456964,140.964384 178.83767,140.964384 C178.83767,140.964384 170.456964,140.964384 178.83767,140.964384 L178.83767,140.964384" id="Shape" stroke="rgb(150,150,150)" stroke-width="1" fill="url(#linearGradient-1)"></path>
            <path d="M141.000749,228.394014 L196.30056,367.023423 C196.30056,367.023423 197.726815,373.270482 204.551624,370.576364 C207.793113,369.288128 233.895943,358.911658 260.440793,348.358717 L260.423112,348.364599 L141.000749,228.394014 L141.000749,228.394014 L141.000749,228.394014" id="Shape" stroke="rgb(150,150,150)" stroke-width="1" fill="url(#linearGradient-1)"></path>
        </g>
    </g>
</svg>