<?xml version="1.0" encoding="UTF-8" standalone="no"?>
<svg width="130px" height="130px" viewBox="0 0 130 130" version="1.1" xmlns="http://www.w3.org/2000/svg" xmlns:xlink="http://www.w3.org/1999/xlink" xmlns:sketch="http://www.bohemiancoding.com/sketch/ns">
    <title>station-artist</title>
    <description>Created with Sketch (http://www.bohemiancoding.com/sketch)</description>
    <defs>
        <linearGradient x1="50%" y1="0%" x2="50%" y2="173.920641%" id="linearGradient-1">
            <stop stop-color="rgb(123,125,121)" offset="0%"></stop>
            <stop stop-color="rgb(0,0,0)" offset="100%"></stop>
        </linearGradient>
    </defs>
    <g id="Page 1" fill="rgb(215,215,215)" fill-rule="evenodd">
        <path d="M65.4948867,17 C37.6024142,17 15,39.3957394 15,67.0070892 C15,94.6285684 37.6024142,117 65.4948867,117 C93.3791753,117 116,94.6285665 116,67.0070892 C116.002052,39.3960002 93.3791382,17 65.4948867,17 L65.4948867,17 L65.4948867,17 M93.1990948,60.6368435 L78.1492295,71.8174965 L83.6193044,89.5222228 C83.8320523,90.2048098 83.580437,90.9522121 82.9953804,91.3755377 C82.6967151,91.5922641 82.3448629,91.70164 81.9889193,91.70164 C81.6534323,91.70164 81.3158996,91.6023915 81.025417,91.4038944 L65.4989141,80.8207584 L49.9765032,91.4038944 C49.3853096,91.811016 48.5915964,91.7968376 48.0065398,91.3755376 C47.4214831,90.9522122 47.1719136,90.2068353 47.3826158,89.5222228 L52.8506451,71.8174965 L37.8028253,60.6368435 C37.2239057,60.2054162 36.9825187,59.4580138 37.2034491,58.7734013 C37.4264252,58.0847379 38.0626232,57.6168519 38.7929212,57.6006481 L57.6906589,57.2239087 L63.8910315,39.7379338 C64.1324185,39.0634487 64.7747534,38.6117666 65.4968688,38.6117666 C66.2189841,38.6117666 66.867456,39.0634488 67.1067973,39.7379338 L73.3071699,57.2239087 L92.2049076,57.6006481 C92.9311143,57.6168519 93.5693579,58.0847379 93.792334,58.7734013 C94.0174058,59.458445 93.7780554,60.2056377 93.1990948,60.6368435 C93.1990948,60.6368435 93.7780554,60.2056377 93.1990948,60.6368435 L93.1990948,60.6368435" id="Shape" fill="url(#linearGradient-1)"></path>
    </g>
</svg>