<?xml version="1.0" encoding="UTF-8" standalone="no"?>
<svg width="500px" height="500px" viewBox="0 0 500 500" version="1.1" xmlns="http://www.w3.org/2000/svg" xmlns:xlink="http://www.w3.org/1999/xlink" xmlns:sketch="http://www.bohemiancoding.com/sketch/ns">
    <title>station-artist</title>
    <description>Created with Sketch (http://www.bohemiancoding.com/sketch)</description>
    <defs>
        <linearGradient x1="50%" y1="50%" x2="50%" y2="170.589844%" id="linearGradient-1">
            <stop stop-color="rgb(254,255,254)" offset="0%"></stop>
            <stop stop-color="rgb(0,0,0)" offset="100%"></stop>
        </linearGradient>
    </defs>
    <g id="Page 1" fill="rgb(215,215,215)" fill-rule="evenodd">
        <path d="M245.48466,91 C161.807243,91 94,158.187218 94,241.021267 C94,323.885705 161.807243,391 245.48466,391 C329.137526,391 397,323.885699 397,241.021267 C397.006157,158.188001 329.137415,91 245.48466,91 L245.48466,91 L245.48466,91 M328.597284,221.910531 L283.447689,255.452489 L299.857913,308.566669 C300.496157,310.61443 299.741311,312.856636 297.986141,314.126613 C297.090145,314.776792 296.034589,315.10492 294.966758,315.10492 C293.960297,315.10492 292.947699,314.807174 292.076251,314.211683 L245.496742,282.462275 L198.929509,314.211683 C197.155929,315.433048 194.774789,315.390513 193.019619,314.126613 C191.264449,312.856637 190.515741,310.620506 191.147847,308.566669 L207.551935,255.452489 L162.408476,221.910531 C160.671717,220.616248 159.947556,218.374041 160.610347,216.320204 C161.279276,214.254214 163.187869,212.850556 165.378763,212.801944 L222.071977,211.671726 L240.673094,159.213801 C241.397255,157.190346 243.32426,155.8353 245.490606,155.8353 C247.656952,155.8353 249.602368,157.190346 250.320392,159.213801 L268.92151,211.671726 L325.614723,212.801944 C327.793343,212.850556 329.708074,214.254214 330.377002,216.320204 C331.052217,218.375335 330.334166,220.616913 328.597284,221.910531 C328.597284,221.910531 330.334166,220.616913 328.597284,221.910531 L328.597284,221.910531" id="Shape" stroke="rgb(150,150,150)" stroke-width="1" fill="url(#linearGradient-1)"></path>
    </g>
</svg>