<?xml version="1.0" encoding="UTF-8" standalone="no"?>
<svg width="61px" height="61px" viewBox="0 0 61 61" version="1.1" xmlns="http://www.w3.org/2000/svg" xmlns:xlink="http://www.w3.org/1999/xlink" xmlns:sketch="http://www.bohemiancoding.com/sketch/ns">
    <title>Slice 1</title>
    <description>Created with Sketch (http://www.bohemiancoding.com/sketch)</description>
    <defs>
        <radialGradient cx="52.0050985%" cy="43.0593083%" fx="52.0050985%" fy="43.0593083%" r="99.999994%" id="radialGradient-1">
            <stop stop-color="#FAD367" offset="0%"></stop>
            <stop stop-color="#ED7733" offset="100%"></stop>
        </radialGradient>
    </defs>
    <g id="Page-1" stroke="none" stroke-width="1" fill="none" fill-rule="evenodd" sketch:type="MSPage">
        <g id="subscribe-on" sketch:type="MSLayerGroup" transform="translate(0.000000, 1.000000)">
            <g id="Page-1" sketch:type="MSShapeGroup">
                <g id="subscribe-on">
                    <g id="Page-1" transform="translate(30.368346, 29.827481) rotate(-90.000000) translate(-30.368346, -29.827481) translate(0.368346, -0.172519)">
                        <g id="subscribe-off">
                            <g id="g18">
                                <g id="path870" fill="url(#radialGradient-1)">
                                    <path d="M40.7391291,16.1739162 C40.7391291,29.4033078 30.0321728,40.1699161 16.8721738,40.1699161 L16.8721738,45.8624395 C33.1693898,45.8624362 46.4292178,32.5417423 46.4292178,16.1739162 L40.7391291,16.1739162 M30.6883472,16.1787857 C30.6883472,19.9003513 29.2493903,23.3954814 26.6356526,26.0177424 C24.0267828,28.6400035 20.5572178,30.0862647 16.8624347,30.0862647 L16.8624347,35.7763501 C27.624175,35.7763501 36.3772185,26.9831329 36.3772185,16.1787857 L30.6883505,16.1787857 L30.6883472,16.1787857 M20.7994793,16.2043508 C18.6240005,16.2043508 16.8599999,17.9720036 16.8599999,20.1474823 C16.8599999,22.3253942 18.6240005,24.0893948 20.7994793,24.0893948 C22.9761737,24.0893948 24.7413917,22.3253942 24.7413917,20.1474823 C24.7413917,17.9720036 22.9761737,16.2043508 20.7994793,16.2043508 M30.097915,59.7078269 C13.5401743,59.7078269 0.119652541,46.2848724 0.119652541,29.7295706 C0.119652541,13.1706125 13.5401743,-0.248691724 30.097915,-0.248691724 C46.6544342,-0.248691724 60.0761745,13.1706125 60.0761745,29.7295706 C60.0761745,46.2848724 46.6544342,59.7078269 30.097915,59.7078269" id="path-2"></path>
                                </g>
                                <g id="path870-1" fill="#EFA55A">
                                    <path d="M40.7391291,16.1739162 C40.7391291,29.4033078 30.0321728,40.1699161 16.8721738,40.1699161 L16.8721738,45.8624395 C33.1693898,45.8624362 46.4292178,32.5417423 46.4292178,16.1739162 L40.7391291,16.1739162 L40.7391291,16.1739162 Z M30.6883472,16.1787857 C30.6883472,19.9003513 29.2493903,23.3954814 26.6356526,26.0177424 C24.0267828,28.6400035 20.5572178,30.0862647 16.8624347,30.0862647 L16.8624347,35.7763501 C27.624175,35.7763501 36.3772185,26.9831329 36.3772185,16.1787857 L30.6883505,16.1787857 L30.6883472,16.1787857 L30.6883472,16.1787857 Z M20.7994793,16.2043508 C18.6240005,16.2043508 16.8599999,17.9720036 16.8599999,20.1474823 C16.8599999,22.3253942 18.6240005,24.0893948 20.7994793,24.0893948 C22.9761737,24.0893948 24.7413917,22.3253942 24.7413917,20.1474823 C24.7413917,17.9720036 22.9761737,16.2043508 20.7994793,16.2043508 L20.7994793,16.2043508 Z M0.119652541,29.7295706 C0.119652541,13.1706125 13.5401743,-0.248691724 30.097915,-0.248691724 C46.6544342,-0.248691724 60.0761745,13.1706125 60.0761745,29.7295706 C60.0761745,46.2848724 46.6544342,59.7078269 30.097915,59.7078269 C13.5401743,59.7078269 0.119652541,46.2848724 0.119652541,29.7295706 L0.119652541,29.7295706 Z" id="path-2"></path>
                                </g>
                            </g>
                        </g>
                    </g>
                </g>
            </g>
        </g>
    </g>
</svg>