<?xml version="1.0" encoding="UTF-8" standalone="no"?>
<svg width="61px" height="61px" viewBox="0 0 61 61" version="1.1" xmlns="http://www.w3.org/2000/svg" xmlns:xlink="http://www.w3.org/1999/xlink" xmlns:sketch="http://www.bohemiancoding.com/sketch/ns">
    <title>Slice 1</title>
    <description>Created with Sketch (http://www.bohemiancoding.com/sketch)</description>
    <defs></defs>
    <g id="Page-1" stroke="none" stroke-width="1" fill="none" fill-rule="evenodd" sketch:type="MSPage">
        <g id="subscribe-off" sketch:type="MSLayerGroup" transform="translate(0.000000, 1.000000)" fill="#989797">
            <g id="Page-1" sketch:type="MSShapeGroup">
                <g id="subscribe-off">
                    <g id="Page-1" transform="translate(30.368346, 29.827482) rotate(-90.000000) translate(-30.368346, -29.827482) translate(0.368346, -0.172518)">
                        <g id="subscribe-off">
                            <g id="g12">
                                <g id="g868">
                                    <path d="M40.7391287,16.1739165 C40.7391287,29.4033078 30.032173,40.1699157 16.8721739,40.1699157 L16.8721739,45.8624391 C33.1693896,45.8624365 46.4292174,32.5417426 46.4292174,16.1739165 L40.7391287,16.1739165 M30.688347,16.1787861 C30.688347,19.9003513 29.2493904,23.3954817 26.6356522,26.0177426 C24.0267826,28.6400035 20.5572174,30.0862643 16.8624348,30.0862643 L16.8624348,35.7763504 C27.6241748,35.7763504 36.3772183,26.983133 36.3772183,16.1787861 L30.6883504,16.1787861 L30.688347,16.1787861 M20.7994791,16.2043513 C18.6240009,16.2043513 16.86,17.9720043 16.86,20.1474835 C16.86,22.3253948 18.6240009,24.0893957 20.7994791,24.0893957 C22.9761739,24.0893957 24.7413913,22.3253948 24.7413913,20.1474835 C24.7413913,17.9720043 22.9761739,16.2043513 20.7994791,16.2043513 M30.0979148,59.707827 C13.5401739,59.707827 0.119652539,46.2848722 0.119652539,29.7295704 C0.119652539,13.1706122 13.5401739,-0.248691722 30.0979148,-0.248691722 C46.6544339,-0.248691722 60.0761748,13.1706122 60.0761748,29.7295704 C60.0761748,46.2848722 46.6544339,59.707827 30.0979148,59.707827" id="path870"></path>
                                </g>
                            </g>
                        </g>
                    </g>
                </g>
            </g>
        </g>
    </g>
</svg>