<?xml version="1.0" encoding="UTF-8" standalone="no"?>
<svg width="70px" height="70px" version="1.1" xmlns="http://www.w3.org/2000/svg" xmlns:xlink="http://www.w3.org/1999/xlink" xmlns:sketch="http://www.bohemiancoding.com/sketch/ns">
    <title>subscribe-on</title>
    <description>Created with Sketch (http://www.bohemiancoding.com/sketch)</description>
    <defs>
        <radialGradient cx="50%" cy="50%" fx="50%" fy="50%" r="100%" id="radialGradient-1">
            <stop stop-color="rgb(222,149,98)" offset="0%"></stop>
            <stop stop-color="rgb(217,120,60)" offset="100%"></stop>
        </radialGradient>
        <path d="M46.8499985,19.6000036 C46.8499985,34.813804 34.5369987,47.1954035 19.4029999,47.1954035 L19.4029999,53.7418054 C38.1447983,53.7418016 53.3936005,38.4230036 53.3936005,19.6000036 L46.8499985,19.6000036 M35.2915993,19.6056036 C35.2915993,23.885404 33.6367989,27.9048036 30.6310005,30.9204038 C27.6308002,33.936004 23.6408005,35.5992044 19.3917999,35.5992044 L19.3917999,42.1428026 C31.7678013,42.1428026 41.8338013,32.0306028 41.8338013,19.6056036 L35.2916031,19.6056036 L35.2915993,19.6056036 M23.9194012,19.6350034 C21.4176006,19.6350034 19.3889999,21.6678041 19.3889999,24.1696047 C19.3889999,26.6742033 21.4176006,28.702804 23.9194012,28.702804 C26.4225998,28.702804 28.4526005,26.6742033 28.4526005,24.1696047 C28.4526005,21.6678041 26.4225998,19.6350034 23.9194012,19.6350034 M34.6126022,69.6640009 C15.5712004,69.6640009 0.137600422,54.2276033 0.137600422,35.1890062 C0.137600422,16.1462044 15.5712004,0.714004517 34.6126022,0.714004517 C53.6525993,0.714004517 69.0876007,16.1462044 69.0876007,35.1890062 C69.0876007,54.2276033 53.6525993,69.6640009 34.6126022,69.6640009" id="path-2"></path>
    </defs>
    <g id="Page 1" fill="rgb(215,215,215)" fill-rule="evenodd">
        <g id="subscribe-off" fill="rgb(0,0,0)">
            <g id="Page 1" fill="rgb(222,223,222)">
                <use id="path870" fill="url(#radialGradient-1)" xlink:href="#path-2"></use>
                <use id="path870-1" stroke="none" fill="none" xlink:href="#path-2"></use>
            </g>
        </g>
    </g>
</svg>