<?xml version="1.0" encoding="UTF-8" standalone="no"?>
<svg width="55px" height="63px" version="1.1" xmlns="http://www.w3.org/2000/svg" xmlns:xlink="http://www.w3.org/1999/xlink" xmlns:sketch="http://www.bohemiancoding.com/sketch/ns">
    <title>supercollection</title>
    <description>Created with Sketch (http://www.bohemiancoding.com/sketch)</description>
    <defs>
        <radialGradient cx="90.5947289%" cy="62.51549%" fx="90.5947289%" fy="62.51549%" r="35.5185747%" id="radialGradient-1">
            <stop stop-color="rgb(254,255,254)" offset="0%"></stop>
            <stop stop-color="rgb(230,89,232)" offset="100%"></stop>
        </radialGradient>
        <path d="M0.607638743,22.4675003 C0.607638743,20.3100003 2.39131933,18.5562503 4.59259259,18.5562503 C6.79131944,18.5562503 8.57627308,20.3100003 8.57627308,22.4675003 C8.57627308,24.6300004 6.79131944,26.3800004 4.59259259,26.3800004 C2.39131948,26.3800004 0.607638743,24.6300004 0.607638743,22.4675003 Z M20.8703704,43.1300004 L19.3247685,45.9587504 C18.9708334,46.6062503 18.150926,46.8525003 17.4863426,46.5025003 C16.8268517,46.1562504 16.5773148,45.3475005 16.9312499,44.6975003 L18.4806712,41.8687503 C18.7225693,41.4225003 19.1910879,41.1650003 19.6761573,41.1650003 C19.8925925,41.1650003 20.1128471,41.2175003 20.317824,41.3250003 C20.9773148,41.6725004 21.2255787,42.4812504 20.8703704,43.1300004 Z M14.6848381,58.5425005 C14.6848381,60.7025002 12.9024306,62.4550007 10.7037037,62.4550007 C8.50243059,62.4550007 6.71874985,60.7025002 6.71874985,58.5425005 C6.71874985,56.3812504 8.50243059,54.6300004 10.7037037,54.6300004 C12.9024306,54.6300004 14.6848381,56.3812504 14.6848381,58.5425005 Z M47.625,62.3762502 C44.2829861,62.3762502 41.5584492,59.7062503 41.5584492,56.4200004 C41.5584492,55.3725004 41.8385418,54.3900004 42.3236113,53.5325004 L28.4857635,39.2750003 C27.2291663,40.0225003 25.7612263,40.4575002 24.1914349,40.4575002 C19.5928238,40.4575002 15.854861,36.7875001 15.854861,32.2750002 C15.854861,27.7650002 19.5928241,24.0937501 24.1914349,24.0937501 C24.2767359,24.0937501 24.3543979,24.1025001 24.4422451,24.1050001 L27.5334488,12.1937498 C25.8057868,11.1424998 24.6446756,9.26874989 24.6446756,7.12999964 C24.6446756,3.84499961 27.3692127,1.17499971 30.713773,1.17499971 C33.6355271,1.17499971 36.0818062,3.21415952 36.6522293,5.92089705 C36.7345264,6.31140862 36.7777777,6.7158158 36.7777777,7.12999964 C36.7777777,10.3062495 34.2314814,12.9012498 31.0409721,13.0699995 L27.9484954,24.9824991 C30.6590277,26.3324992 32.5229166,29.0924993 32.5229166,32.2749993 C32.5229166,33.9587493 32.002199,35.5262493 31.1097221,36.8274992 L44.9488423,51.0837489 C45.7560183,50.6899989 46.6637729,50.4637489 47.6249997,50.4637489 C50.9721062,50.4637489 53.6940972,53.134999 53.6940972,56.4199987 C53.6940975,59.7062503 50.9721067,62.3762502 47.625,62.3762502 Z M13.7592593,28.6300004 L10.5929398,26.9112504 C9.93472221,26.5537504 9.69537041,25.7425004 10.0607639,25.1000004 C10.3077546,24.6600004 10.7711806,24.4112504 11.2486111,24.4112504 C11.4701389,24.4112504 11.6967593,24.4650004 11.9042824,24.5775004 L15.0706019,26.2987504 C15.7288195,26.6550004 15.9668981,27.4650004 15.6040509,28.1112504 C15.2412037,28.7550004 14.4136574,28.9887504 13.7592593,28.6300004 Z M43.3866899,22.4675003 C43.3866899,20.3100003 45.1690973,18.5575002 47.3703704,18.5575002 C49.5703704,18.5575002 51.3540509,20.3100002 51.3540509,22.4675003 C51.3540509,24.6300004 49.5703704,26.3800004 47.3703704,26.3800004 C45.1690973,26.3800004 43.3866899,24.6300004 43.3866899,22.4675003 Z M16.8148148,50.1300004 L15.269213,52.9587504 C14.9152778,53.6062503 14.0953705,53.8525003 13.430787,53.5025003 C12.7712961,53.1562504 12.5217593,52.3475005 12.8756943,51.6975003 L14.4251156,48.8687503 C14.6670138,48.4225003 15.1355323,48.1650003 15.6206017,48.1650003 C15.8370369,48.1650003 16.0572916,48.2175003 16.2622684,48.3250003 C16.9217593,48.6725004 17.1700232,49.4812504 16.8148148,50.1300004 Z M40.4953704,27.1300004 L37.3481483,28.8925004 C36.6975694,29.2562504 35.8687499,29.0337504 35.4957175,28.3962504 C35.1265046,27.7550004 35.3518519,26.9425004 36.0011574,26.5762504 L39.1445604,24.8137505 C39.3609955,24.6950005 39.5888891,24.6387505 39.820602,24.6387505 C40.2891206,24.6387505 40.7474539,24.8812505 40.9982641,25.3125004 C41.3700231,25.9512504 41.1421297,26.7650004 40.4953704,27.1300004 Z M40.4953704,27.1300004" id="path-2"></path>
    </defs>
    <g id="Page 1" fill="rgb(215,215,215)" fill-rule="evenodd">
        <g id="Group">
            <use id="path2722" stroke="rgb(254,255,254)" stroke-width="0.5" fill="url(#radialGradient-1)" xlink:href="#path-2"></use>
            <use id="path2722-1" stroke="none" fill="none" xlink:href="#path-2"></use>
        </g>
    </g>
</svg>