<?xml version="1.0" encoding="UTF-8" standalone="no"?>
<svg width="62px" height="62px" version="1.1" xmlns="http://www.w3.org/2000/svg" xmlns:xlink="http://www.w3.org/1999/xlink" xmlns:sketch="http://www.bohemiancoding.com/sketch/ns">
    <title>supercollection</title>
    <description>Created with Sketch (http://www.bohemiancoding.com/sketch)</description>
    <defs></defs>
    <g id="Page 1" fill="rgb(223,223,223)" fill-rule="evenodd">
        <g id="Group">
            <g id="g2720" fill="rgb(0,0,0)">
                <path d="M7.59259259,44.0737501 C5.39131948,44.0737501 3.60763874,42.3237501 3.60763874,40.1612499 C3.60763874,38.00375 5.39131933,36.25 7.59259259,36.25 C9.79131944,36.25 11.5762731,38.00375 11.5762731,40.1612499 C11.5762731,42.3237501 9.79131944,44.0737501 7.59259259,44.0737501" id="path2722" fill="rgb(168,182,207)"></path>
            </g>
            <g id="g2724" fill="rgb(0,0,0)">
                <path d="M13.7037037,0.174999714 C15.9024306,0.174999714 17.6848381,1.92624974 17.6848381,4.08749986 C17.6848381,6.24749947 15.9024306,8 13.7037037,8 C11.5024306,8 9.71874985,6.24749947 9.71874985,4.08749986 C9.71874985,1.92624974 11.5024306,0.174999714 13.7037037,0.174999714" id="path2726" fill="rgb(168,182,207)"></path>
            </g>
            <g id="g2728" fill="rgb(0,0,0)">
                <path d="M19.8148148,10.9330886 L18.269213,13.7618386 C17.9152778,14.4093385 17.0953705,14.6555885 16.430787,14.3055885 C15.7712961,13.9593386 15.5217593,13.1505887 15.8756943,12.5005885 L17.4251156,9.67183852 C17.6670138,9.22558853 18.1355323,8.96808849 18.6206017,8.96808849 C18.8370369,8.96808849 19.0572916,9.02058849 19.2622684,9.1280885 C19.9217593,9.47558859 20.1700232,10.2843386 19.8148148,10.9330886" id="path2730" fill="rgb(168,182,207)"></path>
            </g>
            <g id="g2744" fill="rgb(0,0,0)">
                <path d="M16.7592593,38.0503815 L13.5929398,36.3316315 C12.9347222,35.9741315 12.6953704,35.1628815 13.0607639,34.5203815 C13.3077546,34.0803815 13.7711806,33.8316315 14.2486111,33.8316315 C14.4701389,33.8316315 14.6967593,33.8853815 14.9042824,33.9978815 L18.0706019,35.7191314 C18.7288195,36.0753814 18.9668981,36.8853815 18.6040509,37.5316315 C18.2412037,38.1753815 17.4136574,38.4091315 16.7592593,38.0503815" id="path2746" fill="rgb(168,182,207)"></path>
            </g>
            <g id="g2748" fill="rgb(0,0,0)">
                <path d="M50.625,52.2087509 C50.4111111,52.2087509 50.1997685,52.2337509 49.9947917,52.2725009 C48.7050926,52.5137509 47.6840279,53.4850009 47.3784723,54.7287509 C47.3135416,54.9775008 47.2753472,55.233751 47.2753472,55.4987509 C47.2753472,57.313751 48.7789351,58.7912506 50.625,58.7912506 C52.4736111,58.7912506 53.9771989,57.313751 53.9771989,55.4987509 C53.9771989,53.6850009 52.4736111,52.2087509 50.625,52.2087509 M31.7734952,30.3175003 C31.5621526,29.4187503 31.0859951,28.6200002 30.4252313,28.0050003 C30.2966433,27.8850003 30.156597,27.7775003 30.0140044,27.6700002 C29.2221063,27.0850003 28.2519674,26.7262503 27.1914349,26.7262503 C26.9546294,26.7262503 26.7292821,26.7625002 26.5064812,26.7937503 C25.5032405,26.9387502 24.5993053,27.3812503 23.9041665,28.0450003 C23.254861,28.6687503 22.7863424,29.4725003 22.5864583,30.3775004 C22.5164351,30.6925004 22.4744212,31.0175004 22.4744212,31.3537504 C22.4744212,32.6437503 23.0206018,33.8112504 23.8901619,34.6512504 C24.5216434,35.2600004 25.3237268,35.6975004 26.2225694,35.8825004 C26.5344907,35.9462504 26.8591434,35.9812504 27.1914351,35.9812504 C27.7847221,35.9812504 28.3487267,35.8612504 28.8719907,35.6637504 C30.0445602,35.2212504 30.9917823,34.3387505 31.5010417,33.2162505 C31.7582176,32.6462505 31.9046297,32.0175005 31.9046297,31.3537505 C31.9046297,30.9962505 31.8537037,30.6525005 31.7734954,30.3175005 M31.2680556,8.44125118 C31.8791667,9.0875012 32.7449074,9.50000118 33.7137732,9.50000118 C34.0868056,9.50000118 34.4407407,9.42500118 34.7768519,9.31375118 C36.1021991,8.87500116 37.0659722,7.65625121 37.0659722,6.20875122 C37.0659722,4.39375119 35.559838,2.91750135 33.7137733,2.91750135 C31.8677084,2.91750135 30.3615743,4.39375134 30.3615743,6.20875122 C30.3615743,7.07375118 30.7078706,7.8537512 31.2680558,8.44125124 M50.625,61.4550007 C47.2829861,61.4550007 44.5584492,58.7850008 44.5584492,55.4987509 C44.5584492,54.4512509 44.8385418,53.4687509 45.3236113,52.6112509 L31.4857635,38.3537508 C30.2291663,39.1012507 28.7612263,39.5362507 27.1914349,39.5362507 C22.5928238,39.5362507 18.854861,35.8662506 18.854861,31.3537507 C18.854861,26.8437507 22.5928241,23.1725006 27.1914349,23.1725006 C27.2767359,23.1725006 27.3543979,23.1812506 27.4422451,23.1837506 L30.5334488,11.2725003 C28.8057868,10.2212503 27.6446756,8.34750038 27.6446756,6.20875013 C27.6446756,2.9237501 30.3692127,0.253750205 33.713773,0.253750205 C36.6355271,0.253750205 39.0818062,2.29291001 39.6522293,4.99964754 C39.7345264,5.39015911 39.7777777,5.79456629 39.7777777,6.20875013 C39.7777777,9.38499999 37.2314814,11.9800003 34.0409721,12.1487499 L30.9484954,24.0612496 C33.6590277,25.4112497 35.5229166,28.1712497 35.5229166,31.3537498 C35.5229166,33.0374998 35.002199,34.6049998 34.1097221,35.9062497 L47.9488423,50.1624994 C48.7560183,49.7687494 49.6637729,49.5424994 50.6249997,49.5424994 C53.9721062,49.5424994 56.6940972,52.2137495 56.6940972,55.4987492 C56.6940975,58.7850008 53.9721067,61.4550007 50.625,61.4550007 Z M50.625,61.4550007" id="path2750" fill="rgb(168,182,207)"></path>
            </g>
            <g id="g2716" fill="rgb(168,182,207)">
                <path d="M50.3703704,44.0725002 C48.1690973,44.0725002 46.3866899,42.3225002 46.3866899,40.16 C46.3866899,38.0025001 48.1690973,36.25 50.3703704,36.25 C52.5703704,36.25 54.3540509,38.0024999 54.3540509,40.16 C54.3540509,42.3225002 52.5703704,44.0725002 50.3703704,44.0725002" id="path2718"></path>
            </g>
            <g id="g2740" fill="rgb(168,182,207)">
                <path d="M43.4953704,36.0539821 L40.3481483,37.8164821 C39.6975694,38.1802321 38.8687499,37.9577321 38.4957175,37.3202322 C38.1265046,36.6789821 38.3518519,35.8664821 39.0011574,35.5002322 L42.1445604,33.7377322 C42.3609955,33.6189822 42.5888891,33.5627322 42.820602,33.5627322 C43.2891206,33.5627322 43.7474539,33.8052322 43.9982641,34.2364822 C44.3700231,34.8752321 44.1421297,35.6889822 43.4953704,36.0539821" id="path2742"></path>
            </g>
            <g id="g2728" fill="rgb(0,0,0)">
                <path d="M23.8703704,17.9330886 L22.3247685,20.7618386 C21.9708334,21.4093385 21.150926,21.6555885 20.4863426,21.3055885 C19.8268517,20.9593386 19.5773148,20.1505887 19.9312499,19.5005885 L21.4806712,16.6718385 C21.7225693,16.2255885 22.1910879,15.9680885 22.6761573,15.9680885 C22.8925925,15.9680885 23.1128471,16.0205885 23.317824,16.1280885 C23.9773148,16.4755886 24.2255787,17.2843386 23.8703704,17.9330886" id="path2730" fill="rgb(168,182,207)"></path>
            </g>
        </g>
    </g>
</svg>