<?xml version="1.0" encoding="UTF-8" standalone="no"?>
<svg width="56px" height="64px" version="1.1" xmlns="http://www.w3.org/2000/svg" xmlns:xlink="http://www.w3.org/1999/xlink" xmlns:sketch="http://www.bohemiancoding.com/sketch/ns">
    <title>supercollection</title>
    <description>Created with Sketch (http://www.bohemiancoding.com/sketch)</description>
    <defs>
        <radialGradient cx="44.839108%" cy="50%" fx="44.839108%" fy="50%" r="100%" id="radialGradient-1">
            <stop stop-color="rgb(152,169,199)" offset="0%"></stop>
            <stop stop-color="rgb(0,0,0)" offset="100%"></stop>
        </radialGradient>
        <path d="M1.60763874,22.4675003 C1.60763874,20.3100003 3.39131933,18.5562503 5.59259259,18.5562503 C7.79131944,18.5562503 9.57627308,20.3100003 9.57627308,22.4675003 C9.57627308,24.6300004 7.79131944,26.3800004 5.59259259,26.3800004 C3.39131948,26.3800004 1.60763874,24.6300004 1.60763874,22.4675003 Z M21.8703704,43.1300004 L20.3247685,45.9587504 C19.9708334,46.6062503 19.150926,46.8525003 18.4863426,46.5025003 C17.8268517,46.1562504 17.5773148,45.3475005 17.9312499,44.6975003 L19.4806712,41.8687503 C19.7225693,41.4225003 20.1910879,41.1650003 20.6761573,41.1650003 C20.8925925,41.1650003 21.1128471,41.2175003 21.317824,41.3250003 C21.9773148,41.6725004 22.2255787,42.4812504 21.8703704,43.1300004 Z M15.6848381,58.5425005 C15.6848381,60.7025002 13.9024306,62.4550007 11.7037037,62.4550007 C9.50243059,62.4550007 7.71874985,60.7025002 7.71874985,58.5425005 C7.71874985,56.3812504 9.50243059,54.6300004 11.7037037,54.6300004 C13.9024306,54.6300004 15.6848381,56.3812504 15.6848381,58.5425005 Z M48.625,62.3762502 C45.2829861,62.3762502 42.5584492,59.7062503 42.5584492,56.4200004 C42.5584492,55.3725004 42.8385418,54.3900004 43.3236113,53.5325004 L29.4857635,39.2750003 C28.2291663,40.0225003 26.7612263,40.4575002 25.1914349,40.4575002 C20.5928238,40.4575002 16.854861,36.7875001 16.854861,32.2750002 C16.854861,27.7650002 20.5928241,24.0937501 25.1914349,24.0937501 C25.2767359,24.0937501 25.3543979,24.1025001 25.4422451,24.1050001 L28.5334488,12.1937498 C26.8057868,11.1424998 25.6446756,9.26874989 25.6446756,7.12999964 C25.6446756,3.84499961 28.3692127,1.17499971 31.713773,1.17499971 C34.6355271,1.17499971 37.0818062,3.21415952 37.6522293,5.92089705 C37.7345264,6.31140862 37.7777777,6.7158158 37.7777777,7.12999964 C37.7777777,10.3062495 35.2314814,12.9012498 32.0409721,13.0699995 L28.9484954,24.9824991 C31.6590277,26.3324992 33.5229166,29.0924993 33.5229166,32.2749993 C33.5229166,33.9587493 33.002199,35.5262493 32.1097221,36.8274992 L45.9488423,51.0837489 C46.7560183,50.6899989 47.6637729,50.4637489 48.6249997,50.4637489 C51.9721062,50.4637489 54.6940972,53.134999 54.6940972,56.4199987 C54.6940975,59.7062503 51.9721067,62.3762502 48.625,62.3762502 Z M14.7592593,28.6300004 L11.5929398,26.9112504 C10.9347222,26.5537504 10.6953704,25.7425004 11.0607639,25.1000004 C11.3077546,24.6600004 11.7711806,24.4112504 12.2486111,24.4112504 C12.4701389,24.4112504 12.6967593,24.4650004 12.9042824,24.5775004 L16.0706019,26.2987504 C16.7288195,26.6550004 16.9668981,27.4650004 16.6040509,28.1112504 C16.2412037,28.7550004 15.4136574,28.9887504 14.7592593,28.6300004 Z M44.3866899,22.4675003 C44.3866899,20.3100003 46.1690973,18.5575002 48.3703704,18.5575002 C50.5703704,18.5575002 52.3540509,20.3100002 52.3540509,22.4675003 C52.3540509,24.6300004 50.5703704,26.3800004 48.3703704,26.3800004 C46.1690973,26.3800004 44.3866899,24.6300004 44.3866899,22.4675003 Z M17.8148148,50.1300004 L16.269213,52.9587504 C15.9152778,53.6062503 15.0953705,53.8525003 14.430787,53.5025003 C13.7712961,53.1562504 13.5217593,52.3475005 13.8756943,51.6975003 L15.4251156,48.8687503 C15.6670138,48.4225003 16.1355323,48.1650003 16.6206017,48.1650003 C16.8370369,48.1650003 17.0572916,48.2175003 17.2622684,48.3250003 C17.9217593,48.6725004 18.1700232,49.4812504 17.8148148,50.1300004 Z M41.4953704,27.1300004 L38.3481483,28.8925004 C37.6975694,29.2562504 36.8687499,29.0337504 36.4957175,28.3962504 C36.1265046,27.7550004 36.3518519,26.9425004 37.0011574,26.5762504 L40.1445604,24.8137505 C40.3609955,24.6950005 40.5888891,24.6387505 40.820602,24.6387505 C41.2891206,24.6387505 41.7474539,24.8812505 41.9982641,25.3125004 C42.3700231,25.9512504 42.1421297,26.7650004 41.4953704,27.1300004 Z M41.4953704,27.1300004" id="path-2"></path>
    </defs>
    <g id="Page 1" fill="rgb(215,215,215)" fill-rule="evenodd">
        <g id="Group">
            <use id="path2722" stroke="rgb(254,255,254)" stroke-width="1" fill="url(#radialGradient-1)" xlink:href="#path-2"></use>
            <use id="path2722-1" stroke="none" fill="none" xlink:href="#path-2"></use>
        </g>
    </g>
</svg>