<?xml version="1.0" encoding="UTF-8" standalone="no"?>
<svg width="62px" height="62px" version="1.1" xmlns="http://www.w3.org/2000/svg" xmlns:xlink="http://www.w3.org/1999/xlink" xmlns:sketch="http://www.bohemiancoding.com/sketch/ns">
    <title>supercollection</title>
    <description>Created with Sketch (http://www.bohemiancoding.com/sketch)</description>
    <defs>
        <radialGradient cx="43.3324993%" cy="50%" fx="43.3324993%" fy="50%" r="121.973801%" id="radialGradient-1">
            <stop stop-color="rgb(254,255,254)" stop-opacity="0.5" offset="0%"></stop>
            <stop stop-color="rgb(0,0,0)" stop-opacity="0.5" offset="100%"></stop>
        </radialGradient>
        <path d="M3.60763874,20.4675003 C3.60763874,18.3100003 5.39131933,16.5562503 7.59259259,16.5562503 C9.79131944,16.5562503 11.5762731,18.3100003 11.5762731,20.4675003 C11.5762731,22.6300004 9.79131944,24.3800004 7.59259259,24.3800004 C5.39131948,24.3800004 3.60763874,22.6300004 3.60763874,20.4675003 Z M23.8703704,41.1300004 L22.3247685,43.9587504 C21.9708334,44.6062503 21.150926,44.8525003 20.4863426,44.5025003 C19.8268517,44.1562504 19.5773148,43.3475005 19.9312499,42.6975003 L21.4806712,39.8687503 C21.7225693,39.4225003 22.1910879,39.1650003 22.6761573,39.1650003 C22.8925925,39.1650003 23.1128471,39.2175003 23.317824,39.3250003 C23.9773148,39.6725004 24.2255787,40.4812504 23.8703704,41.1300004 Z M17.6848381,56.5425005 C17.6848381,58.7025002 15.9024306,60.4550007 13.7037037,60.4550007 C11.5024306,60.4550007 9.71874985,58.7025002 9.71874985,56.5425005 C9.71874985,54.3812504 11.5024306,52.6300004 13.7037037,52.6300004 C15.9024306,52.6300004 17.6848381,54.3812504 17.6848381,56.5425005 Z M50.625,60.3762502 C47.2829861,60.3762502 44.5584492,57.7062503 44.5584492,54.4200004 C44.5584492,53.3725004 44.8385418,52.3900004 45.3236113,51.5325004 L31.4857635,37.2750003 C30.2291663,38.0225003 28.7612263,38.4575002 27.1914349,38.4575002 C22.5928238,38.4575002 18.854861,34.7875001 18.854861,30.2750002 C18.854861,25.7650002 22.5928241,22.0937501 27.1914349,22.0937501 C27.2767359,22.0937501 27.3543979,22.1025001 27.4422451,22.1050001 L30.5334488,10.1937498 C28.8057868,9.14249976 27.6446756,7.26874989 27.6446756,5.12999964 C27.6446756,1.84499961 30.3692127,-0.825000286 33.713773,-0.825000286 C36.6355271,-0.825000286 39.0818062,1.21415952 39.6522293,3.92089705 C39.7345264,4.31140862 39.7777777,4.7158158 39.7777777,5.12999964 C39.7777777,8.3062495 37.2314814,10.9012498 34.0409721,11.0699995 L30.9484954,22.9824991 C33.6590277,24.3324992 35.5229166,27.0924993 35.5229166,30.2749993 C35.5229166,31.9587493 35.002199,33.5262493 34.1097221,34.8274992 L47.9488423,49.0837489 C48.7560183,48.6899989 49.6637729,48.4637489 50.6249997,48.4637489 C53.9721062,48.4637489 56.6940972,51.134999 56.6940972,54.4199987 C56.6940975,57.7062503 53.9721067,60.3762502 50.625,60.3762502 Z M16.7592593,26.6300004 L13.5929398,24.9112504 C12.9347222,24.5537504 12.6953704,23.7425004 13.0607639,23.1000004 C13.3077546,22.6600004 13.7711806,22.4112504 14.2486111,22.4112504 C14.4701389,22.4112504 14.6967593,22.4650004 14.9042824,22.5775004 L18.0706019,24.2987504 C18.7288195,24.6550004 18.9668981,25.4650004 18.6040509,26.1112504 C18.2412037,26.7550004 17.4136574,26.9887504 16.7592593,26.6300004 Z M46.3866899,20.4675003 C46.3866899,18.3100003 48.1690973,16.5575002 50.3703704,16.5575002 C52.5703704,16.5575002 54.3540509,18.3100002 54.3540509,20.4675003 C54.3540509,22.6300004 52.5703704,24.3800004 50.3703704,24.3800004 C48.1690973,24.3800004 46.3866899,22.6300004 46.3866899,20.4675003 Z M19.8148148,48.1300004 L18.269213,50.9587504 C17.9152778,51.6062503 17.0953705,51.8525003 16.430787,51.5025003 C15.7712961,51.1562504 15.5217593,50.3475005 15.8756943,49.6975003 L17.4251156,46.8687503 C17.6670138,46.4225003 18.1355323,46.1650003 18.6206017,46.1650003 C18.8370369,46.1650003 19.0572916,46.2175003 19.2622684,46.3250003 C19.9217593,46.6725004 20.1700232,47.4812504 19.8148148,48.1300004 Z M43.4953704,25.1300004 L40.3481483,26.8925004 C39.6975694,27.2562504 38.8687499,27.0337504 38.4957175,26.3962504 C38.1265046,25.7550004 38.3518519,24.9425004 39.0011574,24.5762504 L42.1445604,22.8137505 C42.3609955,22.6950005 42.5888891,22.6387505 42.820602,22.6387505 C43.2891206,22.6387505 43.7474539,22.8812505 43.9982641,23.3125004 C44.3700231,23.9512504 44.1421297,24.7650004 43.4953704,25.1300004 Z M43.4953704,25.1300004" id="path-2"></path>
    </defs>
    <g id="Page 1" fill="rgb(223,223,223)" fill-rule="evenodd">
        <g id="Group">
            <use id="path2722" fill="rgb(167,183,211)" xlink:href="#path-2"></use>
            <use id="path2722-1" stroke="none" fill="url(#radialGradient-1)" xlink:href="#path-2"></use>
        </g>
    </g>
</svg>