<?xml version="1.0" encoding="UTF-8" standalone="no"?>
<!-- Created with Inkscape (http://www.inkscape.org/) -->

<svg
   xmlns:dc="http://purl.org/dc/elements/1.1/"
   xmlns:cc="http://creativecommons.org/ns#"
   xmlns:rdf="http://www.w3.org/1999/02/22-rdf-syntax-ns#"
   xmlns:svg="http://www.w3.org/2000/svg"
   xmlns="http://www.w3.org/2000/svg"
   xmlns:sodipodi="http://sodipodi.sourceforge.net/DTD/sodipodi-0.dtd"
   xmlns:inkscape="http://www.inkscape.org/namespaces/inkscape"
   id="svg2"
   version="1.1"
   inkscape:version="0.48.2 r9819"
   width="100"
   height="100"
   xml:space="preserve"
   sodipodi:docname="track-placeholder-grid.pdf"><metadata
     id="metadata8"><rdf:RDF><cc:Work
         rdf:about=""><dc:format>image/svg+xml</dc:format><dc:type
           rdf:resource="http://purl.org/dc/dcmitype/StillImage" /><dc:title></dc:title></cc:Work></rdf:RDF></metadata><defs
     id="defs6" /><sodipodi:namedview
     pagecolor="#ffffff"
     bordercolor="#666666"
     borderopacity="1"
     objecttolerance="10"
     gridtolerance="10"
     guidetolerance="10"
     inkscape:pageopacity="0"
     inkscape:pageshadow="2"
     inkscape:window-width="640"
     inkscape:window-height="480"
     id="namedview4"
     showgrid="false"
     inkscape:zoom="2.87625"
     inkscape:cx="50"
     inkscape:cy="50"
     inkscape:window-x="0"
     inkscape:window-y="0"
     inkscape:window-maximized="0"
     inkscape:current-layer="g10" /><g
     id="g10"
     inkscape:groupmode="layer"
     inkscape:label="track-placeholder-grid"
     transform="matrix(1.25,0,0,-1.25,0,100)"><g
       id="g12" /><g
       id="g14"><path
         d="M 0,0 80,0 80,80 0,80 0,0 z m 16.875,15.95375 c -1.15875,1.7176 -1.29938,4.0147 -0.39,6.3023 0.81375,2.0444 2.38875,3.952 4.44937,5.377 2.08876,1.4459 4.45313,2.2439 6.65813,2.2439 0.41062,0 0.79875,-0.038 1.18125,-0.0912 -0.0056,4.0489 -0.01312,8.09209 -0.02438,12.1258 -0.01125,4.9362 -0.02062,9.861 -0.02062,14.7782 0,0.8721 0.56062,1.6435 1.38375,1.9 l 27.74438,8.683 c 0.60187,0.1862 1.245,0.0779 1.74562,-0.2983 0.49875,-0.3743 0.795,-0.969 0.795,-1.5998 l 0,-0.9709 c 0.01125,-0.0665 0.01125,-0.133 0.01125,-0.2033 l 0,-30.267 c 0.5175,-1.2274 0.53625,-2.6752 0.14438,-4.1553 -0.09188,-0.6232 -0.25688,-1.254 -0.50813,-1.8867 -0.81375,-2.0444 -2.39437,-3.9539 -4.45125,-5.377 -2.08875,-1.4478 -4.45687,-2.2439 -6.65625,-2.2439 -2.4225,0 -4.39687,0.9443 -5.55562,2.6619 -1.15501,1.7176 -1.29938,4.0147 -0.39001,6.3004 0.81188,2.04439 2.3925,3.9558 4.45313,5.3789 2.085,1.4459 4.45313,2.242 6.65625,2.242 0.23062,0 0.45375,-0.0152 0.67312,-0.0342 0.16125,0.0228 0.32251,0.0513 0.48375,0.06079 l 0,20.09441 -21.32812,-6.67281 0,-23.93619 c 1.12312,-2.6657 -0.01688,-6.3574 -2.91,-9.2112 -0.10313,-0.1026 -0.21,-0.1919 -0.315,-0.2888 -0.12563,-0.1178 -0.25313,-0.2337 -0.38438,-0.3477 -0.12562,-0.1064 -0.26062,-0.2071 -0.38625,-0.3097 -0.28125,-0.2261 -0.54375,-0.4655 -0.84562,-0.6726 -2.09437,-1.4478 -4.45688,-2.2439 -6.66188,-2.2439 -2.42249,0 -4.395,0.9443 -5.55187,2.6619 z"
         style="fill:#a8b5d0;fill-opacity:1;fill-rule:evenodd;stroke:none"
         id="path16" /></g></g></svg>