<?xml version="1.0" encoding="UTF-8" standalone="no"?>
<svg width="150px" height="150px" viewBox="0 0 150 150" version="1.1" xmlns="http://www.w3.org/2000/svg" xmlns:xlink="http://www.w3.org/1999/xlink" xmlns:sketch="http://www.bohemiancoding.com/sketch/ns">
    <title>track-placeholder-grid</title>
    <description>Created with Sketch (http://www.bohemiancoding.com/sketch)</description>
    <defs>
        <path d="M368.5,17 C391.419818,17 410,-1.58018175 410,-24.5 C410,-47.4198183 391.419818,-66 368.5,-66 C345.580182,-66 327,-47.4198183 327,-24.5 C327,-1.58018175 345.580182,17 368.5,17 Z M368.5,153 C270.469452,153 191,73.5305479 191,-24.5 C191,-122.530548 270.469452,-202 368.5,-202 C466.530548,-202 546,-122.530548 546,-24.5 C546,73.5305479 466.530548,153 368.5,153 Z M368.5,153" id="path-1"></path>
    </defs>
    <g id="Page 1" stroke="none" stroke-width="1" fill="none" fill-rule="evenodd" sketch:type="MSPage">
        <g id="Oval 1">
            <use fill="#0B0A0A" fill-rule="evenodd" sketch:type="MSShapeGroup" xlink:href="#path-1"></use>
            <use fill="none" xlink:href="#path-1"></use>
        </g>
        <path d="M38.4021158,37.7907545 C40.0517338,35.3447574 42.8643728,34 46.3186782,34 C49.4628449,34 52.8315951,35.1337089 55.8180184,37.1954897 C56.2484698,37.4904163 56.6227753,37.8313407 57.023817,38.1533248 C57.202949,38.2994353 57.395449,38.44284 57.5745809,38.5943619 C57.7617337,38.7567069 57.9435392,38.9217576 58.1226712,39.089514 C58.2723934,39.2275072 58.4247892,39.3546774 58.5718378,39.5007879 C62.6972197,43.5648229 64.3227754,48.8220933 62.7212824,52.6182596 L62.7212824,86.7052854 L93.1336088,96.2078764 L93.1336088,67.5918735 C92.9036789,67.5783457 92.6737472,67.5377611 92.4438154,67.5052919 C92.1310065,67.5323474 91.812843,67.5539945 91.483991,67.5539945 C88.3425,67.5539945 84.9657279,66.4202865 81.9926736,64.3612097 C79.0543725,62.3346047 76.8005198,59.6126198 75.6428447,56.7012345 C74.3461442,53.4462181 74.5520114,50.1749685 76.1989563,47.7289712 C77.851248,45.2829739 80.6665592,43.9382166 84.1208668,43.9382166 C87.2570126,43.9382166 90.6337838,45.0719255 93.6121861,47.1337063 C96.5451375,49.1603124 98.7989918,51.8795901 99.9593391,54.790976 C100.317603,55.6919905 100.552881,56.5902992 100.683888,57.4777848 C101.242672,59.5855633 101.215936,61.6473441 100.47802,63.3952581 L100.47802,106.497842 C100.47802,106.597955 100.47802,106.692656 100.461978,106.787357 L100.461978,108.169995 C100.461978,109.068303 100.039547,109.915203 99.3283669,110.448235 C98.6145127,110.983974 97.6974641,111.138201 96.8392349,110.873038 L57.2778101,98.5077654 C56.1040948,98.1424893 55.3046851,97.0439551 55.3046851,95.8020163 C55.3046851,88.7995375 55.3180532,81.7862365 55.3340949,74.7567003 C55.3501372,69.012392 55.3608309,63.2545598 55.3688524,57.4886084 C54.8234358,57.5643691 54.2699976,57.618484 53.6844771,57.618484 C50.5403101,57.618484 47.1688867,56.4820692 44.1904837,54.4229937 C41.2521852,52.3936819 39.0063519,49.6771106 37.8460047,46.765724 C36.5493032,43.5080021 36.7498242,40.2367517 38.4021158,37.7907545" id="path1534" fill="#9B9B9B" sketch:type="MSShapeGroup" transform="translate(69.035570, 72.500000) scale(1, -1) translate(-69.035570, -72.500000) "></path>
    </g>
</svg>