<?xml version="1.0" encoding="UTF-8" standalone="no"?>
<!-- Created with Inkscape (http://www.inkscape.org/) -->

<svg
   xmlns:dc="http://purl.org/dc/elements/1.1/"
   xmlns:cc="http://creativecommons.org/ns#"
   xmlns:rdf="http://www.w3.org/1999/02/22-rdf-syntax-ns#"
   xmlns:svg="http://www.w3.org/2000/svg"
   xmlns="http://www.w3.org/2000/svg"
   xmlns:sodipodi="http://sodipodi.sourceforge.net/DTD/sodipodi-0.dtd"
   xmlns:inkscape="http://www.inkscape.org/namespaces/inkscape"
   id="svg2"
   version="1.1"
   inkscape:version="0.48.2 r9819"
   width="100"
   height="100"
   xml:space="preserve"
   sodipodi:docname="track-placeholder-grid.pdf"><metadata
     id="metadata8"><rdf:RDF><cc:Work
         rdf:about=""><dc:format>image/svg+xml</dc:format><dc:type
           rdf:resource="http://purl.org/dc/dcmitype/StillImage" /><dc:title></dc:title></cc:Work></rdf:RDF></metadata><defs
     id="defs6" /><sodipodi:namedview
     pagecolor="#ffffff"
     bordercolor="#666666"
     borderopacity="1"
     objecttolerance="10"
     gridtolerance="10"
     guidetolerance="10"
     inkscape:pageopacity="0"
     inkscape:pageshadow="2"
     inkscape:window-width="640"
     inkscape:window-height="480"
     id="namedview4"
     showgrid="false"
     inkscape:zoom="2.87625"
     inkscape:cx="50"
     inkscape:cy="50"
     inkscape:window-x="0"
     inkscape:window-y="0"
     inkscape:window-maximized="0"
     inkscape:current-layer="g10" /><g
     id="g10"
     inkscape:groupmode="layer"
     inkscape:label="track-placeholder-grid"
     transform="matrix(1.25,0,0,-1.25,0,100)"><g
       id="g12" /><g
       id="g14"><path
         d="M 0,80 0,0 80,0 80,80 0,80 z"
         style="fill:#000000;fill-opacity:1;fill-rule:evenodd;stroke:none"
         id="path16" /><path
         d="m 18.875,15.3 c 1.15687,-1.7176 3.12938,-2.6619 5.55187,-2.6619 2.205,0 4.56751,0.7961 6.66188,2.2439 0.30187,0.2071 0.56437,0.4465 0.84562,0.6726 0.12563,0.1026 0.26063,0.2033 0.38625,0.3097 0.13125,0.114 0.25875,0.2299 0.38438,0.3477 0.105,0.0969 0.21187,0.1862 0.315,0.2888 2.89312,2.8538 4.03312,6.5455 2.91,9.2112 l 0,23.9362 21.32812,6.6728 0,-20.0944 C 57.09688,36.2171 56.93562,36.1886 56.77437,36.1658 56.555,36.1848 56.33187,36.2 56.10125,36.2 53.89813,36.2 51.53,35.4039 49.445,33.958 c -2.06063,-1.4231 -3.64125,-3.3345 -4.45313,-5.3789 -0.90937,-2.2857 -0.765,-4.5828 0.39001,-6.3004 1.15875,-1.7176 3.13312,-2.6619 5.55562,-2.6619 2.19938,0 4.5675,0.7961 6.65625,2.2439 2.05688,1.4231 3.6375,3.3326 4.45125,5.377 0.25125,0.6327 0.41625,1.2635 0.50813,1.8867 0.39187,1.4801 0.37312,2.9279 -0.14438,4.1553 l 0,30.267 c 0,0.0703 0,0.1368 -0.01125,0.2033 l 0,0.9709 c 0,0.6308 -0.29625,1.2255 -0.795,1.5998 -0.50062,0.3762 -1.14375,0.4845 -1.74562,0.2983 L 32.1125,57.936 c -0.82313,-0.2565 -1.38375,-1.0279 -1.38375,-1.9 0,-4.9172 0.0094,-9.842 0.02062,-14.7782 0.01126,-4.0337 0.01875,-8.0769 0.02438,-12.1258 -0.3825,0.0532 -0.77063,0.0912 -1.18125,0.0912 -2.205,0 -4.56937,-0.798 -6.65813,-2.2439 -2.06062,-1.425 -3.63562,-3.3326 -4.44937,-5.377 -0.90938,-2.2876 -0.76875,-4.5847 0.39,-6.3023"
         style="fill:#ffffff;fill-opacity:1;fill-rule:evenodd;stroke:none"
         id="path18" /></g></g></svg>