<?xml version="1.0" encoding="UTF-8" standalone="no"?>
<svg width="51px" height="51px" viewBox="0 0 51 51" version="1.1" xmlns="http://www.w3.org/2000/svg" xmlns:xlink="http://www.w3.org/1999/xlink" xmlns:sketch="http://www.bohemiancoding.com/sketch/ns">
    <title>Slice 1</title>
    <description>Created with Sketch (http://www.bohemiancoding.com/sketch)</description>
    <defs></defs>
    <g id="Page-1" stroke="none" stroke-width="1" fill="none" fill-rule="evenodd" sketch:type="MSPage">
        <g id="trending" sketch:type="MSLayerGroup" transform="translate(1.000000, 2.000000)" fill="#000000">
            <g id="Page-1" sketch:type="MSShapeGroup">
                <g id="basic2-089_heart_beat">
                    <path d="M24.915,45.941 L17.221,11.314 L12.601,29.363 C12.367,30.279 11.542,30.92 10.596,30.92 L1.925,30.92 C0.78,30.92 -0.145,29.994 -0.145,28.85 C-0.145,27.707 0.781,26.782 1.925,26.782 L8.989,26.782 L15.358,1.901 C15.594,0.973 16.434,0.3 17.395,0.344 C18.353,0.36 19.174,1.031 19.383,1.965 L26.826,35.462 L30.625,16.425 C30.799,15.553 31.514,14.889 32.396,14.778 C33.283,14.663 34.133,15.13 34.52,15.932 L39.082,25.405 L47.037,25.405 C48.181,25.405 49.107,26.333 49.107,27.475 C49.107,28.62 48.18,29.545 47.037,29.545 L37.781,29.545 C36.986,29.545 36.261,29.09 35.917,28.373 L33.476,23.3 L28.966,45.895 C28.775,46.856 27.938,47.549 26.958,47.561 C25.966,47.562 25.126,46.89 24.915,45.941 Z" id="Shape"></path>
                </g>
            </g>
        </g>
    </g>
</svg>