<?xml version="1.0" encoding="UTF-8" standalone="no"?>
<svg width="65px" height="65px" viewBox="0 0 65 65" version="1.1" xmlns="http://www.w3.org/2000/svg" xmlns:xlink="http://www.w3.org/1999/xlink" xmlns:sketch="http://www.bohemiancoding.com/sketch/ns">
    <title>Slice 1</title>
    <description>Created with Sketch (http://www.bohemiancoding.com/sketch)</description>
    <defs></defs>
    <g id="Page-1" stroke="none" stroke-width="1" fill="none" fill-rule="evenodd" sketch:type="MSPage">
        <g id="tweet" sketch:type="MSLayerGroup" transform="translate(0.000000, 6.000000)" fill="#000000">
            <g id="Page-1" sketch:type="MSShapeGroup">
                <path d="M51.9557803,42.5059444 C51.9157159,42.5292288 51.8743591,42.5801634 51.8330022,42.625277 C49.4019965,45.0643196 46.5457909,46.2299957 43.2618008,46.0902892 L43.1609936,46.3405967 C43.181672,46.3624259 43.2023504,46.3624259 43.2217364,46.3624259 C46.2007201,47.095885 47.9635545,47.8497179 48.4895619,48.6675831 C48.6730828,49.3297337 48.4507899,49.6935526 47.8007124,49.785235 C46.3015272,49.5800411 44.9238281,49.2395063 43.6882932,48.7141515 C45.2495129,49.7852348 45.8556493,50.5390679 45.5118703,50.9276269 C43.9713288,50.8825131 42.3105941,50.0355421 40.5658533,48.3692511 C41.2146382,49.5582122 41.4589021,50.1970779 41.297352,50.3105895 C40.4663376,49.6935528 39.7361318,49.0314023 39.1093179,48.3270484 C37.7910685,46.7524397 36.7377625,45.2913427 35.9274262,43.9670414 L35.8860694,43.8535299 C33.8001347,40.2269819 32.3410142,36.5771498 31.4686438,32.8560089 L31.1455437,32.5809617 L31.0860932,32.5154743 C29.8285873,34.2035944 28.3294027,35.6166675 26.5265034,36.7619696 C24.3992118,38.2419853 21.9061708,39.6579689 19.0279945,41.0244729 C15.8887533,42.759162 12.7068629,44.1969747 9.4849079,45.3146265 C9.4655219,41.4566898 11.2270641,38.3787814 14.733347,36.1420219 L14.733347,36.0736239 C13.4965195,36.0998189 12.3010489,35.8917144 11.1469349,35.5017004 C11.3692278,31.9217214 13.7407831,29.4564842 18.2383375,28.0899798 L18.2176591,28.0215819 C16.4548246,28.1321828 14.9957041,27.4700322 13.8609763,26.1035281 C15.3407751,22.9994246 17.9540094,21.5179534 21.7446205,21.631465 C20.9937357,21.2196219 20.4069858,20.7670311 20.0218504,20.2620503 C19.3330008,19.4863882 19.1094155,18.5710197 19.3330008,17.5246761 C20.143336,15.9500674 21.6024565,15.2224294 23.7504264,15.3330304 L23.8719121,15.1744053 L23.8111692,15.1060073 C20.1032717,10.9992184 15.625103,9.15101792 10.3753717,9.53812132 L10.2952428,9.49155252 C7.09396627,9.51774752 3.6703969,11.1578435 -0.037500664,14.4438569 C3.68978304,8.69697212 8.63321579,4.54361432 14.754025,1.94012548 C21.7640061,-0.546941214 28.7752802,-0.728850714 35.7658749,1.39439697 L35.8860681,1.39439697 C42.6750487,3.49436019 48.4288169,7.80634322 53.1693429,14.3303453 C55.3586697,17.7516993 56.7363688,21.0115176 57.2843468,24.1418163 C60.8294019,24.0050204 63.3831855,25.0993879 64.9624993,27.424919 L64.9237273,27.4962276 C63.7476426,27.0407262 61.4381226,27.1746116 58.0132606,27.9269893 L58.0132606,28.3402877 C58.0132606,28.3592062 58.0132606,28.3592062 58.033939,28.3402877 C61.7831935,28.7943338 63.9919064,30.0938953 64.7001418,32.2418826 C62.0856168,31.1446043 59.5124474,31.1256857 56.9586635,32.1487449 C56.4946917,35.9368286 54.8339567,39.3829222 51.9557803,42.5059444" id="path432" transform="translate(32.462499, 25.427627) scale(1, -1) translate(-32.462499, -25.427627) "></path>
            </g>
        </g>
    </g>
</svg>