<?xml version="1.0" encoding="UTF-8" standalone="no"?>
<svg width="67px" height="67px" viewBox="0 0 67 67" version="1.1" xmlns="http://www.w3.org/2000/svg" xmlns:xlink="http://www.w3.org/1999/xlink" xmlns:sketch="http://www.bohemiancoding.com/sketch/ns">
    <title>tweet</title>
    <description>Created with Sketch (http://www.bohemiancoding.com/sketch)</description>
    <defs>
        <linearGradient x1="50%" y1="0%" x2="50%" y2="173.920641%" id="linearGradient-1">
            <stop stop-color="rgb(123,125,121)" offset="0%"></stop>
            <stop stop-color="rgb(0,0,0)" offset="100%"></stop>
        </linearGradient>
    </defs>
    <g id="Page 1" fill="rgb(215,215,215)" fill-rule="evenodd">
        <path d="M52.9557803,48.5059446 C52.9157159,48.529229 52.8743591,48.5801636 52.8330022,48.6252772 C50.4019965,51.0643198 47.5457909,52.2299959 44.2618008,52.0902894 L44.1609936,52.3405969 C44.181672,52.3624261 44.2023504,52.3624261 44.2217364,52.3624261 C47.2007201,53.0958852 48.9635545,53.8497181 49.4895619,54.6675833 C49.6730828,55.3297339 49.4507899,55.6935528 48.8007124,55.7852352 C47.3015272,55.5800413 45.9238281,55.2395065 44.6882932,54.7141517 C46.2495129,55.785235 46.8556493,56.5390681 46.5118703,56.9276271 C44.9713288,56.8825133 43.3105941,56.0355423 41.5658533,54.3692513 C42.2146382,55.5582124 42.4589021,56.1970781 42.297352,56.3105897 C41.4663376,55.693553 40.7361318,55.0314025 40.1093179,54.3270486 C38.7910685,52.7524399 37.7377625,51.2913429 36.9274262,49.9670416 L36.8860694,49.8535301 C34.8001347,46.2269821 33.3410142,42.57715 32.4686438,38.8560091 L32.1455437,38.5809619 L32.0860932,38.5154745 C30.8285873,40.2035946 29.3294027,41.6166677 27.5265034,42.7619698 C25.3992118,44.2419855 22.9061708,45.6579691 20.0279945,47.0244731 C16.8887533,48.7591622 13.7068629,50.1969749 10.4849079,51.3146267 C10.4655219,47.45669 12.2270641,44.3787816 15.733347,42.1420221 L15.733347,42.0736241 C14.4965195,42.0998191 13.3010489,41.8917146 12.1469349,41.5017006 C12.3692278,37.9217216 14.7407831,35.4564844 19.2383375,34.08998 L19.2176591,34.0215821 C17.4548246,34.132183 15.9957041,33.4700324 14.8609763,32.1035283 C16.3407751,28.9994248 18.9540094,27.5179536 22.7446205,27.6314652 C21.9937357,27.2196221 21.4069858,26.7670313 21.0218504,26.2620505 C20.3330008,25.4863884 20.1094155,24.5710199 20.3330008,23.5246763 C21.143336,21.9500676 22.6024565,21.2224296 24.7504264,21.3330306 L24.8719121,21.1744055 L24.8111692,21.1060075 C21.1032717,16.9992186 16.625103,15.1510181 11.3753717,15.5381215 L11.2952428,15.4915527 C8.09396627,15.5177477 4.6703969,17.1578437 0.962499336,20.4438571 C4.68978304,14.6969723 9.63321579,10.5436145 15.754025,7.94012566 C22.7640061,5.45305897 29.7752802,5.27114947 36.7658749,7.39439715 L36.8860681,7.39439715 C43.6750487,9.49436037 49.4288169,13.8063434 54.1693429,20.3303455 C56.3586697,23.7516995 57.7363688,27.0115178 58.2843468,30.1418165 C61.8294019,30.0050206 64.3831855,31.0993881 65.9624993,33.4249192 L65.9237273,33.4962278 C64.7476426,33.0407264 62.4381226,33.1746118 59.0132606,33.9269895 L59.0132606,34.3402879 C59.0132606,34.3592064 59.0132606,34.3592064 59.033939,34.3402879 C62.7831935,34.794334 64.9919064,36.0938955 65.7001418,38.2418828 C63.0856168,37.1446045 60.5124474,37.1256859 57.9586635,38.1487451 C57.4946917,41.9368288 55.8339567,45.3829224 52.9557803,48.5059446" id="path432" fill="url(#linearGradient-1)" transform="translate(33.462499, 31.427627) scale(1, -1) translate(-33.462499, -31.427627)"></path>
    </g>
</svg>