<?xml version="1.0" encoding="UTF-8" standalone="no"?>
<svg width="60px" height="60px" viewBox="0 0 60 60" version="1.1" xmlns="http://www.w3.org/2000/svg" xmlns:xlink="http://www.w3.org/1999/xlink" xmlns:sketch="http://www.bohemiancoding.com/sketch/ns">
    <title>uploading</title>
    <description>Created with Sketch (http://www.bohemiancoding.com/sketch)</description>
    <defs></defs>
    <g id="Page 1" fill="rgb(215,215,215)" fill-rule="evenodd">
        <g id="Group" fill="rgb(0,0,0)">
            <path d="M53.5140076,25.2529297 C51.9970076,25.2529297 50.7680075,26.4829297 50.7680075,27.9989297 L50.7680075,40.9829299 L12.2150061,40.9829299 L12.2150061,27.9989297 C12.2150061,26.4829297 10.9860061,25.2529297 9.46900606,25.2529297 C7.95300603,25.2529297 6.72300601,26.4829297 6.72300601,27.9989297 L6.72300601,43.7289293 C6.72300601,45.2449293 7.95300603,46.4749293 9.46900606,46.4749293 L53.5140042,46.4749293 C55.0300043,46.4749293 56.2590041,45.2449293 56.2590041,43.7289293 L56.2590041,27.9989297 C56.2590027,26.4829102 55.0289917,25.2529297 53.5140076,25.2529297 L53.5140076,25.2529297 L53.5140076,25.2529297" id="Shape" fill="rgb(133,134,133)"></path>
            <path d="M30.5474076,37.7359029 C30.7681677,38.0745732 31.117921,38.2760237 31.4919145,38.2760237 C31.8650424,38.2760237 32.2147957,38.0745732 32.4338244,37.7359029 L40.2253576,25.6770974 C40.4824782,25.2790624 40.5205702,24.7515931 40.3205875,24.3136572 C40.1223363,23.8747482 39.7197737,23.5973889 39.2825821,23.5973889 L34.2111599,23.5973889 L34.2111599,7.61078556 C34.2111599,5.92229972 32.9939492,4.55204737 31.4919147,4.55204737 C29.9898803,4.55204737 28.7709383,5.9213266 28.7709383,7.61078556 L28.7709383,23.5973889 L23.699516,23.5973889 C23.2614587,23.5993352 22.8597619,23.8757214 22.6623764,24.3136572 C22.4632594,24.751593 22.4987542,25.2800355 22.7567405,25.6770974 L30.5474076,37.7359029 L30.5474076,37.7359029 L30.5474076,37.7359029" id="Shape" fill="rgb(218,135,61)" transform="translate(31.491357, 21.414036) scale(1, -1) translate(-31.491357, -21.414036)"></path>
        </g>
    </g>
</svg>