<?xml version="1.0" encoding="UTF-8" standalone="no"?>
<svg width="51px" height="51px" viewBox="0 0 51 51" version="1.1" xmlns="http://www.w3.org/2000/svg" xmlns:xlink="http://www.w3.org/1999/xlink" xmlns:sketch="http://www.bohemiancoding.com/sketch/ns">
    <title>Slice 1</title>
    <description>Created with Sketch (http://www.bohemiancoding.com/sketch)</description>
    <defs></defs>
    <g id="Page-1" stroke="none" stroke-width="1" fill="none" fill-rule="evenodd" sketch:type="MSPage">
        <g id="uploading" sketch:type="MSLayerGroup" transform="translate(1.000000, 3.000000)" fill="#000000">
            <g id="Page-1" sketch:type="MSShapeGroup">
                <g id="Group">
                    <path d="M46.5140076,21.2529297 C44.9970076,21.2529297 43.7680075,22.4829297 43.7680075,23.9989297 L43.7680075,36.9829299 L5.2150061,36.9829299 L5.2150061,23.9989297 C5.2150061,22.4829297 3.9860061,21.2529297 2.46900606,21.2529297 C0.95300603,21.2529297 -0.27699399,22.4829297 -0.27699399,23.9989297 L-0.27699399,39.7289293 C-0.27699399,41.2449293 0.95300603,42.4749293 2.46900606,42.4749293 L46.5140042,42.4749293 C48.0300043,42.4749293 49.2590041,41.2449293 49.2590041,39.7289293 L49.2590041,23.9989297 C49.2590027,22.4829102 48.0289917,21.2529297 46.5140076,21.2529297 L46.5140076,21.2529297" id="Shape"></path>
                    <path d="M23.5474076,33.4598802 C23.7681677,33.7985505 24.117921,34.000001 24.4919145,34.000001 C24.8650424,34.000001 25.2147957,33.7985505 25.4338244,33.4598802 L33.2253576,21.4010747 C33.4824782,21.0030397 33.5205702,20.4755704 33.3205875,20.0376345 C33.1223363,19.5987255 32.7197737,19.3213662 32.2825821,19.3213662 L27.2111599,19.3213662 L27.2111599,3.33476282 C27.2111599,1.64627698 25.9939492,0.27602463 24.4919147,0.27602463 C22.9898803,0.27602463 21.7709383,1.64530386 21.7709383,3.33476282 L21.7709383,19.3213662 L16.699516,19.3213662 C16.2614587,19.3233125 15.8597619,19.5996987 15.6623764,20.0376345 C15.4632594,20.4755703 15.4987542,21.0040128 15.7567405,21.4010747 L23.5474076,33.4598802" id="Shape" transform="translate(24.534690, 17.276025) scale(1, -1) translate(-24.534690, -17.276025) "></path>
                </g>
            </g>
        </g>
    </g>
</svg>