<?xml version="1.0" encoding="UTF-8" standalone="no"?>
<svg width="52px" height="52px" version="1.1" xmlns="http://www.w3.org/2000/svg" xmlns:xlink="http://www.w3.org/1999/xlink" xmlns:sketch="http://www.bohemiancoding.com/sketch/ns">
    <title>uploading</title>
    <description>Created with Sketch (http://www.bohemiancoding.com/sketch)</description>
    <defs></defs>
    <g id="Page 1" fill="rgb(223,223,223)" fill-rule="evenodd">
        <g id="Group" fill="rgb(0,0,0)">
            <path d="M48.5140076,27.2529297 C46.9970076,27.2529297 45.7680075,28.4829297 45.7680075,29.9989297 L45.7680075,42.9829299 L7.21500611,42.9829299 L7.21500611,29.9989297 C7.21500611,28.4829297 5.98600614,27.2529297 4.46900606,27.2529297 C2.95300603,27.2529297 1.72300601,28.4829297 1.72300601,29.9989297 L1.72300601,45.7289293 C1.72300601,47.2449293 2.95300603,48.4749293 4.46900606,48.4749293 L48.5140042,48.4749293 C50.0300043,48.4749293 51.2590041,47.2449293 51.2590041,45.7289293 L51.2590041,29.9989297 C51.2590027,28.4829102 50.0289917,27.2529297 48.5140076,27.2529297 L48.5140076,27.2529297 L48.5140076,27.2529297" id="Shape" fill="rgb(152,152,151)"></path>
            <path d="M25.5474076,39.7359029 C25.7681677,40.0745732 26.117921,40.2760237 26.4919145,40.2760237 C26.8650424,40.2760237 27.2147957,40.0745732 27.4338244,39.7359029 L35.2253576,27.6770974 C35.4824782,27.2790624 35.5205702,26.7515931 35.3205875,26.3136572 C35.1223363,25.8747482 34.7197737,25.5973889 34.2825821,25.5973889 L29.2111599,25.5973889 L29.2111599,9.61078556 C29.2111599,7.92229972 27.9939492,6.55204737 26.4919147,6.55204737 C24.9898803,6.55204737 23.7709383,7.9213266 23.7709383,9.61078556 L23.7709383,25.5973889 L18.699516,25.5973889 C18.2614587,25.5993352 17.8597619,25.8757214 17.6623764,26.3136572 C17.4632594,26.751593 17.4987542,27.2800355 17.7567405,27.6770974 L25.5474076,39.7359029 L25.5474076,39.7359029 L25.5474076,39.7359029" id="Shape" fill="rgb(237,149,52)"></path>
        </g>
    </g>
</svg>