<?xml version="1.0" encoding="UTF-8" standalone="no"?>
<svg width="80px" height="80px" viewBox="0 0 80 80" version="1.1" xmlns="http://www.w3.org/2000/svg" xmlns:xlink="http://www.w3.org/1999/xlink" xmlns:sketch="http://www.bohemiancoding.com/sketch/ns">
    <title>Slice 1</title>
    <description>Created with Sketch (http://www.bohemiancoding.com/sketch)</description>
    <defs></defs>
    <g id="Page-1" stroke="none" stroke-width="1" fill="none" fill-rule="evenodd" sketch:type="MSPage">
        <g id="user-avatar" sketch:type="MSLayerGroup">
            <g id="Page-1" sketch:type="MSShapeGroup">
                <g id="user-avatar">
                    <g id="Page-1">
                        <path d="M8.00005106,0 C3.58174486,0 0,3.5797863 0,8.00005106 L0,71.9999489 C0,76.4182551 3.5797863,80 8.00005106,80 L71.9999489,80 C76.4182551,80 80,76.4202137 80,71.9999489 L80,8.00005106 C80,3.58174486 76.4202137,0 71.9999489,0 L8.00005106,0 L8.00005106,0 Z" id="Rectangle-1" fill="#606060"></path>
                        <g id="Group" transform="translate(9.000000, 9.000000)" fill="#D4D4D4">
                            <path d="M19.4346637,48.8679126 C20.6329237,48.4256526 22.5645037,43.8883927 22.5645037,43.8883927 C22.3755036,43.7875927 22.1650837,43.7334127 21.9521437,43.7334127 L21.4594837,43.7334127 C21.3599436,43.7334127 21.2578837,43.7460127 21.1621236,43.7674327 C13.5013237,45.5805727 6.3798032,49.5231125 0.56490349,55.1716923 C0.31290349,55.4148723 0.17178349,55.7525523 0.17178349,56.1015722 L0.17178349,60.7358522 C0.17178349,61.4540522 0.75264348,62.0323923 1.4695835,62.0323923 L31.0480839,62.0323923 C28.7939551,50.4567554 19.4346637,48.8679126 19.4346637,48.8679126 L19.4346637,48.8679126" id="Shape"></path>
                            <path d="M61.5287689,55.171604 C55.8423889,49.651544 48.902309,45.7556239 41.4393286,43.8933437 C41.2503286,43.7925437 41.0373886,43.7358437 40.8181486,43.7358437 L40.1415286,43.7358437 C39.9285886,43.7358437 39.7169086,43.7875037 39.5304286,43.8883037 L39.5316886,43.8883037 C39.5316886,43.8883037 41.4620085,48.4268237 42.6590087,48.8678236 C42.6590087,48.8678236 33.2997288,50.4566837 31.0481085,62.0323036 L60.6253497,62.0323036 C61.3422897,62.0323036 61.9218898,61.4539636 61.9218898,60.7357635 L61.9218898,56.1014835 C61.9218652,55.7525391 61.7795154,55.4147754 61.5287689,55.171604 C61.5287689,55.171604 61.7795154,55.4147754 61.5287689,55.171604 L61.5287689,55.171604" id="Shape"></path>
                            <path d="M19.4346637,10.3823877 C17.9781037,12.7184277 17.1238237,15.5131077 17.1238237,18.5207278 C17.1238237,20.1914878 17.3909437,21.7967277 17.8722637,23.2923478 C17.0381437,23.6854678 16.4572837,24.5725078 16.4572837,25.6031877 C16.4572837,26.9980077 17.5257636,28.1307478 18.8449836,28.1307478 L18.8865636,28.1307478 C19.1625036,31.8439678 20.9151636,35.5571879 23.5233637,38.1200278 L23.5233637,40.0465678 C23.5233637,40.1813878 23.5536037,40.3174678 23.6166037,40.4396878 C23.9605837,41.1150478 27.0916836,47.0370479 31.031704,47.118948 L31.108564,47.118948 C35.0410241,47.118948 38.1418837,41.1163081 38.4820843,40.4321278 C38.5425643,40.3111678 38.5728043,40.1813878 38.5728043,40.0453078 L38.5728043,38.1200278 C41.1810042,35.5559277 42.9349242,31.8464877 43.2121242,28.1294879 L43.2537042,28.1294879 C44.5704041,28.1294879 45.6388842,26.9980079 45.6388842,25.6019278 C45.6388842,24.5712478 45.0580242,23.6854678 44.2251642,23.2910879 C44.7077442,21.7942079 44.9748643,20.1902279 44.9748643,18.5194679 C44.9748643,16.9961279 44.7556243,15.5282278 44.3524243,14.1434879 C44.8816243,15.2195278 45.2281243,16.2161878 45.5355643,16.881468 C45.7296043,17.296008 46.4578843,16.881468 46.4578843,16.881468 C47.8703444,10.7503078 42.7320643,6.9325081 42.7320643,6.9325081 C46.5801041,7.1618281 47.933344,8.920788 47.933344,8.920788 C44.6535641,3.259608 40.3078239,4.7615279 40.2813641,4.7716081 C34.3417238,-3.72457198 21.1444844,2.0714282 21.1444844,2.0714282 C24.7531245,1.3872482 27.4117244,1.5182882 29.9090442,1.7828882 C17.7487842,1.1869082 15.0549048,13.6760284 15.0549048,13.6760284 C15.5160822,12.2068652 17.2448138,11.1485083 19.4346637,10.3823877 C19.4346637,10.3823877 17.2448138,11.1485083 19.4346637,10.3823877 L19.4346637,10.3823877" id="Shape"></path>
                        </g>
                    </g>
                </g>
            </g>
        </g>
    </g>
</svg>