<?xml version="1.0" encoding="UTF-8" standalone="no"?>
<svg width="80px" height="80px" version="1.1" xmlns="http://www.w3.org/2000/svg" xmlns:xlink="http://www.w3.org/1999/xlink" xmlns:sketch="http://www.bohemiancoding.com/sketch/ns">
    <title>user-avatar</title>
    <description>Created with Sketch (http://www.bohemiancoding.com/sketch)</description>
    <defs>
        <linearGradient x1="50%" y1="-106.108398%" x2="50%" y2="100%" id="linearGradient-1">
            <stop stop-color="rgb(254,255,254)" offset="0%"></stop>
            <stop stop-color="rgb(0,0,0)" offset="100%"></stop>
        </linearGradient>
    </defs>
    <g id="Page 1" fill="rgb(215,215,215)" fill-rule="evenodd">
        <path d="M8.00005106,0 C3.58174486,0 0,3.5797863 0,8.00005106 L0,71.9999489 C0,76.4182551 3.5797863,80 8.00005106,80 L71.9999489,80 C76.4182551,80 80,76.4202137 80,71.9999489 L80,8.00005106 C80,3.58174486 76.4202137,0 71.9999489,0 L8.00005106,0 Z M8.00005106,0" id="Rectangle 1" fill="url(#linearGradient-1)"></path>
        <g id="Group" fill="rgb(0,0,0)">
            <path d="M28.4346637,57.8679126 C29.6329237,57.4256526 31.5645037,52.8883927 31.5645037,52.8883927 C31.3755036,52.7875927 31.1650837,52.7334127 30.9521437,52.7334127 L30.4594837,52.7334127 C30.3599436,52.7334127 30.2578837,52.7460127 30.1621236,52.7674327 C22.5013237,54.5805727 15.3798032,58.5231125 9.56490349,64.1716923 C9.31290349,64.4148723 9.17178349,64.7525523 9.17178349,65.1015722 L9.17178349,69.7358522 C9.17178349,70.4540522 9.75264348,71.0323923 10.4695835,71.0323923 L40.0480839,71.0323923 C37.7939551,59.4567554 28.4346637,57.8679126 28.4346637,57.8679126 L28.4346637,57.8679126 L28.4346637,57.8679126" id="Shape" fill="rgb(202,202,202)"></path>
            <path d="M70.5287689,64.171604 C64.8423889,58.651544 57.902309,54.7556239 50.4393286,52.8933437 C50.2503286,52.7925437 50.0373886,52.7358437 49.8181486,52.7358437 L49.1415286,52.7358437 C48.9285886,52.7358437 48.7169086,52.7875037 48.5304286,52.8883037 L48.5316886,52.8883037 C48.5316886,52.8883037 50.4620085,57.4268237 51.6590087,57.8678236 C51.6590087,57.8678236 42.2997288,59.4566837 40.0481085,71.0323036 L69.6253497,71.0323036 C70.3422897,71.0323036 70.9218898,70.4539636 70.9218898,69.7357635 L70.9218898,65.1014835 C70.9218652,64.7525391 70.7795154,64.4147754 70.5287689,64.171604 C70.5287689,64.171604 70.7795154,64.4147754 70.5287689,64.171604 L70.5287689,64.171604" id="Shape" fill="rgb(202,202,202)"></path>
            <path d="M28.4346637,19.3823877 C26.9781037,21.7184277 26.1238237,24.5131077 26.1238237,27.5207278 C26.1238237,29.1914878 26.3909437,30.7967277 26.8722637,32.2923478 C26.0381437,32.6854678 25.4572837,33.5725078 25.4572837,34.6031877 C25.4572837,35.9980077 26.5257636,37.1307478 27.8449836,37.1307478 L27.8865636,37.1307478 C28.1625036,40.8439678 29.9151636,44.5571879 32.5233637,47.1200278 L32.5233637,49.0465678 C32.5233637,49.1813878 32.5536037,49.3174678 32.6166037,49.4396878 C32.9605837,50.1150478 36.0916836,56.0370479 40.031704,56.118948 L40.108564,56.118948 L40.108564,56.118948 C44.0410241,56.118948 47.1418837,50.1163081 47.4820843,49.4321278 C47.5425643,49.3111678 47.5728043,49.1813878 47.5728043,49.0453078 L47.5728043,47.1200278 C50.1810042,44.5559277 51.9349242,40.8464877 52.2121242,37.1294879 L52.2537042,37.1294879 C53.5704041,37.1294879 54.6388842,35.9980079 54.6388842,34.6019278 C54.6388842,33.5712478 54.0580242,32.6854678 53.2251642,32.2910879 C53.7077442,30.7942079 53.9748643,29.1902279 53.9748643,27.5194679 C53.9748643,25.9961279 53.7556243,24.5282278 53.3524243,23.1434879 C53.8816243,24.2195278 54.2281243,25.2161878 54.5355643,25.881468 C54.7296043,26.296008 55.4578843,25.881468 55.4578843,25.881468 C56.8703444,19.7503078 51.7320643,15.9325081 51.7320643,15.9325081 C55.5801041,16.1618281 56.933344,17.920788 56.933344,17.920788 C53.6535641,12.259608 49.3078239,13.7615279 49.2813641,13.7716081 C43.3417238,5.27542802 30.1444844,11.0714282 30.1444844,11.0714282 C33.7531245,10.3872482 36.4117244,10.5182882 38.9090442,10.7828882 C26.7487842,10.1869082 24.0549048,22.6760284 24.0549048,22.6760284 C24.5160822,21.2068652 26.2448138,20.1485083 28.4346637,19.3823877 C28.4346637,19.3823877 26.2448138,20.1485083 28.4346637,19.3823877 L28.4346637,19.3823877" id="Shape" fill="rgb(202,202,202)"></path>
        </g>
    </g>
</svg>