<?xml version="1.0" encoding="UTF-8" standalone="no"?>
<svg width="92px" height="69px" version="1.1" xmlns="http://www.w3.org/2000/svg" xmlns:xlink="http://www.w3.org/1999/xlink" xmlns:sketch="http://www.bohemiancoding.com/sketch/ns">
    <title>view-toggle-icon-cloud-active</title>
    <description>Created with Sketch (http://www.bohemiancoding.com/sketch)</description>
    <defs>
        <linearGradient x1="50%" y1="0%" x2="50%" y2="173.920641%" id="linearGradient-1">
            <stop stop-color="rgb(123,125,121)" offset="0%"></stop>
            <stop stop-color="rgb(0,0,0)" offset="100%"></stop>
        </linearGradient>
    </defs>
    <g id="Page 1" fill="rgb(215,215,215)" fill-rule="evenodd">
        <path d="M53.2311317,62.3975796 C49.0051182,62.3975796 44.7280619,60.1044871 41.4771467,58.2654723 L25.3757014,58.2654723 C12.8296694,58.2654723 3.00299883,49.4563637 3.00299883,38.2126997 C3.00299883,26.7437438 13.039121,17.4124462 25.3757014,17.4124462 C26.2082314,17.4124462 27.0390012,17.4543611 27.8644908,17.5399373 C30.3708811,8.48283289 39.1362065,2 49.5173095,2 C59.3527791,2 67.9403345,7.97286897 70.8427489,16.5060372 C82.1443867,17.5434301 91.0029988,26.431129 91.0029988,37.2067426 C91.0029988,48.6739521 80.9668766,58.0035034 68.632057,58.0035034 C67.5689533,58.0035034 66.5058496,57.9336453 65.4568266,57.7939291 C62.2165436,60.1465059 58.3390259,62.3975796 53.2311317,62.3975796 L53.2311317,62.3975796 L53.2311317,62.3975796 L53.2311317,62.3975796 M25.3757207,23.5810016 C16.4678267,23.5810016 9.2232319,30.1441713 9.2232319,38.2110371 C9.2232319,46.1259616 16.1650883,52.0918445 25.3757207,52.0918445 L42.3044161,52.0918445 C42.8465286,52.0918445 43.3780805,52.2333071 43.8497889,52.498768 C46.5480307,54.0321536 50.4079423,56.2239518 53.2311514,56.2239518 C56.9854564,56.2239518 59.8825904,54.2644317 62.7656429,52.0813656 C63.4714452,51.5434581 64.3796597,51.3356302 65.2491519,51.5050361 C66.352738,51.7198498 67.4897663,51.8298764 68.6320749,51.8298764 C77.5382089,51.8298764 84.7828029,45.268453 84.7828029,37.2033335 C84.7828029,29.1364678 77.5382081,22.5767907 68.6320749,22.5767907 C67.1201441,22.5802836 65.6909385,21.5760732 65.3899604,20.1107993 C63.9695552,13.1913532 57.293475,8.1703012 49.5155682,8.1703012 C41.1321854,8.1703012 34.2237715,13.8637376 33.4387643,21.4119065 C33.3437186,22.300851 32.8684901,23.1077123 32.1310059,23.6194231 C31.3935217,24.1328802 30.4729865,24.309272 29.5946938,24.0909654 C28.2253643,23.7521932 26.8066659,23.5810016 25.3757207,23.5810016 L25.3757207,23.5810016 L25.3757207,23.5810016 L25.3757207,23.5810016" id="Shape" fill="url(#linearGradient-1)"></path>
    </g>
</svg>