<?xml version="1.0" encoding="UTF-8" standalone="no"?>
<svg width="44px" height="39px" version="1.1" xmlns="http://www.w3.org/2000/svg" xmlns:xlink="http://www.w3.org/1999/xlink" xmlns:sketch="http://www.bohemiancoding.com/sketch/ns">
    <title>view-refresh</title>
    <description>Created with Sketch (http://www.bohemiancoding.com/sketch)</description>
    <defs></defs>
    <g id="Page 1" fill="rgb(223,223,223)" fill-rule="evenodd">
        <path d="M42.8927655,25.2878941 L36.0097656,15.8128937 C35.8167656,15.5458937 35.5067655,15.3878937 35.1767656,15.3878937 C34.8477656,15.3878937 34.5367656,15.5458937 34.3437656,15.8128937 L27.4607657,25.2868937 C27.2317657,25.6008937 27.2007657,26.0158937 27.3767657,26.3598936 C27.5517657,26.7058936 27.9057656,26.9218936 28.2937657,26.9218936 L32.1067656,26.9218936 C31.2747656,28.3278936 30.2177656,29.6088936 28.9327656,30.6928935 C25.9367655,33.2178936 22.1357657,34.4258936 18.2317654,34.0938935 C14.3277653,33.7608935 10.7867652,31.9288936 8.26076567,28.9328938 C5.73476612,25.936894 4.52876555,22.1368938 4.86076557,18.232894 C5.19276556,14.327894 7.0247656,10.7868939 10.0207654,8.26089384 C13.0167652,5.73489381 16.8147656,4.52889372 20.7207652,4.86089374 C24.5477651,5.18689375 28.0417653,6.96489383 30.5577651,9.86489393 C31.4277651,10.8668939 32.9457651,10.9738939 33.9487652,10.1058939 C34.9507651,9.23589392 35.0577651,7.71789391 34.1887651,6.71589382 C30.8467651,2.86489375 26.2097651,0.504893855 21.1277653,0.0708938399 C15.9457651,-0.367106154 10.900765,1.23489387 6.92276535,4.58689363 C2.94576536,7.94089373 0.512765506,12.6418939 0.0717655213,17.8248935 C-0.369234493,23.0088936 1.23276553,28.0518938 4.58676539,32.028894 C7.94076524,36.0058943 12.6417657,38.4388939 17.8247653,38.8808943 C18.3877653,38.9288943 18.9497653,38.9518943 19.5087653,38.9518943 C24.0917655,38.9518943 28.4847652,37.3538942 32.0287658,34.3658943 C34.4547659,32.3208942 36.3017655,29.7718944 37.4777657,26.9208941 L42.0587655,26.9208941 C42.4467655,26.9208941 42.7997655,26.7038941 42.9757655,26.3588941 C43.15276,26.0149449 43.1197705,25.6008824 42.8927655,25.2878941 C42.8927655,25.2878941 43.1197705,25.6008824 42.8927655,25.2878941 L42.8927655,25.2878941" id="Shape" fill="rgb(0,0,0)"></path>
    </g>
</svg>