<?xml version="1.0" encoding="UTF-8" standalone="no"?>
<svg width="44px" height="39px" viewBox="0 0 44 39" version="1.1" xmlns="http://www.w3.org/2000/svg" xmlns:xlink="http://www.w3.org/1999/xlink" xmlns:sketch="http://www.bohemiancoding.com/sketch/ns">
    <title>view-refresh</title>
    <description>Created with Sketch (http://www.bohemiancoding.com/sketch)</description>
    <defs></defs>
    <g id="Page 1" fill="rgb(215,215,215)" fill-rule="evenodd">
        <path d="M43.373884,25.2878941 L36.4908841,15.8128937 C36.2978841,15.5458937 35.9878841,15.3878937 35.6578841,15.3878937 C35.3288841,15.3878937 35.0178841,15.5458937 34.8248841,15.8128937 L27.9418842,25.2868937 C27.7128842,25.6008937 27.6818842,26.0158937 27.8578842,26.3598936 C28.0328842,26.7058936 28.3868842,26.9218936 28.7748842,26.9218936 L32.5878842,26.9218936 C31.7558842,28.3278936 30.6988841,29.6088936 29.4138842,30.6928935 C26.4178841,33.2178936 22.6168842,34.4258936 18.7128839,34.0938935 C14.8088839,33.7608935 11.2678838,31.9288936 8.74188423,28.9328938 C6.21588468,25.936894 5.00988411,22.1368938 5.34188413,18.232894 C5.67388412,14.327894 7.50588417,10.7868939 10.501884,8.26089384 C13.4978838,5.73489381 17.2958841,4.52889372 21.2018838,4.86089374 C25.0288837,5.18689375 28.5228839,6.96489383 31.0388837,9.86489393 C31.9088837,10.8668939 33.4268837,10.9738939 34.4298837,10.1058939 C35.4318837,9.23589392 35.5388837,7.71789391 34.6698837,6.71589382 C31.3278837,2.86489375 26.6908836,0.504893855 21.6088838,0.0708938399 C16.4268837,-0.367106154 11.3818836,1.23489387 7.40388391,4.58689363 C3.42688392,7.94089373 0.993884067,12.6418939 0.552884082,17.8248935 C0.111884068,23.0088936 1.7138841,28.0518938 5.06788395,32.028894 C8.4218838,36.0058943 13.1228843,38.4388939 18.3058839,38.8808943 C18.8688839,38.9288943 19.4308839,38.9518943 19.9898839,38.9518943 C24.5728841,38.9518943 28.9658837,37.3538942 32.5098843,34.3658943 C34.9358845,32.3208942 36.7828841,29.7718944 37.9588842,26.9208941 L42.5398841,26.9208941 C42.9278841,26.9208941 43.2808841,26.7038941 43.4568841,26.3588941 C43.6338785,26.0149449 43.600889,25.6008824 43.373884,25.2878941 C43.373884,25.2878941 43.600889,25.6008824 43.373884,25.2878941 L43.373884,25.2878941" id="Shape" fill="rgb(80,81,80)"></path>
    </g>
</svg>