<?xml version="1.0" encoding="UTF-8" standalone="no"?>
<svg width="54px" height="44px" version="1.1" xmlns="http://www.w3.org/2000/svg" xmlns:xlink="http://www.w3.org/1999/xlink" xmlns:sketch="http://www.bohemiancoding.com/sketch/ns">
    <title>volume-icon-full</title>
    <description>Created with Sketch (http://www.bohemiancoding.com/sketch)</description>
    <defs>
        <linearGradient x1="50%" y1="-39.1231204%" x2="50%" y2="222.072246%" id="linearGradient-1">
            <stop stop-color="rgb(254,255,255)" offset="0%"></stop>
            <stop stop-color="rgb(0,0,0)" offset="100%"></stop>
        </linearGradient>
    </defs>
    <g id="Page 1" fill="rgb(223,223,223)" fill-rule="evenodd">
        <g id="Group" fill="rgb(0,0,0)">
            <path d="M34.974563,14.947998 C34.045343,15.086998 33.468023,15.7009981 33.686303,16.3189981 L33.681203,16.3199981 C34.182023,17.7209981 34.430903,19.166998 34.425803,20.6099981 C34.430903,22.0639981 34.167743,23.5229982 33.664883,24.9479979 C33.441503,25.5639979 34.031063,26.1759979 34.965383,26.3219978 C35.096963,26.3429978 35.228543,26.3509978 35.360123,26.3509978 C36.144503,26.3509978 36.858503,25.9929978 37.047203,25.4659978 C37.607183,23.8709978 37.888703,22.2399978 37.897883,20.6099979 C37.891763,18.9909979 37.611263,17.3779978 37.055363,15.7979981 C36.8319666,15.1810303 35.90479,14.802002 34.974563,14.947998 C34.974563,14.947998 35.90479,14.802002 34.974563,14.947998 L34.974563,14.947998" id="Shape" fill="url(#linearGradient-1)"></path>
            <path d="M47.4460925,5.19897461 C47.0360525,4.62297463 45.9997325,4.38197464 45.1388524,4.65097463 C44.2738925,4.91697463 43.9056725,5.59897465 44.3106125,6.17097461 L44.3024525,6.17097461 C47.5735925,10.7489747 49.2035523,15.6799744 49.2035523,20.6209744 C49.2035523,25.5639743 47.5746123,30.4979743 44.3024525,35.0749749 C43.8934325,35.6469749 44.2647125,36.3289748 45.1378325,36.5979749 C45.3765125,36.6689749 45.6253925,36.7039749 45.8671324,36.7029749 C46.5209524,36.7049749 47.1462124,36.4599749 47.4450725,36.0469749 C50.9293924,31.163975 52.6827727,25.8949744 52.6827727,20.6209752 C52.6828064,15.3530273 50.928374,10.0839844 47.4460925,5.19897461 C47.4460925,5.19897461 50.928374,10.0839844 47.4460925,5.19897461 L47.4460925,5.19897461" id="Shape" fill="url(#linearGradient-1)"></path>
            <path d="M42.8683569,11.4260254 C42.5501169,10.8270254 41.562757,10.5150254 40.6641369,10.7230254 C39.7634769,10.9250254 39.2830569,11.5770254 39.5972169,12.1730254 C41.0211369,14.8780254 41.730037,17.7370256 41.730037,20.6030257 C41.727997,23.4820257 41.004817,26.363026 39.5747771,29.0970262 C39.2616371,29.6910262 39.7420571,30.3460261 40.6488371,30.5490262 C40.8354971,30.5910262 41.025217,30.6110262 41.211877,30.6110262 C41.935057,30.6110262 42.6102971,30.3150262 42.861217,29.8400262 C44.4075371,26.8650263 45.1980369,23.737026 45.197017,20.6030257 C45.1980334,17.4909668 44.4319751,14.3780518 42.8683569,11.4260254 C42.8683569,11.4260254 44.4319751,14.3780518 42.8683569,11.4260254 L42.8683569,11.4260254" id="Shape" fill="url(#linearGradient-1)"></path>
            <path d="M26.9451135,2.40698242 C24.4869134,3.95198238 18.2006536,9.20898247 14.5816932,12.280982 L3.95227371,12.280982 C3.24337372,12.280982 2.66605367,12.845982 2.66605367,13.542982 L2.66605367,28.0439824 C2.66605367,28.7399824 3.24235367,29.3049824 3.95227371,29.3049824 L14.8203734,29.3049824 C18.4699335,32.4019823 24.5399537,37.4649823 26.9451135,38.9769824 C30.0102136,40.9039824 30.4029136,37.6499823 30.4029136,37.6499823 L30.4029136,21.0769824 L30.4029136,20.3079824 L30.4029136,3.73498243 C30.4029285,3.73400879 30.0102185,0.479003906 26.9451135,2.40698242 C26.9451135,2.40698242 30.0102185,0.479003906 26.9451135,2.40698242 L26.9451135,2.40698242" id="Shape" fill="url(#linearGradient-1)"></path>
        </g>
    </g>
</svg>