<?xml version="1.0" encoding="UTF-8" standalone="no"?>
<svg width="43px" height="44px" version="1.1" xmlns="http://www.w3.org/2000/svg" xmlns:xlink="http://www.w3.org/1999/xlink" xmlns:sketch="http://www.bohemiancoding.com/sketch/ns">
    <title>volume-icon-muted</title>
    <description>Created with Sketch (http://www.bohemiancoding.com/sketch)</description>
    <defs>
        <linearGradient x1="50%" y1="-66.3125%" x2="50%" y2="100%" id="linearGradient-1">
            <stop stop-color="rgb(254,255,255)" offset="0%"></stop>
            <stop stop-color="rgb(0,0,0)" offset="100%"></stop>
        </linearGradient>
    </defs>
    <g id="Page 1" fill="rgb(223,223,223)" fill-rule="evenodd">
        <g id="Group" fill="rgb(0,0,0)">
            <path d="M32.5421999,3.6104414 C30.0839998,5.15544135 23.7977399,10.4124414 20.1787796,13.484441 L9.54936008,13.484441 C8.84046009,13.484441 8.26314004,14.049441 8.26314004,14.746441 L8.26314004,29.2474414 C8.26314004,29.9434413 8.83944004,30.5084414 9.54936008,30.5084414 L20.4174598,30.5084414 C24.0670199,33.6054413 30.1370401,38.6684412 32.5421999,40.1804413 C35.6073,42.1074414 36,38.8534413 36,38.8534413 L36,22.2804414 L36,21.5114414 L36,4.93844141 C36.0000148,4.93746776 35.6073049,1.68246288 32.5421999,3.6104414 C32.5421999,3.6104414 35.6073049,1.68246288 32.5421999,3.6104414 L32.5421999,3.6104414" id="Shape" stroke="rgb(167,167,167)" stroke-width="1" fill="url(#linearGradient-1)"></path>
        </g>
    </g>
</svg>