<?xml version="1.0" encoding="UTF-8" standalone="no"?>
<svg width="43px" height="44px" version="1.1" xmlns="http://www.w3.org/2000/svg" xmlns:xlink="http://www.w3.org/1999/xlink" xmlns:sketch="http://www.bohemiancoding.com/sketch/ns">
    <title>volume-icon-muted</title>
    <description>Created with Sketch (http://www.bohemiancoding.com/sketch)</description>
    <defs>
        <linearGradient x1="50%" y1="-39.1231204%" x2="50%" y2="222.072246%" id="linearGradient-1">
            <stop stop-color="rgb(254,255,255)" offset="0%"></stop>
            <stop stop-color="rgb(0,0,0)" offset="100%"></stop>
        </linearGradient>
    </defs>
    <g id="Page 1" fill="rgb(223,223,223)" fill-rule="evenodd">
        <g id="Group" fill="rgb(0,0,0)">
            <path d="M26.9451135,2.40698242 C24.4869134,3.95198238 18.2006536,9.20898247 14.5816932,12.280982 L3.95227371,12.280982 C3.24337372,12.280982 2.66605367,12.845982 2.66605367,13.542982 L2.66605367,28.0439824 C2.66605367,28.7399824 3.24235367,29.3049824 3.95227371,29.3049824 L14.8203734,29.3049824 C18.4699335,32.4019823 24.5399537,37.4649823 26.9451135,38.9769824 C30.0102136,40.9039824 30.4029136,37.6499823 30.4029136,37.6499823 L30.4029136,21.0769824 L30.4029136,20.3079824 L30.4029136,3.73498243 C30.4029285,3.73400879 30.0102185,0.479003906 26.9451135,2.40698242 C26.9451135,2.40698242 30.0102185,0.479003906 26.9451135,2.40698242 L26.9451135,2.40698242" id="Shape" fill="url(#linearGradient-1)"></path>
        </g>
    </g>
</svg>