<?xml version="1.0" encoding="UTF-8" standalone="no"?>
<svg width="50px" height="50px" viewBox="0 0 50 50" version="1.1" xmlns="http://www.w3.org/2000/svg" xmlns:xlink="http://www.w3.org/1999/xlink" xmlns:sketch="http://www.bohemiancoding.com/sketch/ns">
    <title>whatsnew</title>
    <description>Created with Sketch (http://www.bohemiancoding.com/sketch)</description>
    <defs></defs>
    <g id="Page-1" stroke="none" stroke-width="1" fill="none" fill-rule="evenodd" sketch:type="MSPage">
        <path d="M47.1514512,33.3989997 L29.5794507,2.44000006 C28.7244507,0.930000067 27.1234506,0 25.3894507,0 C23.6564506,0 22.0554506,0.930999994 21.1994506,2.44000006 L3.62745011,33.3989997 C2.7814501,34.8889997 2.79145009,36.7189996 3.65445011,38.2019997 C4.51745014,39.6849997 6.10345,40.5969996 7.81845015,40.5969996 L10.2354502,40.5969996 L10.2354502,48.0989995 C10.2354502,48.4839995 10.4694502,48.8289995 10.8274502,48.9719995 C10.9414502,49.0169995 11.0584502,49.0379995 11.1764502,49.0379995 C11.4294502,49.0379995 11.6784502,48.9359995 11.8594502,48.7469995 L20.7784499,40.5969999 L42.9644507,40.5969999 C44.6794508,40.5969999 46.2644507,39.6849999 47.1274508,38.2019999 C47.990451,36.7189999 47.9974595,34.8899665 47.1514512,33.3989997 C47.1514512,33.3989997 47.9974595,34.8899665 47.1514512,33.3989997 L47.1514512,33.3989997" id="Shape" fill="#000000" sketch:type="MSShapeGroup"></path>
        <path d="M18.3183594,19.2822266 C18.3183594,18.3544875 18.616208,17.4145555 19.2119141,16.4624023 C19.8076202,15.5102491 20.6767521,14.7216828 21.8193359,14.0966797 C22.9619198,13.4716766 24.2949143,13.1591797 25.8183594,13.1591797 C27.2343821,13.1591797 28.4843696,13.4204075 29.5683594,13.9428711 C30.6523492,14.4653346 31.4897431,15.1757768 32.0805664,16.0742188 C32.6713897,16.9726607 32.9667969,17.9492135 32.9667969,19.0039062 C32.9667969,19.8339885 32.7983415,20.5615203 32.4614258,21.1865234 C32.12451,21.8115266 31.7241234,22.3510719 31.2602539,22.8051758 C30.7963844,23.2592796 29.9638732,24.0234321 28.7626953,25.0976562 C28.4306624,25.4003921 28.1645518,25.6665028 27.9643555,25.8959961 C27.7641592,26.1254894 27.6152349,26.3354483 27.5175781,26.5258789 C27.4199214,26.7163095 27.3442385,26.9067373 27.2905273,27.097168 C27.2368161,27.2875986 27.1562505,27.6220679 27.0488281,28.1005859 C26.8632803,29.116216 26.2822314,29.6240234 25.3056641,29.6240234 C24.797849,29.6240234 24.3706072,29.4580095 24.0239258,29.1259766 C23.6772444,28.7939437 23.5039062,28.3007845 23.5039062,27.6464844 C23.5039062,26.8261678 23.6308581,26.1157257 23.8847656,25.5151367 C24.1386731,24.9145478 24.4755838,24.3872093 24.8955078,23.9331055 C25.3154318,23.4790016 25.8818324,22.9394563 26.5947266,22.3144531 C27.2197297,21.7675754 27.6713853,21.3549819 27.949707,21.0766602 C28.2280287,20.7983385 28.4624014,20.488283 28.652832,20.1464844 C28.8432627,19.8046858 28.9384766,19.4335958 28.9384766,19.0332031 C28.9384766,18.2519492 28.6479521,17.5927761 28.0668945,17.0556641 C27.4858369,16.518552 26.7363327,16.25 25.8183594,16.25 C24.7441353,16.25 23.9531275,16.5209934 23.4453125,17.0629883 C22.9374975,17.6049832 22.5078143,18.403315 22.15625,19.4580078 C21.8242171,20.561529 21.1943406,21.1132812 20.2666016,21.1132812 C19.7197238,21.1132812 19.2583027,20.9204121 18.8823242,20.534668 C18.5063458,20.1489239 18.3183594,19.7314476 18.3183594,19.2822266 Z M25.4667969,35.3369141 C24.8710908,35.3369141 24.3510764,35.1440449 23.9067383,34.7583008 C23.4624001,34.3725567 23.2402344,33.8330113 23.2402344,33.1396484 C23.2402344,32.524411 23.455076,32.006838 23.8847656,31.5869141 C24.3144553,31.1669901 24.8417937,30.9570312 25.4667969,30.9570312 C26.0820343,30.9570312 26.5996073,31.1669901 27.0195312,31.5869141 C27.4394552,32.006838 27.6494141,32.524411 27.6494141,33.1396484 C27.6494141,33.8232456 27.4296897,34.3603496 26.9902344,34.7509766 C26.5507791,35.1416035 26.0429716,35.3369141 25.4667969,35.3369141 Z" id="?" fill="#FFFFFF" sketch:type="MSShapeGroup"></path>
    </g>
</svg>