<?xml version="1.0" encoding="UTF-8" standalone="no"?>
<svg width="59px" height="60px" viewBox="0 0 59 60" version="1.1" xmlns="http://www.w3.org/2000/svg" xmlns:xlink="http://www.w3.org/1999/xlink" xmlns:sketch="http://www.bohemiancoding.com/sketch/ns">
    <title>Slice 1</title>
    <description>Created with Sketch (http://www.bohemiancoding.com/sketch)</description>
    <defs></defs>
    <g id="Page-1" stroke="none" stroke-width="1" fill="none" fill-rule="evenodd" sketch:type="MSPage">
        <g id="Group" sketch:type="MSLayerGroup">
            <path d="M29.2270508,0.392285156 C13.163521,0.392285156 0.148228365,13.6762848 0.148228365,30.0598846 L0.148228365,59.7154839 L29.2270508,59.7154839 C45.2858739,59.7154839 58.3117568,46.4446838 58.3117568,30.0598846 C58.3117389,13.6763672 45.2870519,0.392285156 29.2270508,0.392285156 L29.2270508,0.392285156 L29.2270508,0.392285156 M23.602338,44.596875 C23.2870439,44.918475 22.924691,45.063675 22.5058674,45.038475 C22.0893968,45.010875 21.6764557,44.787675 21.262338,44.367675 L17.7541026,40.7880749 C17.0611614,40.0788749 16.4317497,39.636075 15.8717496,39.4584749 C15.3105731,39.2808749 14.7423378,39.4836749 14.1670437,40.0740749 C13.7929261,40.4544749 13.5599849,40.9188749 13.4764555,41.4612749 C13.3917496,42.0048749 13.4717496,42.5496749 13.7199849,43.0932749 C13.9293966,43.5180749 14.4658672,44.168475 15.3223378,45.0456749 L17.9623377,47.736075 C18.3882201,48.171675 18.610573,48.6000751 18.6258672,49.017675 C18.6388083,49.438875 18.490573,49.808475 18.1776319,50.130075 C17.872926,50.438475 17.5141024,50.578875 17.0976319,50.5536749 C16.6799848,50.5284749 16.2682201,50.3052749 15.8541024,49.885275 L9.76704385,43.6764752 C9.36586739,43.2648752 9.15410264,42.8724752 9.13057325,42.4920752 C9.10704386,42.1116753 9.24822031,41.7672753 9.55057324,41.4576753 C9.73527913,41.2680752 9.94704384,41.1420752 10.1846909,41.0808752 C10.4188085,41.0172752 10.6705732,41.0292752 10.9352791,41.1156752 C11.2023379,41.2020752 11.459985,41.3736752 11.7117497,41.6316752 L11.9646909,41.8908753 C11.8458674,41.0160753 11.8941027,40.2360753 12.1035144,39.5544752 C12.3152792,38.8728752 12.7058674,38.2392753 13.2764556,37.6596752 C13.8341027,37.0908752 14.4493967,36.7104752 15.1293968,36.5100752 C15.8082204,36.3096752 16.4776321,36.3264752 17.1341027,36.5556752 C17.5305733,36.6768752 17.8976321,36.8688752 18.2376321,37.1292752 C18.5776321,37.3944752 18.9776321,37.7592752 19.439985,38.2332752 L23.3588087,42.2292751 C23.7799851,42.6588751 24.0058675,43.0848751 24.027044,43.5012751 C24.0529211,43.9174805 23.9106014,44.2810547 23.602338,44.596875 C23.602338,44.596875 23.9106014,44.2810547 23.602338,44.596875 L23.602338,44.596875 M32.5200052,33.8387695 C32.4529463,34.3859695 32.2694169,34.9691695 31.9682405,35.5907696 C31.667064,36.2123697 31.2200052,36.8255696 30.6305934,37.4279696 C29.2764758,38.8067697 27.8388288,39.4871696 26.3164757,39.4643696 C24.7952993,39.4451696 23.3729462,38.7599696 22.0505935,37.4111697 C21.4282405,36.7775697 20.9447111,36.0935696 20.5964759,35.3615697 C20.2494171,34.6295697 20.0635347,33.8891697 20.0376524,33.1379697 C20.0129465,32.3891697 20.1564759,31.6451697 20.4741229,30.9083696 C20.7905935,30.1715696 21.2623582,29.4815696 21.8964759,28.8347696 C22.7176523,27.9959696 23.5988288,27.4523696 24.534123,27.2063696 C25.4694172,26.9591696 26.3600054,26.9675696 27.2047113,27.2303696 C28.0482407,27.4919696 28.7541231,27.9143696 29.3258877,28.4975696 C29.8564759,29.0375696 30.0470641,29.5415696 29.9011818,30.0119695 C29.7529465,30.4823695 29.4035347,30.9971695 28.854123,31.5599695 L24.7352996,35.7611694 C25.2176525,36.2435694 25.7352996,36.5759694 26.2894172,36.7559694 C26.8435348,36.9371694 27.3658878,36.9647694 27.8647113,36.8327694 C28.3600054,36.7055694 28.7952995,36.4523694 29.1705936,36.0671694 C29.4223584,35.8103694 29.6223584,35.5451694 29.7717701,35.2715694 C29.9223583,34.9979694 30.0305936,34.6979694 30.0988289,34.3715694 C30.1694171,34.0427694 30.214123,33.7223694 30.234123,33.4067694 C30.2552995,33.0923694 30.274123,32.6747694 30.2894171,32.1539693 C30.3035348,31.9499693 30.4117701,31.7459693 30.6129466,31.5395693 C30.8282407,31.3211693 31.0635348,31.2023693 31.3141231,31.1867693 C31.5670642,31.1711693 31.8011819,31.2743693 32.0176525,31.4939693 C32.2082407,31.6883693 32.3552995,31.9919693 32.4611819,32.4035694 C32.5670642,32.8151694 32.587072,33.2941406 32.5200052,33.8387695 C32.5200052,33.8387695 32.587072,33.2941406 32.5200052,33.8387695 L32.5200052,33.8387695 M43.8917883,23.9027344 C43.5729647,24.2279344 43.2412001,24.4019344 42.9000236,24.4271344 C42.5588471,24.4499344 42.2270824,24.3863344 41.9082589,24.2423344 C41.5894353,24.0935344 41.1929648,23.8847344 40.7200236,23.6123344 L35.4117882,20.6531343 L38.3517883,26.0279344 C38.7682589,26.7683344 39.0306118,27.3779344 39.1423765,27.8579344 C39.2529647,28.3355344 39.0812,28.8095344 38.6282588,29.2703345 C38.3964941,29.5055344 38.1553177,29.6615345 37.903553,29.7347344 C37.6517883,29.8091344 37.3882588,29.8139344 37.1117883,29.7551344 C36.8353177,29.6963344 36.5447295,29.5907345 36.2341412,29.4407345 C35.9223765,29.2907345 35.6753177,29.1707345 35.4964942,29.0831344 L28.7470825,25.6739343 C28.103553,25.3643344 27.6929648,25.1183343 27.5117884,24.9347344 C27.2870825,24.7055344 27.1717884,24.4055343 27.1717884,24.0383344 C27.1717884,23.6711344 27.3047296,23.3531344 27.565906,23.0855343 C27.9153178,22.7291344 28.2517884,22.5899344 28.5717884,22.6643343 C28.8941413,22.7387343 29.3635531,22.9511343 29.9788472,23.2979343 L36.0600239,26.6963343 L32.9353181,20.9603341 C32.6106122,20.3579341 32.3964946,19.9379341 32.2941416,19.7003342 C32.1917887,19.4663342 32.1529651,19.1783341 32.177671,18.8435342 C32.2035534,18.5087342 32.3717887,18.1823342 32.6812004,17.8691342 C32.9941416,17.5475342 33.3141416,17.3759342 33.6435534,17.3471342 C33.9729652,17.3219342 34.262377,17.3627342 34.5117887,17.4707342 C34.7612004,17.5787342 35.1694357,17.7899342 35.7341416,18.1055342 L41.3576713,21.2903342 L38.0423771,15.0743344 C37.7929653,14.6339344 37.6223771,14.3051345 37.527083,14.0939345 C37.4317889,13.8827345 37.3929653,13.6487345 37.4094359,13.3931345 C37.4294359,13.1399345 37.5635536,12.8831345 37.8153183,12.6263345 C38.0682595,12.3695345 38.3753183,12.2363345 38.7341418,12.2255345 C39.0953183,12.2159345 39.3929654,12.3299345 39.6294359,12.5723345 C39.8459065,12.7919345 40.0929653,13.2059345 40.3694359,13.8155345 L43.6941418,20.7155345 C43.9729653,21.3023345 44.1659065,21.7367345 44.2741418,22.0139345 C44.3800241,22.2911345 44.4212006,22.5971345 44.3929653,22.9319345 C44.3682215,23.2631836 44.1999799,23.587207 43.8917883,23.9027344 C43.8917883,23.9027344 44.1999799,23.587207 43.8917883,23.9027344 L43.8917883,23.9027344" id="Shape" fill="#000000" sketch:type="MSShapeGroup"></path>
            <path d="M25.160027,29.5907227 C24.4659094,29.5691227 23.8423799,29.8391227 23.2917916,30.4019227 C22.7682622,30.9359226 22.5188505,31.5623227 22.5447328,32.2751226 C22.5694387,32.9891227 22.9012034,33.7439226 23.540027,34.5419227 L27.3588505,30.6479228 C26.5882497,29.9639648 25.8541044,29.6135742 25.160027,29.5907227 C25.160027,29.5907227 25.8541044,29.6135742 25.160027,29.5907227 L25.160027,29.5907227" id="Shape" fill="#706F6F" sketch:type="MSShapeGroup"></path>
        </g>
    </g>
</svg>