<?xml version="1.0" encoding="utf-8"?>
<!-- Generator: Adobe Illustrator 16.0.0, SVG Export Plug-In . SVG Version: 6.00 Build 0)  -->
<!DOCTYPE svg PUBLIC "-//W3C//DTD SVG 1.1//EN" "http://www.w3.org/Graphics/SVG/1.1/DTD/svg11.dtd">
<svg version="1.1" id="Layer_1" xmlns="http://www.w3.org/2000/svg" xmlns:xlink="http://www.w3.org/1999/xlink" x="0px" y="0px"
	 width="841.89px" height="595.28px" viewBox="0 0 841.89 595.28" enable-background="new 0 0 841.89 595.28" xml:space="preserve">
<g>
	<g>
		<path fill="none" d="M420.947,265.168c-17.911,0-32.477,14.565-32.477,32.472c0,17.906,14.565,32.476,32.477,32.476
			c2.568,0,5.06-0.318,7.459-0.888v-28.011l-22.338,15.806c-0.198,0.135-0.444,0.213-0.681,0.213c-0.184,0-0.372-0.039-0.541-0.136
			c-0.396-0.202-0.642-0.608-0.642-1.043v-37.053c0-0.435,0.246-0.845,0.642-1.053c0.396-0.193,0.864-0.159,1.222,0.092
			l22.338,15.807v-16.028h0.951h8.945v47.234c9.076-5.764,15.121-15.888,15.121-27.417
			C453.424,279.734,438.854,265.168,420.947,265.168z"/>
		<path fill="#E63E30" d="M420.947,256.165c-22.874,0-41.48,18.606-41.48,41.475c0,22.87,18.606,41.475,41.48,41.475
			c22.869,0,41.476-18.605,41.476-41.475C462.423,274.771,443.816,256.165,420.947,256.165z M438.303,325.057v-47.234h-8.945h-0.951
			v16.028l-22.338-15.807c-0.357-0.251-0.826-0.285-1.222-0.092c-0.396,0.208-0.642,0.618-0.642,1.053v37.053
			c0,0.435,0.246,0.841,0.642,1.043c0.169,0.097,0.357,0.136,0.541,0.136c0.236,0,0.482-0.078,0.681-0.213l22.338-15.806v28.011
			c-2.399,0.569-4.891,0.888-7.459,0.888c-17.911,0-32.477-14.57-32.477-32.476c0-17.906,14.565-32.472,32.477-32.472
			c17.906,0,32.477,14.565,32.477,32.472C453.424,309.169,447.379,319.293,438.303,325.057z"/>
	</g>
</g>
</svg>
