<?xml version="1.0" encoding="UTF-8" standalone="no"?>
<svg width="512px" height="512px" viewBox="0 0 512 512" version="1.1" xmlns="http://www.w3.org/2000/svg" xmlns:xlink="http://www.w3.org/1999/xlink" xmlns:sketch="http://www.bohemiancoding.com/sketch/ns">
    <title>tomahawk-icon-512x512</title>
    <description>Created with Sketch (http://www.bohemiancoding.com/sketch)</description>
    <defs></defs>
    <g id="Page-1" stroke="none" stroke-width="1" fill="none" fill-rule="evenodd" sketch:type="MSPage">
        <g id="Oval-1-+-Shape" sketch:type="MSLayerGroup" transform="translate(18.000000, 19.000000)">
            <g id="Oval-1" transform="translate(0.927734, 0.927734)" fill-opacity="0.9" fill="#FFFFFF" sketch:type="MSShapeGroup">
                <path d="M236.572266,473.144531 C367.227527,473.144531 473.144531,367.227527 473.144531,236.572266 C473.144531,105.917005 367.227527,0 236.572266,0 C105.917005,0 0,105.917005 0,236.572266 C0,367.227527 105.917005,473.144531 236.572266,473.144531 Z"></path>
            </g>
            <path d="M237.385542,0 C106.48012,0 -1.70530257e-13,106.48012 -1.70530257e-13,237.356928 C-1.70530257e-13,368.239458 106.48012,474.713855 237.385542,474.713855 C368.262349,474.713855 474.748193,368.239458 474.748193,237.356928 C474.74247,106.48012 368.262349,0 237.385542,0 L237.385542,0 Z M336.706325,394.261446 L336.706325,123.946386 L285.51506,123.946386 L280.07259,123.946386 L280.07259,215.672892 L152.234639,125.211145 C150.191566,123.774699 147.50753,123.58012 145.241265,124.684639 C142.975,125.875 141.567169,128.221386 141.567169,130.710843 L141.567169,342.761145 C141.567169,345.250602 142.975,347.574096 145.241265,348.73012 C146.208434,349.285241 147.284337,349.508434 148.337349,349.508434 C149.687952,349.508434 151.095783,349.062048 152.234639,348.289458 L280.07259,257.833434 L280.07259,418.137349 C266.343373,421.393675 252.081928,423.219277 237.385542,423.219277 C134.882831,423.219277 51.5231928,339.836747 51.5231928,237.362651 C51.5231928,134.888554 134.877108,51.5289157 237.385542,51.5289157 C339.859639,51.5289157 423.247892,134.882831 423.247892,237.362651 C423.242169,303.336145 388.647289,361.274699 336.706325,394.261446 L336.706325,394.261446 Z" id="Shape" fill="#FF004C" sketch:type="MSShapeGroup"></path>
        </g>
    </g>
</svg>