<?xml version="1.0" encoding="UTF-8" standalone="no"?>
<svg width="512px" height="512px" viewBox="0 0 512 512" version="1.1" xmlns="http://www.w3.org/2000/svg" xmlns:xlink="http://www.w3.org/1999/xlink" xmlns:sketch="http://www.bohemiancoding.com/sketch/ns">
    <title>tomahawk-icon</title>
    <description>Created with Sketch (http://www.bohemiancoding.com/sketch)</description>
    <defs></defs>
    <g id="Page-1" stroke="none" stroke-width="1" fill="none" fill-rule="evenodd" sketch:type="MSPage">
        <g id="Oval-1-+-Shape" sketch:type="MSLayerGroup">
            <g id="Oval-1" transform="translate(1.000000, 1.000000)" fill-opacity="0.9" fill="#FFFFFF" sketch:type="MSShapeGroup">
                <path d="M255,510 C395.832618,510 510,395.832618 510,255 C510,114.167382 395.832618,0 255,0 C114.167382,0 0,114.167382 0,255 C0,395.832618 114.167382,510 255,510 Z"></path>
            </g>
            <path d="M255.876627,0 C114.774361,0 -1.70530257e-13,114.774361 -1.70530257e-13,255.845783 C-1.70530257e-13,396.923373 114.774361,511.691566 255.876627,511.691566 C396.948048,511.691566 511.728578,396.923373 511.728578,255.845783 C511.72241,114.774361 396.948048,0 255.876627,0 L255.876627,0 Z M362.933976,424.972337 L362.933976,133.601157 L307.755181,133.601157 L301.888771,133.601157 L301.888771,232.472675 L164.092916,134.964434 C161.890699,133.416096 158.99759,133.206361 156.554795,134.396916 C154.112,135.68 152.594506,138.209157 152.594506,140.89253 L152.594506,369.460434 C152.594506,372.143807 154.112,374.648289 156.554795,375.894361 C157.597301,376.492723 158.757012,376.733301 159.892048,376.733301 C161.347855,376.733301 162.865349,376.252145 164.092916,375.419373 L301.888771,277.917301 L301.888771,450.708048 C287.09012,454.218024 271.717783,456.185831 255.876627,456.185831 C145.389494,456.185831 55.5365783,366.308241 55.5365783,255.851952 C55.5365783,145.395663 145.383325,55.542747 255.876627,55.542747 C366.332916,55.542747 456.216675,145.389494 456.216675,255.851952 C456.210506,326.964434 418.920867,389.416096 362.933976,424.972337 L362.933976,424.972337 Z" id="Shape" fill="#E63E30" sketch:type="MSShapeGroup"></path>
        </g>
    </g>
</svg>