<?xml version="1.0" encoding="utf-8"?>
<!-- Generator: Adobe Illustrator 15.0.0, SVG Export Plug-In . SVG Version: 6.00 Build 0)  -->
<!DOCTYPE svg PUBLIC "-//W3C//DTD SVG 1.1//EN" "http://www.w3.org/Graphics/SVG/1.1/DTD/svg11.dtd">
<svg version="1.1" id="Layer_1" xmlns="http://www.w3.org/2000/svg" xmlns:xlink="http://www.w3.org/1999/xlink" x="0px" y="0px"
	 width="600px" height="600px" viewBox="0 0 600 600" enable-background="new 0 0 600 600" xml:space="preserve">
<path fill="#010101" d="M543.773,253.359c0-49.962-19.305-86.572-54.194-104.54C477.84,71.133,405.027,13.418,316.568,13.418
	c-86.917,0-159.483,56.481-172.605,132.58c-38.049,16.818-59.889,55.24-59.889,107.361c0,27.029,7.188,51.824,20.321,71.749
	c-1.816,1.565-3.444,3.282-4.77,5.239c0,0,2.582,2.359,3.689,3.373c-4.262,2.123-8.22,4.322-11.555,6.67
	c0,0,3.021,7.355,5.896,14.353c-11.991,9.688-21.312,18.92-27.553,27.51c0,0,1.611,1.789,2.011,2.225
	c-12.354,9.158-22.133,18.205-28.528,27.021c0,0,6.927,7.35,12.408,13.166c-17.824,28.76-43.348,74.85-43.348,102.988
	c0,3.278,0.346,6.315,1.093,9.053c1.764,6.443,5.752,11.438,11.229,14.059c15.255,7.312,39.646-6.362,72.589-40.434
	c-0.828,8.287-1.457,16.662-1.457,24.736c0,16.805,2.266,32.069,8.77,41.25c4.887,6.895,10.898,9.067,15.084,9.682
	c6.723,0.99,26.375,3.797,57.992-61.295c2.678,0.705,5.421,1.178,8.235,1.178c8.798,0,17.065-3.424,23.287-9.639
	c4.284-4.287,7.133-9.584,8.562-15.312c7.516-2.129,14.555-6.701,20.779-13.19c19.562,24.86,44.779,37.643,75.38,37.643
	c7.317,0,14.474-0.754,21.281-2.242c0.392-0.073,2.555-0.623,2.555-0.623l0.62-0.166c23.05-5.823,42.463-20.409,58-43.254
	c7.2,9.23,15.731,15.994,24.849,19.457c1.141,6.658,4.226,12.808,9.102,17.691c6.22,6.213,14.487,9.639,23.288,9.639
	c8.798,0,17.063-3.426,23.285-9.639c6.221-6.229,9.647-14.494,9.647-23.293c0-8.797-3.429-17.066-9.647-23.293
	c-2.988-2.988-6.478-5.297-10.248-6.924c0.275-2.947,0.611-5.849,0.611-9.009c0-10.028-1.398-20.979-4.19-31.897
	c-1.196-4.672-2.757-8.746-4.513-12.568c2.84-6.467,4.807-13.268,4.807-20.426c0-7.316-1.74-14.422-4.706-21.01
	C509.263,358.345,543.773,313.068,543.773,253.359z M451.232,150.998c-33.396-54.619-88.048-93.359-134.569-85.472
	c-49.022-7.864-102.775,30.64-135.326,85.018c-2.646,0.208-5.276,0.497-7.875,0.88c8.694-54.414,69.431-111.108,143.107-111.108
	c74.113,0,135.142,57.197,143.271,112.08C457.013,151.799,454.137,151.348,451.232,150.998z"/>
<path fill="#010101" stroke="#FFFFFF" stroke-width="4.8437" d="M110.937,367.38c-72.03,93.07-97.843,163.349-81.865,170.996
	c15.97,7.654,74.912-46.055,139.701-143.287c45.751-68.647,60.797-94.43,45.68-95.922l20.614-43.357l-10.687-6.644l-33.91,33.371
	C179.323,272.615,166.073,296.146,110.937,367.38z"/>
<path fill="#010101" stroke="#FFFFFF" stroke-width="4.8437" d="M140.932,379.755c-39.101,113.041-39.738,189.89-20.813,192.654
	c18.912,2.787,59.039-67.617,89.306-182.603c21.383-81.178,27.257-111.029,11.438-108l5.133-48.806l-13.207-3.354l-22.192,42.936
	C175.736,266.142,170.865,293.244,140.932,379.755z"/>
<circle fill="none" stroke="#010101" stroke-width="4.8437" cx="410.28" cy="388.832" r="37.801"/>
<path fill="#ED2224" stroke="#010101" stroke-width="4.8437" d="M475.237,157.792c-7.115-73.197-76.231-130.645-160.495-130.645
	c-83.402,0-152.009,56.27-160.306,128.393c-39.811,13.607-58.455,52.219-58.455,97.818c0,56.946,34.681,103.108,89.925,103.108
	c35.784,0,67.089-19.432,84.771-48.551c14.01,3.533,28.776,5.463,44.064,5.463c13.16,0,25.934-1.438,38.173-4.076
	c17.966,28.357,49.108,47.164,84.604,47.164c55.665,0,90.696-46.162,90.696-103.108
	C528.218,210.073,512.209,173.073,475.237,157.792z M314.742,274.908c-10.501,0-20.723-0.878-30.584-2.506
	c1.125-6.177,1.778-12.527,1.778-19.043c0-56.941-44.786-103.104-100.03-103.104c-4.858,0-9.597,0.478-14.271,1.169
	c8.692-54.414,69.43-111.108,143.105-111.108c74.113,0,135.144,57.197,143.27,112.08c-6.617-1.398-13.473-2.141-20.49-2.141
	c-55.675,0-100.801,46.163-100.801,103.104c0,6.852,0.687,13.536,1.931,20.013C330.872,274.364,322.888,274.908,314.742,274.908z"/>
<linearGradient id="SVGID_1_" gradientUnits="userSpaceOnUse" x1="-1087.6663" y1="191.4385" x2="-992.1917" y2="191.4385" gradientTransform="matrix(-0.3782 -0.8348 1.083 -0.4907 -423.9551 -476.2263)">
	<stop  offset="0" style="stop-color:#010101"/>
	<stop  offset="0.2606" style="stop-color:#3E221C"/>
	<stop  offset="0.7732" style="stop-color:#B03126"/>
	<stop  offset="1" style="stop-color:#ED2224"/>
</linearGradient>
<path fill="url(#SVGID_1_)" d="M153.69,260.35c31.322-14.19,65.739-18.887,77.129,6.254c11.391,25.14-4.763,57.026-36.091,71.214
	c-31.323,14.192-65.948,5.311-77.338-19.83C106,292.849,122.366,274.543,153.69,260.35z"/>
<linearGradient id="SVGID_2_" gradientUnits="userSpaceOnUse" x1="-1275.886" y1="215.5034" x2="-1180.4114" y2="215.5034" gradientTransform="matrix(-0.9008 -0.3607 0.555 -1.386 -752.6548 131.7681)">
	<stop  offset="0" style="stop-color:#B11F24"/>
	<stop  offset="0.1017" style="stop-color:#B62024"/>
	<stop  offset="1" style="stop-color:#ED2224"/>
</linearGradient>
<path fill="url(#SVGID_2_)" d="M427.738,265.165c16.043-40.085,41.342-74.985,68.475-64.122
	c27.121,10.86,36.109,52.165,20.056,92.248c-16.053,40.089-51.062,63.773-78.189,52.912
	C410.95,335.343,411.683,305.253,427.738,265.165z"/>
<path fill="#010101" stroke="#010101" stroke-width="4.8437" d="M448.219,425.226c7.774,30.396,3.98,62.357-14.521,62.357
	c-16.301,0-34.904-17.332-42.675-47.732c-7.777-30.399,4.243-75.016,14.521-62.364C423.584,399.707,440.442,394.826,448.219,425.226
	z"/>
<linearGradient id="SVGID_3_" gradientUnits="userSpaceOnUse" x1="-639.5422" y1="548.502" x2="-691.4051" y2="458.673" gradientTransform="matrix(0.9868 0.0515 0.0515 0.7987 840.2104 72.6462)">
	<stop  offset="0" style="stop-color:#5B3E1D"/>
	<stop  offset="0.1121" style="stop-color:#42301B"/>
	<stop  offset="0.2377" style="stop-color:#2E2316"/>
	<stop  offset="0.3753" style="stop-color:#1D1710"/>
	<stop  offset="0.5292" style="stop-color:#0E0C08"/>
	<stop  offset="0.7122" style="stop-color:#030302"/>
	<stop  offset="1" style="stop-color:#000000"/>
</linearGradient>
<path fill="url(#SVGID_3_)" stroke="#010101" stroke-width="4.8437" d="M184.076,437.859c-6.111,23.875,1.745,46.508,17.54,50.549
	c15.79,4.039,33.552-12.045,39.658-35.924c6.101-23.882-9.153-57.129-24.947-61.17C200.537,387.275,190.178,413.972,184.076,437.859
	z"/>
<path fill="#010101" stroke="#010101" stroke-width="4.8437" d="M314.837,65.525c72.757-12.333,165.505,89.311,165.505,187.528
	c0,98.213-74.307,162.833-165.707,162.833"/>
<linearGradient id="SVGID_4_" gradientUnits="userSpaceOnUse" x1="-664.3811" y1="374.0068" x2="-500.546" y2="90.2362" gradientTransform="matrix(1 0 0 1 858.79 0.3506)">
	<stop  offset="0" style="stop-color:#000000"/>
	<stop  offset="1" style="stop-color:#5B3E1D"/>
</linearGradient>
<path fill="url(#SVGID_4_)" stroke="#010101" stroke-width="4.8437" d="M314.635,415.888c-91.402,0-165.299-64.619-165.299-162.833
	c0-98.218,88.615-199.862,165.5-187.528"/>
<linearGradient id="SVGID_5_" gradientUnits="userSpaceOnUse" x1="-760.302" y1="-37.9087" x2="-639.3506" y2="-247.4027" gradientTransform="matrix(-0.6092 0.7802 -0.4118 -0.3216 -240.6183 671.6459)">
	<stop  offset="0" style="stop-color:#8B654B"/>
	<stop  offset="1" style="stop-color:#000000"/>
</linearGradient>
<path fill="url(#SVGID_5_)" d="M169.611,266.578c-27.578-21.539-16.863-81.354,23.935-133.604
	c40.804-52.245,93.81-72.894,126.21-59.689c26.672,10.864,14.476,85.434-26.326,137.681
	C252.63,263.215,197.193,288.112,169.611,266.578z"/>
<circle fill="#010101" cx="214.367" cy="388.832" r="34.682"/>
<g>
	<path fill="#F4DFED" d="M131.831,427.708c-23.973,79.734-18.741,132.268-9.011,135.459c10.854,3.564,43.561-47.223,60.839-128.324
		c12.189-57.264,11.729-83.75,0.009-81.625l3.505-31.108l-8.899-2.435l-14.271,32.445
		C152.554,347.564,150.184,366.689,131.831,427.708z"/>
	
		<linearGradient id="SVGID_6_" gradientUnits="userSpaceOnUse" x1="-710.6404" y1="319.3252" x2="-710.6405" y2="562.8164" gradientTransform="matrix(1 0 0 1 858.79 0.3506)">
		<stop  offset="0" style="stop-color:#571A54"/>
		<stop  offset="0.2641" style="stop-color:#7C5378"/>
		<stop  offset="0.528" style="stop-color:#A78AA3"/>
		<stop  offset="0.7459" style="stop-color:#CDBCCB"/>
		<stop  offset="0.9095" style="stop-color:#EAE1E8"/>
		<stop  offset="1" style="stop-color:#F9F3F8"/>
	</linearGradient>
	<path fill="url(#SVGID_6_)" d="M146.41,479.117l-22.914,19.186l35.325-65.182l4.683-17.371c0,0,3.1-26.758-24.228,14.713
		c16.962-56.432,32.317-62.998,32.317-62.998l11.402-46.658l-4.725-1.131l-14.702,30.23c-11.429-4.588-13.859,14.521-32.392,75.483
		c-24.226,79.656-20.501,124.087-8.358,137.777L146.41,479.117z"/>
	
		<linearGradient id="SVGID_7_" gradientUnits="userSpaceOnUse" x1="-789.3508" y1="444.1797" x2="-821.2424" y2="531.975" gradientTransform="matrix(0.9399 -0.3414 0.3414 0.9399 754.2939 -277.891)">
		<stop  offset="0" style="stop-color:#802986"/>
		<stop  offset="0.2641" style="stop-color:#9D66A2"/>
		<stop  offset="0.528" style="stop-color:#BE9BC2"/>
		<stop  offset="0.7459" style="stop-color:#DBC8DE"/>
		<stop  offset="0.9095" style="stop-color:#F0E6F1"/>
		<stop  offset="1" style="stop-color:#F9F3F8"/>
	</linearGradient>
	<path fill="url(#SVGID_7_)" d="M147.332,501.478l31.839-92.399c0,0,6.608,60.69-7.474,93.406
		c1.438-44.879-2.328-36.951-9.176-25.257C159.71,482.031,147.332,501.478,147.332,501.478z"/>
	
		<linearGradient id="SVGID_8_" gradientUnits="userSpaceOnUse" x1="-764.8928" y1="411.2344" x2="-797.3259" y2="500.5203" gradientTransform="matrix(0.9399 -0.3414 0.3414 0.9399 754.2939 -277.891)">
		<stop  offset="0" style="stop-color:#802986"/>
		<stop  offset="0.2641" style="stop-color:#9D66A2"/>
		<stop  offset="0.528" style="stop-color:#BE9BC2"/>
		<stop  offset="0.7459" style="stop-color:#DBC8DE"/>
		<stop  offset="0.9095" style="stop-color:#F0E6F1"/>
		<stop  offset="1" style="stop-color:#F9F3F8"/>
	</linearGradient>
	<path fill="url(#SVGID_8_)" d="M156.286,463.716l38.825-93.953c0,0,2.251,62.279-11.831,94.992
		c-0.298-44.25-5.388-28.09-8.538-23.508C165.662,454.416,156.286,463.716,156.286,463.716z"/>
	
		<linearGradient id="SVGID_9_" gradientUnits="userSpaceOnUse" x1="-872.7551" y1="422.8174" x2="-924.3751" y2="475.0038" gradientTransform="matrix(0.711 -0.7032 0.7032 0.711 517.3177 -556.6326)">
		<stop  offset="0" style="stop-color:#571A54"/>
		<stop  offset="0.2641" style="stop-color:#7C5378"/>
		<stop  offset="0.528" style="stop-color:#A78AA3"/>
		<stop  offset="0.7459" style="stop-color:#CDBCCB"/>
		<stop  offset="0.9095" style="stop-color:#EAE1E8"/>
		<stop  offset="1" style="stop-color:#F9F3F8"/>
	</linearGradient>
	<path fill="url(#SVGID_9_)" d="M180.916,431.115l9.787-73.404c0,0,18.589,43.111,16.428,71.426
		c-11.771-30.424-13.671-21.049-17.576-14.961C187.396,417.539,180.916,431.115,180.916,431.115z"/>
	<path fill="#1E3D73" d="M174.914,335.556L158.76,362.31l-23.24,76.646c0,0,1.211-8.172,1.788-15.883l-18.783,50.772
		c0,0,8.386-31.227,3.607-28.383c-4.775,2.84,4.227-21.91-23.102,13.73c5.316-18.517,20.495-39.511,33.324-54.9
		c-2.172,0.473-7.102,4.787-18.388,18.373c4.381-15.232,14.956-32.934,25.357-47.898c-1.159-2.682-5.151-3.889-21.234,5.224
		C134.366,356.718,174.914,335.556,174.914,335.556z"/>
</g>
<g>
	<path fill="#F4DFED" d="M94.453,401.164c-49.752,66.752-62.779,117.912-54.719,124.242c8.987,7.059,57.062-29.513,100.989-99.847
		c31.011-49.655,39.62-74.709,27.879-76.713l13.916-28.053l-7.539-5.318l-24.483,25.623
		C141.291,332.912,132.531,350.072,94.453,401.164z"/>
	<path fill="#656B84" d="M90.603,454.464l-28.088,10.205l55.456-49.201l10.331-14.729c0,0,12.047-24.097-27.796,5.559
		c35.213-47.256,51.892-48.182,51.892-48.182l26.641-39.957l-4.058-2.683l-24.133,23.4c-9.179-8.223-17.989,8.91-56.226,59.885
		c-49.96,66.601-61.634,109.635-54.889,126.646L90.603,454.464z"/>
	
		<linearGradient id="SVGID_10_" gradientUnits="userSpaceOnUse" x1="-752.551" y1="484.6816" x2="-736.7991" y2="395.3488" gradientTransform="matrix(1 0 0 1 858.79 0.3506)">
		<stop  offset="0" style="stop-color:#571A54"/>
		<stop  offset="0.2641" style="stop-color:#7C5378"/>
		<stop  offset="0.528" style="stop-color:#A78AA3"/>
		<stop  offset="0.7459" style="stop-color:#CDBCCB"/>
		<stop  offset="0.9095" style="stop-color:#EAE1E8"/>
		<stop  offset="1" style="stop-color:#F9F3F8"/>
	</linearGradient>
	<path fill="url(#SVGID_10_)" d="M83.829,475.791l61.476-75.98c0,0-14.509,59.306-38.916,85.248
		c16.678-41.694,12.058-33.366,0-26.873C101.491,460.822,83.829,475.791,83.829,475.791z"/>
	
		<linearGradient id="SVGID_11_" gradientUnits="userSpaceOnUse" x1="-727.8064" y1="453.3486" x2="-711.9149" y2="363.2233" gradientTransform="matrix(1 0 0 1 858.79 0.3506)">
		<stop  offset="0" style="stop-color:#571A54"/>
		<stop  offset="0.2641" style="stop-color:#7C5378"/>
		<stop  offset="0.528" style="stop-color:#A78AA3"/>
		<stop  offset="0.7459" style="stop-color:#CDBCCB"/>
		<stop  offset="0.9095" style="stop-color:#EAE1E8"/>
		<stop  offset="1" style="stop-color:#F9F3F8"/>
	</linearGradient>
	<path fill="url(#SVGID_11_)" d="M105.143,443.357l68.562-75.052c0,0-19.143,59.297-43.551,85.248
		c14.824-41.7,10.567-27.994,0-25.022C124.802,430.041,105.143,443.357,105.143,443.357z"/>
	<path fill="#656B84" d="M139.423,421.125l34.262-65.654c0,0,2.748,46.867-8.945,72.74c-0.676-32.615-3.041-28.432-11.413-20.061
		C150.5,410.974,139.423,421.125,139.423,421.125z"/>
	<path fill="#656B84" d="M166.408,329.255l-24.322,19.631l-48.011,64.111c0,0,3.931-7.273,7.104-14.322L66.185,439.99
		c0,0,18.552-26.484,13.089-25.449c-5.464,1.041,11.451-19.148-26.399,5.02c11.313-15.588,32.751-30.137,50.064-40.227
		c-2.205-0.299-8.316,2.076-23.552,10.988c9.312-12.818,25.302-25.842,40.183-36.357c-0.175-2.918-3.515-5.416-21.74-2.346
		C121.065,335.3,166.408,329.255,166.408,329.255z"/>
</g>
<g>
	<path fill="#D9AF82" d="M315.05,115.063c-50.514,0-83.218,15.021-109.641,64.839c-2.502,4.713-0.23,14.337-2.796,19.152
		c-13.845,26.007-37.089,48.236-37.089,71.707c0,34.335,19.1,65.637,42.505,89.296c12.185,71.646,34.7,151.595,104.339,151.595"/>
	<path fill="#010101" d="M203.271,178.766c-1.521,2.855-1.59,6.774-1.656,10.562c-0.062,3.283-0.123,6.677-1.14,8.588
		c-4.537,8.519-10.146,16.707-15.577,24.624c-11.21,16.353-21.797,31.798-21.797,48.221c0,30.307,15.166,62.38,42.666,90.412
		c12.578,73.607,36.113,150.479,106.6,150.479v-1.547c-67.084,0-89.722-78.556-101.95-150.453l-0.127-0.748l-0.54-0.549
		c-26.957-27.257-41.805-58.361-41.805-87.594c0-14.923,10.174-29.766,20.949-45.482c5.501-8.027,11.19-16.327,15.855-25.087
		c1.562-2.935,1.638-6.92,1.707-10.773c0.059-3.221,0.118-6.551,1.088-8.381c24.258-45.734,54.398-65.974,107.503-65.974v-2.422
		C259.849,112.641,228.506,131.181,203.271,178.766z"/>
</g>
<path fill="#8B654B" d="M312.368,511.65c72.045,0,92.163-79.949,104.338-151.595c23.405-23.657,42.514-54.959,42.514-89.296
	c0-37.004-22.588-49.51-38.609-77.154c-5.681-9.798-1.496-24.634-8.084-33.382c-26.905-35.728-53.772-45.162-97.477-45.162"/>
<ellipse fill="#D9AF82" cx="313.792" cy="343.947" rx="21.906" ry="68.144"/>
<path fill="#8B654B" d="M342.916,373.455c0,7.812-14.979,12.535-27.273,12.535c-12.293,0-27.81-4.736-27.81-12.549
	c3.432-3.433,15.246,4.885,27.544,4.885C334.789,378.326,342.916,312.496,342.916,373.455z"/>
<path fill="#D9AF82" d="M335.697,435.216c0,37.637-9.81,68.832-21.91,68.832c-12.096,0-21.899-31.195-21.899-68.832
	c0-37.639,9.882-50.258,21.977-50.258C325.962,384.958,335.697,397.578,335.697,435.216z"/>
<path opacity="0.36" fill="#8A644B" enable-background="new    " d="M328.365,281.605c-1.826,24.682-14.186-7.573-34.757,20.975
	c-8.672,12.025-23.23,10.877-38.845,10.877c-39.61,0-66.544-26.031-67.859-38.869c-2.517-24.557,29.024-39.586,71.464-39.586
	C297.028,235.002,329.255,269.622,328.365,281.605z"/>
<linearGradient id="SVGID_12_" gradientUnits="userSpaceOnUse" x1="-644.0354" y1="340.7031" x2="-568.3508" y2="340.7031" gradientTransform="matrix(1 0 0 1 858.79 0.3506)">
	<stop  offset="0" style="stop-color:#D9AF82"/>
	<stop  offset="0.0786" style="stop-color:#DFB791"/>
	<stop  offset="0.2053" style="stop-color:#E7C1A5"/>
	<stop  offset="0.345" style="stop-color:#EDC9B5"/>
	<stop  offset="0.5023" style="stop-color:#F1CFC0"/>
	<stop  offset="0.6917" style="stop-color:#F4D3C7"/>
	<stop  offset="1" style="stop-color:#F5D4C9"/>
</linearGradient>
<path opacity="0.36" fill="url(#SVGID_12_)" enable-background="new    " d="M272.246,361.529
	c-28.722,19.461-56.346-24.299-57.491-43.314c15.913,13.822,62.032,18.457,75.685-2.516L272.246,361.529z"/>
<path opacity="0.36" fill="#8A644B" enable-background="new    " d="M313.706,461.212c-38.167,0-61.229-13.68-61.229-31.629
	c0-6.049,15.649-24.078,37.318-49.365c5.952-3.699,7.464,10.037,14.958,4.73C331.61,392.044,328.318,461.212,313.706,461.212z"/>
<g>
	<path fill="#8A644B" d="M260.464,472.117c8.341,23.938,32.817,36.465,52.688,36.465v-4.844
		C294.99,503.738,268.056,493.921,260.464,472.117L260.464,472.117z"/>
</g>
<g>
	<path fill="#8A644B" d="M180.954,271.658c0,21.359,5.388,36.679,27.101,48.222c0.587,1.121,7.021,13.387,7.021,13.387
		c8.916,16.375,19.021,34.939,19.021,54.406h4.844c0-20.699-10.416-39.84-19.612-56.725l-7.586-14.455l-0.709-0.426
		C190.51,305.4,180.954,291.289,180.954,271.658L180.954,271.658z"/>
</g>
<g>
	<path fill="#010101" d="M208.814,230.649l-0.104-0.97c-3.106-15.25-3.226-33.651-0.312-49.217l-4.764-0.889
		C200.613,195.722,205.583,214.815,208.814,230.649z"/>
</g>
<linearGradient id="SVGID_13_" gradientUnits="userSpaceOnUse" x1="-667.7327" y1="310.1709" x2="-407.218" y2="310.1709" gradientTransform="matrix(1 0 0 1 858.79 0.3506)">
	<stop  offset="0" style="stop-color:#5B3E1D"/>
	<stop  offset="1" style="stop-color:#010101"/>
</linearGradient>
<path fill="url(#SVGID_13_)" d="M423.943,199.054c-3.983-11.059-0.737-20.853-8.062-31.231
	c-19.885-28.185-51.07-56.271-108.998-52.618l5.214,140.363c0,0-122.733-25.589-121.021,15.935c0.229,5.387,40.188,2.88,63.46,4.428
	c-26.092,4.566-32.185,5.898-32.185,8.838c0,6.206,21.861,0.683,25.106,2.467c4.978,2.739-43.139,7.052-34.351,8.757
	c10.057,1.951,44.474,3.086,57.442,3.086c28.931,0,41.077-25.413,41.077-4.485c7.348,27.894,14.739,59.239,13.974,69.882
	c-1.477,20.661-19.62,20.188-19.62,20.188l5.089,24.285c-8.557,0.438-6.245-1.324-13.85-0.549c-14.429,0-32.354,13.03-32.354,16.055
	l39.989,0.434c0,0-29.081,13.771-22.977,22.931c4.765,7.143,20.316,13.377,31.093,13.424c0,0,3.271,8.549,3.271,22.352
	c0,13.812-4.035,22.564-4.035,22.564c46.171,0,67.49-49.035,80.324-118.445c6.083-32.877,20.018-58.104,36.034-71.658
	c15.742-13.319,23.008-26.64,23.008-52.07C451.577,249.847,443.574,230.354,423.943,199.054z"/>
<path fill="#D9AF82" d="M325.395,252.416l-13.297,4.328c0,0-65.85-96.356-46.493-121.312c12.682-16.357,24.609-18.136,40.046-19.238
	c13.519-0.965,21.294,16.525,27.302,24.271C350.375,162.927,325.395,252.416,325.395,252.416z"/>
<linearGradient id="SVGID_14_" gradientUnits="userSpaceOnUse" x1="-629.0159" y1="50.6562" x2="-540.175" y2="50.6562" gradientTransform="matrix(0.676 0.6564 -0.9247 0.9523 711.8302 511.1852)">
	<stop  offset="0" style="stop-color:#FFFFFF"/>
	<stop  offset="0.0769" style="stop-color:#F4E9DD"/>
	<stop  offset="0.1814" style="stop-color:#EBD6BF"/>
	<stop  offset="0.2951" style="stop-color:#E5C7A8"/>
	<stop  offset="0.419" style="stop-color:#DFBC96"/>
	<stop  offset="0.5585" style="stop-color:#DCB58B"/>
	<stop  offset="0.7265" style="stop-color:#DAB084"/>
	<stop  offset="1" style="stop-color:#D9AF82"/>
</linearGradient>
<path fill="url(#SVGID_14_)" d="M305.253,199.27c-26.745,27.542-70.168,41.961-81.281,24.357
	c-14.515-22.972-12.896-47.545,13.854-75.082c26.74-27.547,64.922-33.847,85.28-14.081
	C343.464,154.233,332.003,171.726,305.253,199.27z"/>
<linearGradient id="SVGID_15_" gradientUnits="userSpaceOnUse" x1="-617.7107" y1="401.4551" x2="-617.7107" y2="317.8633" gradientTransform="matrix(1 0 0 1 858.79 0.3506)">
	<stop  offset="0" style="stop-color:#D9AF82"/>
	<stop  offset="0.1127" style="stop-color:#BD936E"/>
	<stop  offset="0.2679" style="stop-color:#A57C5E"/>
	<stop  offset="0.4437" style="stop-color:#966E53"/>
	<stop  offset="0.6554" style="stop-color:#8D664D"/>
	<stop  offset="1" style="stop-color:#8A644B"/>
</linearGradient>
<path fill="url(#SVGID_15_)" d="M272.246,361.529c0,46.272-35.419,42.799-45.104,36.896c0-45.752-17.229-80.211-17.229-80.211
	S249.882,354.22,272.246,361.529z"/>
<linearGradient id="SVGID_16_" gradientUnits="userSpaceOnUse" x1="-925.8547" y1="344.666" x2="-972.7458" y2="361.7328" gradientTransform="matrix(-1 0 0 1 -562.3931 0.3506)">
	<stop  offset="0" style="stop-color:#382815"/>
	<stop  offset="0.4081" style="stop-color:#553E2B"/>
	<stop  offset="1" style="stop-color:#8B654B"/>
</linearGradient>
<path fill="url(#SVGID_16_)" d="M359.338,356.349c0,46.271,21.506,44.033,31.073,44.033c7.488-45.135,35.671-81.516,35.671-81.516
	S381.703,349.044,359.338,356.349z"/>
<path fill="none" stroke="#010101" stroke-width="4.8437" d="M173.934,294.978"/>
<g>
	<path fill="#010101" d="M311.507,115.089c53.106,0,83.247,20.214,107.505,65.948c0.902,1.702,0.902,4.883,0.902,7.96
		c-0.005,4.146-0.005,8.432,2.029,11.419c16.157,23.757,31.934,48.809,31.934,70.969c0,32.38-12.817,62.458-37.073,86.969
		l-0.541,0.551l-0.13,0.748c-12.222,71.897-36.672,150.451-103.765,150.451v1.518c70.499,0,95.847-76.844,108.416-150.455
		c24.803-25.336,37.937-56.355,37.937-89.781c0-23.537-16.19-49.311-32.774-73.694c-1.151-1.698-1.19-5.061-1.19-8.37
		c0-0.109,0.004-0.537,0.004-0.646c0-3.567-0.041-7.221-1.471-9.91C398.053,131.18,366.71,112.64,311.51,112.64v2.449H311.507
		L311.507,115.089z"/>
</g>
<polygon fill="#010101" points="339.974,84.79 334.59,115.675 300.608,113.719 312.435,66.413 "/>
<circle fill="#010101" stroke="#010101" stroke-width="4.8437" cx="452.06" cy="492.948" r="19.204"/>
<g>
	
		<linearGradient id="SVGID_17_" gradientUnits="userSpaceOnUse" x1="-749.6116" y1="335.9512" x2="-687.9983" y2="335.9512" gradientTransform="matrix(1 0 0 1 858.79 0.3506)">
		<stop  offset="0" style="stop-color:#571A54"/>
		<stop  offset="0.2641" style="stop-color:#7C5378"/>
		<stop  offset="0.528" style="stop-color:#A78AA3"/>
		<stop  offset="0.7459" style="stop-color:#CDBCCB"/>
		<stop  offset="0.9095" style="stop-color:#EAE1E8"/>
		<stop  offset="1" style="stop-color:#F9F3F8"/>
	</linearGradient>
	<path fill="url(#SVGID_17_)" d="M109.178,338.035c9.592-7.824,34.694,4.861,34.833,4.861l26.78-8.396
		C170.211,334.501,120.246,321.648,109.178,338.035z"/>
</g>
<linearGradient id="SVGID_18_" gradientUnits="userSpaceOnUse" x1="-1081.0227" y1="320.6133" x2="-1063.3801" y2="320.6133" gradientTransform="matrix(-0.0113 -0.7169 1.2476 -0.0198 -98.6661 -397.1379)">
	<stop  offset="0" style="stop-color:#D9AF82"/>
	<stop  offset="0.0786" style="stop-color:#DFB791"/>
	<stop  offset="0.2053" style="stop-color:#E7C1A5"/>
	<stop  offset="0.345" style="stop-color:#EDC9B5"/>
	<stop  offset="0.5023" style="stop-color:#F1CFC0"/>
	<stop  offset="0.6917" style="stop-color:#F4D3C7"/>
	<stop  offset="1" style="stop-color:#F5D4C9"/>
</linearGradient>
<path opacity="0.36" fill="url(#SVGID_18_)" enable-background="new    " d="M313.352,358.851c6.074-0.1,11.045,2.654,11.102,6.15
	c0.06,3.49-4.829,6.398-10.907,6.498c-6.076,0.1-11.045-2.658-11.105-6.154C302.388,361.853,307.269,358.947,313.352,358.851z"/>
<path fill="#483218" d="M397.109,309.378c15.699-3.76,26.445-18.402,20.099-27.063c-38.738,19.354-75.295,11.369-85.529,9.147
	C368.014,309.492,371.117,315.595,397.109,309.378z"/>
<path fill="#B4B4B4" d="M310.92,73.714c-38.372,0-93.116,22.758-117.549,74.944c-6.089,12.999-6.656,32.87,0.64,45.014
	c0,0,18.604-81.43,108.229-86.494"/>
</svg>
