<?xml version="1.0" encoding="utf-8"?>
<!-- Generator: Adobe Illustrator 16.0.0, SVG Export Plug-In . SVG Version: 6.00 Build 0)  -->
<!DOCTYPE svg PUBLIC "-//W3C//DTD SVG 1.1//EN" "http://www.w3.org/Graphics/SVG/1.1/DTD/svg11.dtd">
<svg version="1.1" xmlns="http://www.w3.org/2000/svg" xmlns:xlink="http://www.w3.org/1999/xlink" x="0px" y="0px"
	 width="606.248px" height="595.5px" viewBox="0 0 606.248 595.5" enable-background="new 0 0 606.248 595.5" xml:space="preserve">
<g id="Layer_3">
	<rect x="-20.376" y="-15.75" stroke="#E63E30" stroke-miterlimit="10" width="688" height="700"/>
</g>
<g id="Layer_2">
	<path id="path9_1_" inkscape:connector-curvature="0" fill="none" stroke="#E63E30" stroke-miterlimit="10" d="M429.977,493.576
		V154.483h-65.371h-6.949v115.065L194.409,156.07c-2.608-1.802-6.036-2.046-8.93-0.661c-2.895,1.493-4.692,4.437-4.692,7.56v266.003
		c0,3.123,1.798,6.037,4.692,7.488c1.234,0.695,2.608,0.977,3.953,0.977c1.725,0,3.522-0.561,4.977-1.529l163.248-113.472v201.091
		c-17.532,4.084-35.744,6.375-54.511,6.375c-130.896,0-237.345-104.598-237.345-233.146c0-128.547,106.442-233.117,237.345-233.117
		c130.858,0,237.344,104.562,237.344,233.116C540.482,379.515,496.305,452.197,429.977,493.576L429.977,493.576z"/>
	<ellipse fill="#FFFFFF" stroke="#E63E30" stroke-miterlimit="10" cx="318.624" cy="295.75" rx="286" ry="270.5"/>
</g>
<g id="Layer_1" sodipodi:docname="tomahawk-icon.svg" inkscape:version="0.48.2 r9819" xmlns:dc="http://purl.org/dc/elements/1.1/" xmlns:cc="http://creativecommons.org/ns#" xmlns:rdf="http://www.w3.org/1999/02/22-rdf-syntax-ns#" xmlns:svg="http://www.w3.org/2000/svg" xmlns:sodipodi="http://sodipodi.sourceforge.net/DTD/sodipodi-0.dtd" xmlns:inkscape="http://www.inkscape.org/namespaces/inkscape">
	
		<sodipodi:namedview  fit-margin-bottom="0" fit-margin-right="0" inkscape:snap-page="false" inkscape:current-layer="Layer_1" inkscape:window-maximized="0" inkscape:window-y="0" inkscape:window-x="0" inkscape:window-height="794" inkscape:window-width="1440" inkscape:pageshadow="2" inkscape:pageopacity="0" fit-margin-left="0" fit-margin-top="0" inkscape:cy="336.94553" inkscape:cx="431.12548" inkscape:zoom="1" showgrid="false" guidetolerance="10" gridtolerance="10" objecttolerance="10" bordercolor="#666666" pagecolor="#ffffff" borderopacity="1" id="namedview11">
		<sodipodi:guide  orientation="0,841.89001" position="-3.5728101e-05,-1.501866e-05" id="guide2994"></sodipodi:guide>
		<sodipodi:guide  orientation="-595.28003,0" position="841.88997,-1.501866e-05" id="guide2996"></sodipodi:guide>
		<sodipodi:guide  orientation="0,-841.89001" position="841.88997,595.28001" id="guide2998"></sodipodi:guide>
		<sodipodi:guide  orientation="595.28003,0" position="-3.5728101e-05,595.28001" id="guide3000"></sodipodi:guide>
	</sodipodi:namedview>
	<g id="g3_1_" transform="matrix(7.3080643,0,0,7.1790074,-2773.1692,-1839.0104)">
		<g>
			<g enable-background="new    ">
				<g>
					<polygon fill="#4C1410" points="430.355,293.516 429.444,293.909 429.416,279.061 430.323,277.603 					"/>
				</g>
				<g>
					<polygon fill="#4C1410" points="430.428,328.913 429.507,326.921 429.457,300.757 430.371,300.856 					"/>
				</g>
				<g enable-background="new    ">
					<defs>
						<path id="SVGID_1_" enable-background="new    " d="M440.229,324.595l-1.574-1.692c2.083-1.367,3.987-2.983,5.669-4.803
							c1.678-1.816,3.136-3.836,4.332-6.018c1.194-2.177,2.127-4.516,2.758-6.973c0.63-2.454,0.959-5.028,0.945-7.679
							c-0.022-4.114-0.867-8.035-2.377-11.605c-1.51-3.571-3.686-6.797-6.372-9.519c-2.69-2.726-5.895-4.949-9.458-6.505
							c-3.573-1.561-7.51-2.454-11.652-2.511c-4.16-0.058-8.14,0.731-11.777,2.212c-3.65,1.486-6.953,3.668-9.739,6.386
							c-2.795,2.728-5.069,5.995-6.649,9.637c-1.584,3.651-2.47,7.677-2.486,11.907c-0.016,4.236,0.842,8.276,2.405,11.95
							c1.563,3.673,3.829,6.974,6.627,9.736c2.794,2.757,6.114,4.973,9.791,6.483c3.666,1.506,7.683,2.31,11.88,2.251
							c0.601-0.008,1.197-0.036,1.787-0.08c0.59-0.045,1.176-0.107,1.756-0.186c0.58-0.079,1.154-0.174,1.723-0.286
							c0.569-0.111,1.132-0.238,1.689-0.379l0.921,1.992c-0.597,0.152-1.201,0.288-1.81,0.408c-0.61,0.12-1.226,0.223-1.847,0.308
							c-0.622,0.085-1.249,0.153-1.883,0.201c-0.634,0.049-1.272,0.078-1.917,0.088c-4.502,0.068-8.811-0.79-12.745-2.404
							c-3.946-1.618-7.511-3.994-10.51-6.951c-3.004-2.963-5.437-6.506-7.115-10.448c-1.678-3.944-2.599-8.28-2.58-12.827
							c0.018-4.54,0.971-8.86,2.673-12.777c1.698-3.907,4.139-7.409,7.141-10.333c2.99-2.913,6.534-5.249,10.45-6.838
							c3.9-1.583,8.167-2.424,12.626-2.357c4.439,0.066,8.656,1.027,12.483,2.703c3.815,1.671,7.247,4.055,10.127,6.976
							c2.875,2.916,5.205,6.373,6.822,10.198c1.616,3.824,2.522,8.023,2.548,12.43c0.016,2.84-0.335,5.597-1.008,8.226
							c-0.674,2.633-1.672,5.139-2.949,7.472c-1.279,2.338-2.839,4.504-4.636,6.452C444.498,321.393,442.46,323.127,440.229,324.595
							z"/>
					</defs>
					<clipPath id="SVGID_2_">
						<use xlink:href="#SVGID_1_"  overflow="visible"/>
					</clipPath>
					<g clip-path="url(#SVGID_2_)" enable-background="new    ">
						<path fill="#4D1510" d="M440.229,324.595l-1.574-1.692c2.083-1.367,3.987-2.983,5.669-4.803
							c1.678-1.816,3.136-3.836,4.332-6.018c1.194-2.177,2.127-4.516,2.758-6.973c0.63-2.454,0.959-5.028,0.945-7.679
							c-0.022-4.114-0.867-8.035-2.377-11.605c-1.51-3.571-3.686-6.797-6.372-9.519c-2.69-2.726-5.895-4.949-9.458-6.505
							c-3.573-1.561-7.51-2.454-11.652-2.511c-4.16-0.058-8.14,0.731-11.777,2.212c-3.65,1.486-6.953,3.668-9.739,6.386
							c-2.795,2.728-5.069,5.995-6.649,9.637c-1.584,3.651-2.47,7.677-2.486,11.907c-0.016,4.236,0.842,8.276,2.405,11.95
							c1.563,3.673,3.829,6.974,6.627,9.736c2.794,2.757,6.114,4.973,9.791,6.483c3.666,1.506,7.683,2.31,11.88,2.251
							c0.601-0.008,1.197-0.036,1.787-0.08c0.59-0.045,1.176-0.107,1.756-0.186c0.58-0.079,1.154-0.174,1.723-0.286
							c0.569-0.111,1.132-0.238,1.689-0.379l0.921,1.992c-0.597,0.152-1.201,0.288-1.81,0.408c-0.61,0.12-1.226,0.223-1.847,0.308
							c-0.622,0.085-1.249,0.153-1.883,0.201c-0.634,0.049-1.272,0.078-1.917,0.088c-4.502,0.068-8.811-0.79-12.745-2.404
							c-3.946-1.618-7.511-3.994-10.51-6.951c-3.004-2.963-5.437-6.506-7.115-10.448c-1.678-3.944-2.599-8.28-2.58-12.827
							c0.018-4.54,0.971-8.86,2.673-12.777c1.698-3.907,4.139-7.409,7.141-10.333c2.99-2.913,6.534-5.249,10.45-6.838
							c3.9-1.583,8.167-2.424,12.626-2.357c4.439,0.066,8.656,1.027,12.483,2.703c3.815,1.671,7.247,4.055,10.127,6.976
							c2.875,2.916,5.205,6.373,6.822,10.198c1.616,3.824,2.522,8.023,2.548,12.43c0.016,2.84-0.335,5.597-1.008,8.226
							c-0.674,2.633-1.672,5.139-2.949,7.472c-1.279,2.338-2.839,4.504-4.636,6.452C444.498,321.393,442.46,323.127,440.229,324.595
							"/>
					</g>
				</g>
				<g>
					<path fill="#E53E30" d="M422.903,256.08c5.658,0.108,11.029,1.353,15.897,3.504c4.85,2.143,9.21,5.189,12.868,8.915
						c3.65,3.717,6.608,8.117,8.662,12.983c2.053,4.864,3.208,10.204,3.247,15.808c0.04,5.613-1.043,10.98-3.039,15.883
						c-2.002,4.92-4.927,9.381-8.565,13.159c-3.654,3.795-8.032,6.904-12.92,9.095c-4.913,2.202-10.344,3.478-16.073,3.588
						c-5.761,0.111-11.281-0.966-16.325-3.014c-5.064-2.056-9.641-5.088-13.494-8.871c-3.862-3.792-6.988-8.332-9.143-13.388
						c-2.155-5.058-3.333-10.622-3.302-16.455c0.032-5.822,1.266-11.358,3.463-16.374c2.19-4.998,5.333-9.474,9.191-13.203
						c3.84-3.711,8.385-6.68,13.4-8.69C411.761,257.022,417.213,255.972,422.903,256.08z M440.229,324.595
						c2.231-1.468,4.269-3.201,6.069-5.154c1.796-1.948,3.356-4.114,4.636-6.452c1.277-2.334,2.274-4.84,2.949-7.472
						c0.673-2.629,1.024-5.386,1.008-8.226c-0.025-4.407-0.931-8.606-2.548-12.43c-1.617-3.826-3.947-7.282-6.822-10.198
						c-2.88-2.922-6.312-5.305-10.127-6.976c-3.827-1.676-8.044-2.637-12.483-2.703c-4.458-0.067-8.726,0.775-12.626,2.357
						c-3.916,1.589-7.46,3.925-10.45,6.838c-3.001,2.924-5.443,6.426-7.141,10.333c-1.702,3.917-2.655,8.237-2.673,12.777
						c-0.018,4.547,0.902,8.884,2.58,12.827c1.678,3.942,4.111,7.485,7.115,10.448c2.999,2.957,6.563,5.333,10.51,6.951
						c3.934,1.613,8.243,2.471,12.745,2.404c0.644-0.01,1.283-0.039,1.917-0.088c0.633-0.049,1.261-0.116,1.883-0.201
						c0.622-0.085,1.237-0.188,1.847-0.308c0.609-0.12,1.213-0.256,1.81-0.408l-0.057-28.056l-22.413,16.004
						c-0.051,0.034-0.104,0.065-0.16,0.092c-0.056,0.027-0.113,0.05-0.172,0.069c-0.059,0.019-0.119,0.033-0.179,0.043
						c-0.06,0.01-0.121,0.016-0.18,0.016c-0.047,0.001-0.094-0.001-0.141-0.006c-0.047-0.005-0.094-0.012-0.14-0.023
						c-0.046-0.011-0.092-0.024-0.137-0.041c-0.045-0.017-0.089-0.037-0.132-0.061c-0.1-0.05-0.191-0.114-0.271-0.187
						c-0.08-0.074-0.149-0.157-0.205-0.249c-0.056-0.091-0.1-0.19-0.13-0.294s-0.045-0.212-0.045-0.322l0.06-37.332
						c0-0.109,0.016-0.216,0.046-0.319c0.03-0.103,0.074-0.201,0.13-0.292c0.056-0.091,0.125-0.175,0.205-0.249
						c0.08-0.074,0.17-0.138,0.27-0.189c0.043-0.02,0.087-0.038,0.131-0.053s0.09-0.028,0.135-0.037
						c0.046-0.01,0.091-0.017,0.137-0.022c0.046-0.005,0.092-0.007,0.138-0.006c0.061,0.001,0.122,0.006,0.183,0.015
						c0.06,0.01,0.12,0.024,0.178,0.042c0.058,0.018,0.116,0.042,0.171,0.069c0.055,0.027,0.109,0.059,0.161,0.095l22.346,15.897
						l-0.033-15.913l0.94,0.009l8.801,0.081L440.229,324.595"/>
				</g>
			</g>
		</g>
	</g>
</g>
</svg>
