<?xml version="1.0" encoding="utf-8"?>
<!-- Generator: Adobe Illustrator 14.0.0, SVG Export Plug-In . SVG Version: 6.00 Build 43363)  -->
<!DOCTYPE svg PUBLIC "-//W3C//DTD SVG 1.1//EN" "http://www.w3.org/Graphics/SVG/1.1/DTD/svg11.dtd">
<svg version="1.1" id="Layer_1" xmlns="http://www.w3.org/2000/svg" xmlns:xlink="http://www.w3.org/1999/xlink" x="0px" y="0px"
	 width="841.89px" height="595.28px" viewBox="0 0 841.89 595.28" enable-background="new 0 0 841.89 595.28" xml:space="preserve">
<path fill="#010101" d="M543.773,253.359c0-49.962-19.305-86.572-54.194-104.54C477.838,71.133,405.027,13.418,316.568,13.418
	c-86.917,0-159.483,56.481-172.605,132.58c-38.049,16.818-59.889,55.24-59.889,107.361c0,27.029,7.186,51.825,20.321,71.748
	c-1.816,1.566-3.444,3.283-4.768,5.24c0,0,2.582,2.36,3.689,3.374c-4.262,2.123-8.22,4.322-11.555,6.669
	c0,0,3.022,7.355,5.898,14.352c-11.991,9.687-21.314,18.92-27.553,27.51c0,0,1.612,1.789,2.011,2.224
	c-12.355,9.158-22.133,18.206-28.528,27.021c0,0,6.925,7.351,12.408,13.167c-17.824,28.759-43.348,74.85-43.348,102.987
	c0,3.281,0.346,6.318,1.093,9.054c1.764,6.442,5.752,11.437,11.229,14.058c15.255,7.311,39.648-6.364,72.589-40.434
	c-0.828,8.288-1.457,16.663-1.457,24.737c0,16.804,2.266,32.07,8.77,41.249c4.886,6.895,10.898,9.07,15.084,9.683
	c6.721,0.989,26.375,3.796,57.992-61.296c2.678,0.705,5.421,1.179,8.235,1.179c8.798,0,17.067-3.425,23.287-9.639
	c4.286-4.288,7.133-9.584,8.562-15.313c7.516-2.129,14.555-6.702,20.779-13.191c19.563,24.861,44.78,37.643,75.38,37.643
	c7.318,0,14.474-0.755,21.281-2.243c0.392-0.075,2.555-0.622,2.555-0.622l0.62-0.167c23.05-5.824,42.463-20.41,58-43.254
	c7.2,9.231,15.733,15.994,24.849,19.458c1.139,6.658,4.224,12.806,9.1,17.69c6.22,6.214,14.488,9.639,23.288,9.639
	c8.798,0,17.065-3.425,23.285-9.639c6.221-6.228,9.649-14.494,9.649-23.292s-3.429-17.066-9.649-23.294
	c-2.988-2.988-6.476-5.296-10.248-6.923c0.277-2.947,0.613-5.848,0.613-9.007c0-10.031-1.4-20.982-4.192-31.9
	c-1.196-4.672-2.757-8.745-4.511-12.567c2.838-6.467,4.805-13.268,4.805-20.426c0-7.317-1.74-14.422-4.706-21.011
	C509.263,358.346,543.773,313.068,543.773,253.359z M451.232,150.998c-33.395-54.619-88.048-93.359-134.569-85.472
	c-49.024-7.864-102.777,30.64-135.326,85.018c-2.648,0.208-5.278,0.497-7.875,0.88c8.694-54.414,69.429-111.108,143.107-111.108
	c74.113,0,135.141,57.197,143.269,112.08C457.013,151.799,454.137,151.348,451.232,150.998z"/>
<path fill="#010101" stroke="#FFFFFF" stroke-width="4.8437" d="M110.937,367.38c-72.03,93.07-97.843,163.348-81.865,170.997
	c15.97,7.654,74.912-46.056,139.701-143.288c45.751-68.648,60.797-94.429,45.68-95.922l20.614-43.357l-10.685-6.644l-33.912,33.371
	C179.323,272.615,166.073,296.146,110.937,367.38z"/>
<path fill="#010101" stroke="#FFFFFF" stroke-width="4.8437" d="M140.932,379.755c-39.099,113.042-39.738,189.89-20.813,192.654
	c18.912,2.787,59.039-67.616,89.306-182.6c21.381-81.178,27.255-111.03,11.438-108.001l5.133-48.806l-13.207-3.354l-22.194,42.936
	C175.736,266.142,170.865,293.244,140.932,379.755z"/>
<circle fill="none" stroke="#010101" stroke-width="4.8437" cx="410.28" cy="388.831" r="37.801"/>
<path fill="#ED2224" stroke="#010101" stroke-width="4.8437" d="M475.237,157.792c-7.115-73.197-76.231-130.645-160.495-130.645
	c-83.402,0-152.009,56.27-160.306,128.393c-39.809,13.607-58.455,52.219-58.455,97.818c0,56.947,34.681,103.109,89.925,103.109
	c35.784,0,67.089-19.432,84.771-48.551c14.01,3.533,28.778,5.463,44.066,5.463c13.16,0,25.932-1.438,38.173-4.077
	c17.966,28.357,49.108,47.165,84.604,47.165c55.665,0,90.696-46.162,90.696-103.109
	C528.216,210.073,512.208,173.073,475.237,157.792z M314.742,274.908c-10.501,0-20.723-0.878-30.584-2.506
	c1.125-6.177,1.778-12.527,1.778-19.043c0-56.941-44.786-103.104-100.03-103.104c-4.858,0-9.597,0.478-14.271,1.169
	c8.694-54.414,69.43-111.108,143.107-111.108c74.113,0,135.142,57.197,143.268,112.08c-6.617-1.398-13.471-2.141-20.49-2.141
	c-55.675,0-100.801,46.163-100.801,103.104c0,6.852,0.687,13.536,1.931,20.013C330.872,274.364,322.888,274.908,314.742,274.908z"/>
<linearGradient id="SVGID_1_" gradientUnits="userSpaceOnUse" x1="-55.6953" y1="95.2363" x2="39.7773" y2="95.2363" gradientTransform="matrix(-0.3782 -0.8348 1.083 -0.4907 70.5233 338.0542)">
	<stop  offset="0" style="stop-color:#010101"/>
	<stop  offset="0.2606" style="stop-color:#3E221C"/>
	<stop  offset="0.7732" style="stop-color:#B03126"/>
	<stop  offset="1" style="stop-color:#ED2224"/>
</linearGradient>
<path fill="url(#SVGID_1_)" d="M153.69,260.35c31.322-14.19,65.739-18.887,77.129,6.254c11.391,25.14-4.763,57.027-36.091,71.213
	c-31.323,14.194-65.948,5.312-77.338-19.829C106,292.849,122.366,274.543,153.69,260.35z"/>
<linearGradient id="SVGID_2_" gradientUnits="userSpaceOnUse" x1="-180.8516" y1="181.2642" x2="-85.3789" y2="181.2642" gradientTransform="matrix(-0.9008 -0.3607 0.555 -1.386 252.7537 479.2919)">
	<stop  offset="0" style="stop-color:#B11F24"/>
	<stop  offset="0.1017" style="stop-color:#B62024"/>
	<stop  offset="1" style="stop-color:#ED2224"/>
</linearGradient>
<path fill="url(#SVGID_2_)" d="M427.738,265.165c16.043-40.085,41.342-74.985,68.473-64.122
	c27.122,10.86,36.111,52.165,20.056,92.248c-16.053,40.089-51.062,63.772-78.189,52.911
	C410.95,335.343,411.683,305.253,427.738,265.165z"/>
<path fill="#010101" stroke="#010101" stroke-width="4.8437" d="M448.219,425.226c7.776,30.397,3.982,62.358-14.521,62.358
	c-16.301,0-34.904-17.333-42.675-47.733c-7.777-30.4,4.243-75.016,14.521-62.365C423.583,399.707,440.442,394.825,448.219,425.226z"
	/>
<linearGradient id="SVGID_3_" gradientUnits="userSpaceOnUse" x1="217.0322" y1="557.499" x2="165.1699" y2="467.6709" gradientTransform="matrix(0.9868 0.0515 0.0515 0.7987 -5.5217 21.3475)">
	<stop  offset="0" style="stop-color:#5B3E1D"/>
	<stop  offset="0.1121" style="stop-color:#42301B"/>
	<stop  offset="0.2377" style="stop-color:#2E2316"/>
	<stop  offset="0.3753" style="stop-color:#1D1710"/>
	<stop  offset="0.5292" style="stop-color:#0E0C08"/>
	<stop  offset="0.7122" style="stop-color:#030302"/>
	<stop  offset="1" style="stop-color:#000000"/>
</linearGradient>
<path fill="url(#SVGID_3_)" stroke="#010101" stroke-width="4.8437" d="M184.076,437.859c-6.111,23.875,1.745,46.508,17.54,50.549
	c15.79,4.039,33.552-12.045,39.658-35.924c6.101-23.881-9.153-57.129-24.947-61.17C200.537,387.275,190.178,413.973,184.076,437.859
	z"/>
<path fill="#010101" stroke="#010101" stroke-width="4.8437" d="M314.837,65.525c72.755-12.333,165.503,89.311,165.503,187.528
	c0,98.215-74.305,162.834-165.707,162.834"/>
<linearGradient id="SVGID_4_" gradientUnits="userSpaceOnUse" x1="194.4072" y1="374.3564" x2="358.2427" y2="90.5851">
	<stop  offset="0" style="stop-color:#000000"/>
	<stop  offset="1" style="stop-color:#5B3E1D"/>
</linearGradient>
<path fill="url(#SVGID_4_)" stroke="#010101" stroke-width="4.8437" d="M314.634,415.888c-91.402,0-165.297-64.619-165.297-162.834
	c0-98.218,88.615-199.862,165.5-187.528"/>
<linearGradient id="SVGID_5_" gradientUnits="userSpaceOnUse" x1="297.3164" y1="139.4717" x2="418.2684" y2="-70.0234" gradientTransform="matrix(-0.6092 0.7802 -0.4118 -0.3216 476.7253 -96.4624)">
	<stop  offset="0" style="stop-color:#8B654B"/>
	<stop  offset="1" style="stop-color:#000000"/>
</linearGradient>
<path fill="url(#SVGID_5_)" d="M169.611,266.578c-27.578-21.539-16.863-81.354,23.935-133.604
	c40.802-52.245,93.808-72.894,126.21-59.689c26.67,10.864,14.474,85.434-26.328,137.681
	C252.63,263.215,197.193,288.112,169.611,266.578z"/>
<circle fill="#010101" cx="214.367" cy="388.831" r="34.682"/>
<g>
	<path fill="#F4DFED" d="M131.831,427.709c-23.973,79.733-18.741,132.267-9.011,135.459c10.855,3.563,43.561-47.223,60.839-128.324
		c12.189-57.265,11.727-83.75,0.009-81.625l3.505-31.111l-8.901-2.432l-14.271,32.445
		C152.554,347.564,150.184,366.689,131.831,427.709z"/>
	<linearGradient id="SVGID_6_" gradientUnits="userSpaceOnUse" x1="148.1519" y1="319.6758" x2="148.1518" y2="563.168">
		<stop  offset="0" style="stop-color:#571A54"/>
		<stop  offset="0.2641" style="stop-color:#7C5378"/>
		<stop  offset="0.528" style="stop-color:#A78AA3"/>
		<stop  offset="0.7459" style="stop-color:#CDBCCB"/>
		<stop  offset="0.9095" style="stop-color:#EAE1E8"/>
		<stop  offset="1" style="stop-color:#F9F3F8"/>
	</linearGradient>
	<path fill="url(#SVGID_6_)" d="M146.41,479.117l-22.914,19.186l35.325-65.182l4.683-17.371c0,0,3.098-26.758-24.228,14.713
		c16.962-56.432,32.317-62.998,32.317-62.998l11.404-46.658l-4.725-1.131l-14.702,30.23c-11.429-4.588-13.859,14.521-32.392,75.485
		c-24.224,79.655-20.501,124.085-8.358,137.776L146.41,479.117z"/>
	
		<linearGradient id="SVGID_7_" gradientUnits="userSpaceOnUse" x1="75.7998" y1="402.9658" x2="43.9086" y2="490.7602" gradientTransform="matrix(0.9399 -0.3414 0.3414 0.9399 -44.7892 56.207)">
		<stop  offset="0" style="stop-color:#802986"/>
		<stop  offset="0.2641" style="stop-color:#9D66A2"/>
		<stop  offset="0.528" style="stop-color:#BE9BC2"/>
		<stop  offset="0.7459" style="stop-color:#DBC8DE"/>
		<stop  offset="0.9095" style="stop-color:#F0E6F1"/>
		<stop  offset="1" style="stop-color:#F9F3F8"/>
	</linearGradient>
	<path fill="url(#SVGID_7_)" d="M147.332,501.478l31.839-92.4c0,0,6.608,60.692-7.474,93.405
		c1.438-44.878-2.328-36.951-9.176-25.254C159.71,482.03,147.332,501.478,147.332,501.478z"/>
	
		<linearGradient id="SVGID_8_" gradientUnits="userSpaceOnUse" x1="100.2559" y1="370.0205" x2="67.8228" y2="459.3065" gradientTransform="matrix(0.9399 -0.3414 0.3414 0.9399 -44.7892 56.207)">
		<stop  offset="0" style="stop-color:#802986"/>
		<stop  offset="0.2641" style="stop-color:#9D66A2"/>
		<stop  offset="0.528" style="stop-color:#BE9BC2"/>
		<stop  offset="0.7459" style="stop-color:#DBC8DE"/>
		<stop  offset="0.9095" style="stop-color:#F0E6F1"/>
		<stop  offset="1" style="stop-color:#F9F3F8"/>
	</linearGradient>
	<path fill="url(#SVGID_8_)" d="M156.286,463.716l38.825-93.952c0,0,2.251,62.278-11.831,94.991
		c-0.298-44.249-5.388-28.089-8.538-23.508C165.662,454.416,156.286,463.716,156.286,463.716z"/>
	
		<linearGradient id="SVGID_9_" gradientUnits="userSpaceOnUse" x1="19.1768" y1="337.1123" x2="-32.4432" y2="389.2988" gradientTransform="matrix(0.711 -0.7032 0.7032 0.711 -56.5767 131.5096)">
		<stop  offset="0" style="stop-color:#571A54"/>
		<stop  offset="0.2641" style="stop-color:#7C5378"/>
		<stop  offset="0.528" style="stop-color:#A78AA3"/>
		<stop  offset="0.7459" style="stop-color:#CDBCCB"/>
		<stop  offset="0.9095" style="stop-color:#EAE1E8"/>
		<stop  offset="1" style="stop-color:#F9F3F8"/>
	</linearGradient>
	<path fill="url(#SVGID_9_)" d="M180.916,431.115l9.787-73.404c0,0,18.589,43.111,16.428,71.425
		c-11.773-30.423-13.671-21.048-17.578-14.96C187.396,417.538,180.916,431.115,180.916,431.115z"/>
	<path fill="#1E3D73" d="M174.914,335.556L158.76,362.31l-23.24,76.647c0,0,1.211-8.173,1.788-15.883l-18.783,50.773
		c0,0,8.386-31.226,3.609-28.382c-4.777,2.84,4.225-21.91-23.102,13.729c5.316-18.514,20.495-39.508,33.324-54.9
		c-2.172,0.474-7.1,4.788-18.387,18.374c4.38-15.232,14.957-32.934,25.358-47.898c-1.159-2.683-5.151-3.889-21.234,5.221
		C134.366,356.719,174.914,335.556,174.914,335.556z"/>
</g>
<g>
	<path fill="#F4DFED" d="M94.453,401.163c-49.752,66.752-62.779,117.913-54.719,124.242c8.987,7.059,57.064-29.51,100.989-99.844
		c31.011-49.657,39.62-74.709,27.879-76.714l13.916-28.052l-7.539-5.319L150.496,341.1
		C141.291,332.911,132.531,350.072,94.453,401.163z"/>
	<path fill="#656B84" d="M90.603,454.464L62.515,464.67l55.456-49.201l10.331-14.731c0,0,12.047-24.096-27.794,5.558
		c35.211-47.255,51.89-48.182,51.89-48.182l26.641-39.956l-4.058-2.681l-24.133,23.399c-9.177-8.222-17.989,8.911-56.224,59.885
		c-49.96,66.6-61.634,109.635-54.889,126.645L90.603,454.464z"/>
	<linearGradient id="SVGID_10_" gradientUnits="userSpaceOnUse" x1="106.2383" y1="485.0312" x2="121.9901" y2="395.6984">
		<stop  offset="0" style="stop-color:#571A54"/>
		<stop  offset="0.2641" style="stop-color:#7C5378"/>
		<stop  offset="0.528" style="stop-color:#A78AA3"/>
		<stop  offset="0.7459" style="stop-color:#CDBCCB"/>
		<stop  offset="0.9095" style="stop-color:#EAE1E8"/>
		<stop  offset="1" style="stop-color:#F9F3F8"/>
	</linearGradient>
	<path fill="url(#SVGID_10_)" d="M83.829,475.791l61.474-75.981c0,0-14.507,59.304-38.916,85.248
		c16.678-41.696,12.058-33.368,0-26.873C101.491,460.821,83.829,475.791,83.829,475.791z"/>
	<linearGradient id="SVGID_11_" gradientUnits="userSpaceOnUse" x1="130.9844" y1="453.7012" x2="146.8758" y2="363.5764">
		<stop  offset="0" style="stop-color:#571A54"/>
		<stop  offset="0.2641" style="stop-color:#7C5378"/>
		<stop  offset="0.528" style="stop-color:#A78AA3"/>
		<stop  offset="0.7459" style="stop-color:#CDBCCB"/>
		<stop  offset="0.9095" style="stop-color:#EAE1E8"/>
		<stop  offset="1" style="stop-color:#F9F3F8"/>
	</linearGradient>
	<path fill="url(#SVGID_11_)" d="M105.143,443.356l68.564-75.05c0,0-19.143,59.297-43.551,85.248
		c14.824-41.701,10.567-27.993,0-25.023C124.802,430.041,105.143,443.356,105.143,443.356z"/>
	<path fill="#656B84" d="M139.423,421.124l34.26-65.654c0,0,2.748,46.867-8.945,72.74c-0.676-32.615-3.041-28.432-11.413-20.06
		C150.5,410.974,139.423,421.124,139.423,421.124z"/>
	<path fill="#656B84" d="M166.408,329.256l-24.322,19.63l-48.011,64.112c0,0,3.931-7.274,7.104-14.322l-34.994,41.313
		c0,0,18.552-26.484,13.089-25.448c-5.464,1.04,11.451-19.148-26.399,5.019c11.313-15.587,32.751-30.137,50.064-40.227
		c-2.205-0.298-8.316,2.077-23.552,10.989c9.313-12.818,25.302-25.842,40.183-36.357c-0.175-2.919-3.515-5.416-21.74-2.346
		C121.065,335.3,166.408,329.256,166.408,329.256z"/>
</g>
<g>
	<path fill="#D9AF82" enable-background="new    " d="M315.05,115.063c-50.514,0-83.218,15.021-109.641,64.839
		c-2.502,4.713-0.232,14.337-2.796,19.152c-13.845,26.007-37.089,48.236-37.089,71.707c0,34.337,19.1,65.637,42.505,89.297
		c12.185,71.644,34.7,151.593,104.339,151.593"/>
	<path fill="#010101" d="M203.271,178.766c-1.519,2.855-1.59,6.774-1.656,10.562c-0.062,3.283-0.123,6.677-1.14,8.588
		c-4.537,8.519-10.146,16.707-15.577,24.624c-11.21,16.353-21.797,31.798-21.797,48.221c0,30.307,15.166,62.382,42.666,90.413
		c12.578,73.606,36.115,150.477,106.6,150.477v-1.546c-67.084,0-89.722-78.554-101.95-150.453l-0.127-0.748l-0.54-0.549
		c-26.957-27.255-41.805-58.361-41.805-87.594c0-14.923,10.174-29.766,20.949-45.482c5.501-8.027,11.192-16.327,15.857-25.087
		c1.56-2.935,1.636-6.92,1.707-10.773c0.057-3.221,0.118-6.551,1.088-8.381c24.256-45.734,54.398-65.974,107.503-65.974v-2.422
		C259.849,112.641,228.506,131.181,203.271,178.766z"/>
</g>
<path fill="#8B654B" d="M312.368,511.65c72.045,0,92.163-79.949,104.338-151.593c23.405-23.66,42.512-54.96,42.512-89.297
	c0-37.004-22.588-49.51-38.609-77.154c-5.681-9.798-1.496-24.634-8.084-33.382c-26.905-35.728-53.772-45.162-97.475-45.162"/>
<ellipse fill="#D9AF82" cx="313.792" cy="343.947" rx="21.906" ry="68.144"/>
<path fill="#8B654B" d="M342.916,373.454c0,7.813-14.98,12.535-27.275,12.535c-12.293,0-27.808-4.735-27.808-12.549
	c3.43-3.43,15.246,4.886,27.544,4.886C334.789,378.326,342.916,312.495,342.916,373.454z"/>
<path fill="#D9AF82" d="M335.697,435.217c0,37.637-9.81,68.831-21.91,68.831c-12.096,0-21.901-31.194-21.901-68.831
	c0-37.639,9.882-50.259,21.977-50.259C325.962,384.958,335.697,397.578,335.697,435.217z"/>
<path opacity="0.36" fill="#8A644B" d="M328.365,281.605c-1.826,24.681-14.186-7.573-34.757,20.974
	c-8.672,12.026-23.23,10.877-38.845,10.877c-39.61,0-66.544-26.03-67.859-38.868c-2.517-24.557,29.024-39.586,71.464-39.586
	C297.028,235.002,329.255,269.622,328.365,281.605z"/>
<linearGradient id="SVGID_12_" gradientUnits="userSpaceOnUse" x1="214.7554" y1="341.0537" x2="290.4385" y2="341.0537">
	<stop  offset="0" style="stop-color:#D9AF82"/>
	<stop  offset="0.0786" style="stop-color:#DFB791"/>
	<stop  offset="0.2053" style="stop-color:#E7C1A5"/>
	<stop  offset="0.345" style="stop-color:#EDC9B5"/>
	<stop  offset="0.5023" style="stop-color:#F1CFC0"/>
	<stop  offset="0.6917" style="stop-color:#F4D3C7"/>
	<stop  offset="1" style="stop-color:#F5D4C9"/>
</linearGradient>
<path opacity="0.36" fill="url(#SVGID_12_)" d="M272.246,361.529c-28.722,19.46-56.346-24.299-57.491-43.314
	c15.913,13.821,62.032,18.457,75.683-2.517L272.246,361.529z"/>
<path opacity="0.36" fill="#8A644B" d="M313.706,461.213c-38.167,0-61.231-13.681-61.231-31.63c0-6.048,15.651-24.078,37.32-49.365
	c5.952-3.699,7.464,10.038,14.958,4.731C331.61,392.044,328.318,461.213,313.706,461.213z"/>
<g>
	<path fill="#8A644B" d="M260.464,472.116c8.339,23.94,32.817,36.466,52.688,36.466v-4.845
		C294.99,503.737,268.056,493.921,260.464,472.116L260.464,472.116z"/>
</g>
<g>
	<path fill="#8A644B" d="M180.954,271.658c0,21.359,5.388,36.679,27.099,48.222c0.587,1.121,7.021,13.387,7.021,13.387
		c8.916,16.375,19.02,34.94,19.02,54.406h4.844c0-20.699-10.416-39.839-19.612-56.725l-7.586-14.455l-0.709-0.426
		C190.509,305.4,180.954,291.289,180.954,271.658L180.954,271.658z"/>
</g>
<g>
	<path fill="#010101" d="M208.814,230.649l-0.104-0.97c-3.108-15.25-3.226-33.651-0.312-49.217l-4.764-0.889
		C200.613,195.722,205.583,214.815,208.814,230.649z"/>
</g>
<linearGradient id="SVGID_13_" gradientUnits="userSpaceOnUse" x1="191.0591" y1="310.5205" x2="451.5771" y2="310.5205">
	<stop  offset="0" style="stop-color:#5B3E1D"/>
	<stop  offset="1" style="stop-color:#010101"/>
</linearGradient>
<path fill="url(#SVGID_13_)" d="M423.943,199.054c-3.983-11.059-0.737-20.853-8.061-31.231
	c-19.885-28.185-51.072-56.27-108.998-52.618l5.212,140.363c0,0-122.733-25.589-121.021,15.935c0.227,5.387,40.188,2.88,63.46,4.428
	c-26.092,4.566-32.185,5.898-32.185,8.838c0,6.206,21.863,0.683,25.108,2.467c4.976,2.739-43.139,7.052-34.351,8.757
	c10.057,1.951,44.474,3.086,57.444,3.086c28.929,0,41.077-25.412,41.077-4.485c7.346,27.893,14.739,59.24,13.972,69.882
	c-1.475,20.662-19.62,20.188-19.62,20.188l5.089,24.285c-8.557,0.439-6.245-1.324-13.85-0.549
	c-14.427,0-32.354,13.032-32.354,16.054l39.989,0.435c0,0-29.081,13.771-22.975,22.928c4.763,7.143,20.316,13.378,31.091,13.424
	c0,0,3.273,8.55,3.273,22.352c0,13.811-4.035,22.565-4.035,22.565c46.171,0,67.49-49.036,80.324-118.446
	c6.083-32.876,20.018-58.106,36.034-71.657c15.742-13.321,23.008-26.641,23.008-52.071
	C451.577,249.847,443.574,230.354,423.943,199.054z"/>
<path fill="#D9AF82" d="M325.395,252.416l-13.297,4.328c0,0-65.848-96.356-46.493-121.312
	c12.682-16.357,24.611-18.136,40.046-19.238c13.519-0.965,21.294,16.525,27.302,24.271
	C350.375,162.927,325.395,252.416,325.395,252.416z"/>
<linearGradient id="SVGID_14_" gradientUnits="userSpaceOnUse" x1="260.7119" y1="113.4033" x2="349.5527" y2="113.4033" gradientTransform="matrix(0.676 0.6564 -0.9247 0.9523 168.3961 -132.5865)">
	<stop  offset="0" style="stop-color:#FFFFFF"/>
	<stop  offset="0.0769" style="stop-color:#F4E9DD"/>
	<stop  offset="0.1814" style="stop-color:#EBD6BF"/>
	<stop  offset="0.2951" style="stop-color:#E5C7A8"/>
	<stop  offset="0.419" style="stop-color:#DFBC96"/>
	<stop  offset="0.5585" style="stop-color:#DCB58B"/>
	<stop  offset="0.7265" style="stop-color:#DAB084"/>
	<stop  offset="1" style="stop-color:#D9AF82"/>
</linearGradient>
<path fill="url(#SVGID_14_)" d="M305.253,199.27c-26.745,27.542-70.168,41.961-81.283,24.357
	c-14.513-22.972-12.896-47.545,13.854-75.082c26.74-27.547,64.922-33.847,85.28-14.081
	C343.464,154.233,332.003,171.726,305.253,199.27z"/>
<linearGradient id="SVGID_15_" gradientUnits="userSpaceOnUse" x1="241.0796" y1="401.8057" x2="241.0796" y2="318.2148">
	<stop  offset="0" style="stop-color:#D9AF82"/>
	<stop  offset="0.1127" style="stop-color:#BD936E"/>
	<stop  offset="0.2679" style="stop-color:#A57C5E"/>
	<stop  offset="0.4437" style="stop-color:#966E53"/>
	<stop  offset="0.6554" style="stop-color:#8D664D"/>
	<stop  offset="1" style="stop-color:#8A644B"/>
</linearGradient>
<path fill="url(#SVGID_15_)" d="M272.246,361.529c0,46.274-35.419,42.799-45.106,36.896c0-45.751-17.227-80.21-17.227-80.21
	S249.882,354.221,272.246,361.529z"/>
<linearGradient id="SVGID_16_" gradientUnits="userSpaceOnUse" x1="175.4648" y1="345.0176" x2="128.5757" y2="362.0838" gradientTransform="matrix(-1 0 0 1 538.9277 0)">
	<stop  offset="0" style="stop-color:#382815"/>
	<stop  offset="0.4081" style="stop-color:#553E2B"/>
	<stop  offset="1" style="stop-color:#8B654B"/>
</linearGradient>
<path fill="url(#SVGID_16_)" d="M359.338,356.35c0,46.27,21.504,44.032,31.073,44.032c7.488-45.135,35.671-81.515,35.671-81.515
	S381.703,349.045,359.338,356.35z"/>
<path fill="none" stroke="#010101" stroke-width="4.8437" d="M173.934,294.978"/>
<g>
	<path fill="#010101" d="M311.507,115.089c53.106,0,83.247,20.214,107.503,65.948c0.904,1.702,0.904,4.883,0.904,7.96
		c-0.005,4.146-0.005,8.432,2.029,11.419c16.157,23.757,31.933,48.809,31.933,70.969c0,32.381-12.818,62.458-37.074,86.969
		l-0.541,0.549l-0.128,0.748c-12.222,71.899-36.672,150.453-103.765,150.453v1.517c70.499,0,95.847-76.845,108.416-150.456
		c24.801-25.335,37.935-56.354,37.935-89.78c0-23.537-16.19-49.311-32.774-73.694c-1.153-1.698-1.192-5.061-1.192-8.37
		c0-0.109,0.004-0.537,0.004-0.646c0-3.567-0.041-7.221-1.469-9.91c-25.237-47.585-56.579-66.125-111.78-66.125V115.089z"/>
</g>
<polygon fill="#010101" points="339.974,84.79 334.59,115.675 300.608,113.719 312.435,66.413 "/>
<circle fill="#010101" stroke="#010101" stroke-width="4.8437" cx="452.06" cy="492.948" r="19.204"/>
<g>
	<linearGradient id="SVGID_17_" gradientUnits="userSpaceOnUse" x1="109.1782" y1="336.3027" x2="170.7935" y2="336.3027">
		<stop  offset="0" style="stop-color:#571A54"/>
		<stop  offset="0.2641" style="stop-color:#7C5378"/>
		<stop  offset="0.528" style="stop-color:#A78AA3"/>
		<stop  offset="0.7459" style="stop-color:#CDBCCB"/>
		<stop  offset="0.9095" style="stop-color:#EAE1E8"/>
		<stop  offset="1" style="stop-color:#F9F3F8"/>
	</linearGradient>
	<path fill="url(#SVGID_17_)" d="M109.178,338.034c9.592-7.823,34.696,4.862,34.833,4.862l26.782-8.396
		C170.211,334.501,120.246,321.648,109.178,338.034z"/>
</g>
<linearGradient id="SVGID_18_" gradientUnits="userSpaceOnUse" x1="-102.0645" y1="221.0444" x2="-84.4219" y2="221.0444" gradientTransform="matrix(-0.0113 -0.7169 1.2476 -0.0198 36.6184 302.7065)">
	<stop  offset="0" style="stop-color:#D9AF82"/>
	<stop  offset="0.0786" style="stop-color:#DFB791"/>
	<stop  offset="0.2053" style="stop-color:#E7C1A5"/>
	<stop  offset="0.345" style="stop-color:#EDC9B5"/>
	<stop  offset="0.5023" style="stop-color:#F1CFC0"/>
	<stop  offset="0.6917" style="stop-color:#F4D3C7"/>
	<stop  offset="1" style="stop-color:#F5D4C9"/>
</linearGradient>
<path opacity="0.36" fill="url(#SVGID_18_)" d="M313.352,358.852c6.074-0.1,11.045,2.653,11.102,6.149
	c0.058,3.49-4.829,6.399-10.907,6.498c-6.078,0.101-11.045-2.657-11.107-6.153C302.388,361.854,307.269,358.946,313.352,358.852z"/>
<path fill="#483218" d="M397.109,309.378c15.699-3.759,26.445-18.402,20.099-27.063c-38.74,19.354-75.295,11.369-85.531,9.147
	C368.014,309.492,371.117,315.595,397.109,309.378z"/>
<path fill="#B4B4B4" d="M310.92,73.714c-38.372,0-93.118,22.758-117.549,74.944c-6.089,12.999-6.656,32.87,0.638,45.014
	c0,0,18.604-81.43,108.231-86.494"/>
</svg>
