<?xml version="1.0" encoding="UTF-8" standalone="no"?>
<svg width="3100px" height="3100px" viewBox="0 0 3100 3100" version="1.1" xmlns="http://www.w3.org/2000/svg" xmlns:xlink="http://www.w3.org/1999/xlink" xmlns:sketch="http://www.bohemiancoding.com/sketch/ns">
    <title>tomahawk-icon</title>
    <description>Created with Sketch (http://www.bohemiancoding.com/sketch)</description>
    <defs>
        <filter x="-20%" y="-20%" width="140%" height="140%" filterUnits="objectBoundingBox" id="filter-1">
            <feOffset dx="0" dy="2" in="SourceAlpha" result="shadowOffsetOuter1"></feOffset>
            <feGaussianBlur stdDeviation="2" in="shadowOffsetOuter1" result="shadowBlurOuter1"></feGaussianBlur>
            <feColorMatrix values="0 0 0 0 0   0 0 0 0 0   0 0 0 0 0  0 0 0 0.7 0" in="shadowBlurOuter1" type="matrix" result="shadowMatrixOuter1"></feColorMatrix>
            <feMerge>
                <feMergeNode in="shadowMatrixOuter1"></feMergeNode>
                <feMergeNode in="SourceGraphic"></feMergeNode>
            </feMerge>
        </filter>
    </defs>
    <g id="Page 1" stroke="none" stroke-width="1" fill="none" fill-rule="evenodd" sketch:type="MSPage">
        <circle d="M1546,3051 C2374.42717,3051 3046,2379.42717 3046,1551 C3046,722.572834 2374.42717,51 1546,51 C717.572834,51 46,722.572834 46,1551 C46,2379.42717 717.572834,3051 1546,3051 Z M1546,3051" id="Oval 1" stroke="#979797" fill="#FFFFFF" sketch:type="MSShapeGroup" cx="1546" cy="1551" r="1500"></circle>
        <g id="Group" sketch:type="MSLayerGroup" transform="translate(46.000000, 48.000000)">
            <path d="M1500.00026,326.562245 C852.333832,326.562245 325.623384,853.409757 325.623384,1501.14467 C325.623384,2148.84339 852.297589,2675.87184 1500.00026,2675.87184 C1592.85982,2675.87184 1682.97119,2664.36909 1769.71967,2643.75096 L1769.71967,1630.53256 L961.97175,2202.26973 C954.812018,2207.15297 945.916593,2209.9744 937.346612,2209.9744 C930.693123,2209.9744 923.894994,2208.56369 917.783909,2205.05499 C903.464446,2197.74821 894.56902,2183.06231 894.56902,2167.32742 L894.56902,827.040286 C894.56902,811.305396 903.464445,796.474809 917.783909,788.951001 C932.103373,781.969774 949.026377,783.199628 961.97175,792.27884 L1769.71967,1364.0522 L1769.71967,784.284802 L1804.10807,784.284802 L2127.56161,784.284802 L2127.56161,2492.84071 C2455.75216,2284.34437 2674.34095,1918.13743 2674.34095,1501.10857 C2674.34087,853.446289 2147.48558,326.562245 1500.00026,326.562245 L1500.00026,326.562245 L1500.00026,326.562245" id="Shape" sketch:type="MSShapeGroup"></path>
            <path d="M1500.00026,0.904613118 C672.870406,0.904613118 0.0726019231,673.923876 0.0726019231,1501.14494 C0.0726019231,2328.4023 672.870475,3001.38527 1500.00026,3001.38527 C2326.94928,3001.38527 2999.78337,2328.40223 2999.78337,1501.14494 C2999.74681,673.923394 2326.94887,0.904613118 1500.00026,0.904613118 L1500.00026,0.904613118 L1500.00026,0.904613118 M2127.56146,2492.87708 L2127.56146,784.321176 L1804.10793,784.321176 L1769.71952,784.321176 L1769.71952,1364.08857 L961.971604,792.315213 C949.06239,783.236001 932.103228,782.006148 917.783763,788.987375 C903.464299,796.511184 894.568874,811.341769 894.568874,827.076659 L894.568874,2167.3638 C894.568874,2183.09869 903.464299,2197.78459 917.783763,2205.09136 C923.894847,2208.60006 930.692976,2210.01078 937.346465,2210.01078 C945.880287,2210.01078 954.775711,2207.18935 961.971604,2202.30611 L1769.71952,1630.56893 L1769.71952,2643.78733 C1682.97105,2664.36929 1592.85968,2675.90821 1500.00012,2675.90821 C852.333686,2675.90821 325.623237,2148.87983 325.623237,1501.18104 C325.623237,853.482317 852.297442,326.598618 1500.00012,326.598618 C2147.48578,326.598618 2674.377,853.44613 2674.377,1501.18104 C2674.34087,1918.17376 2455.75215,2284.38047 2127.56146,2492.87708 L2072.56159,399.051282" id="Shape" fill="#E63E30" filter="url(#filter-1)" sketch:type="MSShapeGroup"></path>
        </g>
    </g>
</svg>