<?xml version="1.0" encoding="UTF-8" standalone="no"?>
<!-- Generator: Adobe Illustrator 16.0.0, SVG Export Plug-In . SVG Version: 6.00 Build 0)  -->

<svg
   xmlns:dc="http://purl.org/dc/elements/1.1/"
   xmlns:cc="http://creativecommons.org/ns#"
   xmlns:rdf="http://www.w3.org/1999/02/22-rdf-syntax-ns#"
   xmlns:svg="http://www.w3.org/2000/svg"
   xmlns="http://www.w3.org/2000/svg"
   xmlns:sodipodi="http://sodipodi.sourceforge.net/DTD/sodipodi-0.dtd"
   xmlns:inkscape="http://www.inkscape.org/namespaces/inkscape"
   version="1.1"
   id="Layer_1"
   x="0px"
   y="0px"
   width="606.2478"
   height="595.49866"
   viewBox="0 0 606.24779 595.49863"
   enable-background="new 0 0 841.89 595.28"
   xml:space="preserve"
   inkscape:version="0.48.2 r9819"
   sodipodi:docname="tomahawk-icon.svg"><metadata
   id="metadata15"><rdf:RDF><cc:Work
       rdf:about=""><dc:format>image/svg+xml</dc:format><dc:type
         rdf:resource="http://purl.org/dc/dcmitype/StillImage" /></cc:Work></rdf:RDF></metadata><defs
   id="defs13" /><sodipodi:namedview
   pagecolor="#ffffff"
   bordercolor="#666666"
   borderopacity="1"
   objecttolerance="10"
   gridtolerance="10"
   guidetolerance="10"
   inkscape:pageopacity="0"
   inkscape:pageshadow="2"
   inkscape:window-width="1440"
   inkscape:window-height="794"
   id="namedview11"
   showgrid="false"
   inkscape:zoom="1"
   inkscape:cx="431.12548"
   inkscape:cy="336.94553"
   inkscape:window-x="0"
   inkscape:window-y="0"
   inkscape:window-maximized="0"
   inkscape:current-layer="Layer_1"
   inkscape:snap-page="false"
   fit-margin-top="0"
   fit-margin-left="0"
   fit-margin-right="0"
   fit-margin-bottom="0"><sodipodi:guide
     position="-3.5728101e-05,-1.501866e-05"
     orientation="0,841.89001"
     id="guide2994" /><sodipodi:guide
     position="841.88997,-1.501866e-05"
     orientation="-595.28003,0"
     id="guide2996" /><sodipodi:guide
     position="841.88997,595.28001"
     orientation="0,-841.89001"
     id="guide2998" /><sodipodi:guide
     position="-3.5728101e-05,595.28001"
     orientation="595.28003,0"
     id="guide3000" /></sodipodi:namedview>
<g
   id="g3"
   transform="matrix(7.3080643,0,0,7.1790074,-2773.1692,-1839.0104)">
	<g
   id="g5">
		<path
   d="m 420.947,265.168 c -17.911,0 -32.477,14.565 -32.477,32.472 0,17.906 14.565,32.476 32.477,32.476 2.568,0 5.06,-0.318 7.459,-0.888 v -28.011 l -22.338,15.806 c -0.198,0.135 -0.444,0.213 -0.681,0.213 -0.184,0 -0.372,-0.039 -0.541,-0.136 -0.396,-0.202 -0.642,-0.608 -0.642,-1.043 v -37.053 c 0,-0.435 0.246,-0.845 0.642,-1.053 0.396,-0.193 0.864,-0.159 1.222,0.092 l 22.338,15.807 v -16.028 h 0.951 8.945 v 47.234 c 9.076,-5.764 15.121,-15.888 15.121,-27.417 10e-4,-17.905 -14.569,-32.471 -32.476,-32.471 z"
   id="path7"
   inkscape:connector-curvature="0"
   style="fill:none" />
		<path
   d="m 420.947,256.165 c -22.874,0 -41.48,18.606 -41.48,41.475 0,22.87 18.606,41.475 41.48,41.475 22.869,0 41.476,-18.605 41.476,-41.475 0,-22.869 -18.607,-41.475 -41.476,-41.475 z m 17.356,68.892 v -47.234 h -8.945 -0.951 v 16.028 l -22.338,-15.807 c -0.357,-0.251 -0.826,-0.285 -1.222,-0.092 -0.396,0.208 -0.642,0.618 -0.642,1.053 v 37.053 c 0,0.435 0.246,0.841 0.642,1.043 0.169,0.097 0.357,0.136 0.541,0.136 0.236,0 0.482,-0.078 0.681,-0.213 l 22.338,-15.806 v 28.011 c -2.399,0.569 -4.891,0.888 -7.459,0.888 -17.911,0 -32.477,-14.57 -32.477,-32.476 0,-17.906 14.565,-32.472 32.477,-32.472 17.906,0 32.477,14.565 32.477,32.472 -0.001,11.528 -6.046,21.652 -15.122,27.416 z"
   id="path9"
   inkscape:connector-curvature="0"
   style="fill:#e63e30" />
	</g>
</g>
</svg>